<svg id="apis" viewBox="0 0 16 16" xmlns="http://www.w3.org/2000/svg"><path d="m6.25481 8.379h4.82985a2.47169 2.47169 0 1 0 0-.74689h-4.84329a3.18176 3.18176 0 0 0 -.2639-.90472l4.60329-2.67185a2.48314 2.48314 0 1 0 -.37145-.6473l-4.62569 2.68532a3.10007 3.10007 0 0 0 -2.42588-1.17256 3.13691 3.13691 0 1 0 2.48115 5.029l4.57042 2.65392a2.47867 2.47867 0 0 0 1.05759 3.03733 2.45226 2.45226 0 0 0 3.35205-.88936l.00942-.01636a2.48114 2.48114 0 0 0 -.89974-3.37492 2.44829 2.44829 0 0 0 -3.14836.59751l-4.56645-2.65296a3.1214 3.1214 0 0 0 .241-.92663zm7.25619-2.09872a1.7258 1.7258 0 1 1 -1.71377 1.73772v-.01191a1.72182 1.72182 0 0 1 1.71377-1.72581zm-1.8692-5.264a1.70588 1.70588 0 0 1 2.33216.61733l.00808.014a1.73427 1.73427 0 0 1 -.62738 2.35816 1.70589 1.70589 0 0 1 -2.33216-.61733l-.00808-.014a1.73327 1.73327 0 0 1 .62741-2.35819zm-6.43163 8.23461a2.37958 2.37958 0 1 1 .008-.01382zm7.28958 2.524a1.70435 1.70435 0 0 1 .85394.231 1.72729 1.72729 0 0 1 -.85941 3.22056 1.70446 1.70446 0 0 1 -.85394-.231 1.72729 1.72729 0 0 1 .85891-3.22056z"/></svg>