<svg id="homepagelower" viewBox="0 0 432 326" xmlns="http://www.w3.org/2000/svg">
  <polygon points="11.429 326 0 315.796 0 318.355 8.563 326 11.429 326"/>
  <path d="M430.17721,195.234a6.48738,6.48738,0,0,0-10.65277,2.01519L165.77727,133.55257a6.48163,6.48163,0,0,0-9.7124-8.50039c-.14783.14256-.28373.29029-.41548.44233L74.09431,74.34194a6.47741,6.47741,0,0,0-9.707-7.86145L0,0V2.73729L63.01467,67.8005a6.41291,6.41291,0,0,0-1.23038,2.74957L0,68.25785v1.90381l61.71382,2.29052A6.41187,6.41187,0,0,0,62.883,75.49951L0,136.16468v2.64872L64.2099,76.86816A6.47047,6.47047,0,0,0,68.107,78.21054l9.87862,69.73355L0,166.09071v1.956L78.25629,149.8372,93.85522,259.95388a6.458,6.458,0,0,0-3.04246,1.60944L0,201.884v2.28146l89.63111,58.9007a5.33963,5.33963,0,0,0-.2674.535L0,244.91326v1.94041l88.84,18.57721a6.448,6.448,0,0,0,3.782,6.74109L77.50256,326h1.97588L92.4616,279.77542,86.15964,326h1.92393l7.26237-53.26551a6.45927,6.45927,0,0,0,4.2079-1.62142l-.00067-.00073,52.04419,51.85437A6.45378,6.45378,0,0,0,150.47242,326h12.88071a6.46832,6.46832,0,0,0-.16441-.93361l29.57973-34.63175L212.07928,267.825a6.49785,6.49785,0,0,0,5.25688.73567l20.23475,41.673L166.82905,326h8.75521l62.84034-14.0064L245.22611,326h2.11951l-7.00885-14.434,97.462-21.72322a6.43233,6.43233,0,0,0,1.39082,2.1741c.12347.12748.25352.24311.38424.358L317.8071,326h2.26729l21.09886-32.5928a6.33922,6.33922,0,0,0,.652.25619L336.26022,326h1.937l5.50906-32.01246a6.4864,6.4864,0,0,0,2.779-.56009L367.2215,326h2.25791l-21.38587-33.59492c.08954-.07805.18182-.15046.26795-.2335a6.46513,6.46513,0,0,0,.55376-8.69779l72.935-78.3973a6.45925,6.45925,0,0,0,2.94147,1.09234L429.05118,326h1.90333l-4.26163-119.90181a6.47047,6.47047,0,0,0,3.48433-10.86417Zm-11.11327,3.86a6.47433,6.47433,0,0,0,.037,1.55734L289.15082,239.39838,168.76954,136.26663ZM69.99325,77.93958a6.46138,6.46138,0,0,0,2.66456-1.54823c.14783-.14256.28373-.29174.41548-.44379l81.55922,51.15549a6.48408,6.48408,0,0,0-.52671,3.12782L79.84861,147.50723ZM95.76173,259.81849,80.12058,149.40028,154.54,132.08234a6.44735,6.44735,0,0,0,1.3664,2.12017,6.54614,6.54614,0,0,0,1.04593.87354L97.3429,260.13832A6.45157,6.45157,0,0,0,95.76173,259.81849Zm62.13162,60.46686a6.48342,6.48342,0,0,0-4.98869,1.29825l-52.11837-51.931a6.43683,6.43683,0,0,0,.94506-2.98964l56.65983-1.631Zm.51471-57.15787-56.83929,1.63924a6.37405,6.37405,0,0,0-2.52842-3.75716l59.635-125.11468a6.55325,6.55325,0,0,0,.88452.19673Zm32.68815,26.32863-28.76105,33.677a6.55636,6.55636,0,0,0-.76086-.95324,6.44468,6.44468,0,0,0-1.77707-1.29168l.50472-55.9085,48.85358-1.406a6.43638,6.43638,0,0,0,1.47329,3.01159Zm17.97313-27.78719-48.75045,1.40081,1.14631-126.95994a6.46572,6.46572,0,0,0,.66773-.12749l49.95079,120.87518A6.45774,6.45774,0,0,0,209.06934,261.66892Zm4.76495-5.57355-49.93794-120.839c.14759-.08834.29037-.18457.43327-.2864L286.978,240.047,221.39288,259.6003A6.47085,6.47085,0,0,0,213.83429,256.09537Zm25.64806,53.70991-20.41189-42.045a6.55114,6.55114,0,0,0,.96224-.762,6.43672,6.43672,0,0,0,1.56016-2.38614l115.78468,22.6088a6.50729,6.50729,0,0,0,.00749.763Zm98.26359-24.44975L221.99013,262.74928a6.45479,6.45479,0,0,0-.05227-1.32657l66.76269-19.90538,49.6678,42.55473A6.40515,6.40515,0,0,0,337.74594,285.35553Zm9.7699-3.18181a6.49689,6.49689,0,0,0-7.90756.45419l-48.73784-41.755,128.77327-38.39578a6.36966,6.36966,0,0,0,.80721,1.29922Z"/>
</svg>