<svg id="homepageupper" viewBox="0 0 986 916" xmlns="http://www.w3.org/2000/svg">
  <path d="M986,901.39371l-18.93406-1.01127a14.19106,14.19106,0,0,0-3.93907-8.57553c-.27793-.28741-.56477-.54671-.85868-.80332L986,854.17268v-7.746l-27.257,42.3022a14.3008,14.3008,0,0,0-8.46366-1.03634L906.82369,760.72023,986,728.2851v-4.53974l-80.53936,32.991-69.3102-202.50414a14.28443,14.28443,0,0,0,3.36321-2.41657c.06174-.0541.11225-.12107.172-.17872l-.00146-.00152L986,627.44156v-4.72383L842.21327,548.221a14.10437,14.10437,0,0,0,.86087-1.994L986,514.31023v-4.3L843.8634,541.74893a14.30113,14.30113,0,0,0-.45386-3.74508l65.08807-76.3511,42.49884-49.84658a14.28667,14.28667,0,0,0,11.5687,1.62258L986,461.77785V452.1533l-19.62-40.48248a14.41107,14.41107,0,0,0,2.11729-1.68076,14.19046,14.19046,0,0,0,3.4319-5.263L986,407.47956v-4.27349l-13.20175-2.58248a14.24546,14.24546,0,0,0-.11431-2.9237L986,393.72236v-4.37969l-14.51087,4.33455a14.23172,14.23172,0,0,0-16.63193-7.72865L844.97194,119.54263c.32429-.19519.64029-.40758.95287-.63192L986,239.13992v-5.53051L855.69209,121.76566,986,154.53523v-4.32577L849.10854,115.78219a14.26375,14.26375,0,0,0-21.37722-18.74557c-.32478.314-.62869.64382-.91431.97533L670.84253,0h-7.884L824.5826,101.5644a14.31921,14.31921,0,0,0-1.1582,6.896l-163.39963,38.093L639.30187,0h-4.23775L655.921,147.50786,408.66406,205.15225a14.08159,14.08159,0,0,0-1.67367-3.04276L616.10005,0h-6.04563L404.07152,199.08728a14.21546,14.21546,0,0,0-5.54613-2.608L413.088,0h-4.20847l-14.536,196.16792c-.44092.03422-.88649.0896-1.31815.16213L329.17822,0H324.048l64.94313,197.63837a14.2918,14.2918,0,0,0-6.04539,5.78041l-98.205-37.36994L312.733,0h-4.2558l-27.736,164.52569-49.73415-18.925a14.26,14.26,0,0,0-3.25023-14.48147c-.314-.32481-.64394-.62863-.97824-.917L298.29883,0h-4.78555L223.22155,127.9678a14.3017,14.3017,0,0,0-11.60116.07808L155.503,40.97924,247.17846,0H236.893L153.20006,37.412,129.08661,0H124.0917L149.322,39.14488,26.33271,94.122a14.41624,14.41624,0,0,0-1.77354-2.243,14.18531,14.18531,0,0,0-6.94962-3.9507L25.26,0H21.048L13.43061,87.56547a14.27589,14.27589,0,1,0,14.32206,18.96931l175.49448,33.88636a14.23214,14.23214,0,0,0,15.00193,14.85556l34.15476,148.4391A14.26615,14.26615,0,1,0,268.11134,327.01l-1.39843,1.563,348.172,311.432a14.25509,14.25509,0,0,0,10.07791,21.98871l3.5971,195.41186a14.27794,14.27794,0,1,0,16.20491,17.48172l293.85065,27.60754a14.26555,14.26555,0,0,0,28.22528,2.07913L986,905.59723ZM207.57066,130.77585a14.191,14.191,0,0,0-3.53182,5.5263L28.54565,102.41726a14.29584,14.29584,0,0,0-.50175-4.46179L151.62216,42.712l56.46715,87.6125C207.91789,130.47361,207.73732,130.61476,207.57066,130.77585Zm632.04841-9.35641a14.21992,14.21992,0,0,0,1.46943-.2818L951.00829,387.62537a14.24055,14.24055,0,0,0-6.62784,10.6119L837.0955,401.33194ZM837.05743,405.533l107.50627-3.10156a14.20062,14.20062,0,0,0,3.2434,6.64059l-42.98442,50.4214-63.29081,74.24581a14.45786,14.45786,0,0,0-1.67355-2.10207,14.18686,14.18686,0,0,0-3.912-2.84745ZM835.42549,121.3765,832.89777,401.453,707.814,405.06049a14.05788,14.05788,0,0,0-5.56212-8.28287L833.47852,120.94415A14.41684,14.41684,0,0,0,835.42549,121.3765ZM816.12663,546.24744l-149.49208,78.3535,27.48617-201.9731a14.19939,14.19939,0,0,0,9.25791-3.57312l-.00012-.00006L817.90364,533.37573A14.27956,14.27956,0,0,0,816.12663,546.24744Zm-154.05,80.742-23.75645,12.452a14.0747,14.0747,0,0,0-1.253-1.51467,14.2449,14.2449,0,0,0-4.433-3.10156l55.14-196.6773Zm44.01782-211.15316a14.21042,14.21042,0,0,0,2.08178-6.58771l124.68564-3.59807-1.09366,121.811a14.24859,14.24859,0,0,0-10.97477,2.85989ZM824.37861,112.54466a14.21789,14.21789,0,0,0,3.00939,4.67327,14.42061,14.42061,0,0,0,2.302,1.92542L698.51561,394.8597a14.1752,14.1752,0,0,0-3.47973-.70506L660.61552,150.722ZM409.6168,209.23787,656.51174,151.6807l34.32971,242.7724a14.20233,14.20233,0,0,0-6.69311,3.55025L414.61867,220.54465l-6.29049-4.14022A14.26736,14.26736,0,0,0,409.6168,209.23787ZM385.46542,220.633a14.26334,14.26334,0,0,0,19.85068.03227c.25011-.24173.4757-.49871.70556-.75417l67.29015,44.29953L681.54962,401.31566c-.21924.38287-.4147.77606-.5938,1.173L272.464,316.90017a14.23583,14.23583,0,0,0-2.41315-8.081ZM257.47976,302.50708c-.34454.01751-.68713.04844-1.027.0879L222.365,154.44538a14.02927,14.02927,0,0,0,6.71287-5.08572l50.95274,19.3889Zm9.73947,3.19312a14.16889,14.16889,0,0,0-5.55223-2.78413l22.36315-132.64863,97.42055,37.07465a14.26805,14.26805,0,0,0,1.45821,9.95613Zm350.471,331.17908L269.51562,325.44288l-.15629.1747a14.25475,14.25475,0,0,0,2.44756-4.56725L679.7964,406.53356a14.2197,14.2197,0,0,0,8.31749,14.85587l-59.5218,212.30289A14.24335,14.24335,0,0,0,617.69027,636.87928ZM632.51689,844.199,629.16051,661.92a14.25092,14.25092,0,0,0,11.11264-18.75765l21.10832-11.06419Zm2.38813,13.57982,31.03581-228.07633,152.13643-79.74192a14.12149,14.12149,0,0,0,1.25446,1.51608,14.37442,14.37442,0,0,0,1.18736,1.08452L636.40594,858.299A13.70234,13.70234,0,0,0,634.905,857.77886Zm8.27638,6.41161a14.26946,14.26946,0,0,0-1.99735-2.63414l.00134.00713a14.44034,14.44034,0,0,0-1.18516-1.08946L824.11385,554.73409a14.321,14.321,0,0,0,8.06946.85993l69.39011,202.74361ZM939.02,898.31905,645.163,870.705a14.29558,14.29558,0,0,0-.39066-2.62865l258.15715-105.762L946.30863,889.0506A14.1907,14.1907,0,0,0,939.02,898.31905Z"/>
</svg>