<svg id="Layer_1" data-name="Layer 1" xmlns="http://www.w3.org/2000/svg" viewBox="0 0 20 20"><path d="M17,14.5l1-.75V16.5a.5222.5222,0,0,1-.5.5H12v1l-2-1.5L12,15v1h5ZM11,13h5v1l2-1.5L16,11v1H10.5a.5222.5222,0,0,0-.5.5v2.75l1-.75Zm2.15-8.03c-.05-.05-.11-.1-.16-.15l-.18-.12L8.66,2.23A1.6699,1.6699,0,0,0,6.96,2.23L2.81,4.7l-.18.12c-.06.05-.11.1-.16.15A1.58859,1.58859,0,0,0,2,6.1v5.06a1.64964,1.64964,0,0,0,.81,1.42l4.15,2.47a1.6699,1.6699,0,0,0,1.69995,0l.34-.2V13.22l-1.06.63a.24305.24305,0,0,1-.26,0L5.42,12.51c-.04041-.04956-.10557-.10741-.1-.18V11.12a.20474.20474,0,0,1,.31-.18l1.35.75V8.84l-.73-.47a.19348.19348,0,0,1-.1-.17V7a.20505.20505,0,0,1,.21-.21.19293.19293,0,0,1,.1.03L8.54,7.97a.19369.19369,0,0,1,.1.17v3.55l1.35-.75a.181.181,0,0,1,.1-.043h3.53V6.12A1.61787,1.61787,0,0,0,13.15,4.97ZM7.81,6.46a.88.88,0,1,1,.88-.88A.875.875,0,0,1,7.81,6.46Z"/></svg>