<svg id="Itwin_controler" data-name="Itwin controler" xmlns="http://www.w3.org/2000/svg" viewBox="0 0 16 16"><path d="M9.54818,9.87707a3.61891,3.61891,0,0,1,.98668-.0925c.19528.12338.39056.25695.57556.39056h.04111l.05139-.04111a1.469,1.469,0,0,0,.10646-.18335,1.52385,1.52385,0,0,0,.15049-.60805l.02055-2.69281c.01028-.812.01028-1.60336.03084-2.45642-.05139-.6989.06167-.91474-.93529-1.54169L6.74231.34945A2.51775,2.51775,0,0,0,5.74535,0a1.8396,1.8396,0,0,0-.95584.34945L.94557,2.6517C.01028,3.18615.03083,3.50477,0,4.20366L.01028,6.59842V8.67455l.02055.68862c.01028.67835.30834.86335.7914,1.2128l2.52837,1.48c.555.33917,1.13057.66806,1.46974.87362.22611.11306.47278.23639.6989.32889a.73623.73623,0,0,0,.60639-.04111c.185-.0925.37-.185.555-.28778.28778-.16445.80168-.47279,1.31557-.78107q.20036-.83256.46251-1.81924A3.98533,3.98533,0,0,1,9.54818,9.87707ZM5.67075,2.78989a.80361.80361,0,1,1-.79856.80866A.8036.8036,0,0,1,5.67075,2.78989Zm2.143,7.72272L6.05486,11.55377c-.07076.03032-.13141.06065-.21227.091l-.13141.02022-.13141-.02022c-.06065-.03032-.14151-.06065-.20216-.091L3.62887,10.51261c-.27292-.21227-.39422-.182-.40433-.52563,0-.4953,0-.36389.01011-.86931,0-.26276.091-.3639.2426-.33357a.59779.59779,0,0,1,.16173.06065l1.38484.80866L5.0036,7.01515c.02022-.22238-.03032-.21228-.14152-.30325L4.2758,6.38843c-.14151-.08086-.21227-.06064-.21227-.36394,0-.50542,0-.50542.01011-1.02089a.2681.2681,0,0,1,.06065-.20217.15.15,0,0,1,.091-.02021q.04529.01129.08971.02527l.00134.00042,1.48585.84362.24259.13141c.25271.14151.26282.23249.26282.35379V9.704l1.47581-.8592c.25271-.13141.41444-.07076.41444.27292,0,.50542.02021.37406.02021.86931C8.18771,10.33067,8.07652,10.30034,7.8137,10.51261Zm7.835,5.43826a.40962.40962,0,0,1-.25271.03033c-.40433-.03033-1.04115-.51553-1.89024-1.42527l-.04044-.04044a6.492,6.492,0,0,0-1.304-.1314,5.47043,5.47043,0,0,0-1.01082.1314c-1.14224,1.17257-1.91047,1.64765-2.32491,1.43538-.54585-.29314-.45482-1.81949.29314-4.59927.02022-.10108.05054-.20216.08087-.31336a2.7608,2.7608,0,0,1,.84909-.34368c.091-.02021.182-.04043.26282-.05054a2.89118,2.89118,0,0,1,.4953-.02022c.14152.10109.29314.20217.43466.29314a8.03349,8.03349,0,0,0,1.04115.07076,6.34348,6.34348,0,0,0,.80867-.07076c.21227-.091.41444-.19205.6166-.29314a2.21087,2.21087,0,0,1,.8491.07076,2.51388,2.51388,0,0,1,.76818.34368C16.10358,14.04041,16.20466,15.66784,15.6487,15.95087Z"/></svg>