<svg id="iTwinPlatform" viewBox="0 0 16 16" xmlns="http://www.w3.org/2000/svg">
  <path fill="#fff" d="m6.34108 8.71193a.08494.08494 0 0 0 -.06253.01244c-.02922.022-.03648.07-.03983.13619-.00617.34227-.01236.34237-.01243.67851.00771.20181.04884.1942.14081.24149l.39386.22226c.083.0531.11084.05122.102.196l.00945 1.75908-.92068-.53419a.34767.34767 0 0 0 -.112-.046c-.10046-.01834-.1631.0483-.16047.21713-.00619.34226-.01237.25071-.01243.58685.01382.22624.09167.21252.26933.34535l1.17364.70071a.95306.95306 0 0 0 .13469.06246l.08631.0107.001.00038.00108-.00013.00109.00014.001-.0004.08632-.01069a.95081.95081 0 0 0 .1347-.06246l1.17349-.70075c.17767-.13284.25551-.11912.26933-.34536-.00006-.33614-.00624-.2446-.01243-.58686.00351-.2251-.109-.26854-.27252-.1711l-.98112.56925v-2.3846c0-.07889-.0151-.14285-.186-.22839l-.15331-.08812-.94343-.54737a.4148.4148 0 0 0 -.109-.03252zm.96236-1.33157a.53462.53462 0 1 0 .53556.53464.53511.53511 0 0 0 -.53557-.53462zm-1.54171-5.07281a2.97944 2.97944 0 0 0 -3.25749 3.32118c-2.57055.83021-2.442 4.50379.77113 4.53029l.253-.00007-.00908-1.88133c.01847-.461.00863-.67034.61916-1.01809l2.52442-1.50753a1.1946 1.1946 0 0 1 .63159-.2332 1.71976 1.71976 0 0 1 .64218.23322l2.52436 1.50753c.64817.41328.57836.55357.60624 1.00518-.00272.563-.00869 1.08394-.01465 1.613l-.003.27937 2.22041-.00054c3.36512.00016 2.39713-4.51642-.78537-3.24657.11362-2.84192-2.41515-2.80569-3.44386-1.893.01965-1.00335-.68331-2.739-3.279-2.70943zm-.05151-.55692c2.47721-.0363 3.73533 1.50637 3.79528 2.44484.43637-.40648 3.38912-.93437 3.50169 2.00925 3.03174-.95744 4.7715 4.5696.17975 4.56939l-2.14351.00065-.00545.7644-.00038.00524-.00051.10747a.76743.76743 0 0 1 -.01649.13222l-.01293.04348-.01793.09054a.701.701 0 0 1 -.12232.2486l-.1725.15445-.00015.00018-.00021.00015-.01938.01735-.02078.01205-.138.101-.15175.08955.00112.00308-.17725.10088-.98067.57879c-.43507.2616-1.03.61214-1.30854.7723a3.268 3.268 0 0 1 -.36279.18866.47384.47384 0 0 1 -.39354.036 4.22213 4.22213 0 0 1 -.46068-.22465c-.22115-.12462-.6019-.34959-.962-.56464l-.32062-.19214v.006l-1.34086-.789c-.32007-.227-.51012-.34733-.52317-.8014l-.00424-.87832-.38387.00011c-3.96454-.03266-3.96126-4.66937-1.23263-5.49269a3.54473 3.54473 0 0 1 3.79531-3.53379z" />
</svg>