<svg id="partners" viewBox="0 0 16 16" xmlns="http://www.w3.org/2000/svg"><path d="m5.59685 16a.80753.80753 0 0 1 -.803-.81149v-5.55h-.25261a1.04769 1.04769 0 0 1 -1.04124-1.05351v-3.805a1.04765 1.04765 0 0 1 1.04173-1.0535h3.33249a1.04419 1.04419 0 0 1 1.03829 1.05v3.808a1.04718 1.04718 0 0 1 -1.04076 1.0535h-.25313v5.55a.80753.80753 0 0 1 -.803.81149zm4.32081-1.777a.62852.62852 0 0 1 -.62395-.632v-3.9815a1.76338 1.76338 0 0 0 .32531-1.023v-3.805c0-.03552-.003-.06951-.005-.104h2.07657a.814.814 0 0 1 .80941.8185v2.96a.81448.81448 0 0 1 -.80936.81949h-.19778v4.315a.62852.62852 0 0 1 -.625.632zm-.78661-11.169a1.26186 1.26186 0 1 1 2.52356 0 1.26846 1.26846 0 0 1 -1.26081 1.276h-.00049a1.2694 1.2694 0 0 1 -1.2628-1.2755zm-3.80362-.0365a1.62276 1.62276 0 1 1 1.76212 0 1.60407 1.60407 0 0 1 -1.76315 0z"/></svg>