<svg id="register" viewBox="0 0 16 16" xmlns="http://www.w3.org/2000/svg"><path d="m12 4h-4v-4zm-5 1h5v4.00836l-3.29071 3.29564-.69489.696h-3.0357a.4787.4787 0 0 0 -.4787.4787v.0426a.47875.47875 0 0 0 .4787.4787h2.3692l-.31738 1.35925-.00873.03748-.00586.03808a1.37 1.37 0 0 0 .0332.56519h-7.04913v-16h7zm-3.5 8.5a.5.5 0 0 0 -.5-.5h-.5a.5.5 0 0 0 0 1h.5a.5.5 0 0 0 .5-.5zm0-3a.5.5 0 0 0 -.5-.5h-.5a.5.5 0 0 0 0 1h.5a.5.5 0 0 0 .5-.5zm0-3a.5.5 0 0 0 -.5-.5h-.5a.5.5 0 0 0 0 1h.5a.5.5 0 0 0 .5-.5zm6.5 2.9787a.4787.4787 0 0 0 -.4787-.4787h-4.5426a.4787.4787 0 0 0 -.4787.4787v.0426a.47875.47875 0 0 0 .4787.4787h4.5426a.47875.47875 0 0 0 .4787-.4787zm-5.0213-3.4787a.4787.4787 0 0 0 -.4787.4787v.0426a.47875.47875 0 0 0 .4787.4787h4.5426a.47875.47875 0 0 0 .4787-.4787v-.0426a.4787.4787 0 0 0 -.4787-.4787zm5.99738 7.57216 3.62509-3.63053-1.55917-1.56152-3.6251 3.63053zm-2.97174 1.01442.33075-1.417a.35607.35607 0 0 1 .09188-.16563l.40426-.40486 1.5619 1.56424-.40426.40487a.37548.37548 0 0 1 -.16538.092l-1.4149.33125a.34621.34621 0 0 1 -.40425-.40487zm7.883-5.92572-.69826.69931-1.5619-1.56425.69826-.6993a.34341.34341 0 0 1 .47775 0l1.10252 1.10417a.30817.30817 0 0 1 -.01837.46007z"/></svg>