<svg id="ee645489-00ab-45db-aad4-f011517f1166" data-name="Layer 1" xmlns="http://www.w3.org/2000/svg" viewBox="0 0 330 240"><path d="M.07728,116.3342a366.4491,366.4491,0,0,0,77.17818,9.15749c77.72115.773,112.99742-24.29892,187.08411-20.08159a311.16,311.16,0,0,1,65.779,10.9241L330.27331,240H0Z" fill="#a6ddff" opacity="0.33"/><path d="M223.07289,4.07333A85.8719,85.8719,0,1,1,137.201,89.94517,85.96909,85.96909,0,0,1,223.07289,4.07333" fill="#fff"/><path d="M186.87894,169.31932a88.829,88.829,0,0,1-34.01917-27.15744L157.557,83.45657l12.2423-5.62742,11.26958,5.62742Z" fill="#da91ff"/><path d="M169.79929,88.41663v70.70231a88.70231,88.70231,0,0,1-16.93952-16.95706L157.557,83.45657Z" fill="#aa63d3"/><path d="M295.42987,140.21645a88.946,88.946,0,0,1-29.7952,26.28989A87.972,87.972,0,0,1,227.0674,177.1099l13.84605-91.87435,22.03971-5.95909,25.42232,4.89Z" fill="#c8c2b4"/><path d="M305.59527,220.93515H220.46872l6.59868-43.82525a87.972,87.972,0,0,0,38.56727-10.60356,88.946,88.946,0,0,0,29.7952-26.28989Z" fill="none"/><path d="M265.63467,90.1955v76.31084A87.972,87.972,0,0,1,227.0674,177.1099l13.84605-91.87435Z" fill="#969287"/><rect x="261.47585" y="43.56197" width="1.75266" height="23.54109" fill="#4d575f"/><rect x="286.38919" y="51.96155" width="1.75266" height="23.54023" fill="#4d575f"/><polygon points="286.563 61.842 282.296 55.786 282.296 59.457 266.626 53.017 266.626 49.001 263.01 52.469 266.626 58.285 266.626 54.912 282.296 61.351 282.296 65.358 286.563 61.842" fill="#4d575f"/><rect x="241.09828" y="51.96155" width="1.75266" height="23.54023" fill="#4d575f"/><polygon points="261.642 52.469 258.025 49.001 258.025 53.018 247.118 57.506 247.118 54.159 242.851 60.216 247.118 63.732 247.118 59.401 258.025 54.913 258.025 58.285 261.642 52.469" fill="#4d575f"/><rect x="97.72247" y="82.39774" width="3.50532" height="6.74449" fill="#85929d"/><polygon points="101.228 75.653 97.722 75.653 97.722 71.272 102.104 71.272 102.104 74.777 101.228 74.777 101.228 75.653" fill="#85929d"/><path d="M131.78978,74.77692h-4.94733V71.27161h4.94733Zm-9.89508,0H116.947V71.27161h4.94775Zm-9.89508,0h-4.94775V71.27161h4.94775Z" fill="#85929d"/><polygon points="111.18 167.894 49.784 137.906 45.779 139.452 45.779 144.556 106.989 174.648 111.18 172.524 111.18 167.894" fill="#969287"/><polygon points="111.3 167.929 50.032 138.089 46.027 139.634 107.238 169.736 111.3 167.929" fill="#c8c2b4"/><path d="M99.14689,97.564a.688.688,0,0,0-.96536-.08157L49.16745,139.073a.68407.68407,0,0,0-.08157.95175.67671.67671,0,0,0,.53027.24472.69359.69359,0,0,0,.435-.16315L56.94441,134.26l.00664-.00565v8.96446a.67981.67981,0,1,0,1.35961,0v-10.1201l9.46992-8.04333.00224-.00191v23.43717a.67981.67981,0,1,0,1.35961,0v-24.5792l9.99089-8.48207v38.50421a.69082.69082,0,0,0,.67981.67981.68175.68175,0,0,0,.67981-.67981V114.27362l9.68044-8.212.00391-.00332v53.38363a.67981.67981,0,1,0,1.35961,0V104.90253l7.52842-6.3868A.68415.68415,0,0,0,99.14689,97.564Z" fill="#677480"/><polygon points="106.258 97.442 112.205 195.405 99.284 202.148 84.652 195.2 91.707 98.122 98.46 94.334 106.258 97.442" fill="#da91ff" stroke="#aa63d3" stroke-miterlimit="10" stroke-width="1.75266"/><polygon points="99.284 101.275 99.284 202.148 84.652 195.2 91.707 98.122 99.284 101.275" fill="#aa63d3"/><polygon points="167.972 195.684 109.294 166.946 105.018 168.597 105.018 170.08 105.018 173.701 163.782 202.437 167.972 200.314 167.972 195.684" fill="#969287"/><polygon points="167.974 195.687 164.031 197.528 99.288 165.603 99.288 165.252 99.305 165.235 101.846 163.351 167.974 195.687" fill="#c8c2b4"/><polygon points="164.031 197.528 163.785 202.435 99.288 170.966 99.288 165.226 99.305 165.235 164.031 197.528" fill="#969287"/><polygon points="47.235 142.675 162.095 198.972 116.145 223.394 1.112 167.096 47.235 142.675" fill="#4d575f"/><polygon points="121.366 220.542 162.102 198.97 162.102 201.616 122.621 222.474 121.366 220.542" fill="#3c434a"/><polygon points="142.376 209.416 27.517 153.113 30.489 151.539 145.349 207.842 142.376 209.416" fill="#f8f9fb"/><polygon points="66.214 193.61 3.732 163.185 -0.273 164.731 -0.273 169.835 62.024 200.363 66.214 198.239 66.214 193.61" fill="#969287"/><polyline points="3.732 163.185 -0.273 164.731 62.273 195.452 66.214 193.524" fill="#c8c2b4"/><path d="M54.16355,123.269a.688.688,0,0,0-.96535-.08157L4.18412,164.77794a.68407.68407,0,0,0-.08158.95175.67669.67669,0,0,0,.53027.24472.69356.69356,0,0,0,.435-.16315l6.89325-5.84632.00664-.00565v8.96446a.67981.67981,0,1,0,1.35961,0V158.80366l9.46992-8.04334.00224-.00191v23.43717a.67981.67981,0,0,0,1.35962,0v-24.5792L34.15,141.13431v38.50421a.69081.69081,0,0,0,.6798.67981.68174.68174,0,0,0,.67981-.67981V139.97859l9.68045-8.212.0039-.00332v53.38362a.67981.67981,0,1,0,1.35961,0V130.6075l7.52842-6.3868A.68414.68414,0,0,0,54.16355,123.269Z" fill="#677480"/><polygon points="61.293 123.104 67.24 221.067 54.319 227.81 39.687 220.862 46.742 123.784 53.495 119.996 61.293 123.104" fill="#c8c2b4"/><polygon points="46.742 123.784 54.319 126.937 54.319 227.81 39.687 220.862 46.742 123.784" fill="#969287"/><polygon points="123.007 221.346 64.108 192.486 60.103 194.032 60.053 199.363 118.817 228.099 123.007 225.976 123.007 221.346" fill="#969287"/><polygon points="123.007 221.346 64.074 192.486 60.068 194.032 119.382 223.096 123.007 221.346" fill="#c8c2b4"/><path d="M119.64445,220.13093,60.39128,129.62057a.6633.6633,0,1,0-1.10994.72658L63.1098,136.195v57.55758a.66312.66312,0,1,0,1.32624,0v-55.5318L75.915,155.75438v44.15276a.66312.66312,0,1,0,1.32623,0v-42.127l13.44756,20.54069v28.913a.66312.66312,0,1,0,1.32623,0V180.34663l13.14579,20.07971v14.09918a.66312.66312,0,0,0,1.32623,0V202.45211l12.04879,18.40411a.65947.65947,0,0,0,.55433.30047.65266.65266,0,0,0,.36264-.10879A.66146.66146,0,0,0,119.64445,220.13093Z" fill="#85929d"/><path d="M164.62779,194.426,105.37462,103.9156a.66331.66331,0,1,0-1.10995.72658l3.82847,5.84785v57.55758a.66312.66312,0,1,0,1.32624,0v-55.5318L120.8983,130.0494v44.15277a.66312.66312,0,0,0,1.32624,0v-42.127l13.44755,20.5407v28.913a.66312.66312,0,0,0,1.32624,0V154.64166l13.14578,20.0797v14.09918a.66312.66312,0,0,0,1.32624,0v-12.0734l12.04879,18.4041a.65944.65944,0,0,0,.55432.30048.65271.65271,0,0,0,.36265-.10879A.66146.66146,0,0,0,164.62779,194.426Z" fill="#85929d"/><path d="M228.33943,109.24719,208.05153,97.331a.06639.06639,0,0,0-.1.057l-.03669,9.25307H191.40871v6.06328h16.46a.06721.06721,0,0,1,.02177.04851l-.03653,9.20408a.06642.06642,0,0,0,.10147.05664l20.38536-12.65264A.06643.06643,0,0,0,228.33943,109.24719Z" fill="#4d575f"/><path d="M223.07289,4.07333A85.8719,85.8719,0,1,1,137.201,89.94517,85.96909,85.96909,0,0,1,223.07289,4.07333m0-2.629a88.50089,88.50089,0,1,0,88.50088,88.50083A88.50086,88.50086,0,0,0,223.07289,1.44434Z" fill="#85929d"/></svg>