<svg xmlns="http://www.w3.org/2000/svg" xmlns:xlink="http://www.w3.org/1999/xlink" viewBox="0 0 330 240"><defs><linearGradient id="ef175257-3c58-4183-8014-a13187b86159" x1="3897.79157" y1="40.92088" x2="3897.79157" y2="136.33258" gradientTransform="matrix(-1, 0, 0, 1, 4057.63654, 0)" gradientUnits="userSpaceOnUse"><stop offset="0" stop-color="#cdecff"/><stop offset="1" stop-color="#fff" stop-opacity="0"/></linearGradient></defs><g style="isolation:isolate"><g id="ecd36e47-8534-4c26-8cab-5b4d284c82a7" data-name="Layer 1"><path d="M41.91707,153.02732h235.8558V78.82548c0-19.55879-14.74528-30.32149-35.96694-30.32149-6.97179,0-32.6358,3.8784-40.51261,3.8784-43.48468,0-50.26871-22.117-98.61653-22.117-43.55261,0-60.75972,27.98517-60.75972,49.87275Z" fill="url(#ef175257-3c58-4183-8014-a13187b86159)"/><rect x="58.29325" y="62.93378" width="39.25105" height="13.08481" rx="6.5424" fill="#fff"/><rect x="238.96506" y="59.53227" width="25.35571" height="13.08481" rx="6.5424" fill="#fff"/><rect x="227.75523" y="84.18945" width="30.89965" height="13.08481" rx="6.5424" fill="#fff"/><polygon points="16.301 234.516 43.967 136.139 275.434 136.139 308.834 234.516 16.301 234.516" fill="#b2ec8b"/><path d="M273.59192,138.7085,305.24768,231.946H19.69385L45.91467,138.7085H273.59192m3.68323-5.14014H42.02063L12.90869,237.0863H312.42114l-35.146-103.51794Z" fill="#d4f4bd"/><path d="M312.42117,237.08631h-61.8249a7.4933,7.4933,0,0,1-2.09407-2.8965c-1.33033-3.547,1.72378-6.42616,6.8372-6.44347l10.34294-.04341a3.91134,3.91134,0,0,0,2.6954-.89321,1.83258,1.83258,0,0,0,.47423-2.09867c-.61291-1.64775-3.04253-2.95726-5.40266-2.94858l-31.93067.1301c-4.65049-.42493-9.10469-3.07869-10.31949-6.31341-1.33033-3.53829,1.73535-6.41743,6.83748-6.44347l18.41783-.0694a3.91249,3.91249,0,0,0,2.69568-.89321,1.82932,1.82932,0,0,0,.47422-2.09867c-.61319-1.64775-3.0428-2.97462-5.41423-2.95726l-8.64232.03467c-5.10185.01736-10.3195-2.82711-11.64983-6.3654s1.73536-6.42616,6.83721-6.44347l65.70064-.26884Z" fill="#6ab9ec"/><polygon points="283.771 164.211 169.165 164.211 169.165 148.428 143.749 148.428 143.749 138.221 137.371 138.221 137.371 148.428 109.235 148.428 110.342 138.023 103.989 138.023 99.841 175.513 31.958 175.513 31.958 180.292 71.628 180.292 63.229 233.461 69.563 234.024 78.051 180.292 105.709 180.292 108.706 155.595 162.786 155.595 162.786 233.743 169.165 233.743 169.165 214.632 193.949 214.632 194.939 233.835 201.313 233.65 200.086 209.851 169.165 209.851 169.165 168.992 241.711 168.992 244.499 179.85 250.974 179.767 248.207 168.992 283.771 168.992 283.771 164.211" fill="#d4f4bd"/><polygon points="84.099 185.246 113.386 185.246 115.902 158.923 155.075 158.923 154.062 211.166 80.523 211.166 84.099 185.246" fill="#d4f4bd"/><polygon points="79.781 215.025 113.881 215.025 109.454 226.118 77.919 226.118 79.781 215.025" fill="#d4f4bd"/><polygon points="153.798 215.025 153.798 226.118 116.114 226.118 120.54 215.025 153.798 215.025" fill="#d4f4bd"/><polygon points="78.314 158.967 95.97 158.967 94.465 171.6 76.413 171.6 78.314 158.967" fill="#d4f4bd"/><polygon points="97.794 143.705 96.544 154.186 79.028 154.186 80.61 143.705 97.794 143.705" fill="#d4f4bd"/><polygon points="54.218 143.702 75.217 143.702 70.807 171.596 47.951 171.596 54.218 143.702" fill="#d4f4bd"/><polygon points="199.112 143.705 204.597 159.646 175.537 159.646 175.537 143.705 199.112 143.705" fill="#d4f4bd"/><polygon points="234.181 143.705 238.965 159.646 211.18 159.646 205.694 143.705 234.181 143.705" fill="#d4f4bd"/><polygon points="269.557 159.646 245.509 159.646 240.725 143.705 265.041 143.705 269.557 159.646" fill="#d4f4bd"/><polygon points="44.387 183.992 65.068 183.992 59.236 215.026 48.561 215.026 47.311 221.539 35.16 221.539 44.387 183.992" fill="#d4f4bd"/><polygon points="191.891 192.38 192.912 205.825 174.707 205.825 174.707 191.185 191.891 192.38" fill="#d4f4bd"/><polygon points="191.521 187.551 174.707 186.384 174.707 172.996 204.355 172.996 205.299 181.65 191.075 181.65 191.521 187.551" fill="#d4f4bd"/><polygon points="227.165 181.65 211.69 181.65 210.759 172.996 226.131 172.996 227.165 181.65" fill="#d4f4bd"/><polygon points="255.906 172.999 274.391 172.999 278.359 185.327 259.321 185.327 255.906 172.999" fill="#d4f4bd"/><rect x="82.16364" y="19.69926" width="151.83445" height="130.06798" rx="7.29254" fill="#6ab9ec"/><path d="M88.99047,41.52383H227.0218a0,0,0,0,1,0,0v97.328a2.917,2.917,0,0,1-2.917,2.917H91.90749a2.917,2.917,0,0,1-2.917-2.917v-97.328A0,0,0,0,1,88.99047,41.52383Z" fill="#fff"/><rect x="138.22844" y="72.99919" width="39.40591" height="17.73266" rx="2.91701" fill="#cdecff" opacity="0.25"/><rect x="138.22844" y="93.57192" width="39.40591" height="17.73266" rx="2.91701" fill="#cdecff" opacity="0.25"/><rect x="95.54108" y="93.57192" width="39.40591" height="17.73266" rx="2.91701" fill="#cdecff" opacity="0.25"/><rect x="95.54108" y="114.20985" width="39.40591" height="17.73266" rx="2.91701" fill="#cdecff" opacity="0.25"/><rect x="180.54224" y="93.55938" width="39.40591" height="17.73266" rx="2.91701" fill="#cdecff" opacity="0.25"/><rect x="180.54224" y="113.89206" width="39.40591" height="17.73266" rx="2.91701" fill="#cdecff" opacity="0.25"/><rect x="95.7495" y="72.99919" width="39.40591" height="17.73266" rx="2.91701" fill="#cdecff"/><rect x="98.24476" y="79.29675" width="34.41539" height="5.13754" rx="2.56877" fill="#f7963e"/><circle cx="100.79342" cy="81.86552" r="1.30932" fill="#fff"/><path d="M128.63344,82.50307H105.68177a.63786.63786,0,0,1,0-1.27572h22.95167a.63786.63786,0,0,1,0,1.27572Z" fill="#fff"/><rect x="138.22844" y="52.42645" width="39.40591" height="17.73266" rx="2.91701" fill="#cdecff" opacity="0.25"/><rect x="180.54224" y="52.42645" width="39.40591" height="17.73266" rx="2.91701" fill="#cdecff" opacity="0.25"/><g opacity="0.25"><rect x="95.7495" y="52.42645" width="39.40591" height="17.73266" rx="2.91701" fill="#cdecff"/></g><rect x="138.30318" y="114.09693" width="39.40591" height="17.73266" rx="2.91701" fill="#cdecff"/><rect x="140.72371" y="120.39449" width="34.41539" height="5.13754" rx="2.56877" fill="#f7706c"/><path d="M171.11238,123.60081H148.16072a.63786.63786,0,1,1,0-1.27571h22.95166a.63786.63786,0,1,1,0,1.27571Z" fill="#fff"/><g opacity="0.45" style="mix-blend-mode:multiply"><path d="M204.66514,209.96359c2.31588-5.33222,1.082-10.79887-3.95641-14.2969s-12.6476-4.171-19.9208-2.28056a31.57057,31.57057,0,0,0-11.06643,5.259c-11.74288,8.845-11.21315,28.80772-11.21315,28.80772s27.62554-.45468,39.34109-9.27906A20.903,20.903,0,0,0,204.66514,209.96359Z" fill="#91e458"/></g><g opacity="0.45" style="mix-blend-mode:multiply"><path d="M109.10667,188.42935a8.43348,8.43348,0,0,0-3.00577-10.86165c-3.82772-2.65751-9.60864-3.16881-15.13423-1.73259a23.985,23.985,0,0,0-8.4074,3.99536c-8.92131,6.7197-8.51886,21.88581-8.51886,21.88581s20.98769-.34543,29.88823-7.04949A15.88041,15.88041,0,0,0,109.10667,188.42935Z" fill="#91e458"/></g><g opacity="0.45" style="mix-blend-mode:multiply"><path d="M269.054,165.257a6.77864,6.77864,0,0,0-2.416-8.73037c-3.07664-2.13605-7.72323-2.547-12.16458-1.39262a19.27853,19.27853,0,0,0-6.75769,3.21139c-7.17076,5.40115-6.84729,17.59136-6.84729,17.59136s16.86947-.27765,24.02354-5.66624A12.76435,12.76435,0,0,0,269.054,165.257Z" fill="#91e458"/></g><rect x="81.72073" y="109.07784" width="10.17097" height="11.95325" fill="#fff"/><rect x="225.97063" y="109.07784" width="10.17097" height="11.95325" fill="#fff"/><rect x="152.91482" y="138.77403" width="10.03316" height="11.95325" transform="translate(302.68206 -13.18075) rotate(90)" fill="#fff"/><path d="M117.15761,104.35976h-3.82715v-8.953h3.82715Z" fill="#f7963e"/><polygon points="117.158 116.968 110.142 116.968 110.142 113.141 113.33 113.141 113.33 109.952 117.158 109.952 117.158 116.968" fill="#f7963e"/><path d="M105.254,116.968H97.40285V113.1409H105.254Zm-12.75591,0H84.64694V113.1409h7.85113Z" fill="#f7963e"/><polygon points="76.554 120.157 72.727 120.157 72.727 113.141 79.743 113.141 79.743 116.968 76.554 116.968 76.554 120.157" fill="#f7963e"/><path d="M76.55412,152.19161H72.727v-9.85876h3.82715Zm0-16.01745H72.727V126.3154h3.82715Z" fill="#f7963e"/><rect x="69.66822" y="158.34968" width="3.82715" height="5.10224" fill="#f7963e"/><path d="M198.77442,95.40671h3.82715v8.953h-3.82715Z" fill="#f7706c"/><polygon points="198.774 116.968 205.79 116.968 205.79 113.141 202.602 113.141 202.602 109.952 198.774 109.952 198.774 116.968" fill="#f7706c"/><path d="M210.67805,113.1409h7.85113V116.968h-7.85113Zm12.75591,0h7.85113V116.968H223.434Z" fill="#f7706c"/><polygon points="239.378 120.157 243.205 120.157 243.205 113.141 236.189 113.141 236.189 116.968 239.378 116.968 239.378 120.157" fill="#f7706c"/><path d="M239.37791,142.33285h3.82714v9.85876h-3.82714Zm0-16.01745h3.82714v8.26388h-3.82714Z" fill="#f7706c"/><path d="M92.48312,174.04151c0,12.76992-18.44679,27.55542-18.44679,27.55542l-.19155-.15308c-1.96465-1.62011-18.25556-15.37236-18.25556-27.40234a18.46889,18.46889,0,0,1,18.25556-18.44687h.19155a18.46717,18.46717,0,0,1,18.44679,18.44687Z" fill="#fff"/><path d="M74.03765,158.77176a15.3137,15.3137,0,1,0,15.3137,15.31369A15.31369,15.31369,0,0,0,74.03765,158.77176Zm2.29706,6.12548a1.76108,1.76108,0,0,1,1.9078,1.60095q.0053.0608.00641.12184a2.50762,2.50762,0,0,1-2.48848,2.297,1.79935,1.79935,0,0,1-1.91421-1.91421A2.35448,2.35448,0,0,1,76.33471,164.89724Zm-3.82843,18.37643c-.9571,0-1.72279-.57426-.9571-3.25416l1.14853-4.59411c.19142-.76568.19142-.9571,0-.9571a6.93825,6.93825,0,0,0-2.48848.9571l-.38284-.9571a12.44223,12.44223,0,0,1,6.3169-3.06274c.9571,0,1.14853,1.14852.57426,3.06274l-1.34,4.97695c-.19142.9571-.19142,1.14852.19143,1.14852a3.82845,3.82845,0,0,0,2.10563-1.14852l.57426.76568A11.045,11.045,0,0,1,72.50628,183.27367Z" fill="#f7963e"/><path d="M254.08845,144.441a15.57609,15.57609,0,0,0-28.7983,8.229c0,10.80769,15.57928,23.26673,15.57928,23.26673s15.5729-12.4842,15.5729-23.26673A15.43522,15.43522,0,0,0,254.08845,144.441Z" fill="#fff"/><path d="M240.86133,139.77581a12.92935,12.92935,0,1,0,12.93593,12.93577A12.92512,12.92512,0,0,0,240.86133,139.77581Zm-3.15067,20.92169a.98563.98563,0,0,1-.19154.02554.69316.69316,0,0,1-.65063-.49755l-3.9293-14.54311a.68173.68173,0,0,1,.48493-.842.74731.74731,0,0,1,.16569-.02547.70786.70786,0,0,1,.67617.51024l3.9293,14.54319A.66842.66842,0,0,1,237.71066,160.6975Zm10.84358-9.453a16.4184,16.4184,0,0,1-6.58289,1.67118c-.26785,0-.5357-.01276-.79109-.02553a.564.564,0,0,1-.49739-.36993l-.29339-1.0461a13.08683,13.08683,0,0,0-3.06159,1.25018l-1.86281-6.9399a25.30591,25.30591,0,0,1,6.6975-.90571.52062.52062,0,0,1,.49771.36993l.17846.63786a12.3531,12.3531,0,0,0,3.62314-1.00779.67654.67654,0,0,1,.52294-.01277.48852.48852,0,0,1,.31892.3317l.08939.29339a11.1202,11.1202,0,0,1-4.31177,3.96746s2.43651.53585,5.6641,1.03332l.06385.22962A.46409.46409,0,0,1,248.55424,151.24448Z" fill="#f7706c"/><path d="M159.845,179.1633h-3.82714V168.9582H159.845Zm0-16.57932h-3.82714V152.37951H159.845Zm0-16.57931h-3.82714V135.80729H159.845Z" fill="#f7706c"/><path d="M178.56366,179.449a23.71275,23.71275,0,0,0-43.842,12.52769c0,16.45343,23.71761,35.42084,23.71761,35.42084s23.70789-19.00571,23.70789-35.42084A23.49825,23.49825,0,0,0,178.56366,179.449Z" fill="#fff"/><path d="M158.43754,172.34478a19.69067,19.69067,0,1,0,19.6842,19.68428A19.68982,19.68982,0,0,0,158.43754,172.34478Zm-4.7967,31.85466-.01277.01277a1.05889,1.05889,0,0,1-1.28849-.73994l-5.97026-22.13371a1.04324,1.04324,0,0,1,.72693-1.27571h.01309a1.04828,1.04828,0,0,1,1.28817.73993l5.97057,22.13371A1.02454,1.02454,0,0,1,153.64084,204.19944Zm16.49491-14.40288a24.497,24.497,0,0,1-10.01418,2.55143c-.40832,0-.81663-.01269-1.19941-.03823a.85636.85636,0,0,1-.76524-.56132l-.4594-1.58187a19.91973,19.91973,0,0,0-4.65623,1.888l-2.83205-10.56288a38.30611,38.30611,0,0,1,10.20572-1.39057.84979.84979,0,0,1,.76524.57409l.25539.96956a18.80248,18.80248,0,0,0,5.52364-1.51811,1.02808,1.02808,0,0,1,.77832-.0383.78425.78425,0,0,1,.51016.51031l.11493.44647a16.89707,16.89707,0,0,1-6.557,6.04688s3.69945.81648,8.62354,1.56918l.08939.35716A.68.68,0,0,1,170.13575,189.79656Z" fill="#f7706c"/><rect x="180.54224" y="72.99919" width="39.40591" height="17.73266" rx="2.91701" fill="#cdecff"/><rect x="183.0375" y="79.29675" width="34.41539" height="5.13754" rx="2.56877" fill="#f7706c"/><path d="M213.42617,82.50307H190.47451a.63786.63786,0,1,1,0-1.27572h22.95166a.63786.63786,0,0,1,0,1.27572Z" fill="#fff"/><circle cx="115.91146" cy="29.95902" r="6.75149" fill="#4585a5"/><circle cx="200.2452" cy="29.95902" r="6.75149" fill="#4585a5"/><polygon points="200.689 19.699 200.689 33.21 225.325 19.699 200.689 19.699" fill="#6ab9ec" opacity="0.45" style="mix-blend-mode:multiply"/><polygon points="115.917 19.699 115.917 33.248 140.552 19.699 115.917 19.699" fill="#6ab9ec" opacity="0.45" style="mix-blend-mode:multiply"/><path d="M119.73222,7.12185V29.42133a3.82077,3.82077,0,1,1-7.64152,0V7.12185a3.83022,3.83022,0,0,1,3.82715-3.82714,3.83272,3.83272,0,0,1,3.81437,3.82714Z" fill="#4d575f"/><path d="M204.0699,7.12185V29.42133a3.80378,3.80378,0,0,1-3.38052,3.78892,2.64513,2.64513,0,0,1-.44663.03823,3.8194,3.8194,0,0,1-3.81437-3.82715V7.12185a3.81934,3.81934,0,0,1,3.81437-3.82714,2.64513,2.64513,0,0,1,.44663.03823,3.80854,3.80854,0,0,1,3.38052,3.78891Z" fill="#4d575f"/><path d="M119.73222,7.12185V29.42133a3.8192,3.8192,0,0,1-3.81437,3.82715V3.29471a3.83272,3.83272,0,0,1,3.81437,3.82714Z" fill="#4d575f" opacity="0.45" style="mix-blend-mode:multiply"/><path d="M204.0699,7.12185V29.42133a3.80378,3.80378,0,0,1-3.38052,3.78892V3.33294a3.80854,3.80854,0,0,1,3.38052,3.78891Z" fill="#4d575f" opacity="0.45" style="mix-blend-mode:multiply"/><circle cx="143.27236" cy="122.96296" r="1.30932" fill="#fff"/><circle cx="185.58616" cy="81.85925" r="1.30932" fill="#fff"/><g opacity="0.45"><path d="M269.0627,199.95072H255.57234a2.11744,2.11744,0,0,1,0-4.23487H269.0627a2.11744,2.11744,0,0,1,0,4.23487Z" fill="#fff"/></g><g opacity="0.45"><path d="M294.9175,212.02049H279.44722a2.11743,2.11743,0,1,1,0-4.23486H294.9175a2.11743,2.11743,0,0,1,0,4.23486Z" fill="#fff"/></g><g opacity="0.45"><path d="M302.68211,224.13318H294.9175a2.11718,2.11718,0,1,1,0-4.23435h7.76461a2.11718,2.11718,0,1,1,0,4.23435Z" fill="#fff"/></g><g opacity="0.45"><path d="M269.0627,212.02049h-3.3881a2.11743,2.11743,0,0,1,0-4.23486h3.3881a2.11743,2.11743,0,0,1,0,4.23486Z" fill="#fff"/></g></g></g></svg>