<svg xmlns="http://www.w3.org/2000/svg" xmlns:xlink="http://www.w3.org/1999/xlink" viewBox="0 0 330 240"><defs><linearGradient id="ea4ff4bf-183a-419e-b29a-88788fbbb27d" x1="202.40368" y1="44.76115" x2="202.40368" y2="133.57675" gradientUnits="userSpaceOnUse"><stop offset="0" stop-color="#cdecff"/><stop offset="1" stop-color="#fff" stop-opacity="0"/></linearGradient><linearGradient id="bebc40bc-18a8-4758-90d4-2bb8f5020af6" x1="202.40363" y1="117.24199" x2="202.40363" y2="86.97865" gradientUnits="userSpaceOnUse"><stop offset="0" stop-color="#969287"/><stop offset="1" stop-color="#716e65"/></linearGradient><linearGradient id="fdf23771-d497-496b-ab65-fea6dbe4a09a" x1="75.64644" y1="138.94893" x2="116.48098" y2="138.94893" xlink:href="#bebc40bc-18a8-4758-90d4-2bb8f5020af6"/><radialGradient id="b9861bdb-3786-488e-ba6e-8373014953c9" cx="-45.09628" cy="144.65044" r="14.90608" gradientTransform="translate(231.62571 103.63582) rotate(60)" gradientUnits="userSpaceOnUse"><stop offset="0" stop-color="#6ab9ec"/><stop offset="0.03401" stop-color="#75beed" stop-opacity="0.97992"/><stop offset="0.22748" stop-color="#aed8f3" stop-opacity="0.88009"/><stop offset="0.41429" stop-color="#d7eaf8" stop-opacity="0.80821"/><stop offset="0.58997" stop-color="#f0f5fa" stop-opacity="0.76485"/><stop offset="0.74302" stop-color="#f8f9fb" stop-opacity="0.75"/></radialGradient></defs><g style="isolation:isolate"><g id="ecbfb824-6102-43c1-9e8e-248d1d609dbd" data-name="Layer 1"><path d="M328.7353,152.29768H76.07206V50.44673c0-20.31868,15.79606-31.49953,38.53-31.49953,7.46862,0,34.96148,4.02908,43.3996,4.02908C204.58513,22.97628,211.85259,0,263.64575,0,310.302,0,328.7353,29.07244,328.7353,51.81038Z" fill="url(#ea4ff4bf-183a-419e-b29a-88788fbbb27d)"/><path d="M166.922,35.073H137.02974a4.87022,4.87022,0,0,0,0,9.74044h1.73369a2.43619,2.43619,0,1,1,0,4.87238h-1.73369a4.87024,4.87024,0,0,0,0,9.74048h19.47841a4.87024,4.87024,0,0,0,0-9.74048h-3.96709a2.43619,2.43619,0,1,1,0-4.87238h14.381a4.87022,4.87022,0,1,0,0-9.74044Z" fill="#fff"/><rect x="240.76912" y="10.10453" width="29.21886" height="9.74045" rx="4.87022" fill="#fff"/><rect x="223.66253" y="36.13353" width="18.87503" height="9.74045" rx="4.87022" fill="#fff"/><path d="M328.7353,101.52905v11.19657a39.35593,39.35593,0,0,0-25.44584,9.69023c-.68476.588-1.32115,1.168-1.92528,1.73992-.26578.2497-.5235.50747-.76519.75718-.27384.26578-.53962.53967-.78132.8055-.51553.53162-.97463,1.04715-1.39351,1.5385-.2175.24971-.41888.49135-.61219.725-.79744.93436-1.4177,1.76406-1.885,2.4326-.12075.17723-.23353.33028-.33825.47527a2.40165,2.40165,0,0,0-.18525.2819c-.08063.12085-.153.22557-.20944.31416s-.10472.16111-.14494.22557c-.08869.12886-.15309.22552-.18534.28191H281.0977c-.77326-1.20826-13.83856-18.88915-35.80475-19.26772-.22557-.00806-.45113-.00806-.68476-.00806a41.11181,41.11181,0,0,0-26.67033,9.96412,44.41778,44.41778,0,0,0-8.52223,9.31166H195.68976c-.8297-1.2888-13.11368-19.61408-35.99-19.61408h-.04032a41.93707,41.93707,0,0,0-27.5,10.08491c-.24965.20944-.49941.41888-.7411.63639-.16106.145-.32212.2819-.48329.42689-.36243.33028-.71691.65246-1.05516.99882-.145.137-.282.27389-.42694.41082-.61219.59606-1.15988,1.17605-1.66746,1.73992-.17718.20138-.35437.39469-.51543.588-.95861,1.10354-1.7239,2.10237-2.30384,2.89175-.17719.24169-.33019.45914-.46716.66052a.281.281,0,0,1-.04021.06445q-.18143.25377-.31426.45915c-.19332.31416-.33019.53161-.40276.63633,0,.00806-.00806.00806-.00806.01613H109.94357c-.78132-1.21633-11.75242-19.03414-33.87161-19.26772V101.52905Z" fill="url(#bebc40bc-18a8-4758-90d4-2bb8f5020af6)"/><path d="M286.30077,43.40649c-13.02913,7.49139-43.54125,25.03431-83.8357,25.23921-.248.00109-.48827.00164-.73513.00164-27.74658,0-50.20636-7.97843-66.08025-15.58293V53.039h-.05235c-7.11816-3.41279-12.91224-6.74855-17.25734-9.25156l-1.09861-.63268-.41688.72587-.41689-.72587-.43868.25231C108.25968,47.83933,94.4275,55.7898,76.07206,61.58663v1.75664q3.12153-.97467,6.066-2.02581V104.664h1.67408V60.71353c5.60283-2.05479,10.70214-4.25556,15.24-6.40906V104.664h1.67408V53.50027c6.76663-3.29063,12.19352-6.409,16.07756-8.642l.02074-.01192.68006.3912c4.18952,2.41351,9.72042,5.59473,16.471,8.87715V104.664h1.67407V54.91917c4.56257,2.16266,9.65377,4.34255,15.24053,6.35834V104.664h1.67408v-42.788a155.22624,155.22624,0,0,0,15.24,4.45266V104.664h1.67407V66.71605a147.78447,147.78447,0,0,0,15.24,2.602v35.346h1.67408V69.50811a145.79786,145.79786,0,0,0,15.24.81208V104.664h1.67408V70.30445A143.717,143.717,0,0,0,218.547,69.3213V104.664h1.67408V69.11848a150.74413,150.74413,0,0,0,15.24-2.78376V104.664h1.67408V65.935c5.40328-1.33659,10.49594-2.89875,15.24-4.57933V104.664h1.67407V60.7466c5.60172-2.051,10.70044-4.24643,15.24-6.39836V104.664h1.67408V53.54431c6.80652-3.30667,12.27166-6.44389,16.17239-8.68662l.437-.25122-.83377-1.45174Z" fill="#85929d"/><path d="M328.7342,61.5881c-17.41506-5.56163-30.57008-13.12964-38.67984-17.80178l-1.09752-.63159-.83377,1.45174,1.09534.6305c4.08738,2.35468,9.44815,5.43887,15.97784,8.63512V104.664h1.67408V54.67715c4.55848,2.17625,9.64092,4.379,15.24,6.41923V104.664h1.67407V61.68826c1.61421.56835,3.25565,1.12678,4.94982,1.66145Z" fill="#85929d"/><rect x="75.00864" y="99.12866" width="254.99136" height="5.53383" fill="#c0beb7"/><path d="M120.11789,39.58635v3.2533h-6.51218v-3.2533a3.25609,3.25609,0,1,1,6.51218,0Z" fill="#969287"/><path d="M205.58947,92.63627v3.2623h-6.50856v-3.2623a3.25428,3.25428,0,1,1,6.50856,0Z" fill="#969287"/><path d="M217.93786,122.68168a44.41778,44.41778,0,0,0-8.52223,9.31166h-4.8411l3.93884-27.33085.45113-3.13344.32222-2.23127.02419-.16912.878,2.40039,1.15182,3.13344Z" fill="#969287" opacity="0.45" style="mix-blend-mode:multiply"/><path d="M132.15956,122.46046a41.279,41.279,0,0,0-8.42567,9.52931h-4.85241l4.86046-32.98489Z" fill="#969287" opacity="0.45" style="mix-blend-mode:multiply"/><rect x="195.68976" y="93.75589" width="13.62115" height="65.6972" fill="#c8c2b4"/><rect x="109.97855" y="41.00376" width="13.76093" height="118.44649" fill="#c8c2b4"/><rect x="202.40776" y="93.75589" width="6.87896" height="58.19789" fill="#c8c2b4" opacity="0.45" style="mix-blend-mode:multiply"/><polygon points="213.677 160.089 191.332 160.089 193.378 149.65 211.687 149.65 213.677 160.089" fill="#969287"/><path d="M128.03628,160.092H116.753v-.64174l.01118-9.79889.08926-108.6476.00559-4.67626a3.25795,3.25795,0,0,1,3.25888,3.25885v1.41741h3.62158v108.6476h2.30465Z" fill="#c8c2b4" opacity="0.45" style="mix-blend-mode:multiply"/><path d="M202.33521,89.382a3.24546,3.24546,0,0,1,3.25427,3.25427v1.11963h3.72143v5.3728H245.293v13.59693c-.22559-.00806-.45117-.00806-.68482-.00806h-.05664a41.11537,41.11537,0,0,0-26.61364,9.96411,44.41926,44.41926,0,0,0-8.52222,9.31165h-.10474V149.65h2.37622l1.98963,10.43946H191.332l2.0459-10.43946h2.31189V131.99329c-.82971-1.2887-13.11377-19.614-35.99011-19.614h-.04029V99.12866h36.0304v-5.3728h3.39111V92.63623a3.25558,3.25558,0,0,1,3.25428-3.25427m0-2.29163a5.55582,5.55582,0,0,0-5.42127,4.3739h-3.51575V96.837H157.3678V114.6709h2.29162c20.04688,0,31.55909,14.91772,33.73877,18.0249v14.6626h-1.90637l-.36267,1.851-2.0459,10.43945-.53552,2.7323h27.89856l-.51843-2.72058-1.98963-10.43957-.355-1.86255h-1.98071V132.84473a43.20936,43.20936,0,0,1,7.80151-8.402,39.10949,39.10949,0,0,1,25.14746-9.43372l.05262.00013h.07739c.18152,0,.35559.00036.52978.00659l2.37329.08459V96.837h-35.982V91.46423h-3.84522a5.5367,5.5367,0,0,0-5.42211-4.3739Z" fill="#f7706c"/><rect x="118.00552" y="140.23868" width="3.15247" height="2.36436" fill="#f7706c"/><path d="M139.56333,142.603h-5.6646v-2.36435h5.6646Zm-9.20267,0h-5.6646v-2.36435h5.6646Z" fill="#f7706c"/><polygon points="147.436 144.573 145.072 144.573 145.072 142.603 143.101 142.603 143.101 140.239 147.436 140.239 147.436 144.573" fill="#f7706c"/><path d="M147.436,171.618h-2.36435v-5.54839H147.436Zm0-9.01488h-2.36435v-5.54915H147.436Zm0-9.01487h-2.36435v-5.54915H147.436Z" fill="#f7706c"/><polygon points="149.406 179.419 145.072 179.419 145.072 175.084 147.436 175.084 147.436 177.055 149.406 177.055 149.406 179.419" fill="#f7706c"/><path d="M194.63,179.41909h-6.95915v-2.36436H194.63Zm-11.30611,0h-6.95915v-2.36436h6.95915Zm-11.30535,0h-6.95914v-2.36436h6.95914Zm-11.30611,0h-6.95914v-2.36436h6.95914Z" fill="#f7706c"/><polygon points="203.311 179.419 198.976 179.419 198.976 177.055 200.947 177.055 200.947 175.084 203.311 175.084 203.311 179.419" fill="#f7706c"/><rect x="200.94651" y="164.60724" width="2.36436" height="6.28339" fill="#f7706c"/><path d="M213.77131,56.91316a13.2728,13.2728,0,0,0-24.53979,7.01216c0,9.20951,13.27552,19.82619,13.27552,19.82619s13.27007-10.63811,13.27007-19.82619A13.15275,13.15275,0,0,0,213.77131,56.91316Z" fill="#fff"/><path d="M202.50218,52.93806A11.02185,11.02185,0,1,0,213.528,63.956,11.01887,11.01887,0,0,0,202.50218,52.93806Zm-2.68751,17.83512a.48446.48446,0,0,1-.14974.01578.5799.5799,0,0,1-.56742-.43345L195.748,57.97415a.58465.58465,0,0,1,.40979-.71717h.00789a.58834.58834,0,0,1,.71722.40979L200.2324,70.056A.58943.58943,0,0,1,199.81467,70.77318Zm9.23678-8.06243a13.99947,13.99947,0,0,1-5.60356,1.42649,6.1636,6.1636,0,0,1-.66988-.03151.46766.46766,0,0,1-.43346-.30737l-.2522-.89058a11.681,11.681,0,0,0-2.60867,1.0561l-1.58413-5.903a21.2157,21.2157,0,0,1,5.71386-.78023.46787.46787,0,0,1,.42557.31527l.1419.5438a10.34393,10.34393,0,0,0,3.0973-.85118.55189.55189,0,0,1,.43346-.01578.4428.4428,0,0,1,.28371.28376l.071.25221a9.532,9.532,0,0,1-3.67266,3.381s2.07275.45712,4.82328.88268l.05517.197A.39724.39724,0,0,1,209.05145,62.71075Z" fill="#f7706c"/><path d="M29.8783,56.96716c2.82629.00025,4.7091,2.74182,5.61035,4.45569a26.1654,26.1654,0,0,1,10.1195,5.27893,12.71443,12.71443,0,0,1,6.24756-2.00915c2.2074.00024,3.71265.99633,4.20166,2.52038.81971,2.55506.35364,9.24951-2.57824,16.8208a39.21691,39.21691,0,0,1,2.354,5.33863L60.96484,94.074a2.93323,2.93323,0,0,1,.36707,3.9198l-3.22083,4.30494c-.02734,11.55969-5.67,21.57824-15.14013,24.84143a19.55461,19.55461,0,0,1-2.28052.6261c7.01624.95349,13.83813,5.66552,15.11035,6.65673a11.38812,11.38812,0,0,1,7.13086,3.62525,15.25538,15.25538,0,0,1,3.83728-.51087,12.32109,12.32109,0,0,1,3.83691.59265l5.73353-15.82141a3.20006,3.20006,0,0,1,3.00708-2.10974c.09106,0,.18286.00379.2749.01172l46.05871,3.9491a3.20087,3.20087,0,0,1,2.89319,2.72082,3.16839,3.16839,0,0,1-.12036,1.457l-6.21057,19.38929a3.60326,3.60326,0,0,1,1.46436-.382,1.73752,1.73752,0,0,1,.75988.16418c2.591,1.24024,2.049,9.04065-.42529,14.61524-4.06421,9.15588-13.41907,12.48242-15.10852,13.08313-.43384.15429-.84216.26135-1.26135.38757a12.44064,12.44064,0,0,1-4.28113,6.96008c-9.043,3.00684-18.032,6.18128-27.129,9.02039a15.10194,15.10194,0,0,1-4.19385.56445c-.26123,0-.424-.007-.45007-.00927a11.36157,11.36157,0,0,1-9.26379-6.153l-.67334-1.31616,2.895,27.57788a6.396,6.396,0,0,1-2.37366,5.71472,37.432,37.432,0,0,1-19.91406,7.72424c-1.42872.13538-2.83924.19617-4.22205.19617-1.55029,0-3.06567-.07654-4.53027-.2102a57.52127,57.52127,0,0,1-8.438-1.39746,14.84808,14.84808,0,0,1-11.20862-12.60572c-.4502-3.61023-3.48975-49.58423.81482-66.63611,2.446-9.68994,7.73486-12.64563,7.96692-12.82544a20.668,20.668,0,0,1,9.47058-4.48571,26.12184,26.12184,0,0,1-10.12439-4.68006,7.9913,7.9913,0,0,1-1.23926.0979c-4.28113,0-7.34985-3.57165-8.83948-6.84228-2.907-1.18494-5.15673-3.81714-6.36718-8.26587a18.56637,18.56637,0,0,1-2.23108-3.50183A30.80834,30.80834,0,0,1,1.07141,82.69849C.51465,79.1311.70728,75.645,2.29163,72.96631c2.126-3.59461,7.13049-3.824,7.13049-3.824a55.23788,55.23788,0,0,1,6.69751-5.28784A21.11337,21.11337,0,0,1,23.695,60.84424c.38525-.45581.77771-.8916,1.18237-1.29236,1.90466-1.88513,3.57312-2.58472,5.001-2.58472M78.22583,167.02942,95.611,161.42114l-21.49389-3.36572c-.12195.07739-.24512.15039-.36866.22107l4.47742,8.75293M29.8783,56.204c-1.79371-.00012-3.657.94373-5.53785,2.80542-.33618.33289-.68237.70654-1.05371,1.13745a21.817,21.817,0,0,0-7.58288,3.06763,55.1116,55.1116,0,0,0-6.60547,5.18725c-1.1604.11084-5.4353.74659-7.46375,4.176C.12415,75.13159-.32727,78.51978.292,82.65088c-2.80578,10.1.71326,18.889,2.364,22.21057a19.56633,19.56633,0,0,0,2.22107,3.51831c1.1925,4.26013,3.37561,7.11682,6.493,8.49756,1.65051,3.44311,4.94275,7.0177,9.4071,7.0177a8.715,8.715,0,0,0,1.03711-.06287,27.57814,27.57814,0,0,0,7.36755,3.86182,21.86942,21.86942,0,0,0-6.99707,3.91663l-.0166.00671c-1.751,1.13867-6.05554,4.70642-8.20495,13.22082-4.4325,17.55872-1.19483,64.00867-.83216,66.91749A15.67282,15.67282,0,0,0,24.918,225.00879a58.29532,58.29532,0,0,0,8.55041,1.41589c1.54847.14124,3.09607.21314,4.597.21314,1.45142,0,2.89612-.06714,4.29407-.19959a38.15086,38.15086,0,0,0,20.3114-7.88232,7.19421,7.19421,0,0,0,2.66333-6.39624L62.813,188.14246a12.071,12.071,0,0,0,8.74536,4.74914c.02222.00195.209.0116.509.0116a15.99485,15.99485,0,0,0,4.42127-.59912c6.0747-1.89588,12.19763-3.97376,18.119-5.98328q4.50859-1.53,9.02343-3.0415l.13221-.04395.10827-.08789a13.25944,13.25944,0,0,0,4.438-6.94421c.2887-.084.57788-.16968.87891-.27674,4.24-1.50756,11.89831-5.26513,15.55041-13.49255,2.59339-5.843,3.19715-14.11035.05725-15.6134a2.50231,2.50231,0,0,0-1.08947-.23889q-.148,0-.30091.015l5.77405-18.02637a3.91007,3.91007,0,0,0,.14807-1.80444,3.95094,3.95094,0,0,0-3.58264-3.3667l-46.05872-3.9491q-.17083-.01464-.34008-.01452a3.97358,3.97358,0,0,0-3.72461,2.613l-5.48938,15.14759a13.29852,13.29852,0,0,0-3.36353-.422,15.87538,15.87538,0,0,0-3.58948.42725,12.14147,12.14147,0,0,0-7.07971-3.51111,40.2583,40.2583,0,0,0-12.26709-6.05091c9.06726-3.457,14.93018-13.20495,15.04016-25.08483L61.943,98.45105a3.68476,3.68476,0,0,0-.46252-4.93982l-4.993-4.57458a40.30585,40.30585,0,0,0-2.17127-4.954c2.819-7.43042,3.38172-14.15467,2.468-17.00281-.61279-1.90991-2.4552-3.05029-4.92847-3.05054a13.12958,13.12958,0,0,0-6.16113,1.84509,27.28241,27.28241,0,0,0-9.688-4.99853c-1.01684-1.83215-3.05237-4.57178-6.12829-4.5719ZM78.60962,166.10364,74.955,158.95923l17.37011,2.72-13.71545,4.42444Z" fill="#fff"/><path d="M114.08055,164.31273l-46.28083-7.24714a3.2,3.2,0,0,1-2.51348-4.25176l11.05512-30.50558a3.2,3.2,0,0,1,3.28191-2.098l46.05863,3.94911a3.2,3.2,0,0,1,2.774,4.16488L117.623,162.12783A3.2,3.2,0,0,1,114.08055,164.31273Z" fill="#dce0e3"/><polygon points="112.06 161.904 66.65 154.345 78.378 121.982 123.503 126.196 112.06 161.904" fill="#fff"/><path d="M128.45469,128.33711l-10.82858,33.807a3.20306,3.20306,0,0,1-3.54128,2.19033l-1.37464-.217a3.19155,3.19155,0,0,0,3.032-2.24434l10.96685-34.1833a3.20864,3.20864,0,0,0-1.0883-3.52657l.06562.00647A3.19868,3.19868,0,0,1,128.45469,128.33711Z" fill="#a6afb7"/><path d="M114.58817,141.69115l-.93474-.13217,2.07761-5.93743c.21121.12446.42707.24793.65219.36874l.09775-.27936a20.79947,20.79947,0,0,1-4.25808-3.10826l.30665-.87633-.54548-.07713.07866-.22478a.48129.48129,0,0,0-.01563-.38576.37993.37993,0,0,0-.29277-.20021l-.00955-.00043a.66381.66381,0,0,0-.66138.44793l-.07865.22477-.54549-.07713-.29731.84966a27.63407,27.63407,0,0,1-13.06171,1.86179l-.11064-.01537a18.647,18.647,0,0,1-9.07284-3.87638l.00141-.004-.00786-.00111c-.55594-.437-1.03391-.85764-1.44051-1.23171l.32509-.929-.54463-.077.07865-.22477a.48475.48475,0,0,0-.01562-.38577.38267.38267,0,0,0-.29363-.20033.66231.66231,0,0,0-.67009.44762l-.07866.22477-.54548-.07713-.32147.91868a33.84232,33.84232,0,0,1-5.91975,1.6244l-.09748.27858q.52353-.0882,1.02467-.19227l-2.09818,5.99622-1.07218-.1516-.30708.87757.15991.02261-.44743,1.27868a4.89024,4.89024,0,0,1,4.02463,3.77581l.00525.00074-.97986,2.80027-.33819-.04782-.8865,1.61228,3.361.47525.27977-1.69807-.34659-.049.98049-2.80208.00062-.0007c.01672-.01506.04937-.04663.09588-.09234q.03139-.02974.07274-.06613l.00962-.00937c.03177-.029.06685-.06025.10691-.09481.131-.11285.30153-.255.50693-.4096.035-.02723.07232-.05412.11014-.08228.10762-.07863.22217-.159.34731-.24047.0294-.01863.05759-.03743.087-.05607.07008-.04773.14127-.09128.2141-.136.03229-.01956.06411-.03785.09637-.05742.04842-.02935.0976-.05725.14677-.08516a7.40682,7.40682,0,0,1,4.69524-1.01451l.00606.00086a5.26948,5.26948,0,0,1,4.324,3.87578l-.97979,2.80006-.34766-.04916-.887,1.612,3.36034.47516.28008-1.69783-.35735-.05053.97979-2.80006.01575.00223a9.62157,9.62157,0,0,1,1.79833-1.29545,7.28006,7.28006,0,0,1,4.56377-1.013c.03513.005.06905.00976.10253.01584a5.57542,5.57542,0,0,1,4.31529,3.81676l-.97993,2.80048-.33736-.04771-.887,1.61215,3.36076.47522.28016-1.698-.34628-.049.97989-2.80033h0c.008-.00825.023-.02221.04352-.04076l.03431-.03269c.01341-.01285.0301-.02792.04893-.04537a.52936.52936,0,0,1,.0435-.04076c.0238-.02077.04925-.04264.07725-.06818.10736-.09608.24668-.21447.41846-.34569.042-.03294.08572-.067.13229-.102.09026-.069.18791-.141.29494-.21434.0511-.037.10626-.0748.1622-.11113.0502-.03446.10326-.06986.15709-.1038.12259-.07786.25047-.15629.38608-.235a6.99593,6.99593,0,0,1,4.36442-.9956l.44743-1.27868.19019.02689Zm.924-6.19906-2.11045,6.03129-2.29189-.32408,2.46666-7.04927A19.8617,19.8617,0,0,0,115.51213,135.49209Zm-2.14276-1.50533L110.858,141.1637l-1.55391-.21972,2.81239-8.03728C112.47778,133.23826,112.89315,133.60458,113.36937,133.98676Zm-3.31349-1.40037-2.822,8.06485-1.524-.2155,2.52952-7.22892C108.91669,132.99381,109.52455,132.781,110.05588,132.58639Zm-2.11286.71232-2.48491,7.10143-2.29187-.32407,2.12986-6.08675C106.25232,133.78318,107.14093,133.54344,107.943,133.29871Zm-2.93249.75159-2.09606,5.99017-2.29187-.32408,1.84195-5.264C103.35131,134.35537,104.20385,134.21593,105.01053,134.0503Zm-2.81993.42992-1.81977,5.20057-2.29187-.32407,1.66529-4.75911A23.80169,23.80169,0,0,0,102.1906,134.48022Zm-2.70936.11395-1.654,4.727-1.389-.19641.29814-.852-.55965-.07913.06213-.17756a.48322.48322,0,0,0-.01511-.38555.37545.37545,0,0,0-.15669-.15318l1.06769-3.05127A20.99244,20.99244,0,0,0,99.48124,134.59417Zm-2.59914-.20128-1.06224,3.0357a.68389.68389,0,0,0-.55982.449l-.06212.17755-.51-.07211-.29814.852-1.39819-.1977L94.63528,133.94A19.72963,19.72963,0,0,0,96.8821,134.39289Zm-2.488-.5186-1.65422,4.72747-2.29189-.32408,1.79861-5.1401A18.699,18.699,0,0,0,94.39407,133.87429Zm-2.37775-.83375-1.82011,5.20154-2.29187-.32407,2.06719-5.90767A18.60165,18.60165,0,0,0,92.01632,133.04054Zm-2.26335-1.1607-2.1004,6.00257-2.292-.32409,2.45323-7.01089A19.80237,19.80237,0,0,0,89.753,131.87984Zm-2.14625-1.49559-2.49788,7.13847-1.53937-.21767,2.79423-7.98537C86.72419,129.64852,87.13611,130.00909,87.60672,130.38425Zm-3.30888-1.36748L81.5,137.01243l-1.39142-.19675,2.532-7.23591C83.25088,129.38758,83.80589,129.19527,84.29784,129.01677ZM79.69667,130.364c.95661-.2067,1.8456-.44728,2.64753-.69229l-2.48734,7.10837L77.565,136.456Z" fill="url(#fdf23771-d497-496b-ab65-fea6dbe4a09a)"/><path d="M101.84333,139.90726l-.75451,2.15625c-.03347-.00607-.0674-.01087-.10253-.01584a7.28,7.28,0,0,0-4.56376,1.013,9.62093,9.62093,0,0,0-1.79834,1.29545l-.01575-.00223-.97979,2.80006.35735.05053-.28007,1.69782-3.36034-.47516.887-1.612.34766.04916.97979-2.8a5.26947,5.26947,0,0,0-4.324-3.87579L88.23,140.1876l.73529-2.10132,5.41846.76618.29814-.852.51.07211.06213-.17755a.66256.66256,0,0,1,.67-.44688.384.384,0,0,1,.2937.19972.4832.4832,0,0,1,.01511.38556l-.06213.17755.55966.07914-.29814.852Z" fill="#f7706c" opacity="0.45"/><path d="M95.92394,137.44811a.384.384,0,0,1,.2937.19972.4832.4832,0,0,1,.01511.38556l-.06213.17755.55966.07914-.29814.852,5.41119.76515-.75451,2.15625c-.03347-.00607-.0674-.01087-.10253-.01584l-.00852-.00121a7.28361,7.28361,0,0,0-4.55524,1.01422,9.62112,9.62112,0,0,0-1.79834,1.29544l-.01575-.00222-.97979,2.80006.35735.05053-.28007,1.69782-3.36034-.47516.887-1.612.34766.04916.97979-2.80006a5.26947,5.26947,0,0,0-4.324-3.87579L88.23,140.1876l.73529-2.10132,5.41846.76618.29814-.852.51.07211.06213-.17755a.66255.66255,0,0,1,.67-.44688Zm.13409-.38322a1.13466,1.13466,0,0,0-1.073.57622l-.16908-.0239-.36341-.05139-.13409.38322-.164.46881-5.055-.71479-.36342-.05139-.13409.38322-.73529,2.10133-.1341.38322.36341.05138.00607.00086a4.96981,4.96981,0,0,1,4.05351,3.55881l-.80454,2.29921-.28335-.04007-.16583.30139-.887,1.612-.24481.44491.44155.06243,3.36034.47516.43921.06211.077-.4666.28007-1.69782.0527-.31944-.29462-.04166.79629-2.27567a9.32275,9.32275,0,0,1,1.62955-1.15839,6.91936,6.91936,0,0,1,4.29168-.95838l.00786.00112.01206.0017c.02695.00382.05275.00753.07824.01215l.37142.0674.139-.39715.75451-2.15625.1341-.38322-.36341-.05139-5.04779-.71376.164-.46882.13409-.38322-.36341-.05138-.2186-.03091a.7841.7841,0,0,0-.07525-.46067.67021.67021,0,0,0-.51249-.35039Z" fill="#f7706c" opacity="0.85"/><path d="M96.38477,135.876c-.05957-.084-1.459-2.06446-.9209-3.60059a2.97037,2.97037,0,0,1,.73828-1.14258,2.772,2.772,0,0,1,1.89941-.82617,2.08192,2.08192,0,0,1,.30176.02148,1.75641,1.75641,0,0,1,1.50684,1.37891,2.30415,2.30415,0,0,1-.09473,1.25977c-.52734,1.50879-3.07617,2.90722-3.18457,2.96582l-.14746.08008Z" fill="#fff"/><path d="M98.10193,130.49744a1.96509,1.96509,0,0,1,.27466.019,1.55622,1.55622,0,0,1,1.34668,1.23193,2.09869,2.09869,0,0,1-.08741,1.15467C99.126,134.36023,96.54,135.765,96.54,135.765s-1.40735-1.96594-.89636-3.42639a2.77809,2.77809,0,0,1,.69079-1.06933,2.59924,2.59924,0,0,1,1.76746-.77185m0-.38172a2.97134,2.97134,0,0,0-2.03394.88037,3.16785,3.16785,0,0,0-.78454,1.21643c-.56983,1.62879.88415,3.68775.94629,3.77466l.19629.27405.29614-.16089c.111-.06018,2.72168-1.49316,3.27392-3.07117a2.48772,2.48772,0,0,0,.09949-1.36462,1.94276,1.94276,0,0,0-1.66553-1.52588,2.34046,2.34046,0,0,0-.32812-.02295Z" fill="#dce0e3"/><ellipse cx="97.63798" cy="132.62599" rx="1.94813" ry="1.56028" transform="translate(-65.07763 107.20044) rotate(-44.75877)" fill="#f7706c"/><path d="M96.95761,133.54492a.12178.12178,0,0,1-.10159.10431l-.00054.00007a.07217.07217,0,0,1-.0854-.08069l.184-2.03566a.12177.12177,0,0,1,.10158-.10432l.00055-.00007a.07217.07217,0,0,1,.0854.08069Zm1.79175-1.0431h0l.00289-.03225c-.39064-.12577-.67683-.24186-.67683-.24186a2.00424,2.00424,0,0,0,.73963-.45855l.00376-.0419a.05324.05324,0,0,0-.02621-.051.08319.08319,0,0,0-.06695-.00634,1.74776,1.74776,0,0,1-.51241.06953l.00827-.08928a.056.056,0,0,0-.04611-.0594,3.28033,3.28033,0,0,0-.90271.00188l-.08919.97069a2.023,2.023,0,0,1,.451-.11218l-.01108.146a.05612.05612,0,0,0,.04688.05862c.03187.00741.06527.0137.09931.01851a2.2829,2.2829,0,0,0,.92227-.10738A.08153.08153,0,0,0,98.74936,132.50182Z" fill="#fff"/><ellipse cx="83.43393" cy="136.69456" rx="8.96649" ry="5.86559" transform="translate(-72.29575 174.04275) rotate(-72.08782)" opacity="0.65" fill="url(#b9861bdb-3786-488e-ba6e-8373014953c9)"/><path d="M53.46342,87.199,60.9667,94.0736a2.93314,2.93314,0,0,1,.36715,3.91975l-5.34319,7.142Z" fill="#c8ae98"/><path d="M62.10492,138.274c6.76081-2.10609,10.75169.88285,11.35417,1.24049,3.72982-.478,8.04384-6.29742,9.43034-6.02486a3.46321,3.46321,0,0,1,2.3273,2.67323c.62681,2.86788-2.52887,5.74757-4.9748,7.9796a28.82769,28.82769,0,0,1-7.25394,4.81636,10.71154,10.71154,0,0,1,6.47934-1.08021c1.45566.241,3.569.59081,4.45356,2.35836.72755,1.45383.48848,3.59652-.66964,4.4449-1.32622.97153-2.69884-.6031-5.0487.144-1.79562.57093-1.8968,1.77736-3.88514,3.11035a10.37772,10.37772,0,0,1-5.78377,1.70149C62.36237,159.38051,47.0724,142.95686,62.10492,138.274Z" fill="#c8ae98"/><ellipse cx="32.86161" cy="97.79689" rx="24.48412" ry="31.03621" transform="translate(-30.06858 16.04171) rotate(-19.01357)" fill="#dbc9bb"/><path d="M56.4628,134.94286l8.11438,77.29625a6.396,6.396,0,0,1-2.3738,5.71463,37.43091,37.43091,0,0,1-19.914,7.72423,47.33261,47.33261,0,0,1-8.75244-.014,57.52543,57.52543,0,0,1-8.43792-1.39742,14.84846,14.84846,0,0,1-11.20867-12.6058q-.67515-5.41518-1.1372-10.3509l-.00235-.01584a237.89546,237.89546,0,0,1-1.08119-33.952l-.00235-.01584c.20429-4.737.609-8.77589,1.08461-12.22673a83.72639,83.72639,0,0,1,1.95325-10.0748,24.81619,24.81619,0,0,1,7.27777-12.23818c.22986-.19574.45727-.40741.68938-.5873,7.58225-6.2501,16.13952-5.4794,22.73818-3.18928A41.30149,41.30149,0,0,1,56.42643,134.916Z" fill="#f7963e"/><path d="M98.9552,163.721a19.75637,19.75637,0,0,0,2.131-6.37444c.5642-3.77377-3.13452-10.42469-.334-10.849,7.50249-1.13663,5.78858,8.38895,8.49906,9.86842,3.4528,1.88466,11.52434-10.62477,15.21714-8.85724,2.59094,1.24013,2.049,9.04059-.42538,14.61512-4.064,9.15589-13.41887,12.48244-15.10832,13.0832a27.88567,27.88567,0,0,1-7.85923,1.56219A12.21275,12.21275,0,0,0,98.9552,163.721Z" fill="#dbc9bb"/><path d="M10.92919,112.72817c.45189,7.0395,15.90386,30.376,36.9828-29.39382-.77844,2.899-9.45463,23.47909-23.02705,32.92333-5.41668,3.76915-8.944,2.0214-10.416-1.83718C13.59339,112.1257,10.92919,112.72817,10.92919,112.72817Z" fill="#f4f3f0"/><path d="M43.12192,68.38727c6.75671-5.191,11.94371-4.27162,12.93722-1.17464,1.137,3.54421-.17286,15.04248-7.15331,25.81543-12.713,19.62-40.69363,36.39017-44.011,11.68316Z" fill="#ffcf5d"/><path d="M3.34139,104.52143c-5.00811-10.077-6.88037-27.895,12.78021-40.66731,12.92314-8.39542,32.13-.05423,34.3649,10.382C53.31153,87.42829,16.0137,130.02,3.34139,104.52143Z" fill="#ffc335"/><path d="M36.10933,62.77062s-3.84194-10.5317-11.23-3.21913c-5.69523,5.637-9.53164,16.77967-9.06766,32.01C26.75377,49.72984,36.10933,62.77062,36.10933,62.77062Z" fill="#ffcf5d"/><path d="M9.424,69.142c-1.97663.20815-5.0045.22934-7.13053,3.824-3.92223,6.63167.6011,18.2033,4.24373,23.739C5.447,93.855.55045,76.434,9.424,69.142Z" fill="#ffcf5d"/><path d="M56.42643,134.916c-16.34611,1.353-27.478,12.57679-34.53976,28.56785a98.60759,98.60759,0,0,0-5.06327,14.74068A150.19509,150.19509,0,0,0,12.75084,201.294a237.89546,237.89546,0,0,1-1.08119-33.952l-.00235-.01584c.60209-1.72271,1.25405-3.4367,1.94236-5.1238q.54964-1.36719,1.15383-2.69408A73.79109,73.79109,0,0,1,20.25326,149.395l-.00234-.01584c6.63868-10.21867,14.12261-19.27569,25.974-20.07453A33.26771,33.26771,0,0,1,56.42643,134.916Z" fill="#ffc335"/><path d="M42.28942,225.678a47.33261,47.33261,0,0,1-8.75244-.014A274.56414,274.56414,0,0,1,16.8234,178.22449c-1.33095-5.38313-2.43794-10.78324-3.21374-16.02211-.35625-2.4057-.658-4.7711-.85775-7.10293a83.72639,83.72639,0,0,1,1.95325-10.0748,24.81619,24.81619,0,0,1,7.27777-12.23818c.22986-.19574.45727-.40741.68938-.5873-2.04605,4.31424-2.71472,10.28461-2.42139,17.18l.00234.01584a112.39729,112.39729,0,0,0,1.63341,14.0888C26.00326,187.02272,36.59638,214.649,42.28942,225.678Z" fill="#ffc335"/><path d="M97.79474,160.717a12.39376,12.39376,0,0,1,5.59747,21.83773l-27.129,9.02045a11.37993,11.37993,0,0,1-14.43059-7.12488v0a11.37993,11.37993,0,0,1,7.12486-14.43059Z" fill="#f4f3f0"/><rect x="52.13871" y="132.18915" width="22.75988" height="62.14628" rx="5.74332" transform="translate(-67.38019 46.83769) rotate(-27.09036)" fill="#f4f3f0"/></g></g></svg>