<svg xmlns="http://www.w3.org/2000/svg" xmlns:xlink="http://www.w3.org/1999/xlink" viewBox="0 0 330 240"><defs><linearGradient id="b6dc0e9e-cccd-4b21-b2b6-54de8865406f" x1="137.81589" y1="87.14881" x2="137.81589" y2="183.22948" gradientUnits="userSpaceOnUse"><stop offset="0" stop-color="#cdecff"/><stop offset="1" stop-color="#fff" stop-opacity="0"/></linearGradient><linearGradient id="b0d5d4fe-0d01-43d0-84b8-22e455769537" x1="137.81584" y1="165.55854" x2="137.81584" y2="132.81967" gradientUnits="userSpaceOnUse"><stop offset="0" stop-color="#969287"/><stop offset="1" stop-color="#716e65"/></linearGradient><clipPath id="a1bbc53b-639a-4476-b07b-dccd38a8a6da"><circle cx="265.87046" cy="95.44143" r="63.07285" fill="none"/></clipPath><linearGradient id="becd6322-8cbe-4ef8-9d85-5001cc82956a" x1="296.26661" y1="28.22834" x2="296.52752" y2="35.96874" gradientUnits="userSpaceOnUse"><stop offset="0" stop-color="#ffe7ae" stop-opacity="0.75"/><stop offset="0.16757" stop-color="#ffe6ac" stop-opacity="0.73647"/><stop offset="0.31359" stop-color="#ffe4a5" stop-opacity="0.69466"/><stop offset="0.45156" stop-color="#ffe19a" stop-opacity="0.62441"/><stop offset="0.58468" stop-color="#ffdc8a" stop-opacity="0.52553"/><stop offset="0.71429" stop-color="#ffd675" stop-opacity="0.39794"/><stop offset="0.84127" stop-color="#ffcf5c" stop-opacity="0.24145"/><stop offset="0.96379" stop-color="#ffc63f" stop-opacity="0.05966"/><stop offset="1" stop-color="#ffc335" stop-opacity="0"/></linearGradient></defs><g style="isolation:isolate"><g id="baaac0cb-1e7f-4e8a-b171-2fdb88c4f5ad" data-name="Layer 1"><path d="M274.48137,203.48176H1.15041V93.29946c0-21.98073,17.08817-34.07618,41.68174-34.07618,8.07954,0,37.82131,4.35866,46.94966,4.35866,50.394,0,58.25591-24.85572,114.28572-24.85572,50.47269,0,70.41384,31.45055,70.41384,56.04844Z" fill="url(#b6dc0e9e-cccd-4b21-b2b6-54de8865406f)"/><path d="M99.43185,76.66822H67.09439a5.2686,5.2686,0,0,0,0,10.5372H68.9699a2.63547,2.63547,0,1,1,0,5.27093H67.09439a5.26863,5.26863,0,0,0,0,10.53725H88.16613a5.26863,5.26863,0,0,0,0-10.53725H83.87454a2.63547,2.63547,0,1,1,0-5.27093H99.43185a5.2686,5.2686,0,1,0,0-10.5372Z" fill="#fff"/><rect x="179.31961" y="49.65729" width="31.60894" height="10.53722" rx="5.2686" fill="#fff"/><rect x="160.8137" y="77.81545" width="20.419" height="10.53722" rx="5.2686" fill="#fff"/><path d="M274.48137,148.56029v12.11244a42.57528,42.57528,0,0,0-27.5273,10.48288c-.74077.63616-1.42921,1.26354-2.08276,1.88225-.28752.27013-.56632.549-.82778.81912-.29625.28752-.58377.58382-.84523.87139-.55771.5751-1.05436,1.13281-1.5075,1.66435-.2353.27013-.45315.53154-.66227.78428-.86268,1.01079-1.53367,1.90836-2.03915,2.63158-.13062.19174-.25263.3573-.36592.51415a2.59582,2.59582,0,0,0-.2004.305c-.08723.13073-.16552.244-.22657.33985s-.11329.17429-.1568.244c-.09594.1394-.16562.244-.20051.305H222.947c-.83651-1.3071-14.97055-20.43428-38.73356-20.84381-.244-.00872-.488-.00872-.74077-.00872a44.4748,44.4748,0,0,0-28.852,10.77918,48.05115,48.05115,0,0,0-9.21934,10.07335H130.55278c-.89757-1.39422-14.18638-21.2185-38.934-21.2185H91.5752a45.36752,45.36752,0,0,0-29.74951,10.90985c-.27008.22658-.54026.45315-.80172.68844-.17424.15685-.34848.305-.52282.46182-.39209.3573-.77556.70582-1.14148,1.08052-.15689.14818-.30507.2963-.46186.44442-.66227.64483-1.25476,1.27226-1.80385,1.88225-.19169.21785-.38337.427-.5576.6361-1.037,1.19381-1.86491,2.27433-2.49229,3.12829-.19169.26146-.3572.4967-.50538.71455a.30411.30411,0,0,1-.0435.06973q-.19626.27452-.34.4967c-.20912.33986-.35719.5751-.43569.68838,0,.00873-.00873.00873-.00873.01745H37.7926c-.84523-1.31582-12.71377-20.59112-36.6423-20.84381V148.56029Z" fill="url(#b0d5d4fe-0d01-43d0-84b8-22e455769537)"/><path d="M228.57572,85.68334c-14.09491,8.10417-47.1029,27.0821-90.69342,27.30376-.26823.00118-.52821.00177-.79526.00177-30.01624,0-54.31321-8.63106-71.48558-16.8576v-.02752h-.05663c-7.70042-3.692-13.96845-7.30058-18.669-10.00834L45.68737,85.411l-.451.78524-.451-.78524-.47456.273C35.971,90.47878,21.00732,99.07959,1.15041,105.3506v1.90033q3.37686-1.05439,6.56224-2.19152v46.89222h1.811V104.40608c6.06114-2.22287,11.57757-4.60366,16.4866-6.93331v54.47886h1.811V96.60278c7.32014-3.5598,13.19094-6.93327,17.3927-9.349l.02243-.0129.73569.42321c4.53222,2.61092,10.51555,6.05237,17.81834,9.60329v54.6842h1.811V98.13775c4.93579,2.33956,10.44344,4.69776,16.4872,6.87845v46.93543h1.811V105.66357a167.92591,167.92591,0,0,0,16.4866,4.81688v41.47118h1.811v-41.052a159.87016,159.87016,0,0,0,16.4866,2.81479v38.23724h1.811V113.92006a157.727,157.727,0,0,0,16.4866.8785v37.15307h1.811V114.78154a155.47772,155.47772,0,0,0,16.48719-1.06358v38.23367h1.811V113.49855a163.07737,163.07737,0,0,0,16.48661-3.01147v41.46455h1.811v-41.897c5.84527-1.44592,11.35451-3.13586,16.4866-4.95391v46.85091h1.811V104.44185c6.05993-2.21874,11.57573-4.59378,16.4866-6.92174v54.43152h1.811V96.65042c7.36329-3.57715,13.27547-6.971,17.49527-9.39718l.4728-.27177-.902-1.57049Z" fill="#85929d"/><path d="M274.48018,105.35219c-18.83961-6.01657-33.07069-14.20364-41.84383-19.25795l-1.1873-.68326-.902,1.57049,1.18494.68208c4.42172,2.54729,10.221,5.88377,17.28482,9.34147v54.94661h1.811V97.87593c4.93137,2.35426,10.42955,4.73718,16.48661,6.94432v47.13138h1.811V105.46055c1.74624.61483,3.522,1.219,5.35471,1.79734Z" fill="#85929d"/><rect y="145.96355" width="275.84952" height="5.98649" fill="#c0beb7"/><path d="M141.26228,138.94009v3.52915h-7.041v-3.52915a3.52048,3.52048,0,1,1,7.041,0Z" fill="#969287"/><path d="M154.62076,171.44319a48.05115,48.05115,0,0,0-9.21934,10.07335h-5.23711l4.261-29.5665.488-3.38975.34858-2.41378.02617-.183.94979,2.59674,1.246,3.38975Z" fill="#969287" opacity="0.45" style="mix-blend-mode:multiply"/><path d="M246.95082,171.155a48.31151,48.31151,0,0,0-9.11488,10.35771h-5.24933l5.258-35.683Z" fill="#969287" opacity="0.45" style="mix-blend-mode:multiply"/><rect x="130.55278" y="140.15129" width="14.73536" height="71.0712" fill="#c8c2b4"/><rect x="222.94636" y="83.08406" width="14.89253" height="128.13535" fill="#c8c2b4"/><polygon points="242.482 211.914 218.306 211.914 220.52 200.619 240.33 200.619 242.482 211.914" fill="#969287"/><rect x="137.8203" y="140.15129" width="7.44166" height="62.95844" fill="#c8c2b4" opacity="0.45" style="mix-blend-mode:multiply"/><polygon points="150.011 211.911 125.839 211.911 128.052 200.618 147.859 200.618 150.011 211.911" fill="#969287"/><path d="M242.48153,211.91252H230.27527v-.69424l.01208-10.60043.09657-117.53492.00605-5.05877a3.52448,3.52448,0,0,1,3.52546,3.52542v1.53335h3.91782V200.61785h2.49317Z" fill="#c8c2b4" opacity="0.45" style="mix-blend-mode:multiply"/><path d="M184.21348,145.96355v14.70918c-.244-.00872-.488-.00872-.74077-.00872a44.4748,44.4748,0,0,0-28.852,10.77918,48.05115,48.05115,0,0,0-9.21934,10.07335h-.11329v19.101h2.57058l2.15243,11.29332H125.83859l2.21328-11.29332h2.50091v-19.101c-.89757-1.39422-14.18638-21.2185-38.934-21.2185H91.5752V145.96355h38.97758v-5.81226h3.66854v-1.2112a3.52048,3.52048,0,1,1,7.041,0v1.2112h4.02585v5.81226Z" fill="#f7706c" opacity="0.45"/><path d="M137.74179,135.41956a3.51093,3.51093,0,0,1,3.5205,3.5205v1.21119h4.02583v5.81225h38.92537v14.70923c-.244-.00867-.488-.00867-.74079-.00867h-.06127a44.47822,44.47822,0,0,0-28.79067,10.77918,48.05307,48.05307,0,0,0-9.21935,10.07324h-.11329v19.10107h2.57058l2.15244,11.29334H125.8386l2.21327-11.29334h2.50091V181.51648c-.89757-1.39417-14.18637-21.21838-38.934-21.21838H91.5752V145.9635h38.97758v-5.81225h3.66854v-1.21119a3.52189,3.52189,0,0,1,3.52047-3.5205m0-2.479a6.01015,6.01015,0,0,0-5.86471,4.73169h-3.80334v5.81226H89.09616v19.2926h2.479c21.68714,0,34.14059,16.13806,36.49854,19.49927v15.86218h-2.06222l-.3924,2.0022-2.21327,11.29333-.57929,2.95581h30.18073l-.561-2.94311-2.15244-11.29334-.384-2.01489h-2.14271V182.43762a46.751,46.751,0,0,1,8.43978-9.08923,42.30785,42.30785,0,0,1,27.20447-10.20532h.14132c.19634,0,.38451.00048.5727.0072l2.56709.09119v-19.757H147.76716v-5.81226h-4.15977a5.98913,5.98913,0,0,0-5.8656-4.73169Z" fill="#f7706c"/><rect x="202.84947" y="66.49332" width="3.41034" height="2.55776" fill="#f7706c"/><path d="M198.45249,69.05107h-7.03966V66.49332h7.03966Zm-11.43664,0h-7.03966V66.49332h7.03966Zm-11.43664,0h-7.03966V66.49332h7.03966Zm-11.43664,0H157.1029V66.49332h7.03967Zm-11.43665,0h-7.04049V66.49332h7.04049Z" fill="#f7706c"/><polygon points="139.138 71.183 136.58 71.183 136.58 66.493 141.269 66.493 141.269 69.051 139.138 69.051 139.138 71.183" fill="#f7706c"/><rect x="136.58006" y="74.82018" width="2.55776" height="5.82365" fill="#f7706c"/><rect x="136.58006" y="84.28106" width="2.55776" height="5.55985" fill="#f7706c"/><path d="M150.11339,100.29484a14.35851,14.35851,0,0,0-26.54713,7.58575c0,9.96285,14.36144,21.448,14.36144,21.448s14.35556-11.5083,14.35556-21.448A14.22868,14.22868,0,0,0,150.11339,100.29484Z" fill="#fff"/><path d="M137.92245,95.99458a11.92343,11.92343,0,1,0,11.92767,11.91919A11.9202,11.9202,0,0,0,137.92245,95.99458Zm-2.90734,19.294a.52418.52418,0,0,1-.162.01707.62732.62732,0,0,1-.61383-.46891l-3.6235-13.39415a.63248.63248,0,0,1,.44331-.77583h.00854a.63646.63646,0,0,1,.77588.44331l3.62349,13.40268A.63765.63765,0,0,1,135.01511,115.28861Zm9.99233-8.72194a15.14472,15.14472,0,0,1-6.06193,1.54318,6.66828,6.66828,0,0,1-.72467-.03409.5059.5059,0,0,1-.46891-.33252l-.27284-.96342a12.63684,12.63684,0,0,0-2.82206,1.14249l-1.7137-6.38592a22.95137,22.95137,0,0,1,6.18125-.844.50612.50612,0,0,1,.46037.34106l.15352.58828a11.18971,11.18971,0,0,0,3.35065-.92081.597.597,0,0,1,.46891-.01706.479.479,0,0,1,.30692.307l.07676.27283a10.31177,10.31177,0,0,1-3.97308,3.65758s2.2423.49451,5.21782.95489l.05969.21314A.42975.42975,0,0,1,145.00744,106.56667Z" fill="#f7706c"/><path d="M255.181,116.889v5.47847H244.21474V116.889a5.47722,5.47722,0,0,1,5.38447-5.47842.38574.38574,0,0,1,.10347-.00941A5.48626,5.48626,0,0,1,255.181,116.889Z" fill="#969287"/><g clip-path="url(#a1bbc53b-639a-4476-b07b-dccd38a8a6da)"><rect x="193.32811" y="26.94285" width="148.72876" height="138.17357" fill="#fff"/><polygon points="244.839 107.416 245.869 106.9 263.314 107.264 260.9 124.597 243.455 124.597 242.445 123.768 244.839 107.416" fill="#a6afb7"/><polygon points="246.99 106.9 264.435 107.264 262.021 124.597 244.576 124.234 246.99 106.9" fill="#c7ccd1"/><polygon points="315.086 139.802 239.516 139.802 209.181 127.642 209.181 123.768 282.178 123.768 315.086 135.679 315.086 139.802" fill="#b69376"/><polygon points="209.181 123.752 240.149 135.67 316.273 135.679 283.365 123.768 209.181 123.752" fill="#c8ae98"/><polygon points="222.354 62.851 226.159 60.945 290.607 62.287 289.647 109.541 225.2 108.199 221.468 106.48 222.354 62.851" fill="#c7ccd1"/><rect x="225.67245" y="61.61075" width="64.46149" height="47.26456" transform="translate(1.83059 -5.35088) rotate(1.19294)" fill="#dce0e3"/><rect x="230.15461" y="64.84404" width="57.09193" height="40.81939" transform="matrix(0.99979, 0.0203, -0.0203, 0.99979, 1.78407, -5.23436)" fill="#f7f7f7"/><polygon points="291.536 132.482 241.425 132.482 229.076 127.441 229.076 126.327 278.248 126.392 291.536 131.323 291.536 132.482" fill="#dce0e3"/><polygon points="229.076 126.327 241.35 131.323 291.536 131.323 278.084 126.327 229.076 126.327" fill="#f8f9fb"/><polygon points="271.517 126.036 271.517 126.598 273.714 127.461 280.354 127.461 280.354 126.939 277.92 126.036 271.517 126.036" fill="#dce0e3"/><polygon points="271.517 126.036 273.815 126.939 280.353 126.939 277.919 126.036 271.517 126.036" fill="#f8f9fb"/><polygon points="230.441 126.036 230.441 126.558 232.639 127.461 236.332 127.461 236.332 126.939 233.898 126.036 230.441 126.036" fill="#dce0e3"/><polygon points="230.441 126.036 232.74 126.939 236.332 126.939 233.898 126.036 230.441 126.036" fill="#f8f9fb"/><polygon points="235.048 126.036 235.048 126.558 237.246 127.461 240.939 127.461 240.939 126.939 238.505 126.036 235.048 126.036" fill="#dce0e3"/><polygon points="235.048 126.036 237.347 126.939 240.939 126.939 238.505 126.036 235.048 126.036" fill="#f8f9fb"/><polygon points="239.656 126.036 239.656 126.558 241.853 127.461 245.546 127.461 245.546 126.939 243.112 126.036 239.656 126.036" fill="#dce0e3"/><polygon points="239.656 126.036 241.954 126.939 245.546 126.939 243.112 126.036 239.656 126.036" fill="#f8f9fb"/><polygon points="244.263 126.036 244.263 126.558 246.46 127.461 250.153 127.461 250.153 126.939 247.719 126.036 244.263 126.036" fill="#dce0e3"/><polygon points="244.263 126.036 246.562 126.939 250.153 126.939 247.719 126.036 244.263 126.036" fill="#f8f9fb"/><polygon points="248.87 126.036 248.87 126.558 251.067 127.461 254.76 127.461 254.76 126.939 252.326 126.036 248.87 126.036" fill="#dce0e3"/><polygon points="248.87 126.036 251.169 126.939 254.76 126.939 252.326 126.036 248.87 126.036" fill="#f8f9fb"/><polygon points="253.477 126.036 253.477 126.558 255.674 127.461 259.367 127.461 259.367 126.939 256.933 126.036 253.477 126.036" fill="#dce0e3"/><polygon points="253.477 126.036 255.776 126.939 259.367 126.939 256.933 126.036 253.477 126.036" fill="#f8f9fb"/><polygon points="258.084 126.036 258.084 126.558 260.282 127.461 263.975 127.461 263.975 126.939 261.54 126.036 258.084 126.036" fill="#dce0e3"/><polygon points="258.084 126.036 260.383 126.939 263.975 126.939 261.54 126.036 258.084 126.036" fill="#f8f9fb"/><polygon points="262.691 126.036 262.691 126.558 264.889 127.461 268.582 127.461 268.582 126.939 266.147 126.036 262.691 126.036" fill="#dce0e3"/><polygon points="262.691 126.036 264.99 126.939 268.582 126.939 266.147 126.036 262.691 126.036" fill="#f8f9fb"/><polygon points="267.298 126.036 267.298 126.558 269.496 127.461 273.189 127.461 273.189 126.939 270.754 126.036 267.298 126.036" fill="#dce0e3"/><polygon points="267.298 126.036 269.597 126.939 273.189 126.939 270.754 126.036 267.298 126.036" fill="#f8f9fb"/><polygon points="281.156 127.231 277.548 127.231 277.548 127.793 279.746 128.657 280.788 128.657 283.901 129.845 286.807 129.845 286.807 129.323 281.156 127.231" fill="#dce0e3"/><polygon points="286.807 129.323 281.156 127.231 281.155 127.231 277.548 127.231 279.847 128.134 280.775 128.134 283.909 129.323 286.807 129.323" fill="#f8f9fb"/><polygon points="273.143 127.231 273.143 127.793 275.341 128.657 279.034 128.657 279.034 128.134 276.6 127.231 273.143 127.231" fill="#dce0e3"/><polygon points="273.143 127.231 275.442 128.134 279.034 128.134 276.6 127.231 273.143 127.231" fill="#f8f9fb"/><polygon points="268.543 127.231 268.543 127.793 270.74 128.657 274.433 128.657 274.433 128.134 271.999 127.231 268.543 127.231" fill="#dce0e3"/><polygon points="268.543 127.231 270.841 128.134 274.433 128.134 271.999 127.231 268.543 127.231" fill="#f8f9fb"/><polygon points="263.931 127.231 263.931 127.793 266.129 128.657 269.822 128.657 269.822 128.134 267.387 127.231 263.931 127.231" fill="#dce0e3"/><polygon points="263.931 127.231 266.23 128.134 269.822 128.134 267.387 127.231 263.931 127.231" fill="#f8f9fb"/><polygon points="259.319 127.231 259.319 127.793 261.517 128.657 265.21 128.657 265.21 128.134 262.776 127.231 259.319 127.231" fill="#dce0e3"/><polygon points="259.319 127.231 261.618 128.134 265.21 128.134 262.776 127.231 259.319 127.231" fill="#f8f9fb"/><polygon points="254.708 127.231 254.708 127.793 256.905 128.657 260.598 128.657 260.598 128.134 258.164 127.231 254.708 127.231" fill="#dce0e3"/><polygon points="254.708 127.231 257.006 128.134 260.598 128.134 258.164 127.231 254.708 127.231" fill="#f8f9fb"/><polygon points="250.096 127.231 250.096 127.793 252.294 128.657 255.987 128.657 255.987 128.134 253.552 127.231 250.096 127.231" fill="#dce0e3"/><polygon points="250.096 127.231 252.395 128.134 255.987 128.134 253.552 127.231 250.096 127.231" fill="#f8f9fb"/><polygon points="245.484 127.231 245.484 127.753 247.682 128.657 251.375 128.657 251.375 128.134 248.941 127.231 245.484 127.231" fill="#dce0e3"/><polygon points="245.484 127.231 247.783 128.134 251.375 128.134 248.941 127.231 245.484 127.231" fill="#f8f9fb"/><polygon points="240.941 127.231 240.941 127.793 243.138 128.657 246.831 128.657 246.831 128.134 244.397 127.231 240.941 127.231" fill="#dce0e3"/><polygon points="240.941 127.231 243.239 128.134 246.831 128.134 244.397 127.231 240.941 127.231" fill="#f8f9fb"/><polygon points="233.465 127.231 233.465 127.793 235.635 128.678 242.303 128.657 242.303 128.134 239.869 127.231 233.465 127.231" fill="#dce0e3"/><polygon points="233.465 127.231 235.764 128.134 242.302 128.134 239.868 127.231 233.465 127.231" fill="#f8f9fb"/><polygon points="277.101 128.42 277.101 128.982 279.299 129.845 282.992 129.845 282.992 129.323 280.558 128.42 277.101 128.42" fill="#dce0e3"/><polygon points="277.101 128.42 279.4 129.323 282.992 129.323 280.558 128.42 277.101 128.42" fill="#f8f9fb"/><polygon points="272.536 128.42 272.536 128.982 274.733 129.845 278.426 129.845 278.426 129.323 275.992 128.42 272.536 128.42" fill="#dce0e3"/><polygon points="272.536 128.42 274.834 129.323 278.426 129.323 275.992 128.42 272.536 128.42" fill="#f8f9fb"/><polygon points="267.924 128.42 267.924 128.982 270.122 129.845 273.815 129.845 273.815 129.323 271.38 128.42 267.924 128.42" fill="#dce0e3"/><polygon points="267.924 128.42 270.223 129.323 273.815 129.323 271.38 128.42 267.924 128.42" fill="#f8f9fb"/><polygon points="263.312 128.42 263.312 128.982 265.51 129.845 269.203 129.845 269.203 129.323 266.769 128.42 263.312 128.42" fill="#dce0e3"/><polygon points="263.312 128.42 265.611 129.323 269.203 129.323 266.769 128.42 263.312 128.42" fill="#f8f9fb"/><polygon points="258.701 128.42 258.701 128.982 260.898 129.845 264.591 129.845 264.591 129.323 262.157 128.42 258.701 128.42" fill="#dce0e3"/><polygon points="258.701 128.42 260.999 129.323 264.591 129.323 262.157 128.42 258.701 128.42" fill="#f8f9fb"/><polygon points="254.089 128.42 254.089 128.982 256.287 129.845 259.98 129.845 259.98 129.323 257.545 128.42 254.089 128.42" fill="#dce0e3"/><polygon points="254.089 128.42 256.388 129.323 259.98 129.323 257.545 128.42 254.089 128.42" fill="#f8f9fb"/><polygon points="249.477 128.42 249.477 128.942 251.675 129.845 255.368 129.845 255.368 129.323 252.934 128.42 249.477 128.42" fill="#dce0e3"/><polygon points="249.477 128.42 251.776 129.323 255.368 129.323 252.934 128.42 249.477 128.42" fill="#f8f9fb"/><polygon points="244.934 128.42 244.934 128.982 247.131 129.845 250.824 129.845 250.824 129.323 248.39 128.42 244.934 128.42" fill="#dce0e3"/><polygon points="244.934 128.42 247.232 129.323 250.824 129.323 248.39 128.42 244.934 128.42" fill="#f8f9fb"/><polygon points="236.332 128.42 236.332 128.982 238.501 129.867 246.297 129.845 246.297 129.323 243.863 128.42 236.332 128.42" fill="#dce0e3"/><polygon points="236.332 128.42 238.631 129.323 246.297 129.323 243.863 128.42 236.332 128.42" fill="#f8f9fb"/><polygon points="281.504 129.608 281.504 130.171 283.702 131.034 290.04 131.034 290.04 130.512 287.606 129.608 281.504 129.608" fill="#dce0e3"/><polygon points="281.504 129.608 283.803 130.512 290.04 130.512 287.606 129.608 281.504 129.608" fill="#f8f9fb"/><polygon points="276.87 129.608 276.87 130.171 279.067 131.034 282.761 131.034 282.761 130.512 280.326 129.608 276.87 129.608" fill="#dce0e3"/><polygon points="276.87 129.608 279.169 130.512 282.761 130.512 280.326 129.608 276.87 129.608" fill="#f8f9fb"/><polygon points="272.281 129.608 272.281 130.171 274.479 131.034 278.172 131.034 278.172 130.512 275.737 129.608 272.281 129.608" fill="#dce0e3"/><polygon points="272.281 129.608 274.58 130.512 278.172 130.512 275.737 129.608 272.281 129.608" fill="#f8f9fb"/><polygon points="254.873 129.608 254.873 130.171 257.07 131.034 273.55 131.034 273.55 130.512 271.116 129.608 254.873 129.608" fill="#dce0e3"/><polygon points="254.873 129.608 257.172 130.512 273.55 130.512 271.116 129.608 254.873 129.608" fill="#f8f9fb"/><polygon points="250.237 129.608 250.237 130.131 252.435 131.034 256.128 131.034 256.128 130.512 253.693 129.608 250.237 129.608" fill="#dce0e3"/><polygon points="250.237 129.608 252.536 130.512 256.128 130.512 253.693 129.608 250.237 129.608" fill="#f8f9fb"/><polygon points="245.717 129.608 245.717 130.171 247.914 131.034 251.607 131.034 251.607 130.512 249.173 129.608 245.717 129.608" fill="#dce0e3"/><polygon points="245.717 129.608 248.016 130.512 251.607 130.512 249.173 129.608 245.717 129.608" fill="#f8f9fb"/><polygon points="239.277 129.608 239.277 130.171 241.446 131.056 247.055 131.034 247.055 130.512 244.621 129.608 239.277 129.608" fill="#dce0e3"/><polygon points="239.277 129.608 241.576 130.512 247.055 130.512 244.621 129.608 239.277 129.608" fill="#f8f9fb"/><path d="M281.48131,84.909l-1.07506-.01932.11636-6.47571c.27742.10331.5596.205.851.30275l.00547-.30469a31.28361,31.28361,0,0,1-5.8115-2.70977l.01717-.95577-.62735-.01127.0044-.24516a.5636.5636,0,0,0-.55254-.57376l-.01065.00077a.56265.56265,0,0,0-.56314.55275l-.00441.24516-.62737-.01127-.01665.92669a28.25648,28.25648,0,0,1-13.66947,3.6099l-.12715-.002a26.27514,26.27514,0,0,1-11.38086-2.9006l.00008-.0044-.00905-.00016c-.77011-.38639-1.44863-.76562-2.03175-1.1052l.0182-1.01327-.62638-.01125.0044-.24516a.56327.56327,0,1,0-1.12635-.02024l-.00441.24516-.62736-.01127-.018,1.002a32.01162,32.01162,0,0,1-5.91043,2.45268l-.00546.30383q.54292-.1589,1.05549-.33154l-.11751,6.53985-1.23312-.02216-.0172.95714.18391.0033-.02506,1.3946a7.21579,7.21579,0,0,1,5.79858,3.43782l.006.00011-.05487,3.05414-.38895-.007-.3857,1.79947,3.86549.06946-.31211-1.812-.39863-.00716.05492-3.05612.00042-.00081c.01288-.01788.03722-.05507.07164-.1088q.02364-.03512.05578-.07844l.00715-.011c.02432-.03441.05146-.07154.08286-.1128.10276-.13473.23823-.3051.40746-.493.02845-.03294.0597-.06582.091-.1001.08955-.096.18608-.19457.29382-.29576.02549-.02323.04961-.04649.07512-.06973.05958-.05885.12189-.11348.1856-.16948.02833-.02457.05661-.04775.08492-.07233.04248-.03687.08633-.07232.13016-.10777a7.25469,7.25469,0,0,1,4.78776-1.65883l.007.00013a7.79176,7.79176,0,0,1,6.1639,3.50431l-.05488,3.05391-.39985-.00718-.3863,1.79924,3.86476.06944-.31169-1.81178-.411-.00739.05487-3.05391.01811.00033a7.68348,7.68348,0,0,1,1.50295-1.58407,7.11188,7.11188,0,0,1,4.64388-1.64052c.04041.00073.07942.00143.11841.00353a8.27832,8.27832,0,0,1,6.13281,3.44366L272.866,93.4955l-.388-.007-.38629,1.7994,3.86525.06945-.31166-1.81194-.39825-.00716.05488-3.05421h.00005c.00575-.00965.01719-.02617.03294-.04818l.02576-.03856c.01-.01515.02288-.033.03721-.05369a.41508.41508,0,0,1,.03291-.04818c.01857-.02475.03855-.05087.06-.08115.0829-.11418.19276-.25576.33359-.41489.03416-.03981.06974-.081.10814-.12349.074-.08368.155-.17142.2458-.26177.04263-.04522.08945-.09177.13764-.13689.04258-.04244.088-.08622.1347-.12858.10627-.097.21814-.19538.3384-.295a6.8082,6.8082,0,0,1,4.43125-1.59695l.025-1.3946.21875.00393Zm-1.2464-6.60261-.1182,6.57809-2.63592-.04737.13814-7.68835C278.40061,77.53931,279.27282,77.93609,280.23491,78.30637Zm-2.903-1.30208-.14065,7.8276-1.78716-.03211.15751-8.76594C276.0794,76.33472,276.66933,76.66508,277.33189,77.00429Zm-4.15082-1.0433-.158,8.796-1.75274-.03149.14166-7.8843C272.07827,76.53217,272.66838,76.23217,273.18107,75.961Zm-2.06118,1.01407-.13916,7.74524-2.63591-.04736.11928-6.63858C269.43935,77.697,270.32805,77.33315,271.11989,76.97506Zm-2.94724,1.15944-.11739,6.53324-2.63591-.04736.10316-5.7412C266.46123,78.66479,267.34691,78.41043,268.17265,78.1345Zm-2.94094.80862-.10192,5.67205-2.6359-.04736.09326-5.19057A26.07987,26.07987,0,0,0,265.23171,78.94312Zm-2.93473.464-.09264,5.1555-1.59748-.0287.0167-.92928-.64366-.01157.00348-.19365a.55227.55227,0,0,0-.38526-.54172l.05979-3.3279A24.85971,24.85971,0,0,0,262.297,79.40711Zm-2.92866.1202-.05949,3.31092a.56289.56289,0,0,0-.45118.541l-.00348.19365-.58653-.01054-.0167.92928-1.60808-.0289.09206-5.12318A25.21943,25.21943,0,0,0,259.36832,79.52731Zm-2.92235-.2259-.09265,5.15607-2.63592-.04736.10073-5.60611A25.56168,25.56168,0,0,0,256.446,79.30141Zm-2.91618-.56961-.10194,5.67311-2.6359-.04736.11577-6.44325A26.85147,26.85147,0,0,0,253.52979,78.7318ZM250.62,77.80559l-.11763,6.54676-2.636-.04736.13739-7.6465C248.78619,77.04672,249.66,77.43958,250.62,77.80559Zm-2.90331-1.29145-.13989,7.78564-1.77045-.03181.15649-8.70933C246.47884,75.85678,247.06287,76.18156,247.71671,76.51414ZM243.583,75.50466l-.15669,8.72055-1.60029-.02876.1418-7.89191C242.56813,76.02582,243.10766,75.754,243.583,75.50466Zm-4.563,1.99493c.97545-.338,1.86427-.70279,2.65584-1.06115l-.1393,7.75281-2.63593-.04736Z" fill="#c0beb7"/><path d="M266.83,84.6647l-.04225,2.35174c-.039-.0021-.078-.0028-.11841-.00352a7.11182,7.11182,0,0,0-4.64388,1.64051,7.68375,7.68375,0,0,0-1.50295,1.58407l-.01811-.00033-.05488,3.05391.411.00739.3117,1.81178-3.86477-.06944.38631-1.79924.39985.00718.05487-3.05391a7.79173,7.79173,0,0,0-6.16389-3.50431l-.007-.00012.04117-2.29184,6.23183.112.0167-.92928.58653.01054.00348-.19365a.563.563,0,1,1,1.12572.02023l-.00347.19365.64366.01156-.0167.92928Z" fill="#f7706c" opacity="0.45"/><path d="M259.43029,82.84541a.5614.5614,0,0,1,.55274.573l-.00347.19365.64366.01156-.0167.92928,6.22347.11182-.04225,2.35174c-.039-.0021-.078-.0028-.11841-.00352l-.0098-.00019a7.11253,7.11253,0,0,0-4.63408,1.6407,7.68411,7.68411,0,0,0-1.50295,1.58406l-.01811-.00032-.05488,3.05391.411.00739.3117,1.81178-3.86477-.06944.38631-1.79924.39985.00718.05487-3.05391a7.79175,7.79175,0,0,0-6.16389-3.50431l-.007-.00012.04117-2.29184,6.23183.112.0167-.92928.58653.01054.00348-.19365a.56318.56318,0,0,1,.573-.55275Zm.00751-.418a.9827.9827,0,0,0-.96854.73935l-.19445-.00349-.418-.00751-.00751.418-.00918.51131-5.81387-.10446-.418-.00751-.00751.418-.04118,2.29184-.00751.418.418.00751.007.00013a7.35756,7.35756,0,0,1,5.75114,3.20713l-.04506,2.50765-.32589-.00585-.07222.33639-.38631,1.79924-.10662.49659.50782.00913,3.86477.06944.50514.00907-.08566-.49791-.3117-1.81179-.05864-.34087-.33884-.00609.04459-2.482a7.46256,7.46256,0,0,1,1.36753-1.4192A6.744,6.744,0,0,1,266.652,87.4307l.00905.00017.01386.00024c.031.00056.0607.00116.09039.00276l.4326.02323.00778-.43315.04226-2.35174.00751-.418-.418-.00751-5.80551-.10431.00919-.51132.00751-.418-.418-.00751-.25142-.00452a.9793.9793,0,0,0-.94151-.77367Z" fill="#f7706c" opacity="0.85"/><path d="M259.36133,81.165c-.09571-.0791-2.33936-1.96-2.30957-3.63281a2.50284,2.50284,0,0,1,5.00488.08984c-.03027,1.66992-2.33887,3.47168-2.4375,3.54688l-.13037.10156Z" fill="#fff"/><path d="M259.55382,75.28162l.0421.00036a2.29622,2.29622,0,0,1,2.254,2.33643c-.02855,1.58911-2.35682,3.38782-2.35682,3.38782s-2.26314-1.87745-2.23452-3.47034a2.2961,2.2961,0,0,1,2.29528-2.25427m0-.41285a2.709,2.709,0,0,0-2.70806,2.65967c-.03181,1.771,2.28508,3.71375,2.38372,3.79553l.25441.21106.26158-.20214c.10147-.07837,2.48543-1.94019,2.51719-3.707a2.70907,2.70907,0,0,0-2.65934-2.75671h-.0037l-.0458-.00037Z" fill="#dce0e3"/><circle cx="259.55411" cy="77.58272" r="1.90638" fill="#f7706c"/><path d="M259.14192,78.63061a.10076.10076,0,0,1-.07354.12206l-.00057.00014a.10179.10179,0,0,1-.12325-.07354l-.54045-2.153a.10075.10075,0,0,1,.07353-.12205l.00059-.00015a.10178.10178,0,0,1,.12324.07354Zm1.58778-1.31923h0l-.00859-.03411c-.475-.08185-.83175-.16688-.83175-.16688a1.647,1.647,0,0,0,.64523-.57383l-.01116-.04431a.0754.0754,0,0,0-.04739-.05.09956.09956,0,0,0-.07586.00189,1.80847,1.80847,0,0,1-.53754.13794l-.02348-.09445a.08086.08086,0,0,0-.07232-.05627,3.70544,3.70544,0,0,0-.991.11684L259.032,77.575a1.94785,1.94785,0,0,1,.45449-.17475l.0411.15415a.08121.08121,0,0,0,.07288.05536c.0377.0037.07669.006.11583.00672a2.393,2.393,0,0,0,.974-.2297A.06686.06686,0,0,0,260.7297,77.31138Z" fill="#fff"/><path d="M264.80966,93.45592a.20506.20506,0,0,1-.19179-.12921l-.56435-1.34627-.83668.33229a.174.174,0,0,1-.09154.02376.19746.19746,0,0,1-.1043-.02984.22231.22231,0,0,1-.0956-.18136V88.49583a.2176.2176,0,0,1,.36445-.15528l2.60158,2.59028.03708.0617a.21425.21425,0,0,1-.11994.279l-.83436.33114.56319,1.35583a.21683.21683,0,0,1-.11878.27986l-.53074.21757Z"/><path d="M263.1429,88.35763a.143.143,0,0,1,.097.03773l2.58829,2.5775a.14.14,0,0,1-.04668.22975l-.90461.359.59231,1.42516a.14361.14361,0,0,1-.079.18308l-.517.2118h-.05744l-.00626.00015a.13277.13277,0,0,1-.123-.08272l-.59234-1.41439-.90461.359a.12207.12207,0,0,1-.12925,0,.147.147,0,0,1-.061-.11846V88.49588a.14358.14358,0,0,1,.14352-.13825Zm0-.14833a.29188.29188,0,0,0-.29174.28108l-.00011,3.63482a.2967.2967,0,0,0,.12255.23874.277.277,0,0,0,.15141.04656.2701.2701,0,0,0,.14315-.041l.74538-.29361.53625,1.28047a.27947.27947,0,0,0,.25976.17375l.0637-.00015h.02922l.027-.01107.517-.2118a.29114.29114,0,0,0,.16154-.3726l-.53628-1.29064.7645-.30338a.28834.28834,0,0,0,.09615-.47321l-2.58782-2.577a.29444.29444,0,0,0-.20163-.081Z" fill="#fff"/><path d="M278.93536,75.73653l-3.81161,6.66181a2.21219,2.21219,0,0,0,.63639,2.90025l5.47866,3.90375Z" fill="#7b5a3f"/><ellipse cx="296.16943" cy="78.61893" rx="23.40782" ry="18.46617" transform="translate(210.92129 372.94872) rotate(-88.7136)" fill="#a47854"/><path d="M284.14484,162.56324c0,11.91571,35.31185,11.8038,35.31193,2.20183.00036-55.9227-9.91059-61.75316-10.09722-61.87238-6.12256-4.17586-12.49726-3.01167-17.29685-.84022a20.60486,20.60486,0,0,0-7.08422,5.32882C284.96578,107.3926,284.14484,162.56324,284.14484,162.56324Z" fill="#73c7c1"/><path d="M252.09685,139.28509c-1.08025-.14728-6.79044-1.18809-8.935-5.31647-2.35324-4.53008-7.99589-4.43021-7.48967-7.179.58949-3.201,7.10581-3.504,11.26136-3.24021,6.82529.43322,9.3689,5.68539,10.15379,6.62482a19.038,19.038,0,0,1,2.86208,4.6622,8.33781,8.33781,0,0,0-7.85255,4.4487Z" fill="#a47854"/><path d="M254.074,125.6959a9.3475,9.3475,0,0,0-2.17247,16.86332l21.14024,4.24586a8.58286,8.58286,0,0,0,10.14353-6.66632v0a8.58285,8.58285,0,0,0-6.6663-10.14353Z" fill="#73c7c1"/><path d="M280.197,100.946h6.13834a5.51369,5.51369,0,0,1,5.51369,5.51369v37.27722a5.51369,5.51369,0,0,1-5.51369,5.51369H280.197a5.51369,5.51369,0,0,1-5.51369-5.51369V106.45966A5.5137,5.5137,0,0,1,280.197,100.946Z" transform="translate(459.55525 379.67921) rotate(-148.52895)" fill="#73c7c1"/></g><path d="M265.86237,32.36853a63.081,63.081,0,1,1-63.08093,63.08093,63.081,63.081,0,0,1,63.08093-63.08093m0-2.479a65.56,65.56,0,1,0,65.56,65.55993,65.63416,65.63416,0,0,0-65.56-65.55993Z" fill="#f7706c"/><path d="M296.45849,26.8083a7.62376,7.62376,0,0,0-4.683,13.63963l.93388,3.8094a2.26766,2.26766,0,0,0,1.37928,1.56952.50382.50382,0,0,0-.2846.4506v2.64647a1.24326,1.24326,0,0,0,.16418.61926,1.21955,1.21955,0,0,0,.21208.2758,1.24571,1.24571,0,0,0,.87668.35788h.04641a1.39982,1.39982,0,0,0,2.71023,0h.04675a1.25254,1.25254,0,0,0,1.25226-1.25294V46.27745a.49243.49243,0,0,0-.268-.44241,2.26836,2.26836,0,0,0,1.3992-1.58471l.92424-3.8227a7.624,7.624,0,0,0-4.7095-13.61933Z" fill="none" stroke="#fff" stroke-miterlimit="10" stroke-width="1.39771"/><circle cx="296.45864" cy="49.28079" r="1.40677" fill="#9ba5ae"/><path d="M304.08237,33.89386a7.62373,7.62373,0,1,0-12.30679,6.01589l.93391,3.80945a2.272,2.272,0,0,0,2.20662,1.731h3.11943a2.272,2.272,0,0,0,2.20835-1.738l.92426-3.82278A7.61032,7.61032,0,0,0,304.08237,33.89386Z" fill="#ffdb86"/><path d="M302.91131,33.92521A6.45267,6.45267,0,1,0,292.49493,39.017l7.94981-.01724A6.44135,6.44135,0,0,0,302.91131,33.92521Z" fill="url(#becd6322-8cbe-4ef8-9d85-5001cc82956a)"/><g opacity="0.75"><path d="M295.07449,41.17152a.32844.32844,0,0,1-.31366-.23176l-2.12011-6.884a.32834.32834,0,0,1,.5501-.32462l1.7978,1.86379,1.16388-2.98329a.32849.32849,0,0,1,.30391-.209h.002a.32833.32833,0,0,1,.30442.20528l1.20743,2.98605,1.75367-1.86007a.32832.32832,0,0,1,.55453.31558l-1.97082,6.884a.32832.32832,0,0,1-.63129-.18071l1.59919-5.586-1.17882,1.25032a.32831.32831,0,0,1-.5433-.10215l-1.08956-2.69452-1.04979,2.6908a.32839.32839,0,0,1-.54221.10863l-1.19864-1.24269,1.7152,5.56935a.32855.32855,0,0,1-.31391.425Z" fill="#fff"/></g><path d="M299.11277,45.7393v2.64643a1.2526,1.2526,0,0,1-1.25228,1.25295h-2.80337a1.2458,1.2458,0,0,1-.87668-.35789,1.21982,1.21982,0,0,1-.21211-.27581,1.24341,1.24341,0,0,1-.16417-.61925V45.7393a.50754.50754,0,0,1,.50762-.50761h4.29338a.50648.50648,0,0,1,.50761.50761Z" fill="#c7ccd1"/><path d="M299.11277,45.7393v.13L293.80416,47.622V47.2766l5.26725-1.7389A.50355.50355,0,0,1,299.11277,45.7393Z" fill="#9ba5ae"/><path d="M299.11277,47.3068v.34542l-4.93233,1.62857a1.21982,1.21982,0,0,1-.21211-.27581Z" fill="#9ba5ae"/></g></g></svg>