<?xml version="1.0" encoding="utf-8"?>
<!-- Generator: Adobe Illustrator 26.5.0, SVG Export Plug-In . SVG Version: 6.00 Build 0)  -->
<svg version="1.1" id="Layer_1" xmlns="http://www.w3.org/2000/svg" xmlns:xlink="http://www.w3.org/1999/xlink" x="0px" y="0px"
	 viewBox="0 0 2247.8 2000" style="enable-background:new 0 0 2247.8 2000;" xml:space="preserve">
<style type="text/css">
	.st0{opacity:0.5;fill-rule:evenodd;clip-rule:evenodd;fill:#D6E6FF;}
	.st1{opacity:0.5;fill-rule:evenodd;clip-rule:evenodd;fill:#A1C3FF;}
	.st2{fill-rule:evenodd;clip-rule:evenodd;fill:#DEEEFF;}
	.st3{fill-rule:evenodd;clip-rule:evenodd;fill:#A2C5FF;}
	.st4{fill-rule:evenodd;clip-rule:evenodd;fill:url(#SVGID_1_);}
	.st5{fill-rule:evenodd;clip-rule:evenodd;fill:#F4F9FF;}
	.st6{fill-rule:evenodd;clip-rule:evenodd;fill:#DCE9FF;}
	.st7{opacity:0.5;fill-rule:evenodd;clip-rule:evenodd;fill:#A2C5FF;}
	.st8{fill-rule:evenodd;clip-rule:evenodd;fill:url(#SVGID_00000109025637603396636650000001082813621767212707_);}
	.st9{fill-rule:evenodd;clip-rule:evenodd;fill:url(#SVGID_00000111160170033316834490000012307349404198774973_);}
	.st10{fill-rule:evenodd;clip-rule:evenodd;fill:url(#SVGID_00000150815514720442379870000018079393491254964398_);}
	.st11{fill-rule:evenodd;clip-rule:evenodd;fill:url(#SVGID_00000008114481637179037200000006602879181825477009_);}
	.st12{opacity:0.5;fill-rule:evenodd;clip-rule:evenodd;fill:url(#SVGID_00000166655489046292285250000008803084126374607250_);}
	.st13{fill-rule:evenodd;clip-rule:evenodd;fill:#3E4794;}
	.st14{fill-rule:evenodd;clip-rule:evenodd;fill:#FF8978;}
	.st15{fill-rule:evenodd;clip-rule:evenodd;fill:#1C236C;}
	.st16{fill-rule:evenodd;clip-rule:evenodd;fill:url(#SVGID_00000022544490020947038050000002035119414357617588_);}
	.st17{fill-rule:evenodd;clip-rule:evenodd;fill:#22043D;}
	.st18{fill-rule:evenodd;clip-rule:evenodd;fill:url(#SVGID_00000124869910115852416470000000467944931707074185_);}
	.st19{fill-rule:evenodd;clip-rule:evenodd;fill:url(#SVGID_00000139266745184741691420000006852629651221786778_);}
	.st20{opacity:0.5;fill-rule:evenodd;clip-rule:evenodd;fill:#7E41DF;}
	.st21{fill-rule:evenodd;clip-rule:evenodd;fill:url(#SVGID_00000090996246764540234540000013830277169322825856_);}
	.st22{opacity:0.3;fill-rule:evenodd;clip-rule:evenodd;fill:#1E2353;}
	.st23{fill-rule:evenodd;clip-rule:evenodd;fill:url(#SVGID_00000163786762314150268480000015265953678982352260_);}
	.st24{fill-rule:evenodd;clip-rule:evenodd;fill:#FFA698;}
	.st25{fill-rule:evenodd;clip-rule:evenodd;fill:#273087;}
	.st26{fill-rule:evenodd;clip-rule:evenodd;fill:url(#SVGID_00000029037380175968779320000015193699468453846912_);}
	.st27{fill-rule:evenodd;clip-rule:evenodd;fill:url(#SVGID_00000115490924250576076330000010587974349925444236_);}
	.st28{fill-rule:evenodd;clip-rule:evenodd;fill:url(#SVGID_00000051351634155846601350000006597250940334062236_);}
	.st29{fill-rule:evenodd;clip-rule:evenodd;fill:url(#SVGID_00000054240651314820252670000013218851024695221167_);}
	.st30{fill-rule:evenodd;clip-rule:evenodd;fill:url(#SVGID_00000134235512961839954590000009856937326679304629_);}
	.st31{fill-rule:evenodd;clip-rule:evenodd;fill:#FF8F7F;}
	.st32{opacity:0.5;fill-rule:evenodd;clip-rule:evenodd;fill:url(#SVGID_00000078735292439524388750000014799225189813956739_);}
	.st33{opacity:0.5;fill-rule:evenodd;clip-rule:evenodd;fill:url(#SVGID_00000010295967866684996960000015994943146824222117_);}
	.st34{opacity:0.5;fill-rule:evenodd;clip-rule:evenodd;fill:url(#SVGID_00000161597031167351103520000013572688214956852870_);}
	.st35{opacity:0.5;fill-rule:evenodd;clip-rule:evenodd;fill:url(#SVGID_00000015339379871913094800000009448786450072546188_);}
	.st36{opacity:0.5;fill-rule:evenodd;clip-rule:evenodd;fill:url(#SVGID_00000132766669598737313580000005080773819024226704_);}
	.st37{opacity:0.5;fill-rule:evenodd;clip-rule:evenodd;fill:url(#SVGID_00000015312496941978093150000008865038974606277000_);}
	.st38{opacity:0.5;fill-rule:evenodd;clip-rule:evenodd;fill:#FFFFFF;}
	.st39{fill-rule:evenodd;clip-rule:evenodd;fill:url(#SVGID_00000140704320412770426720000017051845022826088634_);}
	.st40{opacity:0.3;fill-rule:evenodd;clip-rule:evenodd;fill:#1994F0;}
	.st41{fill-rule:evenodd;clip-rule:evenodd;fill:#F2F4FF;}
	.st42{fill-rule:evenodd;clip-rule:evenodd;fill:#C5DBF1;}
	.st43{fill-rule:evenodd;clip-rule:evenodd;fill:#DCE8F8;}
	.st44{fill-rule:evenodd;clip-rule:evenodd;fill:url(#SVGID_00000153672685913690679040000015921739150679210931_);}
	.st45{fill-rule:evenodd;clip-rule:evenodd;fill:#147CF0;}
	.st46{fill-rule:evenodd;clip-rule:evenodd;fill:#00CEDC;}
	.st47{fill-rule:evenodd;clip-rule:evenodd;fill:url(#SVGID_00000048501133337854010940000003576790515371646346_);}
	.st48{fill-rule:evenodd;clip-rule:evenodd;fill:url(#SVGID_00000008126779323471455540000012651034422676797110_);}
	.st49{fill-rule:evenodd;clip-rule:evenodd;fill:url(#SVGID_00000048467415173840030620000000593109557263380098_);}
	.st50{fill-rule:evenodd;clip-rule:evenodd;fill:#FFFFFF;}
	.st51{opacity:0.5;fill-rule:evenodd;clip-rule:evenodd;fill:url(#SVGID_00000006705294110744220880000016155347728995104906_);}
	.st52{fill-rule:evenodd;clip-rule:evenodd;fill:url(#SVGID_00000129899962430747058570000007119601773908725674_);}
	.st53{opacity:0.7;fill-rule:evenodd;clip-rule:evenodd;fill:#FFFFFF;}
	.st54{opacity:0.5;fill-rule:evenodd;clip-rule:evenodd;fill:url(#SVGID_00000063603674339937042230000017348168658673415604_);}
	.st55{fill-rule:evenodd;clip-rule:evenodd;fill:#FF89DB;}
	.st56{fill-rule:evenodd;clip-rule:evenodd;fill:#D0E7FF;}
	.st57{fill-rule:evenodd;clip-rule:evenodd;fill:url(#SVGID_00000183961574801587755630000000040271333129115831_);}
	.st58{fill-rule:evenodd;clip-rule:evenodd;fill:url(#SVGID_00000063625822600702652040000000547776012357214621_);}
	.st59{fill-rule:evenodd;clip-rule:evenodd;fill:#562E65;}
	.st60{fill-rule:evenodd;clip-rule:evenodd;fill:url(#SVGID_00000093860923120769453240000013723219600172558723_);}
	.st61{fill-rule:evenodd;clip-rule:evenodd;fill:url(#SVGID_00000118397249709475721640000001882601541652142481_);}
	.st62{fill-rule:evenodd;clip-rule:evenodd;fill:#3FAFF6;}
	.st63{fill-rule:evenodd;clip-rule:evenodd;fill:#0A080D;}
	.st64{fill-rule:evenodd;clip-rule:evenodd;fill:url(#SVGID_00000133519822923070213740000004463315354200751269_);}
	.st65{fill-rule:evenodd;clip-rule:evenodd;fill:url(#SVGID_00000125595147429778463840000016600594048269447566_);}
	.st66{fill-rule:evenodd;clip-rule:evenodd;fill:url(#SVGID_00000047050998179366851730000007487283357678906763_);}
	.st67{fill-rule:evenodd;clip-rule:evenodd;fill:#894EE8;}
	.st68{fill-rule:evenodd;clip-rule:evenodd;fill:url(#SVGID_00000059277073380433340680000016553178207909605547_);}
	.st69{fill-rule:evenodd;clip-rule:evenodd;fill:url(#SVGID_00000085226810507827456360000015675830424729241505_);}
	.st70{opacity:0.5;fill-rule:evenodd;clip-rule:evenodd;fill:url(#SVGID_00000058548167859014124510000006429242892534995077_);}
	.st71{opacity:0.5;fill-rule:evenodd;clip-rule:evenodd;fill:url(#SVGID_00000049912920989256592250000002587491749824580543_);}
	.st72{opacity:0.5;fill-rule:evenodd;clip-rule:evenodd;fill:url(#SVGID_00000101826185835121578120000010641770142286834076_);}
	.st73{fill-rule:evenodd;clip-rule:evenodd;fill:url(#SVGID_00000129884029708762667520000003444226296446653848_);}
	.st74{opacity:0.5;fill-rule:evenodd;clip-rule:evenodd;fill:url(#SVGID_00000030466686313935078570000007542972246294299538_);}
	.st75{fill-rule:evenodd;clip-rule:evenodd;fill:#4A9FF8;}
	.st76{fill-rule:evenodd;clip-rule:evenodd;fill:url(#SVGID_00000006705788093027139300000001907745505448150460_);}
	.st77{fill-rule:evenodd;clip-rule:evenodd;fill:#0A3C5F;}
	.st78{fill-rule:evenodd;clip-rule:evenodd;fill:#1466A0;}
	.st79{fill-rule:evenodd;clip-rule:evenodd;fill:#DAEAFA;}
	.st80{fill-rule:evenodd;clip-rule:evenodd;fill:#B4CCE5;}
	.st81{fill-rule:evenodd;clip-rule:evenodd;fill:url(#SVGID_00000058584191566442033470000006546598022883224740_);}
	.st82{fill-rule:evenodd;clip-rule:evenodd;fill:url(#SVGID_00000154402171727934079200000011587512511634265262_);}
	.st83{fill-rule:evenodd;clip-rule:evenodd;fill:url(#SVGID_00000036247519309668608600000012469666738167284140_);}
	.st84{fill-rule:evenodd;clip-rule:evenodd;fill:url(#SVGID_00000160173804890424415910000013146469041153417875_);}
	.st85{fill-rule:evenodd;clip-rule:evenodd;fill:url(#SVGID_00000138566221461172532590000017032864882026963888_);}
	.st86{fill-rule:evenodd;clip-rule:evenodd;fill:url(#SVGID_00000044148227806585531580000005854946756569860027_);}
	.st87{fill-rule:evenodd;clip-rule:evenodd;fill:url(#SVGID_00000002373297529869353630000016498171910761488315_);}
	.st88{fill-rule:evenodd;clip-rule:evenodd;fill:url(#SVGID_00000078036143194730920200000015704659353753574328_);}
	.st89{fill-rule:evenodd;clip-rule:evenodd;fill:url(#SVGID_00000080205511305890285250000011792766573127774117_);}
	.st90{fill-rule:evenodd;clip-rule:evenodd;fill:url(#SVGID_00000109732382132358901120000011070975756017798793_);}
</style>
<g>
	<g>
		<g>
			<path class="st0" d="M1995.4,443.2c-15-45.2-116.7-156.7-148.4-91.3C1815.4,417.3,1940.5,389.7,1995.4,443.2L1995.4,443.2z
				 M1977,929.2c0.9-3,2.3-6.2,3.9-9.7c-43.1-60.3-161.7-67.5-115.6-120.7c44.3-51.1,107.4,61.6,118.1,115.7
				c26.6-50.7,111.4-137.3,140.8-78.6c31.1,62.1-82.1,41.2-139.6,86.5c0.1,1,0.2,2,0.3,3c-0.4-0.7-0.9-1.4-1.3-2.1
				C1981.3,925.2,1979.1,927.1,1977,929.2L1977,929.2z M2003,801.7c2-2.4,4.2-4.7,6.4-6.8c0.4,0.5,0.7,1,1.1,1.5
				c-0.1-0.7-0.2-1.4-0.4-2.2c53.3-50,167.6-39.3,131.2-98.3c-34.4-55.8-110.8,37.3-133.1,90.3c-15.1-52.8-88.3-160.4-128-105.4
				c-41.3,57.2,77.9,53.7,126.1,110.3C2004.8,794.8,2003.7,798.4,2003,801.7L2003,801.7z M2018,674.1c0.1-3.2,0.6-6.8,1.3-10.6
				c-56.3-49.9-176.6-24.4-145.5-88.6c30.4-62.7,125.2,37.3,146.1,85.5c11.5-55.3,71.8-164.2,116-114.5
				C2184.2,600.1,2056.3,607.7,2018,674.1L2018,674.1z M1877.7,210.8c-15-45.2-116.7-156.7-148.4-91.3
				C1697.7,184.9,1822.7,157.3,1877.7,210.8L1877.7,210.8z M1954.2,329.1c-18.7-43.8-16.1-194.7,50.9-166.6
				C2072.1,190.6,1960.1,252.6,1954.2,329.1L1954.2,329.1z M1993.6,437.7c-6.8-47.1,34.4-192.3,91.9-148
				C2143.1,334,2018.9,365.3,1993.6,437.7L1993.6,437.7z M2014.9,556.1c34.2-68.7,161.3-84.1,109.7-135.3
				C2073.1,369.6,2014.1,508.5,2014.9,556.1L2014.9,556.1z M2013.5,548.4c-55-53.5-180-25.9-148.4-91.3
				C1896.8,391.7,1998.5,503.2,2013.5,548.4L2013.5,548.4z M1955.8,335.1c-55-53.5-180-25.9-148.4-91.3
				C1839.1,178.4,1940.8,290,1955.8,335.1z"/>
			<path class="st1" d="M2002.5,863.7c5.4-26.6,9.9-53.5,13.5-80.6c19.1-23.9,61.9-69.7,117.1-81.8c-53.6,0.5-96.9,49.9-116.6,78
				c5.2-40.4,8.4-81.2,9-121.9c13.4-25.4,48.3-82.1,103.2-104.7c-55,10.2-89.7,71-103.1,100.9c0.5-37.8-1.2-75.3-5.2-112.2
				c10.9-24.8,42.5-86.6,97.6-113.3c-56.3,14.1-87.5,81.3-97.9,110.5c-4.6-40-12-79.1-22.8-116.8c7.9-26.3,31.5-90.9,82.5-124.1
				c-53.8,21-76.4,90.9-83.2,121.5c-10.9-37.6-25-73.7-42.8-107.7c1-28.3,7.7-95.3,47.8-139.8c-45.8,33.4-50.4,104.7-49.3,136.9
				c-26.1-49.2-60-94-102.8-132.4c-11.1-11.1-25.2-23.3-41.4-33.1c-2-1.4-4.1-2.9-6.1-4.3c1.1,0.8,2.1,1.7,3.2,2.5
				c-20-11.7-43-19.5-67-17.3c42.1,4.8,79.1,29.1,104,50.2c44.3,43.6,77.8,93,102.7,145.5c-19.8-24.3-71.2-76.7-128.7-71.4
				c62.1,7.1,113.2,56.7,130.7,75.7c15.4,33.2,27.4,67.6,36.6,102.4c-20.5-24.8-71.1-75.3-127.6-70.1c59.6,6.8,109,52.7,128.4,73.3
				c8.9,34.5,15,69.5,19,104.2c-19.3-23.9-71.2-77.6-129.4-72.2c60.8,7,111.1,54.7,129.6,74.5c4.2,37.8,5.7,75.3,5.3,111.7
				c-21.3-25.3-71-73.5-126.3-68.5c57.4,6.6,105.5,49.5,126.2,71c-0.6,43.8-3.9,85.9-8.8,124.6c-16.9-28.9-57.2-83.8-111.9-88.4
				c54.9,16.3,94.6,66.2,111.6,91.1c-3.7,29-8.3,56.1-13.3,80.7c-3,14.8-6.3,29.9-10,45.2c-14.2-30.2-49.5-88.8-103.8-98.1
				c53.4,21.1,88.5,74.5,103.1,100.8l-10.2,39.8l17.8-2.1c3-11.2,5.8-21.9,8.4-32.2c21.2-22.2,67.8-63.9,123.8-71.1
				c-53.2-4.2-100.6,40.9-122.8,67.1C1996.5,891.7,1999.8,877,2002.5,863.7z"/>
		</g>
		<g>
			<path class="st0" d="M244.4,1097.9c3.6-47.5,75.4-180.3,121.9-124.4C412.9,1029.3,284.9,1032.8,244.4,1097.9L244.4,1097.9z
				 M379.7,1565.1c-1.6-2.7-3.7-5.5-6.1-8.5c27.3-68.9,140.6-104.5,83-145c-55.3-38.9-89.3,85.7-86.6,140.8
				c-38-42.8-141.3-106.4-155.6-42.2c-15.2,67.8,89.6,20.1,156.3,50.3c0.1,1,0.3,2,0.5,3c0.2-0.8,0.5-1.6,0.8-2.4
				C374.6,1562.2,377.2,1563.6,379.7,1565.1L379.7,1565.1z M323.7,1447.6c-2.5-1.8-5.2-3.5-7.9-5.1c-0.2,0.6-0.5,1.1-0.7,1.7
				c-0.1-0.7-0.1-1.4-0.2-2.2c-63.8-35.7-172.1,2.3-151-63.7c19.9-62.4,116.6,9.5,151,55.4c1.9-54.9,46.9-177,98.7-133.2
				c53.8,45.5-62.6,71-95.7,137.5C320.2,1441.4,322.2,1444.6,323.7,1447.6L323.7,1447.6z M278.3,1327.5c-0.9-3.1-2.2-6.4-3.8-10
				c42.6-62,165.5-66.3,119.8-121.2c-44.6-53.5-112.5,66.5-121.1,118.2c-24.5-50.9-109.3-142-140.2-83.1
				C99.2,1295.8,225,1272.3,278.3,1327.5L278.3,1327.5z M302.5,843.9c3.6-47.5,75.4-180.3,121.9-124.4
				C471,775.3,343,778.8,302.5,843.9L302.5,843.9z M256.9,977.3c7.5-47-31.4-192.9-89.6-149.4C109,871.3,232.7,904.5,256.9,977.3
				L256.9,977.3z M244.9,1092.1c-4.8-47.4-79.8-178.3-125-121.4C74.8,1027.7,202.8,1028,244.9,1092.1L244.9,1092.1z M252.8,1212.2
				c-10.7-46.4-101.5-166.9-139.2-104.8C75.9,1169.6,203,1153.9,252.8,1212.2L252.8,1212.2z M252.3,1204.4
				c40.5-65.2,168.5-68.6,121.9-124.4C327.7,1024.1,256,1156.9,252.3,1204.4L252.3,1204.4z M256.8,983.5
				c40.5-65.2,168.5-68.6,121.9-124.4C332.2,803.2,260.4,936,256.8,983.5z"/>
			<path class="st1" d="M339.1,1507.7c-11.6-24.5-22.5-49.5-32.6-75c-24.3-18.6-76.9-52.7-133.4-51.1c52.1-12.4,106.1,25,132,47.5
				c-14.8-38-27.7-76.8-38.2-116.1c-19.1-21.4-66.7-68-125.4-76.7c55.8-3.3,104.2,47.2,124.5,73c-9.6-36.5-17.1-73.4-22-110.2
				c-16.5-21.4-62.1-73.7-122.1-86.4c58.1,0.1,104.6,57.7,121.7,83.6c-5.2-39.9-7.4-79.7-6.1-118.8c-14-23.7-52.5-80.5-110-100.5
				c57.3,7.4,96.1,69.8,110.1,97.8c1.5-39.1,6.5-77.5,15.5-114.8c-7.8-27.2-30.5-90.6-80.2-124.1c52.5,21.4,74.2,89.4,81,120.9
				c13.5-54.1,35.5-105.7,67.8-153.3c8.1-13.5,18.8-28.7,32.1-42.1c1.6-1.9,3.2-3.8,4.9-5.6c-0.8,1.1-1.6,2.1-2.5,3.2
				c16.6-16.2,37-29.3,60.9-33c-39.7,14.8-69.7,47.4-88.8,73.9c-32.5,53-53,109-64.5,166c13.3-28.4,50.6-91.6,107.6-100.3
				c-58.5,21.9-96.1,82.3-108.5,105c-6.9,35.9-10.3,72.2-10.7,108.2c13.9-29.1,50.8-90.2,106.9-98.8c-56.1,21-93,77.5-106.9,102.1
				c-0.3,35.6,2.2,71.1,6.8,105.7c12.9-27.9,50.3-92.5,108.1-101.3c-57.4,21.5-94.6,80-107.8,103.6c5.1,37.7,12.7,74.5,21.8,109.7
				c14.6-29.7,51.1-88.5,106-96.9c-54.1,20.3-90.4,73.5-105.3,99.4c11.1,42.4,24.5,82.4,38.6,118.8c9.5-32.2,35.3-95.2,87.3-112.8
				c-49.4,29.1-75.8,87-86.2,115.4c10.6,27.3,21.6,52.4,32.4,75.1c6.5,13.6,13.3,27.4,20.6,41.4c6.5-32.8,26.6-98.1,77-120.3
				c-46.7,33.4-67.9,93.6-75.8,122.7l19.6,36.2l-17.8,2.2c-5.6-10.1-11-19.9-15.9-29.2c-25.9-16.4-81.2-45.6-137.3-39.1
				c50.7-16.9,107.5,15.4,135.4,35.5C351.7,1533.5,344.9,1519.9,339.1,1507.7z"/>
		</g>
		<g>
			<path class="st2" d="M663.3,1752.4l-304-167.9c-10.1-4.6-24.9-9-34.8-2.9l-210.7,121.7c-5.2,3-21.8,13.4-10.6,19.5
				c32.9,17.9,273.8,155.5,307.3,173.7c6.3,3.4,15.6,4.7,25.3,3.9c9.7-0.8,19.7-3.4,27.4-8.2l197.4-114.4
				c7.1-4.4,11.1-9.2,11.5-13.8C672.4,1759.4,669.5,1755.2,663.3,1752.4z"/>
			<g>
				<polygon class="st3" points="349.2,1580.4 649,1754.7 639,1767.1 341,1585.1 				"/>
				<linearGradient id="SVGID_1_" gradientUnits="userSpaceOnUse" x1="316.871" y1="1800.1864" x2="359.5829" y2="1730.0177">
					<stop  offset="0" style="stop-color:#A3C6FF"/>
					<stop  offset="1" style="stop-color:#D7E7FF"/>
				</linearGradient>
				<path class="st4" d="M443.7,1823.5c-12.2,16.3-26.1,52.2-15.9,64.5l-299.9-174.3c-23.6-17.7,1.8-64.8,20.7-70L349,1528.1
					l299.9,174.3l-16.2,12.7L443.7,1823.5z"/>
				<g>
					<path class="st5" d="M447.9,1827.5l193.1-111l-0.2,42.8l-188,114.6c-14.4,8.4-23,3-24.6-6.8
						C426.3,1854.8,434.6,1835.3,447.9,1827.5z"/>
					<path class="st6" d="M427.7,1840.1c5.3-9.3,12.7-17.4,20.9-22.1l200.4-115.7l0,15.6l-8.2,4.7l-192.2,111
						c-4.4,2.5-8.4,6.9-11.3,11.9c-2.9,5.1-4.7,10.7-4.7,15.7c0,5,1.8,8.6,4.7,10.3c2.9,1.7,6.9,1.4,11.3-1.1l192.2-111l8.2-4.7
						l0.1,15.6l-200.4,115.7c-8.1,4.7-15.5,5.1-20.9,2.1c-5.3-3.1-8.7-9.7-8.7-19C419.1,1859.7,422.4,1849.3,427.7,1840.1z"/>
				</g>
			</g>
			<path class="st7" d="M349.7,1536.9L143,1647.5c-1.3,2-1.3,4,1.5,5.5c21.6,11.8,255.6,145.3,277.6,157.3
				c4.2,2.3,10.2,3.1,16.6,2.5c6.4-0.5,12.8-2.4,18-5.4l188.7-107l-21.1-12.4L349.7,1536.9z"/>
			<g>
				<polygon class="st3" points="349.2,1493.8 649,1668 639,1680.5 341,1498.5 				"/>
				
					<linearGradient id="SVGID_00000021833461344969209230000010883232508795597203_" gradientUnits="userSpaceOnUse" x1="320.5698" y1="1707.4736" x2="363.2818" y2="1637.3048">
					<stop  offset="0" style="stop-color:#A3C6FF"/>
					<stop  offset="1" style="stop-color:#D7E7FF"/>
				</linearGradient>
				<path style="fill-rule:evenodd;clip-rule:evenodd;fill:url(#SVGID_00000021833461344969209230000010883232508795597203_);" d="
					M443.7,1736.9c-12.2,16.3-26.1,52.2-15.9,64.5l-299.9-174.3c-23.6-17.7,1.8-64.8,20.7-70L349,1441.4l299.9,174.3l-16.2,12.7
					L443.7,1736.9z"/>
				<path class="st5" d="M447.9,1740.9l193.1-111l-0.2,42.8l-188,114.6c-14.4,8.4-23,3-24.6-6.8
					C426.3,1768.1,434.6,1748.6,447.9,1740.9z"/>
				<path class="st6" d="M427.7,1753.5c5.3-9.3,12.7-17.4,20.9-22.1l200.4-115.7l0,15.6l-8.2,4.7l-192.2,111
					c-4.4,2.6-8.4,6.9-11.3,11.9c-2.9,5.1-4.7,10.7-4.7,15.7c0,5,1.8,8.6,4.7,10.3c2.9,1.7,6.9,1.4,11.3-1.1l192.2-111l8.2-4.7
					l0.1,15.6l-200.4,115.7c-8.1,4.7-15.5,5.1-20.9,2.1c-5.3-3.1-8.7-9.7-8.7-19C419.1,1773.1,422.4,1762.6,427.7,1753.5z"/>
				
					<linearGradient id="SVGID_00000133500768265890590910000001275490334758091172_" gradientUnits="userSpaceOnUse" x1="493.8693" y1="1800.3647" x2="479.5413" y2="1766.123">
					<stop  offset="0" style="stop-color:#A77EF7"/>
					<stop  offset="1" style="stop-color:#5E65D6"/>
				</linearGradient>
				<path style="fill-rule:evenodd;clip-rule:evenodd;fill:url(#SVGID_00000133500768265890590910000001275490334758091172_);" d="
					M509.4,1771.1v42.8l-14.1-8.5l-18.2,26.9v-42.2c-0.1-0.3-0.2-0.6-0.2-0.9c-0.9-11.6-10.9-25.7-18.3-27.8l33.1-19.5
					C499.6,1744.1,509.6,1759.1,509.4,1771.1L509.4,1771.1z"/>
			</g>
		</g>
	</g>
	<g>
		
			<linearGradient id="SVGID_00000008828859114378483070000016586529431033273482_" gradientUnits="userSpaceOnUse" x1="1181.4769" y1="1515.2104" x2="1318.4113" y2="1233.6681">
			<stop  offset="0" style="stop-color:#1C8EF4"/>
			<stop  offset="1" style="stop-color:#00CFDD"/>
		</linearGradient>
		<path style="fill-rule:evenodd;clip-rule:evenodd;fill:url(#SVGID_00000008828859114378483070000016586529431033273482_);" d="
			M1236.4,1013.1c-7.2,0.1-14.4,0.3-21.6,0.6l0.5,10.7c7.1-0.3,14.2-0.5,21.4-0.6L1236.4,1013.1L1236.4,1013.1z M1272.8,1013.3
			c-7.2-0.1-14.4-0.2-21.6-0.2l0,10.7c7.1,0,14.2,0,21.4,0.2L1272.8,1013.3L1272.8,1013.3z M1204,1014.2c-7.2,0.4-14.4,0.8-21.6,1.4
			l0.8,10.7c7.1-0.5,14.2-1,21.3-1.4L1204,1014.2L1204,1014.2z M1171.7,1016.5c-7.2,0.6-14.3,1.3-21.5,2.1l1.2,10.7
			c7.1-0.8,14.2-1.5,21.3-2.1L1171.7,1016.5L1171.7,1016.5z M1139.5,1019.8c-7.2,0.9-14.3,1.8-21.4,2.9l1.6,10.6
			c7-1,14.1-2,21.2-2.8L1139.5,1019.8L1139.5,1019.8z M1107.4,1024.3c-7.1,1.1-14.2,2.3-21.3,3.6l1.9,10.6c7-1.3,14-2.5,21.1-3.6
			L1107.4,1024.3L1107.4,1024.3z M1075.4,1030c-7.1,1.4-14.1,2.9-21.2,4.4l2.4,10.5c6.9-1.6,13.9-3,20.9-4.4L1075.4,1030
			L1075.4,1030z M1043.7,1036.9c-7,1.7-14,3.4-21,5.3l2.8,10.4c6.8-1.9,13.8-3.6,20.7-5.2L1043.7,1036.9L1043.7,1036.9z
			 M1012.3,1045c-6.9,1.9-13.8,4-20.7,6.1l3.2,10.3c6.8-2.1,13.6-4.1,20.5-6L1012.3,1045L1012.3,1045z M981.2,1054.3
			c-6.9,2.2-13.7,4.6-20.5,7l3.6,10.1c6.7-2.4,13.4-4.7,20.2-6.9L981.2,1054.3L981.2,1054.3z M950.6,1065
			c-6.8,2.5-13.5,5.2-20.2,7.9l4.1,9.9c6.6-2.7,13.2-5.3,19.8-7.8L950.6,1065L950.6,1065z M920.4,1077.1c-6.6,2.8-13.2,5.8-19.8,8.9
			l4.6,9.7c6.4-3,12.9-5.9,19.4-8.7L920.4,1077.1L920.4,1077.1z M890.9,1090.7c-6.5,3.2-12.9,6.5-19.3,9.9l5.1,9.5
			c6.3-3.3,12.6-6.6,19-9.7L890.9,1090.7L890.9,1090.7z M862.1,1105.8c-6.3,3.5-12.5,7.2-18.7,10.9l5.6,9.2
			c6.1-3.7,12.2-7.3,18.4-10.7L862.1,1105.8L862.1,1105.8z M834.1,1122.4c-6.1,3.9-12.1,7.9-18.1,12.1l6.2,8.8
			c5.8-4.1,11.7-8,17.7-11.8L834.1,1122.4L834.1,1122.4z M807.3,1140.9c-5.8,4.3-11.6,8.7-17.2,13.3l6.8,8.3
			c5.5-4.5,11.1-8.8,16.8-13L807.3,1140.9L807.3,1140.9z M781.7,1161.1c-5.5,4.7-10.9,9.6-16.2,14.6l7.4,7.8
			c5.1-4.9,10.4-9.6,15.8-14.2L781.7,1161.1L781.7,1161.1z M757.8,1183.3c-5.1,5.1-10.1,10.5-14.9,15.9l8.1,7.1
			c4.6-5.3,9.5-10.5,14.4-15.4L757.8,1183.3L757.8,1183.3z M735.8,1207.6c-4.6,5.6-9.1,11.4-13.3,17.3l8.8,6.2
			c4.1-5.7,8.4-11.3,12.9-16.7L735.8,1207.6L735.8,1207.6z M716.3,1233.9c-4,6.1-7.8,12.3-11.4,18.7l9.4,5.2
			c3.4-6.2,7.1-12.1,10.9-18L716.3,1233.9L716.3,1233.9z M699.8,1262.4c-3.3,6.6-6.3,13.2-9,20l10,3.9c2.6-6.6,5.5-12.9,8.6-19.2
			L699.8,1262.4L699.8,1262.4z M687,1292.7c-2.4,7-4.4,13.9-6.2,21.1l10.4,2.5c1.7-6.9,3.6-13.5,5.9-20.2L687,1292.7L687,1292.7z
			 M678.5,1324.5c-1.4,7.2-2.4,14.5-3,21.8l10.7,0.9c0.6-6.9,1.6-13.9,2.9-20.7L678.5,1324.5L678.5,1324.5z M674.7,1357.3
			c-0.3,7.4-0.2,14.6,0.3,22l10.7-0.7c-0.4-7-0.5-13.9-0.2-21L674.7,1357.3L674.7,1357.3z M675.9,1390.3c0.8,7.3,2,14.6,3.5,21.7
			l10.5-2.3c-1.5-6.8-2.6-13.8-3.4-20.7L675.9,1390.3L675.9,1390.3z M682.1,1422.7c1.9,7.1,4.1,14,6.6,20.9l10.1-3.7
			c-2.4-6.6-4.5-13.2-6.3-20L682.1,1422.7L682.1,1422.7z M692.7,1453.9c2.8,6.7,6,13.5,9.4,19.9l9.5-5.1c-3.2-6.4-6.2-12.4-9-19
			L692.7,1453.9L692.7,1453.9z M707.4,1483.3c3.7,6.3,7.6,12.5,11.7,18.5l8.9-6.1c-4-5.8-7.7-11.7-11.3-17.8L707.4,1483.3
			L707.4,1483.3z M725.4,1510.8c4.3,5.8,8.9,11.6,13.6,17.1l8.1-7c-4.6-5.4-8.9-10.9-13.1-16.5L725.4,1510.8L725.4,1510.8z
			 M746.2,1536.1c4.9,5.4,9.9,10.7,15.1,15.7l7.5-7.7c-5-4.9-9.9-10-14.7-15.3L746.2,1536.1L746.2,1536.1z M769.2,1559.3
			c5.3,4.9,10.8,9.7,16.3,14.4l6.9-8.3c-5.4-4.5-10.7-9.2-15.9-14L769.2,1559.3L769.2,1559.3z M794,1580.5
			c5.7,4.5,11.5,8.9,17.3,13.1l6.3-8.7c-5.7-4.1-11.4-8.4-16.9-12.8L794,1580.5L794,1580.5z M820.2,1599.9c6,4.1,12,8.1,18.2,11.9
			l5.7-9.1c-6-3.7-11.9-7.7-17.8-11.7L820.2,1599.9L820.2,1599.9z M847.6,1617.4c6.2,3.7,12.5,7.3,18.8,10.8l5.1-9.4
			c-6.2-3.4-12.4-6.9-18.5-10.6L847.6,1617.4L847.6,1617.4z M876,1633.4c6.4,3.3,12.9,6.6,19.4,9.7l4.6-9.7
			c-6.4-3.1-12.7-6.3-19-9.6L876,1633.4L876,1633.4z M905.2,1647.7c6.6,3,13.2,5.9,19.8,8.7l4.2-9.9c-6.5-2.8-13.1-5.6-19.5-8.6
			L905.2,1647.7L905.2,1647.7z M935.1,1660.5c6.7,2.7,13.4,5.3,20.2,7.8l3.7-10.1c-6.7-2.5-13.3-5-19.9-7.6L935.1,1660.5
			L935.1,1660.5z M965.5,1671.9c6.8,2.4,13.7,4.7,20.5,6.8l3.2-10.2c-6.8-2.2-13.5-4.4-20.2-6.7L965.5,1671.9L965.5,1671.9z
			 M996.3,1681.9c6.9,2.1,13.8,4.1,20.8,6l2.8-10.4c-6.9-1.9-13.7-3.8-20.5-5.9L996.3,1681.9L996.3,1681.9z M1027.6,1690.7
			c7,1.8,14,3.5,21,5.1l2.4-10.5c-6.9-1.6-13.8-3.3-20.7-5.1L1027.6,1690.7L1027.6,1690.7z M1059.1,1698.2c7,1.5,14.1,3,21.2,4.3
			l2-10.6c-7-1.3-14-2.8-20.9-4.3L1059.1,1698.2L1059.1,1698.2z M1090.9,1704.5c7.1,1.3,14.2,2.4,21.3,3.5l1.6-10.6
			c-7-1.1-14.1-2.2-21.1-3.5L1090.9,1704.5L1090.9,1704.5z M1123,1709.6c7.1,1,14.3,1.9,21.4,2.8l1.2-10.7
			c-7.1-0.8-14.1-1.7-21.2-2.7L1123,1709.6L1123,1709.6z M1155.1,1713.5c7.2,0.8,14.3,1.4,21.5,2l0.9-10.7c-7.1-0.6-14.2-1.2-21.3-2
			L1155.1,1713.5L1155.1,1713.5z M1187.4,1716.3c7.2,0.5,14.4,0.9,21.6,1.3l0.5-10.7c-7.1-0.3-14.2-0.7-21.3-1.2L1187.4,1716.3
			L1187.4,1716.3z M1219.8,1718c7.2,0.3,14.4,0.4,21.6,0.5l0.1-10.7c-7.1-0.1-14.2-0.3-21.4-0.5L1219.8,1718L1219.8,1718z
			 M1252.2,1718.6v-10.7c7.1,0,14.2,0,21.4-0.2l0.2,10.7C1266.6,1718.6,1259.4,1718.6,1252.2,1718.6L1252.2,1718.6z M1284.6,1718.1
			c7.2-0.2,14.4-0.5,21.6-0.9l-0.6-10.7c-7.1,0.4-14.2,0.7-21.3,0.9L1284.6,1718.1L1284.6,1718.1z M1317,1716.6
			c7.2-0.5,14.4-1,21.5-1.7l-1-10.7c-7.1,0.6-14.2,1.2-21.3,1.6L1317,1716.6L1317,1716.6z M1349.3,1713.9c7.1-0.7,14.4-1.5,21.5-2.4
			l-1.4-10.7c-7,0.9-14.2,1.7-21.2,2.4L1349.3,1713.9L1349.3,1713.9z M1381.5,1710.1c7.1-1,14.3-2,21.4-3.2l-1.7-10.6
			c-7,1.1-14.1,2.2-21.1,3.1L1381.5,1710.1L1381.5,1710.1z M1413.5,1705.1c7.1-1.2,14.2-2.5,21.3-4l-2.1-10.5c-7,1.4-14,2.7-21,3.9
			L1413.5,1705.1L1413.5,1705.1z M1445.4,1699c7-1.5,14.1-3.1,21.1-4.8l-2.5-10.4c-6.9,1.7-13.9,3.2-20.8,4.7L1445.4,1699
			L1445.4,1699z M1477,1691.7c7-1.8,13.9-3.6,20.9-5.6l-2.9-10.3c-6.9,1.9-13.7,3.8-20.6,5.5L1477,1691.7L1477,1691.7z
			 M1508.3,1683.1c6.9-2.1,13.8-4.2,20.6-6.4l-3.4-10.2c-6.8,2.2-13.6,4.3-20.4,6.4L1508.3,1683.1L1508.3,1683.1z M1539.2,1673.2
			c6.8-2.4,13.6-4.8,20.3-7.3l-3.8-10.1c-6.7,2.5-13.3,4.9-20.1,7.2L1539.2,1673.2L1539.2,1673.2z M1569.7,1661.9
			c6.7-2.7,13.4-5.4,20-8.3l-4.3-9.8c-6.5,2.8-13.1,5.5-19.7,8.1L1569.7,1661.9L1569.7,1661.9z M1599.6,1649.3
			c6.6-3,13.2-6,19.6-9.3l-4.8-9.6c-6.4,3.1-12.8,6.2-19.2,9.1L1599.6,1649.3L1599.6,1649.3z M1628.8,1635.1
			c6.4-3.3,12.8-6.8,19.1-10.3l-5.3-9.4c-6.2,3.5-12.4,6.9-18.7,10.1L1628.8,1635.1L1628.8,1635.1z M1657.3,1619.4
			c6.2-3.7,12.4-7.5,18.5-11.4l-5.9-9c-5.9,3.8-12,7.6-18.1,11.2L1657.3,1619.4L1657.3,1619.4z M1684.9,1602.1
			c6-4.1,11.9-8.2,17.7-12.5l-6.4-8.6c-5.7,4.2-11.5,8.3-17.4,12.3L1684.9,1602.1L1684.9,1602.1z M1711.3,1582.9
			c5.7-4.4,11.4-9.1,16.8-13.8l-7.1-8.1c-5.3,4.6-10.8,9.1-16.4,13.4L1711.3,1582.9L1711.3,1582.9z M1736.2,1561.9
			c5.4-4.9,10.6-9.9,15.7-15.1l-7.7-7.5c-5,5.1-10.1,9.9-15.3,14.7L1736.2,1561.9L1736.2,1561.9z M1759.5,1538.9
			c5-5.3,9.7-10.8,14.3-16.5l-8.4-6.8c-4.4,5.5-9.1,10.8-13.9,16L1759.5,1538.9L1759.5,1538.9z M1780.5,1513.9
			c4.4-5.8,8.7-11.8,12.6-17.9l-9-5.8c-3.9,5.9-7.9,11.6-12.2,17.2L1780.5,1513.9L1780.5,1513.9z M1798.9,1486.7
			c3.8-6.3,7.2-12.7,10.5-19.2l-9.6-4.7c-3.1,6.3-6.5,12.5-10.1,18.5L1798.9,1486.7L1798.9,1486.7z M1814,1457.5
			c3-6.7,5.6-13.6,7.9-20.5l-10.2-3.3c-2.2,6.6-4.8,13.2-7.6,19.6L1814,1457.5L1814,1457.5z M1825.2,1426.5c2-7.1,3.6-14.1,5-21.4
			l-10.6-1.9c-1.3,6.9-2.9,13.6-4.8,20.4L1825.2,1426.5L1825.2,1426.5z M1831.9,1394.2c0.9-7.3,1.5-14.6,1.8-22l-10.7-0.2
			c-0.2,7-0.8,13.9-1.7,20.9L1831.9,1394.2L1831.9,1394.2z M1833.7,1361.3c0-7.1-0.7-14.9-1.6-22l-10.7,1.3
			c0.8,6.7,1.5,14.1,1.5,20.9L1833.7,1361.3L1833.7,1361.3z M1830.5,1328.4c-1.2-7.2-2.8-14.5-4.8-21.5l-10.3,2.9
			c1.9,6.7,3.4,13.6,4.6,20.4L1830.5,1328.4L1830.5,1328.4z M1822.6,1296.4c-2.2-6.9-4.9-13.9-7.8-20.6l-9.8,4.3
			c2.7,6.4,5.3,13,7.4,19.6L1822.6,1296.4L1822.6,1296.4z M1810.2,1265.8c-3.2-6.6-6.6-13-10.3-19.3l-9.2,5.5
			c3.6,6.1,6.9,12.2,9.9,18.6L1810.2,1265.8L1810.2,1265.8z M1794.2,1237.2c-4-6.1-8.1-12.1-12.5-18l-8.6,6.5
			c4.2,5.6,8.2,11.4,12,17.3L1794.2,1237.2L1794.2,1237.2z M1775,1210.6c-4.5-5.7-9.3-11.2-14.2-16.6l-7.9,7.3
			c4.8,5.2,9.4,10.6,13.8,16L1775,1210.6L1775,1210.6z M1753.3,1186.1c-5-5.2-10.3-10.3-15.6-15.2l-7.2,8
			c5.2,4.8,10.3,9.7,15.2,14.7L1753.3,1186.1L1753.3,1186.1z M1729.5,1163.7c-5.5-4.8-11.1-9.4-16.8-13.9l-6.6,8.5
			c5.6,4.4,11,8.9,16.4,13.5L1729.5,1163.7L1729.5,1163.7z M1704.2,1143.2c-5.8-4.3-11.7-8.5-17.7-12.6l-6,8.9
			c5.9,4,11.6,8.1,17.3,12.3L1704.2,1143.2L1704.2,1143.2z M1677.4,1124.5c-6.1-3.9-12.2-7.7-18.4-11.4l-5.5,9.2
			c6.1,3.6,12.1,7.4,18.1,11.2L1677.4,1124.5L1677.4,1124.5z M1649.6,1107.7c-6.3-3.6-12.6-7-19-10.3l-4.9,9.5
			c6.3,3.3,12.5,6.7,18.7,10.2L1649.6,1107.7L1649.6,1107.7z M1620.9,1092.4c-6.5-3.2-13-6.3-19.6-9.3l-4.4,9.8
			c6.5,2.9,12.9,6,19.2,9.2L1620.9,1092.4L1620.9,1092.4z M1591.4,1078.7c-6.6-2.9-13.3-5.6-20-8.3l-4,10c6.6,2.7,13.2,5.4,19.7,8.2
			L1591.4,1078.7L1591.4,1078.7z M1561.4,1066.4c-6.7-2.6-13.5-5-20.3-7.4l-3.5,10.2c6.7,2.3,13.4,4.8,20,7.3L1561.4,1066.4
			L1561.4,1066.4z M1530.8,1055.5c-6.9-2.3-13.7-4.4-20.6-6.5l-3.1,10.3c6.8,2,13.6,4.2,20.3,6.4L1530.8,1055.5L1530.8,1055.5z
			 M1499.7,1046c-6.9-2-13.9-3.9-20.9-5.6l-2.6,10.4c6.9,1.8,13.7,3.6,20.6,5.6L1499.7,1046L1499.7,1046z M1468.4,1037.8
			c-7-1.7-14-3.3-21.1-4.8l-2.2,10.5c7,1.5,13.9,3.1,20.8,4.7L1468.4,1037.8L1468.4,1037.8z M1436.7,1030.8
			c-7.1-1.4-14.2-2.7-21.3-4l-1.8,10.6c7,1.2,14,2.6,21,4L1436.7,1030.8L1436.7,1030.8z M1404.8,1024.9c-7.1-1.2-14.2-2.2-21.4-3.2
			l-1.4,10.6c7.1,1,14.1,2,21.1,3.2L1404.8,1024.9L1404.8,1024.9z M1372.7,1020.3c-7.2-0.9-14.3-1.7-21.5-2.5l-1.1,10.7
			c7.1,0.7,14.2,1.5,21.2,2.4L1372.7,1020.3L1372.7,1020.3z M1340.5,1016.8c-7.2-0.6-14.4-1.2-21.5-1.7l-0.7,10.7
			c7.1,0.5,14.2,1,21.3,1.7L1340.5,1016.8L1340.5,1016.8z M1308.1,1014.4c-7.2-0.4-14.4-0.7-21.6-1l-0.3,10.7
			c7.1,0.2,14.2,0.6,21.3,1L1308.1,1014.4z"/>
		
			<linearGradient id="SVGID_00000095323694549273699080000017623356276757282950_" gradientUnits="userSpaceOnUse" x1="1394.0919" y1="1237.9567" x2="1130.8616" y2="659.2318">
			<stop  offset="0" style="stop-color:#965CF2"/>
			<stop  offset="1" style="stop-color:#FF8ADC"/>
		</linearGradient>
		<path style="fill-rule:evenodd;clip-rule:evenodd;fill:url(#SVGID_00000095323694549273699080000017623356276757282950_);" d="
			M1237,505.6c-8.9,0.2-17.8,0.4-26.6,0.8l0.6,13.2c8.8-0.4,17.6-0.6,26.3-0.8L1237,505.6L1237,505.6z M1281.8,505.8
			c-8.9-0.2-17.8-0.2-26.6-0.2l0.1,13.2c8.8,0,17.6,0,26.3,0.2L1281.8,505.8L1281.8,505.8z M1197,507c-8.9,0.5-17.7,1-26.6,1.7
			l1,13.2c8.8-0.7,17.5-1.2,26.3-1.7L1197,507L1197,507z M1157.2,509.8c-8.9,0.8-17.7,1.6-26.5,2.6l1.5,13.2
			c8.7-1,17.5-1.8,26.2-2.6L1157.2,509.8L1157.2,509.8z M1117.4,513.9c-8.8,1.1-17.6,2.3-26.4,3.5l1.9,13.1
			c8.7-1.3,17.4-2.4,26.1-3.5L1117.4,513.9L1117.4,513.9z M1077.8,519.5c-8.8,1.4-17.5,2.9-26.3,4.5l2.4,13c8.6-1.6,17.3-3.1,26-4.4
			L1077.8,519.5L1077.8,519.5z M1038.4,526.4c-8.7,1.7-17.4,3.5-26.1,5.5l2.9,12.9c8.6-1.9,17.2-3.7,25.8-5.4L1038.4,526.4
			L1038.4,526.4z M999.4,534.9c-8.7,2-17.3,4.2-25.9,6.5l3.4,12.8c8.4-2.3,17-4.4,25.5-6.4L999.4,534.9L999.4,534.9z M960.6,544.9
			c-8.6,2.4-17.1,4.9-25.6,7.5l3.9,12.7c8.4-2.6,16.8-5.1,25.3-7.4L960.6,544.9L960.6,544.9z M922.3,556.5
			c-8.5,2.8-16.9,5.6-25.2,8.6l4.5,12.5c8.3-2.9,16.6-5.8,24.9-8.5L922.3,556.5L922.3,556.5z M884.5,569.7
			c-8.3,3.1-16.6,6.4-24.9,9.7l5.1,12.2c8.1-3.3,16.3-6.5,24.5-9.6L884.5,569.7L884.5,569.7z M847.4,584.6
			c-8.2,3.5-16.3,7.2-24.4,10.9l5.6,12c7.9-3.7,15.9-7.3,24-10.7L847.4,584.6L847.4,584.6z M810.9,601.3c-8,3.9-15.9,8-23.8,12.2
			l6.3,11.7c7.7-4.1,15.5-8.1,23.4-12L810.9,601.3L810.9,601.3z M775.4,619.8c-7.8,4.4-15.5,8.8-23.1,13.5l6.9,11.3
			c7.5-4.6,15-9,22.7-13.2L775.4,619.8L775.4,619.8z M740.9,640.4c-7.5,4.8-14.9,9.8-22.3,14.9l7.6,10.8c7.1-5,14.4-9.9,21.8-14.6
			L740.9,640.4L740.9,640.4z M707.8,663.2c-7.2,5.3-14.3,10.7-21.2,16.4l8.4,10.2c6.8-5.5,13.7-10.8,20.7-16L707.8,663.2
			L707.8,663.2z M676.3,688.1c-6.8,5.8-13.4,11.8-19.9,18l9.2,9.6c6.3-6,12.8-11.8,19.4-17.5L676.3,688.1L676.3,688.1z M646.8,715.5
			c-6.3,6.3-12.5,12.9-18.4,19.7l10,8.7c5.7-6.5,11.7-12.9,17.8-19L646.8,715.5L646.8,715.5z M619.7,745.4
			c-5.7,6.9-11.2,14.1-16.4,21.4l10.8,7.7c5.1-7,10.3-14,15.9-20.6L619.7,745.4L619.7,745.4z M595.6,777.9c-5,7.5-9.6,15.2-14,23.1
			l11.6,6.4c4.2-7.6,8.7-15,13.5-22.2L595.6,777.9L595.6,777.9z M575.3,812.9c-4,8.1-7.7,16.2-11.1,24.7l12.3,4.8
			c3.2-8.1,6.8-15.9,10.6-23.7L575.3,812.9L575.3,812.9z M559.5,850.3c-3,8.6-5.4,17.1-7.6,26l12.9,3.1c2.1-8.5,4.5-16.6,7.3-24.9
			L559.5,850.3L559.5,850.3z M549,889.6c-1.7,8.9-3,17.9-3.8,26.9l13.2,1.1c0.8-8.6,2-17.1,3.6-25.6L549,889.6L549,889.6z
			 M544.4,930.1c-0.3,9.1-0.2,18,0.3,27.1l13.2-0.8c-0.5-8.7-0.6-17.2-0.3-25.9L544.4,930.1L544.4,930.1z M545.9,970.7
			c1,8.9,2.5,18,4.4,26.8l12.9-2.9c-1.8-8.3-3.2-17-4.2-25.5L545.9,970.7L545.9,970.7z M553.4,1010.7c2.4,8.8,5.1,17.3,8.2,25.8
			l12.4-4.6c-3-8.2-5.6-16.3-7.8-24.7L553.4,1010.7L553.4,1010.7z M566.6,1049.1c3.4,8.2,7.4,16.7,11.6,24.5l11.7-6.3
			c-3.9-7.8-7.7-15.3-11.1-23.4L566.6,1049.1L566.6,1049.1z M584.7,1085.4c4.5,7.8,9.3,15.4,14.4,22.8l10.9-7.5
			c-4.9-7.2-9.5-14.5-13.9-22L584.7,1085.4L584.7,1085.4z M606.9,1119.2c5.3,7.2,10.9,14.3,16.7,21.1l10-8.6
			c-5.6-6.6-11-13.4-16.2-20.4L606.9,1119.2L606.9,1119.2z M632.5,1150.4c6,6.6,12.2,13.2,18.6,19.4l9.2-9.5
			c-6.2-6.1-12.2-12.4-18.1-18.8L632.5,1150.4L632.5,1150.4z M660.9,1179.1c6.6,6.1,13.3,12,20.1,17.7l8.5-10.2
			c-6.7-5.6-13.2-11.3-19.6-17.3L660.9,1179.1L660.9,1179.1z M691.4,1205.3c7,5.6,14.1,10.9,21.4,16.2l7.7-10.8
			c-7.1-5.1-14.1-10.4-20.9-15.8L691.4,1205.3L691.4,1205.3z M723.8,1229.1c7.4,5,14.8,10,22.4,14.7l7-11.3
			c-7.4-4.6-14.7-9.4-21.9-14.4L723.8,1229.1L723.8,1229.1z M757.6,1250.8c7.7,4.6,15.4,9,23.2,13.3l6.3-11.6
			c-7.7-4.2-15.2-8.5-22.8-13L757.6,1250.8L757.6,1250.8z M792.6,1270.4c7.9,4.1,15.8,8.1,23.9,12l5.7-12
			c-7.9-3.8-15.7-7.7-23.5-11.8L792.6,1270.4L792.6,1270.4z M828.5,1288c8.1,3.7,16.2,7.3,24.5,10.7l5.1-12.2
			c-8.1-3.4-16.1-6.9-24.1-10.6L828.5,1288L828.5,1288z M865.4,1303.9c8.3,3.3,16.6,6.5,24.9,9.6l4.5-12.5c-8.2-3-16.4-6.2-24.5-9.4
			L865.4,1303.9L865.4,1303.9z M902.8,1317.9c8.4,2.9,16.8,5.8,25.3,8.4l4-12.6c-8.4-2.7-16.7-5.4-24.9-8.3L902.8,1317.9
			L902.8,1317.9z M940.9,1330.3c8.5,2.6,17.1,5,25.6,7.4l3.4-12.8c-8.5-2.3-16.9-4.7-25.3-7.3L940.9,1330.3L940.9,1330.3z
			 M979.4,1341.1c8.6,2.2,17.2,4.3,25.9,6.3l3-12.9c-8.6-2-17.1-4.1-25.6-6.2L979.4,1341.1L979.4,1341.1z M1018.4,1350.3
			c8.7,1.9,17.4,3.7,26.1,5.3l2.5-13c-8.6-1.6-17.2-3.4-25.8-5.3L1018.4,1350.3L1018.4,1350.3z M1057.6,1358.1
			c8.8,1.6,17.5,3,26.3,4.3l2-13.1c-8.7-1.3-17.3-2.8-26-4.3L1057.6,1358.1L1057.6,1358.1z M1097.1,1364.4
			c8.8,1.2,17.6,2.3,26.4,3.4l1.5-13.2c-8.7-1-17.4-2.1-26.1-3.4L1097.1,1364.4L1097.1,1364.4z M1136.7,1369.2
			c8.8,0.9,17.7,1.7,26.5,2.5l1.1-13.2c-8.8-0.7-17.5-1.5-26.2-2.4L1136.7,1369.2L1136.7,1369.2z M1176.6,1372.7
			c8.9,0.6,17.7,1.1,26.6,1.5l0.6-13.2c-8.8-0.4-17.5-0.9-26.3-1.5L1176.6,1372.7L1176.6,1372.7z M1216.5,1374.8
			c8.9,0.3,17.8,0.5,26.6,0.6l0.2-13.2c-8.8-0.1-17.6-0.3-26.3-0.6L1216.5,1374.8L1216.5,1374.8z M1256.4,1375.5v-13.2
			c8.8,0,17.6,0,26.3-0.2l0.3,13.2C1274.2,1375.5,1265.3,1375.5,1256.4,1375.5L1256.4,1375.5z M1296.4,1374.9
			c8.9-0.3,17.8-0.6,26.6-1.1l-0.8-13.2c-8.8,0.5-17.5,0.8-26.3,1.1L1296.4,1374.9L1296.4,1374.9z M1336.3,1373
			c8.8-0.6,17.8-1.2,26.6-2l-1.2-13.2c-8.8,0.8-17.5,1.4-26.3,2L1336.3,1373L1336.3,1373z M1376.2,1369.7c8.8-0.9,17.7-1.8,26.5-3
			l-1.7-13.1c-8.7,1.1-17.5,2-26.2,2.9L1376.2,1369.7L1376.2,1369.7z M1415.9,1365c8.8-1.2,17.6-2.5,26.4-3.9l-2.1-13.1
			c-8.7,1.4-17.4,2.7-26.1,3.9L1415.9,1365L1415.9,1365z M1455.4,1358.9c8.8-1.5,17.5-3.1,26.2-4.9l-2.6-13
			c-8.6,1.7-17.2,3.3-25.9,4.8L1455.4,1358.9L1455.4,1358.9z M1494.6,1351.4c8.7-1.8,17.4-3.8,26-5.9l-3.1-12.9
			c-8.5,2-17.1,4-25.7,5.8L1494.6,1351.4L1494.6,1351.4z M1533.6,1342.3c8.6-2.2,17.2-4.5,25.8-6.9l-3.6-12.8
			c-8.5,2.4-16.9,4.6-25.4,6.8L1533.6,1342.3L1533.6,1342.3z M1572.2,1331.7c8.5-2.5,17-5.2,25.5-7.9l-4.1-12.6
			c-8.3,2.7-16.7,5.3-25.1,7.8L1572.2,1331.7L1572.2,1331.7z M1610.3,1319.5c8.4-2.9,16.8-5.9,25.1-9l-4.7-12.4
			c-8.2,3.1-16.5,6.1-24.8,8.9L1610.3,1319.5L1610.3,1319.5z M1647.9,1305.6c8.3-3.3,16.5-6.7,24.7-10.2l-5.3-12.1
			c-8,3.5-16.1,6.8-24.3,10L1647.9,1305.6L1647.9,1305.6z M1684.7,1290c8.1-3.6,16.2-7.4,24.2-11.4l-5.9-11.9
			c-7.9,3.9-15.8,7.6-23.7,11.2L1684.7,1290L1684.7,1290z M1720.8,1272.6c7.9-4.1,15.8-8.3,23.5-12.7l-6.5-11.5
			c-7.6,4.3-15.3,8.5-23.1,12.5L1720.8,1272.6L1720.8,1272.6z M1756,1253.2c7.7-4.5,15.3-9.2,22.8-14l-7.2-11.1
			c-7.3,4.7-14.8,9.3-22.3,13.7L1756,1253.2L1756,1253.2z M1789.9,1231.8c7.4-5,14.6-10.1,21.8-15.5l-7.9-10.6
			c-7,5.2-14.2,10.2-21.4,15.1L1789.9,1231.8L1789.9,1231.8z M1822.5,1208.2c7-5.4,14.1-11.2,20.8-17l-8.7-10
			c-6.6,5.7-13.3,11.3-20.2,16.6L1822.5,1208.2L1822.5,1208.2z M1853.3,1182.3c6.6-6,13.1-12.2,19.3-18.6l-9.5-9.3
			c-6.1,6.2-12.4,12.2-18.8,18.1L1853.3,1182.3L1853.3,1182.3z M1881.9,1154c6.1-6.6,12-13.4,17.7-20.3l-10.3-8.3
			c-5.5,6.7-11.2,13.3-17.1,19.7L1881.9,1154L1881.9,1154z M1907.9,1123.1c5.4-7.1,10.7-14.5,15.5-22l-11.2-7.1
			c-4.8,7.3-9.7,14.3-15,21.3L1907.9,1123.1L1907.9,1123.1z M1930.5,1089.6c4.6-7.8,8.9-15.6,12.9-23.7l-11.9-5.8
			c-3.9,7.8-8,15.4-12.4,22.8L1930.5,1089.6L1930.5,1089.6z M1949.2,1053.6c3.6-8.3,6.9-16.7,9.8-25.3l-12.6-4.1
			c-2.7,8.1-5.9,16.3-9.3,24.1L1949.2,1053.6L1949.2,1053.6z M1963,1015.3c2.5-8.8,4.5-17.4,6.1-26.4l-13-2.3
			c-1.6,8.6-3.5,16.8-5.9,25.2L1963,1015.3L1963,1015.3z M1971.2,975.5c1.2-9,1.9-18,2.2-27.1l-13.2-0.3c-0.3,8.6-1,17.2-2.1,25.7
			L1971.2,975.5L1971.2,975.5z M1973.4,934.9c0-8.8-0.9-18.4-1.9-27.1l-13.1,1.7c1,8.3,1.8,17.4,1.8,25.7L1973.4,934.9L1973.4,934.9
			z M1969.5,894.4c-1.5-8.9-3.5-17.8-5.9-26.5l-12.7,3.6c2.3,8.2,4.2,16.8,5.6,25.2L1969.5,894.4L1969.5,894.4z M1959.7,854.9
			c-2.7-8.5-6-17.1-9.6-25.4l-12.1,5.3c3.4,7.9,6.5,16,9.1,24.2L1959.7,854.9L1959.7,854.9z M1944.5,817.2
			c-3.9-8.1-8.2-16-12.7-23.8l-11.4,6.8c4.4,7.5,8.4,15.1,12.2,22.9L1944.5,817.2L1944.5,817.2z M1924.7,781.9
			c-4.9-7.5-10-15-15.4-22.1l-10.5,8c5.2,6.9,10.1,14.1,14.8,21.4L1924.7,781.9L1924.7,781.9z M1901,749.1
			c-5.6-7-11.5-13.8-17.5-20.4l-9.7,9c5.9,6.4,11.6,13,17,19.8L1901,749.1L1901,749.1z M1874.3,718.9c-6.2-6.4-12.7-12.7-19.3-18.7
			l-8.9,9.8c6.4,5.9,12.7,11.9,18.7,18.2L1874.3,718.9L1874.3,718.9z M1845,691.3c-6.8-5.9-13.6-11.6-20.7-17.1l-8.1,10.4
			c6.9,5.4,13.6,11,20.2,16.7L1845,691.3L1845,691.3z M1813.7,666c-7.2-5.3-14.4-10.5-21.8-15.6l-7.4,11c7.2,4.9,14.3,10,21.3,15.2
			L1813.7,666L1813.7,666z M1780.7,643c-7.5-4.8-15-9.5-22.7-14.1l-6.7,11.4c7.5,4.5,14.9,9.1,22.3,13.8L1780.7,643L1780.7,643z
			 M1746.4,622.2c-7.8-4.4-15.6-8.6-23.5-12.8l-6.1,11.8c7.8,4.1,15.4,8.2,23.1,12.5L1746.4,622.2L1746.4,622.2z M1711,603.4
			c-8-4-16-7.8-24.1-11.5l-5.5,12.1c8,3.6,15.9,7.4,23.7,11.3L1711,603.4L1711,603.4z M1674.7,586.5c-8.2-3.5-16.4-6.9-24.6-10.3
			l-4.9,12.3c8.2,3.3,16.2,6.6,24.3,10.1L1674.7,586.5L1674.7,586.5z M1637.6,571.3c-8.3-3.2-16.7-6.2-25.1-9.1l-4.3,12.5
			c8.3,2.9,16.5,5.9,24.7,9L1637.6,571.3L1637.6,571.3z M1599.9,557.9c-8.4-2.8-16.9-5.5-25.5-8l-3.8,12.7
			c8.4,2.5,16.8,5.2,25.1,7.9L1599.9,557.9L1599.9,557.9z M1561.6,546.2c-8.6-2.4-17.1-4.7-25.8-7l-3.2,12.9
			c8.5,2.2,16.9,4.5,25.4,6.9L1561.6,546.2L1561.6,546.2z M1522.9,536c-8.6-2.1-17.3-4.1-26-5.9l-2.8,13c8.6,1.8,17.1,3.8,25.7,5.9
			L1522.9,536L1522.9,536z M1483.9,527.4c-8.7-1.8-17.5-3.3-26.2-4.9l-2.2,13.1c8.6,1.5,17.3,3.1,25.9,4.9L1483.9,527.4
			L1483.9,527.4z M1444.6,520.2c-8.8-1.4-17.6-2.8-26.4-4l-1.8,13.1c8.7,1.2,17.4,2.5,26,3.9L1444.6,520.2L1444.6,520.2z
			 M1405,514.5c-8.8-1.1-17.6-2.1-26.5-3l-1.3,13.2c8.7,0.9,17.5,1.9,26.2,3L1405,514.5L1405,514.5z M1365.3,510.2
			c-8.8-0.8-17.7-1.5-26.6-2.1l-0.9,13.2c8.8,0.6,17.5,1.3,26.3,2.1L1365.3,510.2L1365.3,510.2z M1325.4,507.3
			c-8.9-0.5-17.7-0.9-26.6-1.2l-0.4,13.2c8.8,0.3,17.5,0.7,26.3,1.2L1325.4,507.3z"/>
		
			<linearGradient id="SVGID_00000058570412249777480830000014667019811105077417_" gradientUnits="userSpaceOnUse" x1="1194.3612" y1="587.4007" x2="1319.5839" y2="403.6913">
			<stop  offset="0" style="stop-color:#1C8EF4"/>
			<stop  offset="1" style="stop-color:#00CFDD"/>
		</linearGradient>
		
			<path style="opacity:0.5;fill-rule:evenodd;clip-rule:evenodd;fill:url(#SVGID_00000058570412249777480830000014667019811105077417_);" d="
			M1669.8,372.9v268.3c-303.3-119.3-538.2-119.3-841.4,0V372.9c123.3-67.1,269.5-95.8,417.8-97.1
			C1396.9,274.6,1547.9,304.6,1669.8,372.9z"/>
		<g>
			<g>
				<g>
					<path class="st13" d="M1088.9,1546.5c1.7,2.2,1.8,8.3,1.2,11.1c-4.4,21.5-11.5,21.7-15.7,27.8c-5.7,8.4-2.5,25.2-5.7,36
						c-6.5,27.5-23.3,52.4-48,62.1c-5.8,2.3-12.3,4-18.5,4.7c-6.7,0.8-26.5,0.5-29.8-11.2c2.3-12.4,15.6-23.6,19.9-35.6
						c6.5-17.8,5.5-31.3,5.7-47.6c0.1-7.6,1.3-20.6,1.4-32.2c0-3.2-0.1-6.4-0.1-9.6c41.4,3.2,48.5-36.6,56.4-33.5
						c4.6,1.8,8.8,4.1,12.3,6.8C1075.9,1528.8,1087.1,1540.4,1088.9,1546.5z"/>
					<path class="st14" d="M1053,1517.6c-7.6-6.9-10.8-14.2-10.3-23.3l-48,0.6l2.1,54C1029.2,1598.4,1094.4,1558.2,1053,1517.6z"/>
					<path class="st15" d="M1082.4,1540c1.7,2.2,1.8,8.3,1.2,11.1c-5.4,27.4-11.7,20.1-17.2,35.2c-5.3,14.7-0.2,18.8-3.2,29.2
						c-6.5,27.5-23.3,52.4-48,62.1c-14.1,5.5-32.1,8-41.2,1.2c-1.9-1.4-1.6-1.7-1.6-2.3c13.8-28.8,19.6-57,20.1-88.5
						c0.1-7.6,1.3-20.6,1.4-32.2c0-3.2-0.1-6.4-0.1-9.6c21.9,1.7,52.2-22.2,53.6-39.9c1.3,1.6,0.6,5.5,2.8,6.4
						c4.6,1.8,8.8,4.1,12.3,6.8C1070.3,1523,1080.6,1534,1082.4,1540z"/>
				</g>
				<g>
					
						<linearGradient id="SVGID_00000124881241968308755700000009346733641380029067_" gradientUnits="userSpaceOnUse" x1="1410.1232" y1="639.0441" x2="1447.4678" y2="937.8229">
						<stop  offset="0" style="stop-color:#5A2D68"/>
						<stop  offset="1" style="stop-color:#22043D"/>
					</linearGradient>
					<path style="fill-rule:evenodd;clip-rule:evenodd;fill:url(#SVGID_00000124881241968308755700000009346733641380029067_);" d="
						M1346.7,618.9c-57.4,9.7-76.1,36.4-79.6,100.9c-0.9,16.4-29.4,65.2-13.6,107.7c17.7,47.6,47.1,36.9,57.3,73.7
						c14,50.5-5.7,69.7,7.2,99.5c5.7,13.1,14.5,15.3,33.2,40.6c1.2,1.7,2.3,3.3,3.4,4.8c13.7-0.9,28.1-1.4,47,3.9
						c26.8,7.5,71.2,19.5,103.7,6.7c29.2-11.5,29.1-42.8,41.2-54.9c15.3-15.3,29.4-15.6,41.2-20.6c34.8-14.8,49.4-63.4,30-97.2
						c-23-6.6-46.1-14.9-42.6-30.4c7.1-31.1,13.6-64.9-18-86.2c-22-14.9-55.9-15.3-66.2-43c-10.7-28.9-18.6-49.4-34.8-69.1
						C1433.5,627.7,1398.6,610.1,1346.7,618.9z"/>
					<path class="st17" d="M1307.2,653.5c-16.7,5.4-26.5,24.5-31.5,45.1c-11.4,47.2-44.1,69.8-22.1,128.8
						c17.7,47.6,47.1,36.9,57.3,73.7c11.9,42.7-0.4,63,3.3,86.3c29.3,11.1,21.4,58.8,89.3,47.1c29.5-5.1,18.7-37.1,59.7-35.6
						c27,1,35.5-12.4,37.2-27.6c5.7-51.5-26.8-31.7-26.1-68.2c0.7-37-32.4-38.5-33.1-47c-0.6-7.2,5.3-27.5-38.2-36.4
						c-20-4.1-36.1-14.9-30.6-29.2c7.7-20.1-6.5-34.7-8.9-36.2c-9.6-6.2-18.1,0.4-22.6-5.1c0,0-20.7-44.9-23.4-51.8
						C1310.9,680.4,1304.7,667.8,1307.2,653.5z"/>
				</g>
				<g>
					
						<linearGradient id="SVGID_00000164487977819660265570000000290013974596865466_" gradientUnits="userSpaceOnUse" x1="985.5123" y1="785.456" x2="959.0327" y2="793.6937">
						<stop  offset="0" style="stop-color:#FF8A78"/>
						<stop  offset="1" style="stop-color:#FFA799"/>
					</linearGradient>
					<path style="fill-rule:evenodd;clip-rule:evenodd;fill:url(#SVGID_00000164487977819660265570000000290013974596865466_);" d="
						M958.8,687.3c9.3,6.4,14.9,10.3,20.8,31.4c4,14.3,11.5,20.4,21.3,29c16.3,13.8,36,23,51.6,32.7c20.1,12.5,40.5,25.2,55.7,40.7
						c17.5-2.6,43-5.1,69.6-9.8c46.8-8.4,96.9-20.8,112.9-1.9l25.8,30.2l-7.3,19.9c-38,5-70,12.1-104,16.1c-27.7,3.2-57,4.8-89,2.6
						c-5.6-0.4-10.6,0.1-14.4-0.2c-1.9,0.1-5.8-1.5-7.5-2.5c-4.3-1.6-9-4.2-13.9-7.4c-19-11.8-42.8-32.2-59-48.8
						c-15-15.4-30.8-37-46.5-57.9c-4.2-5.5-13.3-11.1-24.5-17c-17.3-9.2-32.6-24.8-36.5-31.7c-3.8-6.7-18.6-40.8-19.7-61.2
						c-0.4-7.5,6.4-13.2,8.6-15c2.3-1.9,29.8,32,31.5,33C934.8,669.6,955.1,684.6,958.8,687.3z"/>
					
						<linearGradient id="SVGID_00000093894112876435519580000004632969551659697314_" gradientUnits="userSpaceOnUse" x1="1028.3115" y1="847.9452" x2="1229.9136" y2="761.9284">
						<stop  offset="0" style="stop-color:#965CF2"/>
						<stop  offset="1" style="stop-color:#FF8ADC"/>
					</linearGradient>
					<path style="fill-rule:evenodd;clip-rule:evenodd;fill:url(#SVGID_00000093894112876435519580000004632969551659697314_);" d="
						M988.2,733.7c2,2.6,4.3,5,6.8,7.3c2.1,1.9,8,2.2,10.3,4.3c16.3,13.8,32.1,25,47.6,34.7c20.1,12.5,40.3,24.4,55.5,39.9
						c17.5-2.6,43.5-4.4,70.1-9.1c46.8-8.4,96.9-21.8,112.9-2.9l25,31.6l-7.3,19.9c-29.4,3.9-53.4,11.6-79.3,15.6
						c-7.6,1.2-17.8,2-25.6,2.9c-27.7,3.3-57.3,3.5-89.3,1.3c-5.6-0.4-10.6,0.1-14.4-0.2c-1.9,0.1-5.8-1.5-7.5-2.5
						c-4.3-1.6-9-4.2-13.9-7.4c-19-11.8-43.8-32.1-60-48.8c-12.9-13.3-25.9-27.3-39.6-45.3c-2.2-2.8-4.1-9.8-6.3-12.7
						c-2-2.7-3.9-4.5-5.7-5.9C971.3,747.7,979.2,736.8,988.2,733.7z"/>
					<path class="st20" d="M1256.2,800.7c14-1.4,29.1,0,35.3,7.2l25,31.6l-7.3,19.9c-29.4,3.9-53.4,11.6-79.3,15.6
						c-7.6,1.2-17.8,2-25.6,2.9c-27.7,3.3-57.3,3.5-89.3,1.3c-5.6-0.4-10.6,0.1-14.4-0.2l-7.5-2.5c63.4-3,77.5-21.4,125.3-53
						C1239.4,809.8,1254.4,800.9,1256.2,800.7z"/>
				</g>
				
					<linearGradient id="SVGID_00000045588212772291763370000002120477945252297601_" gradientUnits="userSpaceOnUse" x1="1044.9639" y1="1185.5162" x2="1102.7998" y2="1309.3997">
					<stop  offset="0" style="stop-color:#3E4795"/>
					<stop  offset="1" style="stop-color:#273088"/>
				</linearGradient>
				<path style="fill-rule:evenodd;clip-rule:evenodd;fill:url(#SVGID_00000045588212772291763370000002120477945252297601_);" d="
					M1044.5,1493.8c-7.6-58,39.2-142.7,23-202.2c-4.2-15.3-15-30.6-24.8-51c25.8-5.4,58.4-1.7,93.8,11l59.3-7.3l51.4-47.7
					l-15.1-68.5l-40.2-3.3c-71.6,3.9-120.6,8.1-194.4,32.1c-13.5,5-28.8,13.2-36,20.5c-5,4.4-8.6,9.8-10.8,16.5
					c-7.3,22.7,2.4,49.9,11.7,81.2c22.2,74.3,29.2,145.2,32,219.8l0.9,41.4C995.7,1548.2,1041.5,1527.8,1044.5,1493.8z"/>
				<path class="st22" d="M1044.5,1493.8c-7.6-58,39.2-142.7,23-202.2c-4.2-15.3-15-30.6-24.8-51c25.8-5.4,58.4-1.7,93.8,11
					l59.3-7.3l51.4-47.7l-15.1-68.5l-40.2-3.3l-6.5,0.4c-2.9,18.1-3.5,40.1-3.7,64.3c-44.6,4-151.5,12.3-166.1,29.2
					c-3.3,7.8,6.6,21.2,8.4,48.5c-18.6,10.4-35.5,22.4-52.4,41.9c15.1,62.2,20.4,122.7,22.9,185.9l0.9,41.4
					C995.7,1548.2,1041.5,1527.8,1044.5,1493.8z"/>
				
					<linearGradient id="SVGID_00000080198833837973353230000005824497640853256381_" gradientUnits="userSpaceOnUse" x1="1276.7339" y1="1101.6986" x2="1318.7002" y2="875.7484">
					<stop  offset="0" style="stop-color:#965CF2"/>
					<stop  offset="1" style="stop-color:#FF8ADC"/>
				</linearGradient>
				<path style="fill-rule:evenodd;clip-rule:evenodd;fill:url(#SVGID_00000080198833837973353230000005824497640853256381_);" d="
					M1194.4,1114.9c1.1-6.2,2.4-11.8,3.8-17.7c1-4.2-0.9-11.3-1-16.3c-0.2-30.6,5.6-30.4,2.5-59.1c-1.4-13,0.3-25.4,2.2-36
					c-50.9-59.8,6.3-89.8,16-114.9c6-15.6,12.5-51.3,29.2-64.1c10.8-8.3,39.2-12.2,61.2,12.5c8.1,4.3,16.5-0.7,22.3,1.8
					c20.8,9.2,31.4,20.2,42.2,28c23.4,16.9,46.9,15.4,61.5,40.4c19,32.6-25,66.3-45.5,110.9c-10.9,23.6-30.5,62.5-43.6,116.1
					c-0.1,5,1.7,9.3,3.9,15.2C1355.1,1163.3,1205.7,1174.5,1194.4,1114.9z"/>
				<path class="st20" d="M1194.4,1114.9c0.3-1.9,0.7-3.8,1.1-5.7c21.6,34.2,87.5,36.3,114,20.1c-3.8-19.9-4.2-32.7-1.2-52.9
					c-44.5-16.6-69.2-33.6-108.7-55.8c-1.2-12.6,0.5-24.5,2.3-34.8c-16.4-19.3-21.6-35.5-20.7-49.5c40.4,9.2,74.9,21.8,114.5,34.2
					c65.7-84.4,85.7-102.3,121-93.5c26.9,6.7,15.3,55.2,6,69.3c-10.8,16.5-24.7,34.2-33.9,54.1c-10.9,23.6-30.5,62.5-43.6,116.1
					c-0.1,5,1.7,9.3,3.9,15.2C1355.1,1163.3,1205.7,1174.5,1194.4,1114.9z"/>
				<g>
					<path class="st13" d="M944.9,1695.8c0.5,2.7-2,8.2-3.7,10.6c-16.7,22.4-21.3,11.1-30.9,22.7c-10,12-8.2,18.4-15.4,26.6
						c-11.8,14.7-27.3,26.3-44.1,31.9c-20.3,6.7-63.9,2.5-67.4-23.4c7.4-10.2,24.9-14.6,34-23.4c13.5-13.3,18.5-25.9,25.7-40.5
						c3.4-6.8,10.1-18,15.2-28.4c1.4-2.9,2.7-5.8,4-8.7c37,21.3,57.9-13.8,65.4-5.8c3.4,3.6,6.1,7.5,8.1,11.4
						C941.4,1675.2,945.9,1689.5,944.9,1695.8z"/>
					<path class="st24" d="M851.9,1674.2c9.9,53.7,80.1,2.1,73.1-17.3c-2.9-8.1-2.2-16.3,0.8-25.5l-43.5-20.3
						c-7.1,15.6-15.2,29.4-22.7,44.7C856.9,1661.6,854.6,1668.1,851.9,1674.2z"/>
					<path class="st25" d="M941.4,1688.4c0.5,2.7-2,8.2-3.7,10.6c-16.7,22.4-23.2,12.7-31.2,24.1c-8.9,12.8-7.9,17-15.1,25.1
						c-13.6,16.9-32,29.8-51.8,33.9c-17.6,3.7-48.4,0-56.3-18.2c11.2-9,20.7-18.6,30.6-30.7c12-14.7,18.5-25.9,25.7-40.5
						c3.4-6.8,10.1-18,15.2-28.4c1.4-2.9,2.7-5.8,4-8.7c19,11,56.7,2.6,65.6-12.8c0.5,2-1.8,5.3-0.2,7c3.4,3.6,6.1,7.5,8.1,11.4
						C937.8,1667.8,942.4,1682.2,941.4,1688.4z"/>
					
						<linearGradient id="SVGID_00000049203437207897690920000014372341087114566274_" gradientUnits="userSpaceOnUse" x1="1064.5796" y1="1291.9871" x2="1090.3816" y2="1343.0172">
						<stop  offset="0" style="stop-color:#3E4795"/>
						<stop  offset="1" style="stop-color:#273088"/>
					</linearGradient>
					<path style="fill-rule:evenodd;clip-rule:evenodd;fill:url(#SVGID_00000049203437207897690920000014372341087114566274_);" d="
						M1203.7,1345c-49.8,8.3-90.1,15.4-132.7,25.3c-12.4,2.9-19.4,7.9-23.6,15c-8.8,15-4.8,39.6-11.2,74.3
						c-11.2,60.6-73.6,121.8-110.3,175.7c-16.3,16.7-56.6,15.3-58.2-5.7c30.9-67.9,68.8-153.9,81-230.5c8-50.1,23.4-83.4,63-103.8
						c68.9-43,120-73.4,190.5-104.6c-7-16.8-10.6-41.8-11.3-52.9c-0.8-13.4,2.7-13.5,4.1-22.2c25.5,37.5,105.2,38.3,153.1,16.6
						c10.7,17.3,25.7,35.1,30.2,55.2c10.4,46.5-5.2,83.5-34.6,107.8C1311.1,1322.1,1244.5,1338.3,1203.7,1345z"/>
				</g>
				<g>
					
						<linearGradient id="SVGID_00000011019860119744190160000012056428231204624531_" gradientUnits="userSpaceOnUse" x1="1109.4037" y1="923.3135" x2="1119.5724" y2="909.7606">
						<stop  offset="0" style="stop-color:#FF8A78"/>
						<stop  offset="1" style="stop-color:#FFA799"/>
					</linearGradient>
					<path style="fill-rule:evenodd;clip-rule:evenodd;fill:url(#SVGID_00000011019860119744190160000012056428231204624531_);" d="
						M1122.6,893.4c10.9,4.2,11.5,8,22.6,27.7c7.5,13.3,16.5,17.5,28.3,23.8L1151,965c-9.3-7.6-14.1-5.1-26.5-13.1
						c-5.9-3.8-20.3-11.7-25.9-26c-5.7-14.7-23.2-21.1-35.1-31.4c-5.9-5.2,4.5-21.5,3.8-22.3C1076,872.7,1110.5,888.3,1122.6,893.4z
						"/>
					
						<linearGradient id="SVGID_00000179637659424587119900000014464398431232974268_" gradientUnits="userSpaceOnUse" x1="1274.1392" y1="1030.5901" x2="1311.5544" y2="845.4881">
						<stop  offset="0" style="stop-color:#965CF2"/>
						<stop  offset="1" style="stop-color:#FF8ADC"/>
					</linearGradient>
					<path style="fill-rule:evenodd;clip-rule:evenodd;fill:url(#SVGID_00000179637659424587119900000014464398431232974268_);" d="
						M1158.7,934.1c2.2,2.2,5.6,4.6,9.3,5.2c2.7,0.3,7.5-0.8,11.1,1.6c19.6,9.8,34.5,12.7,52.5,18.6c21.4,7,47.2,16.6,65.9,27.3
						c18.5-35.8,56.1-76.8,85-105.7c23.1-20.4,44.9-7,53.2,4.4c15.3,20.9,8.4,45.8-6,63.3c-24.6,29.6-68,61.1-96.4,89.1
						c-4.2,4.1-8.3,7.4-12.2,9.7c-5.4,4.5-13.1,6.2-21.4,3.9c-4.7-0.6-11.7-2.5-17.3-4.4c-21.9-7.1-51.3-21.9-71.6-34.6
						c-17.1-10.7-38.8-21.2-56.1-38.3c-1.6-1.6-3-6.1-4.8-7.5c-2.3-1.9-4.4-3.2-6.3-4.1C1136.9,956.8,1151.2,934.3,1158.7,934.1z"/>
				</g>
				<g>
					<path class="st24" d="M1358.6,780.2c-9.3,22.1-12.2,44.3-10.2,68.3c-22.8,13.1-54.6-2-58.8-19.6c4-9.8,8.1-18.8,11.6-29
						L1358.6,780.2z"/>
					
						<linearGradient id="SVGID_00000147931555949579894460000016068369553244174503_" gradientUnits="userSpaceOnUse" x1="1325.8312" y1="804.6894" x2="1325.061" y2="831.3693">
						<stop  offset="0" style="stop-color:#FF8A78"/>
						<stop  offset="1" style="stop-color:#FFA799"/>
					</linearGradient>
					<path style="fill-rule:evenodd;clip-rule:evenodd;fill:url(#SVGID_00000147931555949579894460000016068369553244174503_);" d="
						M1358.6,780.2c-4.5,10.6-7.5,21.2-9.2,32.1c-10.7,21.1-55.9,26.5-56.1,7.8c2.8-6.6,5.5-13.1,7.9-20.2L1358.6,780.2z"/>
					<path class="st24" d="M1303.2,665c-12.8,12.8-21.3,26.6-24,48.3c-0.7,5.5-2.2,8.7-4.6,11.8c-13.3,17.8-14,24.1-13.3,41
						c0.7,16.4-1.5,24.4,2.6,30.9c4.2,6.7,12,9.8,18.7,11.8c13.8,4.1,40.1,0.4,55.9-4c11.7-3.3,12.2-7.3,18.9-16.1
						c17.6-9.4,10.2-20.9,5.6-23c-13.5-6-19.5,9.7-28.7,11.4C1342.3,748.8,1299,688.1,1303.2,665z"/>
					
						<linearGradient id="SVGID_00000180333738127519940580000001244614326446967972_" gradientUnits="userSpaceOnUse" x1="1275.8749" y1="718.822" x2="1294.6301" y2="774.119">
						<stop  offset="0" style="stop-color:#FFB89E"/>
						<stop  offset="1" style="stop-color:#FFA799"/>
					</linearGradient>
					<path style="fill-rule:evenodd;clip-rule:evenodd;fill:url(#SVGID_00000180333738127519940580000001244614326446967972_);" d="
						M1294.4,675c-7.9,10.3-13.1,22.1-15.1,38.3c-0.7,5.5-2.2,8.7-4.6,11.8c-13.3,17.8-14,24.1-13.3,41c0.3,7.4,0,13,0,17.6
						c2.2,5.8,8.3,9.9,15.3,8.5c6.5-1.3,13.8-6.9,17.9-18.1c2.9-8,21-9.5,26.4-17.1c4.5-6.3-1.5-15.8-5.3-20.8
						C1302.5,718.4,1296.6,697.1,1294.4,675z"/>
					<path class="st31" d="M1303.2,665c-0.2,36.9,39.5,73.9,31.1,112.1C1330.9,734.6,1292.8,697.3,1303.2,665z"/>
				</g>
			</g>
			<path class="st24" d="M953.8,678.3c-10-6.5-14.1-9.4-21.5-13.3c0.3,13.4,5.5,19.9,13.6,24.2c6.4,8,9.6,19.5,16,25.6
				c9.6,9.2,19.7,6.1,12.8-10.9C970.2,692.7,958.2,681.1,953.8,678.3z"/>
		</g>
		
			<linearGradient id="SVGID_00000034060097871136778130000007448498896947924102_" gradientUnits="userSpaceOnUse" x1="1744.576" y1="1290.2356" x2="1690.3468" y2="1081.2672">
			<stop  offset="0" style="stop-color:#1C8EF4"/>
			<stop  offset="1" style="stop-color:#00CFDD"/>
		</linearGradient>
		
			<path style="opacity:0.5;fill-rule:evenodd;clip-rule:evenodd;fill:url(#SVGID_00000034060097871136778130000007448498896947924102_);" d="
			M1441.7,1437.7c270.3-41.6,475.3-166.7,538-335.5V881.8c-62.7,168.7-267.7,293.8-538,335.4V1437.7z"/>
		
			<linearGradient id="SVGID_00000036229982395503272080000013130217154110013886_" gradientUnits="userSpaceOnUse" x1="661.7329" y1="695.4318" x2="705.8834" y2="532.6494">
			<stop  offset="0" style="stop-color:#6D6AFE"/>
			<stop  offset="1" style="stop-color:#3FB0F7"/>
		</linearGradient>
		
			<path style="opacity:0.5;fill-rule:evenodd;clip-rule:evenodd;fill:url(#SVGID_00000036229982395503272080000013130217154110013886_);" d="
			M820.6,558.3C648.7,624.9,534.9,741,534.9,873.1V745c0-132.1,113.8-248.2,285.6-314.9V558.3z"/>
		
			<linearGradient id="SVGID_00000031901349602263070750000012898640412423767448_" gradientUnits="userSpaceOnUse" x1="1812.8926" y1="638.8577" x2="1841.6063" y2="489.9029">
			<stop  offset="0" style="stop-color:#6D6AFE"/>
			<stop  offset="1" style="stop-color:#3FB0F7"/>
		</linearGradient>
		
			<path style="opacity:0.5;fill-rule:evenodd;clip-rule:evenodd;fill:url(#SVGID_00000031901349602263070750000012898640412423767448_);" d="
			M1709.7,357.2c136.9,67.8,221.7,161.7,221.7,265.4c0,51.3,0,153.3,0.1,218.5c-38.5-61.5-99.6-150-221.8-213V357.2z"/>
		<g>
			<g>
				
					<linearGradient id="SVGID_00000001641327016072959950000009800948343007807924_" gradientUnits="userSpaceOnUse" x1="549.2437" y1="826.3753" x2="463.3627" y2="620.4819">
					<stop  offset="0" style="stop-color:#6D6AFE"/>
					<stop  offset="1" style="stop-color:#3FB0F7"/>
				</linearGradient>
				
					<path style="opacity:0.5;fill-rule:evenodd;clip-rule:evenodd;fill:url(#SVGID_00000001641327016072959950000009800948343007807924_);" d="
					M506.3,514.7h-2.1v346.8v11.9h0.3c2.5,68.2,26.5,133.2,68,192.7V683C536,630.6,513,574,506.3,514.7z"/>
				
					<linearGradient id="SVGID_00000183930068331273904590000002085737127958705805_" gradientUnits="userSpaceOnUse" x1="1190.6244" y1="1251.6005" x2="394.7239" y2="972.9393">
					<stop  offset="0" style="stop-color:#6D6AFE"/>
					<stop  offset="1" style="stop-color:#3FB0F7"/>
				</linearGradient>
				
					<path style="opacity:0.5;fill-rule:evenodd;clip-rule:evenodd;fill:url(#SVGID_00000183930068331273904590000002085737127958705805_);" d="
					M1236.1,1511.4C958.5,1481.7,726,1373.8,603.6,1227V765.1c122.4,146.8,354.9,254.7,632.5,284.5V1511.4z"/>
				
					<linearGradient id="SVGID_00000108294671783907336190000007081749568257492887_" gradientUnits="userSpaceOnUse" x1="542.299" y1="1187.9189" x2="617.2196" y2="905.4339">
					<stop  offset="0" style="stop-color:#1C8EF4"/>
					<stop  offset="1" style="stop-color:#00CFDD"/>
				</linearGradient>
				
					<path style="opacity:0.5;fill-rule:evenodd;clip-rule:evenodd;fill:url(#SVGID_00000108294671783907336190000007081749568257492887_);" d="
					M665.2,1181.5c-63.5-55.6-109.8-118.8-134.4-186.8V774.3c24.6,68.1,70.9,131.3,134.4,186.8V1181.5z"/>
			</g>
			<g>
				<g>
					<polygon class="st38" points="848.9,1081.8 837.4,1211.8 947.8,1216.5 					"/>
					<path class="st38" d="M873.9,1264.3c-44.5-27.1-78.3-91.7-75.6-144.2c2.7-52.5,40.9-73.1,85.4-46
						c44.5,27.1,78.3,91.7,75.6,144.2C956.6,1270.9,918.4,1291.5,873.9,1264.3L873.9,1264.3z M872.8,1286.6
						c54.9,33.5,102,8.1,105.4-56.7c3.3-64.8-38.4-144.5-93.3-177.9c-54.9-33.5-102-8.1-105.4,56.7
						C776.1,1173.4,817.9,1253.1,872.8,1286.6z"/>
				</g>
				<g>
					<path class="st38" d="M1196.6,1454.3c4.8,0.5,8.3,4.9,7.8,9.7c-0.5,4.8-4.9,8.3-9.7,7.8c-122.4-13.1-235.1-43.3-330.8-86.4
						c-97.8-44-178.1-101.5-233.5-167.9c-3.1-3.7-2.6-9.3,1.1-12.4c3.7-3.1,9.3-2.6,12.4,1.1c53.6,64.3,131.8,120.2,227.2,163.1
						C965.2,1411.7,1076,1441.4,1196.6,1454.3z"/>
					<path class="st38" d="M822.9,1349.4c3,1.6,4.2,5.3,2.6,8.3c-1.6,3-5.3,4.2-8.3,2.6c-38.3-20.1-73.2-42.5-104.3-66.8
						c-30.9-24.2-57.9-50.2-80.5-77.7c-2.2-2.6-1.8-6.5,0.9-8.7c2.6-2.2,6.5-1.8,8.7,0.9c22,26.9,48.4,52.3,78.5,75.8
						C750.9,1307.6,785.2,1329.6,822.9,1349.4z"/>
				</g>
			</g>
		</g>
		<g>
			<g>
				
					<linearGradient id="SVGID_00000075860319431417021680000003889941889554435979_" gradientUnits="userSpaceOnUse" x1="1715.5698" y1="1120.3409" x2="1654.913" y2="1065.5309">
					<stop  offset="0" style="stop-color:#1C8EF4"/>
					<stop  offset="1" style="stop-color:#00CFDD"/>
				</linearGradient>
				<path style="fill-rule:evenodd;clip-rule:evenodd;fill:url(#SVGID_00000075860319431417021680000003889941889554435979_);" d="
					M1634.5,1336.1l241.9-140.6L1820.2,929l0-0.1l0,0l0,0l0-0.1l0,0l0-0.1l0,0l0-0.1l0-0.1l0,0l0-0.1v0l0-0.1l0,0l0,0l0-0.1l0,0
					l0-0.1l0,0l0-0.1l0-0.1l0,0l0-0.1l0,0l0-0.1l0-0.1l0,0l0-0.1h0l0-0.1l0,0l0-0.1l0-0.1l0,0l0-0.1l0,0l0-0.1l0-0.1l0,0l0-0.1l0,0
					l0-0.1l0-0.1l0-0.1l0-0.1l0,0l-0.1-0.1l0,0l0-0.1l0-0.1l0,0l-0.1-0.1l0,0l0-0.1l0-0.1l0,0l-0.1-0.1h0l-0.1-0.1l0,0l0-0.1
					l-0.1-0.1l0,0l-0.1-0.1l0,0l-0.1-0.1l0-0.1l0,0l-0.1-0.1l0,0l-0.1-0.1l0-0.1l0-0.1l-0.1-0.1l0,0l-0.1-0.1l0,0l-0.1-0.1l-0.1-0.1
					l-0.1-0.1l0,0l-0.1-0.1l0-0.1l0,0l-0.1-0.1l-0.1-0.1l0,0l-0.1,0l-0.1-0.1l0,0l-0.1-0.1l0,0l-0.1-0.1l-0.1-0.1l0,0l-0.1-0.1l0,0
					l-0.1-0.1l-0.1,0l-0.1,0l-0.1-0.1l0,0l-0.1-0.1l0,0l-0.1,0c-1-0.6-2.2-0.7-3.6-0.2l-241.9,140.6
					C1579.1,1058.9,1611.3,1257.5,1634.5,1336.1z"/>
				<path class="st40" d="M1820.2,929c-101.6,116.4-222.8,188.3-210.9,289.3l25.2,117.7l241.9-140.6L1820.2,929z"/>
			</g>
			<g>
				<polygon class="st41" points="1637.9,1038.7 1643.3,1309 1897,1162.6 1896.3,894.6 				"/>
				<polygon class="st42" points="1642.6,1041 1637.3,1038 1638,1305.9 1643.3,1309 				"/>
				<polygon class="st43" points="1896.3,894.6 1890.9,891.5 1637.3,1038 1642.6,1041 				"/>
				<path class="st42" d="M1652.2,1251l0.1,16.9l234.8-135.6l-0.1-16.9L1652.2,1251L1652.2,1251z M1651.7,1056.7l0,16.9l234.8-135.6
					l-0.1-16.9L1651.7,1056.7L1651.7,1056.7z M1651.8,1084.5l234.8-135.6l0.1,16.9l-234.8,135.6L1651.8,1084.5L1651.8,1084.5z
					 M1651.9,1112.2l234.8-135.6l0,16.9l-234.8,135.5L1651.9,1112.2L1651.9,1112.2z M1651.9,1140l234.8-135.6l0.1,16.9L1652,1156.9
					L1651.9,1140L1651.9,1140z M1652,1167.7l234.8-135.6l0.1,16.9l-234.8,135.6L1652,1167.7L1652,1167.7z M1652.1,1195.5
					l234.8-135.6l0.1,16.9l-234.8,135.6L1652.1,1195.5L1652.1,1195.5z M1652.2,1223.3l234.8-135.6l0.1,16.9l-234.8,135.6
					L1652.2,1223.3z"/>
			</g>
			
				<linearGradient id="SVGID_00000168086054428345048850000016384533068101198261_" gradientUnits="userSpaceOnUse" x1="1820.7037" y1="1211.5017" x2="1747.2625" y2="1049.4763">
				<stop  offset="0" style="stop-color:#1C8EF4"/>
				<stop  offset="1" style="stop-color:#00CFDD"/>
			</linearGradient>
			<path style="fill-rule:evenodd;clip-rule:evenodd;fill:url(#SVGID_00000168086054428345048850000016384533068101198261_);" d="
				M1700,1142.4l-57.7,202.8l0,0c-0.8,2.1-2.4,5.2-3.5,6.5l241.9-140.5c2.1-1.2,3.3-4.5,3.6-6.4l57.7-202.8l-0.1,0l10.8-38
				c0.5-2.9-1.5-6.3-2.1-6.9c-10,9.1-63.7,42-73.6,47.8c-16.6,13-17.1,29-42.2,55.6c-4.8,5.1-6.5,6.4-12.4,9.9L1700,1142.4z"/>
			<path class="st45" d="M1697,1134.6c-0.4-0.4-0.8-0.7-1.2-0.9c-1.9-1.1-3.6-0.6-4.2,1.3l-57.1,201.1l-56.1-266.5
				c-0.5-2.5-2.2-4.9-4.1-6c-0.4-0.2-0.8-0.4-1.2-0.5c-2.3-0.6-3.7,1.4-3,4.3l56.5,268.3c1,4.6,2.2,8.1,3.4,10.5
				c1.3,2.5,2.8,4.1,4.5,5.1c1.7,1,3.2,1,4.5,0.1c1.3-1,2.4-3.1,3.3-6.3l57.7-202.8C1700.6,1140.1,1699.2,1136.6,1697,1134.6z"/>
			<path class="st46" d="M1814.7,1062.5l-122,70.9c3.2-1.6,8,5.6,7.2,9l123.2-71.6c4.1-2.4,6.7-3.8,10.3-6.6
				c17.5-13.8,25.8-32.8,37.2-48.1c3.3-4.4,6.5-7.4,9.8-9.9c3-1.7,4.7-2.5,4.1-2.3l68-40c0.5-2.9-1.5-6.2-2.1-6.8
				c-1.3-1.4-3.3-3.1-5.1-2.1l-68.1,40.1c0.5-0.3-1.1,0.6-4.1,2.3c-3.3,2.5-6.5,5.6-9.8,9.9c-12.1,16.2-20.8,34.5-40.4,49.9
				C1820.1,1059.3,1817.8,1060.7,1814.7,1062.5z"/>
		</g>
		
			<linearGradient id="SVGID_00000043451159802680362100000000663811819688296106_" gradientUnits="userSpaceOnUse" x1="1148.9508" y1="1748.4286" x2="1167.1234" y2="1685.0618">
			<stop  offset="0" style="stop-color:#1C8EF4"/>
			<stop  offset="1" style="stop-color:#00CFDD"/>
		</linearGradient>
		<path style="fill-rule:evenodd;clip-rule:evenodd;fill:url(#SVGID_00000043451159802680362100000000663811819688296106_);" d="
			M1159.5,1674.1c20,0,36.2,16.7,36.2,37.4c0,20.6-16.2,37.4-36.2,37.4c-20,0-36.2-16.7-36.2-37.4
			C1123.3,1690.8,1139.5,1674.1,1159.5,1674.1z"/>
		
			<linearGradient id="SVGID_00000088812679247471896440000009100873661058333339_" gradientUnits="userSpaceOnUse" x1="1934.4132" y1="865.0787" x2="1958.8738" y2="812.8228">
			<stop  offset="0" style="stop-color:#6D6AFE"/>
			<stop  offset="1" style="stop-color:#3FB0F7"/>
		</linearGradient>
		<path style="fill-rule:evenodd;clip-rule:evenodd;fill:url(#SVGID_00000088812679247471896440000009100873661058333339_);" d="
			M1947,806.7c16.8,0,30.4,14.1,30.4,31.4c0,17.3-13.6,31.4-30.4,31.4c-16.8,0-30.4-14.1-30.4-31.4
			C1916.6,820.8,1930.2,806.7,1947,806.7z"/>
		<g>
			
				<linearGradient id="SVGID_00000147221094398294061930000005907367233901511352_" gradientUnits="userSpaceOnUse" x1="746.4221" y1="515.9102" x2="780.7557" y2="209.1814">
				<stop  offset="0" style="stop-color:#1C8EF4"/>
				<stop  offset="1" style="stop-color:#00CFDD"/>
			</linearGradient>
			<path style="fill-rule:evenodd;clip-rule:evenodd;fill:url(#SVGID_00000147221094398294061930000005907367233901511352_);" d="
				M645.2,358.9l0.6,196.9c0,14.4,10.3,20.2,22.8,13l184.2-106.3c12.5-7.2,22.7-24.9,22.7-39.3l-0.8-272.4c0-14.4-10.3-20.2-22.8-13
				l-120.3,69.5L645.2,358.9z"/>
			<g>
				<path class="st50" d="M819.2,382.3c-5.1,1.7-10.2,6.1-14.9,11.4c-8.9,10.1-14.3,25.9-19.5,41.3c-8.3,24-16.2,47.3-36.2,60.1
					c-0.7,0.4-1.4,0.9-2,1.2c-19,11-33.3,2.3-48.9-7.2c-9.9-6-20.5-12.5-32.4-13.2c-6.3-0.4-5.3-10.3,1-13.9
					c1.3-0.8,2.6-1.2,3.9-1.1c13.9,0.8,25.4,7.7,36.1,14.3c39.3,23.4,53.5-8.3,64.5-40.1c6.6-19.5,11.8-39.1,24.6-53.7
					c6.3-7.2,14.1-11.8,22.1-13.1c1.2-12.9,10.2-22.9,21.1-22.9c11.7,0,21.2,11.6,21.2,25.9c0,14.3-9.5,25.9-21.2,25.9
					C830,397.1,822.7,391.1,819.2,382.3z"/>
				<g>
					<path class="st50" d="M844.6,244.7l-89.5,51.7c-3.8,2.2-6.8,0.5-6.8-3.8l0-13.2c0-4.3,3-9.5,6.8-11.7l89.5-51.7
						c3.7-2.1,6.7-0.3,6.7,3.9l0,13.2C851.3,237.4,848.3,242.6,844.6,244.7z"/>
					<path class="st50" d="M675.5,384.6c-2.6,1.5-4.7,0.3-4.7-2.7l0-9.3c0-3,2.1-6.6,4.7-8.1l171.2-98.8c2.6-1.5,4.7-0.3,4.7,2.7
						l0,9.3c0,3-2.1,6.6-4.7,8.1L675.5,384.6z"/>
				</g>
			</g>
			<g>
				
					<linearGradient id="SVGID_00000119832467983183086390000006692061565867467698_" gradientUnits="userSpaceOnUse" x1="715.6586" y1="433.6619" x2="684.2322" y2="280.1443">
					<stop  offset="0" style="stop-color:#6D6AFE"/>
					<stop  offset="1" style="stop-color:#3FB0F7"/>
				</linearGradient>
				
					<path style="opacity:0.5;fill-rule:evenodd;clip-rule:evenodd;fill:url(#SVGID_00000119832467983183086390000006692061565867467698_);" d="
					M645.3,398.5c13.1-12.2,45.5-36.9,70.8-60.2c22.6-20.8,22.6-31.9,21-57.3l-4.7-74.2l-1,0.6l-86.2,151.4L645.3,398.5z"/>
				<path class="st46" d="M645.2,358.9L709,322c12.6-7.3,22.8-25,22.8-39.3l-0.2-75.4L645.2,358.9z"/>
			</g>
		</g>
		<g>
			
				<linearGradient id="SVGID_00000041998201486614297050000001141052717551223949_" gradientUnits="userSpaceOnUse" x1="1759.251" y1="533.1925" x2="1715.9277" y2="223.6071">
				<stop  offset="0" style="stop-color:#965CF2"/>
				<stop  offset="1" style="stop-color:#FF8ADC"/>
			</linearGradient>
			<path style="fill-rule:evenodd;clip-rule:evenodd;fill:url(#SVGID_00000041998201486614297050000001141052717551223949_);" d="
				M1858,383l-0.6,196.9c0,14.4-10.3,20.2-22.8,13l-184.2-106.3c-12.5-7.2-22.7-24.9-22.7-39.3l0.8-272.4c0-14.4,10.3-20.2,22.8-13
				l120.3,69.5L1858,383z"/>
			<g>
				<path class="st53" d="M1658.6,268.8l89.5,51.7c3.8,2.2,6.8,0.5,6.8-3.8l0-13.2c0-4.3-3-9.5-6.8-11.7l-89.5-51.7
					c-3.7-2.1-6.7-0.3-6.7,3.9l0,13.2C1651.9,261.5,1654.9,266.7,1658.6,268.8z"/>
				<path class="st53" d="M1827.8,414.1c2.6,1.5,4.7,0.3,4.7-2.7l0-9.3c0-3-2.1-6.6-4.7-8.1l-171.2-98.8c-2.6-1.5-4.7-0.3-4.7,2.7
					l0,9.3c0,3,2.1,6.6,4.7,8.1L1827.8,414.1z"/>
				<path class="st53" d="M1827.8,460.5c2.6,1.5,4.7,0.3,4.7-2.7l0-9.3c0-3-2.1-6.6-4.7-8.1l-171.2-98.8c-2.6-1.5-4.7-0.3-4.7,2.7
					l0,9.3c0,3,2.1,6.6,4.7,8.1L1827.8,460.5z"/>
				<path class="st53" d="M1827.8,506.9c2.6,1.5,4.7,0.3,4.7-2.7l0-9.3c0-3-2.1-6.6-4.7-8.1l-171.2-98.8c-2.6-1.5-4.7-0.3-4.7,2.7
					l0,9.3c0,3,2.1,6.6,4.7,8.1L1827.8,506.9z"/>
				<path class="st53" d="M1827.8,555.1c2.6,1.5,4.7,0.3,4.7-2.7l0-9.3c0-3-2.1-6.6-4.7-8.1l-171.2-98.8c-2.6-1.5-4.7-0.3-4.7,2.7
					l0,9.3c0,3,2.1,6.6,4.7,8.1L1827.8,555.1z"/>
			</g>
			<g>
				
					<linearGradient id="SVGID_00000177475308682075679620000000863061900212513201_" gradientUnits="userSpaceOnUse" x1="1794.3612" y1="424.4724" x2="1825.788" y2="270.953">
					<stop  offset="0" style="stop-color:#6D6AFE"/>
					<stop  offset="1" style="stop-color:#3FB0F7"/>
				</linearGradient>
				
					<path style="opacity:0.5;fill-rule:evenodd;clip-rule:evenodd;fill:url(#SVGID_00000177475308682075679620000000863061900212513201_);" d="
					M1857.9,422.6c-13.1-12.2-45.5-36.9-70.8-60.2c-22.6-20.8-22.6-31.9-21-57.3l4.7-74.2l1,0.6l86.2,151.4L1857.9,422.6z"/>
				<path class="st55" d="M1858,383l-63.8-36.8c-12.6-7.3-22.8-25-22.8-39.3l0.2-75.4L1858,383z"/>
			</g>
		</g>
		<g>
			<path class="st56" d="M1445.2,287.2c0-2.6,5.7-30.3,8.6-32.3c4.2-2.9,8.9-6.4,11.6-7.7c9.3-4.5,21-4.6,33.8,1l163.7,74.2
				c29.8,13.1,53.9,51.8,53.9,86.4l-1,173.7c0,10.7-2.2,24.8-10.3,33.5c-5.8,6.2-15.8,12.2-23.4,13.9c-7.7,1.8-10.8-4.2-20.3-8.4
				l-163.7-74.2c-29.8-13.1-53.9-51.8-53.9-86.4L1445.2,287.2z"/>
			<path class="st50" d="M1437.9,292.5c0-34.6,24.2-52.1,54-39l163.7,74.2c29.8,13.1,53.9,51.8,53.9,86.4l-1,173.7
				c0,34.6-24.2,52-54,39l-163.7-74.2c-29.8-13.1-53.9-51.8-53.9-86.4L1437.9,292.5z"/>
			
				<linearGradient id="SVGID_00000038398070224612251540000007505400087241971632_" gradientUnits="userSpaceOnUse" x1="1561.6327" y1="598.7426" x2="1580.9038" y2="531.1219">
				<stop  offset="0" style="stop-color:#6D6AFE"/>
				<stop  offset="1" style="stop-color:#3FB0F7"/>
			</linearGradient>
			<path style="fill-rule:evenodd;clip-rule:evenodd;fill:url(#SVGID_00000038398070224612251540000007505400087241971632_);" d="
				M1686.4,628.6c-15.9-40-26.1-61.6-55.2-71.2c-10.1-3.3-24.2-1.5-39.5-8.9l-43.9-15.5c-21.1-13-32.7-25.3-43.7-30
				c-18.6-7.9-29.9-2.5-52.3,13.1c9.8,16.2,23.6,29.7,38.9,36.4l163.7,74.2C1666.5,631.9,1677.5,632.3,1686.4,628.6z"/>
			
				<linearGradient id="SVGID_00000077322101706366977680000005467335178056161167_" gradientUnits="userSpaceOnUse" x1="1574.1771" y1="347.2934" x2="1592.4177" y2="302.7652">
				<stop  offset="0" style="stop-color:#6D6AFE"/>
				<stop  offset="1" style="stop-color:#3FB0F7"/>
			</linearGradient>
			<path style="fill-rule:evenodd;clip-rule:evenodd;fill:url(#SVGID_00000077322101706366977680000005467335178056161167_);" d="
				M1437.9,292.5c0-34.6,24.2-52.1,54-39l163.7,74.2c29.8,13.1,53.9,51.8,53.9,86.4l0,2.5c-2.6-1.4-5.3-2.8-8-3.9l-263.6-119.5
				L1437.9,292.5z"/>
			<g>
				<path class="st59" d="M1601.2,414.9c-10.7-7.6-21.3-15.2-32-22.8c-10.7-7.6-21.4-15.2-32.1-22.9c-4,4.9-8,9.8-12,14.6
					c0.3,14.8-1.4,19.9,3.1,36.4c1.4,5,2.6,10.1,3.6,15.1c2.2,8.8,4.3,17.6,6.4,26.4c10.5,5.5,20.9,11.1,31.3,16.6
					c8.3,3.2,16.7,6.4,25,9.5c3.9-14,5.7-25.9,6.7-34.7C1603.1,438.8,1602.5,424.4,1601.2,414.9z"/>
				
					<linearGradient id="SVGID_00000073718587873094217480000004381705047374038932_" gradientUnits="userSpaceOnUse" x1="1578.0359" y1="505.7865" x2="1574.4796" y2="525.5202">
					<stop  offset="0" style="stop-color:#FF8A78"/>
					<stop  offset="1" style="stop-color:#FFA799"/>
				</linearGradient>
				<path style="fill-rule:evenodd;clip-rule:evenodd;fill:url(#SVGID_00000073718587873094217480000004381705047374038932_);" d="
					M1591.5,496.9c-0.1,13.4,3.6,21.6,8.4,29.3c5.9,9.3,15.3,17.2,29.1,27.7c19.4,14.7,25.9,20.4,29.6,29.1c1.1,2.6,1.9,5.5,2.5,8.7
					c-6.5,6.5-14,11.5-22.3,14.8c-22.6-9.9-45.2-19.8-67.8-29.7c-22.9-10-45.8-20.1-68.8-30.1c-8.9-11.1-16.9-23.2-23.9-36
					c0.4-2.5,1-4.5,1.9-6.1c3.2-5.7,9.6-5.7,28.7-3.6c13.6,1.5,22.8,1.8,28.2-2.6c4.1-3.4,6.7-9.1,6.2-21.1c0-0.9-0.1-1.8-0.1-2.8
					c11.8,6.9,18,10.8,24.2,13.7C1573.5,491.3,1579.7,493.4,1591.5,496.9z"/>
				
					<linearGradient id="SVGID_00000126286290440072441490000002784249393887191699_" gradientUnits="userSpaceOnUse" x1="1563.5526" y1="612.199" x2="1581.3989" y2="509.0576">
					<stop  offset="0" style="stop-color:#6D6AFE"/>
					<stop  offset="1" style="stop-color:#3FB0F7"/>
				</linearGradient>
				<path style="fill-rule:evenodd;clip-rule:evenodd;fill:url(#SVGID_00000126286290440072441490000002784249393887191699_);" d="
					M1601.2,528c5.9,8.5,15,16,27.9,25.8c19.4,14.7,25.9,20.4,29.6,29.1c1.1,2.6,1.9,5.5,2.5,8.7c0.7,9,1.4,23.2,1.9,37.9
					c-2.8-0.7-5.7-1.7-8.7-3l-163.7-74.2c-4.8-2.1-9.4-4.9-13.8-8.1c0.3-13.6,0.8-26,1.4-33.5c0.4-2.5,1-4.5,1.9-6.1
					c1.6-2.9,4.1-4.6,8.6-5.1c4.4-0.4,10.7,0.4,20.1,1.4c11.7,1.3,20.1,1.7,25.6-0.9c4.4,14.8,20.4,28.1,35.5,34.5
					C1585.3,541,1599.8,540.5,1601.2,528z"/>
				<path class="st62" d="M1607.5,535.5c-5.2,15.5-21.4,15.6-37.8,7.6c-16.5-8-33.3-24.2-39.8-41.6c2.1-0.9,4.3-1.8,6.4-2.7
					c2.9,8.4,16.6,21.9,30.7,29.9c14,8,28.4,10.4,33-3.1C1602.4,529,1605,532.3,1607.5,535.5z"/>
				<path class="st24" d="M1598.5,454.4c0.2-0.4,0.3-0.7,0.5-1c1.9-3.4,4.5-3.3,6-1.2c5,6.8,0.5,13.7-1,17.8c-0.8,4.3,0.3,9-3.5,8.9
					c-1.8-0.1-3-2-4.9-7.3c0-5.7,0-11.4,0-17.1C1596.7,454.5,1597.6,454.4,1598.5,454.4z"/>
				<path class="st24" d="M1533.1,425.4c-0.2-0.5-0.4-1.1-0.6-1.6c-2.3-5.2-4.9-7.5-6.3-6.7c-4.6,2.6,0.5,13.8,2.5,19.4
					c1.1,5.2,0.4,9.1,4.4,12.4c1.9,1.6,3,0.6,4.5-3.1c-0.5-5.9-0.9-11.8-1.4-17.7C1535,427.2,1534,426.3,1533.1,425.4z"/>
				<path class="st24" d="M1556.2,492.9c-2-2.5-3.8-5.4-6.5-9.3c-3.5-4.9-9-10.8-11-15.8c-2.3-5.9-2.2-12.2-2.8-18.6
					c-0.4-4.5-2.3-9.5-3.4-15.5c-0.6-3.2-1-7.6-1.3-12c-0.2-3.4-0.3-6.9-0.3-10.2c0.2-23.1,4-43.6,29.3-32.6l0,0
					c0.4,0.2,0.8,0.4,1.2,0.5c0.4,0.2,0.9,0.4,1.3,0.6c0.2,0.1,0.5,0.2,0.7,0.3c0.2,0.1,0.5,0.2,0.7,0.3c0.4,0.2,0.9,0.4,1.3,0.5
					c0.4,0.2,0.8,0.4,1.2,0.5l0,0c25.3,11.6,30.7,36.2,32.8,60.2c0.3,3.4,0.5,6.9,0.5,10.3c0.1,4.3,0,8.5-0.3,11.2
					c-0.6,5.2-2.3,8.6-2.3,12.9c-0.1,6.1,0.5,12.7-1.4,16.7c-1.6,3.5-6.9,4.6-10,6.6c-2.5,1.6-4.1,3-6,3.8c-1.2,0.5-2.6,0.8-4.5,0.6
					c-2.6-0.2-11.9-4.3-14.6-6.4C1558.9,496.1,1557.5,494.6,1556.2,492.9z"/>
				<g>
					<path class="st59" d="M1598.3,472.4c-0.6,2.3-0.8,4.5-0.8,6.8c-0.1,6.8,0.5,10.9-1.3,15c-1.6,3.5-7.2,6.6-10.4,8.6
						c-4.1,2.6-7.4,4.8-12.1,4.4c-1.4-0.1-3.6-0.9-5.7-1.8c-2.2-0.9-4.4-2.1-5.8-3.2c-4.9-3.8-8.4-9-12.9-15.4
						c-3.5-4.9-9.2-12.5-10.9-18c-1.9-6-1.8-9.6-2.5-16.9c-0.2-2.4-0.8-4.9-1.6-7.8c0.5,0.7,1,1.4,1.6,2.1
						c2.3,8.7,4.2,10.6,6.5,16.2c1.7,4.1,2.3,6,3.1,8.2c1.3,3.8,2.8,5.6,5.9,7.8c-1.1-3.5-3.3-8-2.5-9.4c0.2-0.3,4,0.5,7-2.3
						c2.8-2.7,3.3-3.9,5.9-2.4c2.5,1.5,3.8,2.9,4.9,3.4c1.2,0.5,2.1,0.1,4.6,0.8c2.6,0.7,3.2,2.5,6.3,7.8c3.2,5.5,7.2,8.2,7.4,8.6
						c0.9,2.1-1,4.8-1.9,7.4c3,0.6,4.4-0.1,5.5-2.8c0.6-1.6,1-3,2.5-5.7c1.9-3.7,4.8-3.4,6.5-10.4
						C1597.7,473,1598,472.8,1598.3,472.4L1598.3,472.4z M1563.9,482.6c2,0.6,2.8,0.9,3.5,1.1c0.7,0.3,1.4,0.6,3.6,2
						c1.8,1.1,3,1.5,4,1.5c1.3,0,2.7-0.3,4.1-0.9c1.1-0.5,2.3-1,3-1.8c-0.1-0.1-0.2-0.1-0.3-0.2c0.1,0,0.2,0,0.3,0
						c-3.1-2.1-4.5-3.6-5.7-4.9c-2.3-2.8-3.1-4.3-6-5.8c-1.1-0.6-2.3-0.7-3.3,0.8c-1.2-2.2-2.4-3.3-3.4-3.7
						c-2.7-1.1-3.7-0.4-5.7,0.4c-1.1,0.4-2.5,0.7-5.7,0.1c0.1,0.1,0.2,0.2,0.3,0.2c-0.1,0-0.2,0-0.3-0.1c0.7,1.4,2,3,3.2,4.5
						c1.5,1.8,3,3.5,4.4,4.6C1561,481.5,1562.2,482.1,1563.9,482.6z"/>
					<path class="st59" d="M1566.9,405c8.5,5.8,8.7,3.3,12.8,5.4c2.5,1.3,3.9,4.1,8.2,5.3c2,11.8,1.9,12.8,8.8,24.2
						c0.1,2.6,0.3,5.2,0.5,7.8c0.3,4.1,0.5,7.6,0.7,10.7c0.4,7.3-1,13.5-0.2,19.5c1.4-7.5,3.1-11.6,3.4-20.1
						c0.1-1.9-0.5-3.4-0.1-5.4c0.8-4,0.2-8.6-0.7-11.3c0.1-2.1,1.8-1.4,2-2.8c0.2-1.4-0.8-3.3-0.9-4.8c0-1.5,1-2.4,0.7-4
						c-0.4-2.1-0.8-4.2-1.3-6.4c1.9-2.4,3.3-4.3,5-6.9c-0.7-0.7-1.3-1.4-2-2.2c2.2-7.4-2-8.5-2.1-11.4c-0.1-2.1,1.5-1.3,2.3-0.3
						c1.4,1.8,2.4,5.8,2.6,6c0.9-11.8-7.7-17.9-16.3-24.9c-3.7-13.3-15.7-18.1-23.3-18.4c-8.7-13-19.5-12.9-27.1-8.4
						c-7.6-0.2-12.5-0.9-13.8,14.3c-0.5-4.3-0.4-7.5-0.2-11.6c-1,4.2-1.6,7.6-0.9,12.6c-2.9-3.6-3-4-5.3-8.1c0.6,5.5,1,6.5,2.8,12.2
						c-0.8-0.8-1.6-1.6-2.4-2.4c0.8,4.2,0.8,5,2.4,9.3c-1.2-1-2.5-2.1-3.7-3.2c1.6,8.6,2.2,11.4,6.6,17.8c0.3,4,0.8,9.9,1.7,13.5
						c0.9,3.6,1.5,5.9,2.3,8.6c0.8,2.6,1.7,4.9,2,6.8c0.4,1.9,1,3.3,1.1,4.8c0.7,11.2-0.4,10.1,4.3,21.8c-0.6-10.3-2.7-9.9-2.9-22.2
						c0-1.4-1.2-9.1-0.9-14.2c0.2-3,1.9-2.9,1.8-6.3c-0.3-11.3-4.3-19.8,2.8-17.1c7.9,3.1,10.7,8.7,16.5,4
						C1561.4,403.9,1563.1,404.3,1566.9,405z"/>
					<path class="st63" d="M1530.9,393.9c-3.8,5.9-4.7,10-1.4,17.6c2.8,6.6,2.8,8,3.4,14.1c-0.1-2.7-0.6-10.1-0.4-11.9
						c0.5-3.7,2.6-6.8,0.7-16.7c0.7,9.7-1.6,11.3-1.8,16.8c-0.1-3.2,0.5-6,0.6-9.1c0.1-2.5-0.3-5.3-0.2-7.8
						c-0.5,2.5-0.9,4.6-1.1,6.8c-0.2,2.2-0.2,4.5-0.6,7C1529,402.9,1529.1,400.2,1530.9,393.9z"/>
				</g>
			</g>
			<g>
				<path class="st50" d="M1466.9,263.2c5.8,0.7,10.9,6.9,11.5,13.7c0.6,6.9-3.6,11.9-9.3,11.2c-5.8-0.7-10.9-6.9-11.5-13.7
					C1456.9,267.5,1461.1,262.5,1466.9,263.2z"/>
				<path class="st50" d="M1494.2,275.2c5.8,0.7,10.9,6.9,11.5,13.7c0.6,6.9-3.6,11.9-9.3,11.2c-5.8-0.7-10.9-6.9-11.5-13.7
					C1484.3,279.5,1488.5,274.5,1494.2,275.2z"/>
				<path class="st50" d="M1523.9,288.3c5.8,0.7,10.9,6.9,11.5,13.7c0.6,6.9-3.6,11.9-9.3,11.2c-5.8-0.7-10.9-6.9-11.5-13.7
					C1513.9,292.6,1518.1,287.6,1523.9,288.3z"/>
			</g>
			<g>
				
					<linearGradient id="SVGID_00000005954338566395308940000001325807021127865995_" gradientUnits="userSpaceOnUse" x1="1468.2222" y1="383.9595" x2="1473.6516" y2="329.8569">
					<stop  offset="0" style="stop-color:#6D6AFE"/>
					<stop  offset="1" style="stop-color:#3FB0F7"/>
				</linearGradient>
				<path style="fill-rule:evenodd;clip-rule:evenodd;fill:url(#SVGID_00000005954338566395308940000001325807021127865995_);" d="
					M1468.1,331.9c13.1,1.6,24.8,15.6,26.2,31.2c1.4,15.6-8.1,27-21.2,25.3c-13.1-1.6-24.8-15.6-26.2-31.2
					C1445.6,341.6,1455,330.3,1468.1,331.9z"/>
				<polygon class="st50" points="1460.6,341.2 1460.3,376.3 1490.1,374.1 				"/>
			</g>
		</g>
		<g>
			<g>
				
					<linearGradient id="SVGID_00000048497312878876738480000000316339127969057956_" gradientUnits="userSpaceOnUse" x1="973.7555" y1="390.2094" x2="775.726" y2="481.3024">
					<stop  offset="0" style="stop-color:#6D6AFE"/>
					<stop  offset="1" style="stop-color:#3FB0F7"/>
				</linearGradient>
				<path style="fill-rule:evenodd;clip-rule:evenodd;fill:url(#SVGID_00000048497312878876738480000000316339127969057956_);" d="
					M1072.3,306.3c-17.2,4.2-27.2,11.7-38.4,23.3c0.1-2.5,0.3,6.8,0.2-7.5c0-5-11.7-56.8-18.2-61.1c-7.9-5.2-16.4-10.2-19.5-11.7
					c-10.9-5.4-23.6-6.9-37.1-3.7c-20.6,4.9-39.2,20-52.7,40.5c-13.6,20.5-22,58.2-22,72.7c0,14.4,0.1,5,0.2,7.5
					c-11.5-6.1-21.7-8.7-39.4-4.3c-17.7,4.3-40,20.5-53.8,41.3C777.8,424,769.1,450.3,769,477c-0.1,20.8,5.2,38.6,14.1,52.4
					c9,13.8,26.3,25.1,38.5,31.9c35.2,20.1,103-27.2,138.8-36.4c38-9.8,75.8-19.5,113.3-29.1c20.5-5.3,38.8-20.6,52-41.2
					c13.1-20.5,21-46.3,20.8-72.3c-0.1-5.4-10-54.5-12.6-56.7C1112,307.8,1089.8,302,1072.3,306.3z"/>
				
					<linearGradient id="SVGID_00000178910856902146648150000009468986608366149521_" gradientUnits="userSpaceOnUse" x1="903.2118" y1="539.9359" x2="1044.6823" y2="326.813">
					<stop  offset="0" style="stop-color:#6D6AFE"/>
					<stop  offset="1" style="stop-color:#3FB0F7"/>
				</linearGradient>
				<path style="fill-rule:evenodd;clip-rule:evenodd;fill:url(#SVGID_00000178910856902146648150000009468986608366149521_);" d="
					M1085.2,314.2c-17.2,4.2-27.2,11.7-38.4,23.3c0.1-2.5,0.3,6.8,0.2-7.5c-0.1-14.3-8.6-47.6-22.1-61.4
					c-13.5-13.8-32.1-19.9-52.7-15c-20.6,4.9-39.2,20-52.7,40.5c-13.6,20.5-22,58.2-22,72.7c0,14.4,0.1,5,0.2,7.5
					c-11.5-6.1-21.7-8.7-39.4-4.3c-17.7,4.3-40,20.5-53.8,41.3C790.7,432,782,458.2,782,484.9c-0.1,26.7,8.5,48.9,22.4,62.9
					c13.8,14,33,19.9,54,14.5c38.5-9.9,76.9-19.7,115-29.5c38-9.8,75.8-19.5,113.3-29.1c20.5-5.3,38.8-20.6,52-41.2
					c13.1-20.5,21-46.3,20.8-72.3c-0.3-26-8.6-47.5-22-61.2C1124,315.3,1102.4,310,1085.2,314.2z"/>
			</g>
			<g>
				<polygon class="st50" points="1045.5,432.6 1080.8,423.2 1025.3,496.2 969.5,452.9 1004.8,443.5 1004.7,361.4 1045.4,350.5 				
					"/>
				<polygon class="st50" points="923.4,436.8 888.1,446.2 943.6,373.3 999.4,416.5 964.1,425.9 964.2,508 923.5,518.9 				"/>
			</g>
		</g>
		<g>
			<path class="st50" d="M619.7,509.9c-38.1,24-74.7,4.7-81.7-43c-7-47.8,18.3-105.9,56.4-129.9c38.1-24,74.7-4.7,81.7,43
				C683,427.7,657.8,485.9,619.7,509.9z"/>
			<path class="st67" d="M613.9,492.1c30.9-19.5,51.4-66.6,45.7-105.3c-5.7-38.7-35.3-54.3-66.2-34.9
				c-30.9,19.5-51.4,66.6-45.7,105.3C553.4,495.9,583,511.5,613.9,492.1L613.9,492.1z M616.3,508.5c-13.8,8.7-21.6,15.6-33.6,13.7
				c-6.7-1.1-18.7-7.6-24.3-11.7c-12-8.8-20.7-24.2-23.7-45c-7-47.8,18.3-105.9,56.4-129.9c18.6-11.7,36.7-13.1,51.3-6
				c2.7,1.3,9.2,4.4,11.6,6.3c11.4,8.9,15.8,22.5,18.8,42.7C679.7,426.3,654.4,484.5,616.3,508.5z"/>
			
				<linearGradient id="SVGID_00000101807012201844406520000003078549014432116645_" gradientUnits="userSpaceOnUse" x1="637.8145" y1="468.1672" x2="586.1521" y2="391.8765">
				<stop  offset="0" style="stop-color:#6D6AFE"/>
				<stop  offset="1" style="stop-color:#3FB0F7"/>
			</linearGradient>
			<path style="fill-rule:evenodd;clip-rule:evenodd;fill:url(#SVGID_00000101807012201844406520000003078549014432116645_);" d="
				M559.4,452.6l8.3-6l0.7,4.9l-8.5,4.6c-0.1-0.6-0.2-1.1-0.3-1.7C559.6,453.8,559.5,453.2,559.4,452.6L559.4,452.6z M575.8,403.8
				l-2.3,5.2l-6.7-4.4c0.5-1.3,1.1-2.5,1.6-3.7L575.8,403.8L575.8,403.8z M649.9,374.1l-6.9,9.4l-2.1-3.6l7.5-8.4
				C648.9,372.4,649.4,373.2,649.9,374.1L649.9,374.1z M647.4,396.5l8.5-4.6c0.1,0.6,0.2,1.2,0.3,1.8c0.1,0.6,0.2,1.1,0.2,1.7
				l-8.3,6L647.4,396.5L647.4,396.5z M656.2,417.1c-0.2,1.3-0.4,2.6-0.6,3.9l-8.5,1.6l0.8-5.5L656.2,417.1L656.2,417.1z
				 M635.7,466.8c-0.8,1-1.6,2-2.4,3l-5.2-7.2l3.3-4.1L635.7,466.8L635.7,466.8z M601.4,479.4l-2.4,11.9c-0.9,0.1-1.9,0.2-2.8,0.3
				l1.3-11.8L601.4,479.4L601.4,479.4z M586.6,477.8l-5.4,11c-0.8-0.4-1.6-0.8-2.3-1.2l4.4-11.5L586.6,477.8L586.6,477.8z
				 M606.1,424.7L584.9,475l1.4,0.8l20.5-44.7l0.2,1.3l3.9-2.5l-1-5.6l3.2-7l-1.5-0.8l18.5-44.2l-0.5-0.3l-19,43.9l-0.8-0.4
				l-1.1,2.5l-6-34.7l-1.7,1.1L606.1,424.7L606.1,424.7z M580.2,381.3c0.8-1,1.6-2,2.4-3l5.1,7.1l-3.3,4.1L580.2,381.3L580.2,381.3z
				 M597.7,364.5c0.5-0.3,0.9-0.6,1.4-0.9c0.5-0.3,0.9-0.6,1.4-0.9l2.1,10.2l-3.9,2.5L597.7,364.5L597.7,364.5z M614.5,368.5
				l2.3-11.8c0.9-0.1,1.9-0.2,2.8-0.3l-1.2,11.7L614.5,368.5L614.5,368.5z M629.3,370.2l5.3-10.9c0.8,0.4,1.6,0.8,2.3,1.2l-4.4,11.4
				L629.3,370.2L629.3,370.2z M649.1,443.4c-0.5,1.3-1.1,2.5-1.6,3.7l-7.4-3l2.3-5.2L649.1,443.4L649.1,443.4z M618.2,483.6
				c-0.5,0.3-0.9,0.6-1.4,0.9c-0.5,0.3-0.9,0.6-1.4,0.9l-2.1-10.3l3.9-2.5L618.2,483.6L618.2,483.6z M559.7,430.8
				c0.2-1.3,0.4-2.6,0.6-3.9l8.5-1.6l-0.8,5.5L559.7,430.8L559.7,430.8z M575,468l-7.5,8.5c-0.5-0.8-1-1.7-1.5-2.6l6.9-9.5L575,468z
				"/>
			
				<linearGradient id="SVGID_00000106826502951564368000000002481077491584369599_" gradientUnits="userSpaceOnUse" x1="607.9786" y1="492.5732" x2="616.4384" y2="358.6822">
				<stop  offset="0" style="stop-color:#965CF2"/>
				<stop  offset="1" style="stop-color:#FF8ADC"/>
			</linearGradient>
			<path style="fill-rule:evenodd;clip-rule:evenodd;fill:url(#SVGID_00000106826502951564368000000002481077491584369599_);" d="
				M622.4,496.6c30.9-19.4,51.3-66.6,45.7-105.3c-5.7-38.7-35.3-54.3-66.2-34.9c-30.9,19.4-51.3,66.6-45.7,105.3
				C561.9,500.4,591.5,516.1,622.4,496.6L622.4,496.6z M624.8,513c-38.1,24-74.7,4.7-81.7-43c-7-47.8,18.3-105.9,56.4-129.9
				c38.1-24,74.7-4.7,81.7,43C688.2,430.8,662.9,489,624.8,513z"/>
		</g>
		<g>
			
				<linearGradient id="SVGID_00000073690325684838399290000011078569850620716462_" gradientUnits="userSpaceOnUse" x1="1822.3513" y1="1419.509" x2="1870.7935" y2="1303.3726">
				<stop  offset="0" style="stop-color:#6D6AFE"/>
				<stop  offset="1" style="stop-color:#3FB0F7"/>
			</linearGradient>
			
				<path style="opacity:0.5;fill-rule:evenodd;clip-rule:evenodd;fill:url(#SVGID_00000073690325684838399290000011078569850620716462_);" d="
				M1846.5,1243.7h1.2v195.6v6.7h-0.1c-1.4,38.5-14.9,75.1-38.4,108.7v-216.1C1829.8,1309.1,1842.8,1277.2,1846.5,1243.7z"/>
			
				<linearGradient id="SVGID_00000149370038979404166210000001453943406627863227_" gradientUnits="userSpaceOnUse" x1="1542.9305" y1="1766.9001" x2="1666.87" y2="1464.8113">
				<stop  offset="0" style="stop-color:#6D6AFE"/>
				<stop  offset="1" style="stop-color:#3FB0F7"/>
			</linearGradient>
			
				<path style="opacity:0.5;fill-rule:evenodd;clip-rule:evenodd;fill:url(#SVGID_00000149370038979404166210000001453943406627863227_);" d="
				M1434.9,1805.9c156.6-16.8,287.8-77.6,356.8-160.5v-260.5c-69,82.8-200.2,143.7-356.8,160.4V1805.9z"/>
			
				<linearGradient id="SVGID_00000120519879537265812050000016132182934239935653_" gradientUnits="userSpaceOnUse" x1="1826.269" y1="1623.4393" x2="1784.0094" y2="1464.1014">
				<stop  offset="0" style="stop-color:#1C8EF4"/>
				<stop  offset="1" style="stop-color:#00CFDD"/>
			</linearGradient>
			
				<path style="opacity:0.5;fill-rule:evenodd;clip-rule:evenodd;fill:url(#SVGID_00000120519879537265812050000016132182934239935653_);" d="
				M1756.9,1619.8c35.8-31.3,62-67,75.8-105.4v-124.3c-13.9,38.4-40,74-75.8,105.4V1619.8z"/>
		</g>
		<g>
			
				<linearGradient id="SVGID_00000134246029427460436230000011005880051150822320_" gradientUnits="userSpaceOnUse" x1="1605.9371" y1="1685.4891" x2="1703.6985" y2="1457.1207">
				<stop  offset="0" style="stop-color:#6D6AFE"/>
				<stop  offset="1" style="stop-color:#3FB0F7"/>
			</linearGradient>
			<path style="fill-rule:evenodd;clip-rule:evenodd;fill:url(#SVGID_00000134246029427460436230000011005880051150822320_);" d="
				M1563.1,1555.5l0.4,148.5c0,10.8,7.8,15.3,17.2,9.8l138.9-80.2c9.4-5.4,17.1-18.8,17.1-29.6l-0.6-205.4c0-10.8-7.8-15.3-17.2-9.8
				l-90.7,52.4L1563.1,1555.5z"/>
			<g>
				<path class="st56" d="M1713.5,1469.4l-67.5,39c-2.9,1.7-5.1,0.4-5.1-2.8l0-10c0-3.2,2.2-7.2,5.1-8.8l67.5-39
					c2.8-1.6,5.1-0.2,5.1,3l0,10C1718.6,1463.9,1716.3,1467.8,1713.5,1469.4z"/>
				<path class="st56" d="M1586,1574.9c-2,1.1-3.5,0.2-3.6-2l0-7c0-2.3,1.6-5,3.5-6.1l129.1-74.5c2-1.1,3.5-0.2,3.6,2l0,7
					c0,2.2-1.6,5-3.5,6.1L1586,1574.9z"/>
			</g>
			<g>
				
					<linearGradient id="SVGID_00000153695802069156936710000008202841517004786357_" gradientUnits="userSpaceOnUse" x1="1611.1364" y1="1586.7512" x2="1587.4391" y2="1470.99">
					<stop  offset="0" style="stop-color:#6D6AFE"/>
					<stop  offset="1" style="stop-color:#3FB0F7"/>
				</linearGradient>
				
					<path style="opacity:0.5;fill-rule:evenodd;clip-rule:evenodd;fill:url(#SVGID_00000153695802069156936710000008202841517004786357_);" d="
					M1563.2,1585.4c9.9-9.2,34.3-27.9,53.4-45.4c17.1-15.7,17.1-24,15.9-43.2l-3.5-56l-0.8,0.4l-65,114.2L1563.2,1585.4z"/>
				<path class="st75" d="M1563.1,1555.5l48.1-27.8c9.5-5.5,17.2-18.8,17.2-29.7l-0.2-56.9L1563.1,1555.5z"/>
			</g>
			<g>
				<path class="st56" d="M1668.2,1650.8c19.8-16.3,31.7-50.3,26.5-75.9c-5.2-25.5-25.5-33-45.3-16.7
					c-19.8,16.3-31.7,50.3-26.5,75.9C1628.1,1659.7,1648.4,1667.1,1668.2,1650.8z"/>
				<polygon class="st75" points="1639,1588.4 1633.6,1592.3 1672.7,1629.7 1687.3,1591.2 1680.1,1595.3 1670.5,1608.9 				"/>
			</g>
		</g>
		<g>
			<path class="st56" d="M674.7,1400.6c1.1-8.6-1.2-13.8,3.1-18.7c2.7-3.1,11.3-7.1,14.9-8.4c6.9-2.6,15.2-1.8,23.7,3.1l108.4,64.5
				c19.7,11.4,33.1,40.7,29.9,65.4l-16.8,123.8c-1,7.6-3.9,17.5-10.4,23.1c-4.6,4-12.4,8.2-17.9,8.9c-5.6,0.7-7.1-4.4-13.4-8
				l-108.4-64.5c-19.8-11.4-33.2-40.7-29.9-65.4L674.7,1400.6z"/>
			<path class="st50" d="M668,1404.5c3.2-24.7,21.9-35.4,41.6-24l108.4,64.5c19.7,11.4,33.2,40.7,29.9,65.4l-16.8,123.8
				c-3.2,24.7-21.9,35.4-41.6,24l-108.4-64.5c-19.8-11.4-33.2-40.7-29.9-65.4L668,1404.5z"/>
			
				<linearGradient id="SVGID_00000132807021207413704160000012614966444757532347_" gradientUnits="userSpaceOnUse" x1="757.0137" y1="1460.3591" x2="778.3108" y2="1422.1324">
				<stop  offset="0" style="stop-color:#6D6AFE"/>
				<stop  offset="1" style="stop-color:#3FB0F7"/>
			</linearGradient>
			<path style="fill-rule:evenodd;clip-rule:evenodd;fill:url(#SVGID_00000132807021207413704160000012614966444757532347_);" d="
				M668,1404.5c3.2-24.7,21.9-35.4,41.6-24l108.4,64.5c19.7,11.4,33.2,40.7,29.9,65.4l-1.6,11.6c-2.1-1.6-4.3-3.1-6.6-4.4
				l-173.2-102.4L668,1404.5z"/>
			<g>
				<g>
					<path class="st77" d="M790.2,1453.4c4,2,5.8,6.4,4,9.9c-1.8,3.5-6.4,4.8-10.4,2.8c-4-2-5.8-6.4-4-9.9
						C781.6,1452.7,786.2,1451.5,790.2,1453.4z"/>
					<path class="st78" d="M790.6,1455.4c4.7,5-0.8,12-7.1,8.9c3.9,2.9,8.2,1.2,9.6-1.8C794.2,1460.4,793.7,1457.6,790.6,1455.4z"/>
					<path class="st79" d="M815.3,1407.7c10.5,4.9,13.1,18.6,7.8,32.7l-6.9-4.1c2.8-9.2,2.8-17.4-4.6-20.9
						c-7.5-3.5-21.1,2.8-26.9,13.8c-5.8,11-4.9,22.3,3.4,26.2c2.3,1.1,2.8,3.1,2.1,5.2c-0.8,2.4-3.4,3-5.3,2.3
						c-0.4-0.1-0.8-0.3-1.1-0.5c-11.9-5.6-14.5-20.6-6.1-36.5C786.1,1410,803.5,1402.1,815.3,1407.7z"/>
					<path class="st80" d="M821.5,1439.5l-5.3-3.1c2.8-9.2,2.8-17.4-4.6-20.9c-7.5-3.5-21.1,2.8-26.9,13.8
						c-5.8,11-4.9,22.3,3.4,26.2c1.5,0.7,2.2,1.8,2.4,3.1c-3.3-0.2-8.7-3.5-10.9-10.5c-3.6-11.8,3.2-24.1,12.2-31.3
						c8.7-7,18.5-7.3,23.5-4.5C827.4,1419,823.3,1434.1,821.5,1439.5z"/>
				</g>
				<g>
					<path class="st77" d="M750,1429.4c4,2,5.8,6.4,4,9.9c-1.8,3.5-6.4,4.8-10.4,2.8c-4-2-5.8-6.4-4-9.9
						C741.4,1428.7,746,1427.4,750,1429.4z"/>
					<path class="st78" d="M750.4,1431.4c4.7,5-0.8,12-7.1,8.9c3.9,2.9,8.2,1.2,9.6-1.8C754,1436.4,753.5,1433.5,750.4,1431.4z"/>
					<path class="st79" d="M775.1,1383.7c10.5,4.9,13.1,18.6,7.8,32.7l-6.9-4.1c2.8-9.2,2.8-17.4-4.6-20.9
						c-7.5-3.5-21.1,2.8-26.9,13.8c-5.8,11-4.9,22.3,3.4,26.2c2.3,1.1,2.8,3.1,2.1,5.2c-0.8,2.4-3.4,3-5.3,2.3
						c-0.4-0.1-0.8-0.3-1.1-0.5c-11.9-5.6-14.5-20.6-6.1-36.5C745.9,1385.9,763.3,1378.1,775.1,1383.7z"/>
					<path class="st80" d="M781.3,1415.4l-5.3-3.1c2.8-9.2,2.8-17.4-4.6-20.9c-7.5-3.5-21.1,2.8-26.9,13.8
						c-5.8,11-4.9,22.3,3.4,26.2c1.5,0.7,2.2,1.8,2.4,3.1c-3.3-0.2-8.7-3.5-10.9-10.5c-3.6-11.8,3.2-24.1,12.2-31.3
						c8.7-7,18.5-7.3,23.5-4.5C787.2,1394.9,783.1,1410,781.3,1415.4z"/>
				</g>
				<g>
					<path class="st77" d="M710.3,1405.8c4,2,5.8,6.4,4,9.9c-1.8,3.5-6.4,4.8-10.4,2.8c-4-2-5.8-6.4-4-9.9
						C701.7,1405,706.3,1403.8,710.3,1405.8z"/>
					<path class="st78" d="M710.7,1407.8c4.7,5-0.8,12-7.1,8.9c3.9,2.9,8.2,1.2,9.6-1.8C714.3,1412.8,713.7,1409.9,710.7,1407.8z"/>
					<path class="st79" d="M735.4,1360c10.5,4.9,13.1,18.6,7.8,32.7l-6.9-4.1c2.8-9.2,2.8-17.4-4.6-20.9
						c-7.5-3.5-21.1,2.8-26.9,13.8c-5.8,11-4.9,22.3,3.4,26.2c2.3,1.1,2.8,3.1,2.1,5.2c-0.8,2.4-3.4,3-5.3,2.3
						c-0.4-0.1-0.8-0.3-1.1-0.5c-11.9-5.6-14.5-20.6-6.1-36.5C706.1,1362.3,723.6,1354.5,735.4,1360z"/>
					<path class="st80" d="M741.6,1391.8l-5.3-3.1c2.8-9.2,2.8-17.4-4.6-20.9c-7.5-3.5-21.1,2.8-26.9,13.8
						c-5.8,11-4.9,22.3,3.4,26.2c1.5,0.7,2.2,1.8,2.4,3.1c-3.3-0.2-8.7-3.5-10.9-10.5c-3.6-11.8,3.2-24.1,12.2-31.4
						c8.7-7,18.5-7.3,23.5-4.5C747.4,1371.3,743.4,1386.4,741.6,1391.8z"/>
				</g>
			</g>
			<g>
				
					<linearGradient id="SVGID_00000121274236429211880170000017435447477100028597_" gradientUnits="userSpaceOnUse" x1="647.1385" y1="1516.0474" x2="722.3384" y2="1439.6663">
					<stop  offset="0" style="stop-color:#6D6AFE"/>
					<stop  offset="1" style="stop-color:#3FB0F7"/>
				</linearGradient>
				<path style="fill-rule:evenodd;clip-rule:evenodd;fill:url(#SVGID_00000121274236429211880170000017435447477100028597_);" d="
					M684,1441.3c0.6-4.7,4.1-6.7,7.9-4.5l20.4,12.2c3.7,2.2,6.3,7.7,5.6,12.3l-3.2,23.4c-0.6,4.7-4.1,6.7-7.9,4.5l-20.4-12.2
					c-3.7-2.2-6.3-7.7-5.6-12.3L684,1441.3z"/>
				
					<linearGradient id="SVGID_00000137124510182415396930000010405993566905650357_" gradientUnits="userSpaceOnUse" x1="691.926" y1="1552.0984" x2="767.1279" y2="1475.7152">
					<stop  offset="0" style="stop-color:#6D6AFE"/>
					<stop  offset="1" style="stop-color:#3FB0F7"/>
				</linearGradient>
				<path style="fill-rule:evenodd;clip-rule:evenodd;fill:url(#SVGID_00000137124510182415396930000010405993566905650357_);" d="
					M734.8,1471.3c0.6-4.7,4.1-6.7,7.9-4.5l20.4,12.2c3.7,2.2,6.3,7.7,5.6,12.3l-3.2,23.4c-0.6,4.7-4.1,6.7-7.9,4.5l-20.4-12.2
					c-3.7-2.2-6.3-7.7-5.6-12.3L734.8,1471.3z"/>
				
					<linearGradient id="SVGID_00000114754376725637276480000002693984060173235895_" gradientUnits="userSpaceOnUse" x1="736.7139" y1="1588.1495" x2="811.9143" y2="1511.7678">
					<stop  offset="0" style="stop-color:#6D6AFE"/>
					<stop  offset="1" style="stop-color:#3FB0F7"/>
				</linearGradient>
				<path style="fill-rule:evenodd;clip-rule:evenodd;fill:url(#SVGID_00000114754376725637276480000002693984060173235895_);" d="
					M785.5,1501.3c0.6-4.7,4.1-6.7,7.9-4.5l20.4,12.2c3.7,2.2,6.3,7.7,5.6,12.3l-3.2,23.4c-0.6,4.7-4.1,6.7-7.9,4.5L788,1537
					c-3.7-2.2-6.3-7.7-5.6-12.3L785.5,1501.3z"/>
				
					<linearGradient id="SVGID_00000096780222808310341000000013972298003311239325_" gradientUnits="userSpaceOnUse" x1="657.5701" y1="1550.1592" x2="732.7723" y2="1473.7756">
					<stop  offset="0" style="stop-color:#6D6AFE"/>
					<stop  offset="1" style="stop-color:#3FB0F7"/>
				</linearGradient>
				<path style="fill-rule:evenodd;clip-rule:evenodd;fill:url(#SVGID_00000096780222808310341000000013972298003311239325_);" d="
					M676.8,1493.4c0.6-4.7,4.1-6.7,7.9-4.5l20.4,12.2c3.7,2.2,6.3,7.7,5.6,12.3l-3.2,23.4c-0.6,4.7-4.1,6.7-7.9,4.5l-20.4-12.2
					c-3.7-2.2-6.3-7.7-5.6-12.3L676.8,1493.4z"/>
				
					<linearGradient id="SVGID_00000172410216174748553640000005050364577296000152_" gradientUnits="userSpaceOnUse" x1="702.3571" y1="1586.2122" x2="777.5591" y2="1509.8287">
					<stop  offset="0" style="stop-color:#6D6AFE"/>
					<stop  offset="1" style="stop-color:#3FB0F7"/>
				</linearGradient>
				<path style="fill-rule:evenodd;clip-rule:evenodd;fill:url(#SVGID_00000172410216174748553640000005050364577296000152_);" d="
					M727.5,1523.4c0.6-4.7,4.1-6.7,7.9-4.5l20.4,12.2c3.7,2.2,6.3,7.7,5.6,12.3l-3.2,23.4c-0.6,4.7-4.1,6.7-7.9,4.5l-20.4-12.2
					c-3.7-2.2-6.3-7.7-5.6-12.3L727.5,1523.4z"/>
				
					<linearGradient id="SVGID_00000021802549681021209360000004326783629202767524_" gradientUnits="userSpaceOnUse" x1="747.1465" y1="1622.2609" x2="822.3471" y2="1545.8789">
					<stop  offset="0" style="stop-color:#6D6AFE"/>
					<stop  offset="1" style="stop-color:#3FB0F7"/>
				</linearGradient>
				<path style="fill-rule:evenodd;clip-rule:evenodd;fill:url(#SVGID_00000021802549681021209360000004326783629202767524_);" d="
					M778.3,1553.4c0.6-4.7,4.1-6.7,7.9-4.5l20.4,12.2c3.7,2.2,6.3,7.7,5.6,12.3l-3.2,23.4c-0.6,4.7-4.1,6.7-7.9,4.5l-20.4-12.2
					c-3.7-2.2-6.3-7.7-5.6-12.3L778.3,1553.4z"/>
				
					<linearGradient id="SVGID_00000166663167013593143660000012340620761095348390_" gradientUnits="userSpaceOnUse" x1="667.5717" y1="1583.7153" x2="742.7734" y2="1507.3323">
					<stop  offset="0" style="stop-color:#6D6AFE"/>
					<stop  offset="1" style="stop-color:#3FB0F7"/>
				</linearGradient>
				<path style="fill-rule:evenodd;clip-rule:evenodd;fill:url(#SVGID_00000166663167013593143660000012340620761095348390_);" d="
					M669.2,1544.8c0.6-4.7,4.1-6.7,7.9-4.5l20.4,12.2c3.7,2.2,6.3,7.7,5.6,12.3l-3.2,23.4c-0.6,4.7-4.1,6.7-7.9,4.5l-20.4-12.2
					c-3.7-2.2-6.3-7.7-5.6-12.3L669.2,1544.8z"/>
				
					<linearGradient id="SVGID_00000054970932964005719640000000959824478918904491_" gradientUnits="userSpaceOnUse" x1="712.3615" y1="1619.7651" x2="787.5609" y2="1543.3844">
					<stop  offset="0" style="stop-color:#6D6AFE"/>
					<stop  offset="1" style="stop-color:#3FB0F7"/>
				</linearGradient>
				<path style="fill-rule:evenodd;clip-rule:evenodd;fill:url(#SVGID_00000054970932964005719640000000959824478918904491_);" d="
					M719.9,1574.8c0.6-4.7,4.1-6.7,7.9-4.5l20.4,12.2c3.7,2.2,6.3,7.7,5.6,12.3l-3.2,23.4c-0.6,4.7-4.1,6.7-7.9,4.5l-20.4-12.2
					c-3.7-2.2-6.3-7.7-5.6-12.3L719.9,1574.8z"/>
				
					<linearGradient id="SVGID_00000007424098213317104650000016196041809579340967_" gradientUnits="userSpaceOnUse" x1="757.1475" y1="1655.8174" x2="832.348" y2="1579.4357">
					<stop  offset="0" style="stop-color:#6D6AFE"/>
					<stop  offset="1" style="stop-color:#3FB0F7"/>
				</linearGradient>
				<path style="fill-rule:evenodd;clip-rule:evenodd;fill:url(#SVGID_00000007424098213317104650000016196041809579340967_);" d="
					M770.7,1604.8c0.6-4.7,4.1-6.7,7.9-4.5l20.4,12.2c3.7,2.2,6.3,7.7,5.6,12.3l-3.2,23.4c-0.6,4.7-4.1,6.7-7.9,4.5l-20.4-12.2
					c-3.7-2.2-6.3-7.7-5.6-12.3L770.7,1604.8z"/>
			</g>
		</g>
		
			<linearGradient id="SVGID_00000160898659968340835530000017539605043609642658_" gradientUnits="userSpaceOnUse" x1="741.8728" y1="676.9996" x2="729.5942" y2="631.2172">
			<stop  offset="0" style="stop-color:#965CF2"/>
			<stop  offset="1" style="stop-color:#FF8ADC"/>
		</linearGradient>
		<path style="fill-rule:evenodd;clip-rule:evenodd;fill:url(#SVGID_00000160898659968340835530000017539605043609642658_);" d="
			M735.4,631.2c11.6,0,21.1,9.7,21.1,21.7c0,12-9.4,21.7-21.1,21.7c-11.6,0-21.1-9.7-21.1-21.7C714.4,640.9,723.8,631.2,735.4,631.2
			z"/>
	</g>
</g>
</svg>
