<?xml version="1.0" encoding="utf-8"?>
<svg viewBox="0 0 500 500" xmlns="http://www.w3.org/2000/svg">
  <path d="M 342 189.999 C 342.006 165.365 315.343 149.963 294.007 162.274 C 272.67 174.586 272.663 205.378 293.993 217.7 C 297.686 219.833 301.768 221.207 306 221.74 L 306 225.999 C 305.987 237.039 297.041 245.986 286.001 245.999 L 213.999 246.001 C 206.47 245.996 199.258 249.034 194 254.424 L 194 221.74 C 218.44 218.661 230.382 190.279 215.495 170.652 C 200.609 151.026 170.058 154.875 160.505 177.58 C 152.287 197.111 164.977 219.091 186 221.74 L 186 278.26 C 161.56 281.339 149.618 309.721 164.505 329.348 C 179.391 348.974 209.942 345.125 219.495 322.42 C 227.713 302.889 215.023 280.909 194 278.26 L 194 274.001 C 194.013 262.961 202.959 254.014 213.999 254.001 L 286.001 253.999 C 301.457 253.981 313.982 241.455 314 225.999 L 314 221.74 C 329.988 219.707 341.978 206.115 342 189.999 Z M 166 189.999 C 166 171.524 186 159.977 202 169.214 C 218 178.452 218 201.546 202 210.783 C 198.352 212.89 194.213 213.999 190 213.999 C 176.751 213.984 166.015 203.247 166 189.999 Z M 214 310.001 C 214 328.476 194 340.023 178 330.786 C 162 321.548 162 298.454 178 289.217 C 181.648 287.11 185.787 286.001 190 286.001 C 203.249 286.016 213.985 296.753 214 310.001 Z M 310 213.999 C 291.525 213.999 279.978 193.999 289.215 177.999 C 298.453 161.999 321.547 161.999 330.785 177.999 C 332.891 181.647 334 185.786 334 189.999 C 333.985 203.247 323.249 213.984 310 213.999 Z" style=""/>
  <path fill="#53A21A" d="M 208.117 180.784 C 208.054 179.731 207.475 178.777 206.569 178.237 L 198.82 173.638 C 197.821 173.046 196.579 173.046 195.58 173.638 L 195.183 173.874 L 192.875 175.245 L 187.831 178.237 C 186.868 178.812 186.28 179.847 186.276 180.966 L 186.276 183.492 L 184.346 182.348 C 183.35 181.756 182.108 181.756 181.109 182.348 L 176.213 185.254 L 173.952 186.595 L 173.358 186.947 C 172.397 187.521 171.807 188.556 171.805 189.675 L 171.805 198.989 C 171.805 199.05 171.807 199.112 171.812 199.171 C 171.873 200.224 172.454 201.177 173.358 201.717 L 181.109 206.316 C 182.108 206.909 183.35 206.909 184.346 206.316 L 184.746 206.08 L 187.054 204.712 L 192.098 201.717 C 193.058 201.145 193.649 200.108 193.651 198.989 L 193.651 196.463 L 195.58 197.607 C 196.579 198.199 197.821 198.199 198.82 197.607 L 203.716 194.703 L 205.974 193.362 L 206.569 193.008 C 207.532 192.436 208.122 191.398 208.124 190.279 L 208.124 180.966 C 208.124 180.904 208.122 180.845 208.117 180.784 Z M 182.746 186.843 C 184.047 186.843 184.859 188.25 184.208 189.376 C 183.559 190.502 181.933 190.502 181.282 189.376 C 181.134 189.119 181.057 188.829 181.057 188.531 C 181.057 187.598 181.813 186.843 182.746 186.843 Z M 187.37 201.313 L 186.689 201.733 L 184.256 203.232 L 183.425 203.745 L 182.994 204.01 C 182.964 204.031 182.93 204.046 182.896 204.058 C 182.767 204.094 182.626 204.085 182.503 204.028 L 182.462 204.01 L 182.231 203.867 L 178.088 201.313 L 178.088 198.742 C 178.088 198.742 178.102 198.188 178.805 198.59 L 181.361 200.163 L 181.361 194.649 L 179.77 193.668 L 179.77 191.094 C 179.77 191.094 179.784 190.54 180.49 190.944 L 184.081 193.153 L 184.081 200.172 L 186.65 198.59 C 187.356 198.188 187.37 198.742 187.37 198.742 L 187.37 201.313 Z M 206.773 183.408 L 206.773 190.279 C 206.773 190.924 206.433 191.519 205.881 191.848 L 205.287 192.2 L 203.026 193.541 L 198.13 196.447 C 197.557 196.787 196.842 196.787 196.27 196.447 L 193.651 194.894 L 193.651 189.675 C 193.649 188.556 193.058 187.521 192.098 186.947 L 189.547 185.433 L 187.626 184.293 L 187.626 180.966 C 187.629 180.323 187.967 179.729 188.519 179.399 L 193.562 176.405 L 195.873 175.037 L 196.27 174.801 C 196.842 174.46 197.557 174.46 198.13 174.801 L 205.881 179.399 C 206.399 179.71 206.733 180.257 206.771 180.864 C 206.773 180.898 206.773 180.932 206.773 180.966 L 206.773 183.408 Z M 197.789 177.248 L 202.685 180.264 L 202.685 183.304 C 202.685 183.304 202.667 183.957 201.834 183.483 L 198.815 181.626 L 198.815 188.139 L 200.697 189.299 L 200.697 192.338 C 200.697 192.338 200.681 192.994 199.846 192.517 L 195.603 189.907 L 195.603 181.615 L 192.566 183.483 C 191.733 183.957 191.717 183.304 191.717 183.304 L 191.717 180.264 L 192.52 179.769 L 195.394 177.999 L 196.379 177.391 L 196.888 177.077 C 196.922 177.055 196.96 177.034 197.001 177.021 C 197.156 176.977 197.321 176.991 197.467 177.057 L 197.514 177.077 L 197.789 177.248 Z" style=""/>
  <path fill="#53A21A" d="M 328.053 180.687 C 327.99 179.634 327.411 178.68 326.505 178.14 L 318.756 173.541 C 317.757 172.949 316.515 172.949 315.516 173.541 L 315.119 173.777 L 312.811 175.148 L 307.767 178.14 C 306.804 178.715 306.216 179.75 306.212 180.869 L 306.212 183.395 L 304.282 182.251 C 303.286 181.659 302.044 181.659 301.045 182.251 L 296.149 185.157 L 293.888 186.498 L 293.294 186.85 C 292.333 187.424 291.743 188.459 291.741 189.578 L 291.741 198.892 C 291.741 198.953 291.743 199.015 291.748 199.074 C 291.809 200.127 292.39 201.08 293.294 201.62 L 301.045 206.219 C 302.044 206.812 303.286 206.812 304.282 206.219 L 304.682 205.983 L 306.99 204.615 L 312.034 201.62 C 312.994 201.048 313.585 200.011 313.587 198.892 L 313.587 196.366 L 315.516 197.51 C 316.515 198.102 317.757 198.102 318.756 197.51 L 323.652 194.606 L 325.91 193.265 L 326.505 192.911 C 327.468 192.339 328.058 191.301 328.06 190.182 L 328.06 180.869 C 328.06 180.807 328.058 180.748 328.053 180.687 Z M 302.682 186.746 C 303.983 186.746 304.795 188.153 304.144 189.279 C 303.495 190.405 301.869 190.405 301.218 189.279 C 301.07 189.022 300.993 188.732 300.993 188.434 C 300.993 187.501 301.749 186.746 302.682 186.746 Z M 307.306 201.216 L 306.625 201.636 L 304.192 203.135 L 303.361 203.648 L 302.93 203.913 C 302.9 203.934 302.866 203.949 302.832 203.961 C 302.703 203.997 302.562 203.988 302.439 203.931 L 302.398 203.913 L 302.167 203.77 L 298.024 201.216 L 298.024 198.645 C 298.024 198.645 298.038 198.091 298.741 198.493 L 301.297 200.066 L 301.297 194.552 L 299.706 193.571 L 299.706 190.997 C 299.706 190.997 299.72 190.443 300.426 190.847 L 304.017 193.056 L 304.017 200.075 L 306.586 198.493 C 307.292 198.091 307.306 198.645 307.306 198.645 L 307.306 201.216 Z M 326.709 183.311 L 326.709 190.182 C 326.709 190.827 326.369 191.422 325.817 191.751 L 325.223 192.103 L 322.962 193.444 L 318.066 196.35 C 317.493 196.69 316.778 196.69 316.206 196.35 L 313.587 194.797 L 313.587 189.578 C 313.585 188.459 312.994 187.424 312.034 186.85 L 309.483 185.336 L 307.562 184.196 L 307.562 180.869 C 307.565 180.226 307.903 179.632 308.455 179.302 L 313.498 176.308 L 315.809 174.94 L 316.206 174.704 C 316.778 174.363 317.493 174.363 318.066 174.704 L 325.817 179.302 C 326.335 179.613 326.669 180.16 326.707 180.767 C 326.709 180.801 326.709 180.835 326.709 180.869 L 326.709 183.311 Z M 317.725 177.151 L 322.621 180.167 L 322.621 183.207 C 322.621 183.207 322.603 183.86 321.77 183.386 L 318.751 181.529 L 318.751 188.042 L 320.633 189.202 L 320.633 192.241 C 320.633 192.241 320.617 192.897 319.782 192.42 L 315.539 189.81 L 315.539 181.518 L 312.502 183.386 C 311.669 183.86 311.653 183.207 311.653 183.207 L 311.653 180.167 L 312.456 179.672 L 315.33 177.902 L 316.315 177.294 L 316.824 176.98 C 316.858 176.958 316.896 176.937 316.937 176.924 C 317.092 176.88 317.257 176.894 317.403 176.96 L 317.45 176.98 L 317.725 177.151 Z" style=""/>
  <path fill="#53A21A" d="M 208.144 300.797 C 208.081 299.744 207.502 298.79 206.596 298.25 L 198.847 293.651 C 197.848 293.059 196.606 293.059 195.607 293.651 L 195.21 293.887 L 192.902 295.258 L 187.858 298.25 C 186.895 298.825 186.307 299.86 186.303 300.979 L 186.303 303.505 L 184.373 302.361 C 183.377 301.769 182.135 301.769 181.136 302.361 L 176.24 305.267 L 173.979 306.608 L 173.385 306.96 C 172.424 307.534 171.834 308.569 171.832 309.688 L 171.832 319.002 C 171.832 319.063 171.834 319.125 171.839 319.184 C 171.9 320.237 172.481 321.19 173.385 321.73 L 181.136 326.329 C 182.135 326.922 183.377 326.922 184.373 326.329 L 184.773 326.093 L 187.081 324.725 L 192.125 321.73 C 193.085 321.158 193.676 320.121 193.678 319.002 L 193.678 316.476 L 195.607 317.62 C 196.606 318.212 197.848 318.212 198.847 317.62 L 203.743 314.716 L 206.001 313.375 L 206.596 313.021 C 207.559 312.449 208.149 311.411 208.151 310.292 L 208.151 300.979 C 208.151 300.917 208.149 300.858 208.144 300.797 Z M 182.773 306.856 C 184.074 306.856 184.886 308.263 184.235 309.389 C 183.586 310.515 181.96 310.515 181.309 309.389 C 181.161 309.132 181.084 308.842 181.084 308.544 C 181.084 307.611 181.84 306.856 182.773 306.856 Z M 187.397 321.326 L 186.716 321.746 L 184.283 323.245 L 183.452 323.758 L 183.021 324.023 C 182.991 324.044 182.957 324.059 182.923 324.071 C 182.794 324.107 182.653 324.098 182.53 324.041 L 182.489 324.023 L 182.258 323.88 L 178.115 321.326 L 178.115 318.755 C 178.115 318.755 178.129 318.201 178.832 318.603 L 181.388 320.176 L 181.388 314.662 L 179.797 313.681 L 179.797 311.107 C 179.797 311.107 179.811 310.553 180.517 310.957 L 184.108 313.166 L 184.108 320.185 L 186.677 318.603 C 187.383 318.201 187.397 318.755 187.397 318.755 L 187.397 321.326 Z M 206.8 303.421 L 206.8 310.292 C 206.8 310.937 206.46 311.532 205.908 311.861 L 205.314 312.213 L 203.053 313.554 L 198.157 316.46 C 197.584 316.8 196.869 316.8 196.297 316.46 L 193.678 314.907 L 193.678 309.688 C 193.676 308.569 193.085 307.534 192.125 306.96 L 189.574 305.446 L 187.653 304.306 L 187.653 300.979 C 187.656 300.336 187.994 299.742 188.546 299.412 L 193.589 296.418 L 195.9 295.05 L 196.297 294.814 C 196.869 294.473 197.584 294.473 198.157 294.814 L 205.908 299.412 C 206.426 299.723 206.76 300.27 206.798 300.877 C 206.8 300.911 206.8 300.945 206.8 300.979 L 206.8 303.421 Z M 197.816 297.261 L 202.712 300.277 L 202.712 303.317 C 202.712 303.317 202.694 303.97 201.861 303.496 L 198.842 301.639 L 198.842 308.152 L 200.724 309.312 L 200.724 312.351 C 200.724 312.351 200.708 313.007 199.873 312.53 L 195.63 309.92 L 195.63 301.628 L 192.593 303.496 C 191.76 303.97 191.744 303.317 191.744 303.317 L 191.744 300.277 L 192.547 299.782 L 195.421 298.012 L 196.406 297.404 L 196.915 297.09 C 196.949 297.068 196.987 297.047 197.028 297.034 C 197.183 296.99 197.348 297.004 197.494 297.07 L 197.541 297.09 L 197.816 297.261 Z" style=""/>
</svg>