<?xml version="1.0" encoding="UTF-8"?>
<svg id="Layer_2" data-name="Layer 2" xmlns="http://www.w3.org/2000/svg" viewBox="0 0 495.35 442.92">
  <defs>
    <style>
      .cls-1 {
        fill: #74c050;
        fill-rule: evenodd;
      }
    </style>
  </defs>
  <g id="Layer_1-2" data-name="Layer 1">
    <path class="cls-1" d="m249.14.07C111.83-.22.29,110.86,0,248.17c-.14,68.56,28.03,134.13,77.86,181.22,17.55,16.71,44.66,18.12,63.85,3.31,62.9-46.81,149.06-46.81,211.96,0,19.37,14.84,46.69,13.25,64.21-3.75,99.6-94.52,103.72-251.88,9.21-351.48C380.71,28.61,316.5.65,249.14,0m-1.46,372.7c-66.56,1.8-121.98-50.7-123.78-117.26-.06-2.16-.06-4.32,0-6.49,0-68.36,55.42-123.78,123.78-123.78s123.78,55.42,123.78,123.78c1.78,66.56-50.73,121.96-117.29,123.75-2.16.06-4.32.06-6.49,0"/>
  </g>
</svg>