<svg id="ab298c7c-270d-4ce5-83c0-83be05652f94" data-name="Layer 1" xmlns="http://www.w3.org/2000/svg" viewBox="0 0 330 240"><line x1="103.10799" y1="171.76926" x2="137.4907" y2="171.76926" fill="#fff" stroke="#b2ec8b" stroke-miterlimit="10" stroke-width="1.56312" stroke-dasharray="3.12624"/><polygon points="241.675 132.747 151.487 88.696 145.603 90.966 145.603 98.465 235.519 142.668 241.675 139.548 241.675 132.747" fill="#d4f4bd"/><polygon points="241.852 132.798 151.851 88.964 145.967 91.234 235.885 135.453 241.852 132.798" fill="#b2ec8b"/><path d="M223.99894,29.43415a1.01064,1.01064,0,0,0-1.41809-.11983L150.5804,90.40981a1.00488,1.00488,0,0,0-.11983,1.39809.994.994,0,0,0,.779.35949,1.01887,1.01887,0,0,0,.639-.23966l10.126-8.58811.00975-.00828V96.4999a.99862.99862,0,1,0,1.99724,0V81.63373l13.91107-11.81546.00329-.0028v34.42861a.99862.99862,0,0,0,1.99724,0V68.13786l14.67637-12.46v56.56171a1.01478,1.01478,0,0,0,.99862.99862,1.00145,1.00145,0,0,0,.99862-.99862V53.98018L210.81708,41.9169l.00573-.00488v78.4192a.99862.99862,0,0,0,1.99724,0V40.21429l11.05906-9.382A1.005,1.005,0,0,0,223.99894,29.43415Z" fill="#67b3ad"/><polygon points="234.445 29.255 243.181 173.16 224.2 183.065 202.707 172.859 213.07 30.253 222.99 24.69 234.445 29.255" fill="#b2ec8b"/><polygon points="224.2 34.885 224.2 183.065 202.707 172.859 213.07 30.253 224.2 34.885" fill="#d4f4bd"/><polygon points="325.101 173.57 238.905 131.355 232.623 133.779 232.623 135.959 232.623 141.278 318.946 183.49 325.101 180.371 325.101 173.57" fill="#d4f4bd"/><polygon points="325.101 173.57 232.58 128.069 226.298 130.494 319.312 176.276 325.101 173.57" fill="#b2ec8b"/><polygon points="318.946 183.49 319.312 176.276 221.093 128.069 221.093 135.568 318.946 183.49" fill="#d4f4bd"/><polygon points="147.742 95.701 316.468 178.4 248.968 214.276 79.987 131.575 147.742 95.701" fill="#4d575f"/><polygon points="256.639 210.086 316.479 178.397 316.479 182.284 258.482 212.924 256.639 210.086" fill="#3c434a"/><polygon points="287.502 193.742 118.777 111.034 123.142 108.723 291.869 191.429 287.502 193.742" fill="#f8f9fb"/><polygon points="175.622 170.523 83.837 125.83 77.953 128.1 77.953 135.599 169.467 180.443 175.622 177.324 175.622 170.523" fill="#d4f4bd"/><polyline points="83.837 125.83 77.953 128.1 169.832 173.229 175.622 170.397" fill="#b2ec8b"/><path d="M157.91955,67.19411a1.01063,1.01063,0,0,0-1.41809-.11983L84.501,128.16977a1.00488,1.00488,0,0,0-.11983,1.39809.994.994,0,0,0,.779.35949,1.01891,1.01891,0,0,0,.639-.23966l10.126-8.58811.00976-.00829v13.16857a.99862.99862,0,0,0,1.99724,0V119.39369l13.91106-11.81546.0033-.0028V142.004a.99862.99862,0,1,0,1.99723,0V105.89781l14.67637-12.46v56.56172a1.01479,1.01479,0,0,0,.99862.99862,1.00146,1.00146,0,0,0,.99862-.99862V91.74014L144.7377,79.67685l.00573-.00487v78.4192a.99862.99862,0,1,0,1.99723,0V77.97425l11.05906-9.382A1.005,1.005,0,0,0,157.91955,67.19411Z" fill="#73c7c1"/><polygon points="168.393 66.951 177.128 210.857 158.147 220.762 136.654 210.556 147.018 67.95 156.937 62.386 168.393 66.951" fill="#b2ec8b"/><polygon points="147.018 67.95 158.147 72.582 158.147 220.762 136.654 210.556 147.018 67.95" fill="#d4f4bd"/><polygon points="259.049 211.267 172.528 168.872 166.644 171.143 166.57 178.974 252.893 221.187 259.049 218.068 259.049 211.267" fill="#d4f4bd"/><polygon points="259.049 211.267 172.477 168.872 166.593 171.143 253.724 213.837 259.049 211.267" fill="#b2ec8b"/><path d="M254.10934,209.48191,167.06792,76.52447a.97438.97438,0,1,0-1.63048,1.06732l5.62393,8.59035v84.55064a.9741.9741,0,1,0,1.9482,0V89.158l16.86225,25.75641v64.8593a.97411.97411,0,1,0,1.94821,0V117.89019L211.57415,148.064v42.47241a.97411.97411,0,0,0,1.94821,0V151.03978l19.31082,29.49658V201.2477a.97411.97411,0,0,0,1.94821,0V183.51217l17.69937,27.03517a.96873.96873,0,0,0,.81429.44139.95868.95868,0,0,0,.53271-.15982A.97166.97166,0,0,0,254.10934,209.48191Z" fill="#73c7c1"/><path d="M320.18873,171.722,233.14731,38.76451a.97438.97438,0,1,0-1.63048,1.06733l5.62392,8.59034v84.55064a.97411.97411,0,1,0,1.94821,0V51.398l16.86225,25.75642v64.8593a.97411.97411,0,0,0,1.94821,0V80.13023L277.65354,110.304v42.47241a.9741.9741,0,1,0,1.9482,0V113.27982l19.31083,29.49658v20.71134a.97411.97411,0,0,0,1.94821,0V145.75222l17.69937,27.03516a.96873.96873,0,0,0,.81429.44139.95877.95877,0,0,0,.53271-.15981A.97169.97169,0,0,0,320.18873,171.722Z" fill="#67b3ad"/><rect x="71.26681" y="30.29881" width="39.53104" height="27.90478" fill="#fff" stroke="#73c7c1" stroke-miterlimit="10" stroke-width="1.56312"/><path d="M100.16584,45.64043V40.49729h.739a.3415.3415,0,0,0,.35469-.3547v-.9163a.3415.3415,0,0,0-.35469-.3547h-.739v-1.4188l-.82763-1.005a.59241.59241,0,0,0-.88675,0l-.82763,1.005v8.15809a3.46657,3.46657,0,1,0,2.542.02955Zm-1.271,4.16772a1.005,1.005,0,1,1,1.005-1.005A.99668.99668,0,0,1,98.89483,49.80815Z" fill="#4d575f"/><path d="M92.21466,41.56139V38.98982A5.25384,5.25384,0,0,0,86.74638,34.024,5.5625,5.5625,0,0,0,82.224,36.21134a4.63509,4.63509,0,0,0-.94587,2.77848v2.57157a2.34291,2.34291,0,0,0-1.537,2.18732v3.72434a7.00531,7.00531,0,1,0,14.01062,0V43.7487A2.26363,2.26363,0,0,0,92.21466,41.56139Zm-5.46828,8.51278a2.1282,2.1282,0,1,1,2.1282-2.12819A2.11934,2.11934,0,0,1,86.74638,50.07417ZM90.2047,41.4136H83.28806V38.96026a3.501,3.501,0,0,1,6.91664,0Z" fill="#4d575f"/><rect x="70.43918" y="159.38837" width="39.53104" height="27.90478" fill="#fff" stroke="#b2ec8b" stroke-miterlimit="10" stroke-width="1.56312"/><path d="M99.33821,174.842v-5.14314h.739a.3415.3415,0,0,0,.3547-.3547v-.91631a.34151.34151,0,0,0-.3547-.3547h-.739v-1.41879l-.82764-1.005a.59238.59238,0,0,0-.88674,0l-.82763,1.005v8.15808a3.46658,3.46658,0,1,0,2.542.02956Zm-1.271,4.16772a1.005,1.005,0,1,1,1.005-1.005A.99669.99669,0,0,1,98.0672,179.00971Z" fill="#4d575f"/><path d="M91.387,170.763v-2.57157a5.25385,5.25385,0,0,0-5.46828-4.96579,5.56253,5.56253,0,0,0-4.52242,2.18731,4.63512,4.63512,0,0,0-.94586,2.77848V170.763a2.3429,2.3429,0,0,0-1.537,2.18731v3.72434a7.00531,7.00531,0,1,0,14.01062,0v-3.72434A2.26363,2.26363,0,0,0,91.387,170.763Zm-5.46828,8.51278a2.1282,2.1282,0,1,1,2.1282-2.1282A2.11935,2.11935,0,0,1,85.91875,179.27573Zm3.45832-8.66057H82.46043v-2.45334a3.501,3.501,0,0,1,6.91664,0Z" fill="#4d575f"/><path d="M70.66188,43.93207H67.53564V42.369h3.12624Zm-6.25247,0H61.28317V42.369h3.12624Zm-6.25248,0H55.03069V42.369h3.12624Zm-6.25247,0H48.77822V42.369h3.12624Z" fill="#73c7c1"/><path d="M70.66188,174.12232H67.53564V172.5592h3.12624Zm-6.25247,0H61.28317V172.5592h3.12624Zm-6.25248,0H55.03069V172.5592h3.12624Zm-6.25247,0H48.77822V172.5592h3.12624Z" fill="#b2ec8b"/><path d="M132.01429,43.93207h-2.78545V42.369h2.78545Zm-5.5709,0h-2.78545V42.369h2.78545Zm-5.5709,0h-2.78507V42.369h2.78507Zm-5.57052,0h-4.50412V42.369H115.302Z" fill="#73c7c1"/><polygon points="137.144 44.714 135.581 44.714 135.581 43.932 134.799 43.932 134.799 42.369 137.144 42.369 137.144 44.714" fill="#73c7c1"/><path d="M137.144,79.68535h-1.56311V76.7713H137.144Zm0-5.82887h-1.56311V70.94242H137.144Zm0-5.82811h-1.56311V65.11355H137.144Zm0-5.82888h-1.56311V59.28467H137.144Zm0-5.82888h-1.56311v-2.914H137.144Zm0-5.82887h-1.56311V47.62768H137.144Z" fill="#73c7c1"/><rect x="135.58092" y="82.60017" width="1.56312" height="1.56312" fill="#73c7c1"/><path d="M38.0925,174.34985c0,3.59833-3.64627,3.25767-8.14418,3.25767s-8.14418.34066-8.14418-3.25767,2.17178-9.773,8.14418-9.773S38.0925,170.75153,38.0925,174.34985Z" fill="#4d9dff"/><path d="M25.06181,196.50317c0,3.11855-3.1601,2.82331-7.05828,2.82331s-7.05829.29524-7.05829-2.82331,1.88221-8.47,7.05829-8.47S25.06181,193.38462,25.06181,196.50317Z" fill="#b1c854"/><path d="M50.03729,196.50317c0,3.11855-3.1601,2.82331-7.05828,2.82331s-7.05829.29524-7.05829-2.82331,1.88221-8.47,7.05829-8.47S50.03729,193.38462,50.03729,196.50317Z" fill="#f7963e"/><circle cx="30.14907" cy="159.97895" r="6.95504" fill="#f5aa75"/><circle cx="17.77336" cy="184.29856" r="5.65971" fill="#b26e45"/><circle cx="42.74884" cy="184.29856" r="5.65971" fill="#f5dace"/><path d="M30.35182,179.46382a15.31962,15.31962,0,1,1,11.88912-5.66062A15.32816,15.32816,0,0,1,30.35182,179.46382Zm0-28.44683a13.14678,13.14678,0,1,0,13.13885,13.1362A13.15231,13.15231,0,0,0,30.35182,151.017Z" fill="#b2ec8b"/><path d="M17.8381,200.64664a12.94431,12.94431,0,1,1,10.04873-4.78417A12.95454,12.95454,0,0,1,17.8381,200.64664Zm0-23.7056a10.77315,10.77315,0,1,0,10.76823,10.76558A10.77868,10.77868,0,0,0,17.8381,176.941Z" fill="#b2ec8b"/><path d="M42.86554,200.64664A12.94641,12.94641,0,1,1,52.91321,195.863,12.95465,12.95465,0,0,1,42.86554,200.64664Zm0-23.7056a10.77382,10.77382,0,1,0,10.76824,10.76558A10.77914,10.77914,0,0,0,42.86554,176.941Z" fill="#b2ec8b"/><path d="M38.0925,44.31755c0,3.59833-3.64627,3.25767-8.14418,3.25767s-8.14418.34066-8.14418-3.25767,2.17178-9.773,8.14418-9.773S38.0925,40.71923,38.0925,44.31755Z" fill="#4d9dff"/><path d="M25.06181,66.47087c0,3.11855-3.1601,2.82331-7.05828,2.82331s-7.05829.29524-7.05829-2.82331,1.88221-8.47,7.05829-8.47S25.06181,63.35232,25.06181,66.47087Z" fill="#b1c854"/><path d="M50.03729,66.47087c0,3.11855-3.1601,2.82331-7.05828,2.82331s-7.05829.29524-7.05829-2.82331,1.88221-8.47,7.05829-8.47S50.03729,63.35232,50.03729,66.47087Z" fill="#f7963e"/><circle cx="30.14907" cy="29.94665" r="6.95504" fill="#f5aa75"/><circle cx="17.77336" cy="54.26626" r="5.65971" fill="#b26e45"/><circle cx="42.74884" cy="54.26626" r="5.65971" fill="#f5dace"/><path d="M30.35182,49.43152a15.31966,15.31966,0,1,1,11.88912-5.66063A15.32816,15.32816,0,0,1,30.35182,49.43152Zm0-28.44683a13.14678,13.14678,0,1,0,13.13885,13.1362A13.15231,13.15231,0,0,0,30.35182,20.98469Z" fill="#73c7c1"/><path d="M17.8381,70.61434a12.94431,12.94431,0,1,1,10.04873-4.78417A12.95454,12.95454,0,0,1,17.8381,70.61434Zm0-23.7056A10.77315,10.77315,0,1,0,28.60633,57.67432,10.77868,10.77868,0,0,0,17.8381,46.90874Z" fill="#73c7c1"/><path d="M42.86554,70.61434A12.94641,12.94641,0,1,1,52.91321,65.8307,12.95465,12.95465,0,0,1,42.86554,70.61434Zm0-23.7056A10.77382,10.77382,0,1,0,53.63378,57.67432,10.77914,10.77914,0,0,0,42.86554,46.90874Z" fill="#73c7c1"/></svg>