<svg id="aec5ed61-7011-4606-abb0-0b9f20545a25" data-name="Layer 1" xmlns="http://www.w3.org/2000/svg" xmlns:xlink="http://www.w3.org/1999/xlink" viewBox="0 0 330 240"><defs><linearGradient id="eb549c63-0004-4f91-b014-8e35b7214308" x1="40.95087" y1="87.66871" x2="182.82346" y2="87.66871" gradientUnits="userSpaceOnUse"><stop offset="0.47175" stop-color="#dce0e3"/><stop offset="0.61611" stop-color="#c7ccd1"/></linearGradient><linearGradient id="a1bb6ab6-e9ba-40cd-8e51-287200d401f3" x1="58.34612" y1="66.25406" x2="63.71072" y2="66.25406" gradientUnits="userSpaceOnUse"><stop offset="0" stop-color="#dce0e3"/><stop offset="1" stop-color="#c7ccd1"/></linearGradient><linearGradient id="bf42718f-692b-43af-86e7-c3806a32502a" x1="52.04718" y1="69.16126" x2="57.41178" y2="69.16126" xlink:href="#a1bb6ab6-e9ba-40cd-8e51-287200d401f3"/><linearGradient id="a2fad412-6ef3-4dbb-bc7f-ce22ac780ec2" x1="87.52483" y1="87.9207" x2="91.3628" y2="94.56826" gradientUnits="userSpaceOnUse"><stop offset="0.77702" stop-color="#a47854"/><stop offset="0.80281" stop-color="#9e7452"/><stop offset="0.83775" stop-color="#8d6a4e"/><stop offset="0.87793" stop-color="#705946"/><stop offset="0.92168" stop-color="#49413c"/><stop offset="0.95133" stop-color="#2a2f34"/></linearGradient><linearGradient id="b640e096-dc6e-4140-89c1-20c72d1374f4" x1="69.26397" y1="65.57642" x2="70.41834" y2="65.57642" xlink:href="#a1bb6ab6-e9ba-40cd-8e51-287200d401f3"/><linearGradient id="aa2f6853-90f3-4117-91cd-4dbd704430a9" x1="69.56697" y1="62.33325" x2="69.56697" y2="50.10973" gradientUnits="userSpaceOnUse"><stop offset="0" stop-color="#2a2f34" stop-opacity="0.25"/><stop offset="1" stop-color="#2a2f34" stop-opacity="0.5"/></linearGradient><linearGradient id="a591d52c-af03-43ac-80be-cc8a34cd88d1" x1="89.43518" y1="91.19593" x2="88.75115" y2="92.3807" gradientUnits="userSpaceOnUse"><stop offset="0.41749" stop-color="#b9c0c6"/><stop offset="0.63493" stop-color="#9ba5ae"/></linearGradient><linearGradient id="fff04804-d66f-4496-98a7-1d05b93d2209" x1="91.48675" y1="90.75278" x2="94.21886" y2="90.75278" gradientUnits="userSpaceOnUse"><stop offset="0" stop-color="#cdecff"/><stop offset="1" stop-color="#fff"/></linearGradient></defs><rect x="128.82482" y="149.542" width="89.50552" height="84.98914" rx="3.58043" fill="#eef0f3"/><path d="M140.7323,158.02613a5.86857,5.86857,0,0,0-5.22657,3.04883,6.00433,6.00433,0,0,0,10.45314,0A5.86857,5.86857,0,0,0,140.7323,158.02613Zm2.548,1.58539a4.36648,4.36648,0,0,1,1.568,1.46344,5.31528,5.31528,0,0,1-1.50264,1.40247,4.734,4.734,0,0,1-2.548.73172,4.57639,4.57639,0,0,1-2.54795-.73172,4.45128,4.45128,0,0,1-1.63331-1.40247,4.36648,4.36648,0,0,1,1.568-1.46344c.06534,0,.06534-.061.13067-.061a1.83906,1.83906,0,0,0-.196.85367,2.61951,2.61951,0,0,0,5.22658,0,3.86145,3.86145,0,0,0-.13067-.85367Zm-2.548.48782a.98232.98232,0,1,1-.98-.91465.93248.93248,0,0,1,.97891.88363Zm-6.96877-7.29979v13.93754h13.93754V152.79955Zm10.45315.8711h.8711v.8711h-.8711ZM134.63463,165.866v-9.58205H146.83V165.866Zm11.32424-11.32424v-.8711h.8711v.8711Z" fill="#677480"/><rect x="32.27906" y="149.542" width="89.50552" height="84.98914" rx="3.58043" fill="#eef0f3"/><polygon points="293.89 5.469 301.034 19.756 293.89 19.756 293.89 5.469" fill="#23450b"/><rect x="33.29023" y="15.7851" width="280.20382" height="127.39726" rx="3.69863" fill="#fff" stroke="#c7ccd1" stroke-miterlimit="10" stroke-width="2"/><path d="M24.13512,181.027v4.26243H15.603V181.027a4.26609,4.26609,0,1,1,8.53217,0Z" fill="#969287"/><g id="aeeb56e5-043c-40bb-b61b-8b9211ae970f" data-name="Real Life"><path id="af1f6785-321c-4754-913b-12f0798e2ca8" data-name="Floor" d="M43.47025,75.14912l58.89051-32.88229c3.14412-1.75856,5.44224-1.54917,7.64515-.38124L179.88722,82.5075a5.3684,5.3684,0,0,1,2.93624,5.19112v1.498c0,5.21149-4.22985,11.802-9.44768,14.72039l-51.96221,29.06341c-2.82274,1.57877-5.35456,1.75692-7.08576.7651h0l-71.015-41.27988h0c-1.46893-.8416-2.36192-2.52486-2.36192-4.917V79.873S41.096,76.56658,43.47025,75.14912Z" fill-rule="evenodd" fill="url(#eb549c63-0004-4f91-b014-8e35b7214308)"/><path id="e7a8547c-0f1b-4e7b-806e-95c7bf4b4c05" data-name="Grass" d="M102.36076,42.26682,43.47024,75.14912C41.3711,76.40233,41.015,79.128,40.96047,79.74377a.80913.80913,0,0,0,.62093.84267l72.828,42.26739c1.7331.99291,4.26774.81458,7.09362-.766l60.37468-33.61963a1.898,1.898,0,0,0,.92352-1.36725,5.25581,5.25581,0,0,0-2.91395-4.59349L110.0059,41.88559a8.06138,8.06138,0,0,0-1.79888-.7082h-3.17387A10.544,10.544,0,0,0,102.36076,42.26682Z" fill="#b1c854" fill-rule="evenodd"/><polygon points="128.896 101.205 113.645 109.686 96.149 99.532 111.403 91.042 128.896 101.205" fill="#eef0f3"/><g id="be7afa40-127d-42e8-bb1b-ea0bcb3219cc" data-name="Roads"><g id="fa7b6cab-80b3-4568-982a-baf2e6ca7d0e" data-name="Roads (Merged)"><path id="be44a30d-7b37-42a6-9ac8-791af31e39a7" data-name="Roads" d="M146.43008,101.75894,121.94433,87.5481l34.04592-18.93188-8.86629-5.154L113.07085,82.39815,72.598,58.90882l-8.85561,4.94465,40.455,23.47895L83.943,98.59524c-2.76558,1.53783-2.56105,5.02187-2.55662,5.093l8.91693,5.157a5.9302,5.9302,0,0,1,2.7376-5.21043l.01195-.021,20.018-11.13136,24.63087,14.29506.01144.021a5.29762,5.29762,0,0,1,2.623,4.81039l8.54323-4.75036S149.1072,103.31264,146.43008,101.75894Z" fill="#2a2f34" fill-rule="evenodd"/><path id="a59e90de-47b2-48d8-b00b-2f8974afaf7a" data-name="Road Lines" d="M86.06442,104.782a7.30406,7.30406,0,0,0-.14243,1.38594.23724.23724,0,0,1-.03315.12418l-.4499-.26019a8.04073,8.04073,0,0,1,.14946-1.34173.2424.2424,0,1,1,.476.0918ZM89.20688,73.3986l-2.46573-1.43089a.24233.24233,0,1,0-.24321.41923l2.46573,1.43089a.24233.24233,0,1,0,.24321-.41923Zm9.517,21.36384-2.45012,1.36275a.24211.24211,0,1,0,.23564.423l2.45012-1.36275a.24211.24211,0,0,0-.23564-.423Zm-4.90024,2.725L91.373,98.85022a.24211.24211,0,1,0,.23565.423l2.45059-1.36275a.24211.24211,0,1,0-.23565-.423ZM84.2759,70.53682l-2.46573-1.43089a.24234.24234,0,1,0-.24322.41923l2.46573,1.43089a.24234.24234,0,1,0,.24322-.41923Zm9.862,5.72356-2.46526-1.43089a.24233.24233,0,1,0-.24321.41923l2.46526,1.43089a.24233.24233,0,0,0,.24321-.41923Zm12.085,7.57416,1.84575,1.0711.49311-.27421-2.09565-1.21613a.24234.24234,0,0,0-.24321.41924Zm11.43668.95265.90229-.50186a.24211.24211,0,1,0-.23564-.423l-1.15414.64192ZM79.34443,67.67456,76.8787,66.24367a.24234.24234,0,0,0-.24321.41924l2.46573,1.43089a.24234.24234,0,1,0,.24321-.41924Zm41.55015,15.27925a.24077.24077,0,0,0,.11782-.03076l2.45012-1.36275a.24212.24212,0,0,0-.23564-.423L120.77676,82.5a.24223.24223,0,0,0,.11782.45378ZM99.06933,79.12263,96.6036,77.69127a.24233.24233,0,1,0-.24321.41923l2.46573,1.43137a.24234.24234,0,0,0,.24321-.41924ZM74.41345,64.81278l-2.46573-1.43089a.24234.24234,0,1,0-.24322.41924L74.17023,65.232a.24234.24234,0,1,0,.24322-.41924ZM69.482,61.951l-1.14371-.66375-.448.25016a.23565.23565,0,0,0,.09124.10319l1.25723.72964A.24234.24234,0,0,0,69.482,61.951Zm31.80986,19.02176,2.46526,1.43089a.24234.24234,0,0,0,.24321-.41924l-2.46526-1.43089a.24234.24234,0,0,0-.24321.41924Zm-12.369,19.23974-.65346.3634a4.81084,4.81084,0,0,0-1.59082,1.43894.242.242,0,1,0,.39463.28012,4.3512,4.3512,0,0,1,1.43183-1.296l.65346-.3634a.24211.24211,0,0,0-.23564-.423Zm54.23566-29.88166a.24189.24189,0,0,0-.32933-.09369l-2.45011,1.36275a.24211.24211,0,1,0,.23564.423l2.45011-1.36275A.24178.24178,0,0,0,143.15855,70.33084Zm-4.99439,3.05436a.24211.24211,0,0,0-.23564-.423l-2.45012,1.36275a.24211.24211,0,1,0,.23564.423Zm.3545,28.63262-2.46526-1.43089a.24234.24234,0,0,0-.24321.41924l2.46526,1.43089a.24234.24234,0,0,0,.24321-.41924Zm3.73763,2.18561-1.2719-.75472a.24234.24234,0,0,0-.24321.41924l1.1413.66245.06483.05157a5.77238,5.77238,0,0,1,1.08547.84889.24224.24224,0,1,0,.34447-.34069A6.20763,6.20763,0,0,0,142.25629,104.20343Zm8.7244-38.49927-.80065.4452a.24211.24211,0,1,0,.23565.423l1.05214-.585Zm-6.50283,41.802a.24289.24289,0,0,0-.18359.28959,7.1734,7.1734,0,0,1,.16041,1.39587.23529.23529,0,0,0,.03217.10916l.44384-.24679a7.60953,7.60953,0,0,0-.16324-1.36423A.24245.24245,0,0,0,144.47786,107.50621Zm3.25207-39.9941-2.45012,1.36276a.24211.24211,0,1,0,.23564.423l2.45012-1.36276a.24211.24211,0,0,0-.23564-.423ZM128.36322,78.83526a.24211.24211,0,1,0-.23564-.423L125.67747,79.775a.24211.24211,0,1,0,.23564.423Zm-9.569,11.735-.87677-.50882-.49311.27424,1.12667.65381a.24233.24233,0,0,0,.24321-.41923Zm-10.97811-.86343-1.741.96832a.24212.24212,0,1,0,.23564.423l1.99288-1.10842Zm15.9091,3.72521-2.46573-1.43089a.24233.24233,0,1,0-.24321.41923l2.46573,1.43089a.24233.24233,0,1,0,.24321-.41923ZM103.62453,92.0374l-2.45012,1.36276a.24211.24211,0,1,0,.23565.423l2.45011-1.36275a.24212.24212,0,0,0-.23564-.423ZM133.58767,99.156l-2.46573-1.43089a.24234.24234,0,0,0-.24321.41924l2.46573,1.43089a.24234.24234,0,0,0,.24321-.41924Zm-.32374-23.04581a.24211.24211,0,1,0-.23564-.423L130.5777,77.05a.24211.24211,0,1,0,.23564.423Zm-4.60772,20.18356L126.191,94.8629a.24233.24233,0,0,0-.24321.41923L128.413,96.713a.24233.24233,0,1,0,.24321-.41923Z" fill="#fff"/><path id="b3efbb04-51fc-4cb0-a9eb-3c8c9f1f0db2" data-name="Stop Lines" d="M108.80284,84.77146l-4.6055,2.561-.48785-.28314.25236-.14033,4.35315-2.42063Zm9.10838-.12433-4.34738-2.5231-.493.27412,4.34741,2.52313Zm4.03311,2.901-4.76112,2.64752.48785.28314,4.50876-2.5072.25235-.14032Zm-14.37988,2.29873,5.01344,2.90966.493-.27412-5.01344-2.90966Z" fill="#fff"/></g></g><g id="f7653b86-d824-4cdb-8612-a71128c850bb" data-name="Comcast Tower"><g id="ad67b16f-f722-4d14-be57-55a2b056e3e4" data-name="Slanted Rear"><polygon id="bcfb6367-45b9-416b-92ea-dc6c6d4b9e56" data-name="Building" points="99.234 61.498 91.123 66.036 90.041 65.401 91.835 37.715 96.798 35.003 97.842 35.565 99.234 61.498" fill="#dce0e3"/><polygon id="b070a707-2a90-41bb-8089-c546c59dd192" data-name="Shade" points="97.842 35.565 99.234 61.498 91.123 66.036 92.917 38.196 97.842 35.565" fill="#c7ccd1"/><polygon id="fc8207ee-f8a6-4072-9d53-d50c49fd6fe1" data-name="Top" points="91.835 37.715 92.917 38.196 97.842 35.568 97.842 35.565 96.798 35.003 91.835 37.715" fill="#eef0f3"/></g><g id="a548132d-37ee-4467-8d4c-1836a2f13535" data-name="Tower"><polygon id="a47abcc0-091e-408f-b6c5-5c5c27888d0a" data-name="Building" points="103.758 64.134 95.647 68.672 91.124 66.033 91.124 35.875 99.274 31.404 103.758 34.11 103.758 64.134" fill="#dce0e3"/><polygon id="f383c6b1-bcab-4bc8-b664-61f58aaff8b3" data-name="Shade" points="103.758 34.11 103.758 64.134 95.647 68.672 95.647 34.11 103.758 34.11" fill="#c7ccd1"/><polygon id="e8de883d-9a36-487c-aa40-926fdcd6aeaf" data-name="Top" points="91.124 35.875 95.647 38.36 103.758 34.113 103.758 34.11 99.274 31.404 91.124 35.875" fill="#eef0f3"/></g><g id="e67947de-7fa4-4b6f-83e6-a26fa3e39922" data-name="Slanted Front"><polygon id="b9476ce1-68e2-4430-a422-c373ceb500d8" data-name="Building" points="104.84 64.761 96.729 69.299 95.647 68.664 97.441 40.978 102.405 38.266 103.448 38.828 104.84 64.761" fill="#dce0e3"/><polygon id="a04eb20d-7e3e-4242-a26b-215f404295ff" data-name="Shade" points="103.448 38.828 104.84 64.761 96.729 69.299 98.523 41.459 103.448 38.828" fill="#c7ccd1"/><polygon id="bed287f1-f4b2-45fe-99ed-dfc99e25035f" data-name="Top" points="97.441 40.978 98.523 41.459 103.448 38.831 103.448 38.828 102.405 38.266 97.441 40.978" fill="#eef0f3"/><g id="b6bfbafe-07ef-4b90-a4da-96d0956d1d3e" data-name="Hole"><polygon id="a881a74f-c5dd-4a06-8b7d-3b7c8e9d9c1a" data-name="Top" points="99.602 43.374 99.602 44.42 102.609 42.861 102.609 42.86 101.54 42.344 99.602 43.374" fill="#eef0f3"/><polygon id="bf9bf0ef-6c62-4827-813c-a9b36395931d" data-name="Building" points="101.54 41.104 101.54 42.343 102.609 42.86 102.598 40.55 101.54 41.104" fill="#dce0e3"/></g></g></g><g id="a18795ae-ead0-4305-8985-6fa1d2023e92" data-name="Comcast Tower 2"><g id="bdb5c569-9213-4f4a-9250-26dd24bca3a0" data-name="Tower"><polygon id="a7a22d70-b013-44e7-8c86-68eac2dbd537" data-name="Building" points="125.278 69.772 112.185 77.097 104.884 72.837 104.884 69.093 118.039 61.875 125.278 66.243 125.278 69.772" fill="#dce0e3"/><polygon id="e8ae6646-c8d7-4fdf-8f2f-915acfe48da5" data-name="Shade" points="125.278 66.243 125.278 69.772 112.185 77.097 112.185 66.243 125.278 66.243" fill="#c7ccd1"/><polygon id="aef00745-13c7-4887-9928-d932c324ae8b" data-name="Top" points="104.884 69.093 112.185 73.104 125.278 66.248 125.278 66.243 118.039 61.875 104.884 69.093" fill="#eef0f3"/></g><g id="b2600e22-734c-4c1a-92b7-878ce4f446f0" data-name="Tower"><polygon id="ea09097b-5db5-45ec-bfab-f42027e43d33" data-name="Building" points="123.528 65.466 112.88 71.423 106.944 67.959 106.944 46.577 117.641 40.708 123.528 44.259 123.528 65.466" fill="#dce0e3"/><polygon id="a148affe-6d86-433d-8e4c-dc0aba1ef01c" data-name="Shade" points="123.528 44.259 123.528 65.466 112.88 71.423 112.88 44.259 123.528 44.259" fill="#c7ccd1"/><polygon id="bcaea40b-04e1-4541-8c0f-6e2b8df41711" data-name="Top" points="106.944 46.577 112.88 49.838 123.528 44.263 123.528 44.259 117.641 40.707 106.944 46.577" fill="#eef0f3"/></g><g id="e29053c7-29a1-44fc-8a3a-3f91f13779c4" data-name="Tower"><polygon id="b85f6d5c-54ef-4060-92af-4de3fa65da06" data-name="Building" points="122.366 43.485 111.536 49.118 108.388 47.386 108.388 37.763 118.53 35.2 122.366 34.038 122.366 43.485" fill="#dce0e3"/><polygon id="f0102b55-8da6-4598-9ae8-61174560ef48" data-name="Shade" points="122.366 34.038 122.366 43.485 111.536 49.118 111.536 38.196 122.366 34.038" fill="#c7ccd1"/><polygon id="ef1a587a-a380-4f5d-a603-44d6e64d9826" data-name="Top" points="108.388 37.763 111.536 39.293 122.366 34.042 122.366 34.038 119.269 32.218 108.388 37.763" fill="#eef0f3"/></g><g id="ad913602-70d7-4335-9675-d01be9704b22" data-name="Tower"><polygon id="b729db14-de7f-43b7-b72b-49ee1602feb7" data-name="Building" points="122.366 34.047 119.977 35.269 116.769 33.476 116.769 28.717 119.183 27.539 122.366 29.375 122.366 34.047" fill="#dce0e3"/><polygon id="bb04ee83-9462-4b4d-96f4-5f9b58ca9a2c" data-name="Shade" points="122.366 29.375 122.366 34.047 119.977 35.269 119.977 29.211 122.366 29.375" fill="#c7ccd1"/><polygon id="fa76f3c2-e03c-4bd0-906a-126e87322dac" data-name="Top" points="116.769 28.717 119.977 30.408 122.366 29.377 122.366 29.375 119.183 27.539 116.769 28.717" fill="#eef0f3"/></g><g id="f0306bef-f315-4376-a7f8-cc0ccaf18afe" data-name="Tower"><polygon id="e7eab418-fa0d-490b-9b36-824216854409" data-name="Building" points="121.343 28.761 118.953 29.983 118.204 29.625 118.204 24.866 120.619 23.688 121.343 24.09 121.343 28.761" fill="#dce0e3"/><polygon id="a31a7b84-721e-49ad-b0ec-f5d062d91ae6" data-name="Shade" points="121.343 24.09 121.343 28.761 118.953 29.983 118.953 24.796 121.343 24.09" fill="#c7ccd1"/><polygon id="a092f1a7-f096-4d0f-a47b-956af16822b8" data-name="Top" points="118.204 24.866 118.953 25.239 121.343 24.092 121.343 24.09 120.619 23.688 118.204 24.866" fill="#eef0f3"/></g></g><g id="e346fa30-c71c-48b4-affe-5fc93b06a84e" data-name="Generic Towers"><g id="b6a30e45-01fd-4751-ae0f-1a024befb4c8" data-name="Tower"><polygon id="ea02e4b7-a585-4006-bfa3-18554db97824" data-name="Building" points="159.911 79.555 151.34 84.529 142.677 79.713 142.677 58.762 151.34 53.945 159.911 58.92 159.911 79.555" fill="#dce0e3"/><polygon id="e41b33e1-0d63-4e39-85cd-1501924ed6a4" data-name="Shade" points="159.911 58.92 159.911 79.555 151.34 84.529 151.34 58.92 159.911 58.92" fill="#c7ccd1"/><polygon id="a9b14c36-0d46-44ef-b13a-60140cef5031" data-name="Top" points="142.677 58.762 151.34 63.216 159.911 58.927 159.911 58.92 151.34 53.945 142.677 58.762" fill="#eef0f3"/></g><g id="f4192e2e-ec17-441a-bf02-68e50f027c4b" data-name="Tower"><polygon id="b847a27e-9b65-4a78-9fb5-45791308481a" data-name="Building" points="145.438 87.469 136.867 92.444 128.204 87.627 128.204 70.553 136.867 65.736 145.438 70.711 145.438 87.469" fill="#dce0e3"/><polygon id="f27a4d17-99f8-4899-9cb7-efa904ca9db1" data-name="Shade" points="145.438 70.711 145.438 87.469 136.867 92.444 136.867 70.711 145.438 70.711" fill="#c7ccd1"/><polygon id="b1315de3-b172-4984-b4fd-1f6d05cf4e2b" data-name="Top" points="128.204 70.553 136.867 75.006 145.438 70.718 145.438 70.711 136.867 65.736 128.204 70.553" fill="#eef0f3"/></g><g id="aa3860de-1573-484d-9174-f36cd39787da" data-name="Tower"><polygon id="f7953843-ab96-44a4-bbf4-fbd07d332d1a" data-name="Building" points="159.974 94.737 151.403 99.712 142.74 94.895 142.74 84.604 151.403 79.787 159.974 84.762 159.974 94.737" fill="#dce0e3"/><polygon id="af4e1915-be6c-4c55-ae32-78914bef5b07" data-name="Shade" points="159.974 84.762 159.974 94.737 151.403 99.712 151.403 84.762 159.974 84.762" fill="#c7ccd1"/><polygon id="ab31a36f-37aa-4866-b9d8-e3f64fd5fb92" data-name="Top" points="142.74 84.604 151.403 89.058 159.974 84.769 159.974 84.762 151.403 79.787 142.74 84.604" fill="#eef0f3"/></g></g><g id="a442693c-eb6d-46a2-8b93-b27ad6fb4eca" data-name="Red Lights"><g id="b09a150a-536a-4d25-852c-3a46d3e39d49" data-name="Red Light"><polygon id="e7b91765-d67d-4c25-85ec-ab27ab9cf784" data-name="Box" points="109.936 75.571 110.563 75.92 110.563 78.158 109.573 78.732 108.936 78.391 108.936 76.153 109.936 75.571" fill="#ffc335"/><polygon id="bf304041-0411-4e84-b219-8d1cfec7bc2f" data-name="Shade" points="110.563 75.92 109.573 76.491 109.573 78.732 110.563 78.158 110.563 75.92" fill="#e5af30"/><ellipse id="b0df326e-32f4-46b5-a87d-792bcba55dd6" data-name="Green Light" cx="110.05099" cy="77.77345" rx="0.30149" ry="0.3899" fill="#b1c854"/><ellipse id="fc4bb87e-b6df-4d66-99c6-3c0fff37e039" data-name="Red Light" cx="110.05099" cy="76.80438" rx="0.30149" ry="0.3899" fill="#f7706c"/></g><polyline points="111.267 74.794 102.318 79.758 102.318 87.419" fill="none" stroke="#7d858c" stroke-linecap="round" stroke-linejoin="round" stroke-width="2"/><g id="a73f386a-3329-4bda-86a1-de96f4f71a11" data-name="Red Light"><polygon id="b9f24334-192a-4ba0-b6db-3cd2ed599752" data-name="Box" points="120.223 77.994 119.596 78.342 119.596 80.581 120.586 81.155 121.223 80.814 121.223 78.575 120.223 77.994" fill="#ffc335"/><polygon id="aa6be665-60cc-4539-aefb-c2a4334b2a6c" data-name="Shade" points="121.223 78.572 120.586 78.913 120.586 81.155 121.223 80.814 121.223 78.572" fill="#e5af30"/><ellipse id="b2e92600-17aa-4788-a956-65464ed48fe1" data-name="Green Light" cx="120.10776" cy="80.19612" rx="0.30149" ry="0.3899" fill="#b1c854"/><ellipse id="a8a7873c-c0e4-41f7-971c-62ee3bb997ff" data-name="Red Light" cx="120.10776" cy="79.22706" rx="0.30149" ry="0.3899" fill="#f7706c"/></g><polyline id="a1b641f2-831d-4678-85c3-555598b41e44" data-name="Light Pole" points="121.944 78.996 113.071 73.817 113.071 81.478" fill="none" stroke="#7d858c" stroke-linecap="round" stroke-linejoin="round" stroke-width="2"/></g><g id="aa61f2ab-7d92-4434-84f0-d6528bf9a9fe" data-name="Left"><g id="e38db89a-ca7e-48f1-9f02-931ca7fc44d7" data-name="Tank"><ellipse id="a41e3932-4668-4040-ad0e-a20c2e7fa91b" data-name="Shadow" cx="60.97069" cy="73.82784" rx="3.16966" ry="1.52168" opacity="0.1"/><path id="b974d8ae-7b96-4aa3-af80-eb02233841e1" data-name="Legs - Background" d="M63.23054,69.95907l.44415,3.49268.58177-.47909" fill="none" stroke="#9ba5ae" stroke-linecap="round" stroke-linejoin="round" fill-rule="evenodd"/><path d="M62.451,73.48909l1.00287-2.01861H58.60309l1.16635,2.02166h.00246a2.36273,2.36273,0,0,0,2.67591,0h.00171l.00092-.00187.00059-.00041Z" fill="#7d858c"/><rect x="58.34612" y="59.49568" width="5.3646" height="13.51675" rx="2.37174" fill="url(#a1bb6ab6-e9ba-40cd-8e51-287200d401f3)"/><path d="M61.02842,70.4436c-1.48137,0-2.6823-.59626-2.6823-1.33182v.98977a4.7654,4.7654,0,0,0,5.3646,0v-.98977C63.71072,69.84734,62.50983,70.4436,61.02842,70.4436Z" fill="#7d858c"/><path id="b5cf1743-84cd-4dd9-b915-ea3ba8cad08f" data-name="Legs - Foreground" d="M60.62616,71.8972,60.182,75.38989l-.34321.3634m-1.93814-.96907.34321-.3634.44416-3.49269" fill="none" stroke="#9ba5ae" stroke-linecap="round" stroke-miterlimit="10" fill-rule="evenodd"/></g><g id="ac124edb-d45c-4f16-a176-4abc533eea20" data-name="Tank"><ellipse id="bbe15197-deae-4d9c-8dfb-5bbfc0ce26bf" data-name="Shadow" cx="54.67174" cy="76.73504" rx="3.16966" ry="1.52168" opacity="0.1"/><path id="ab763157-955b-4377-b38f-5da1a5bf6846" data-name="Legs - Background" d="M56.93159,72.86627l.44416,3.49269.58176-.47909" fill="none" stroke="#9ba5ae" stroke-linecap="round" stroke-linejoin="round" fill-rule="evenodd"/><path d="M56.15209,76.3963,57.155,74.37769H52.30414l1.16635,2.02165H53.473a2.36268,2.36268,0,0,0,2.67591,0h.00172l.00092-.00186.00059-.00041Z" fill="#7d858c"/><rect x="52.04718" y="62.40289" width="5.3646" height="13.51675" rx="2.37174" fill="url(#bf42718f-692b-43af-86e7-c3806a32502a)"/><path d="M54.72948,73.35081c-1.48138,0-2.6823-.59627-2.6823-1.33182v.98977a4.7654,4.7654,0,0,0,5.3646,0V72.019C57.41178,72.75454,56.21088,73.35081,54.72948,73.35081Z" fill="#7d858c"/><path id="f425962e-c261-4e98-b236-015ecd1704cd" data-name="Legs - Foreground" d="M54.32722,74.80441l-.44416,3.49268-.34321.3634m-1.93814-.96907.34321-.3634.44416-3.49268" fill="none" stroke="#9ba5ae" stroke-linecap="round" stroke-miterlimit="10" fill-rule="evenodd"/></g><g id="babbdfed-3f25-4ec9-88c3-c8836902dc12" data-name="Warehouse"><g id="a9c2bfe5-c30c-4746-88f4-857c805cd6d4" data-name="Dirt Road"><polygon id="baf79a07-efba-4413-882c-dc32d912c3e6" data-name="Dirt Road" points="90.37 95.021 82.876 90.605 88.509 87.475 96.012 91.884 90.37 95.021" fill-rule="evenodd" fill="url(#a2fad412-6ef3-4dbb-bc7f-ce22ac780ec2)"/><polygon id="a83e6fcd-e913-4a18-b6d4-a79b01f103e1" data-name="Shade" points="83.777 90.365 91.03 94.573 94.219 92.864 87.028 88.551 83.777 90.365" fill-rule="evenodd" opacity="0.1"/></g><polygon id="ace178e0-bc04-4003-a813-416419ead3d1" data-name="Building" points="57.174 75.213 57.174 81.198 78.207 93.555 93.122 85.232 93.122 79.315 57.174 75.213" fill="#dce0e3"/><polygon id="ff4fc089-1239-4a05-ad22-909a2d8d0768" data-name="Shade" points="93.122 79.315 93.122 85.232 78.207 93.555 78.207 79.315 93.122 79.315" fill="#c7ccd1"/><path id="f75f488e-5fb1-48e8-831d-11739340a29d" data-name="Opening" d="M87.27523,82.66068l-3.36734,1.87944V90.391h0l3.36734-1.89844V82.66068Z" fill="#2a2f34" fill-rule="evenodd"/><path id="f64459fd-670f-4f7e-ad4a-f84941a617f1" data-name="Windows" d="M60.26449,78.48386v2.56486L58.85043,80.218V77.65029Zm1.65037,1.00192v2.56767l1.41406.83077V80.31936Zm3.17025,1.839v2.56766l1.41407.83077V82.15838Zm3.0186,1.77492V85.6674l1.41406.83077V83.93331ZM71.03148,84.86v2.56767l1.41406.83077V85.6936Zm3.64535,2.10817v2.56767l1.41407.83077V87.80177Z" fill="#fff"/><g id="e496ef91-b652-4118-a896-a2759a732de5" data-name="Roof"><polygon points="85.408 80.411 93.122 79.315 72.09 66.957 64.532 68.189 85.408 80.411" fill="#3e7794"/><polygon points="85.408 80.411 78.207 87.526 57.174 75.213 64.532 68.189 85.408 80.411" fill="#4585a5"/></g><g id="b29fff40-218d-45e5-9066-a7e63092126f" data-name="Smoke Stack"><path d="M69.264,68.67317V62.33325h.16975c0,.12858.18241.23282.40744.23282s.40742-.10424.40742-.23282h.16976V68.455A.82914.82914,0,0,1,69.264,68.67317Z" fill="url(#b640e096-dc6e-4140-89c1-20c72d1374f4)"/><ellipse id="e0accb1e-14fc-4dbc-be52-03db1c463d54" data-name="Hole" cx="69.84115" cy="62.33325" rx="0.40743" ry="0.23282" fill="#2a2f34"/><path id="b8297d9d-7b14-4ae0-baf9-0bd69bcc9b0a" data-name="Top" d="M69.84116,62.1267c.19963,0,.36146.09248.36146.20655s-.16183.20655-.36146.20655-.36147-.09247-.36147-.20655.16184-.20655.36147-.20655m0-.12327c-.31826,0-.57719.148-.57719.32982s.25893.32982.57719.32982.57718-.14795.57718-.32982-.25892-.32982-.57718-.32982Z" fill="#eef0f3"/><path d="M66.41978,54.06266a2.04767,2.04767,0,0,0,1.10245,2.585,1.9842,1.9842,0,0,0,.7223,2.319c1.21649,4.752,2.12887,4.18171,2.92719.11405a2.03056,2.03056,0,0,0,.98841-2.01482,2.08608,2.08608,0,0,0,.26611-4.06767,2.38539,2.38539,0,0,0-2.395-1.17848C69.04285,47.79009,62.54219,51.85775,66.41978,54.06266Z" fill="url(#aa2f6853-90f3-4117-91cd-4dbd704430a9)"/></g></g><g id="f8044e26-9f4c-47b0-8345-e71b9f3653ce" data-name="Truck"><g id="a87ed31c-bcf9-4d20-b504-78d61673a90c" data-name="Wheel"><path id="bf6cb007-b027-4892-83e8-29cf2cc01d97" data-name="3D" d="M85.85821,90.18352a1.52486,1.52486,0,0,0-.7163-1.23242.49692.49692,0,0,0-.48058-.03357l.00131-.00458-.32422.17386.00376.00169a.53314.53314,0,0,0-.23582.49994,1.5248,1.5248,0,0,0,.71633,1.23242.4982.4982,0,0,0,.47758.0349l-.00127.00446.32422-.17386-.00367-.00163A.53124.53124,0,0,0,85.85821,90.18352Z" fill="#262a2f" fill-rule="evenodd"/><path id="b5c0b038-0b74-4738-9c50-fc6af804c652" data-name="Tire" d="M84.82268,89.12212c-.39561-.21155-.71632-.00276-.71632.46633a1.52486,1.52486,0,0,0,.71632,1.23241c.39561.21155.71631.00276.71631-.46633A1.52485,1.52485,0,0,0,84.82268,89.12212Z" fill="#2a2f34" fill-rule="evenodd"/><path id="e4a06414-635a-463c-8f41-bf9bfd9a16ae" data-name="Wheel" d="M84.82268,89.46518c-.23583-.1261-.427-.00164-.427.278a.909.909,0,0,0,.427.73464c.23582.1261.427.00164.427-.278A.909.909,0,0,0,84.82268,89.46518Z" fill="#9ba5ae" fill-rule="evenodd"/></g><g id="f0fe62a5-35c8-4e36-80a2-a2defccbbd31" data-name="Wheel"><path id="b4d1c9d7-fc01-4f34-bae6-b2627a36d8ab" data-name="3D" d="M87.41849,91.068a1.52487,1.52487,0,0,0-.7163-1.23242.49693.49693,0,0,0-.48057-.03357l.0013-.00458-.32422.17386.00376.00169a.53315.53315,0,0,0-.23582.49994A1.52479,1.52479,0,0,0,86.383,91.7053a.4982.4982,0,0,0,.47758.0349l-.00127.00447.32422-.17387-.00367-.00162A.53125.53125,0,0,0,87.41849,91.068Z" fill="#262a2f" fill-rule="evenodd"/><path id="be5aa6c8-7588-4320-8113-b9460a1afb3a" data-name="Tire" d="M86.383,90.00657c-.39561-.21155-.71632-.00277-.71632.46633a1.52483,1.52483,0,0,0,.71632,1.2324c.39561.21155.71632.00277.71632-.46633A1.52483,1.52483,0,0,0,86.383,90.00657Z" fill="#2a2f34" fill-rule="evenodd"/><path id="a855a7c0-b61b-410e-85ec-3fa14ca12145" data-name="Wheel" d="M86.383,90.34963c-.23583-.1261-.427-.00165-.427.278a.90894.90894,0,0,0,.427.73463c.23582.1261.427.00165.427-.278A.909.909,0,0,0,86.383,90.34963Z" fill="#9ba5ae" fill-rule="evenodd"/></g><g id="bd5b44e0-a2b6-45ba-80cb-e58fce917976" data-name="Gas Tank"><path d="M90.049,91.55293l.00062-.001-1.14651-.66322-.00065.001a.09.09,0,0,0-.08582.00311l-.59694.28807a.21969.21969,0,0,0-.11936.177v.59691a.06946.06946,0,0,0,.03161.06107l-.002.00287.00494.00287.00118.00068,1.16023.67316.00562-.00855a.09164.09164,0,0,0,.06852-.00467l.59695-.28808a.21966.21966,0,0,0,.11939-.177v-.59694A.06873.06873,0,0,0,90.049,91.55293Z" fill-rule="evenodd" fill="url(#a591d52c-af03-43ac-80be-cc8a34cd88d1)"/><path d="M89.96745,91.55849l-.59693.28808a.21968.21968,0,0,0-.11939.177v.59694c0,.06593.05345.09359.11939.06177l.59693-.28808a.2197.2197,0,0,0,.11939-.177v-.59693C90.08684,91.55432,90.03339,91.52667,89.96745,91.55849Z" fill="#7d858c" fill-rule="evenodd"/></g><g id="ee0ccfe7-9c56-4ad9-9ffd-ecd8953733b1" data-name="Trailer"><path id="ea3c6b6e-3bc2-4710-8a9a-6263aaa05391" data-name="Trailer" d="M86.875,83.48863l-2.5668,1.43264v3.89242L89.289,91.67156l2.5668-1.44711V86.34439Z" fill="#9ba5ae" fill-rule="evenodd"/><path id="a962dc74-e3c9-40d0-97ee-516d42327217" data-name="Shade" d="M91.85579,86.3465,89.289,87.77913v3.89243h0l2.5668-1.44711V86.3465Z" fill="#7d858c" fill-rule="evenodd"/><path id="a3046ced-739c-4940-9217-565b69b728e5" data-name="Shine" d="M86.875,83.48863l-2.5668,1.43264v-.00581L89.289,87.77332l2.5668-1.44711v.01818Z" fill="#bfc4c7" fill-rule="evenodd"/></g><g id="a037d269-e670-4557-a099-9ec4af0dcf39" data-name="Wheel"><path id="ffef3657-62c5-4e99-a303-9c9187bb00d8" data-name="3D" d="M91.29476,93.34308a1.52485,1.52485,0,0,0-.7163-1.23242.49689.49689,0,0,0-.48057-.03356l.0013-.00459-.32421.17387.00375.00168a.53317.53317,0,0,0-.23582.49994,1.52481,1.52481,0,0,0,.71633,1.23242.49819.49819,0,0,0,.47759.0349l-.00127.00447.32421-.17387-.00367-.00162A.53123.53123,0,0,0,91.29476,93.34308Z" fill="#262a2f" fill-rule="evenodd"/><path id="b8b1b1c8-e885-48c7-8c42-50bf4f216fcd" data-name="Tire" d="M90.25923,92.28169c-.39561-.21155-.71632-.00277-.71632.46633a1.52483,1.52483,0,0,0,.71632,1.2324c.39561.21155.71632.00277.71632-.46632A1.52483,1.52483,0,0,0,90.25923,92.28169Z" fill="#2a2f34" fill-rule="evenodd"/><path id="fc0d0081-2b4d-4baf-aec8-2351a5b5e106" data-name="Wheel" d="M90.25923,92.62475c-.23582-.1261-.427-.00165-.427.278a.909.909,0,0,0,.427.73463c.23582.12611.427.00165.427-.278A.909.909,0,0,0,90.25923,92.62475Z" fill="#9ba5ae" fill-rule="evenodd"/></g><g id="a2f6d49d-faea-4197-8b3a-845e8c0d89cc" data-name="Cab"><path id="b9848f29-3306-43af-8cea-c15674ee5370" data-name="Cab" d="M92.348,88.28074l1.552.95509.59693,1.67141v1.92589l-2.56681,1.41693-.71632-.41289a1.77167,1.77167,0,0,0-.795-1.60466l-.63761-.37018V89.66539Z" fill="#f7706c" fill-rule="evenodd"/><path id="bca5ed89-0396-47ce-b1c2-e11b04d9c7da" data-name="Shade" d="M91.93019,92.23489,94.497,90.90724v1.92589l-2.56681,1.41693Z" fill="#de6561" fill-rule="evenodd"/><path id="bf4899f6-3b8f-4fe6-9289-66a363480dbf" data-name="Bumper" d="M91.93019,94.173,94.497,92.84538" fill="none" stroke="#9ba5ae" stroke-linecap="round" stroke-miterlimit="10" fill-rule="evenodd"/><path id="ae195be8-4375-4eb3-af77-9c620d008db6" data-name="Top" d="M89.78123,89.66539,92.348,88.28074l1.552.95509-2.64856,1.321Z" fill="#f99b98" fill-rule="evenodd"/><path id="b89cb133-6d20-43ad-afeb-00b552dfc628" data-name="Window" d="M93.77062,89.5671l.44824,1.23254-2.19257,1.13883-.53954-1.18422Z" fill-rule="evenodd" fill="url(#fff04804-d66f-4496-98a7-1d05b93d2209)"/></g></g></g><g id="eec27c8c-d881-412b-876c-8ece193da56f" data-name="Fountain"><ellipse id="a66ad4f9-7d46-499d-908b-7f3343806e82" data-name="Concrete" cx="112.99034" cy="104.88723" rx="13.15712" ry="6.72158" fill="#eef0f3"/><ellipse id="fcbb451d-18ab-423d-bed9-94beadeb77f6" data-name="Water" cx="112.99034" cy="104.4027" rx="7.90512" ry="4.03849" fill="#6ab9ec"/><g id="b6420484-c604-49d0-b82f-24053f03caf1" data-name="Bench"><polygon id="ba66b86c-081a-4909-9e9e-03c3bf83cad2" data-name="Shade" points="119.06 99.569 121.76 101.081 122.904 100.447 120.36 99.029 119.06 99.569" fill-rule="evenodd" opacity="0.1"/><path id="b9f3c4e7-73d2-474f-95a6-d609e7ed4c55" data-name="Legs" d="M121.57785,100.76527v-.65554l.90613-.5018v.69182m-2.16527-1.15734v-.69182l-.90612.5018v.65554" fill="none" stroke="#7d858c" stroke-linecap="round" stroke-miterlimit="10" stroke-width="0.5"/><g id="a9df68c9-92ff-446a-9db1-f65494ef7667" data-name="Seat"><polygon id="ff2216e7-19ea-4b2b-906a-9221856cdca3" data-name="Bench" points="122.904 99.73 121.76 100.364 119.06 98.852 119.06 98.452 120.296 97.975 122.904 99.361 122.904 99.73" fill="#a47854"/><polygon id="b68b6614-09e6-4740-914d-24c6a5b634ba" data-name="Shade" points="122.904 99.361 122.904 99.73 121.76 100.364 121.76 99.6 122.904 99.361" fill="#936c4b"/><polygon id="b6d13096-3e5d-4d7c-ba3e-70b77573879b" data-name="Top" points="119.06 98.452 121.76 100.004 122.904 99.368 122.904 99.361 120.296 97.975 119.06 98.452" fill="#bfa188"/></g><g id="ab272539-9ff4-4ae0-a266-3dd77d0b3ea1" data-name="Back"><polygon id="a585f726-d5aa-413c-a9f7-1fcb348c7613" data-name="Bench" points="123.01 99.244 122.732 99.407 120.146 98.021 120.146 96.769 120.391 96.697 123.01 98.032 123.01 99.244" fill="#a47854"/><polygon id="be6fb736-1109-48b6-b32b-84525f38643d" data-name="Shade" points="123.01 98.032 123.01 99.244 122.732 99.407 122.732 98.098 123.01 98.032" fill="#936c4b"/><polygon id="b765219e-1ad8-4321-bb44-02e6eb08da29" data-name="Top" points="120.146 96.769 122.732 98.204 123.01 98.039 123.01 98.032 120.459 96.643 120.146 96.769" fill="#bfa188"/></g></g><g id="ace48481-7220-40f0-b76b-4513b0d14ecb" data-name="Bench"><polygon id="a82fb018-ad14-47a4-97fc-e94386875213" data-name="Shade" points="105.959 99.697 103.26 101.208 102.115 100.574 104.66 99.157 105.959 99.697" fill-rule="evenodd" opacity="0.1"/><path id="bb31f37a-a14e-4cc4-989f-1e58b9616798" data-name="Legs" d="M103.44193,100.8931v-.65554l-.90613-.5018v.69183m2.16527-1.15734v-.69183l.90612.50181v.65553" fill="none" stroke="#7d858c" stroke-linecap="round" stroke-miterlimit="10" stroke-width="0.5"/><g id="fca7a6e0-5173-4671-8dfc-22c3e34bb79d" data-name="Seat"><polygon id="a822ef47-0964-49d4-a7cc-cdc515a32651" data-name="Bench" points="102.115 99.858 103.26 100.492 105.959 98.98 105.959 98.579 104.723 98.103 102.115 99.488 102.115 99.858" fill="#936c4b"/><polygon id="bfcb5583-3edc-467b-bb60-8c7bf39bb71b" data-name="Shade" points="102.115 99.488 102.115 99.858 103.26 100.492 103.26 99.728 102.115 99.488" fill="#a47854"/><polygon id="ebda8c1e-f59c-40ff-ac16-bdead28b4f00" data-name="Top" points="105.959 98.579 103.26 100.132 102.115 99.495 102.115 99.488 104.723 98.103 105.959 98.579" fill="#bfa188"/></g><g id="aa19ea21-dfb1-4d84-b7b8-70c0ebe9e32b" data-name="Back"><polygon id="fee92144-05ef-4118-a1ed-d23918283a45" data-name="Bench" points="102.01 99.371 102.288 99.535 104.874 98.148 104.874 96.897 104.629 96.825 102.01 98.16 102.01 99.371" fill="#936c4b"/><polygon id="b589a250-c52f-4e92-9035-511eaaf163a3" data-name="Shade" points="102.01 98.16 102.01 99.371 102.288 99.535 102.288 98.226 102.01 98.16" fill="#a47854"/><polygon id="f49a69d5-f7f1-4756-9245-b80e2742ef38" data-name="Top" points="104.874 96.897 102.288 98.332 102.01 98.167 102.01 98.16 104.561 96.771 104.874 96.897" fill="#bfa188"/></g></g><path id="bc6f9a49-d156-470f-a379-0d7456114578" data-name="Fountain" d="M113.3628,101.56114c2.80713.10482,5.02134,1.31129,5.02134,2.785,0,1.54231-2.42477,2.79155-5.41592,2.79155-2.99152,0-5.41591-1.24924-5.41591-2.79155,0-1.47677,2.225-2.6865,5.042-2.785m.68911,1.32221c1.01752.0774,1.79832.53107,1.79832,1.07772,0,.601-.94638,1.08956-2.11353,1.08956-1.16766,0-2.11392-.48877-2.11392-1.08956,0-.54944.78928-1.00474,1.81527-1.07911m-.07525,1.07725V99.04014s-.03987-3.1604-1.33971-3.1604c-1.29947,0-1.65468,2.05782-1.69367,3.60083m3.80222,4.47864V99.04014s.03913-3.1604,1.339-3.1604c1.3,0,1.65467,2.05782,1.6938,3.60083m-6.484-5.12617s1.09813-1.55138,2.09-.595a5.00521,5.00521,0,0,1,.97728,2.84152m.47406-1.732s.90041-2.68069,2.45317-.73165m-2.92723-.51387V91.13171" fill="none" stroke="#97cef2" stroke-linecap="round" stroke-miterlimit="10" stroke-width="1.054"/></g></g><path d="M45.66331,154.63678l-1.74219-.87109-1.74219.87109-4.35548-.00078v7.2361a4.04257,4.04257,0,0,0,2.03775,3.51043l4.06349,2.32069,4.05809-2.32025a4.04256,4.04256,0,0,0,2.036-3.50947V154.636Zm1.13652,3.47053c.54078,0,.97345.27344.97345,1.14846a.98675.98675,0,1,1-1.94681,0C45.82647,158.38075,46.25905,158.10731,46.79983,158.10731Zm-2.88385-.96c.661,0,1.18974.33424,1.18974,1.40368a1.20608,1.20608,0,1,1-2.37957,0C42.72615,157.48152,43.25491,157.14728,43.916,157.14728Zm-2.87357.96c.54078,0,.97345.27344.97345,1.14846a.98678.98678,0,1,1-1.9469,0C40.069,158.38075,40.50155,158.10731,41.04241,158.10731Zm-.181,3.75774-.00732.02134a.83834.83834,0,0,0-.00706.541H39.11668a.24819.24819,0,0,1-.21629-.10514.2805.2805,0,0,1,0-.21029l.48668-1.07772a.20863.20863,0,0,1,.10819-.10514l.7629-.39434h.0541a1.23048,1.23048,0,0,0,.72588.27021,1.03673,1.03673,0,0,0,.32849-.05845l-.49591,1.09793Zm5.67266.43415a.30354.30354,0,0,1-.26438.12849H41.56942a.30371.30371,0,0,1-.26437-.12849.34278.34278,0,0,1,0-.25715l.59487-1.31727a.25437.25437,0,0,1,.13223-.12857l.92536-.482h.06612a1.53324,1.53324,0,0,0,.89749.33032,1.50346,1.50346,0,0,0,.88712-.33032h.06612l.93251.482a.25441.25441,0,0,1,.13223.12857l.59487,1.31727A.34321.34321,0,0,1,46.53406,162.2992Zm2.4078.02317a.2484.2484,0,0,1-.2163.10514H46.99522a.83858.83858,0,0,0-.00706-.54112l-.00731-.02134-.00924-.02056-.49591-1.09793a1.03717,1.03717,0,0,0,.32849.05845,1.2307,1.2307,0,0,0,.72588-.27021h.0541l.763.39434a.20831.20831,0,0,1,.10819.10514L48.942,162.112A.28161.28161,0,0,1,48.94186,162.32237Z" fill="#677480"/><rect x="224.89153" y="149.542" width="89.50552" height="84.98914" rx="3.58043" fill="#eef0f3"/><path d="M236.85716,154.04524c-2.61329,0-5.75794.48782-6.09767,1.15856v3.19692c.04355.17422.331.33973.77528.50524a1.41986,1.41986,0,0,0-.77528.453v3.14465c.04355.17422.34844.35715.81012.52266a1.48961,1.48961,0,0,0-.81012.48782v3.15336c.17422.65332,4.04188,1.31536,6.09767,1.31536s5.92345-.662,6.09767-1.32407v-3.14465c-.05227-.14809-.4007-.3136-.87109-.4704.50523-.17421.87109-.34843.87109-.54008v-3.14465c-.05227-.14809-.392-.29617-.87109-.453.49652-.16551.87109-.34844.87109-.54008V155.2038C242.78061,154.70728,239.47045,154.04524,236.85716,154.04524Zm-5.22657,1.25438h.08711a10.85345,10.85345,0,0,0,1.5157.48782,17.22248,17.22248,0,0,0,7.38689,0,10.55758,10.55758,0,0,0,1.54184-.41813l.24391.10453v.50524a11.19421,11.19421,0,0,1-1.64637.43555,17.69664,17.69664,0,0,1-7.64822,0,11.464,11.464,0,0,1-1.66379-.43555l-.122-.05227V155.439A1.39275,1.39275,0,0,1,231.63059,155.29962Zm0,4.13771.10453.05226a11.08014,11.08014,0,0,0,1.55926.40071,16.522,16.522,0,0,0,7.38689,0,10.76655,10.76655,0,0,0,1.54184-.40071l.24391.10453v.50524a11.20269,11.20269,0,0,1-1.64637.43555,17.69664,17.69664,0,0,1-7.64822,0,11.48052,11.48052,0,0,1-1.6638-.43555l-.12195-.05227v-.47039s.02613-.05226.18293-.13937Zm0,4.19h.08711a10.84432,10.84432,0,0,0,1.55926.41812,17.22206,17.22206,0,0,0,7.38689,0,10.54789,10.54789,0,0,0,1.49828-.41812l.24391.10453v.50524a11.046,11.046,0,0,1-1.64637.453,17.69623,17.69623,0,0,1-7.64822,0,11.32334,11.32334,0,0,1-1.66379-.453l-.122-.05226v-.453A1.201,1.201,0,0,1,231.63059,163.6273Z" fill="#677480"/><rect x="195.17724" y="23.69056" width="50.44074" height="7.25978" fill="#eef0f3"/><rect x="195.17724" y="37.19649" width="106.67506" height="38.93572" fill="#eef0f3"/><rect x="195.17724" y="86.1019" width="106.67506" height="8.94613" fill="#eef0f3"/><rect x="195.17724" y="105.56976" width="106.67506" height="8.94613" fill="#eef0f3"/><rect x="195.17724" y="125.03762" width="106.67506" height="8.94613" fill="#eef0f3"/><rect x="54.96611" y="156.26138" width="61.05861" height="8.94613" fill="#c7ccd1"/><rect x="151.46742" y="156.26138" width="61.05861" height="8.94613" fill="#c7ccd1"/><rect x="247.31642" y="156.26138" width="61.05861" height="8.94613" fill="#c7ccd1"/><path d="M290.6654,43.47609l-10.6108-8.21987-10.6108,8.21987A2,2,0,0,1,266.219,41.895V5.46886h27.67123V41.895A2,2,0,0,1,290.6654,43.47609Z" fill="#56aa1c"/><rect x="49.1711" y="179.12123" width="9.46559" height="6.00839" fill="#c7ccd1"/><rect x="60.30709" y="179.12123" width="27.09757" height="6.00839" fill="#c7ccd1"/><rect x="89.07505" y="179.12123" width="27.09757" height="6.00839" fill="#c7ccd1"/><rect x="49.1711" y="192.55477" width="22.45757" height="6.00839" fill="#c7ccd1"/><rect x="72.92787" y="192.55477" width="14.47678" height="6.00839" fill="#c7ccd1"/><rect x="89.07505" y="192.55477" width="6.00839" height="6.00839" fill="#c7ccd1"/><rect x="96.49904" y="192.55477" width="19.67357" height="6.00839" fill="#c7ccd1"/><rect x="49.1711" y="220.77856" width="18.27061" height="6.00839" fill="#c7ccd1"/><rect x="69.21046" y="220.77856" width="25.87298" height="6.00839" fill="#c7ccd1"/><rect x="96.49904" y="220.77856" width="19.67357" height="6.00839" fill="#c7ccd1"/><rect x="49.1711" y="206.77289" width="25.66991" height="6.00839" fill="#c7ccd1"/><rect x="77.16206" y="206.77289" width="6.00839" height="6.00839" fill="#c7ccd1"/><rect x="85.23325" y="206.77289" width="30.93936" height="6.00839" fill="#c7ccd1"/><rect x="145.71686" y="179.12123" width="9.46559" height="6.00839" fill="#c7ccd1"/><rect x="175.7884" y="179.12123" width="8.162" height="6.00839" fill="#c7ccd1"/><rect x="156.53246" y="179.12123" width="18.04135" height="6.00839" fill="#c7ccd1"/><rect x="185.62081" y="179.12123" width="27.09757" height="6.00839" fill="#c7ccd1"/><rect x="145.71686" y="192.55477" width="3.29956" height="6.00839" fill="#c7ccd1"/><rect x="149.51069" y="192.55477" width="14.47678" height="6.00839" fill="#c7ccd1"/><rect x="165.02293" y="192.55477" width="26.60627" height="6.00839" fill="#c7ccd1"/><rect x="193.0448" y="192.55477" width="19.67357" height="6.00839" fill="#c7ccd1"/><rect x="145.71686" y="220.77856" width="10.27984" height="6.00839" fill="#c7ccd1"/><rect x="157.80195" y="220.77856" width="6.00839" height="6.00839" fill="#c7ccd1"/><rect x="165.14328" y="220.77856" width="6.00839" height="6.00839" fill="#c7ccd1"/><rect x="172.36426" y="220.77856" width="19.26494" height="6.00839" fill="#c7ccd1"/><rect x="193.0448" y="220.77856" width="19.67357" height="6.00839" fill="#c7ccd1"/><rect x="145.71686" y="206.77289" width="25.66991" height="6.00839" fill="#c7ccd1"/><rect x="173.70782" y="206.77289" width="17.92138" height="6.00839" fill="#c7ccd1"/><rect x="193.0448" y="206.77289" width="19.67357" height="6.00839" fill="#c7ccd1"/><rect x="241.78357" y="179.12123" width="22.45757" height="6.00839" fill="#c7ccd1"/><rect x="265.54034" y="179.12123" width="14.47678" height="6.00839" fill="#c7ccd1"/><rect x="281.68752" y="179.12123" width="27.09757" height="6.00839" fill="#c7ccd1"/><rect x="241.78357" y="192.55477" width="38.23355" height="6.00839" fill="#c7ccd1"/><rect x="281.68752" y="192.55477" width="6.00839" height="6.00839" fill="#c7ccd1"/><rect x="289.11151" y="192.55477" width="19.67357" height="6.00839" fill="#c7ccd1"/><rect x="241.78357" y="220.77856" width="18.27061" height="6.00839" fill="#c7ccd1"/><rect x="261.82293" y="220.77856" width="25.87298" height="6.00839" fill="#c7ccd1"/><rect x="289.11151" y="220.77856" width="19.67357" height="6.00839" fill="#c7ccd1"/><rect x="251.64368" y="206.77289" width="15.80979" height="6.00839" fill="#c7ccd1"/><rect x="269.77453" y="206.77289" width="6.00839" height="6.00839" fill="#c7ccd1"/><rect x="241.78357" y="206.77289" width="8.11281" height="6.00839" fill="#c7ccd1"/><rect x="277.84572" y="206.77289" width="30.93936" height="6.00839" fill="#c7ccd1"/><rect x="76.03203" y="143.18213" width="2" height="6.36035" fill="#c7ccd1"/><rect x="173.57402" y="143.18213" width="2" height="6.36035" fill="#c7ccd1"/><rect x="269.91533" y="143.18213" width="2" height="6.36035" fill="#c7ccd1"/><path d="M44.09007,184.99935c0,1.019-1.03259.92254-2.30636.92254s-2.30636.09647-2.30636-.92254.615-2.76764,2.30636-2.76764S44.09007,183.98033,44.09007,184.99935Z" fill="#b1c854"/><circle cx="41.7085" cy="181.01138" r="1.84936" fill="#b26e45"/><g opacity="0.8"><path d="M42.54905,186.27577a4.228,4.228,0,1,1,3.11642-2.60275,4.28566,4.28566,0,0,1-1.19267,1.67449A4.11325,4.11325,0,0,1,42.54905,186.27577Zm-.453-7.64987a3.52062,3.52062,0,1,0,3.15149,3.428A3.52211,3.52211,0,0,0,42.09609,178.6259Z" fill="#d4d8dd"/></g><path d="M44.09007,198.78643c0,1.019-1.03259.92254-2.30636.92254s-2.30636.09647-2.30636-.92254.615-2.76763,2.30636-2.76763S44.09007,197.76741,44.09007,198.78643Z" fill="#a3779f"/><circle cx="41.7085" cy="194.79846" r="1.84936" fill="#f5dace"/><g opacity="0.8"><path d="M42.54905,200.06285a4.228,4.228,0,1,1,3.11642-2.60275,4.28566,4.28566,0,0,1-1.19267,1.67449A4.11325,4.11325,0,0,1,42.54905,200.06285Zm-.453-7.64987a3.52062,3.52062,0,1,0,3.15149,3.428A3.52211,3.52211,0,0,0,42.09609,192.413Z" fill="#d4d8dd"/></g><path d="M44.09007,212.651c0,1.019-1.03259.92254-2.30636.92254s-2.30636.09647-2.30636-.92254.615-2.76764,2.30636-2.76764S44.09007,211.632,44.09007,212.651Z" fill="#f7706c"/><circle cx="41.7085" cy="208.66304" r="1.84936" fill="#f5aa75"/><g opacity="0.8"><path d="M42.54905,213.92743a4.228,4.228,0,1,1,3.11642-2.60275,4.28566,4.28566,0,0,1-1.19267,1.67449A4.11325,4.11325,0,0,1,42.54905,213.92743Zm-.453-7.64987a3.52062,3.52062,0,1,0,3.15149,3.42805A3.52211,3.52211,0,0,0,42.09609,206.27756Z" fill="#d4d8dd"/></g><path d="M44.09007,226.65667c0,1.019-1.03259.92254-2.30636.92254s-2.30636.09647-2.30636-.92254.615-2.76763,2.30636-2.76763S44.09007,225.63766,44.09007,226.65667Z" fill="#4585a5"/><circle cx="41.7085" cy="222.6687" r="1.84936" fill="#f5aa75"/><g opacity="0.8"><path d="M42.54905,227.93309a4.228,4.228,0,1,1,3.11642-2.60275,4.28559,4.28559,0,0,1-1.19267,1.67449A4.11325,4.11325,0,0,1,42.54905,227.93309Zm-.453-7.64987a3.52063,3.52063,0,1,0,3.15149,3.42805A3.52211,3.52211,0,0,0,42.09609,220.28322Z" fill="#d4d8dd"/></g><path d="M140.63583,184.99935c0,1.019-1.0326.92254-2.30636.92254s-2.30637.09647-2.30637-.92254.615-2.76764,2.30637-2.76764S140.63583,183.98033,140.63583,184.99935Z" fill="#f7963e"/><circle cx="138.25426" cy="181.01138" r="1.84936" fill="#f5dace"/><g opacity="0.8"><path d="M139.09481,186.27577a4.228,4.228,0,1,1,3.11642-2.60275,4.28568,4.28568,0,0,1-1.19268,1.67449A4.11317,4.11317,0,0,1,139.09481,186.27577Zm-.453-7.64987a3.52062,3.52062,0,1,0,3.15149,3.428A3.52211,3.52211,0,0,0,138.64185,178.6259Z" fill="#d4d8dd"/></g><path d="M140.63583,198.78643c0,1.019-1.0326.92254-2.30636.92254s-2.30637.09647-2.30637-.92254.615-2.76763,2.30637-2.76763S140.63583,197.76741,140.63583,198.78643Z" fill="#b1c854"/><circle cx="138.25426" cy="194.79846" r="1.84936" fill="#f5dace"/><g opacity="0.8"><path d="M139.09481,200.06285a4.228,4.228,0,1,1,3.11642-2.60275,4.28568,4.28568,0,0,1-1.19268,1.67449A4.11317,4.11317,0,0,1,139.09481,200.06285Zm-.453-7.64987a3.52062,3.52062,0,1,0,3.15149,3.428A3.52211,3.52211,0,0,0,138.64185,192.413Z" fill="#d4d8dd"/></g><path d="M140.63583,212.651c0,1.019-1.0326.92254-2.30636.92254s-2.30637.09647-2.30637-.92254.615-2.76764,2.30637-2.76764S140.63583,211.632,140.63583,212.651Z" fill="#c8c2b4"/><circle cx="138.25426" cy="208.66304" r="1.84936" fill="#f5aa75"/><g opacity="0.8"><path d="M139.09481,213.92743a4.228,4.228,0,1,1,3.11642-2.60275,4.28568,4.28568,0,0,1-1.19268,1.67449A4.11317,4.11317,0,0,1,139.09481,213.92743Zm-.453-7.64987a3.52062,3.52062,0,1,0,3.15149,3.42805A3.52211,3.52211,0,0,0,138.64185,206.27756Z" fill="#d4d8dd"/></g><path d="M140.63583,226.65667c0,1.019-1.0326.92254-2.30636.92254s-2.30637.09647-2.30637-.92254.615-2.76763,2.30637-2.76763S140.63583,225.63766,140.63583,226.65667Z" fill="#6ab9ec"/><circle cx="138.25426" cy="222.6687" r="1.84936" fill="#b26e45"/><g opacity="0.8"><path d="M139.09481,227.93309a4.228,4.228,0,1,1,3.11642-2.60275,4.28561,4.28561,0,0,1-1.19268,1.67449A4.11317,4.11317,0,0,1,139.09481,227.93309Zm-.453-7.64987a3.52063,3.52063,0,1,0,3.15149,3.42805A3.52211,3.52211,0,0,0,138.64185,220.28322Z" fill="#d4d8dd"/></g><path d="M236.70347,184.99935c0,1.019-1.03259.92254-2.30636.92254s-2.30636.09647-2.30636-.92254.615-2.76764,2.30636-2.76764S236.70347,183.98033,236.70347,184.99935Z" fill="#6ab9ec"/><circle cx="234.3219" cy="181.01138" r="1.84936" fill="#f5dace"/><g opacity="0.8"><path d="M235.16245,186.27577a4.228,4.228,0,1,1,3.11642-2.60275,4.28566,4.28566,0,0,1-1.19267,1.67449A4.11325,4.11325,0,0,1,235.16245,186.27577Zm-.453-7.64987a3.52062,3.52062,0,1,0,3.15149,3.428A3.52211,3.52211,0,0,0,234.70949,178.6259Z" fill="#d4d8dd"/></g><path d="M236.70347,198.78643c0,1.019-1.03259.92254-2.30636.92254s-2.30636.09647-2.30636-.92254.615-2.76763,2.30636-2.76763S236.70347,197.76741,236.70347,198.78643Z" fill="#a3779f"/><circle cx="234.3219" cy="194.79846" r="1.84936" fill="#b26e45"/><g opacity="0.8"><path d="M235.16245,200.06285a4.228,4.228,0,1,1,3.11642-2.60275,4.28566,4.28566,0,0,1-1.19267,1.67449A4.11325,4.11325,0,0,1,235.16245,200.06285Zm-.453-7.64987a3.52062,3.52062,0,1,0,3.15149,3.428A3.52211,3.52211,0,0,0,234.70949,192.413Z" fill="#d4d8dd"/></g><path d="M236.70347,212.651c0,1.019-1.03259.92254-2.30636.92254s-2.30636.09647-2.30636-.92254.615-2.76764,2.30636-2.76764S236.70347,211.632,236.70347,212.651Z" fill="#73c7c1"/><circle cx="234.3219" cy="208.66304" r="1.84936" fill="#b26e45"/><g opacity="0.8"><path d="M235.16245,213.92743a4.228,4.228,0,1,1,3.11642-2.60275,4.28566,4.28566,0,0,1-1.19267,1.67449A4.11325,4.11325,0,0,1,235.16245,213.92743Zm-.453-7.64987a3.52062,3.52062,0,1,0,3.15149,3.42805A3.52211,3.52211,0,0,0,234.70949,206.27756Z" fill="#d4d8dd"/></g><path d="M236.70347,226.65667c0,1.019-1.03259.92254-2.30636.92254s-2.30636.09647-2.30636-.92254.615-2.76763,2.30636-2.76763S236.70347,225.63766,236.70347,226.65667Z" fill="#ffc335"/><circle cx="234.3219" cy="222.6687" r="1.84936" fill="#f5dace"/><g opacity="0.8"><path d="M235.16245,227.93309a4.228,4.228,0,1,1,3.11642-2.60275,4.28559,4.28559,0,0,1-1.19267,1.67449A4.11325,4.11325,0,0,1,235.16245,227.93309Zm-.453-7.64987a3.52063,3.52063,0,1,0,3.15149,3.42805A3.52211,3.52211,0,0,0,234.70949,220.28322Z" fill="#d4d8dd"/></g><path d="M280.95134,12.4763l1.944,3.93893a1,1,0,0,0,.75293.547l4.34687.63164a1,1,0,0,1,.55421,1.70569l-3.14542,3.066a1,1,0,0,0-.2876.88513l.74254,4.3293a1,1,0,0,1-1.451,1.05417l-3.888-2.044a1,1,0,0,0-.93068,0l-3.888,2.044a1,1,0,0,1-1.45095-1.05417l.74253-4.3293a1,1,0,0,0-.28759-.88513l-3.14542-3.066a1,1,0,0,1,.55421-1.70569l4.34686-.63164a1,1,0,0,0,.75294-.547l1.944-3.93893A1,1,0,0,1,280.95134,12.4763Z" fill="#fff"/></svg>