<svg id="b83c7971-3ad5-48a6-9535-5448180172f0" data-name="Layer 1" xmlns="http://www.w3.org/2000/svg" viewBox="0 0 330 240"><path d="M259.46357,106.77582h-4.80233V74.8H230.91083V69.9977h26.15158a2.401,2.401,0,0,1,2.40116,2.40116Z" fill="#677480"/><path d="M321.69671,105.94691H302.84894l-7.1164-14.2803,5.28533-9.2511a4.10108,4.10108,0,0,1,7.09785,0l5.02322,8.69214Z" fill="#677480"/><rect x="260.60639" y="118.1151" width="68.33692" height="36.89382" fill="#eef0f3"/><rect x="260.60639" y="167.06945" width="68.33692" height="53.55238" fill="#eef0f3"/><rect x="175.0161" y="118.11192" width="73.41144" height="102.52805" fill="#eef0f3"/><rect x="119.83617" y="131.08685" width="2.19423" height="71.8481" fill="#c7ccd1"/><polygon points="158.06 169.113 127.813 169.113 127.813 166.919 155.866 166.919 155.866 148.789 175.016 148.789 175.016 150.983 158.06 150.983 158.06 169.113" fill="#c7ccd1"/><rect x="283.29933" y="123.78376" width="37.86304" height="11.88513" fill="#c7ccd1"/><rect x="283.29933" y="137.45513" width="37.86304" height="11.88513" fill="#c7ccd1"/><rect x="283.29933" y="173.23397" width="37.86304" height="16.32787" fill="#c7ccd1"/><rect x="283.29933" y="191.30172" width="37.86304" height="13.2956" fill="#c7ccd1"/><rect x="283.29933" y="206.38355" width="18.03841" height="8.3854" fill="#c7ccd1"/><rect x="303.12397" y="206.38355" width="18.03841" height="8.3854" fill="#c7ccd1"/><rect x="1.05669" y="72.05369" width="65.79341" height="14.15861" fill="#eef0f3"/><rect x="1.05669" y="91.67596" width="65.79341" height="14.15861" fill="#f7706c" opacity="0.5"/><rect x="1.05669" y="161.52318" width="65.79341" height="59.11679" fill="#eef0f3"/><rect x="1.05669" y="111.29822" width="65.79341" height="7.07931" fill="#eef0f3"/><rect x="1.05669" y="123.89431" width="65.79341" height="7.07931" fill="#f7706c" opacity="0.5"/><rect x="1.05669" y="136.43727" width="65.79341" height="7.07931" fill="#eef0f3"/><rect x="1.05669" y="148.98023" width="65.79341" height="7.07931" fill="#f7706c" opacity="0.5"/><path d="M35.08263,65.49252A22.51762,22.51762,0,1,1,57.60025,42.9749,22.54333,22.54333,0,0,1,35.08263,65.49252Z" fill="#fff"/><path d="M35.08253,21.55426A21.42077,21.42077,0,1,1,13.66176,42.975,21.445,21.445,0,0,1,35.08253,21.55426m0-2.19423a23.615,23.615,0,1,0,23.615,23.615,23.615,23.615,0,0,0-23.615-23.615Z" fill="#f7706c"/><path d="M42.67416,54.07257V52.2427a8.50584,8.50584,0,0,0,8.49619-8.49618h1.82986A10.33752,10.33752,0,0,1,42.67416,54.07257Z" fill="#677480"/><circle cx="52.08536" cy="43.74662" r="2.69078" fill="#4d575f"/><path d="M43.56469,47.814v7.94167a2.74119,2.74119,0,0,1-2.7448,2.7448H28.95319a2.747,2.747,0,0,1-2.7448-2.7448V47.814Z" fill="#c7ccd1"/><path d="M43.56469,47.814v3.797a12.47451,12.47451,0,0,1-17.3563,0V47.814Z" fill="#a6afb7"/><circle cx="34.88815" cy="39.94129" r="12.49167" fill="#f7706c"/><g opacity="0.5"><path d="M25.91677,36.86218a.914.914,0,0,1-.83541-1.28662,10.66011,10.66011,0,0,1,5.95957-5.65579.915.915,0,1,1,.65582,1.70835,8.84382,8.84382,0,0,0-4.94367,4.69082A.91411.91411,0,0,1,25.91677,36.86218Z" fill="#fff"/></g><circle cx="34.88815" cy="39.94129" r="2.69078" fill="#c7ccd1"/><circle cx="34.88815" cy="39.94129" r="1.18662" fill="#677480"/><rect x="201.1745" y="128.21188" width="37.86304" height="10.97114" fill="#c7ccd1"/><circle cx="270.72372" cy="179.99575" r="5.99832" fill="#fff"/><path d="M274.48412,184.53355c0,1.609-1.63042,1.45666-3.64165,1.45666s-3.64165.15233-3.64165-1.45666.97111-4.37,3.64165-4.37S274.48412,182.92457,274.48412,184.53355Z" fill="#a3779f"/><circle cx="270.72372" cy="178.23671" r="2.92007" fill="#f5dace"/><path d="M272.05092,186.549a6.67582,6.67582,0,1,1,4.9207-4.10963,6.76685,6.76685,0,0,1-1.88318,2.644A6.49463,6.49463,0,0,1,272.05092,186.549Zm-.7152-12.07883a5.55893,5.55893,0,1,0,4.97607,5.41275A5.56127,5.56127,0,0,0,271.33572,174.47014Z" fill="#c7ccd1"/><circle cx="270.72372" cy="129.72633" r="5.99832" fill="#fff"/><path d="M274.51766,134.26413c0,1.609-1.63042,1.45666-3.64165,1.45666s-3.64165.15232-3.64165-1.45666.97111-4.37,3.64165-4.37S274.51766,132.65515,274.51766,134.26413Z" fill="#b1c854"/><circle cx="270.75726" cy="127.96729" r="2.92007" fill="#b26e45"/><path d="M272.08446,136.27955a6.67582,6.67582,0,1,1,4.9207-4.10963,6.76681,6.76681,0,0,1-1.88319,2.64394A6.49447,6.49447,0,0,1,272.08446,136.27955Zm-.7152-12.07883a5.55893,5.55893,0,1,0,4.97607,5.41275A5.56128,5.56128,0,0,0,271.36926,124.20072Z" fill="#c7ccd1"/><path d="M118.243,185.50256l-13.84615-14.64162a4.18825,4.18825,0,0,1,0-5.68936L118.243,150.53a3.66,3.66,0,0,1,5.38026,0l13.84615,14.64162a4.18825,4.18825,0,0,1,0,5.68936l-13.84615,14.64162A3.66,3.66,0,0,1,118.243,185.50256Z" fill="#eef0f3"/><rect x="79.02896" y="200.3064" width="83.30486" height="19.92019" fill="#eef0f3"/><path d="M158.2499,58.2086h10.90351a10.816,10.816,0,1,0-13.83607,14.36547V61.14156A2.9325,2.9325,0,0,1,158.2499,58.2086Z" fill="none"/><path d="M169.9141,64.07452h-8.73171V73.128A10.83152,10.83152,0,0,0,169.9141,64.07452Z" fill="none"/><path d="M118.40345,42.05671a10.82538,10.82538,0,0,0-5.59679-9.46971l1.215,18.14443A10.798,10.798,0,0,0,118.40345,42.05671Z" fill="none"/><path d="M96.76385,42.05671a10.79694,10.79694,0,0,0,4.1281,8.48522l1.065-17.70971A10.81262,10.81262,0,0,0,96.76385,42.05671Z" fill="none"/><path d="M241.73073,44.78342a10.80517,10.80517,0,0,0-16.12785-9.41814,22.671,22.671,0,0,1,10.301,18.99324V54.373A10.82463,10.82463,0,0,0,241.73073,44.78342Z" fill="none"/><rect x="235.90385" y="63.5427" width="7.8551" height="41.52011" fill="none"/><path d="M112.63771,30.06425l-.69326-10.3528H102.746l-.63467,10.55369a12.92954,12.92954,0,0,1,10.52637-.20089Z" fill="#85929d"/><path d="M304.05763,105.06281,292.69108,85.37543l-6.9564-12.04884a5.68094,5.68094,0,0,0-9.83954,0l-6.95633,12.04884-11.36656,19.68738h-9.011V61.14156a2.401,2.401,0,0,0-2.40114-2.40128H235.90385v-1.942a13.00467,13.00467,0,0,1-12.44076-22.67137,22.25091,22.25091,0,0,0-8.90414-2.37945,65.081,65.081,0,0,0-7.68589.0604,22.55759,22.55759,0,0,0-20.89974,22.5791V58.2086H171.49683a12.52146,12.52146,0,0,1,.63447,5.86592h13.842v40.93534h-12.513V90.95742H161.18239V75.34511a12.57338,12.57338,0,0,1-5.865-.43673v16.049H145.07677V87.3073h-4.30871L136.2416,19.71145h-9.19844l-4.065,67.59585h-6.50721l-2.28068-34.05875a12.89482,12.89482,0,0,1-13.4523-.14544L98.681,87.3073H94.51009v3.65012H84.69338v14.10539H79.029v3.4266H328.94331v-3.4266Zm-60.29867,0h-7.85511V63.5427H243.759Z" fill="#85929d"/><circle cx="107.58365" cy="42.05617" r="12.3366" fill="#fff"/><circle cx="159.223" cy="62.49474" r="12.3366" fill="#fff"/><circle cx="230.91083" cy="44.78342" r="12.3366" fill="#fff"/><path d="M107.58338,31.23663a10.73869,10.73869,0,0,0-5.62639,1.59559l-1.065,17.70971a10.749,10.749,0,0,0,13.12974.1895l-1.215-18.14443A10.74884,10.74884,0,0,0,107.58338,31.23663Z" fill="#f7706c" opacity="0.5"/><path d="M112.63771,30.06425a12.99731,12.99731,0,1,0,7.96,11.99246A12.94529,12.94529,0,0,0,112.63771,30.06425Zm1.384,20.66718a10.795,10.795,0,1,1,4.38176-8.67472A10.74941,10.74941,0,0,1,114.02169,50.73143Z" fill="#f7706c"/><path d="M169.9141,64.07452a10.48731,10.48731,0,0,0-.76069-5.86592H158.2499a2.9325,2.9325,0,0,0-2.93256,2.933V72.57407a10.567,10.567,0,0,0,5.865.55391V64.07452Z" fill="#f7963e" opacity="0.5"/><path d="M171.49683,58.2086a12.52146,12.52146,0,1,0,.7402,4.28614A13.02571,13.02571,0,0,0,171.49683,58.2086ZM161.18239,73.128a10.92484,10.92484,0,1,1,8.73171-9.05346A10.80169,10.80169,0,0,1,161.18239,73.128Z" fill="#f7963e"/><path d="M225.60288,35.36528a10.81095,10.81095,0,0,0,10.301,19.00771v-.01447A22.671,22.671,0,0,0,225.60288,35.36528Z" fill="#ffc335" opacity="0.5"/><path d="M230.91066,31.76912a13.0122,13.0122,0,1,0,13.0143,13.0143A12.92941,12.92941,0,0,0,230.91066,31.76912ZM235.90385,54.373a10.81417,10.81417,0,1,1,5.82688-9.58957A10.745,10.745,0,0,1,235.90385,54.373Z" fill="#ffc335"/><rect x="184.40609" y="128.12739" width="10.97114" height="10.97114" fill="#c7ccd1"/><rect x="201.1745" y="144.55371" width="37.86304" height="10.97114" fill="#c7ccd1"/><rect x="184.40609" y="144.46922" width="10.97114" height="10.97114" fill="#c7ccd1"/><rect x="201.1745" y="160.98002" width="37.86304" height="10.97114" fill="#c7ccd1"/><rect x="184.40609" y="160.89554" width="10.97114" height="10.97114" fill="#c7ccd1"/><rect x="201.1745" y="177.40634" width="37.86304" height="10.97114" fill="#c7ccd1"/><rect x="184.40609" y="177.32186" width="10.97114" height="10.97114" fill="#c7ccd1"/><rect x="201.1745" y="193.83266" width="37.86304" height="10.97114" fill="#c7ccd1"/><rect x="184.40609" y="193.74817" width="10.97114" height="10.97114" fill="#c7ccd1"/><rect x="79.02896" y="118.11192" width="83.30486" height="19.92019" fill="#eef0f3"/></svg>