<svg xmlns="http://www.w3.org/2000/svg" xmlns:xlink="http://www.w3.org/1999/xlink" viewBox="0 0 330 240"><defs><linearGradient id="e72c8d26-f1ea-4898-9619-13360ecf61c1" x1="126.73649" y1="140.66373" x2="297.24921" y2="140.66373" gradientUnits="userSpaceOnUse"><stop offset="0.46206" stop-color="#fff"/><stop offset="0.6053" stop-color="#fff" stop-opacity="0.5"/></linearGradient><linearGradient id="ed72edf7-3d70-4938-b8e3-7441f18acd50" x1="74.03515" y1="60.1108" x2="74.03515" y2="93.18548" gradientUnits="userSpaceOnUse"><stop offset="0" stop-color="#a6afb7"/><stop offset="0.18057" stop-color="#acb5bc"/><stop offset="0.42713" stop-color="#bec4ca"/><stop offset="0.71172" stop-color="#dadee1"/><stop offset="1" stop-color="#fff"/></linearGradient><linearGradient id="ab8be728-029b-4341-91b0-fe43a7f0a531" x1="82.99014" y1="56.46961" x2="98.90182" y2="45.81316" gradientUnits="userSpaceOnUse"><stop offset="0" stop-color="#cdecff"/><stop offset="1" stop-color="#fff"/></linearGradient><linearGradient id="b897bb89-713e-4c83-b704-41571bf52483" x1="67.80774" y1="54.38377" x2="57.58924" y2="51.31822" gradientUnits="userSpaceOnUse"><stop offset="0" stop-color="#fff"/><stop offset="1" stop-color="#cdecff"/></linearGradient><linearGradient id="ea43b056-b33a-4978-a70d-f03bed4dc302" x1="211.31747" y1="234.11413" x2="211.31747" y2="138.45674" gradientUnits="userSpaceOnUse"><stop offset="0" stop-color="#56aa1c"/><stop offset="1" stop-color="#67cc22"/></linearGradient></defs><g style="isolation:isolate"><g id="f0c2170d-d864-4dd5-8bef-01fcd2be3ffe" data-name="Layer 1"><g id="a99ad3bb-4405-4d6c-af34-30c090336dd1" data-name="Suggestion Box"><path id="ab0d8fc2-6582-4388-a1a7-bc40f4a571d9" data-name="Suggestion Box" d="M297.55232,96.66679c-.06052-2.64552-1.9983-5.39818-5.72589-7.52114L223.208,50.06655c-6.89033-3.92427-17.273-4.20947-23.19051-.63723L130.37594,91.47106c-3.0539,1.84364-3.4203,4.17376-3.31467,6.8923v85.399c.1839,3.30189,1.52144,6.05482,5.67339,8.41941l68.61855,39.07916c6.89022,3.92421,17.273,4.20946,23.1904.63717l69.64154-42.04174a6.36463,6.36463,0,0,0,3.36717-6.0523Z" fill="#bad3ab" fill-rule="evenodd"/><path id="bd744682-e555-4022-9dcc-e5dba424eba9" data-name="Floor" d="M127.45982,187.59219a12.78742,12.78742,0,0,0,4.72648,4.288l68.59839,39.0913c6.88832,3.92535,17.26653,4.21338,23.1803.64331l69.59914-42.01613c4.017-2.425,4.941-6.00542,2.96192-9.28376a12.78538,12.78538,0,0,0-4.72648-4.288l-68.59843-39.09128c-6.88829-3.92537-17.26649-4.21341-23.1803-.64332l-69.59911,42.01611c-4.017,2.425-4.94135,6.00563-2.96191,9.28377Z" fill="#728e66" opacity="0.8"/><g id="f3f3ec26-657f-4b2a-9c85-f6761c0272a1" data-name="Suggestions"><polygon points="236.772 148.466 237.056 160.059 248.469 167.006 256.722 157.881 256.464 147.359 245.062 140.857 236.772 148.466" fill="#a6ddff"/><polygon points="256.464 147.359 256.759 159.4 248.463 167.025 248.17 155.079 256.464 147.359" fill="#7fceff"/><polygon id="e12773fa-127c-4326-96ca-1f07c56a3a8a" data-name="Top" points="236.774 148.467 248.181 155.115 256.46 147.361 245.062 140.859 236.774 148.467" fill="#cdecff"/><polygon points="220.897 138.244 221.147 148.415 231.16 154.511 238.401 146.504 238.175 137.272 228.171 131.568 220.897 138.244" fill="#a6ddff"/><polygon points="238.174 137.272 238.433 147.837 231.155 154.527 230.898 144.046 238.174 137.272" fill="#7fceff"/><polygon id="b693cc22-8f91-4734-837a-f5735f58af21" data-name="Top" points="220.899 138.245 230.907 144.077 238.171 137.275 228.171 131.57 220.899 138.245" fill="#cdecff"/><polygon points="218.187 149.613 218.58 165.664 234.382 175.284 245.809 162.649 245.452 148.08 229.665 139.078 218.187 149.613" fill="#a6ddff"/><polygon points="245.451 148.08 245.86 164.752 234.374 175.309 233.968 158.769 245.451 148.08" fill="#7fceff"/><polygon id="a3c1fc5d-49bf-4222-b817-ea31e693272f" data-name="Top" points="218.19 149.615 233.983 158.819 245.445 148.084 229.665 139.081 218.19 149.615" fill="#cdecff"/><polygon points="196.885 139.449 197.139 149.809 207.338 156.017 214.713 147.863 214.483 138.46 204.293 132.649 196.885 139.449" fill="#a6ddff"/><polygon points="214.482 138.459 214.746 149.22 207.332 156.034 207.071 145.358 214.482 138.459" fill="#7fceff"/><polygon id="f49506e0-13ba-4486-8b76-1b78f304fec7" data-name="Top" points="196.887 139.45 207.08 145.391 214.478 138.462 204.293 132.651 196.887 139.45" fill="#cdecff"/><polygon points="225.054 173.701 225.377 186.885 238.357 194.786 247.743 184.408 247.45 172.441 234.482 165.047 225.054 173.701" fill="#a6ddff"/><polygon points="247.449 172.441 247.784 186.136 238.35 194.807 238.017 181.221 247.449 172.441" fill="#7fceff"/><polygon id="bbcddd47-7bb8-4b8b-a708-0990ec127809" data-name="Top" points="225.057 173.702 238.029 181.263 247.444 172.444 234.482 165.05 225.057 173.702" fill="#cdecff"/><polygon points="180.412 147.268 180.702 159.1 192.351 166.192 200.775 156.878 200.512 146.137 188.874 139.501 180.412 147.268" fill="#a6ddff"/><polygon points="200.511 146.137 200.812 158.428 192.345 166.211 192.046 154.017 200.511 146.137" fill="#7fceff"/><polygon id="adc96f00-cc9c-4c9a-bba9-3e3a5041b63b" data-name="Top" points="180.414 147.269 192.057 154.054 200.507 146.14 188.873 139.503 180.414 147.269" fill="#cdecff"/><polygon points="200.457 163.323 200.756 175.527 212.771 182.841 221.459 173.235 221.188 162.157 209.184 155.313 200.457 163.323" fill="#a6ddff"/><polygon points="221.187 162.157 221.498 174.834 212.765 182.861 212.456 170.285 221.187 162.157" fill="#7fceff"/><polygon id="f71a888a-2cfa-4dad-99fb-64499e8b10ef" data-name="Top" points="200.459 163.325 212.467 170.323 221.183 162.16 209.184 155.315 200.459 163.325" fill="#cdecff"/><polygon points="203.935 155.592 204.114 162.904 211.313 167.287 216.519 161.531 216.356 154.893 209.164 150.792 203.935 155.592" fill="#a6ddff"/><polygon points="216.356 154.893 216.542 162.489 211.309 167.298 211.125 159.763 216.356 154.893" fill="#7fceff"/><polygon id="e04755ab-c256-4e6b-8661-2dfc642e005c" data-name="Top" points="203.937 155.593 211.131 159.786 216.353 154.895 209.164 150.794 203.937 155.593" fill="#cdecff"/><polygon points="186.763 131.479 187.001 141.173 196.545 146.984 203.447 139.353 203.231 130.553 193.696 125.115 186.763 131.479" fill="#a6ddff"/><polygon points="203.231 130.552 203.478 140.623 196.54 146.999 196.295 137.009 203.231 130.552" fill="#7fceff"/><polygon id="bc3dedc2-7a48-41bf-bb57-aba8bdb6698e" data-name="Top" points="186.765 131.48 196.304 137.039 203.227 130.555 193.696 125.117 186.765 131.48" fill="#cdecff"/><polygon points="253.75 168.092 247.829 180.506 256.173 193.981 269.8 188.758 275.174 177.489 266.603 164.492 253.75 168.092" fill="#a6ddff"/><polygon points="275.173 177.488 269.023 190.384 256.156 193.997 262.258 181.203 275.173 177.488" fill="#7fceff"/><polygon id="b66edb75-3dac-4de1-8183-4b48328347f2" data-name="Top" points="253.752 168.094 262.249 181.247 275.168 177.489 266.601 164.494 253.752 168.094" fill="#cdecff"/><polygon points="193.184 158.438 193.479 170.502 205.357 177.732 213.945 168.236 213.677 157.286 201.811 150.519 193.184 158.438" fill="#a6ddff"/><polygon points="213.676 157.285 213.983 169.817 205.35 177.751 205.045 165.32 213.676 157.285" fill="#7fceff"/><polygon id="a4e8259b-563e-406a-a0b2-97f9a12f0453" data-name="Top" points="193.186 158.439 205.056 165.357 213.672 157.288 201.811 150.522 193.186 158.439" fill="#cdecff"/><polygon points="193.326 170.172 193.793 189.21 212.536 200.62 226.089 185.634 225.666 168.353 206.941 157.676 193.326 170.172" fill="#a6ddff"/><polygon points="225.664 168.353 226.149 188.129 212.526 200.65 212.045 181.032 225.664 168.353" fill="#7fceff"/><polygon id="a5620b2c-9ac6-43e2-8652-5e4074b64372" data-name="Top" points="193.33 170.174 212.062 181.091 225.658 168.358 206.94 157.679 193.33 170.174" fill="#cdecff"/><polygon points="171.125 158.992 171.426 171.279 183.523 178.644 192.271 168.972 191.998 157.818 179.912 150.926 171.125 158.992" fill="#a6ddff"/><polygon points="191.997 157.818 192.31 170.581 183.517 178.663 183.206 166.001 191.997 157.818" fill="#7fceff"/><polygon id="fd1df359-06f9-4937-b4bd-2561d9a42064" data-name="Top" points="171.127 158.993 183.218 166.039 191.993 157.821 179.912 150.929 171.127 158.993" fill="#cdecff"/><polygon points="213.574 186.076 205.158 199.261 212.693 215.634 228.803 211.642 236.442 199.674 228.583 183.808 213.574 186.076" fill="#a6ddff"/><polygon points="236.441 199.673 227.699 213.369 212.672 215.65 221.345 202.063 236.441 199.673" fill="#7fceff"/><polygon id="f513543e-8ff9-470d-a3d0-41de2dfa52de" data-name="Top" points="213.576 186.079 221.33 202.111 236.435 199.673 228.581 183.81 213.576 186.079" fill="#cdecff"/><polygon points="148.958 173.083 149.302 187.118 163.12 195.529 173.112 184.482 172.799 171.742 158.995 163.87 148.958 173.083" fill="#a6ddff"/><polygon points="172.798 171.742 173.156 186.321 163.112 195.552 162.758 181.089 172.798 171.742" fill="#7fceff"/><polygon id="f4f43097-668e-4c3e-ae1f-a1d67eaefc64" data-name="Top" points="148.961 173.084 162.77 181.133 172.794 171.745 158.995 163.873 148.961 173.084" fill="#cdecff"/><polygon points="175.362 187.309 175.717 201.785 189.968 210.46 200.273 199.066 199.951 185.926 185.714 177.808 175.362 187.309" fill="#a6ddff"/><polygon points="199.95 185.926 200.319 200.962 189.96 210.483 189.595 195.566 199.95 185.926" fill="#7fceff"/><polygon id="fe456bf9-f384-485d-ba91-20af419d7aec" data-name="Top" points="175.365 187.311 189.608 195.612 199.945 185.93 185.713 177.811 175.365 187.311" fill="#cdecff"/><polygon points="179.487 178.139 179.7 186.812 188.239 192.01 194.414 185.183 194.221 177.31 185.69 172.446 179.487 178.139" fill="#a6ddff"/><polygon points="194.22 177.31 194.441 186.32 188.234 192.024 188.015 183.086 194.22 177.31" fill="#7fceff"/><polygon id="eb326d02-3045-45cf-a980-9ef4d1e52b16" data-name="Top" points="179.489 178.14 188.023 183.114 194.217 177.312 185.69 172.448 179.489 178.14" fill="#cdecff"/><polygon points="154.082 189.31 156.868 197.527 166.568 199.946 170.429 191.59 167.9 184.132 158.308 182.029 154.082 189.31" fill="#a6ddff"/><polygon points="167.9 184.132 170.794 192.666 166.567 199.96 163.697 191.494 167.9 184.132" fill="#7fceff"/><polygon id="a09cbfc5-d70b-4ef8-9f18-b169be8342e8" data-name="Top" points="154.084 189.311 163.712 191.517 167.898 184.135 158.308 182.03 154.084 189.311" fill="#cdecff"/><polygon points="158.243 155.231 158.525 166.73 169.846 173.622 178.033 164.57 177.777 154.133 166.467 147.683 158.243 155.231" fill="#a6ddff"/><polygon points="177.776 154.133 178.069 166.077 169.84 173.64 169.55 161.79 177.776 154.133" fill="#7fceff"/><polygon id="fbb43014-d494-42ba-ab14-81b969e8995f" data-name="Top" points="158.245 155.232 169.56 161.826 177.772 154.135 166.466 147.685 158.245 155.232" fill="#cdecff"/></g><path id="bf10b93a-5eec-48f2-8a33-9cab20f18e8e" data-name="Foreground" d="M295.66993,92.61777a13.4353,13.4353,0,0,0-4.15163-3.46842L222.89376,50.0679c-6.88434-3.92389-17.27222-4.21294-23.18435-.63937L130.06883,91.47038c-3.03049,1.82183-3.41587,4.13414-3.31954,6.81431V183.761c.18395,3.30206,1.524,6.05231,5.67563,8.41712l68.61583,39.08145c6.89311,3.92389,17.28093,4.21294,23.19307.63937l69.64053-42.04185a6.36938,6.36938,0,0,0,3.37219-6.05231V96.66429A6.89423,6.89423,0,0,0,295.66993,92.61777Zm-3.96773,6.39385-69.60551,42.00684a16.31606,16.31606,0,0,1-8.058,1.95317,22.63047,22.63047,0,0,1-11.22-2.64509l-68.59824-39.0814a8.97076,8.97076,0,0,1-3.33707-2.93421c-.39415-.66567-1.32257-2.19844,1.65536-4.00274l69.5968-42.01554c4.756-2.86412,13.59355-2.55753,19.28671.69192L290.0206,92.0835a10.31679,10.31679,0,0,1,2.75014,2.1459,5.169,5.169,0,0,1,.587.77948C293.75182,95.66578,294.68019,97.20733,291.7022,99.01162Z" fill-rule="evenodd" opacity="0.5" fill="url(#e72c8d26-f1ea-4898-9619-13360ecf61c1)"/><path id="b0f0760d-2cdf-4b99-8ced-12243c237dda" data-name="Top" d="M296.96468,93.01933a12.86439,12.86439,0,0,0-4.72463-4.28812L223.63643,49.64376c-6.88795-3.92864-17.26165-4.21751-23.18027-.64193L130.85755,91.0165c-3.20329,1.93866-4.4358,4.60909-3.79386,7.27314a6.89216,6.89216,0,0,0,.83451,2.00926,12.81037,12.81037,0,0,0,4.72467,4.28812l68.59719,39.09383c6.888,3.92226,17.268,4.2111,23.18027.64194l69.59861-42.01463a8.22729,8.22729,0,0,0,3.55635-3.8388A5.97231,5.97231,0,0,0,296.96468,93.01933ZM292.009,99.0086l-69.59861,42.01467c-4.75676,2.86943-13.58337,2.55489-19.28376-.6933L134.5294,101.24252a8.81017,8.81017,0,0,1-3.33165-2.93365c-.398-.66117-1.32881-2.1954,1.64978-3.99924L202.44614,52.295c4.75676-2.86943,13.5898-2.55489,19.28376.6933L290.33352,92.0821a8.8645,8.8645,0,0,1,3.3316,2.92722C294.0632,95.67053,294.994,97.21119,292.009,99.0086Z" fill="#9dc6a2" opacity="0.05"/></g><g id="b16a58f0-cab7-4818-ac7f-e164f3627ca2" data-name="Falling box"><polygon points="179.141 112.015 171.548 119.831 159.703 112.712 158.308 102.931 158.316 102.923 167.474 94.16 179.807 100.781 179.141 112.015" fill="#ffd572"/><polygon points="179.871 111.367 171.542 119.834 170.99 110.319 171.141 110.155 179.807 100.781 179.871 111.367" fill="#e5af30"/><polygon points="171.541 119.824 159.703 112.712 158.308 102.931 171.141 110.155 171.541 119.824" fill="#ffc335"/></g><g id="be3754fb-57c0-4c21-9cf6-b74fd4720d2b" data-name="Helicopter"><g id="b8139d83-c6f6-4c23-a66e-d65c90eb80c9" data-name="Box"><polygon points="88.221 92.539 88.221 109.11 73.747 117.679 58.982 109.11 58.982 93.312 73.747 85.6 88.214 92.474 88.221 92.539" fill="#a3779f"/><polygon points="88.221 92.539 88.221 109.11 73.747 117.679 73.747 101.133 88.214 92.474 88.221 92.539" fill="#926b8f"/><polygon points="58.982 93.312 73.747 101.133 88.221 92.41 73.747 85.536 58.982 93.312" fill="#bfa0bc"/></g><path id="e0cee6c1-02a8-4ff1-bb26-664f4a093990" data-name="Wire" d="M74.03515,93.18548a.6684.6684,0,0,1-.66858-.66858V60.77938a.66859.66859,0,0,1,1.33717,0V92.5169A.66841.66841,0,0,1,74.03515,93.18548Z" fill="url(#ed72edf7-3d70-4938-b8e3-7441f18acd50)"/><g id="a172d8d3-39fa-4457-93c7-95201fd4db7b" data-name="Landing Pads"><path d="M42.71356,68.716A30.59039,30.59039,0,0,0,46.0057,67.07L78.81739,85.61569l-3.7311,1.64607ZM92.53465,79.36062l3.73109-1.64607L63.45406,59.16881a30.58975,30.58975,0,0,1-3.29215,1.64607Z" fill="#bfc4c7"/><path d="M50.98825,72.57807h0a1.20711,1.20711,0,0,1-.593-1.03924V61.47331l2.41423,1.4266v8.63892A1.20712,1.20712,0,0,1,50.98825,72.57807Zm16.41638,7.19111V71.13026l-2.41424-1.42659V79.76918a1.20712,1.20712,0,0,0,.593,1.03924h0A1.20712,1.20712,0,0,0,67.40463,79.76918Z" fill="#7d858c"/><path d="M75.08629,87.26176l1.89594-4.4887,2.6697-1.33484-.83454,4.17747Zm21.20546-9.65515.83454-4.17747L94.45659,74.764l-1.89593,4.4887Z" fill="#7d858c"/></g><polygon id="a7b6ceec-5654-453a-bffe-33f9db5fad63" data-name="Tail" points="24.46 15.42 46.958 48.774 42.853 31.633 24.46 15.42" fill="#de6561"/><path d="M58.29637,27.45451C58.00422,27.35712,36.0211,12.91432,31.07461,9.6633A4.30532,4.30532,0,0,0,27.959,8.848C13.12086,11.762,42.49408,35.13617,42.49408,35.13617Z" fill="#f7706c"/><path id="a0db06b0-c1ef-4209-b833-32591bf4040f" data-name="Body" d="M99.44815,59.82724c0,7.90114-2.41424,9.87643-2.41424,9.87643s-5.11752,6.55042-20.4926,6.406a7.25181,7.25181,0,0,1-3.04778-.69508L48.447,63.48759a7.86671,7.86671,0,0,1-2.6048-1.97372,17.33239,17.33239,0,0,1-4.11623-11.34358V34.368S47.8583,23.433,65.697,27.22333L87.6842,40.21483l.13171.079S99.44815,51.9261,99.44815,59.82724Z" fill="#f7706c"/><path id="aad25702-66a5-4835-9ce5-e10c5eaf0125" data-name="Fin" d="M37.22666,4.9582l6.03559,17.11914L31.63,13.73725S31.3008.3492,31.3008.02Z" fill="#f99b98"/><path id="a085a13e-1e43-4414-a869-335e6f2a1139" data-name="Front Window" d="M99.44815,59.76578v.06146c-6.10145,15.60038-28.97086,7.46219-28.97086,5.70638V47.30288l17.06647-7.009.14044-.079.13171.079S99.38669,51.86464,99.44815,59.76578Z" fill="url(#ab8be728-029b-4341-91b0-fe43a7f0a531)"/><polygon id="e88090dc-eef9-47bf-8b00-8d658d2fc53e" data-name="Side Window" points="67.685 46.807 53.687 40.009 53.687 57.687 67.685 64.486 67.685 46.807" fill="url(#b897bb89-713e-4c83-b704-41571bf52483)"/><path d="M99.44815,59.76578l-11.90439-5.9961V40.29386l.14044-.079.13171.079S99.38669,51.86464,99.44815,59.76578Z" fill="#ebf7ff"/><path id="a7888815-0242-453e-b53d-e79cf2b6099b" data-name="Top" d="M57.60136,28.369c11.5225-6.9135,25.3495,8.88878,25.3495,8.88878l-11.303,4.06031L56.39424,33.3072Z" fill="#f99b98"/><path d="M19.773.96856c3.28206-1.78633,9.19744,2.74594,13.2161,10.121.12616.23428.25229.46856.37392.70283a28.38606,28.38606,0,0,1,2.87436,8.39775c.56089,3.62446-.04731,6.47178-1.917,7.49-3.28206,1.78632-9.19969-2.74369-13.2161-10.121-.2658-.48656-.51586-.97537-.75014-1.46194A29.65145,29.65145,0,0,1,18.212,10.2516C17.13071,5.79142,17.60376,2.15118,19.773.96856Z" fill="#fff" opacity="0.75"/><path d="M29.45253,14.45048a11.0046,11.0046,0,0,0,3.91052-2.65809,28.38606,28.38606,0,0,1,2.87436,8.39775,19.068,19.068,0,0,1-3.94884-1.06548,19.036,19.036,0,0,1-6.1947-3.94208A10.8046,10.8046,0,0,0,29.45253,14.45048Z" fill="#fff" opacity="0.5"/><path d="M18.212,10.2516a8.91156,8.91156,0,0,1,3.17167.93258,9.19539,9.19539,0,0,1,4.09076,4.316,4.75551,4.75551,0,0,0-1.65117-.44828,5.29347,5.29347,0,0,0-3.469,1.04522A29.65145,29.65145,0,0,1,18.212,10.2516Z" fill="#fff" opacity="0.5"/><ellipse cx="26.22683" cy="14.99643" rx="2.23077" ry="4.34756" transform="translate(-3.97827 14.37053) rotate(-28.57372)" fill="#f7706c"/><path d="M110.71168,36.58034c-2.91465,9.87643-23.27326,12.5716-45.47545,6.0312-.70237-.21069-1.40468-.42143-2.09821-.6409A78.22693,78.22693,0,0,1,41.17283,31.20757C33.01712,25.23778,28.6539,18.50426,30.31316,12.87692,33.22781,3.00049,53.58642.29653,75.78861,6.84572q2.19912.64524,4.31054,1.38705a81.71147,81.71147,0,0,1,15.56523,7.2164C106.4626,22.03346,112.63429,30.04873,110.71168,36.58034Z" fill="#fff" opacity="0.75"/><path d="M65.57857,29.17082A30.32622,30.32622,0,0,0,63.138,41.97064,78.22693,78.22693,0,0,1,41.17283,31.20757,52.20748,52.20748,0,0,1,70.69677,21.19944,29.77457,29.77457,0,0,0,65.57857,29.17082Z" fill="#fff" opacity="0.5"/><path d="M95.66438,15.44917a24.55853,24.55853,0,0,1-7.9977,4.36316A25.34044,25.34044,0,0,1,71.285,19.37338a13.10476,13.10476,0,0,0,4.09107-2.344,14.58765,14.58765,0,0,0,4.72313-8.79662A81.71147,81.71147,0,0,1,95.66438,15.44917Z" fill="#fff" opacity="0.5"/><ellipse cx="70.80041" cy="21.82124" rx="3.34033" ry="6.50999" transform="translate(29.84878 83.56124) rotate(-73.57372)" fill="#f7706c"/></g><g id="fa0afa38-678e-4312-b14c-8e92edc31aff" data-name="Unsubmitted Boxes"><g id="a89d88b2-3418-487c-9a8d-2112a5df9f9a" data-name="Boxes"><g id="aa238d2e-5cc8-4306-a95f-88e089c8bbf4" data-name="Rear Box"><polygon points="280.02 195.76 280.375 210.236 294.626 218.911 304.932 207.517 304.61 194.378 290.372 186.259 280.02 195.76" fill="#b1c854"/><polygon points="304.609 194.378 304.977 209.414 294.619 218.934 294.253 204.018 304.609 194.378" fill="#9fb44b"/><polygon id="b1c70e34-6b8f-429e-8dd3-4fc15c737628" data-name="Top" points="280.023 195.762 294.266 204.063 304.604 194.381 290.372 186.262 280.023 195.762" fill="#c9d988"/></g><g id="b6481a5b-715b-45da-8afc-ee41d7ea380a" data-name="Front Box"><polygon points="288.991 215.442 289.323 228.988 302.66 237.107 312.304 226.444 312.002 214.148 298.678 206.55 288.991 215.442" fill="#85a9cf"/><polygon points="312.001 214.148 312.346 228.219 302.652 237.129 302.31 223.169 312.001 214.148" fill="#7798ba"/><polygon id="b2740852-5cbb-4b26-8f5a-bfa6ccee7476" data-name="Top" points="288.993 215.443 302.322 223.211 311.997 214.151 298.678 206.552 288.993 215.443" fill="#aac3dd"/></g></g><g id="af3deaba-2fee-423e-82d8-0201061b0757" data-name="Stacked Boxes"><g id="b9c204a1-0afb-4183-82ec-3c246c42f560" data-name="Bottom Box"><polygon points="253.5 205.284 253.905 221.819 270.183 231.728 281.954 218.713 281.586 203.705 265.324 194.432 253.5 205.284" fill="#f7963e"/><polygon points="281.585 203.705 282.006 220.879 270.174 231.754 269.757 214.716 281.585 203.705" fill="#de8738"/><polygon id="aa8f5547-1031-493f-96c6-299acd0e049d" data-name="Top" points="253.503 205.286 269.772 214.768 281.58 203.709 265.324 194.435 253.503 205.286" fill="#f9b678"/></g><g id="ac3d3b7b-8df3-4ba0-9bbb-da9b0b1b166e" data-name="Box"><polygon points="258.353 193.802 258.603 204.02 268.663 210.143 275.937 202.101 275.709 192.826 265.66 187.095 258.353 193.802" fill="#73c7c1"/><polygon points="275.709 192.826 275.969 203.439 268.657 210.159 268.399 199.63 275.709 192.826" fill="#67b3ad"/><polygon id="ad4c4a6f-2885-4b37-95b3-ac91972d6981" data-name="Top" points="258.355 193.803 268.408 199.662 275.705 192.828 265.659 187.097 258.355 193.803" fill="#9dd8d4"/></g></g></g><g id="b80c21e4-9b79-4fe0-9062-3c48c3c6674d" data-name="Ladder"><path d="M300.09623,183.79445,261.83976,94.08261a2.02333,2.02333,0,0,0-3.7223,1.58742l3.26848,7.6646-13.44616,8.13285-2.98036-6.98895a2.02333,2.02333,0,0,0-3.7223,1.58741l13.91928,32.6408a2.00321,2.00321,0,0,0,.21724.53745c.00714.01176.01789.01954.02523.03113l24.0947,56.50213a2.02321,2.02321,0,1,0,3.72233-1.58676L278.917,184.10963l13.44634-8.13319,4.0106,9.40477a2.02321,2.02321,0,1,0,3.72233-1.58676Zm-30.68608-21.97854,13.44627-8.13315,3.11533,7.30544-13.44662,8.13246Zm-4.84652-11.36517,13.44645-8.13271,3.24335,7.60581L267.80717,158.057Zm-4.88182-11.44792,13.44641-8.13271,3.27888,7.689-13.44642,8.13266Zm-4.98772-11.69631,13.44633-8.13265,3.38481,7.93737-13.44637,8.13266Zm8.2948-20.213,3.54862,8.32138-13.44637,8.13266-3.54845-8.32118Zm14.32516,73.25715-3.18594-7.47111,13.44655-8.13251,3.18574,7.47043Z" fill="#a47854"/><path d="M300.10727,183.80487l-38.25665-89.7162a2.02212,2.02212,0,1,0-3.71866,1.58981l3.27027,7.663-13.39643,8.09827,1.60532,3.76529,13.38939-8.10477,3.54813,8.3193-13.38948,8.10477,1.60474,3.75176,13.38969-8.098,3.38343,7.9416-13.3894,8.10472,1.60475,3.75181,13.38968-8.098,3.27816,7.68965-13.3894,8.10472,1.60475,3.75176,13.38968-8.098,3.24069,7.60346-13.38939,8.10476,1.598,3.752,13.39651-8.09827,3.11318,7.30515-13.3894,8.10477,1.598,3.752,13.39643-8.09827,3.18781,7.47071-13.39614,8.10505,1.605,3.75851,13.38948-8.10472,4.013,9.4064a2.01929,2.01929,0,0,0,1.949,1.22613,2.01784,2.01784,0,0,0,1.76993-2.80924Z" fill="#936c4b"/></g><g id="f4cc18f9-423b-41e4-a020-bda428f7c769" data-name="Box dude is holding"><ellipse id="b8d94f8e-932b-4c6b-9606-d0ba3fa772f5" data-name="Part of the person" cx="246.68322" cy="85.70656" rx="3.99617" ry="2.57287" fill="#f4f5f6"/><polygon points="245.912 74.316 245.912 89.433 234.202 96.309 234.176 96.327 221.616 89.538 221.616 74.868 234.316 66.985 245.851 74.281 245.877 74.298 245.912 74.316" fill="#f7706c"/><polygon points="245.851 74.281 234.202 82.199 221.616 74.868 234.316 66.985 245.851 74.281" fill="#f99b98"/><polygon points="245.912 74.316 245.912 89.433 234.202 96.309 234.202 82.199 245.877 74.298 245.912 74.316" fill="#de6561"/></g><g id="f788d1ed-9e56-4273-9430-d11dab65e0d6" data-name="Person"><path id="b0cc7cf8-3bcf-4aa1-89b6-1561cbe0d5a7" data-name="Shoes" d="M262.6099,133.06269c1.59487.61651,1.74145.82133,1.708.95-.20318.78169-5.26387.97206-5.34512.06833-.0152-.169.18-.38078.51424-.71846a2.62392,2.62392,0,0,1,1.20206-.78419C260.89892,132.52786,261.17092,132.50645,262.6099,133.06269Zm6.65546-2.17646a4.02583,4.02583,0,0,0-1.18241-.91094c-.2102-.13135-.38539-.23645-.53427-.3153-.60435-.35037-.77077-.36785-.91094-.35908a1.18626,1.18626,0,0,0-.3153.05255,2.46419,2.46419,0,0,0-.762.37662c-.31531.219-.49926.35031-.51674.49048-.06132.55181,2.25971,1.05106,3.49472.99851.37662-.00877.64814-.07009.7357-.20149,0-.00876.00877-.00876.00877-.01748a.01214.01214,0,0,0,0-.01753A.45138.45138,0,0,0,269.26536,130.88623Z" fill="#2a2f34"/><path id="e0e932dc-e08f-4daf-9a4d-ff383bdfc83f" data-name="Skin" d="M234.2454,93.49414c-.47226-.31792-1.0123-.6932-1.67028-1.14846-2.35609-1.62916-4.21294-3.10933-5.47419-4.16039A3.103,3.103,0,0,1,224.2946,85.814a.7673.7673,0,0,1,.11082-.53154c.40292-.56934,1.67289-.29777,1.75174-.28906.12264-.3153.09633-1.03352.36785-.9459a18.49992,18.49992,0,0,0,8.242,4.16039,5.64541,5.64541,0,0,0,.56046.09633,11.78346,11.78346,0,0,0-1.06848,3.53851A4.90673,4.90673,0,0,0,234.2454,93.49414Zm15.22616-21.08989h-.24521a5.52856,5.52856,0,0,0-5.28154,3.95019,5.36953,5.36953,0,0,0-.22773,1.559v3.013a4.33429,4.33429,0,0,0,4.318,4.32681h.51679v.93719h3.28452a1.83661,1.83661,0,0,0,1.94441-1.68166V80.979c0-.01748.00876-.035.00876-.05255V76.72229A4.33241,4.33241,0,0,0,249.47156,72.40425Z" fill="#fcd5b2"/><path id="b98db96b-64d8-4ad6-9348-4505a5b1735d" data-name="Ear" d="M246.75657,80.38675a1.59771,1.59771,0,0,1-.27984,3.166" fill="#e5b096"/><path id="e0e6f1d4-a1ce-46d5-a20a-e2e15963c9bf" data-name="Shirt" d="M269.28,130.98283a.45076.45076,0,0,0-.01753-.09634c-.27147-1.42767-.63071-3.29328-.91083-5.99975,0-.02625-.00877-.05255-.00877-.0788-.403-3.87139-1.24389-8.77625-1.24389-9.33682,0-4.74722-1.42756-9.21419-7.98784-23.35073-.00876-.91094-1.93564-7.042-4.93127-7.84783-.064-.016-.135-.03068-.20036-.04a3.45311,3.45311,0,0,0-1.129-.4343,4.33593,4.33593,0,0,0-4.33862,2.0826c-.60783.18208-1.25725.364-1.8469.52011-.87587.254-1.59415.46423-1.75174.52555a21.1978,21.1978,0,0,1-7.43615,1.49771,14.425,14.425,0,0,1-2.17225-.08757c-.02619,0-.0525-.00877-.0788-.00877-.17513-.0263-.33283-.06131-.46424-.08756A18.4076,18.4076,0,0,1,226.52,84.0799c-.08768-.0263-.149.035-.19278.14011.0525-.08756.1051-.14011.19278-.11386a18.49817,18.49817,0,0,0,8.24187,4.16039c.13141.0263.27158.06131.44671.08762.0263,0,.06137.00871.08756.00871h.0263a12.08833,12.08833,0,0,0-1.05111,3.38091.96383.96383,0,0,1-.01753.15765c-.00866.09633-.0262.19266-.035.28028a4.39947,4.39947,0,0,0-.01754,1.00722,1.06827,1.06827,0,0,0,.03507.29782.149.149,0,0,0,.00877.06132,17.14575,17.14575,0,0,0,1.97937,1.19117c.22774.11387.49931.23651.80595.35909a16.38961,16.38961,0,0,0,9.22285.56934.17656.17656,0,0,1,.14893.01753.21732.21732,0,0,1,.1576.17513c.27157,1.44521.55191,2.9342.86711,4.47575a76.06769,76.06769,0,0,0,2.81151,10.38782,101.13077,101.13077,0,0,0,9.64336,19.89107c.587.92843,1.14744,1.82178,1.73431,2.65387.4992.70945,1.63788.6832,2.69765.6832-.2102-1.08612-.46424-3.38967-.64813-4.54577q-.07892-.45988-.1313-.91971c-.10521-.66562-.19277-1.33129-.27157-1.97943-.06137-.43793-.11387-.87587-.15771-1.30509-.04373-.35909-.07879-.71817-.11386-1.06854-.11376-1.12114-.20144-2.20721-.27157-3.267a1.088,1.088,0,0,0,.03506.14011v.00877q.14466.61745.34171,1.31381a25.112,25.112,0,0,0,1.91811,4.73844c.14883.28905.30654.58687.48177.88464.35027.61312.59554,1.03352.82327,1.40143.1576.254.30654.47295.48177.70945a2.13675,2.13675,0,0,0,1.46264.8408l.07014.00877.93714.1051h.01742A.053.053,0,0,0,269.28,130.98283Z" fill="#fff"/><path id="e3d688e5-0cfc-4667-9102-87c644461658" data-name="Rolled up sleeve" d="M236.72378,90.99928a9.064,9.064,0,0,0-.06137,2.20721,9.6398,9.6398,0,0,0,.368,1.89186,2.41481,2.41481,0,0,0,.06992.2365,3.38141,3.38141,0,0,1-1.58527-.30653,2.8725,2.8725,0,0,1-1.04234-.77077,2.9251,2.9251,0,0,1-.324-2.37363,1.74922,1.74922,0,0,1,.03507-.2102,11.62022,11.62022,0,0,1,1.0247-3.31954c0-.00877,0-.01753.01753-.0263.03507-.08757.0788-.18395.12253-.27152.22774.02625.46424.04378.71827.05255a10.18411,10.18411,0,0,0,1.58538-.05255c-.06137.11387-.114.2365-.17513.36785A9.619,9.619,0,0,0,236.72378,90.99928Z" fill="#e5e5e5"/><path id="a77c789f-36b8-4a87-bad2-f8a9f205b8c4" data-name="Pants" d="M268.35447,124.88648a4.61314,4.61314,0,0,1-2.2247,1.95323,3.9217,3.9217,0,0,1-.45547.14012,2.94836,2.94836,0,0,1-.6569.08756,25.11915,25.11915,0,0,1-1.91816-4.73844q-.197-.69636-.34161-1.31381s-.00871,0,0-.00877a1.09715,1.09715,0,0,1-.035-.14011c.07008,1.05977.15765,2.14589.27152,3.267.035.35037.07008.70946.11386,1.06859.04379.42917.09634.86711.15766,1.305.07885.64814.16641,1.31381.27151,1.97948a3.55891,3.55891,0,0,1-3.65237,2.12837,101.117,101.117,0,0,1-9.64336-19.89107,76.06876,76.06876,0,0,1-2.81156-10.38783c.27152-.20149.5518-.42046.84085-.67444A10.88157,10.88157,0,0,0,250.04,97.65565a3.39409,3.39409,0,0,0,.49049-2.61013,24.25716,24.25716,0,0,0-1.9357-5.45667,22.04354,22.04354,0,0,0-1.92693-3.18818l1.86561-.5255a20.3902,20.3902,0,0,1,3.89764,7.71642,13.35961,13.35961,0,0,0,5.03627-1.3138,24.18686,24.18686,0,0,0-3.28452-8.00548c2.7765.8671,4.82606,7.94416,5.4742,8.785,6.56027,14.13653,7.8244,17.516,7.8244,22.26324,0,.56057.46136,5.61572.86423,9.48711C268.3457,124.83393,268.35447,124.86023,268.35447,124.88648Z" fill="#4585a5"/><path id="eeeda879-a8b0-41b6-abc7-3ddf64e3c7b3" data-name="Shade" d="M268.53844,131.21906c-1.235.05255-3.556-.4467-3.49472-.99851.01749-.14017.20144-.27151.51674-.49048a2.46419,2.46419,0,0,1,.762-.37662c-.22773-.36791-.47295-.78831-.82332-1.40143-.17518-.29776-.33283-.59558-.48172-.88464a25.11889,25.11889,0,0,1-1.91816-4.73844q-.197-.69636-.3416-1.31381s-.00872,0,0-.00877a9.96941,9.96941,0,0,1,.16642-2.49621,11.0573,11.0573,0,0,1,1.18245-3.27575,25.54708,25.54708,0,0,0,1.489,10.274c.16636.46418.34155.91089.53427,1.33134a25.60171,25.60171,0,0,0,1.4189,2.82028c.26276.44671.52551.86711.78826,1.25249C268.407,131.01757,268.47713,131.12267,268.53844,131.21906ZM245.43567,94.135a15.18216,15.18216,0,0,1-8.77326-.92853,11.0153,11.0153,0,0,1-1.22614-.64814,10.59169,10.59169,0,0,1-1.1646-.81423.63231.63231,0,0,0,.00839-.07533c-.28023-.19272-.59553-.41168-.93713-.64813-2.35616-1.62917-4.21289-3.10939-5.4742-4.16039a3.10189,3.10189,0,0,1-1.60281-.57811,3.54465,3.54465,0,0,1-1.08607-1.35759.97117.97117,0,0,0-.77088.3416.7391.7391,0,0,0-.11376.53427A3.15142,3.15142,0,0,0,225.495,87.596a3.10267,3.10267,0,0,0,1.60291.5781c1.26121,1.051,3.11816,2.53123,5.4742,4.16039.6.416,1.09661.75928,1.54005,1.05716a1.80435,1.80435,0,0,0,.36053.86592,2.87244,2.87244,0,0,0,1.04234.77078,3.38154,3.38154,0,0,0,1.58527.30653,2.41481,2.41481,0,0,1-.06992-.2365,16.38961,16.38961,0,0,0,9.22285.56934.17656.17656,0,0,1,.14893.01753q.01035-.345.02064-.68695A.84567.84567,0,0,0,245.43567,94.135Z" fill-rule="evenodd" opacity="0.1" style="mix-blend-mode:multiply"/><g id="b531f9d6-4430-4d38-bd00-28b330886534" data-name="Hat"><path id="ab143950-7c62-4375-8a33-99bd13d52d56" data-name="Brim" d="M247.01913,72.92876c-3.54373-1.60649-4.29639.258-4.453,1.25753a1.061,1.061,0,0,0,.29509.89759l1.47509,1.526Z" fill="#e9ebed"/><path id="bc99fe1c-4e6d-4d2c-9426-10080aade9da" data-name="Hat" d="M253.7896,76.72229v2.32109c-1.65535,1.1036-4.94864.8408-7.23471-.40292a8.043,8.043,0,0,1-2.61008-2.286,5.52856,5.52856,0,0,1,5.28154-3.95019h.24521A4.33241,4.33241,0,0,1,253.7896,76.72229Z" fill="#fff"/><path id="bd0358d3-5005-4805-9830-80f53cdb1d06" data-name="Skin" d="M250.24869,79.11168a1.59771,1.59771,0,0,1,3.14729-.443,4.26808,4.26808,0,0,1-3.14729.443Z" fill="#fcd5b2"/></g></g><g id="b854b080-e874-44ad-94d3-10e1aef9c403" data-name="iModel"><path id="b9c970fc-c7d7-4357-82c4-5f461895b09a" data-name="iModel" d="M243.85127,213.15048a2.8148,2.8148,0,0,1-1.32412,2.40312l-29.55154,18.16654a2.636,2.636,0,0,1-2.76537.00447l-30.09376-18.34114a2.81623,2.81623,0,0,1-1.3328-2.40984V196.84645a2.81515,2.81515,0,0,1,1.37075-2.43222,2.636,2.636,0,0,1,2.72634.028l17.59211,10.0581V166.10382l-9.51939-6.26034a2.81712,2.81712,0,0,1-1.32521-2.40536V141.255a2.8158,2.8158,0,0,1,1.374-2.43446,2.64022,2.64022,0,0,1,2.7285.03246l27.1115,15.48121a2.81661,2.81661,0,0,1,1.31978,2.401v47.76511l17.59211-10.0581a2.636,2.636,0,0,1,2.72634-.028,2.81515,2.81515,0,0,1,1.37075,2.43222Z" fill="url(#ea43b056-b33a-4978-a70d-f03bed4dc302)"/><path id="a67f2321-b0d0-4626-8537-43489db940ba" data-name="Shine - Top" d="M301.39336,109.48728l.00849-4.46315a15.47889,15.47889,0,0,0-5.15045-6.04043c-.44021-.24822-.88147-.49394-1.31142-.76653L218.97619,56.37263c-.09356-.0618-.1811-.131-.274-.1937a14.92424,14.92424,0,0,0-5.08423-1.6656l-3.95286.00088a14.92994,14.92994,0,0,0-5.00576,1.62163c-.11995.0765-.23365.16217-.35478.23679L135.36992,95.78494c-.38164.24195-.77424.45751-1.164.68036a16.4152,16.4152,0,0,0-6.11663,8.53486v2.05489c7.63294-8.30133,12.0326-4.99628,12.0326-4.99628l61.34553,47.11753a24.936,24.936,0,0,0,27.1373,0l61.49035-44.6853S297.49635,99.77712,301.39336,109.48728Z" fill="#fff" fill-rule="evenodd" opacity="0.1"/><path id="e76cb1fc-c222-446d-ac16-edf77c2e392c" data-name="Shade" d="M208.41266,239.36155s5.8096-1.59984,5.8096-9.17517V167.18357a13.38441,13.38441,0,0,1,6.39057-11.0102c6.58249-4.11176,47.63877-29.36053,47.63877-29.36053a7.3881,7.3881,0,0,1,2.90481-.61168c1.634,0,3.48576,1.36909,3.48576,4.28175v63.46157s1.06694,9.06766-8.13345,14.68026S217.708,238.74987,217.708,238.74987,214.74391,241.04844,208.41266,239.36155Z" fill-rule="evenodd" opacity="0.05"/></g><g id="aa69a1fe-aa6a-4914-8336-354473ed1f04" data-name="Conveyor"><polygon id="a9299f8c-12f5-4f91-a6fe-3f8eb70114fa" data-name="Shade" points="41.657 219.174 67.135 234.607 127.311 196.974 106.696 185.181 41.657 219.174" fill-rule="evenodd" opacity="0.1"/><path id="e3802e47-69da-4ca1-8856-3fa17d5a33b9" data-name="Conveyor" d="M177.36512,118.34928,170.6735,125.076l-1.44521,1.454-7.5938,7.63758-1.44521,1.44521-7.05076,7.08577-1.44521,1.454-6.98067,7.01574-1.34011,1.34882-6.75294,6.788-1.19994,1.20871-7.30479,7.33981-1.37513,1.37512-7.585,7.63758-1.454,1.454L110.65,185.406l-1.44521,1.44521-7.10331,7.15586-1.2087,1.20871-7.296,7.331-1.38389,1.39266-7.5938,7.62881-1.44521,1.454-7.05075,7.08577-1.44521,1.46269-5.72819,5.75449-.0263-.01748A7.55746,7.55746,0,0,0,67.5746,234.122l-.40292.40292a1.33538,1.33538,0,0,1-.85834.473c-.15765-.06131-25.50538-14.811-25.50538-14.811a7.568,7.568,0,0,1-1.48023-1.90939,5.87108,5.87108,0,0,1,.06132-5.71947,8.19633,8.19633,0,0,1,.81455-1.25249,5.526,5.526,0,0,1,.45547-.543l6.22744-6.25373,1.08607-1.09484,7.45368-7.49747,1.09484-1.09484,7.78651-7.83906,1.09484-1.09484,7.40985-7.44491,1.09484-1.09484,7.49746-7.54124,1.09484-1.09484,7.44491-7.49746,1.09484-1.09484,7.79528-7.8303,1.09484-1.09484,7.40989-7.45368L108.434,142.646l6.99821-7.042,1.09484-1.09484,7.48869-7.53253,1.09484-1.09484,7.45368-7.48869,1.09484-1.10361,7.79523-7.8303,1.08613-1.09484,3.8538-3.87133a4.57551,4.57551,0,0,1,5.50921-.74447Z" fill="#2a2f34" fill-rule="evenodd"/><path id="b3e5f130-4b02-4f7b-8f8a-7bbcc70d0f26" data-name="Stripes" d="M76.21208,220.01175,75.14,221.12494,46.92862,204.47351l1.092-1.09755ZM40.2036,211.30557a8.19633,8.19633,0,0,0-.81455,1.25249L67.2593,229.007l1.06854-1.11237Zm16.3649-16.52165-1.092,1.0975L83.682,212.52652l1.073-1.08971Zm37.07093,7.73023L65.449,185.85485l-1.092,1.09751,28.20732,16.66808ZM102.144,193.969,73.95352,177.30966l-1.09195,1.09755,28.21135,16.66318ZM82.545,168.6782l-1.092,1.09755,28.19573,16.65959,1.07864-1.10217Zm8.54036-8.59174-1.092,1.0975,28.19754,16.66279,1.08867-1.1Zm37.07849,7.73L99.97328,151.15709l-1.092,1.09755L127.084,168.92031Zm8.50458-8.54519-28.19048-16.65935-1.092,1.09755,28.20114,16.67084Zm8.09215-8.13725-28.19048-16.65935-1.092,1.09755,28.18733,16.66288ZM125.154,125.84353l-1.092,1.0975,28.20782,16.666,1.06716-1.11314Zm8.54814-8.58457-1.092,1.09751,28.20959,16.65968,1.08867-1.1Zm8.888-8.92937-1.092,1.09755,28.19382,16.66342,1.0814-1.10672Z" fill="#15181a"/><path id="b69c9e49-d979-4195-8bfa-dd7bc6140bf8" data-name="3D" d="M178.03955,119.87329a7.11692,7.11692,0,0,1-1.62034,4.58085L67.63592,234.10454l-.40292.40287a1.33553,1.33553,0,0,1-.85834.473.637.637,0,0,1-.37662-.11387.93879.93879,0,0,1-.16642-.1577,2.27758,2.27758,0,0,1-.36785-1.36636,7.06863,7.06863,0,0,1,1.61158-4.572l1.6291-1.63788.2102-.2102,107.35563-108.214c.39415-.39415.75329-.53432,1.051-.43793l.1051.06126-.00139.00144C177.7821,118.51629,178.01571,119.037,178.03955,119.87329Z" fill="#15181a"/><g id="f2df8eec-9587-41de-9497-182c3cbc6847" data-name="Wheel"><ellipse cx="176.31537" cy="121.41146" rx="2.25327" ry="1.15165" transform="translate(21.52757 269.29179) rotate(-78.24408)" fill="#dce0e3"/><ellipse cx="176.31537" cy="121.41146" rx="1.38804" ry="0.70943" transform="translate(21.52757 269.29179) rotate(-78.24408)" fill="#a6afb7"/></g><g id="b556d925-b42a-4fe5-abed-03dc0625215b" data-name="Wheel"><ellipse cx="67.18137" cy="231.75611" rx="2.23476" ry="1.04191" transform="translate(-173.99517 239.37909) rotate(-75.64458)" fill="#dce0e3"/><ellipse cx="67.2162" cy="231.78028" rx="1.37664" ry="0.53288" transform="translate(-173.99239 239.43101) rotate(-75.64458)" fill="#a6afb7"/></g></g><g id="b3beb5b5-d8b3-4aef-aab9-11c1ffc2b683" data-name="Boxes on Conveyor"><g id="be25046d-14a5-4467-a113-4ef9be42271c" data-name="1"><polygon points="64.964 192.11 65.292 205.488 78.463 213.506 87.617 202.975 87.689 190.832 74.531 183.329 64.964 192.11" fill="#b1c854"/><polygon points="87.688 190.832 87.688 204.728 78.456 213.527 78.118 199.741 87.688 190.832" fill="#9fb44b"/><polygon id="b9ffcb74-b5ee-4b6f-a88a-f688bab98d65" data-name="Top" points="64.967 192.111 78.13 199.783 87.684 190.835 74.531 183.331 64.967 192.111" fill="#c9d988"/></g><g id="b3d4928c-4f84-4c92-a37a-5749e4da8ba9" data-name="2"><polygon points="79.785 158.644 80.685 174.905 97.006 184.164 107.242 170.999 107.38 156.239 91.094 147.605 79.785 158.644" fill="#a3779f"/><polygon points="107.379 156.239 107.379 173.129 96.998 184.19 96.071 167.434 107.379 156.239" fill="#836080"/><polygon id="bc8aa563-72b1-4e20-a97f-fe883192cb5e" data-name="Top" points="79.788 158.646 96.087 167.485 107.373 156.243 91.093 147.608 79.788 158.646" fill="#c2b2c1"/></g><g id="e7de7bfe-7810-4167-aaf9-f75b4492a405" data-name="3"><polygon points="106.076 135.87 106.396 148.928 119.252 156.754 128.197 146.475 128.258 134.622 115.414 127.299 106.076 135.87" fill="#f7963e"/><polygon points="128.257 134.622 128.257 148.186 119.245 156.775 118.915 143.319 128.257 134.622" fill="#de8738"/><polygon id="a62e6aa6-54b6-496e-a740-20bcbc660977" data-name="Top" points="106.078 135.871 118.927 143.359 128.252 134.626 115.414 127.301 106.078 135.871" fill="#f9b678"/></g><g id="b7eaebe7-e20a-4915-86de-ffbb4b0b23cd" data-name="4"><polygon points="139.327 115.921 139.577 126.117 149.615 132.228 156.556 124.202 156.647 114.947 146.618 109.228 139.327 115.921" fill="#73c7c1"/><polygon points="156.646 114.947 156.646 125.538 149.609 132.244 149.352 121.737 156.646 114.947" fill="#67b3ad"/><polygon id="e47c1f7a-d3f8-47f8-876e-03247ff50c54" data-name="Top" points="139.329 115.922 149.361 121.769 156.643 114.949 146.618 109.23 139.329 115.922" fill="#9dd8d4"/></g></g></g></g></svg>