<svg xmlns="http://www.w3.org/2000/svg" xmlns:xlink="http://www.w3.org/1999/xlink" viewBox="0 0 330 240"><defs><linearGradient id="a242964a-99de-418f-ab0b-701a6fc2f03e" x1="42" y1="149.60658" x2="57" y2="149.60658" gradientUnits="userSpaceOnUse"><stop offset="0" stop-color="#abdfff"/><stop offset="1" stop-color="#96d7ff"/></linearGradient><linearGradient id="fc7e2bee-9ea1-4986-abea-892fc35a49d6" y1="142.80553" y2="142.80553" xlink:href="#a242964a-99de-418f-ab0b-701a6fc2f03e"/><linearGradient id="f9a084c6-dfab-4fa1-8bc9-aadea43651c3" x1="42.0004" y1="138.69795" x2="56.99957" y2="138.69795" xlink:href="#a242964a-99de-418f-ab0b-701a6fc2f03e"/><linearGradient id="bcb38222-87f3-496e-834c-53f3861090e1" x1="42" y1="147.45364" x2="42.01033" y2="147.45364" gradientUnits="userSpaceOnUse"><stop offset="0.46206" stop-color="#fff"/><stop offset="0.6053" stop-color="#fff" stop-opacity="0.5"/></linearGradient><linearGradient id="ad277bb9-9e25-4d98-bf6e-d22e3ffafffb" y1="136.07706" y2="136.07706" xlink:href="#a242964a-99de-418f-ab0b-701a6fc2f03e"/><linearGradient id="b69ad9b8-c80b-423e-91b1-a8c3787608bb" x1="54.32777" y1="156.14851" x2="71" y2="156.14851" xlink:href="#a242964a-99de-418f-ab0b-701a6fc2f03e"/><linearGradient id="e2c012cd-a84f-49d1-9b24-bef708b33884" x1="54.32777" y1="148.58927" x2="71" y2="148.58927" xlink:href="#a242964a-99de-418f-ab0b-701a6fc2f03e"/><linearGradient id="aa87af42-6e56-4e65-b3ff-29e83840f4b0" x1="54.32821" y1="144.02377" x2="70.99952" y2="144.02377" xlink:href="#a242964a-99de-418f-ab0b-701a6fc2f03e"/><linearGradient id="e76dd7be-4f97-4ef7-8ff6-ab4a6bae7c94" x1="54.32777" y1="153.75556" x2="54.33925" y2="153.75556" xlink:href="#bcb38222-87f3-496e-834c-53f3861090e1"/><linearGradient id="ec3279e8-cc4c-4e9d-b241-eada2bcef8f0" x1="54.32777" y1="141.11069" x2="71" y2="141.11069" xlink:href="#a242964a-99de-418f-ab0b-701a6fc2f03e"/><linearGradient id="e8db59d3-261e-41a8-90d8-4dbab1d0b7dd" x1="116.32777" y1="42.96171" x2="140.34474" y2="42.96171" xlink:href="#a242964a-99de-418f-ab0b-701a6fc2f03e"/><linearGradient id="b48c9330-dc84-4154-893a-b28d5b1d90b1" x1="116.32777" y1="32.07234" x2="140.34474" y2="32.07234" xlink:href="#a242964a-99de-418f-ab0b-701a6fc2f03e"/><linearGradient id="b3675ab4-9ab5-4309-88da-108ee5446eac" x1="116.3284" y1="25.49556" x2="140.34405" y2="25.49556" xlink:href="#a242964a-99de-418f-ab0b-701a6fc2f03e"/><linearGradient id="b37c7c92-d62a-4e15-85e0-6e32bca84065" x1="116.32777" y1="39.51457" x2="116.34431" y2="39.51457" xlink:href="#bcb38222-87f3-496e-834c-53f3861090e1"/><linearGradient id="a2b2541a-3691-4c1c-a5ce-10ae15e69906" x1="139.33226" y1="39.51457" x2="139.34474" y2="39.51457" xlink:href="#bcb38222-87f3-496e-834c-53f3861090e1"/><linearGradient id="a2e1e84e-dfc4-424a-afec-f5a322b57ce6" x1="105.57883" y1="132.45995" x2="294.54431" y2="132.45995" xlink:href="#bcb38222-87f3-496e-834c-53f3861090e1"/><linearGradient id="a87f81f5-9e5b-45fa-b686-a4a820fb44a9" x1="36.16715" y1="130.1525" x2="119.31732" y2="130.1525" gradientUnits="userSpaceOnUse"><stop offset="0.46709" stop-color="#fff"/><stop offset="0.6053" stop-color="#fff" stop-opacity="0.5"/></linearGradient><linearGradient id="a7bceffa-b2ed-4983-80be-a80795d2c90b" x1="200.38291" y1="235.33957" x2="200.38291" y2="129.33021" gradientUnits="userSpaceOnUse"><stop offset="0" stop-color="#56aa1c"/><stop offset="1" stop-color="#67cc22"/></linearGradient><linearGradient id="be887516-fb76-4d46-b809-5c52bb8e980d" x1="116.32777" y1="21.29917" x2="140.34474" y2="21.29917" xlink:href="#a242964a-99de-418f-ab0b-701a6fc2f03e"/></defs><g style="isolation:isolate"><g id="a23a8786-578d-46cd-b6cd-4a44ed1c054a" data-name="Layer 1"><path d="M57,145.49772v5.81418c0,1.32895-3.35871,2.40354-7.5013,2.40354-4.14,0-7.4987-1.07459-7.4987-2.40354v-5.81418Z" fill="url(#a242964a-99de-418f-ab0b-701a6fc2f03e)"/><ellipse cx="49.49998" cy="145.499" rx="7.49959" ry="2.40417" fill="#6ab9ec"/><path d="M57,138.69667v5.81418c0,1.32895-3.35871,2.40354-7.5013,2.40354-4.14,0-7.4987-1.07459-7.4987-2.40354v-5.81418Z" fill="url(#fc7e2bee-9ea1-4986-abea-892fc35a49d6)"/><ellipse cx="49.49998" cy="138.69795" rx="7.49959" ry="2.40417" fill="url(#f9a084c6-dfab-4fa1-8bc9-aadea43651c3)"/><path d="M42,147.39911a.51665.51665,0,0,0,.01033.10906H42Z" fill="url(#bcb38222-87f3-496e-834c-53f3861090e1)"/><ellipse cx="49.49998" cy="138.69795" rx="7.49959" ry="2.40417" fill="#6ab9ec"/><path d="M57,131.96819v5.81419c0,1.329-3.35871,2.40354-7.5013,2.40354-4.14,0-7.4987-1.07459-7.4987-2.40354v-5.81419Z" fill="url(#ad277bb9-9e25-4d98-bf6e-d22e3ffafffb)"/><ellipse cx="49.49998" cy="131.96947" rx="7.49959" ry="2.40417" fill="#cdecff"/><path d="M71,151.58159V158.044c0,1.4771-3.73315,2.67149-8.33756,2.67149-4.60153,0-8.33467-1.19439-8.33467-2.67149v-6.46236Z" fill="url(#b69ad9b8-c80b-423e-91b1-a8c3787608bb)"/><ellipse cx="62.66387" cy="151.58301" rx="8.33566" ry="2.6722" fill="#6ab9ec"/><path d="M71,144.02235v6.46235c0,1.47711-3.73315,2.6715-8.33756,2.6715-4.60153,0-8.33467-1.19439-8.33467-2.6715v-6.46235Z" fill="url(#e2c012cd-a84f-49d1-9b24-bef708b33884)"/><ellipse cx="62.66387" cy="144.02377" rx="8.33566" ry="2.6722" fill="url(#aa87af42-6e56-4e65-b3ff-29e83840f4b0)"/><path d="M54.32777,153.695a.57483.57483,0,0,0,.01148.12122h-.01148Z" fill="url(#e76dd7be-4f97-4ef7-8ff6-ab4a6bae7c94)"/><ellipse cx="62.66387" cy="144.02377" rx="8.33566" ry="2.6722" fill="#6ab9ec"/><path d="M71,136.54377v6.46236c0,1.4771-3.73315,2.67149-8.33756,2.67149-4.60153,0-8.33467-1.19439-8.33467-2.67149v-6.46236Z" fill="url(#ec3279e8-cc4c-4e9d-b241-eada2bcef8f0)"/><ellipse cx="62.66387" cy="136.54519" rx="8.33566" ry="2.6722" fill="#cdecff"/><ellipse id="b76a0779-4faa-4bd5-9f9c-9183f02c1781" data-name="Part of the person" cx="143.93619" cy="33.54392" rx="4.42863" ry="2.85131" fill="#f4f5f6"/><path d="M140.34474,36.38289v9.30927c0,2.12782-5.37773,3.84838-12.01057,3.84838-6.62867,0-12.0064-1.72056-12.0064-3.84838V36.38289Z" fill="url(#e8db59d3-261e-41a8-90d8-4dbab1d0b7dd)"/><ellipse cx="128.33623" cy="36.38494" rx="12.00782" ry="3.8494" fill="#6ab9ec"/><path d="M140.34474,25.49351v9.30927c0,2.12783-5.37773,3.84839-12.01057,3.84839-6.62867,0-12.0064-1.72056-12.0064-3.84839V25.49351Z" fill="url(#b48c9330-dc84-4154-893a-b28d5b1d90b1)"/><ellipse cx="128.33623" cy="25.49556" rx="12.00782" ry="3.8494" fill="url(#b3675ab4-9ab5-4309-88da-108ee5446eac)"/><path d="M116.32777,39.42726a.82772.82772,0,0,0,.01654.17462h-.01654Z" fill="url(#b37c7c92-d62a-4e15-85e0-6e32bca84065)"/><path d="M139.34474,39.42726v.17462h-.01248A1.23256,1.23256,0,0,0,139.34474,39.42726Z" fill="url(#a2b2541a-3691-4c1c-a5ce-10ae15e69906)"/><ellipse cx="128.33623" cy="25.49556" rx="12.00782" ry="3.8494" fill="#6ab9ec"/><path id="f9f932dc-ac9f-4831-a9f0-684bd3e88613" data-name="Suggestion Box" d="M295.53944,83.7017c-.06707-2.93182-2.21456-5.98237-6.34554-8.33508L213.14962,32.05841c-7.636-4.34894-19.1423-4.665-25.70016-.70619l-77.1781,46.59147c-3.38439,2.04316-3.79045,4.62544-3.67338,7.63818v94.64082c.2038,3.65923,1.68609,6.71007,6.28736,9.33056l76.04439,43.30827c7.63588,4.34888,19.1423,4.665,25.70005.70613l77.1781-46.59147a7.05341,7.05341,0,0,0,3.73156-6.70728Z" fill="#bad3ab" fill-rule="evenodd" opacity="0.6"/><path id="b981a457-dc49-43a0-9c8e-0e3e1156c866" data-name="Suggestion Box" d="M119.31518,108.69749c-.02951-1.29008-.97447-2.63241-2.79222-3.66767L83.06132,85.973c-3.36006-1.91366-8.42316-2.05274-11.3088-.31075L37.792,106.1638a3.23391,3.23391,0,0,0-1.61639,3.361v41.64465a4.69885,4.69885,0,0,0,2.76662,4.10571L72.40388,174.332c3.36,1.91364,8.42316,2.05274,11.30875.31072l33.96055-20.50157a3.10368,3.10368,0,0,0,1.642-2.95139Z" fill="#adb2aa" fill-rule="evenodd" opacity="0.6"/><path id="f86c93a5-07db-4fbf-99d7-942b78b99037" data-name="Floor" d="M294.0607,177.6525a14.1756,14.1756,0,0,0-5.23-4.76L220.4606,133.94242l-4.25-2.43-4.27978,2.59009c-5.27,3.17993-15.06006,2.82995-21.37012-.77l-5.58008-3.17994-4.2,2.52991-70.8,42.74011c-4.45,2.69-5.47,6.65992-3.27978,10.28992a14.1121,14.1121,0,0,0,5.23975,4.75l76.02,43.32c7.63013,4.3501,19.14014,4.67,25.69019.72l77.12988-46.57C295.23062,185.25236,296.26065,181.28239,294.0607,177.6525Z" fill="#728e66" opacity="0.4"/><path id="b05258cb-8d28-4842-85c4-67ffcb809cbb" data-name="Foreground" d="M292.79411,79.21449a14.889,14.889,0,0,0-4.60091-3.84376l-76.051-43.31082c-7.62936-4.34853-19.14141-4.66886-25.69335-.70856l-77.177,46.59158c-3.35844,2.019-3.78553,4.58154-3.67878,7.55175v94.72649c.20386,3.6594,1.68894,6.70728,6.28985,9.328L187.92424,232.86c7.63907,4.34853,19.15106,4.66887,25.703.70857l77.177-46.59159a7.05863,7.05863,0,0,0,3.73712-6.70728V83.69893A7.64026,7.64026,0,0,0,292.79411,79.21449Zm-4.39711,7.0858-77.13816,46.55278a18.082,18.082,0,0,1-8.93,2.16455,25.07967,25.07967,0,0,1-12.43419-2.93135L113.87276,88.77551a9.94154,9.94154,0,0,1-3.69821-3.25174c-.43681-.73771-1.4657-2.43636,1.8345-4.43591l77.12851-46.56244c5.27067-3.17407,15.06463-2.83431,21.37391.7668l76.02194,43.33019a11.4335,11.4335,0,0,1,3.04777,2.37812,5.72855,5.72855,0,0,1,.6505.86384C290.66843,82.59236,291.69726,84.30073,288.397,86.30029Z" fill-rule="evenodd" opacity="0.4" fill="url(#a2e1e84e-dfc4-424a-afec-f5a322b57ce6)"/><path id="f6f97c12-49eb-49d9-82e5-e0589d2fb26a" data-name="Foreground" d="M118.54718,106.723a6.55164,6.55164,0,0,0-2.02453-1.69137L83.058,85.97364c-3.35714-1.91348-8.42276-2.05444-11.3058-.31179L37.79215,106.16347a3.21345,3.21345,0,0,0-1.61876,3.323V151.1688a4.699,4.699,0,0,0,2.76771,4.10458l33.46036,19.058c3.36141,1.91348,8.427,2.05444,11.31005.31179l33.96006-20.50162a3.106,3.106,0,0,0,1.64445-2.95139V108.69627A3.362,3.362,0,0,0,118.54718,106.723Zm-1.93485,3.118-33.943,20.48455a7.95655,7.95655,0,0,1-3.92946.95246,11.03563,11.03563,0,0,1-5.47139-1.28988l-33.45179-19.058a4.37466,4.37466,0,0,1-1.62732-1.43086c-.1922-.32461-.645-1.07207.80723-1.95193L72.93536,87.05853c2.31924-1.39668,6.62886-1.24717,9.40513.33741l33.45181,19.06652a5.03106,5.03106,0,0,1,1.3411,1.04644,2.51986,2.51986,0,0,1,.28624.38011C117.61182,108.20935,118.06454,108.96108,116.61233,109.84094Z" fill-rule="evenodd" opacity="0.4" fill="url(#a87f81f5-9e5b-45fa-b686-a4a820fb44a9)"/><path id="ad2a65ad-f745-4f94-9330-1ebb118ea243" data-name="Top" d="M294.5507,80.94993a14.28072,14.28072,0,0,0-5.24-4.75l-76.02-43.32007c-7.6399-4.3501-19.12989-4.66992-25.68994-.71L110.47086,78.73c-3.55,2.1499-4.92016,5.10986-4.2102,8.05981a7.62723,7.62723,0,0,0,.92993,2.23023,14.2409,14.2409,0,0,0,5.23022,4.75l68.35987,38.95984,7.65991,4.37c7.64014,4.34009,19.14014,4.66,25.69018.71l6.32984-3.81994,70.8-42.73987a9.10544,9.10544,0,0,0,3.94018-4.26026A6.60413,6.60413,0,0,0,294.5507,80.94993Zm-5.49,6.63989-72.8501,43.97-4.27979,2.59009c-5.27,3.17993-15.06006,2.83-21.37011-.77l-5.58008-3.17993L114.54069,90.0698a9.7996,9.7996,0,0,1-3.7-3.26c-.43995-.73-1.47-2.42993,1.83007-4.42993L189.8007,35.8198c5.27-3.17993,15.06-2.83008,21.37011.77l76.03,43.32007a9.82974,9.82974,0,0,1,3.68994,3.25C291.33073,83.88987,292.37076,85.59983,289.06071,87.58982Z" fill="#9dc6a2" opacity="0.05"/><g id="bb4771e2-cd10-4f98-b04d-d25b088bc851" data-name="Ladder"><path d="M191.43082,133.85984c-.23-.1-.45019-.2-.66015-.31006l.10009-.05993Z" fill-rule="evenodd" opacity="0.1"/><polygon points="192.231 134.39 192.251 134.4 180.491 141.52 180.481 141.5 192.231 134.39" fill-rule="evenodd" opacity="0.1"/><polygon points="197.641 137.96 199.761 142.95 197.631 137.96 197.641 137.96" fill-rule="evenodd" opacity="0.1"/><path d="M200.60075,143.95994a2.10567,2.10567,0,0,1-.83008-1A2.3371,2.3371,0,0,0,200.60075,143.95994Z" fill-rule="evenodd" opacity="0.1"/><path d="M204.06071,142.20994a2.20209,2.20209,0,0,1-1.3501,1.93994.82643.82643,0,0,1-.21.06006,1.17749,1.17749,0,0,0,.20019-.07007,2.23647,2.23647,0,0,0,1.34986-1.93994Z" fill-rule="evenodd" opacity="0.1"/><path d="M197.64078,137.95994h-.01l2.12989,4.99Zm2.12989,5a2.10567,2.10567,0,0,0,.83008,1A2.3371,2.3371,0,0,1,199.77067,142.95994Zm2.13012-6.41016-40.42016-94.77a2.32259,2.32259,0,0,0-.33985-.56982l-.01-.01a2.491,2.491,0,0,0-.23-.23,2.26155,2.26155,0,0,0-1.14013-.53,1.949,1.949,0,0,0-.76.02,1.85349,1.85349,0,0,0-.46.12988,2.23878,2.23878,0,0,0-1.17994,2.93994l3.61988,8.5-14.8999,9.01-3.3-7.74a2.24464,2.24464,0,1,0-4.12989,1.76L154.08073,91.23a1.98639,1.98639,0,0,0,.24.58984.13818.13818,0,0,0,.03.04l11.76,27.59009,6.45,3.66992-2.69-6.28.06983-.04,14.84009-8.97,3.45,8.09009-13.73,8.31006.01.00976,4.45,2.53015h.01025l11.02979-6.68v.01l3.53,8.27-5.86988,3.55.01.01c.86988.5,1.90992,1.07,3.09986,1.61987.21.11011.43017.21008.66015.31006l.79981.53.18017-.1001,2.89991-1.75989.01.00989,1.3601,3.20008.95,2.22009-.94018-2.22009A24.09868,24.09868,0,0,0,201.90079,136.54978Zm-54.04-71.33984.07007-.04,14.82984-8.98.01.01,3.91992,9.22-14.8999,9.01Zm5.71,13.37988.07006-.04,14.83008-8.97.00977.01,3.74023,8.79-14.90014,9.01Zm5.52,12.97.07006-.03979,14.82984-8.98023.01.02,3.63012,8.5-14.90014,9.02Zm5.40991,12.67993.07007-.03979,14.83007-8.97.01.02,3.58985,8.40991-14.8999,9.01Z" fill="#a47854"/><path d="M175.17081,129.05979v.01l3.7898-2.29993Zm-13.67016-87.28a2.11161,2.11161,0,0,0-.35987-.56982l-.01-.01a2.491,2.491,0,0,0-.23-.23,2.26155,2.26155,0,0,0-1.14013-.53,2.42183,2.42183,0,0,0-.76.02,3.22733,3.22733,0,0,0-.43994.13989,2.23543,2.23543,0,0,0-1.17994,2.93994l3.61988,8.5-14.84986,8.97,1.78,4.16016v.01l14.83985-8.98,3.93017,9.22h-.01025l-14.82984,8.98,1.78,4.1499v.01l14.83985-8.97,3.74023,8.79.00977.01-14.83985,8.98,1.77,4.15015.01.00976,14.82984-8.97.01-.01,3.62011,8.51.01.01-14.84008,8.99,1.77,4.14014.01.01,14.83007-8.96.01-.01026,3.57984,8.42017.01.01-14.83985,8.98,1.76978,4.1499.01025.01,14.82984-8.98h.01l3.43994,8.09009.01.01-13.73,8.30981,4.45,2.53015h.01025l11.02979-6.67.02-.01,3.53,8.28-5.87989,3.56006c.86988.5,1.90992,1.07,3.09986,1.61987.21.11011.43017.21008.66015.31006l.79981.53-11.75,7.11.01.02,11.76-7.12.18017-.11011,2.8899-1.75,1.3601,3.20008h.00977a24.09868,24.09868,0,0,0,5.2102.80993Zm42.53,99.91016a1.74553,1.74553,0,0,1,.02.51,2.23647,2.23647,0,0,1-1.34986,1.93994,1.17749,1.17749,0,0,1-.20019.07007.82643.82643,0,0,0,.21-.06006,2.20209,2.20209,0,0,0,1.3501-1.93994A1.5192,1.5192,0,0,0,204.03068,141.68992Z" fill="#936c4b"/></g><g id="ac1dd358-884a-4fb8-94c0-039e3447f6c7" data-name="Person"><path id="b3f30d6c-760e-44c1-989b-e6126175f787" data-name="Shoes" d="M163.68831,84.87163c1.76747.68323,1.92991.91022,1.89284,1.05283-.22517.86629-5.83352,1.07726-5.92357.07573-.01684-.18732.19949-.422.5699-.79622a2.90784,2.90784,0,0,1,1.33215-.86905C161.79216,84.27892,162.0936,84.25519,163.68831,84.87163Zm7.37571-2.412a4.4612,4.4612,0,0,0-1.31037-1.00952c-.23295-.14556-.42709-.262-.59209-.34942-.66975-.38829-.85418-.40766-1.00952-.398a1.31449,1.31449,0,0,0-.34942.05824,2.73106,2.73106,0,0,0-.84447.41738c-.34942.24266-.55328.38822-.57265.54356-.068.61152,2.50425,1.1648,3.87291,1.10657.41738-.00972.71828-.07767.81532-.2233,0-.00971.00972-.00971.00972-.01937a.01346.01346,0,0,0,0-.01943A.50017.50017,0,0,0,171.064,82.45964Z" fill="#2a2f34"/><path id="b728d2c2-8719-4e4f-9977-541d9ecf8a7e" data-name="Skin" d="M132.25422,41.021c-.52336-.35232-1.12185-.76822-1.851-1.27274-2.61107-1.80547-4.66886-3.44583-6.06661-4.61063a3.43877,3.43877,0,0,1-3.11-2.6279.85037.85037,0,0,1,.12282-.58906c.44652-.631,1.85393-.33,1.94131-.32033.13591-.34943.10676-1.14537.40766-1.04827a20.502,20.502,0,0,0,9.13393,4.61062,6.2576,6.2576,0,0,0,.62112.10676,13.05873,13.05873,0,0,0-1.18412,3.92144A5.4381,5.4381,0,0,0,132.25422,41.021Zm16.87393-23.37222h-.27175a6.12686,6.12686,0,0,0-5.8531,4.37768,5.95067,5.95067,0,0,0-.25238,1.72774v3.33907a4.80335,4.80335,0,0,0,4.78534,4.79505h.57271v1.03861h3.64a2.03535,2.03535,0,0,0,2.15483-1.86364V27.15151c0-.01938.00972-.03881.00972-.05824V22.43412A4.80126,4.80126,0,0,0,149.12815,17.64878Z" fill="#fcd5b2"/><path id="ebda18aa-579e-4442-80bc-3f5fd45ad577" data-name="Ear" d="M146.11934,26.49514a1.77061,1.77061,0,0,1-.31012,3.50859" fill="#e5b096"/><path id="edfbaa5c-9b47-45de-9506-5c1138522043" data-name="Shirt" d="M171.08021,82.56669a.49943.49943,0,0,0-.01943-.10676c-.30084-1.58218-.699-3.64969-1.0094-6.64905,0-.02908-.00972-.05823-.00972-.08732-.44658-4.29035-1.37849-9.726-1.37849-10.34725,0-5.261-1.58206-10.21134-8.85228-25.87772-.00972-1.00952-2.14512-7.80413-5.46493-8.69711a2.25925,2.25925,0,0,0-.222-.04438,3.82666,3.82666,0,0,0-1.25112-.4813,4.80515,4.80515,0,0,0-4.80814,2.308c-.67361.20179-1.39331.40339-2.04677.57639-.97066.28153-1.76667.51447-1.94132.58243a23.49188,23.49188,0,0,1-8.24088,1.65979,15.98537,15.98537,0,0,1-2.40733-.097c-.029,0-.05818-.00971-.08733-.00971-.19408-.02915-.36885-.068-.51447-.097a20.39972,20.39972,0,0,1-9.13381-4.61063c-.09716-.02915-.16517.0388-.21363.15528.05817-.097.11647-.15528.21363-.12619a20.5,20.5,0,0,0,9.13381,4.61062c.14562.02915.301.068.495.09711.02915,0,.068.00965.097.00965h.02915a13.39632,13.39632,0,0,0-1.16486,3.74679,1.06815,1.06815,0,0,1-.01943.17471c-.0096.10676-.029.21351-.03875.31062a4.87584,4.87584,0,0,0-.01943,1.11622,1.18373,1.18373,0,0,0,.03887.33.16529.16529,0,0,0,.00971.068,19.00038,19.00038,0,0,0,2.19358,1.32008c.25238.12619.55334.2621.89317.39794a18.16314,18.16314,0,0,0,10.22094.631.19565.19565,0,0,1,.16505.01943.24082.24082,0,0,1,.17465.19408c.301,1.60161.61164,3.25174.96095,4.96011a84.299,84.299,0,0,0,3.11577,11.512A112.075,112.075,0,0,0,160.665,82.159c.65051,1.02889,1.27162,2.01892,1.922,2.94106.55322.78623,1.81512.75714,2.98958.75714-.23295-1.20366-.51448-3.7565-.71828-5.03772q-.08743-.50964-.1455-1.01923c-.11659-.73766-.21364-1.47536-.301-2.19364-.068-.48533-.12619-.97066-.17477-1.44633-.04846-.39795-.08733-.79589-.12619-1.18418-.12607-1.24247-.22323-2.44607-.301-3.62053a1.20575,1.20575,0,0,0,.03886.15528v.00971q.16032.68427.37869,1.456a27.829,27.829,0,0,0,2.12568,5.25123c.16494.32034.33971.65039.53391.98038.38817.67947.66,1.14537.91237,1.55309.17465.28147.3397.52413.53391.78623a2.368,2.368,0,0,0,1.62092.93179l.07773.00972,1.03855.11647h.01931A.05879.05879,0,0,0,171.08021,82.56669Z" fill="#fff"/><path id="a655ae7d-0189-49d5-be5b-747f9d42d81e" data-name="Rolled up sleeve" d="M135.00081,38.25615a10.04486,10.04486,0,0,0-.068,2.44608,10.68215,10.68215,0,0,0,.40784,2.09659,2.673,2.673,0,0,0,.07749.2621,3.7474,3.7474,0,0,1-1.75683-.33971,3.18337,3.18337,0,0,1-1.15514-.85418c-.37846-.48533-.56283-1.15509-.359-2.63051a1.94247,1.94247,0,0,1,.03887-.23294,12.87781,12.87781,0,0,1,1.13559-3.67878c0-.00971,0-.01943.01944-.02915.03886-.097.08732-.20385.13578-.3009.25238.02909.51448.04852.796.05824a11.28543,11.28543,0,0,0,1.757-.05824c-.068.12619-.12631.2621-.19409.40766A10.65982,10.65982,0,0,0,135.00081,38.25615Z" fill="#e5e5e5"/><path id="a3954828-35c2-41ea-bcd9-b331c2fe0043" data-name="Pants" d="M170.05455,75.8106a5.11239,5.11239,0,0,1-2.46545,2.16461,4.34767,4.34767,0,0,1-.50476.15528,3.26787,3.26787,0,0,1-.728.097,27.83739,27.83739,0,0,1-2.12575-5.25124q-.21834-.7717-.37857-1.456s-.00965,0,0-.00972a1.21479,1.21479,0,0,1-.0388-.15528c.07767,1.17446.17471,2.37813.3009,3.62054.0388.38828.07767.78623.12619,1.18423.04852.47561.10676.96094.17471,1.44627.08739.71828.18443,1.456.3009,2.1937a3.94405,3.94405,0,0,1-4.04762,2.35869,112.05957,112.05957,0,0,1-10.687-22.04367,84.30074,84.30074,0,0,1-3.11583-11.512c.3009-.22329.61152-.46595.93185-.74742a12.05976,12.05976,0,0,0,1.96075-2.22279,3.7614,3.7614,0,0,0,.54356-2.8926,26.88172,26.88172,0,0,0-2.14517-6.04718,24.4305,24.4305,0,0,0-2.13546-3.53321l2.06751-.58237A22.597,22.597,0,0,1,152.408,41.129a14.80557,14.80557,0,0,0,5.58128-1.456c-.58237-2.06751-1.37832-5.69776-3.64-8.87183,3.077.96094,5.34834,8.80387,6.06661,9.73573,7.27022,15.66637,8.67116,19.4116,8.67116,24.67255,0,.62124.51129,6.22345.95776,10.5138C170.04484,75.75236,170.05455,75.78151,170.05455,75.8106Z" fill="#4585a5"/><path id="aa12495f-9b15-4404-86ef-1784131d79f7" data-name="Shade" d="M170.25844,82.82849c-1.36866.05823-3.94087-.49505-3.87292-1.10657.01937-.15534.22323-.3009.57266-.54356a2.73111,2.73111,0,0,1,.84446-.41738c-.25238-.40772-.52413-.87362-.91242-1.55309-.19414-.33-.36885-.66-.53385-.98037a27.838,27.838,0,0,1-2.12574-5.25124q-.21834-.7717-.37857-1.456s-.00966,0,0-.00972a11.04832,11.04832,0,0,1,.18443-2.76635,12.25414,12.25414,0,0,1,1.31042-3.63025,28.31162,28.31162,0,0,0,1.65013,11.3858c.18437.51442.37851,1.00946.59209,1.47542a28.37036,28.37036,0,0,0,1.57246,3.12549c.29118.495.58237.96094.87356,1.388C170.11282,82.60519,170.19048,82.72167,170.25844,82.82849Zm-25.603-41.09728a16.82507,16.82507,0,0,1-9.72269-1.029,12.20638,12.20638,0,0,1-1.35883-.71828,11.73713,11.73713,0,0,1-1.29063-.90235.70264.70264,0,0,0,.0093-.08347c-.31056-.21358-.66-.45624-1.03855-.71828-2.61114-1.80547-4.66881-3.44588-6.06662-4.61063a3.4374,3.4374,0,0,1-1.77626-.64066,3.92818,3.92818,0,0,1-1.2036-1.50451,1.07627,1.07627,0,0,0-.85431.37857.8191.8191,0,0,0-.12607.59209,3.49246,3.49246,0,0,0,1.32968,1.98983,3.43842,3.43842,0,0,0,1.77638.64067c1.39769,1.16474,3.4556,2.80516,6.06661,4.61063.665.461,1.21528.84144,1.70671,1.17155a1.99986,1.99986,0,0,0,.39954.95964,3.18335,3.18335,0,0,0,1.15515.85418,3.74738,3.74738,0,0,0,1.75683.33971,2.67217,2.67217,0,0,1-.07749-.2621,18.16314,18.16314,0,0,0,10.22094.631.19565.19565,0,0,1,.16505.01943q.01146-.3823.02287-.76129A.93721.93721,0,0,0,144.65549,41.73121Z" fill-rule="evenodd" opacity="0.1" style="mix-blend-mode:multiply"/><g id="adc8ca61-b7bc-4014-a3a0-b10b63cfc70c" data-name="Hat"><path id="ac8d09b2-ebfe-4f70-9c3d-2f86a3e242ee" data-name="Brim" d="M146.41032,18.23c-3.92723-1.78034-4.76135.28588-4.9349,1.39362a1.17588,1.17588,0,0,0,.327.99474l1.63473,1.69109Z" fill="#e9ebed"/><path id="ef56e734-84d1-4e24-aecd-d958a2473808" data-name="Hat" d="M153.91349,22.43412v2.57227c-1.8345,1.223-5.48418.93179-8.01765-.44652a8.91351,8.91351,0,0,1-2.89254-2.53341,6.12686,6.12686,0,0,1,5.8531-4.37768h.27175A4.80126,4.80126,0,0,1,153.91349,22.43412Z" fill="#fff"/><path id="a90ceab7-b8f4-4bd7-900d-c337a54059c3" data-name="Skin" d="M149.98938,25.08209a1.77061,1.77061,0,0,1,3.48789-.491,4.72993,4.72993,0,0,1-3.48789.491Z" fill="#fcd5b2"/></g></g><path id="fc3b2b93-dac4-4303-bae8-0101675514f3" data-name="Shade" d="M212.4854,227.89844s6.85815-1.88859,6.85815-10.83114V142.69348a15.80006,15.80006,0,0,1,7.544-12.99736c7.77052-4.85387,56.23682-34.65964,56.23682-34.65964a8.72145,8.72145,0,0,1,3.42907-.72208c1.92885,0,4.11489,1.61619,4.11489,5.05453V174.2843s1.2595,10.70424-9.60141,17.32982-57.60844,35.56224-57.60844,35.56224S219.95934,229.88978,212.4854,227.89844Z" fill-rule="evenodd" opacity="0.05"/><path d="M185.17081,152.72a2.23534,2.23534,0,0,1-1.18017,2.93994,2.209,2.209,0,0,1-.78.17993,2.13115,2.13115,0,0,1-1.10986-.25l-.39991-.26a.26782.26782,0,0,1-.06006-.04993,2.16974,2.16974,0,0,1-.59008-.8l-5.09009-11.94007-9.84986-23.08984,6.45,3.66992.77,1.81006,1.16992-.7.01.00976,4.45,2.53015-3.7898,2.28992-.07006.04,3.53,8.28,9.03-5.46.01.01c.86988.5,1.90992,1.07,3.09986,1.61987.21.11011.43017.21008.66015.31006l.79981.53-11.75,7.11-.06983.03991Z" fill="#936c4b" fill-rule="evenodd" opacity="0.3"/><polygon points="173.331 124.93 172.561 123.12 174.501 124.23 173.331 124.93" fill="#fff" fill-rule="evenodd"/><path d="M204.0507,142.19993a2.23647,2.23647,0,0,1-1.34986,1.93994,1.17749,1.17749,0,0,1-.20019.07007,1.04824,1.04824,0,0,1-.34986.07983.8332.8332,0,0,1-.22.03,2.31624,2.31624,0,0,1-.74023-.09,2.18366,2.18366,0,0,1-.57984-.2699h-.01a2.3371,2.3371,0,0,1-.83008-1l-.01-.01-2.11988-4.99h-.01l-.94018-2.22009a24.09868,24.09868,0,0,0,5.2102.80993l1.99,4.66016a1.71237,1.71237,0,0,1,.06983.21c.02.05.03.11.05.16992a.35565.35565,0,0,1,.02.1001A1.74553,1.74553,0,0,1,204.0507,142.19993Z" fill="#936c4b" fill-rule="evenodd" opacity="0.3"/><path d="M192.4108,134.28977h.02l-.18017.11011-11.76,7.12-.01-.02,11.75-7.11-.79981-.53C191.75065,133.99986,192.07072,134.14988,192.4108,134.28977Z" fill="#fff" fill-rule="evenodd"/><polygon points="196.691 135.74 197.631 137.96 196.681 135.74 196.691 135.74" fill="#fff" fill-rule="evenodd"/><polygon points="197.641 137.96 199.761 142.95 197.631 137.96 197.641 137.96" fill="#fff" fill-rule="evenodd"/><path d="M200.60075,143.95994a2.10567,2.10567,0,0,1-.83008-1A2.3371,2.3371,0,0,0,200.60075,143.95994Z" fill="#fff" fill-rule="evenodd"/><path d="M204.06071,142.20994a2.20209,2.20209,0,0,1-1.3501,1.93994.82643.82643,0,0,1-.21.06006,1.17749,1.17749,0,0,0,.20019-.07007,2.23647,2.23647,0,0,0,1.34986-1.93994,1.74553,1.74553,0,0,0-.02-.51A1.5192,1.5192,0,0,1,204.06071,142.20994Z" fill="#fff" fill-rule="evenodd"/><path id="f91363a4-af64-47d7-a498-3ae3e1ef3e37" data-name="iModel" d="M236.43749,212.10725a3.11944,3.11944,0,0,1-1.46742,2.66319l-32.74958,20.1325a2.92124,2.92124,0,0,1-3.06464.005l-33.35049-20.326a3.121,3.121,0,0,1-1.477-2.67062V194.03881a3.11983,3.11983,0,0,1,1.5191-2.69544,2.9213,2.9213,0,0,1,3.02137.031L188.36471,202.521V159.96924l-10.54957-6.93783a3.122,3.122,0,0,1-1.46862-2.66567V132.43127a3.12051,3.12051,0,0,1,1.52271-2.69792,2.92592,2.92592,0,0,1,3.02377.036l30.04549,17.15658a3.12141,3.12141,0,0,1,1.46261,2.66086V202.521L231.897,191.37438a2.92132,2.92132,0,0,1,3.02138-.031,3.11983,3.11983,0,0,1,1.5191,2.69544Z" fill="url(#a7bceffa-b2ed-4983-80be-a80795d2c90b)"/><path d="M140.34474,14.72034v9.30927c0,2.12783-5.37773,3.84839-12.01057,3.84839-6.62867,0-12.0064-1.72056-12.0064-3.84839V14.72034Z" fill="url(#be887516-fb76-4d46-b809-5c52bb8e980d)"/><ellipse cx="128.33623" cy="14.72239" rx="12.00782" ry="3.8494" fill="#cdecff"/></g></g></svg>