<svg xmlns="http://www.w3.org/2000/svg" xmlns:xlink="http://www.w3.org/1999/xlink" viewBox="0 0 319.92 240.5"><defs><style>.cls-1{fill:#6fb7e5;}.cls-2{fill:#f9fcff;}.cls-2,.cls-21,.cls-7,.cls-8,.cls-9{fill-rule:evenodd;}.cls-3,.cls-9{opacity:0.05;}.cls-4{fill:#57aa46;}.cls-15,.cls-21,.cls-5,.cls-7,.cls-8{fill:#fff;}.cls-5{opacity:0.25;}.cls-6{fill:url(#linear-gradient);}.cls-7{opacity:0.3;}.cls-8{opacity:0.45;}.cls-10{fill:#2a2f34;}.cls-11{fill:#15181a;}.cls-12{fill:#dbdfe2;}.cls-13{fill:#a5aeb7;}.cls-14{fill:#836c5b;}.cls-16{fill:#a9785d;}.cls-17{fill:#97745d;}.cls-18{fill:#74c6c0;}.cls-19{fill:#352a16;}.cls-20{fill:url(#linear-gradient-2);}.cls-21{opacity:0.1;}</style><linearGradient id="linear-gradient" x1="281.31" y1="236.01" x2="281.31" y2="214.45" gradientUnits="userSpaceOnUse"><stop offset="0" stop-color="#57aa46"/><stop offset="1" stop-color="#6fbd44"/></linearGradient><linearGradient id="linear-gradient-2" x1="83.06" y1="67.98" x2="83.06" y2="18.59" xlink:href="#linear-gradient"/></defs><g id="Layer_2" data-name="Layer 2"><g id="Layer_1-2" data-name="Layer 1"><path class="cls-1" d="M281,153.38a6,6,0,0,1,2.76.66l.1.07L314,172c.16.1.34.19.51.28a5.76,5.76,0,0,1,1.82,1.89,5.92,5.92,0,0,1,.51.79v.28a5.69,5.69,0,0,1,.32,1.84v36.72a6,6,0,0,1-2.72,5c-.15.08-.3.16-.44.25l-1.06.63c-.29.21-.6.42-.94.63-5.11,3-27.11,16.21-27.11,16.21a3.26,3.26,0,0,1-1,.43h0l-.14.09a6,6,0,0,1-2.72.65,6.11,6.11,0,0,1-2.71-.64l-.15-.1L248,219.05l-.35-.19a6.19,6.19,0,0,1-2.82-5V177.25a6.05,6.05,0,0,1,2.71-5L248,172l30.11-17.91.14-.09a6.15,6.15,0,0,1,2.72-.64m0-2.81a9.06,9.06,0,0,0-4,.94l-.09.05-.09.05-.15.1.05,0-30.15,17.93-.24.13-.1.06-.11.06-.09.06a8.81,8.81,0,0,0-4,7.33v36.57a8.93,8.93,0,0,0,4.05,7.36l.1.07.11.06.16.09.11.06,30.12,17.91.14.09.09.06.1,0a8.83,8.83,0,0,0,7.93,0l.1-.05a5.51,5.51,0,0,0,1.31-.63c1.35-.81,22.12-13.26,27-16.16.36-.22.71-.45,1.07-.7l.94-.56a1.71,1.71,0,0,1,.23-.13l.11-.06.1-.05.09-.06a8.8,8.8,0,0,0,4-7.34V177.1a8.28,8.28,0,0,0-4.53-7.49l-30.06-17.88-.1-.06-.11-.07-.11-.06a9,9,0,0,0-4-1Z"/><path id="Center_Honeycomb" data-name="Center Honeycomb" class="cls-2" d="M278.27,237.06a6.11,6.11,0,0,0,2.71.64,6,6,0,0,0,2.72-.65l.14-.09L314,219.05c.14-.09.29-.17.44-.25a6,6,0,0,0,2.72-5V177.1a5.72,5.72,0,0,0-2.65-4.8c-.17-.09-.35-.18-.51-.28l-30.12-17.91-.1-.07a6,6,0,0,0-2.76-.66,6.15,6.15,0,0,0-2.72.64l-.14.09L248,172l-.46.25a6.05,6.05,0,0,0-2.71,5v36.57a6.19,6.19,0,0,0,2.82,5l.35.19L278.12,237Z"/><path id="Floor" class="cls-3" d="M244.14,217.35a5.51,5.51,0,0,0,2.05,1.85l29.62,16.89c3,1.69,7.46,1.82,10,.27l30.05-18.14c1.74-1.05,2.14-2.6,1.28-4a5.4,5.4,0,0,0-2-1.85L285.5,195.47c-3-1.69-7.46-1.82-10-.28l-30.06,18.15c-1.73,1-2.13,2.6-1.28,4Z"/><polygon class="cls-4" points="290.68 209.32 290.88 217.41 299.34 222.25 305.48 216.93 305.3 208.53 296.84 204 290.68 209.32"/><polygon class="cls-3" points="305.3 208.53 305.5 216.93 299.34 222.26 299.13 213.93 305.3 208.53"/><polygon id="Top" class="cls-5" points="290.68 209.32 299.14 213.95 305.3 208.53 296.84 204 290.68 209.32"/><polygon class="cls-4" points="255.19 209.33 255.39 217.42 263.85 222.26 269.99 215.88 269.81 208.53 261.35 204.01 255.19 209.33"/><polygon class="cls-3" points="269.81 208.53 270.01 216.94 263.85 222.27 263.64 213.93 269.81 208.53"/><polygon id="Top-2" data-name="Top" class="cls-5" points="255.19 209.33 263.65 213.96 269.81 208.54 261.35 204.01 255.19 209.33"/><polygon class="cls-4" points="267.5 212.29 267.7 220.39 276.16 225.22 282.3 218.85 282.12 211.5 273.66 206.97 267.5 212.29"/><polygon class="cls-3" points="282.12 211.5 282.33 219.91 276.16 225.24 275.95 216.9 282.12 211.5"/><polygon id="Top-3" data-name="Top" class="cls-5" points="267.5 212.3 275.96 216.93 282.12 211.5 273.66 206.98 267.5 212.3"/><path id="iModel" class="cls-6" d="M298.61,214.66a1.41,1.41,0,0,0-.74-.21,1.52,1.52,0,0,0-.77.22l-9.77,5.41V214.9l-6,3.16-6-3.24v5.26l-9.77-5.41a1.55,1.55,0,0,0-.77-.22,1.44,1.44,0,0,0-.75.21,1.5,1.5,0,0,0-.77,1.31v8.68a1.52,1.52,0,0,0,.74,1.29l16.72,9.87a1.3,1.3,0,0,0,.62.2h.15a1.71,1.71,0,0,0,.78-.2l16.4-9.78a1.49,1.49,0,0,0,.74-1.29V216A1.5,1.5,0,0,0,298.61,214.66Z"/><path class="cls-3" d="M287.33,194.38V214.9l-6,3.16-6-3.24v-15.4l-5.3-3.37a1.49,1.49,0,0,1-.73-1.29v-8.71a1.49,1.49,0,0,1,.33-.93l12.72,7,1.27-.74,2.76,1.53.26.14A1.49,1.49,0,0,1,287.33,194.38Z"/><path id="Shine_-_Left" data-name="Shine - Left" class="cls-7" d="M256.13,181.55l-11,11.19v16.79L280,197s.58-1.43-3.55-4Z"/><path id="Shine_-_Edges" data-name="Shine - Edges" class="cls-8" d="M281,197.35s-.79,15.17,0,36.86C281,234.21,281.69,220.17,281,197.35ZM250,176a291.84,291.84,0,0,0,26.79,15.8S267,185.05,250,176Z"/><path id="Shade" class="cls-9" d="M279.69,235.69a4.83,4.83,0,0,0,3.23-4.94v-33.9a7.13,7.13,0,0,1,3.54-5.93c3.66-2.21,26.46-15.8,26.46-15.8a4.24,4.24,0,0,1,1.62-.33,2.07,2.07,0,0,1,1.93,2.31v34.15a8.48,8.48,0,0,1-4.51,7.9c-5.11,3-27.11,16.21-27.11,16.21S283.21,236.59,279.69,235.69Z"/><path class="cls-1" d="M318.28,174.39,286.34,193,283,194.89a1.23,1.23,0,0,1-.67.18,1.4,1.4,0,0,1-.66-.16L269.26,188l-25.07-13.88,1.31-2.36,24.09,13.32,12.72,7,1.27-.74,33.34-19.37Z"/><g id="Conveyor"><path class="cls-10" d="M259.52,163.75h-189l7.45-31.66c.67-2.87,2.78-4.84,5.18-4.84H246.76c2.47,0,4.65,2,5.35,5Z"/><polygon class="cls-11" points="165 163.75 161.22 163.75 161.57 127.25 165 127.25 165 163.75"/><polygon class="cls-11" points="180.45 163.75 176.67 163.75 175.61 127.25 179.04 127.25 180.45 163.75"/><polygon class="cls-11" points="196.58 163.75 192.81 163.75 190.28 127.25 193.71 127.25 196.58 163.75"/><polygon class="cls-11" points="212.03 163.75 208.26 163.75 204.32 127.25 207.76 127.25 212.03 163.75"/><polygon class="cls-11" points="226.79 163.75 223.02 163.75 217.74 127.25 221.18 127.25 226.79 163.75"/><polygon class="cls-11" points="242.24 163.75 238.47 163.75 231.79 127.25 235.22 127.25 242.24 163.75"/><polygon class="cls-11" points="102.52 163.75 98.74 163.75 104.77 127.25 108.2 127.25 102.52 163.75"/><polygon class="cls-11" points="88.27 163.75 84.5 163.75 91.81 127.25 95.25 127.25 88.27 163.75"/><polygon class="cls-11" points="117.97 163.75 114.19 163.75 118.81 127.25 122.24 127.25 117.97 163.75"/><polygon class="cls-11" points="134.1 163.75 130.33 163.75 133.48 127.25 136.91 127.25 134.1 163.75"/><polygon class="cls-11" points="149.55 163.75 145.78 163.75 147.52 127.25 150.96 127.25 149.55 163.75"/><rect class="cls-11" x="70.48" y="160.38" width="189.05" height="7.12" rx="3.37"/><circle class="cls-12" cx="75.26" cy="163.93" r="2.03"/><circle class="cls-13" cx="75.26" cy="164" r="1.03"/><circle class="cls-12" cx="255.05" cy="163.85" r="2.24"/><circle class="cls-13" cx="255.05" cy="163.93" r="1.14"/></g><g id="Box"><polygon class="cls-4" points="125.11 127.94 125.11 142.19 112.67 149.56 99.97 142.19 99.97 128.6 112.67 121.97 125.11 127.89 125.11 127.94"/><polygon class="cls-3" points="125.11 127.94 125.11 142.19 112.67 149.56 112.67 135.33 125.11 127.89 125.11 127.94"/><polygon class="cls-5" points="99.97 128.6 112.67 135.33 125.11 127.83 112.67 121.92 99.97 128.6"/></g><g id="Box-2" data-name="Box"><polygon class="cls-4" points="170.06 124.59 170.06 143.99 153.12 154.01 135.84 143.99 135.84 125.5 153.12 116.47 170.05 124.52 170.06 124.59"/><polygon class="cls-3" points="170.06 124.59 170.06 143.99 153.12 154.01 153.12 134.65 170.05 124.52 170.06 124.59"/><polygon class="cls-5" points="135.84 125.5 153.12 134.65 170.06 124.44 153.12 116.4 135.84 125.5"/></g><g id="Person"><path class="cls-14" d="M41.3,127l9.83,9a3.85,3.85,0,0,1,.48,5.14l-7,9.36Z"/><path class="cls-12" d="M123.34,216.29l-60.64-9.5a4.19,4.19,0,0,1-3.29-5.57l14.48-40a4.18,4.18,0,0,1,4.3-2.74l60.35,5.17a4.19,4.19,0,0,1,3.63,5.46L128,213.43A4.2,4.2,0,0,1,123.34,216.29Z"/><polygon class="cls-15" points="120.69 213.13 61.2 203.23 76.56 160.83 135.68 166.35 120.69 213.13"/><path class="cls-13" d="M142.17,169.15,128,213.45a4.2,4.2,0,0,1-4.64,2.87l-1.8-.29a4.19,4.19,0,0,0,4-2.94l14.36-44.78a4.19,4.19,0,0,0-1.42-4.62h.08A4.19,4.19,0,0,1,142.17,169.15Z"/><polygon class="cls-4" points="90.95 198.67 82.8 178.26 89.3 175.67 94.2 187.95 114.81 173.79 118.78 179.56 90.95 198.67"/><path class="cls-16" d="M55.24,182.17c8.86-2.76,14.09,1.16,14.88,1.63,4.88-.63,10.54-8.25,12.35-7.9,1.51.3,2.71,2,3,3.51.82,3.75-3.31,7.53-6.52,10.45a37.53,37.53,0,0,1-9.5,6.31A14.08,14.08,0,0,1,78,194.76c1.91.31,4.67.77,5.83,3.09,1,1.9.64,4.71-.87,5.82-1.74,1.27-3.54-.79-6.62.19-2.35.75-2.48,2.33-5.09,4.07a13.55,13.55,0,0,1-7.58,2.23C55.58,209.83,35.55,188.31,55.24,182.17Z"/><path class="cls-17" d="M0,98.83v91.22a33.87,33.87,0,0,0,16.33,1.24c10.53-1.8,19.22-8.45,24.8-17.79,5.78-9.64,8.25-22.14,6-35.13a52,52,0,0,0-15.76-29.71C22.76,100.78,11.68,96.83.46,98.75Z"/><path class="cls-18" d="M0,177.7v62.8H54.43l-6.58-62.69-.05,0a51.37,51.37,0,0,0-6.67-4.27A51.61,51.61,0,0,0,33.37,170c-8.65-3-19.86-4-29.79,4.17-.31.24-.61.52-.91.77A29.79,29.79,0,0,0,0,177.7Z"/><path class="cls-16" d="M103.52,215.51a25.55,25.55,0,0,0,2.79-8.35c.74-4.94-4.1-13.66-.43-14.21,9.83-1.49,7.58,11,11.13,12.93,4.52,2.47,15.1-13.92,19.94-11.61,3.39,1.63,2.68,11.85-.56,19.15-5.32,12-17.58,16.36-19.79,17.14a36.78,36.78,0,0,1-10.3,2.05,16,16,0,0,0-2.78-17.1Z"/><path class="cls-18" d="M28.71,192.16,53.44,240.5h55l.93-.31A16.24,16.24,0,0,0,102,211.58l-25.63,8.27L55.26,178.58c-1.89-3.7-11.92-6.53-18.61-3.3S26.82,188.46,28.71,192.16Z"/><path class="cls-19" d="M0,94.53v60.88l1.57-1.64c3.94-6.05,4.36-9.49,1.49-15.29s.67-11.68,5.59-9.89,14.12,7.1,14.12,7.1l4.74-4.44a6.2,6.2,0,0,0,.61-8.39c-2.56-3.19-5.29-7.3-4.15-9.2,1.4-2.33,3.44-3.38,7.42-5,1.74-.71,3.84-1.53,6.43-2.6,8.52-3.54,4.74-6.45,4.74-6.45s-24.8-10.44-39.2-6.16Q1.65,94,0,94.53Z"/></g><g id="Box-3" data-name="Box"><polygon class="cls-4" points="97.28 100.7 89.81 108.65 79.02 106.23 75.8 95.47 82.92 87.89 93.47 90.85 97.31 100.67 97.28 100.7"/><polygon class="cls-3" points="97.28 100.7 89.81 108.65 79.02 106.23 86.47 98.3 97.31 100.67 97.28 100.7"/><polygon class="cls-5" points="82.92 87.89 86.47 98.3 97.34 100.64 93.5 90.82 82.92 87.89"/></g><g id="iModel1"><path class="cls-1" d="M85.63,2.88a6.35,6.35,0,0,1,2.83.68l.11.08,31,18.42.52.29a6,6,0,0,1,1.88,1.94,5.6,5.6,0,0,1,.52.81v.29a5.73,5.73,0,0,1,.33,1.89V65a6.24,6.24,0,0,1-2.8,5.13l-.45.25-1.09.64a10.23,10.23,0,0,1-1,.65c-5.26,3.11-27.87,16.67-27.87,16.67a3.4,3.4,0,0,1-1,.44l0,0-.15.09a6.23,6.23,0,0,1-5.58,0l-.16-.09-31-18.42-.36-.2A6.34,6.34,0,0,1,48.47,65V27.43a6.21,6.21,0,0,1,2.78-5.11l.47-.26,31-18.42.15-.09a6.21,6.21,0,0,1,2.8-.67m0-2.88a9.08,9.08,0,0,0-4.09,1l-.1.05-.09.05-.15.1,0,0-31,18.44-.24.14-.11.05-.11.06-.1.06a9.07,9.07,0,0,0-4.1,7.54V65a9.18,9.18,0,0,0,4.17,7.57l.1.07.12.07.16.08.11.06,31,18.43.15.09.09.06.1,0a9.07,9.07,0,0,0,8.16,0l.1-.05a6.06,6.06,0,0,0,1.35-.65C92.54,90,113.9,77.17,119,74.19c.37-.22.73-.46,1.09-.72l1-.57.23-.13.12-.06.1-.06.1-.06A9.09,9.09,0,0,0,125.67,65V27.28a8.51,8.51,0,0,0-.33-2.33V24.4l-.32-.63a8.57,8.57,0,0,0-.69-1.1,8.79,8.79,0,0,0-2.71-2.75l-.1-.06-.11-.06,0,0-.36-.2L90.1,1.19,90,1.13l-.11-.08L89.76,1a9.11,9.11,0,0,0-4.13-1Z"/><path id="Center_Honeycomb-2" data-name="Center Honeycomb" class="cls-2" d="M82.84,88.93a6.23,6.23,0,0,0,5.58,0l.15-.09,31-18.42.45-.25a6.24,6.24,0,0,0,2.8-5.13V27.28a5.88,5.88,0,0,0-2.73-4.93l-.52-.29-31-18.42-.11-.08a6.35,6.35,0,0,0-2.83-.68,6.21,6.21,0,0,0-2.8.67l-.14.09-31,18.42-.47.26a6.21,6.21,0,0,0-2.78,5.11V65a6.34,6.34,0,0,0,2.89,5.18l.36.2,31,18.42Z"/><g id="iModel-2" data-name="iModel"><path id="iModel-3" data-name="iModel" class="cls-20" d="M86,18.59a6.58,6.58,0,1,0,6.59,6.57A6.57,6.57,0,0,0,86,18.59ZM91.4,43,86,40l-10-5.56a1.53,1.53,0,0,0-.8-.22,1.6,1.6,0,0,0-.76.2,1.54,1.54,0,0,0-.79,1.35v9A1.54,1.54,0,0,0,74.33,46l5.44,3.47v15L86,68l6.2-3.55V44.28A1.57,1.57,0,0,0,91.4,43Z"/><path class="cls-3" d="M104.54,66.48v9a1.54,1.54,0,0,1-.76,1.33l-16.87,10a1.54,1.54,0,0,1-.79.23.44.44,0,0,1-.16,0,1.31,1.31,0,0,1-.63-.21L68.14,76.73a1.54,1.54,0,0,1-.76-1.33V66.48a1.57,1.57,0,0,1,.78-1.35,1.61,1.61,0,0,1,.77-.2,1.52,1.52,0,0,1,.79.22l10,5.56V64.52L86,68l6.2-3.55v6.28l10-5.56a1.44,1.44,0,0,1,.78-.22,1.64,1.64,0,0,1,.77.2A1.55,1.55,0,0,1,104.54,66.48Z"/><path id="Shine_-_Left-2" data-name="Shine - Left" class="cls-7" d="M60.08,31.85,48.8,43.36V60.63L84.63,47.76s.6-1.46-3.65-4.06Z"/><path id="Shine_-_Edges-2" data-name="Shine - Edges" class="cls-8" d="M85.66,48.11s-.82,15.6,0,37.89C85.64,86,86.36,71.57,85.66,48.11Zm-31.89-22A298.13,298.13,0,0,0,81.31,42.35S71.22,35.45,53.77,26.1Z"/><path id="Shine_-_Top" data-name="Shine - Top" class="cls-21" d="M122,26.78V25.1a6,6,0,0,0-2.07-2.27l-.53-.29L88.4,4.12,88.29,4a6.2,6.2,0,0,0-2-.62H84.66a6,6,0,0,0-2,.61,1.19,1.19,0,0,0-.15.09l-31,18.42-.46.25A6.29,6.29,0,0,0,48.62,26v.78c3.07-3.12,4.83-1.88,4.83-1.88L80,41a10.57,10.57,0,0,0,10.89,0L117.42,24.9S120.39,23.13,122,26.78Z"/><path id="Shade-2" data-name="Shade" class="cls-9" d="M84.3,87.52a4.94,4.94,0,0,0,3.32-5.07V47.59a7.35,7.35,0,0,1,3.65-6.1c3.76-2.27,27.2-16.24,27.2-16.24a4.34,4.34,0,0,1,1.66-.34,2.12,2.12,0,0,1,2,2.37V62.39a8.73,8.73,0,0,1-4.64,8.13c-5.26,3.1-27.87,16.67-27.87,16.67S87.91,88.46,84.3,87.52Z"/></g></g><g id="Box-4" data-name="Box"><polygon class="cls-4" points="204.3 120.83 204.3 135.08 191.85 142.45 179.16 135.08 179.16 121.49 191.85 114.86 204.3 120.77 204.3 120.83"/><polygon class="cls-3" points="204.3 120.83 204.3 135.08 191.85 142.45 191.85 128.22 204.3 120.77 204.3 120.83"/><polygon class="cls-5" points="179.16 121.49 191.85 128.22 204.3 120.71 191.85 114.8 179.16 121.49"/></g><g id="Box-5" data-name="Box"><polygon class="cls-4" points="239.15 131.47 239.15 145.72 226.7 153.09 214 145.72 214 132.13 226.7 125.5 239.15 131.41 239.15 131.47"/><polygon class="cls-3" points="239.15 131.47 239.15 145.72 226.7 153.09 226.7 138.86 239.15 131.41 239.15 131.47"/><polygon class="cls-5" points="214 132.13 226.7 138.86 239.15 131.36 226.7 125.44 214 132.13"/></g><g id="Box-6" data-name="Box"><polygon class="cls-4" points="268.89 142.32 264.6 153.06 252.99 154.87 245.64 145.48 249.74 135.24 261.31 134.07 268.9 142.28 268.89 142.32"/><polygon class="cls-3" points="268.89 142.32 264.6 153.06 252.99 154.87 257.28 144.14 268.9 142.28 268.89 142.32"/><polygon class="cls-5" points="249.74 135.24 257.28 144.14 268.92 142.24 261.32 134.03 249.74 135.24"/></g><g id="Box-7" data-name="Box"><polygon class="cls-4" points="292.63 171.89 284.46 178.05 274.86 174.09 273.61 163.63 281.4 157.76 290.68 162.18 292.66 171.87 292.63 171.89"/><polygon class="cls-3" points="292.63 171.89 284.46 178.05 274.86 174.09 283.02 167.95 292.66 171.87 292.63 171.89"/><polygon class="cls-5" points="281.4 157.76 283.02 167.95 292.69 171.85 290.71 162.16 281.4 157.76"/></g></g></g></svg>