<svg id="aef31e8d-7844-428c-9498-18b1c7fcf775" data-name="Layer 1" xmlns="http://www.w3.org/2000/svg" viewBox="0 0 330 240"><rect x="267.89805" y="12.52642" width="59.55437" height="139.42493" fill="#dce0e3"/><rect x="89.68191" y="12.52642" width="163.95702" height="139.42493" fill="#dce0e3"/><rect x="89.68048" y="166.6087" width="106.32405" height="65.87193" fill="#dce0e3"/><rect x="221.53643" y="166.6087" width="106.32405" height="65.87193" fill="#dce0e3"/><rect x="6.88253" y="12.52642" width="31.40159" height="31.40159" fill="#dce0e3"/><rect x="6.88253" y="53.98304" width="71.39524" height="135.55877" fill="#dce0e3"/><rect x="46.87618" y="12.52642" width="31.40159" height="31.40159" fill="#dce0e3"/><rect x="6.88253" y="201.07712" width="31.40159" height="31.40159" fill="#dce0e3"/><rect x="46.87618" y="201.07712" width="31.40159" height="31.40159" fill="#dce0e3"/><rect x="263.15504" y="7.51936" width="59.55437" height="139.42493" fill="#eef0f3"/><rect x="84.9389" y="7.51936" width="163.95702" height="139.42493" fill="#eef0f3"/><rect x="84.93747" y="161.60164" width="106.32405" height="65.87193" fill="#eef0f3"/><polygon points="191.262 203.428 191.262 204.748 180.885 197.132 171.495 213.694 149.712 169.295 136.076 213.949 127.884 205.014 119.414 220.855 111.688 179.383 93.019 216.698 84.937 206.754 84.937 204.992 92.797 214.658 112.164 175.925 119.924 217.552 127.651 203.107 135.589 211.776 149.479 166.291 171.562 211.322 180.53 195.502 191.262 203.428" fill="#85929d"/><circle cx="111.92457" cy="177.65462" r="2.69047" fill="#f7706c" stroke="#85929d" stroke-miterlimit="10" stroke-width="0.55429"/><circle cx="149.59728" cy="167.79634" r="2.69047" fill="#f7706c" stroke="#85929d" stroke-miterlimit="10" stroke-width="0.55429"/><circle cx="119.09972" cy="218.72693" r="2.69047" fill="#85929d"/><circle cx="127.81722" cy="204.41281" r="2.69047" fill="#85929d"/><circle cx="135.83075" cy="212.86277" r="2.69047" fill="#85929d"/><circle cx="171.53105" cy="212.86277" r="2.69047" fill="#85929d"/><circle cx="180.94397" cy="197.22664" r="2.69047" fill="#85929d"/><circle cx="92.68628" cy="215.55323" r="2.69047" fill="#85929d"/><polyline points="271.053 179.803 259.575 179.803 259.575 204.413" fill="#85929d"/><rect x="216.79342" y="161.60164" width="106.32405" height="65.87193" fill="#eef0f3"/><polygon points="323.117 214.947 323.117 216.177 312.375 210.767 294.494 216.21 287.089 202.952 280.504 217.374 273.919 202.896 263.409 220.046 259.54 208.118 247.856 219.27 239.553 191.046 234.198 223.549 223.511 195.28 216.793 218.926 216.793 214.825 223.345 191.711 233.777 219.292 239.253 186.079 248.41 217.219 260.05 206.089 263.72 217.408 274.063 200.546 280.504 214.703 286.989 200.502 295.026 214.891 312.475 209.581 323.117 214.947" fill="#85929d"/><circle cx="223.25843" cy="191.84571" r="2.69047" fill="#85929d"/><circle cx="233.98942" cy="221.41739" r="2.69047" fill="#85929d"/><circle cx="239.40345" cy="187.22521" r="2.69047" fill="#85929d"/><circle cx="248.18473" cy="217.46576" r="2.69047" fill="#85929d"/><circle cx="259.57473" cy="207.10328" r="2.69047" fill="#85929d"/><circle cx="263.56244" cy="218.72693" r="2.69047" fill="#85929d"/><circle cx="273.98912" cy="201.72235" r="2.69047" fill="#85929d"/><circle cx="280.50771" cy="215.55323" r="2.69047" fill="#85929d"/><circle cx="287.03714" cy="201.72235" r="2.69047" fill="#85929d"/><circle cx="294.76039" cy="215.55323" r="2.69047" fill="#85929d"/><circle cx="312.42117" cy="210.1723" r="2.69047" fill="#85929d"/><rect x="271.05348" y="167.64219" width="46.73895" height="28.00256" fill="#fff"/><rect x="273.8205" y="170.56446" width="40.53195" height="4.47735" fill="#c7ccd1"/><rect x="273.8205" y="178.01942" width="9.08865" height="4.47735" fill="#c7ccd1"/><rect x="284.61114" y="178.01942" width="19.43203" height="4.47735" fill="#c7ccd1"/><rect x="305.7393" y="178.01942" width="8.61315" height="4.47735" fill="#c7ccd1"/><rect x="273.8205" y="183.72313" width="9.08865" height="4.47735" fill="#c7ccd1"/><rect x="284.61114" y="183.72313" width="19.43203" height="4.47735" fill="#c7ccd1"/><rect x="305.7393" y="183.72313" width="8.61315" height="4.47735" fill="#c7ccd1"/><rect x="273.8205" y="189.21161" width="9.08865" height="4.47735" fill="#c7ccd1"/><rect x="284.61114" y="189.21161" width="19.43203" height="4.47735" fill="#c7ccd1"/><rect x="305.7393" y="189.21161" width="8.61315" height="4.47735" fill="#c7ccd1"/><rect x="2.13952" y="7.51936" width="31.40159" height="31.40159" fill="#eef0f3"/><rect x="2.13952" y="48.97597" width="71.39524" height="135.55877" fill="#eef0f3"/><rect x="8.73688" y="14.11672" width="18.20687" height="18.20687" fill="#c7ccd1"/><rect x="42.13317" y="7.51936" width="31.40159" height="31.40159" fill="#eef0f3"/><rect x="48.73053" y="14.11672" width="18.20687" height="18.20687" fill="#c7ccd1"/><rect x="2.13952" y="196.07006" width="31.40159" height="31.40159" fill="#eef0f3"/><rect x="8.73688" y="202.66742" width="18.20687" height="18.20687" fill="#c7ccd1"/><rect x="42.13317" y="196.07006" width="31.40159" height="31.40159" fill="#eef0f3"/><rect x="48.73053" y="202.66742" width="18.20687" height="18.20687" fill="#313338" opacity="0.2"/><rect x="6.10602" y="53.90532" width="11.7343" height="11.7343" fill="#c7ccd1"/><rect x="23.26318" y="53.90532" width="43.67422" height="11.7343" fill="#c7ccd1"/><rect x="23.26318" y="68.9973" width="43.67422" height="11.7343" fill="#c7ccd1"/><rect x="23.26318" y="84.3971" width="43.67422" height="11.7343" fill="#c7ccd1"/><rect x="6.10602" y="107.28945" width="11.7343" height="11.7343" fill="#c7ccd1"/><rect x="23.26318" y="107.28945" width="43.67422" height="11.7343" fill="#c7ccd1"/><rect x="23.26318" y="122.38143" width="43.67422" height="11.7343" fill="#c7ccd1"/><rect x="23.26318" y="137.78123" width="43.67422" height="11.7343" fill="#c7ccd1"/><rect x="23.26318" y="154.07422" width="43.67422" height="11.7343" fill="#c7ccd1"/><rect x="23.26318" y="169.47402" width="43.67422" height="11.7343" fill="#c7ccd1"/><rect x="6.10605" y="100.74891" width="60.83122" height="1.10858" fill="#c7ccd1"/><polygon points="127.388 67.138 125.17 67.138 125.17 47.082 138.164 47.082 138.164 49.299 127.388 49.299 127.388 67.138" fill="#85929d"/><circle cx="142.02045" cy="47.77865" r="7.05332" fill="#f7706c" stroke="#85929d" stroke-miterlimit="10" stroke-width="2.21716"/><polygon points="178.254 120.764 164.152 120.764 164.152 118.547 176.036 118.547 176.036 102.109 178.254 102.109 178.254 120.764" fill="#85929d"/><circle cx="160.91824" cy="119.65544" r="7.05332" fill="#ffc335" stroke="#85929d" stroke-miterlimit="10" stroke-width="2.21716"/><rect x="163.043" y="33.30134" width="2.21716" height="37.07251" fill="#85929d"/><circle cx="164.15159" cy="33.3016" r="7.05332" fill="#f7963e" stroke="#85929d" stroke-miterlimit="10" stroke-width="2.21716"/><rect x="218.56272" y="50.88362" width="10.82788" height="67.42722" fill="#dce0e3"/><rect x="105.24576" y="54.8276" width="15.2097" height="58.67719" fill="#dce0e3"/><polygon points="130 66.556 130 101.288 122.673 105.645 122.673 62.488 130 66.556" fill="#dce0e3"/><rect x="132.27297" y="66.31248" width="7.60485" height="35.59652" fill="#dce0e3"/><rect x="142.09498" y="70.36993" width="26.89419" height="27.61472" fill="#dce0e3"/><polygon points="181.971 57.555 181.971 110.833 171.206 97.985 171.206 70.37 181.971 57.555" fill="#dce0e3"/><rect x="184.18777" y="53.31994" width="7.03953" height="62.53503" fill="#dce0e3"/><polygon points="216.337 54.839 216.337 113.516 193.444 113.516 193.444 54.839 197.446 54.839 197.446 46.292 211.248 46.292 211.248 54.839 216.337 54.839" fill="#dce0e3"/><path d="M211.23325,46.23522V54.7824h7.31458V50.82733h10.82788v67.42722H218.54783v-4.795H191.21235v2.33909h-7.03946v-2.37543L171.19145,97.92836H139.86294v3.92435H132.258v-1.972l-11.81751,7.02613v6.54167h-15.2097V54.7713h15.2097v6.42922L132.258,67.762V66.25619h7.60492v4.05744h31.32851l12.98144-15.45484V53.26365h7.03946V54.7824h6.21912V46.23522h13.80178m1.10858-1.10859H196.32289v8.54719h-4.002V52.15507h-9.25662V54.455L170.67484,69.20505H140.97152V65.14761h-9.82208v.73082l-9.60035-5.33038V53.66272H104.12223v60.89435h17.42686v-7.01964l9.60035-5.70793v1.13179h9.82208V99.03694H170.674l12.39035,14.78931v3.081h9.25662v-2.33909h25.11832v4.795h13.045V49.71875h-13.045v3.95507h-5.09742V45.12663Z" fill="#85929d"/><rect x="197.68263" y="61.44101" width="14.4117" height="4.87263" fill="#85929d"/><rect x="197.68263" y="71.59233" width="14.4117" height="4.87263" fill="#85929d"/><rect x="197.68263" y="81.74364" width="14.4117" height="4.87263" fill="#85929d"/><rect x="197.68263" y="91.89495" width="14.4117" height="4.87263" fill="#85929d"/><rect x="197.68263" y="102.04627" width="14.4117" height="4.87263" fill="#85929d"/><path d="M178.69737,85.30289H174.341a1.10859,1.10859,0,0,1,0-2.21717h4.35637a1.10859,1.10859,0,1,1,0,2.21717Z" fill="#85929d"/><path d="M179.02432,91.92514a1.15207,1.15207,0,0,1-.24142-.026l-4.68224-1.04038a1.109,1.109,0,0,1,.48067-2.16519l4.68224,1.04037a1.10874,1.10874,0,0,1-.23925,2.19118Z" fill="#85929d"/><path d="M178.54256,100.28172a1.1025,1.1025,0,0,1-.73941-.28256l-4.20157-3.76094a1.10863,1.10863,0,0,1,1.47883-1.65205l4.20157,3.761a1.10858,1.10858,0,0,1-.73942,1.9346Z" fill="#85929d"/><path d="M174.33991,79.721a1.10874,1.10874,0,0,1-.23925-2.19118l4.68224-1.04146a1.109,1.109,0,1,1,.48067,2.1652L174.58133,79.695A1.152,1.152,0,0,1,174.33991,79.721Z" fill="#85929d"/><path d="M174.341,74.08392a1.10859,1.10859,0,0,1-.73942-1.93461l4.20157-3.75986a1.10862,1.10862,0,1,1,1.47883,1.652l-4.20157,3.75987A1.10656,1.10656,0,0,1,174.341,74.08392Z" fill="#85929d"/><circle cx="292.93223" cy="77.23183" r="18.54654" fill="#fff"/><circle cx="292.93223" cy="31.96013" r="18.54654" fill="#fff"/><circle cx="292.93223" cy="122.50353" r="18.54654" fill="#fff"/><line x1="292.97535" y1="32.5869" x2="297.6646" y2="27.38766" fill="none" stroke="#85929d" stroke-linecap="round" stroke-miterlimit="10" stroke-width="2.21716"/><line x1="293.06102" y1="77.26377" x2="299.65243" y2="82.49096" fill="none" stroke="#85929d" stroke-linecap="round" stroke-miterlimit="10" stroke-width="2.21716"/><line x1="294.78369" y1="122.65939" x2="284.10464" y2="121.54696" fill="#fff"/><line x1="293.2869" y1="122.50353" x2="285.84824" y2="121.54692" fill="#dce0e3" stroke="#85929d" stroke-linecap="round" stroke-miterlimit="10" stroke-width="2.21716"/><path d="M293.42641,120.40144a2.10515,2.10515,0,1,1-2.31166,1.87566A2.10508,2.10508,0,0,1,293.42641,120.40144Z" fill="#85929d"/><path d="M293.42641,75.138a2.10516,2.10516,0,1,1-2.31166,1.87566A2.10508,2.10508,0,0,1,293.42641,75.138Z" fill="#85929d"/><path d="M293.42641,30.26711a2.10516,2.10516,0,1,1-2.31166,1.87566A2.10509,2.10509,0,0,1,293.42641,30.26711Z" fill="#85929d"/><path d="M311.47877,32.36048a18.51988,18.51988,0,0,1-6.03062,13.69082l-6.94-5.1437a10.2016,10.2016,0,1,0-15.77508-8.54712h-8.34738a18.54654,18.54654,0,0,1,37.09308,0Z" fill="#f7963e"/><path d="M297.3108,59.29892V68.09a10.20072,10.20072,0,0,0-14.57773,9.21224v.01109l-8.34738-.01109a18.54362,18.54362,0,0,1,18.54654-18.53545A17.81017,17.81017,0,0,1,297.3108,59.29892Z" fill="#b1c854"/><path d="M311.47877,122.24419a18.53993,18.53993,0,0,1-30.198,14.42251l6.16378-5.82a10.20182,10.20182,0,1,0-4.68928-9.30088h-8.35875a18.54794,18.54794,0,0,1,37.08226.69842Z" fill="#f7706c"/><circle cx="292.93223" cy="122.10317" r="18.54654" fill="none" stroke="#85929d" stroke-miterlimit="10" stroke-width="1.10858"/><circle cx="292.93223" cy="77.23183" r="18.54654" fill="none" stroke="#85929d" stroke-miterlimit="10" stroke-width="1.10858"/><circle cx="292.93223" cy="32.36095" r="18.54654" fill="none" stroke="#85929d" stroke-miterlimit="10" stroke-width="1.10858"/></svg>