<svg id="b2228ebb-2e90-403f-acb4-7a6d62579575" data-name="Layer 1" xmlns="http://www.w3.org/2000/svg" viewBox="0 0 330 240"><path d="M178.96979,14.36059a35.83575,35.83575,0,0,0-47.78834,7.19287,3.58567,3.58567,0,1,0,5.57565,4.51,28.64883,28.64883,0,0,1,37.6838-6.10308l-7.41016,9.16252,30.14463,3.65326L186.58407,4.94565Z" fill="#008be1"/><path d="M194.99053,216.34574a3.59083,3.59083,0,0,0-5.064.26451,28.65574,28.65574,0,0,1-37.95454,4.09459l7.88573-8.75625-28.47552-5.738,7.66694,28.84373,8.1-8.99423a35.76266,35.76266,0,0,0,48.10589-4.65037A3.58544,3.58544,0,0,0,194.99053,216.34574Z" fill="#56aa1c"/><rect x="226.85863" y="155.79317" width="35.66995" height="39.93076" fill="#3c434a"/><path d="M218.80851,190.8401h51.802a8.02316,8.02316,0,0,1,8.02316,8.02316v3.03714a0,0,0,0,1,0,0H210.78535a0,0,0,0,1,0,0v-3.03714A8.02316,8.02316,0,0,1,218.80851,190.8401Z" fill="#677480"/><rect x="226.9171" y="157.84347" width="35.55303" height="17.83492" fill="#2a2f34"/><path d="M329.98493,59.01088a5.7788,5.7788,0,0,0-5.785-5.6487H165.18741a5.82012,5.82012,0,0,0-5.80019,5.8002V165.07984a5.78857,5.78857,0,0,0,5.80019,5.8001H324.1999a5.73586,5.73586,0,0,0,2.12011-.39376,5.85107,5.85107,0,0,0,3.468-3.86171,5.68232,5.68232,0,0,0,.212-1.54463V59.16238A.518.518,0,0,0,329.98493,59.01088Z" fill="#677480"/><rect x="171.31757" y="61.00378" width="146.77382" height="92.04082" fill="#cdecff"/><rect x="277.07891" y="70.9325" width="32.40087" height="75.85487" fill="#a6ddff"/><rect x="183.40876" y="70.9325" width="89.20169" height="75.85487" fill="#a6ddff"/><rect x="275.32825" y="69.45027" width="32.40087" height="75.85487" fill="#fff"/><rect x="181.6581" y="69.45027" width="89.20169" height="75.85487" fill="#fff"/><polygon points="204.625 101.781 203.429 101.781 203.429 90.958 210.44 90.958 210.44 92.155 204.625 92.155 204.625 101.781" fill="#85929d"/><circle cx="212.52085" cy="91.33429" r="3.80595" fill="#f7706c" stroke="#85929d" stroke-miterlimit="10" stroke-width="1.19637"/><polygon points="232.072 130.717 224.463 130.717 224.463 129.521 230.876 129.521 230.876 120.651 232.072 120.651 232.072 130.717" fill="#85929d"/><circle cx="222.71805" cy="130.11882" r="3.80595" fill="#ffc335" stroke="#85929d" stroke-miterlimit="10" stroke-width="1.19637"/><rect x="223.86456" y="83.52238" width="1.19637" height="20.00423" fill="#85929d"/><circle cx="224.46275" cy="83.52252" r="3.80595" fill="#f7963e" stroke="#85929d" stroke-miterlimit="10" stroke-width="1.19637"/><rect x="253.82285" y="93.00973" width="5.8427" height="36.38355" fill="#dce0e3"/><rect x="192.67733" y="95.13789" width="8.20711" height="31.66205" fill="#dce0e3"/><polygon points="206.035 101.467 206.035 120.208 202.081 122.559 202.081 99.271 206.035 101.467" fill="#dce0e3"/><rect x="207.26114" y="101.3351" width="4.10356" height="19.20779" fill="#dce0e3"/><rect x="212.56107" y="103.52449" width="14.51203" height="14.90083" fill="#dce0e3"/><polygon points="234.078 96.609 234.078 125.358 228.269 118.425 228.269 103.524 234.078 96.609" fill="#dce0e3"/><rect x="235.27422" y="94.32436" width="3.79851" height="33.74373" fill="#dce0e3"/><polygon points="252.622 95.144 252.622 126.806 240.269 126.806 240.269 95.144 242.429 95.144 242.429 90.532 249.876 90.532 249.876 95.144 252.622 95.144" fill="#dce0e3"/><path d="M249.86789,90.50146v4.612h3.94693V92.97935h5.84269V129.3629h-5.84269v-2.58735H239.06467v1.26217h-3.79848v-1.28178l-7.00475-8.361H211.35666v2.11757h-4.10359v-1.0641l-6.3767,3.79129v3.52986h-8.20711v-31.662h8.20711V98.5767l6.3767,3.54053v-.81251h4.10359v2.18939h16.90478l7.00475-8.33939V94.294h3.79848v.81952h3.35582v-4.612h7.4474m.59819-.59819H241.8223v4.612h-2.15945V93.6958H234.668v1.241l-6.68532,7.9591H211.95485v-2.18938h-5.3v.39434l-5.18032-2.87625V94.50932h-9.40349v32.85843h9.40349V123.58l5.18032-3.08v.61071h5.3v-2.11757h16.02736l6.68579,7.98027v1.6625h4.99485v-1.26216h13.55378v2.58735h7.03907V92.38116h-7.03907v2.13415h-2.75055v-4.612Z" fill="#85929d"/><rect x="242.55601" y="98.70647" width="7.77651" height="2.62926" fill="#85929d"/><rect x="242.55601" y="104.18409" width="7.77651" height="2.62926" fill="#85929d"/><rect x="242.55601" y="109.66171" width="7.77651" height="2.62926" fill="#85929d"/><rect x="242.55601" y="115.13933" width="7.77651" height="2.62926" fill="#85929d"/><rect x="242.55601" y="120.61695" width="7.77651" height="2.62926" fill="#85929d"/><path d="M232.31162,111.58227h-2.35069a.59819.59819,0,1,1,0-1.19637h2.35069a.59819.59819,0,1,1,0,1.19637Z" fill="#85929d"/><path d="M232.488,115.15562a.62136.62136,0,0,1-.13027-.014l-2.52653-.56138a.59839.59839,0,0,1,.25937-1.16834l2.52653.56139a.59827.59827,0,0,1-.1291,1.18235Z" fill="#85929d"/><path d="M232.22808,119.66481a.59492.59492,0,0,1-.399-.15247l-2.26716-2.02939a.59821.59821,0,1,1,.798-.89144l2.26715,2.02939a.59819.59819,0,0,1-.399,1.04391Z" fill="#85929d"/><path d="M229.96035,108.5703a.59827.59827,0,0,1-.12911-1.18235l2.52653-.562a.59839.59839,0,0,1,.25937,1.16833l-2.52653.562A.62134.62134,0,0,1,229.96035,108.5703Z" fill="#85929d"/><path d="M229.96093,105.52854a.59819.59819,0,0,1-.399-1.0439l2.26716-2.02882a.59821.59821,0,0,1,.798.89144l-2.26715,2.02882A.5971.5971,0,0,1,229.96093,105.52854Z" fill="#85929d"/><circle cx="291.52868" cy="107.37159" r="10.43403" fill="#fff"/><circle cx="291.52868" cy="81.90235" r="10.43403" fill="#fff"/><circle cx="291.52868" cy="132.84084" r="10.43403" fill="#fff"/><line x1="291.55294" y1="82.25497" x2="294.19105" y2="79.32995" fill="none" stroke="#85929d" stroke-linecap="round" stroke-miterlimit="10" stroke-width="1.24735"/><line x1="291.60114" y1="107.38956" x2="295.30938" y2="110.33031" fill="none" stroke="#85929d" stroke-linecap="round" stroke-miterlimit="10" stroke-width="1.24735"/><line x1="292.57029" y1="132.92852" x2="286.5624" y2="132.30268" fill="#fff"/><line x1="291.72822" y1="132.84084" x2="287.54333" y2="132.30266" fill="#dce0e3" stroke="#85929d" stroke-linecap="round" stroke-miterlimit="10" stroke-width="1.24735"/><path d="M291.8067,131.65823a1.18433,1.18433,0,1,1-1.3005,1.05522A1.18429,1.18429,0,0,1,291.8067,131.65823Z" fill="#85929d"/><path d="M291.8067,106.19363a1.18433,1.18433,0,1,1-1.3005,1.05522A1.18429,1.18429,0,0,1,291.8067,106.19363Z" fill="#85929d"/><path d="M291.8067,80.94989a1.18433,1.18433,0,1,1-1.3005,1.05522A1.18428,1.18428,0,0,1,291.8067,80.94989Z" fill="#85929d"/><path d="M301.96271,82.12759A10.419,10.419,0,0,1,298.57,89.82985l-3.90435-2.89377a5.73929,5.73929,0,1,0-8.87485-4.80849h-4.69612a10.434,10.434,0,0,1,20.86806,0Z" fill="#f7963e"/><path d="M293.992,97.28279v4.94575a5.7388,5.7388,0,0,0-8.20124,5.18268v.00625l-4.69612-.00625a10.43239,10.43239,0,0,1,10.434-10.42779A10.01924,10.01924,0,0,1,293.992,97.28279Z" fill="#b1c854"/><path d="M301.96271,132.69493a10.43031,10.43031,0,0,1-16.989,8.11391l3.46765-3.27428a5.7394,5.7394,0,1,0-2.63812-5.23254h-4.70252a10.43482,10.43482,0,0,1,20.862.39291Z" fill="#f7706c"/><circle cx="291.52868" cy="132.6156" r="10.43403" fill="none" stroke="#85929d" stroke-miterlimit="10" stroke-width="0.62367"/><circle cx="291.52868" cy="107.37159" r="10.43403" fill="none" stroke="#85929d" stroke-miterlimit="10" stroke-width="0.62367"/><circle cx="291.52868" cy="82.12785" r="10.43403" fill="none" stroke="#85929d" stroke-miterlimit="10" stroke-width="0.62367"/><rect y="49.16622" width="91.37192" height="56.6085" fill="#eef0f3"/><polygon points="91.372 85.111 91.372 86.245 82.455 79.7 74.386 93.933 55.665 55.778 43.947 94.152 36.907 86.473 29.628 100.087 22.988 64.447 6.945 96.515 0 87.969 0 86.454 6.755 94.762 23.398 61.475 30.067 97.248 36.707 84.835 43.528 92.285 55.465 53.196 74.443 91.894 82.15 78.299 91.372 85.111" fill="#85929d"/><circle cx="23.19196" cy="62.9617" r="2.31211" fill="#f7706c" stroke="#85929d" stroke-miterlimit="10" stroke-width="0.47634"/><circle cx="55.56684" cy="54.48977" r="2.31211" fill="#f7706c" stroke="#85929d" stroke-miterlimit="10" stroke-width="0.47634"/><circle cx="29.35809" cy="98.25809" r="2.31211" fill="#85929d"/><circle cx="36.84965" cy="85.95694" r="2.31211" fill="#85929d"/><circle cx="43.73627" cy="93.2186" r="2.31211" fill="#85929d"/><circle cx="74.41611" cy="93.2186" r="2.31211" fill="#85929d"/><circle cx="82.50531" cy="79.78135" r="2.31211" fill="#85929d"/><circle cx="6.65911" cy="95.53071" r="2.31211" fill="#85929d"/><rect y="49.16622" width="91.37192" height="56.6085" fill="#677480" opacity="0.5"/><circle cx="23.74691" cy="62.75643" r="2.30878" fill="#ff1b4c" stroke="#313338" stroke-miterlimit="10" stroke-width="0.54928"/><circle cx="56.07513" cy="54.29671" r="2.30878" fill="#ff1b4c" stroke="#313338" stroke-miterlimit="10" stroke-width="0.54928"/><circle cx="37.38492" cy="85.71853" r="2.30878" fill="#313338"/><circle cx="44.26161" cy="92.96971" r="2.30878" fill="#313338"/><circle cx="74.89723" cy="92.96971" r="2.30878" fill="#313338"/><circle cx="82.76949" cy="79.55183" r="2.30878" fill="#313338"/><polyline points="13.792 73.724 20.634 82.184 36.95 49.554 43.597 85.205 50.546 72.214 57.464 79.767 69.278 41.094 88.1 79.465 95.972 65.567 105.032 72.214" fill="none" stroke="#313338" stroke-miterlimit="10" stroke-width="1.09855"/><circle cx="36.94966" cy="49.55368" r="2.30878" fill="#ff1b4c" stroke="#313338" stroke-miterlimit="10" stroke-width="0.54928"/><circle cx="69.27788" cy="41.09396" r="2.30878" fill="#ff1b4c" stroke="#313338" stroke-miterlimit="10" stroke-width="0.54928"/><circle cx="43.1069" cy="84.7992" r="2.30878" fill="#313338"/><circle cx="50.58767" cy="72.51578" r="2.30878" fill="#313338"/><circle cx="57.46436" cy="79.76697" r="2.30878" fill="#313338"/><circle cx="88.09998" cy="79.76697" r="2.30878" fill="#313338"/><circle cx="20.44064" cy="82.07575" r="2.30878" fill="#313338"/><polyline points="26.094 61.423 32.936 69.883 49.251 37.252 55.898 72.904 62.847 59.912 69.766 67.466 81.579 28.793 100.401 67.164 108.273 53.265 117.333 59.912" fill="none" stroke="#313338" stroke-miterlimit="10" stroke-width="1.09855"/><circle cx="49.25089" cy="37.25245" r="2.30878" fill="#ff1b4c" stroke="#313338" stroke-miterlimit="10" stroke-width="0.54928"/><circle cx="81.57911" cy="28.79273" r="2.30878" fill="#ff1b4c" stroke="#313338" stroke-miterlimit="10" stroke-width="0.54928"/><circle cx="55.40813" cy="72.49797" r="2.30878" fill="#313338"/><circle cx="62.8889" cy="60.21455" r="2.30878" fill="#313338"/><circle cx="69.76559" cy="67.46573" r="2.30878" fill="#313338"/><circle cx="32.74187" cy="69.77451" r="2.30878" fill="#313338"/><rect x="8.76634" y="40.28324" width="91.37192" height="56.6085" fill="#eef0f3"/><polygon points="100.138 76.228 100.138 77.362 91.221 70.817 83.152 85.05 64.432 46.895 52.714 85.269 45.673 77.59 38.395 91.204 31.755 55.564 15.711 87.632 8.766 79.086 8.766 77.571 15.521 85.879 32.164 52.592 38.833 88.365 45.473 75.952 52.294 83.402 64.232 44.313 83.209 83.011 90.916 69.416 100.138 76.228" fill="#85929d"/><circle cx="31.9583" cy="54.07872" r="2.31211" fill="#f7706c" stroke="#85929d" stroke-miterlimit="10" stroke-width="0.47634"/><circle cx="64.33318" cy="45.60679" r="2.31211" fill="#f7706c" stroke="#85929d" stroke-miterlimit="10" stroke-width="0.47634"/><circle cx="38.12443" cy="89.37512" r="2.31211" fill="#85929d"/><circle cx="45.616" cy="77.07396" r="2.31211" fill="#85929d"/><circle cx="52.50261" cy="84.33562" r="2.31211" fill="#85929d"/><circle cx="83.18245" cy="84.33562" r="2.31211" fill="#85929d"/><circle cx="91.27165" cy="70.89837" r="2.31211" fill="#85929d"/><circle cx="15.42545" cy="86.64773" r="2.31211" fill="#85929d"/><rect x="8.76634" y="40.28324" width="91.37192" height="56.6085" fill="#677480" opacity="0.25"/><rect x="17.3885" y="32.1434" width="91.37192" height="56.6085" fill="#eef0f3"/><polygon points="108.76 68.088 108.76 69.222 99.843 62.677 91.774 76.91 73.054 38.755 61.336 77.129 54.295 69.451 47.017 83.064 40.377 47.424 24.334 79.492 17.388 70.946 17.388 69.431 24.143 77.739 40.786 44.452 47.455 80.225 54.095 67.812 60.917 75.262 72.854 36.173 91.831 74.871 99.538 61.276 108.76 68.088" fill="#85929d"/><circle cx="40.58046" cy="45.93888" r="2.31211" fill="#f7706c" stroke="#85929d" stroke-miterlimit="10" stroke-width="0.47634"/><circle cx="72.95533" cy="37.46695" r="2.31211" fill="#f7706c" stroke="#85929d" stroke-miterlimit="10" stroke-width="0.47634"/><circle cx="46.74658" cy="81.23528" r="2.31211" fill="#85929d"/><circle cx="54.23815" cy="68.93412" r="2.31211" fill="#85929d"/><circle cx="61.12476" cy="76.19578" r="2.31211" fill="#85929d"/><circle cx="91.8046" cy="76.19578" r="2.31211" fill="#85929d"/><circle cx="99.8938" cy="62.75853" r="2.31211" fill="#85929d"/><circle cx="24.04761" cy="78.50789" r="2.31211" fill="#85929d"/><rect x="17.3885" y="32.1434" width="91.37192" height="56.6085" fill="#677480" opacity="0.15"/><rect x="25.9007" y="22.88979" width="91.37192" height="56.6085" fill="#fff" stroke="#dce0e3" stroke-miterlimit="10" stroke-width="1.09855"/><polygon points="116.727 58.427 116.727 59.56 108.355 53.423 100.286 67.656 81.566 29.501 69.848 67.876 62.808 60.197 55.529 73.811 48.889 38.171 32.846 70.238 26.471 62.401 26.471 60.886 32.655 68.485 49.299 35.199 55.967 70.972 62.608 58.558 69.429 66.008 81.366 26.92 100.343 65.618 108.051 52.023 116.727 58.427" fill="#85929d"/><circle cx="49.09266" cy="36.68527" r="2.31211" fill="#f7706c" stroke="#85929d" stroke-miterlimit="10" stroke-width="0.47634"/><circle cx="81.46753" cy="28.21334" r="2.31211" fill="#f7706c" stroke="#85929d" stroke-miterlimit="10" stroke-width="0.47634"/><circle cx="55.25878" cy="71.98166" r="2.31211" fill="#85929d"/><circle cx="62.75035" cy="59.68051" r="2.31211" fill="#85929d"/><circle cx="69.63696" cy="66.94217" r="2.31211" fill="#85929d"/><circle cx="100.3168" cy="66.94217" r="2.31211" fill="#85929d"/><circle cx="108.406" cy="53.50492" r="2.31211" fill="#85929d"/><circle cx="32.5598" cy="69.25428" r="2.31211" fill="#85929d"/><rect x="25.70188" y="166.32941" width="91.37187" height="56.60847" fill="#fff"/><polygon points="117.074 212.173 117.074 213.23 107.842 208.581 92.475 213.259 86.112 201.865 80.453 214.259 74.794 201.817 65.762 216.555 62.437 206.304 52.396 215.888 45.26 191.633 40.659 219.565 31.475 195.272 25.702 214.055 25.702 212.068 31.332 192.204 40.297 215.907 45.003 187.365 52.872 214.126 62.876 204.561 66.029 214.288 74.918 199.797 80.453 211.963 86.026 199.759 92.933 212.125 107.928 207.562 117.074 212.173" fill="#85929d"/><circle cx="31.25772" cy="192.32031" r="2.31211" fill="#85929d"/><circle cx="40.47963" cy="217.73337" r="2.31211" fill="#85929d"/><circle cx="45.1323" cy="188.34958" r="2.31211" fill="#85929d"/><circle cx="52.67867" cy="214.33745" r="2.31211" fill="#85929d"/><circle cx="62.46692" cy="205.43223" r="2.31211" fill="#85929d"/><circle cx="65.89384" cy="215.42126" r="2.31211" fill="#85929d"/><circle cx="74.85423" cy="200.80801" r="2.31211" fill="#85929d"/><circle cx="80.45613" cy="212.69388" r="2.31211" fill="#85929d"/><circle cx="86.06733" cy="200.80801" r="2.31211" fill="#85929d"/><circle cx="92.70447" cy="212.69388" r="2.31211" fill="#85929d"/><circle cx="107.88165" cy="208.06966" r="2.31211" fill="#85929d"/><rect x="72.33143" y="171.52049" width="40.16613" height="24.06461" fill="none" stroke="#c7ccd1" stroke-miterlimit="10" stroke-width="1.09153"/><rect x="74.70933" y="174.03181" width="34.832" height="3.84771" fill="#c7ccd1"/><rect x="74.70933" y="180.43839" width="7.81052" height="3.84771" fill="#c7ccd1"/><rect x="83.9825" y="180.43839" width="16.69934" height="3.84771" fill="#c7ccd1"/><rect x="102.13944" y="180.43839" width="7.4019" height="3.84771" fill="#c7ccd1"/><rect x="74.70933" y="185.34" width="7.81052" height="3.84771" fill="#c7ccd1"/><rect x="83.9825" y="185.34" width="16.69934" height="3.84771" fill="#c7ccd1"/><rect x="102.13944" y="185.34" width="7.4019" height="3.84771" fill="#c7ccd1"/><rect x="74.70933" y="190.05664" width="7.81052" height="3.84771" fill="#c7ccd1"/><rect x="83.9825" y="190.05664" width="16.69934" height="3.84771" fill="#c7ccd1"/><rect x="102.13944" y="190.05664" width="7.4019" height="3.84771" fill="#c7ccd1"/><rect x="25.70188" y="166.32941" width="91.37187" height="56.60847" fill="#677480" opacity="0.5"/><rect x="16.93553" y="157.44644" width="91.37187" height="56.60847" fill="#fff"/><polygon points="108.307 203.29 108.307 204.347 99.076 199.698 83.709 204.376 77.345 192.982 71.686 205.376 66.027 192.934 56.996 207.672 53.671 197.421 43.63 207.005 36.494 182.75 31.893 210.682 22.709 186.389 16.936 205.432 16.936 203.185 22.566 183.321 31.531 207.024 36.237 178.482 44.106 205.243 54.109 195.678 57.263 205.405 66.151 190.914 71.686 203.08 77.259 190.876 84.166 203.242 99.162 198.679 108.307 203.29" fill="#85929d"/><circle cx="22.49138" cy="183.43733" r="2.31211" fill="#85929d"/><circle cx="31.71329" cy="208.85039" r="2.31211" fill="#85929d"/><circle cx="36.36596" cy="179.4666" r="2.31211" fill="#85929d"/><circle cx="43.91233" cy="205.45447" r="2.31211" fill="#85929d"/><circle cx="53.70058" cy="196.54925" r="2.31211" fill="#85929d"/><circle cx="57.1275" cy="206.53828" r="2.31211" fill="#85929d"/><circle cx="66.08789" cy="191.92503" r="2.31211" fill="#85929d"/><circle cx="71.68979" cy="203.8109" r="2.31211" fill="#85929d"/><circle cx="77.30099" cy="191.92503" r="2.31211" fill="#85929d"/><circle cx="83.93813" cy="203.8109" r="2.31211" fill="#85929d"/><circle cx="99.1153" cy="199.18668" r="2.31211" fill="#85929d"/><rect x="63.56509" y="162.63752" width="40.16613" height="24.06461" fill="none" stroke="#c7ccd1" stroke-miterlimit="10" stroke-width="1.09153"/><rect x="65.94299" y="165.14883" width="34.832" height="3.84771" fill="#c7ccd1"/><rect x="65.94299" y="171.55541" width="7.81052" height="3.84771" fill="#c7ccd1"/><rect x="75.21616" y="171.55541" width="16.69934" height="3.84771" fill="#c7ccd1"/><rect x="93.3731" y="171.55541" width="7.4019" height="3.84771" fill="#c7ccd1"/><rect x="65.94299" y="176.45702" width="7.81052" height="3.84771" fill="#c7ccd1"/><rect x="75.21616" y="176.45702" width="16.69934" height="3.84771" fill="#c7ccd1"/><rect x="93.3731" y="176.45702" width="7.4019" height="3.84771" fill="#c7ccd1"/><rect x="65.94299" y="181.17366" width="7.81052" height="3.84771" fill="#c7ccd1"/><rect x="75.21616" y="181.17366" width="16.69934" height="3.84771" fill="#c7ccd1"/><rect x="93.3731" y="181.17366" width="7.4019" height="3.84771" fill="#c7ccd1"/><rect x="16.93553" y="157.44644" width="91.37187" height="56.60847" fill="#677480" opacity="0.25"/><rect x="8.16607" y="149.32244" width="91.37187" height="56.60847" fill="#fff"/><polygon points="99.538 195.166 99.538 196.223 90.306 191.574 74.94 196.252 68.576 184.858 62.917 197.252 57.258 184.81 48.226 199.548 44.901 189.297 34.86 198.881 27.725 174.626 23.123 202.558 13.939 178.265 8.166 196.549 8.166 195.061 13.796 175.197 22.761 198.9 27.467 170.358 35.337 197.119 45.34 187.554 48.493 197.281 57.382 182.79 62.917 194.956 68.49 182.752 75.397 195.118 90.392 190.555 99.538 195.166" fill="#85929d"/><circle cx="13.72191" cy="175.31333" r="2.31211" fill="#85929d"/><circle cx="22.94382" cy="200.7264" r="2.31211" fill="#85929d"/><circle cx="27.59649" cy="171.34261" r="2.31211" fill="#85929d"/><circle cx="35.14286" cy="197.33048" r="2.31211" fill="#85929d"/><circle cx="44.93111" cy="188.42525" r="2.31211" fill="#85929d"/><circle cx="48.35803" cy="198.41429" r="2.31211" fill="#85929d"/><circle cx="57.31842" cy="183.80103" r="2.31211" fill="#85929d"/><circle cx="62.92032" cy="195.68691" r="2.31211" fill="#85929d"/><circle cx="68.53152" cy="183.80103" r="2.31211" fill="#85929d"/><circle cx="75.16866" cy="195.68691" r="2.31211" fill="#85929d"/><circle cx="90.34584" cy="191.06269" r="2.31211" fill="#85929d"/><rect x="54.79562" y="154.51352" width="40.16613" height="24.06461" fill="none" stroke="#c7ccd1" stroke-miterlimit="10" stroke-width="1.09153"/><rect x="57.17352" y="157.02484" width="34.832" height="3.84771" fill="#c7ccd1"/><rect x="57.17352" y="163.43141" width="7.81052" height="3.84771" fill="#c7ccd1"/><rect x="66.44669" y="163.43141" width="16.69934" height="3.84771" fill="#c7ccd1"/><rect x="84.60363" y="163.43141" width="7.4019" height="3.84771" fill="#c7ccd1"/><rect x="57.17352" y="168.33302" width="7.81052" height="3.84771" fill="#c7ccd1"/><rect x="66.44669" y="168.33302" width="16.69934" height="3.84771" fill="#c7ccd1"/><rect x="84.60363" y="168.33302" width="7.4019" height="3.84771" fill="#c7ccd1"/><rect x="57.17352" y="173.04967" width="7.81052" height="3.84771" fill="#c7ccd1"/><rect x="66.44669" y="173.04967" width="16.69934" height="3.84771" fill="#c7ccd1"/><rect x="84.60363" y="173.04967" width="7.4019" height="3.84771" fill="#c7ccd1"/><rect x="8.16607" y="149.32244" width="91.37187" height="56.60847" fill="#677480" opacity="0.15"/><rect x="0.25936" y="139.74644" width="91.37187" height="56.60847" fill="#fff" stroke="#eef0f3" stroke-miterlimit="10" stroke-width="1.09153"/><polygon points="91.106 185.34 91.106 186.397 82.4 181.998 67.033 186.676 60.669 175.282 55.01 187.676 49.351 175.234 40.32 189.972 36.995 179.721 26.954 189.305 19.818 165.05 15.217 192.982 6.033 168.689 0.735 188.221 0.735 184.696 5.89 165.621 14.854 189.324 19.561 160.782 27.43 187.543 37.433 177.978 40.586 187.705 49.475 173.214 55.01 185.38 60.583 173.176 67.49 185.542 82.485 180.979 91.106 185.34" fill="#85929d"/><circle cx="5.81521" cy="165.73734" r="2.31211" fill="#85929d"/><circle cx="15.03712" cy="191.1504" r="2.31211" fill="#85929d"/><circle cx="19.68978" cy="161.76661" r="2.31211" fill="#85929d"/><circle cx="27.23616" cy="187.75448" r="2.31211" fill="#85929d"/><circle cx="37.02441" cy="178.84926" r="2.31211" fill="#85929d"/><circle cx="40.45133" cy="188.83829" r="2.31211" fill="#85929d"/><circle cx="49.41172" cy="174.22504" r="2.31211" fill="#85929d"/><circle cx="55.01362" cy="186.11091" r="2.31211" fill="#85929d"/><circle cx="60.62482" cy="174.22504" r="2.31211" fill="#85929d"/><circle cx="67.26196" cy="186.11091" r="2.31211" fill="#85929d"/><circle cx="82.43913" cy="181.48669" r="2.31211" fill="#85929d"/><rect x="46.88891" y="144.93752" width="40.16613" height="24.06461" fill="none" stroke="#c7ccd1" stroke-miterlimit="10" stroke-width="1.09153"/><rect x="49.26682" y="147.44884" width="34.832" height="3.84771" fill="#c7ccd1"/><rect x="49.26682" y="153.85542" width="7.81052" height="3.84771" fill="#c7ccd1"/><rect x="58.53998" y="153.85542" width="16.69934" height="3.84771" fill="#c7ccd1"/><rect x="76.69692" y="153.85542" width="7.4019" height="3.84771" fill="#c7ccd1"/><rect x="49.26682" y="158.75702" width="7.81052" height="3.84771" fill="#c7ccd1"/><rect x="58.53998" y="158.75702" width="16.69934" height="3.84771" fill="#c7ccd1"/><rect x="76.69692" y="158.75702" width="7.4019" height="3.84771" fill="#c7ccd1"/><rect x="49.26682" y="163.47367" width="7.81052" height="3.84771" fill="#c7ccd1"/><rect x="58.53998" y="163.47367" width="16.69934" height="3.84771" fill="#c7ccd1"/><rect x="76.69692" y="163.47367" width="7.4019" height="3.84771" fill="#c7ccd1"/></svg>