<svg xmlns="http://www.w3.org/2000/svg" xmlns:xlink="http://www.w3.org/1999/xlink" viewBox="0 0 330 240"><defs><linearGradient id="b3e50c2c-4888-4d53-89cd-b37f12788648" x1="165.3097" y1="156.45576" x2="165.3097" y2="92.17322" gradientUnits="userSpaceOnUse"><stop offset="0" stop-color="#56aa1c"/><stop offset="1" stop-color="#67cc22"/></linearGradient><linearGradient id="f999e9e6-5a39-4a3b-8eb7-6b532b0dbc11" x1="199.2084" y1="23.65147" x2="199.2084" y2="63.32889" gradientUnits="userSpaceOnUse"><stop offset="0" stop-color="#eef0f3"/><stop offset="0.68801" stop-color="#dce0e3"/></linearGradient><linearGradient id="f12d04c5-28a0-4d1f-af41-b3b139ca14c8" x1="202.60266" y1="27.8305" x2="202.60266" y2="63.0712" gradientUnits="userSpaceOnUse"><stop offset="0" stop-color="#2a2f34"/><stop offset="1" stop-color="#070809"/></linearGradient><linearGradient id="bf90b62d-78d5-4cb7-9271-bd831cc8f395" x1="202.53737" y1="28.04673" x2="202.53737" y2="62.77331" gradientUnits="userSpaceOnUse"><stop offset="0.357" stop-color="#dce0e3"/><stop offset="1" stop-color="#eef0f3"/></linearGradient><linearGradient id="ecc52512-e560-45e0-a915-b4a2dc04e714" x1="197.97124" y1="57.3209" x2="215.38032" y2="67.37204" gradientUnits="userSpaceOnUse"><stop offset="0.13141" stop-color="#56aa1c"/><stop offset="0.60066" stop-color="#008be1"/></linearGradient><linearGradient id="a09006ae-425e-467a-9ed3-99c49d907e88" x1="217.68825" y1="35.8708" x2="217.68825" y2="72.5311" xlink:href="#f999e9e6-5a39-4a3b-8eb7-6b532b0dbc11"/><linearGradient id="a84d844f-4e0e-4746-99b2-d75dbedd46c2" x1="218.43882" y1="36.97375" x2="218.43882" y2="72.21445" gradientUnits="userSpaceOnUse"><stop offset="0" stop-color="#7fccc5"/><stop offset="1" stop-color="#388ecc"/></linearGradient><linearGradient id="a94bb279-907d-4af4-8811-90c2220bce29" x1="217.89925" y1="37.63721" x2="217.89925" y2="71.2058" gradientUnits="userSpaceOnUse"><stop offset="0" stop-color="#fff"/><stop offset="1" stop-color="#fff" stop-opacity="0"/></linearGradient><linearGradient id="f5be0717-f665-4c08-9920-367af78efc7e" x1="218.32907" y1="37.23081" x2="218.32907" y2="71.95738" xlink:href="#bf90b62d-78d5-4cb7-9271-bd831cc8f395"/><clipPath id="b02d0b03-f098-46c5-b214-b4fca021d47b"><line x1="135.88757" y1="195.89142" x2="139.03882" y2="199.04267" fill="none"/></clipPath><linearGradient id="e850b894-c7f9-4ebc-b9de-07f12e2513c1" x1="109.82338" y1="193.44247" x2="98.79637" y2="193.44247" gradientUnits="userSpaceOnUse"><stop offset="0" stop-color="#eff8ff" stop-opacity="0"/><stop offset="0.00738" stop-color="#eff8ff" stop-opacity="0.03619"/><stop offset="0.04768" stop-color="#eff8ff" stop-opacity="0.21583"/><stop offset="0.09309" stop-color="#eff8ff" stop-opacity="0.38512"/><stop offset="0.1419" stop-color="#eff8ff" stop-opacity="0.53312"/><stop offset="0.19502" stop-color="#eff8ff" stop-opacity="0.66033"/><stop offset="0.25374" stop-color="#eff8ff" stop-opacity="0.76701"/><stop offset="0.32001" stop-color="#eff8ff" stop-opacity="0.85333"/><stop offset="0.39742" stop-color="#eff8ff" stop-opacity="0.91964"/><stop offset="0.49311" stop-color="#eff8ff" stop-opacity="0.96601"/><stop offset="0.62736" stop-color="#eff8ff" stop-opacity="0.99265"/><stop offset="1" stop-color="#eff8ff"/></linearGradient></defs><g style="isolation:isolate"><g id="b6ec2bc7-009c-45d2-9648-ec077786c2d9" data-name="Layer 1"><path d="M130.13517,136.97144v-35.2883a5.8405,5.8405,0,0,1,2.61272-4.80024c.14665-.07865.29437-.15472.438-.24011l29.054-17.2847c.04557-.02633.08835-.05656.13348-.08356a5.85149,5.85149,0,0,1,5.28369.0152c.03493.02213.06787.04655.10307.06836l29.054,17.2847c.16177.09621.3278.18292.49343.27052a5.51832,5.51832,0,0,1,2.55725,4.62574v35.43239a5.83806,5.83806,0,0,1-2.62132,4.80484c-.14368.07723-.2886.15175-.42936.2355l-29.054,17.28354c-.0477.02758-.09252.05923-.13973.08752a5.85046,5.85046,0,0,1-5.23785.00146c-.04819-.02886-.09394-.06078-.14266-.089l-29.054-17.28354c-.1103-.06561-.22428-.12289-.3364-.18452A5.96449,5.96449,0,0,1,130.13517,136.97144Z" fill="#eff8ff" fill-rule="evenodd"/><path id="a17c98d4-e93c-4e74-aac2-4e77fc614ec2" data-name="Center Honeycomb" d="M162.38254,160.05717a5.85046,5.85046,0,0,0,5.23785-.00146c.04721-.02829.092-.05994.13973-.08752l29.054-17.28354c.14076-.08375.28568-.15827.42936-.2355a5.83806,5.83806,0,0,0,2.62132-4.80485V102.21192a5.51832,5.51832,0,0,0-2.55725-4.62574c-.16563-.0876-.33166-.17432-.49343-.27052l-29.054-17.2847c-.0352-.02181-.06814-.04624-.10307-.06836a5.85149,5.85149,0,0,0-5.28369-.0152c-.04513.027-.08791.05723-.13348.08356l-29.054,17.2847c-.14359.08539-.29131.16146-.438.24011a5.84049,5.84049,0,0,0-2.61272,4.80024V137.6443a5.96449,5.96449,0,0,0,2.71428,4.85583c.11212.06163.2261.11891.3364.18452l29.054,17.28354C162.2886,159.99639,162.33435,160.02831,162.38254,160.05717Z" fill="#fafdff" fill-rule="evenodd"/><g id="b2b68269-fb52-49fb-9221-9ab99166b7f5" data-name="iModel"><path id="aeca4d84-eea1-40b5-91ce-cae9684bd4f6" data-name="iModel" d="M165.3097,92.17322a6.17409,6.17409,0,1,1-6.174,6.17406A6.174,6.174,0,0,1,165.3097,92.17322Zm17.43241,53.39927a1.45138,1.45138,0,0,1-.7095,1.24758l-15.83444,9.43115a1.45119,1.45119,0,0,1-1.48176.00233l-16.125-9.52181a1.45229,1.45229,0,0,1-.71415-1.25106v-8.37243a1.4522,1.4522,0,0,1,2.19532-1.24816l9.42629,5.22166V121.14822l-5.10072-3.25005a1.45258,1.45258,0,0,1-.71008-1.24875v-8.40148a1.45295,1.45295,0,0,1,2.19822-1.247l14.527,8.03707a1.45219,1.45219,0,0,1,.70717,1.24649v24.79725l9.42629-5.22166a1.45241,1.45241,0,0,1,2.19532,1.24816Z" fill="url(#b3e50c2c-4888-4d53-89cd-b37f12788648)"/><path id="b33f7de9-0b32-4a01-bc66-f7a66b4894c2" data-name="Shine - Left" d="M141.02882,105.83115l-10.584,10.79678v16.19518l33.61966-12.067s.559-1.37648-3.42423-3.81063Z" fill="#fff" fill-rule="evenodd" opacity="0.3"/><path id="b13e6b2a-37ac-4701-853a-9a9b804ddc7e" data-name="Shine - Edges" d="M165.02959,121.078s-.76356,14.63529-.01916,35.55617C165.01043,156.63421,165.68441,143.09276,165.02959,121.078Zm-29.91534-20.64528a280.30565,280.30565,0,0,0,25.83733,15.24252S151.48653,109.20762,135.11425,100.43276Z" fill="#fff" fill-rule="evenodd" opacity="0.45"/><path id="e4868fea-7199-41ba-861b-e82f8f100772" data-name="Shine - Top" d="M199.552,101.06785l.00319-1.5751a5.57337,5.57337,0,0,0-1.93788-2.13175c-.16563-.0876-.33165-.17432-.49342-.27052l-29.054-17.2847c-.0352-.02181-.06814-.04624-.10307-.06836a5.87734,5.87734,0,0,0-1.913-.58781l-1.48728.00031a5.88167,5.88167,0,0,0-1.88344.57229c-.04513.027-.08791.05724-.13349.08357l-29.054,17.2847c-.1436.08538-.29131.16146-.438.2401a5.82272,5.82272,0,0,0-2.30141,3.01207v.7252c2.87193-2.92965,4.52732-1.76325,4.52732-1.76325l24.90345,15.11256a9.906,9.906,0,0,0,10.21054,0L195.30091,99.3046S198.08568,97.641,199.552,101.06785Z" fill="#fff" fill-rule="evenodd" opacity="0.1"/><path id="e3659ed3-0672-483e-92db-8b194619f14e" data-name="Shade" d="M164.35715,159.18a4.64269,4.64269,0,0,0,3.11293-4.76328V121.70877a6.8811,6.8811,0,0,1,3.42423-5.71594c3.52706-2.13462,25.526-15.24252,25.526-15.24252a4.06324,4.06324,0,0,1,1.55647-.31755,1.99044,1.99044,0,0,1,1.86776,2.22287v32.94606a7.22185,7.22185,0,0,1-3.52437,7.3768c-4.91618,2.93672-26.98236,15.88392-26.98236,15.88392S167.74959,160.05571,164.35715,159.18Z" fill-rule="evenodd" opacity="0.05"/></g><path d="M91.05751,70.77593l29.054,17.28355c.04872.0282.09447.06011.14266.089a5.85051,5.85051,0,0,0,5.23785-.00147c.04721-.02828.092-.05994.13974-.08751l29.054-17.28355c.14076-.08374.28568-.15826.42937-.23549a5.83808,5.83808,0,0,0,2.62131-4.80485V30.30321a5.51832,5.51832,0,0,0-2.55725-4.62574c-.16563-.0876-.33166-.17432-.49343-.27052l-29.054-17.2847c-.0352-.02181-.06814-.04624-.10308-.06836a5.85151,5.85151,0,0,0-5.28368-.01521c-.04514.027-.08792.05724-.13349.08357l-29.054,17.2847c-.14359.08538-.29131.16146-.438.24011a5.84051,5.84051,0,0,0-2.61272,4.80023v35.2883a5.96449,5.96449,0,0,0,2.71428,4.85583C90.83323,70.653,90.94721,70.71032,91.05751,70.77593Z" fill="#eff8ff" fill-rule="evenodd"/><path d="M172.26351,209.553v-35.2883a5.84053,5.84053,0,0,1,2.61271-4.80024c.14666-.07864.29437-.15472.438-.2401l29.054-17.2847c.04558-.02634.08836-.05657.13349-.08357a5.85153,5.85153,0,0,1,5.28369.01521c.03493.02212.06787.04655.10307.06836l29.054,17.2847c.16177.0962.32779.18291.49342.27052a5.51831,5.51831,0,0,1,2.55726,4.62574V209.553a5.83806,5.83806,0,0,1-2.62132,4.80485c-.14368.07722-.28861.15175-.42936.23549l-29.054,17.28355c-.0477.02757-.09252.05923-.13974.08751a5.85044,5.85044,0,0,1-5.23784.00146c-.04819-.02886-.09394-.06078-.14267-.089l-29.054-17.28355c-.1103-.06561-.22428-.12289-.3364-.18451A5.96448,5.96448,0,0,1,172.26351,209.553Z" fill="#eff8ff" fill-rule="evenodd"/><path d="M157.739,174.11839v35.43136a5.84255,5.84255,0,0,1-2.62211,4.80844c-.14533.07989-.29056.15255-.42853.23244l-29.054,17.28714c-.0509.02908-.09443.05812-.14524.08715a5.8613,5.8613,0,0,1-5.237,0c-.04353-.029-.09442-.05807-.13805-.08715L91.06,214.59063c-.11616-.06539-.22513-.12347-.34137-.18159a5.97779,5.97779,0,0,1-2.70927-4.85929V174.26363a5.8539,5.8539,0,0,1,2.60766-4.80117c.15251-.07989.29774-.15255.443-.23971l29.054-17.27986.13078-.08716a5.832,5.832,0,0,1,5.28059.01454c.03626.02177.07261.05085.109.07262l29.054,17.27986c.15978.09443.32683.18159.49387.26875A5.53789,5.53789,0,0,1,157.739,174.11839Z" fill="#eff8ff" fill-rule="evenodd"/><path d="M87.75848,80.32521A5.85145,5.85145,0,0,0,82.47479,80.31c-.04513.027-.08791.05723-.13348.08357L53.28723,97.67827c-.14355.08534-.29126.16141-.43783.24a5.84048,5.84048,0,0,0-2.6128,4.80033v35.2883a5.96455,5.96455,0,0,0,2.71428,4.85583c.11207.06162.2261.1189.33635.18451L82.34131,160.3308c.04872.02819.09447.06011.14266.089a5.85044,5.85044,0,0,0,5.23784-.00146c.04722-.02828.092-.05994.13974-.08751l29.054-17.28355c.14076-.08374.28568-.15827.42936-.2355a5.838,5.838,0,0,0,2.62132-4.80484V102.57453a5.51834,5.51834,0,0,0-2.55726-4.62575c-.16562-.0876-.33165-.17431-.49342-.27051l-29.054-17.2847C87.82635,80.37176,87.79341,80.34733,87.75848,80.32521Z" fill="#eff8ff" fill-rule="evenodd"/><path d="M242.28111,160.05717a5.85046,5.85046,0,0,0,5.23785-.00146c.04721-.02829.092-.05994.13973-.08752l29.054-17.28354c.14076-.08375.28568-.15827.42937-.2355a5.83808,5.83808,0,0,0,2.62131-4.80485V102.21192a5.51832,5.51832,0,0,0-2.55725-4.62574c-.16563-.0876-.33166-.17432-.49343-.27052l-29.054-17.2847c-.0352-.02181-.06813-.04624-.10307-.06836a5.85149,5.85149,0,0,0-5.28369-.0152c-.04513.027-.08791.05723-.13348.08356l-29.054,17.2847c-.14359.08539-.29131.16146-.438.24011a5.84051,5.84051,0,0,0-2.61272,4.80024V137.6443a5.96449,5.96449,0,0,0,2.71428,4.85583c.11212.06163.2261.11891.3364.18452l29.054,17.28354C242.18717,159.99639,242.23292,160.02831,242.28111,160.05717Z" fill="#eff8ff" fill-rule="evenodd"/><path d="M255.69434,143.09159a7.15356,7.15356,0,0,1-6.66748-4.44532H248.709a6.58775,6.58775,0,0,1-6.58056-6.58008V107.93387a1.04153,1.04153,0,0,0-1.04-1.04h-.31787a7.21533,7.21533,0,1,1,0-5.54h.31787a6.58734,6.58734,0,0,1,6.58008,6.58008v8.25586a1.04162,1.04162,0,0,0,1.04052,1.04h.31788a7.21558,7.21558,0,1,1,0,5.54053H248.709a6.59207,6.59207,0,0,1-1.04052-.082v9.37793a1.04162,1.04162,0,0,0,1.04052,1.04h.31788a7.21735,7.21735,0,1,1,6.66748,9.98536Z" fill="#fff"/><path d="M255.69434,129.66092a6.17875,6.17875,0,0,0-5.96,4.44531H248.709a2.04261,2.04261,0,0,1-2.04052-2.04V121.38455a5.58884,5.58884,0,0,0,2.04052.38575h1.02539a6.21558,6.21558,0,1,0,0-3.54053H248.709a2.04261,2.04261,0,0,1-2.04052-2.04v-8.25586a5.58667,5.58667,0,0,0-5.58008-5.58008H240.063a6.21533,6.21533,0,1,0,0,3.54h1.02539a2.0422,2.0422,0,0,1,2.04,2.04v24.13232a5.58677,5.58677,0,0,0,5.58056,5.58008h1.02539a6.21619,6.21619,0,1,0,5.96-7.98535Z" fill="#fff"/><path d="M175.31419,70.77593l29.054,17.28355c.04873.0282.09448.06011.14267.089a5.85048,5.85048,0,0,0,5.23784-.00147c.04722-.02828.092-.05994.13974-.08751l29.054-17.28355c.14075-.08374.28568-.15826.42936-.23549a5.83806,5.83806,0,0,0,2.62132-4.80485V30.30321a5.51831,5.51831,0,0,0-2.55726-4.62574c-.16563-.0876-.33165-.17432-.49342-.27052l-29.054-17.2847c-.0352-.02181-.06814-.04624-.10307-.06836a5.85153,5.85153,0,0,0-5.28369-.01521c-.04513.027-.08791.05724-.13349.08357l-29.054,17.2847c-.1436.08538-.29131.16146-.438.24011a5.8405,5.8405,0,0,0-2.61271,4.80023v35.2883a5.96447,5.96447,0,0,0,2.71428,4.85583C175.08991,70.653,175.20389,70.71032,175.31419,70.77593Z" fill="#eff8ff" fill-rule="evenodd"/><path d="M208.6324,73.53055a2.78977,2.78977,0,0,1-.40966-.0293h-.14991l-.104-.05029a2.45118,2.45118,0,0,1-.45166-.167l-.0459-.01319-.13525-.07324-1.52051-.92041a2.67967,2.67967,0,0,1-1.23682-2.42578v-2.124l-8.36816-4.78125-1.54.85791a4.96281,4.96281,0,0,1-.64844.2876l-.15234.05419a3.721,3.721,0,0,1-.70313.15577l-.12988.01074c-.10938.01074-.17871.01611-.24414.01611a2.78864,2.78864,0,0,1-.40967-.0293h-.07812l-.09912-.03173a2.40642,2.40642,0,0,1-.52784-.18506l-.0459-.01319-.13574-.07373-6.78369-3.92773a2.685,2.685,0,0,1-1.25342-2.43555V38.04569a7.11534,7.11534,0,0,1,3.52881-5.57373l16.59424-9.28125a3.76909,3.76909,0,0,1,1.85693-.53907,3.231,3.231,0,0,1,1.541.40625l6.51416,3.77.07129.05127a2.45831,2.45831,0,0,1,1.1875,1.54737c.01269.04248.02588.10107.03857.15966a3.59648,3.59648,0,0,1,.07813.59815l.00439.02392.002,11.69727,9.82568-5.49561a3.77056,3.77056,0,0,1,1.85693-.53906,3.23348,3.23348,0,0,1,1.54151.40674l1.24463.76074.05957.043a2.45488,2.45488,0,0,1,1.18847,1.54785c.01221.04151.02637.10254.04.16455a3.55289,3.55289,0,0,1,.07666.59278l.0044.02343.00195,19.69825a7.1135,7.1135,0,0,1-3.52881,5.57861l-16.666,9.31445a4.93243,4.93243,0,0,1-.66064.293l-.15088.05371a3.72013,3.72013,0,0,1-.70312.15576l-.16553.01319A1.88,1.88,0,0,1,208.6324,73.53055Z" fill="#fff"/><path d="M228.96861,197.18924v-20.8291a2.53484,2.53484,0,0,0-2.0814-2.74512h-6.09927v-2.438a2.01694,2.01694,0,0,0-.60058-1.44726,1.9808,1.9808,0,0,0-1.1626-.5752,1.68232,1.68232,0,0,0-.28272-.02343,2.04689,2.04689,0,0,0-2.043,2.04589v2.44288H206.08482l.0083-.00489h-8.3584v-2.438a2.04444,2.04444,0,1,0-4.08887,0v2.44288h-5.437a2.74363,2.74363,0,0,0-2.74023,2.74023V208.43a2.74321,2.74321,0,0,0,2.74023,2.73975h28.68048a9.37442,9.37442,0,1,0,12.07929-13.98047Z" fill="#fff"/><rect x="97.69922" y="181.43102" width="48.93457" height="24.02289" fill="#fff"/><g id="ed4a880d-4f66-4129-b089-67599adf6b53" data-name="Center Honeycomb"><path d="M165,79.32465a5.8628,5.8628,0,0,1,2.657.638c.03493.02209.06787.04654.10307.06836l29.054,17.28469c.16177.0962.3278.1829.49342.27051a5.51833,5.51833,0,0,1,2.55726,4.62573v35.43241a5.838,5.838,0,0,1-2.62132,4.80484c-.14368.07721-.2886.15173-.42936.2355l-29.054,17.28354c-.0477.02756-.09252.05924-.13974.08749a5.85032,5.85032,0,0,1-5.23784.00147c-.04819-.02884-.09394-.06076-.14266-.089l-29.054-17.28354c-.1103-.06561-.22428-.12289-.3364-.18454a5.96448,5.96448,0,0,1-2.71428-4.8558V102.356a5.84051,5.84051,0,0,1,2.61272-4.80026c.14665-.07865.29437-.1547.438-.24009l29.054-17.28469c.04557-.02634.08835-.05658.13349-.08359A5.86484,5.86484,0,0,1,165,79.32465m0-2a7.90894,7.90894,0,0,0-3.52183.83429l-.06731.03369-.06458.03863-.11893.07447-29.06406,17.2911c-.0848.05045-.1722.096-.25926.14234l-.10138.054-.07242.03885-.069.04462a7.79234,7.79234,0,0,0-3.52609,6.47934v35.2883a7.91669,7.91669,0,0,0,3.59658,6.51434l.07494.05051.07917.04352.13779.07431c.04677.025.09387.04925.13963.0765l29.05409,17.28357.13828.08634.06593.03943.06877.0343a7.85026,7.85026,0,0,0,7.02333-.002l.06835-.03409.06554-.03924.12155-.07614,29.06754-17.29209c.08176-.04867.1654-.09231.24866-.13662l.105-.056.06971-.03748.06652-.04288a7.78722,7.78722,0,0,0,3.53831-6.4862V102.21191a7.474,7.474,0,0,0-3.47871-6.31l-.0699-.0448-.0734-.03882-.04441-.02347c-.12152-.06421-.24344-.12772-.36212-.19827l-29.01924-17.264-.09113-.06039-.07934-.05014-.08369-.04255A7.90484,7.90484,0,0,0,165,77.32465Z" fill="#dce0e3"/></g><path d="M134.39551,71.94315a12.91083,12.91083,0,0,1-11.51563-7.09229A12.91718,12.91718,0,1,1,110.6084,46.13358a15.09816,15.09816,0,1,1,24.5376.00049,12.91538,12.91538,0,0,1-.75049,25.80908Z" fill="#fff"/><path d="M255.69434,129.66092a6.17875,6.17875,0,0,0-5.96,4.44531H248.709a2.04261,2.04261,0,0,1-2.04052-2.04V121.38455a5.58884,5.58884,0,0,0,2.04052.38575h1.02539a6.21558,6.21558,0,1,0,0-3.54053H248.709a2.04261,2.04261,0,0,1-2.04052-2.04v-8.25586a5.58667,5.58667,0,0,0-5.58008-5.58008H240.063a6.21533,6.21533,0,1,0,0,3.54h1.02539a2.0422,2.0422,0,0,1,2.04,2.04v24.13232a5.58677,5.58677,0,0,0,5.58056,5.58008h1.02539a6.21619,6.21619,0,1,0,5.96-7.98535Zm2.67529,6.21533a2.6753,2.6753,0,1,1-2.67529-2.67529A2.67841,2.67841,0,0,1,258.36963,135.87625ZM253.019,119.99979a2.6753,2.6753,0,1,1,2.6753,2.67529A2.678,2.678,0,0,1,253.019,119.99979Zm-16.24121-15.876a2.67529,2.67529,0,1,1-2.67529-2.67529A2.6784,2.6784,0,0,1,236.77783,104.12381Z" fill="#4d9dff"/><path d="M227.88,176.35989v20.30005a8.90884,8.90884,0,0,0-1.91-.63,9.39438,9.39438,0,0,0-9.49,3.62c-.16.23-.32.47-.47.71a9.37145,9.37145,0,0,0-.93,7.62,9.44722,9.44722,0,0,0,1,2.19H188.12a1.74121,1.74121,0,0,1-1.74-1.74v-32.07a1.74125,1.74125,0,0,1,1.74-1.74h38.02A1.74128,1.74128,0,0,1,227.88,176.35989Z" fill="#6ab9ec"/><path d="M225.97,180.57992v15.45a9.39438,9.39438,0,0,0-9.49,3.62c-.16.23-.32.47-.47.71a9.37145,9.37145,0,0,0-.93,7.62H188.94a.69356.69356,0,0,1-.7-.68994v-26.71Z" fill="#fff"/><path d="M202.39941,189.68457h9.37646a.19727.19727,0,0,1,.19727.19727v3.45264a.19727.19727,0,0,1-.19727.19727h-9.377a.19727.19727,0,0,1-.19727-.19727v-3.45215A.19775.19775,0,0,1,202.39941,189.68457Z" fill="#cdecff"/><path d="M211.47321,190.18454v2.84714h-8.77146v-2.84714h8.77146m.30258-1h-9.37661a.69742.69742,0,0,0-.69743.69742v3.4523a.69742.69742,0,0,0,.69743.69742h9.37661a.69741.69741,0,0,0,.69742-.69742V189.882a.69741.69741,0,0,0-.69742-.69742Z" fill="#f7706c"/><rect x="201.70175" y="194.80801" width="10.77146" height="4.84716" rx="0.69742" fill="#cdecff"/><rect x="190.03332" y="194.80801" width="10.77146" height="4.84716" rx="0.69742" fill="#cdecff"/><rect x="190.03332" y="200.44931" width="10.77146" height="4.84716" rx="0.69742" fill="#cdecff"/><path d="M224.04,195.4999v.33a9.42544,9.42544,0,0,0-7.56,3.82h-2.51a.69568.69568,0,0,1-.7-.7v-3.45a.702.702,0,0,1,.7-.7H223.34A.702.702,0,0,1,224.04,195.4999Z" fill="#cdecff"/><path d="M216.01,200.35989a9.33054,9.33054,0,0,0-1.35,4.85h-.69a.69569.69569,0,0,1-.7-.7v-3.45a.69568.69568,0,0,1,.7-.7Z" fill="#cdecff"/><rect x="190.0903" y="189.18453" width="10.77146" height="4.84716" rx="0.69742" fill="#cdecff"/><rect x="201.70175" y="183.56105" width="10.77146" height="4.84716" rx="0.69742" fill="#cdecff"/><rect x="213.26807" y="183.56105" width="10.77146" height="4.84716" rx="0.69742" fill="#cdecff"/><rect x="190.0903" y="183.56105" width="10.77146" height="4.84716" rx="0.69742" fill="#cdecff"/><rect x="201.72218" y="200.41844" width="10.77146" height="4.84716" rx="0.69742" fill="#cdecff"/><rect x="213.26807" y="189.18453" width="10.77146" height="4.84716" rx="0.69742" fill="#cdecff"/><circle cx="195.60149" cy="177.41966" r="1.8455" fill="#4585a5"/><circle cx="218.6538" cy="177.41966" r="1.8455" fill="#4585a5"/><polygon points="218.775 174.615 218.775 178.308 225.509 174.615 218.775 174.615" fill="#6ab9ec" opacity="0.45" style="mix-blend-mode:multiply"/><polygon points="195.603 174.615 195.603 178.319 202.337 174.615 195.603 174.615" fill="#6ab9ec" opacity="0.45" style="mix-blend-mode:multiply"/><path d="M196.64588,171.17721v6.09548a1.04439,1.04439,0,1,1-2.08878,0v-6.09548a1.047,1.047,0,0,1,1.04614-1.04613,1.04764,1.04764,0,0,1,1.04264,1.04613Z" fill="#4d575f"/><path d="M219.69926,171.17721v6.09548a1.03974,1.03974,0,0,1-.92405,1.03568.72292.72292,0,0,1-.12208.01045,1.044,1.044,0,0,1-1.04265-1.04613v-6.09548a1.044,1.044,0,0,1,1.04265-1.04613.72292.72292,0,0,1,.12208.01045,1.041,1.041,0,0,1,.92405,1.03568Z" fill="#4d575f"/><path d="M196.64588,171.17721v6.09548a1.044,1.044,0,0,1-1.04264,1.04613v-8.18774a1.04764,1.04764,0,0,1,1.04264,1.04613Z" fill="#4d575f" opacity="0.45" style="mix-blend-mode:multiply"/><path d="M219.69926,171.17721v6.09548a1.03974,1.03974,0,0,1-.92405,1.03568v-8.16684a1.041,1.041,0,0,1,.92405,1.03568Z" fill="#4d575f" opacity="0.45" style="mix-blend-mode:multiply"/><circle cx="224.03952" cy="205.20959" r="8.38082" fill="#a6afb7"/><circle cx="224.03952" cy="205.20959" r="6.37142" fill="#fff"/><path d="M226.50825,206.04647h-2.63086a.7502.7502,0,0,1-.75-.75V200.4493a.75.75,0,0,1,1.5,0v4.09717h1.88086a.75.75,0,0,1,0,1.5Z" fill="#4d575f"/><path d="M81.0047,137.16556l-.06738-2.74316-4.52646,4.08017-14.24063-8.74131-.35351-14.43017,4.07861-3.74366-.13721-5.58349,6.80762-6.24756,1.23535.7041,6.93506-5.19433a2.00414,2.00414,0,0,1,2.0791-.19581l8.4917,4.16358.80713-.74072,12.68945,7.23584.24707,10.06738,3.43213,1.50976a2.00013,2.00013,0,0,1,.51074,3.33594l-4.355,3.8125.28907,11.83692-10.18894,9.28317Z" fill="#fff"/><g id="a7df016c-48e9-40dd-aa50-3724c2d7998d" data-name="Rear Box"><polygon points="83.956 107.397 84.244 119.156 95.82 126.202 104.191 116.947 103.929 106.274 92.364 99.68 83.956 107.397" fill="#b1c854"/><polygon points="103.928 106.274 104.228 118.488 95.814 126.221 95.517 114.105 103.928 106.274" fill="#9fb44b"/><polygon id="e189a71e-822f-4c82-b5c8-f9c41d642503" data-name="Top" points="83.958 107.399 95.527 114.141 103.924 106.277 92.364 99.682 83.958 107.399" fill="#c9d988"/></g><g id="a3bf6b06-4fdb-4556-9a6e-e73f2119c555" data-name="Stacked Boxes"><g id="f5d799bf-4fec-4769-beb2-f0c631a8ca59" data-name="Bottom Box"><polygon points="62.939 115.717 63.268 129.147 76.49 137.196 86.051 126.625 85.753 114.434 72.543 106.902 62.939 115.717" fill="#f7963e"/><polygon points="85.752 114.434 86.094 128.384 76.483 137.218 76.144 123.378 85.752 114.434" fill="#de8738"/><polygon id="ac30aa0e-8fdd-4f84-a859-e09971170d39" data-name="Top" points="62.942 115.719 76.156 123.42 85.747 114.438 72.543 106.905 62.942 115.719" fill="#f9b678"/></g><g id="be0e0d89-29cc-455a-aba8-abc0863b1eb8" data-name="Box"><polygon points="66.881 106.39 67.084 114.69 75.255 119.664 81.164 113.131 80.979 105.598 72.816 100.943 66.881 106.39" fill="#73c7c1"/><polygon points="80.978 105.598 81.19 114.218 75.251 119.677 75.041 111.125 80.978 105.598" fill="#67b3ad"/><polygon id="e06b9d70-d8ec-4c54-9da5-35ca207711a8" data-name="Top" points="66.882 106.391 75.049 111.151 80.976 105.6 72.816 100.944 66.882 106.391" fill="#9dd8d4"/></g></g><path d="M101.64355,125.47391a1,1,0,0,1-.65918-1.75244l4.96338-4.34522-5.03076-2.21289a1.00023,1.00023,0,1,1,.80567-1.831l6.46875,2.8457a1.00041,1.00041,0,0,1,.25586,1.668l-6.14551,5.38037A.99558.99558,0,0,1,101.64355,125.47391Z" fill="#545f66"/><path d="M94.46924,106.95584a1,1,0,0,1-1-1v-2.418L82.15625,97.991l-6.97266,5.22314v1.85108a1,1,0,0,1-2,0v-2.35156a1.00042,1.00042,0,0,1,.40039-.8003l7.86329-5.89013a1.00287,1.00287,0,0,1,1.04-.09766l12.42237,6.09082a1.00075,1.00075,0,0,1,.55957.89795v3.0415A1.00005,1.00005,0,0,1,94.46924,106.95584Z" fill="#545f66"/><path d="M68.46289,129.40067a1.00021,1.00021,0,0,1-1-1V115.16239a1.0002,1.0002,0,0,1,.40332-.80274l2.20361-1.63769a1.0002,1.0002,0,1,1,1.19336,1.60546l-1.80029,1.3379v10.77636l.61719-.44726a1,1,0,1,1,1.17285,1.62011l-2.20361,1.5962A.99809.99809,0,0,1,68.46289,129.40067Z" fill="#545f66"/><g id="e271c108-8cea-4a4f-969d-eb261d0ce81d" data-name="Front Box"><polygon points="81.787 123.651 82.103 136.551 94.804 144.283 103.988 134.128 103.701 122.418 91.012 115.183 81.787 123.651" fill="#85a9cf"/><polygon points="103.7 122.418 104.028 135.819 94.797 144.304 94.471 131.01 103.7 122.418" fill="#7798ba"/><polygon id="e917b969-a4e1-4c87-a05a-6451f0bc27e0" data-name="Top" points="81.789 123.652 94.483 131.05 103.696 122.421 91.012 115.185 81.789 123.652" fill="#aac3dd"/></g><path d="M130,46.72635c0,3.31371-3.35786,3-7.5,3s-7.5.31371-7.5-3,2-9,7.5-9S130,43.41264,130,46.72635Z" fill="#4d9dff"/><path d="M118,67.12741c0,2.87188-2.91015,2.6-6.5,2.6s-6.5.27188-6.5-2.6,1.73333-7.8,6.5-7.8S118,64.25553,118,67.12741Z" fill="#b1c854"/><path d="M141,67.12741c0,2.87188-2.91015,2.6-6.5,2.6s-6.5.27188-6.5-2.6,1.73333-7.8,6.5-7.8S141,64.25553,141,67.12741Z" fill="#f7963e"/><circle cx="122.68487" cy="33.49214" r="6.40492" fill="#f5aa75"/><circle cx="111.28804" cy="55.88815" r="5.21205" fill="#b26e45"/><circle cx="134.28804" cy="55.88815" r="5.21205" fill="#f5dace"/><path d="M122.87158,51.43582a14.10792,14.10792,0,1,1,10.94873-5.21289A14.11575,14.11575,0,0,1,122.87158,51.43582Zm0-26.19677a12.10691,12.10691,0,1,0,12.09961,12.09716A12.112,12.112,0,0,0,122.87158,25.23905Z" fill="#73c7c1"/><path d="M111.34766,70.94315a11.92051,11.92051,0,1,1,9.2539-4.40576A11.92988,11.92988,0,0,1,111.34766,70.94315Zm0-21.83057a9.921,9.921,0,1,0,9.9165,9.91406A9.92612,9.92612,0,0,0,111.34766,49.11258Z" fill="#73c7c1"/><path d="M134.39551,70.94315a11.9224,11.9224,0,1,1,9.25293-4.40528A11.93,11.93,0,0,1,134.39551,70.94315Zm0-21.83057a9.92164,9.92164,0,1,0,9.9165,9.91406A9.92654,9.92654,0,0,0,134.39551,49.11258Z" fill="#73c7c1"/><g id="ba389438-0c07-4fb4-b773-4443e690f857" data-name="Open for Innovation"><g id="f16bf847-2138-4de6-b91d-ca997c965ec2" data-name="Backend"><path id="e0211e83-bbb9-4f9c-92cb-4113996a0321" data-name="Shape" d="M212.97916,27.66149l-6.42646-3.72013a2.32005,2.32005,0,0,0-2.44148.12175l-16.59415,9.28141a6.1146,6.1146,0,0,0-3.01712,4.701V57.6323a1.6919,1.6919,0,0,0,.75428,1.57025h0l6.78851,3.93025h0a2.32355,2.32355,0,0,0,2.26284-.24434l16.59416-9.28141a6.1146,6.1146,0,0,0,3.01711-4.701V29.31927A1.71438,1.71438,0,0,0,212.97916,27.66149Z" fill-rule="evenodd" fill="url(#f999e9e6-5a39-4a3b-8eb7-6b532b0dbc11)"/><path id="ec8a3b48-975f-4dc5-b1c2-369a33c152d2" data-name="Screen" d="M194.44166,37.40712l16.322-9.14228c1.639-.918,2.96764-.33329,2.96764,1.306V48.86409a6.02381,6.02381,0,0,1-2.96764,4.6305l-16.322,9.14227c-1.639.918-2.96764.33329-2.96764-1.306V42.03762A6.0238,6.0238,0,0,1,194.44166,37.40712Z" fill-rule="evenodd" fill="url(#f12d04c5-28a0-4d1f-af41-b3b139ca14c8)"/><path id="b8f70b51-ef49-4648-88f1-cd1219162606" data-name="3D" d="M210.06506,53.26493c1.66631-.93142,3.072-2.3029,3.072-4.37581V28.82938a2.52372,2.52372,0,0,0-.238-.744.73009.73009,0,0,0-.26544-.03868h-.00012a1.83607,1.83607,0,0,0-.68708.15694,1.14988,1.14988,0,0,1,.1281.60254l-.00716,20.03842c0,1.40773-.75816,2.43214-2.53506,3.42539l-16.59417,9.27575a2.16029,2.16029,0,0,1-1.00038.32212v.12622c0,.46972.13249.68223.28357.7792a3.90524,3.90524,0,0,0,1.36335-.28752Z" fill="url(#bf90b62d-78d5-4cb7-9271-bd831cc8f395)"/><g id="b054fe94-4d20-493f-b2aa-5a896636161e" data-name="Code"><path id="b0511478-fe02-4aac-9ee2-dd3775421985" data-name="Yellow" d="M199.51011,52.531l2.26284-1.26914c.125-.07009.22629-.0256.22629.09938a.45969.45969,0,0,1-.22629.35319l-2.26284,1.26914c-.125.07009-.22628.0256-.22628-.09937A.45968.45968,0,0,1,199.51011,52.531Zm.60343-1.847.60342-.33844c.125-.07008.22628-.0256.22628.09938a.4597.4597,0,0,1-.22628.35319l-.60342.33844c-.125.07009-.22629.02561-.22629-.09937A.4597.4597,0,0,1,200.11354,50.684Zm2.41369-2.8623.75428-.423c.125-.07008.22629-.0256.22629.09938a.45969.45969,0,0,1-.22629.35319l-.75428.42305c-.125.07009-.22628.0256-.22628-.09937A.4597.4597,0,0,1,202.52723,47.8217Zm-1.50856-.66248.75428-.423c.125-.07008.22629-.0256.22629.09938a.45969.45969,0,0,1-.22629.35319l-.75428.423c-.125.0701-.22628.02561-.22628-.09936A.45973.45973,0,0,1,201.01867,47.15922Zm.45257-1.76238,1.50856-.84609c.125-.07008.22628-.0256.22628.09938a.45967.45967,0,0,1-.22628.35319l-1.50856.84609c-.125.07009-.22628.02561-.22628-.09937A.45972.45972,0,0,1,201.47124,45.39684Z" fill="#ffc335" fill-rule="evenodd"/><path id="e3414e2f-de7c-42f5-97ba-c1d88f1cb034" data-name="Blue" d="M198.605,53.03865c.125-.07009.22628-.0256.22628.09937a.45972.45972,0,0,1-.22628.3532c-.125.07009-.22629.0256-.22629-.09937A.45973.45973,0,0,1,198.605,53.03865Zm0-3.01712,3.01712-1.69218c.125-.07008.22628-.0256.22628.09938a.4597.4597,0,0,1-.22628.35319L198.605,50.4741c-.125.07009-.22629.02561-.22629-.09937A.45973.45973,0,0,1,198.605,50.02153Zm0-1.50855,1.50856-.8461c.125-.07009.22628-.0256.22628.09937a.45972.45972,0,0,1-.22628.3532l-1.50856.84609c-.125.07009-.22629.0256-.22629-.09937A.4597.4597,0,0,1,198.605,48.513Zm0-1.50856,1.96112-1.09992c.125-.07009.22629-.02561.22629.09937a.45967.45967,0,0,1-.22629.35319L198.605,47.457c-.125.07009-.22629.0256-.22629-.09937A.4597.4597,0,0,1,198.605,47.00442Z" fill="#6ab9ec" fill-rule="evenodd"/><path id="a847e0c8-e154-43f0-bed7-75a397cc03e5" data-name="Orange" d="M202.9798,40.02508l1.50856-.84609c.125-.07009.22628-.02561.22628.09937a.45966.45966,0,0,1-.22628.35319l-1.50856.84609c-.125.0701-.22628.02561-.22628-.09937A.4597.4597,0,0,1,202.9798,40.02508ZM198.605,42.47874l3.46968-1.946c.125-.07009.22629-.0256.22629.09937a.45967.45967,0,0,1-.22629.35319l-3.46968,1.946c-.125.07008-.22629.02559-.22629-.09938A.45971.45971,0,0,1,198.605,42.47874Zm4.37482-3.96222,1.50856-.84609c.125-.0701.22628-.02561.22628.09937a.45966.45966,0,0,1-.22628.35319l-1.50856.84609c-.125.07009-.22628.02561-.22628-.09937A.45968.45968,0,0,1,202.9798,38.51652ZM198.605,40.97018l3.46968-1.946c.125-.07009.22629-.0256.22629.09937a.4597.4597,0,0,1-.22629.3532l-3.46968,1.946c-.125.07008-.22629.0256-.22629-.09938A.45971.45971,0,0,1,198.605,40.97018Z" fill="#f7963e" fill-rule="evenodd"/><path id="bf8ca8f3-f118-4ec2-b209-f0a2f30463d1" data-name="Teal" d="M197.8507,54.97025l2.86626-1.60757c.125-.07009.22628-.02559.22628.09938a.45972.45972,0,0,1-.22628.35319l-2.86626,1.60757c-.125.0701-.22629.02561-.22629-.09936A.45975.45975,0,0,1,197.8507,54.97025Zm-.75428-7.11974.60342-.33844c.125-.07009.22629-.02561.22629.09937a.4597.4597,0,0,1-.22629.35319l-.60342.33844c-.125.07009-.22629.0256-.22629-.09937A.4597.4597,0,0,1,197.09642,47.85051Zm2.26284-2.7777,1.3577-.76148c.125-.07009.22628-.0256.22628.09937a.45968.45968,0,0,1-.22628.35319l-1.3577.76148c-.125.0701-.22629.02561-.22629-.09936A.45971.45971,0,0,1,199.35926,45.07281Zm-1.50856-5.18815,2.86626-1.60757c.125-.07009.22628-.0256.22628.09937a.45972.45972,0,0,1-.22628.3532l-2.86626,1.60757c-.125.0701-.22629.0256-.22629-.09937A.45973.45973,0,0,1,197.8507,39.88466Z" fill="#73c7c1" fill-rule="evenodd"/><path id="b11387b0-20ee-424e-8492-e047f0ca2e28" data-name="Green" d="M201.6221,49.83791l4.97824-2.79209c.125-.0701.22629-.0256.22629.09936a.45972.45972,0,0,1-.22629.35321l-4.97824,2.79209c-.125.07009-.22629.02561-.22629-.09937A.45973.45973,0,0,1,201.6221,49.83791Zm-4.52568-6.51308.60342-.33844c.125-.07009.22629-.02561.22629.09937a.45973.45973,0,0,1-.22629.3532l-.60342.33844c-.125.07008-.22629.0256-.22629-.09938A.45971.45971,0,0,1,197.09642,43.32483Zm0-1.50856.60342-.33844c.125-.07009.22629-.02561.22629.09937a.45973.45973,0,0,1-.22629.3532l-.60342.33844c-.125.07008-.22629.02559-.22629-.09938A.45971.45971,0,0,1,197.09642,41.81627Zm-1.50856,3.86321.30171-.16922c.125-.0701.22628-.02561.22628.09937a.45973.45973,0,0,1-.22628.3532l-.30171.16922c-.125.07008-.22629.02559-.22629-.09938A.45969.45969,0,0,1,195.58786,45.67948Z" fill="#b1c854" fill-rule="evenodd"/><path id="e1d84e06-e764-4757-bff2-686bf0ca80b5" data-name="Pink" d="M195.58786,56.23939l1.3577-.76148c.125-.07009.22629-.0256.22629.09937a.45967.45967,0,0,1-.22629.35319l-1.3577.76149c-.125.07009-.22629.0256-.22629-.09937A.4597.4597,0,0,1,195.58786,56.23939Zm0-9.05136,2.86626-1.60756c.125-.0701.22629-.02561.22629.09936a.45971.45971,0,0,1-.22629.3532l-2.86626,1.60757c-.125.07009-.22629.0256-.22629-.09937A.4597.4597,0,0,1,195.58786,47.188Zm0-6.03423,1.3577-.76148c.125-.0701.22629-.02561.22629.09936a.45972.45972,0,0,1-.22629.35321l-1.3577.76148c-.125.07009-.22629.02559-.22629-.09938A.45969.45969,0,0,1,195.58786,41.1538Z" fill="#f7706c" fill-rule="evenodd"/><path id="f3df3720-104d-4564-abc4-b1e74aa8c588" data-name="Tan" d="M196.64385,39.053l.60342-.33844c.125-.0701.22629-.0256.22629.09936a.45972.45972,0,0,1-.22629.35321l-.60342.33844c-.125.07009-.22628.02559-.22628-.09938A.4597.4597,0,0,1,196.64385,39.053Z" fill="#c8c2b4" fill-rule="evenodd"/><path id="b3399f0f-713e-4a87-968e-6f7ea611b803" data-name="Purple" d="M194.0793,58.594l1.20685-.67687c.125-.07009.22628-.0256.22628.09937a.45972.45972,0,0,1-.22628.3532l-1.20685.67687c-.125.07009-.22628.0256-.22628-.09937A.45969.45969,0,0,1,194.0793,58.594Zm0-18.10272,1.65941-.93069c.125-.0701.22629-.0256.22629.09936a.45972.45972,0,0,1-.22629.35321l-1.65941.93069c-.125.0701-.22628.0256-.22628-.09936A.45971.45971,0,0,1,194.0793,40.49132Z" fill="#a3779f" fill-rule="evenodd"/></g><path id="ea295756-f238-4d25-9f6b-578a6bffe2da" data-name="Face" d="M212.372,27.57324v.92739c.18478,0,.61749,0,.61749.83841V48.91392a5.18051,5.18051,0,0,1-2.54223,3.8886l-16.59415,9.27575a2.13422,2.13422,0,0,1-1.01954.32281c-.18484,0-.6177,0-.6177-.83841V41.98778a5.18055,5.18055,0,0,1,2.54223-3.8886l16.59415-9.27575a2.13471,2.13471,0,0,1,1.01963-.3228l.00012-.92739m-.00021,0a3.07893,3.07893,0,0,0-1.472.44069l-16.59416,9.27574a6.11064,6.11064,0,0,0-3.01712,4.69811V61.56267c0,1.12979.62305,1.76579,1.54509,1.76579a3.07846,3.07846,0,0,0,1.472-.44068L210.89974,53.612a6.11061,6.11061,0,0,0,3.01712-4.69811V29.339c0-1.12979-.62305-1.76589-1.54509-1.7658Z" fill="#c7ccd1"/></g><path id="e4574344-9c41-48ba-a4e8-cc82e2d95c93" data-name="Wires" d="M208.48591,68.7612a.1531.1531,0,0,1-.07653-.02038l-12.672-7.24038a.15455.15455,0,0,1,.15336-.26837l12.67195,7.24038a.15456.15456,0,0,1-.07683.28875Zm1.94458-1.13388a.15445.15445,0,0,0-.05751-.21086l-12.67187-7.24038a.15455.15455,0,0,0-.15335.26837l12.67187,7.24038a.1545.1545,0,0,0,.21086-.05751Zm1.81025-1.056a.15448.15448,0,0,0-.05751-.21087l-12.67187-7.24038a.15455.15455,0,1,0-.15336.26837l12.67187,7.24038a.15451.15451,0,0,0,.21087-.0575Zm1.81024-1.056a.15447.15447,0,0,0-.0575-.21087L201.3216,58.0641a.15455.15455,0,0,0-.15335.26838l12.67187,7.24037a.1545.1545,0,0,0,.21086-.0575Zm1.8104-1.056a.15446.15446,0,0,0-.05751-.21087l-12.67194-7.24038a.15455.15455,0,1,0-.15336.26838l12.672,7.24038a.15452.15452,0,0,0,.21086-.05751Zm1.81025-1.056a.15448.15448,0,0,0-.05751-.21087l-12.672-7.24038a.15455.15455,0,0,0-.15336.26838l12.67195,7.24038a.15454.15454,0,0,0,.21087-.05751Z" fill="url(#ecc52512-e560-45e0-a915-b4a2dc04e714)"/><g id="ac9b640c-961c-4786-b39a-bc030fadf907" data-name="Frontend"><path id="a6a77bc6-6b80-4e7c-b2a2-7b03e5930826" data-name="Shape" d="M228.819,36.8637l-1.14651-.703a2.32005,2.32005,0,0,0-2.44148.12175L208.6369,45.56385a6.11458,6.11458,0,0,0-3.01712,4.701V69.85163a1.69189,1.69189,0,0,0,.75428,1.57025h0l1.50856.91313h0a2.32353,2.32353,0,0,0,2.26284-.24434l16.59415-9.28141a6.11464,6.11464,0,0,0,3.01712-4.701V38.52149A1.71441,1.71441,0,0,0,228.819,36.8637Z" fill-rule="evenodd" fill="url(#a09006ae-425e-467a-9ed3-99c49d907e88)"/><path id="fe8ee011-dd3a-4e4d-a695-9d4b87634307" data-name="Screen" d="M210.27782,46.55036l16.322-9.14227c1.639-.918,2.96764-.33329,2.96764,1.306v19.2932a6.0238,6.0238,0,0,1-2.96764,4.6305l-16.322,9.14227c-1.639.918-2.96764.3333-2.96764-1.306V51.18086A6.02381,6.02381,0,0,1,210.27782,46.55036Z" fill-rule="evenodd" fill="url(#a84d844f-4e0e-4746-99b2-d75dbedd46c2)"/><g id="bf48bfef-ed85-486a-9571-984593a01907" data-name="Content"><g id="b5f2457d-6312-48d0-afe8-c002f38c5b15" data-name="Line Chart"><path id="fbff1340-498a-4797-a1f7-0c2684b53f21" data-name="Chart" d="M209.542,62.61042l16.59416-9.23893v.15086L209.542,62.76128Zm0,1.50856,16.59416-9.23892v.15084L209.542,64.26984Zm0,1.50856,16.59416-9.23893v.15085L209.542,65.77839Zm0,1.50856,16.59416-9.23893V58.048L209.542,67.287Zm0,1.50856,16.59416-9.23893v.15085L209.542,68.79551Z" fill="#fff" fill-rule="evenodd" opacity="0.3"/><path d="M209.69284,66.82628a.15456.15456,0,0,1-.10128-.27125l.47909-.416.61312-1.17629a.1547.1547,0,0,1,.11895-.08211l.54641-.06446.46339-.86565a.15465.15465,0,0,1,.23864-.043l.18716.16528.59305-.16875.60045-1.75289a.15469.15469,0,0,1,.22068-.08543l.37584.20634,1.154.78686.894-.99984.61645-1.553a.15448.15448,0,0,1,.06249-.07442l1.00271-.61976a.155.155,0,0,1,.18354.01554l.37992.3354.90113-1.12075a.15426.15426,0,0,1,.07365-.05041l.62672-.19925a.15517.15517,0,0,1,.18324.07487l.32407.61026.39381-1.32693a.15461.15461,0,0,1,.10143-.1034l.55864-.17765.4738-1.12195a.15442.15442,0,0,1,.11578-.09223.15627.15627,0,0,1,.14007.0474l.61464.6655.61222.41765a.15348.15348,0,0,1,.04573.04876l.62656,1.05463a.1411.1411,0,0,1,.01313.02823l.13328.38414.45343-.86988.4969-1.79892a.15554.15554,0,0,1,.0154-.03653l.62671-1.077a.15456.15456,0,1,1,.26717.15547l-.6166,1.05961-.496,1.79546a.15737.15737,0,0,1-.01193.03019l-.62656,1.20225a.15453.15453,0,0,1-.283-.02068l-.24559-.70792-.6012-1.01176-.59833-.4083a.15269.15269,0,0,1-.02642-.02279l-.46384-.50219-.4083.96664a.15427.15427,0,0,1-.09555.08724l-.54852.17434-.47788,1.6107a.15453.15453,0,0,1-.28468.02853l-.4409-.83-.45931.146-.97343,1.21055a.15439.15439,0,0,1-.10732.05706.15276.15276,0,0,1-.11547-.038l-.41524-.36649-.86158.53253-.60769,1.531a.15464.15464,0,0,1-.02853.046l-1.0027,1.12134a.15466.15466,0,0,1-.20226.02461l-1.25327-.85539-.202-.11049-.56724,1.65583a.15484.15484,0,0,1-.104.09857l-.752.214a.15512.15512,0,0,1-.1446-.03275l-.10415-.09192-.4092.76452a.15454.15454,0,0,1-.11819.0806l-.54535.0643-.589,1.13a.153.153,0,0,1-.03577.04528l-.50128.43517A.15353.15353,0,0,1,209.69284,66.82628Z" fill="#fff"/></g><g id="fbb0a583-f7be-4658-a7bd-68cb39fa1cef" data-name="Blocks"><path d="M223.2131,47.05819l1.45022-.80742c.13348-.07433.2417-.02636.2417.10713v1.45022a.48854.48854,0,0,1-.2417.37628l-1.45022.80742c-.1335.07431-.2417.02634-.2417-.10714V47.43446A.48847.48847,0,0,1,223.2131,47.05819Z" fill="#dce0e3" fill-rule="evenodd"/><path d="M223.2131,43.67434l1.45022-.80741c.13348-.07434.2417-.02637.2417.10712v1.45022a.48854.48854,0,0,1-.2417.37628l-1.45022.80742c-.1335.07432-.2417.02635-.2417-.10714V44.05061A.48848.48848,0,0,1,223.2131,43.67434Zm0,6.7677,1.45022-.80742c.13348-.07433.2417-.02636.2417.10712V51.192a.4885.4885,0,0,1-.2417.37627l-1.45022.80744c-.1335.07431-.2417.02636-.2417-.10714V50.81831A.48845.48845,0,0,1,223.2131,50.442Z" fill="#fff" fill-rule="evenodd"/></g><path id="b1f02073-efd0-4656-a4da-4db99976f8c1" data-name="3D House" d="M215.06677,47.00783,210.456,51.81989l-.05066.05252v5.22035l4.66142.51727,4.61075-4.81206.05067-.05252V47.5251Zm-.10134.33978v1.50578l-3.64807,3.807.912.10119v2.31052L210.608,56.76431V51.89507Zm.20267-.09451,4.35742.48367v4.86885l-1.62137-.18011V50.11538l.912-.95175-3.64807-.40515Zm-.20267,1.83383v.36932l-1.41632,1.47825-1.26629.95228Zm.20267-.0945,2.68262.29839-1.2663.22829-1.41632-.15736Zm-.10133.59232,1.2754.14154-1.2754,1.331-1.2754-.14193Zm-1.49153,1.54063,1.39019.15451v1.5517l-3.1877-.35421Zm2.98306-1.391,1.79751-.32439-3.18771,3.32711v-1.5517Zm-4.12625,3.04948,2.53338.28129v2.20325l-.78257-.08673V53.6921l.20267.02227v-.23355l-1.39613-.1553v.23394l.20267.02266v1.48955l-.76-.08458Zm5.26943-2.45678v2.20285l-2.53338,2.644V52.97063Zm-.16862.64706-.79406.82865v.90252l.79406-.82866ZM212.83977,53.309l-.00119.00214.00435-.002Zm4.49042-1.88927v.43464l-.38872.4053v-.43423Zm-.97971.77867-.79366.82847v.90252l.79366-.82848Zm-2.95574,1.40639.58544.065V55.159l-.58544-.065Zm2.75307-.96078v.43424l-.38832.40552v-.43463Zm-3.8258,2.565,2.64342.29331v1.86244l-4.25608-.47274Zm5.48952-2.55981,1.61265.179-4.25608,4.442V55.40782Z" fill="#fff"/></g><path id="fcbca645-2bc4-4e8e-b443-2d8e93ae30fe" data-name="Shine" d="M207.958,71.2058l19.985-33.56859h-1.75223l-15.913,8.91315a6.35229,6.35229,0,0,0-2.42234,2.614Z" fill-rule="evenodd" opacity="0.2" fill="url(#a94bb279-907d-4af4-8811-90c2220bce29)"/><path id="bcb30a1d-6b72-40dd-93dd-56949b1f372d" data-name="3D" d="M225.98533,62.225c1.6663-.93142,2.90762-2.11,2.90762-4.1829V38.0646a2.869,2.869,0,0,0-.16646-.79511.72983.72983,0,0,0-.26543-.03868h-.00012a1.83621,1.83621,0,0,0-.68708.15693,1.15,1.15,0,0,1,.12809.60254l-.00716,20.03842c0,1.40774-.75815,2.43215-2.53506,3.42539l-16.59416,9.27576a2.16032,2.16032,0,0,1-1.00039.32212v.12621c0,.46973.13249.68223.28358.7792a3.50242,3.50242,0,0,0,1.24348-.3541Z" fill="url(#f5be0717-f665-4c08-9920-367af78efc7e)"/><path id="fdbe08ca-c2bd-4335-be4f-4e9082596c19" data-name="Face" d="M228.21185,36.77546v.92738c.18478,0,.61749,0,.61749.83841V58.11613a5.18052,5.18052,0,0,1-2.54222,3.8886L209.693,71.28049a2.13424,2.13424,0,0,1-1.01954.32279c-.18484,0-.6177,0-.6177-.8384V51.19a5.18055,5.18055,0,0,1,2.54223-3.88861l16.59415-9.27575a2.13474,2.13474,0,0,1,1.01963-.3228l.00012-.92738m-.00021,0a3.079,3.079,0,0,0-1.472.44069l-16.59415,9.27574A6.11059,6.11059,0,0,0,207.12834,51.19V70.76488c0,1.12979.623,1.76579,1.54508,1.76579a3.07853,3.07853,0,0,0,1.472-.44068l16.59415-9.27575a6.11059,6.11059,0,0,0,3.01712-4.69811V38.54125c0-1.12979-.62305-1.76589-1.54509-1.7658Z" fill="#c7ccd1"/></g></g><rect x="104.34219" y="183.36649" width="40.93817" height="19.94141" fill="#fff"/><path d="M145.63379,204.30789H96.69922v-21.9414h48.93457Zm-47.93457-1h46.93457v-19.9414H97.69922Z" fill="#939da3"/><g clip-path="url(#b02d0b03-f098-46c5-b214-b4fca021d47b)"><rect x="135.88757" y="195.89142" width="3.15125" height="3.15125" fill="#a1abb3"/><circle cx="137.46319" cy="197.46705" r="1.57562" fill="#a1abb3"/><circle cx="137.46319" cy="197.46705" r="1.54698" fill="#a6afb7"/><circle cx="137.46319" cy="197.46705" r="1.51833" fill="#aab3bb"/><circle cx="137.46319" cy="197.46705" r="1.48968" fill="#afb7be"/><circle cx="137.46319" cy="197.46705" r="1.46103" fill="#b3bbc1"/><circle cx="137.46319" cy="197.46705" r="1.43239" fill="#b6bec4"/><circle cx="137.46319" cy="197.46705" r="1.40374" fill="#b9c1c7"/><circle cx="137.46319" cy="197.46705" r="1.37509" fill="#bcc3c9"/><circle cx="137.46319" cy="197.46705" r="1.34644" fill="#bfc6cb"/><circle cx="137.46319" cy="197.46705" r="1.31779" fill="#c2c8cd"/><circle cx="137.46319" cy="197.46705" r="1.28915" fill="#c4cacf"/><circle cx="137.46319" cy="197.46705" r="1.2605" fill="#c6ccd1"/><circle cx="137.46319" cy="197.46705" r="1.23185" fill="#c8ced2"/><circle cx="137.46319" cy="197.46705" r="1.2032" fill="#cad0d4"/><circle cx="137.46319" cy="197.46705" r="1.17456" fill="#ccd1d5"/><circle cx="137.46319" cy="197.46705" r="1.14591" fill="#cdd2d6"/><circle cx="137.46319" cy="197.46705" r="1.11726" fill="#ced3d7"/><circle cx="137.46319" cy="197.46705" r="1.08861" fill="#d0d5d8"/><circle cx="137.46319" cy="197.46705" r="1.05997" fill="#d1d5d9"/><circle cx="137.46319" cy="197.46705" r="1.03132" fill="#d2d6da"/><circle cx="137.46319" cy="197.46705" r="1.00267" fill="#d3d7db"/><circle cx="137.46319" cy="197.46705" r="0.97402" fill="#d3d8db"/><circle cx="137.46319" cy="197.46705" r="0.94537" fill="#d4d8dc"/><circle cx="137.46319" cy="197.46705" r="0.91673" fill="#d5d9dc"/><circle cx="137.46319" cy="197.46705" r="0.88808" fill="#d5d9dd"/><circle cx="137.46319" cy="197.46705" r="0.85943" fill="#d6dadd"/><circle cx="137.46319" cy="197.46705" r="0.83078" fill="#d6dadd"/><circle cx="137.46319" cy="197.46705" r="0.80214" fill="#d6dade"/><circle cx="137.46319" cy="197.46705" r="0.77349" fill="#d7dbde"/><circle cx="137.46319" cy="197.46705" r="0.74484" fill="#d7dbde"/><circle cx="137.46319" cy="197.46705" r="0.71619" fill="#d7dbde"/><circle cx="137.46319" cy="197.46705" r="0.68755" fill="#d7dbde"/><circle cx="137.46319" cy="197.46705" r="0.6589" fill="#d7dbde"/><circle cx="137.46319" cy="197.46705" r="0.63025" fill="#d8dcdf"/><circle cx="137.46319" cy="197.46705" r="0.6016" fill="#d8dcdf"/><circle cx="137.46319" cy="197.46705" r="0.57295" fill="#d8dcdf"/><circle cx="137.46319" cy="197.46705" r="0.54431" fill="#d8dcdf"/><circle cx="137.46319" cy="197.46705" r="0.51566" fill="#d8dcdf"/><circle cx="137.46319" cy="197.46705" r="0.48701" fill="#d8dcdf"/><circle cx="137.46319" cy="197.46705" r="0.45836" fill="#d8dcdf"/><circle cx="137.46319" cy="197.46705" r="0.42972" fill="#d8dcdf"/><circle cx="137.46319" cy="197.46705" r="0.40107" fill="#d8dcdf"/><circle cx="137.46319" cy="197.46705" r="0.37242" fill="#d8dcdf"/><circle cx="137.46319" cy="197.46705" r="0.34377" fill="#d8dcdf"/><circle cx="137.46319" cy="197.46705" r="0.31512" fill="#d8dcdf"/><circle cx="137.46319" cy="197.46705" r="0.28648" fill="#d8dcdf"/><circle cx="137.46319" cy="197.46705" r="0.25783" fill="#d8dcdf"/><circle cx="137.46319" cy="197.46705" r="0.22918" fill="#d8dcdf"/><circle cx="137.46319" cy="197.46705" r="0.20053" fill="#d8dcdf"/><circle cx="137.46319" cy="197.46705" r="0.17189" fill="#d8dcdf"/><circle cx="137.46319" cy="197.46705" r="0.14324" fill="#d8dcdf"/><circle cx="137.46319" cy="197.46705" r="0.11459" fill="#d8dcdf"/><circle cx="137.46319" cy="197.46705" r="0.08594" fill="#d8dcdf"/><circle cx="137.46319" cy="197.46705" r="0.0573" fill="#d8dcdf"/><path d="M137.49184,197.46705a.02865.02865,0,1,1-.02865-.02865A.02864.02864,0,0,1,137.49184,197.46705Z" fill="#d8dcdf"/></g><path d="M139.03857,201.04276a1.99468,1.99468,0,0,1-1.41455-.58594l-3.15088-3.15137a2.00013,2.00013,0,0,1,2.82911-2.82812l3.15087,3.15136a2,2,0,0,1-1.41455,3.41407Z" fill="#87939b"/><rect x="105.12256" y="182.36649" width="39.37744" height="1" fill="#ced7dd"/><circle cx="132" cy="191.72635" r="6" fill="#ced7dd"/><circle cx="132" cy="191.72635" r="4" fill="#fff"/><polygon points="95.557 181.228 105.772 181.228 119.966 205.657 95.557 205.657 95.557 181.228" fill="url(#e850b894-c7f9-4ebc-b9de-07f12e2513c1)"/></g></g></svg>