<svg xmlns="http://www.w3.org/2000/svg" xmlns:xlink="http://www.w3.org/1999/xlink" viewBox="0 0 330 240"><defs><linearGradient id="ba90ca1f-5426-4598-8bca-c40f6b0c06e7" x1="163.83821" y1="63.88667" x2="163.83821" y2="234.49648" gradientUnits="userSpaceOnUse"><stop offset="0" stop-color="#cdecff"/><stop offset="0.5" stop-color="#cdecff" stop-opacity="0.25"/></linearGradient><linearGradient id="a0d5624a-4653-43f1-94a6-ce4c2cff7902" x1="57.15922" y1="164.27945" x2="270.51721" y2="164.27945" gradientUnits="userSpaceOnUse"><stop offset="0.47175" stop-color="#dce0e3"/><stop offset="0.61611" stop-color="#c7ccd1"/></linearGradient><linearGradient id="a2904b78-2446-486a-9368-151fd0fc5199" x1="83.31943" y1="132.07457" x2="91.38709" y2="132.07457" gradientUnits="userSpaceOnUse"><stop offset="0" stop-color="#dce0e3"/><stop offset="1" stop-color="#c7ccd1"/></linearGradient><linearGradient id="a0455215-6285-4d9b-9d5b-9fa0ed48c172" x1="73.84663" y1="136.44664" x2="81.91429" y2="136.44664" xlink:href="#a2904b78-2446-486a-9368-151fd0fc5199"/><linearGradient id="e8a7bce2-9f4f-4c5b-aaf9-9bb1107863c8" x1="127.20042" y1="164.6584" x2="132.97222" y2="174.65546" gradientUnits="userSpaceOnUse"><stop offset="0.77702" stop-color="#a47854"/><stop offset="0.80281" stop-color="#9e7452"/><stop offset="0.83775" stop-color="#8d6a4e"/><stop offset="0.87793" stop-color="#705946"/><stop offset="0.92168" stop-color="#49413c"/><stop offset="0.95133" stop-color="#2a2f34"/></linearGradient><linearGradient id="a8ce5cd0-60bb-4898-8002-5ba8778d895c" x1="99.73845" y1="131.0555" x2="101.47448" y2="131.0555" xlink:href="#a2904b78-2446-486a-9368-151fd0fc5199"/><linearGradient id="b6e71ec9-b3ff-4ed7-984f-d8825c850a30" x1="100.19412" y1="126.17819" x2="100.19412" y2="107.7956" gradientUnits="userSpaceOnUse"><stop offset="0" stop-color="#2a2f34" stop-opacity="0.25"/><stop offset="1" stop-color="#2a2f34" stop-opacity="0.5"/></linearGradient><linearGradient id="f457afe6-2b40-455d-a48d-2d7b24bb6913" x1="130.07334" y1="169.58392" x2="129.04465" y2="171.36566" gradientUnits="userSpaceOnUse"><stop offset="0.41749" stop-color="#b9c0c6"/><stop offset="0.63493" stop-color="#9ba5ae"/></linearGradient><linearGradient id="b6a113da-2d38-487b-a948-2422fc2f8e30" x1="133.15863" y1="168.91748" x2="137.26737" y2="168.91748" gradientUnits="userSpaceOnUse"><stop offset="0" stop-color="#cdecff"/><stop offset="1" stop-color="#fff"/></linearGradient><linearGradient id="b4572a7c-90a8-49b4-bdd7-dc2825216205" x1="163.70804" y1="5.50351" x2="163.70804" y2="129.25877" gradientUnits="userSpaceOnUse"><stop offset="0" stop-color="#cdecff"/><stop offset="1" stop-color="#cdecff" stop-opacity="0.25"/></linearGradient><radialGradient id="a01df302-0d58-4bab-ac0d-bb665e86028c" cx="159.30296" cy="76.36596" r="16.70128" gradientUnits="userSpaceOnUse"><stop offset="0" stop-color="#fff"/><stop offset="0.11726" stop-color="#fff" stop-opacity="0.98315"/><stop offset="0.24178" stop-color="#fff" stop-opacity="0.93311"/><stop offset="0.36972" stop-color="#fff" stop-opacity="0.84977"/><stop offset="0.50005" stop-color="#fff" stop-opacity="0.73295"/><stop offset="0.63228" stop-color="#fff" stop-opacity="0.58245"/><stop offset="0.766" stop-color="#fff" stop-opacity="0.39821"/><stop offset="0.8984" stop-color="#fff" stop-opacity="0.18462"/><stop offset="1" stop-color="#fff" stop-opacity="0"/></radialGradient><radialGradient id="b1fa4ab5-294f-455e-99ca-576bb81aaea4" cx="202.3248" cy="121.96536" r="16.70128" xlink:href="#a01df302-0d58-4bab-ac0d-bb665e86028c"/><radialGradient id="b8ccbade-bf9d-44ef-957b-839c1a860a64" cx="171.55827" cy="198.44852" r="16.70128" xlink:href="#a01df302-0d58-4bab-ac0d-bb665e86028c"/><radialGradient id="afbb1acb-9a79-4f8d-b84b-0b67bb1d4534" cx="171.17937" cy="205.2054" r="17.66106" xlink:href="#a01df302-0d58-4bab-ac0d-bb665e86028c"/></defs><g style="isolation:isolate"><g id="b8506cd8-f900-4265-9518-c529d8b0d67d" data-name="Layer 1"><path d="M270.464,74.91458a2.8847,2.8847,0,0,1-1.36921,1.96646l-90.79569,50.55955c-4.24976,2.37692-8.06152,2.64511-10.66788,1.1519L58.10745,65.02781a1.202,1.202,0,0,1-.91343-1.14114c-.02686.24163-.03482.39031-.03482.39031V164.0989c0,3.59749,1.343,6.12886,3.552,7.39453L167.50864,233.573c2.60347,1.4916,6.411,1.22368,10.656-1.15061l78.14445-43.70758c7.84693-4.38882,14.20809-14.30014,14.20809-22.13756V76.04575C270.51723,75.65046,270.4961,75.27692,270.464,74.91458Z" fill-rule="evenodd" opacity="0.5" fill="url(#ba90ca1f-5426-4598-8bca-c40f6b0c06e7)"/><path id="e850313b-e415-4940-ab03-460e7eaa903d" data-name="Floor" d="M60.948,145.4516l88.56369-49.4507c4.72836-2.64465,8.18443-2.32975,11.49732-.57335l105.09243,61.0901c2.70082,1.49062,4.41573,3.76192,4.41573,7.80677v2.25284c0,7.83741-6.36115,17.74873-14.20808,22.13756l-78.14444,43.7076c-4.245,2.37427-8.05257,2.64218-10.65606,1.15062h0L60.71124,171.49344h0c-2.20907-1.26565-3.552-3.79706-3.552-7.39455V152.55563S57.3775,147.58328,60.948,145.4516Z" fill-rule="evenodd" fill="url(#a0d5624a-4653-43f1-94a6-ce4c2cff7902)"/><path id="b9e3df74-3e59-4afb-91fe-ade314fe2af9" data-name="Grass" d="M149.51174,96.00089,60.948,145.4516c-3.15683,1.88466-3.6924,5.98374-3.77437,6.90975a1.21683,1.21683,0,0,0,.9338,1.26727L167.63126,217.1933c2.60636,1.49321,6.41812,1.225,10.66788-1.15189l90.79569-50.55956a2.85442,2.85442,0,0,0,1.38886-2.05617,7.90406,7.90406,0,0,0-4.3822-6.908L161.009,95.42756a12.1236,12.1236,0,0,0-2.70527-1.065h-4.77309A15.85666,15.85666,0,0,0,149.51174,96.00089Z" fill="#b1c854" fill-rule="evenodd"/><polygon points="189.417 184.637 166.482 197.391 140.17 182.12 163.111 169.353 189.417 184.637" fill="#eef0f3"/><g id="e4094860-15ae-4f3e-84d0-365cc334914b" data-name="Roads"><g id="b21c7426-13e6-4532-a54c-27fbbc306721" data-name="Roads (Merged)"><path id="a5ab2135-52f2-4b66-bf27-da83cf5e72c8" data-name="Roads" d="M215.78628,185.46931l-36.8234-21.37126L230.16355,135.627l-13.33376-7.75087-51.21147,28.4771-60.866-35.3249-13.3177,7.43612,60.83909,35.30929-30.45989,16.93782c-4.15907,2.3127-3.85148,7.55224-3.84481,7.65916l13.4099,7.7554c.08348-3.62213,1.64788-6.3838,4.117-7.83581l.018-.03158,30.10444-16.74013L202.66,193.01648l.01721.03158a7.96691,7.96691,0,0,1,3.94457,7.2342l12.84791-7.14392S219.81233,187.80589,215.78628,185.46931Z" fill="#4d575f" fill-rule="evenodd"/><path id="b20debae-6534-40f8-9922-18e3ae2de6e7" data-name="Road Lines" d="M125.00415,190.01558a10.9835,10.9835,0,0,0-.21419,2.08427.35692.35692,0,0,1-.04986.18675l-.67659-.39129a12.09271,12.09271,0,0,1,.22477-2.01778.36453.36453,0,0,1,.71587.138ZM129.73,142.819l-3.70814-2.15188a.36445.36445,0,0,0-.36576.63048l3.70814,2.15187a.36444.36444,0,1,0,.36576-.63047Zm14.31225,32.12844-3.68466,2.04941a.36411.36411,0,1,0,.35438.63617l3.68465-2.04941a.36411.36411,0,1,0-.35437-.63617Zm-7.36932,4.0981-3.68536,2.0494a.36411.36411,0,1,0,.35437.63617l3.68537-2.0494a.36411.36411,0,1,0-.35438-.63617Zm-14.3585-40.53029-3.70814-2.15187a.36444.36444,0,0,0-.36576.63047l3.70814,2.15188a.36445.36445,0,1,0,.36576-.63048Zm14.83114,8.60749-3.70743-2.15187a.36445.36445,0,0,0-.36576.63048l3.70743,2.15187a.36445.36445,0,1,0,.36576-.63048Zm18.17422,11.39056,2.77577,1.61079.74157-.41237-3.15158-1.8289a.36445.36445,0,0,0-.36576.63048Zm17.19929,1.43267,1.35693-.75474a.36411.36411,0,1,0-.35437-.63617l-1.73568.96538Zm-57.62093-25.73518L111.19,132.059a.36444.36444,0,0,0-.36577.63047l3.70814,2.15188a.36445.36445,0,1,0,.36576-.63048Zm62.486,22.978a.3621.3621,0,0,0,.17719-.04625l3.68466-2.0494a.36411.36411,0,0,0-.35438-.63617l-3.68466,2.0494a.36427.36427,0,0,0,.17719.68242Zm-32.82234-5.76159-3.70814-2.15258a.36444.36444,0,1,0-.36576.63047l3.70814,2.15259a.36445.36445,0,0,0,.36576-.63048ZM107.4826,129.90708l-3.70814-2.15187a.36445.36445,0,1,0-.36576.63048l3.70814,2.15187a.36445.36445,0,0,0,.36576-.63048Zm-7.41628-4.30374-1.72-.9982-.67371.37621a.35431.35431,0,0,0,.13721.15518l1.89072,1.09728a.36444.36444,0,1,0,.36576-.63047Zm47.83792,28.60625,3.70742,2.15188a.36445.36445,0,1,0,.36576-.63048L148.27,153.57912a.36444.36444,0,1,0-.36576.63047Zm-18.60132,28.93409-.98272.5465a7.23508,7.23508,0,0,0-2.39239,2.164.36389.36389,0,1,0,.59347.42127,6.54369,6.54369,0,0,1,2.1533-1.94907l.98271-.54651a.3641.3641,0,1,0-.35437-.63616Zm81.56341-44.93816a.36379.36379,0,0,0-.49527-.14089l-3.68466,2.0494a.36411.36411,0,1,0,.35438.63617l3.68466-2.04941A.36361.36361,0,0,0,210.86633,138.20552Zm-7.51092,4.59337a.36411.36411,0,1,0-.35438-.63617l-3.68465,2.0494a.36411.36411,0,1,0,.35437.63617Zm.53312,43.05976-3.70743-2.15188a.36445.36445,0,1,0-.36576.63048l3.70743,2.15187a.36444.36444,0,1,0,.36576-.63047Zm5.62092,3.28687-1.91278-1.135a.36445.36445,0,0,0-.36576.63048l1.71637.99623.09749.07757a8.67972,8.67972,0,0,1,1.63241,1.27661.36431.36431,0,1,0,.518-.51236A9.33577,9.33577,0,0,0,209.50945,189.14552Zm13.12036-57.89792-1.20407.66953a.36411.36411,0,1,0,.35438.63617l1.58228-.87985Zm-9.77941,62.86488a.36525.36525,0,0,0-.2761.43549,10.7871,10.7871,0,0,1,.24123,2.09922.35374.35374,0,0,0,.04839.16416l.66748-.37115a11.44308,11.44308,0,0,0-.2455-2.05162A.36461.36461,0,0,0,212.8504,194.11248Zm4.89068-60.14595-3.68465,2.0494a.36411.36411,0,1,0,.35437.63617l3.68466-2.0494a.36411.36411,0,1,0-.35438-.63617Zm-29.125,17.02855a.36411.36411,0,1,0-.35437-.63617l-3.68466,2.04941a.3641.3641,0,1,0,.35438.63616Zm-14.39052,17.64786-1.31855-.76519-.74157.41242,1.69436.98325a.36445.36445,0,1,0,.36576-.63048Zm-16.50966-1.29848-2.61824,1.45624a.36411.36411,0,1,0,.35438.63617l2.997-1.66692Zm23.92523,5.60223-3.70814-2.15187a.36444.36444,0,1,0-.36576.63047l3.70814,2.15188a.36445.36445,0,0,0,.36576-.63048Zm-30.22884-2.0973-3.68465,2.0494a.36411.36411,0,1,0,.35437.63617l3.68466-2.0494a.36411.36411,0,0,0-.35438-.63617ZM196.473,181.5549l-3.70814-2.15188a.36445.36445,0,0,0-.36576.63048l3.70814,2.15187a.36444.36444,0,1,0,.36576-.63047ZM195.9861,146.897a.36411.36411,0,0,0-.35438-.63617l-3.68537,2.0494a.36411.36411,0,1,0,.35438.63617Zm-6.92942,30.35345-3.70742-2.15187a.36444.36444,0,1,0-.36576.63047l3.70742,2.15188a.36445.36445,0,0,0,.36576-.63048Z" fill="#fff"/><path id="b96763fd-92f1-49c5-b521-e20ac8ff174c" data-name="Stop Lines" d="M159.19979,159.92235l-6.92607,3.85135-.73366-.4258.3795-.211,6.54658-3.64031Zm13.69783-.187-6.5379-3.79442-.7414.41223,6.53795,3.79447Zm6.06526,4.36267-7.1601,3.98153.73366.4258,6.7806-3.77049.3795-.211Zm-21.62547,3.457,7.53956,4.37576.74135-.41224-7.53956-4.37575Z" fill="#fff"/></g></g><g id="ad9dad5c-08a2-4cc2-ad2e-cdd511c3a612" data-name="Comcast Tower"><g id="f91f1d03-7988-4e24-a69c-5a612fadaeeb" data-name="Slanted Rear"><polygon id="e2b879b6-dc36-4d14-afce-3798ee42065a" data-name="Building" points="144.809 124.922 132.611 131.747 130.984 130.792 133.682 89.156 141.146 85.078 142.716 85.923 144.809 124.922" fill="#dce0e3"/><polygon id="ba2e9461-4115-4229-baae-6a7b8a075add" data-name="Shade" points="142.716 85.923 144.809 124.922 132.611 131.747 135.309 89.879 142.716 85.923" fill="#c7ccd1"/><polygon id="ac2fe3c1-4824-499c-85a9-d901c3a4c7d1" data-name="Top" points="133.682 89.156 135.309 89.879 142.716 85.927 142.716 85.923 141.146 85.078 133.682 89.156" fill="#eef0f3"/></g><g id="ea5f39cb-0566-4bad-9886-d02bb2310b7c" data-name="Tower"><polygon id="f5201488-7fca-4dae-9349-4841410a241f" data-name="Building" points="151.613 128.886 139.415 135.711 132.614 131.742 132.614 86.388 144.87 79.664 151.613 83.734 151.613 128.886" fill="#dce0e3"/><polygon id="a008faa4-9928-4d47-b80d-4f3f944fd5a6" data-name="Shade" points="151.613 83.734 151.613 128.886 139.415 135.711 139.415 83.734 151.613 83.734" fill="#c7ccd1"/><polygon id="a700066d-2465-4263-a8ec-4c0712f36f8c" data-name="Top" points="132.614 86.388 139.415 90.125 151.613 83.738 151.613 83.734 144.87 79.664 132.614 86.388" fill="#eef0f3"/></g><g id="e9736a82-3ddd-41b5-8dca-fb3d9614f923" data-name="Slanted Front"><polygon id="f57b3150-e46f-4228-af31-db21d6f3d369" data-name="Building" points="153.24 129.829 141.043 136.654 139.415 135.699 142.113 94.062 149.578 89.984 151.147 90.829 153.24 129.829" fill="#dce0e3"/><polygon id="b3ad452e-aeee-4d0c-9c32-e72632530190" data-name="Shade" points="151.147 90.829 153.24 129.829 141.043 136.654 143.741 94.785 151.147 90.829" fill="#c7ccd1"/><polygon id="a47e3dcf-69b2-4474-9924-f3eac01fc257" data-name="Top" points="142.113 94.062 143.741 94.785 151.147 90.833 151.147 90.829 149.578 89.984 142.113 94.062" fill="#eef0f3"/><g id="ee8fd951-b111-48c3-aa29-6725afab6836" data-name="Hole"><polygon id="b5137172-bb42-4240-9f38-d6ac76b5d185" data-name="Top" points="145.363 97.665 145.363 99.239 149.886 96.894 149.886 96.894 148.278 96.117 145.363 97.665" fill="#eef0f3"/><polygon id="be5ff6a7-e129-4d63-9af2-26da16cc41cf" data-name="Building" points="148.278 94.252 148.278 96.116 149.886 96.894 149.869 93.42 148.278 94.252" fill="#dce0e3"/></g></g></g><g id="b5984583-469a-4c46-88fe-48785a1d6062" data-name="Comcast Tower 2"><g id="a1122304-6863-4721-8976-5430280320d7" data-name="Tower"><polygon id="b929b1a3-dd85-4845-a466-f9ebe9670667" data-name="Building" points="183.976 137.364 164.286 148.381 153.306 141.975 153.306 136.344 173.09 125.489 183.976 132.058 183.976 137.364" fill="#dce0e3"/><polygon id="bb740e8c-b359-4861-b36d-2624b389683c" data-name="Shade" points="183.976 132.058 183.976 137.364 164.286 148.381 164.286 132.058 183.976 132.058" fill="#c7ccd1"/><polygon id="bafacb3b-f2be-47e7-a87f-2117588c9850" data-name="Top" points="153.306 136.344 164.286 142.376 183.976 132.065 183.976 132.058 173.09 125.489 153.306 136.344" fill="#eef0f3"/></g><g id="a0f8f2d0-18ac-4044-ba2a-5265814c1378" data-name="Tower"><polygon id="aa2a0dc7-d02e-404d-98ea-8b210a089d83" data-name="Building" points="181.344 130.89 165.332 139.849 156.404 134.639 156.404 102.482 172.492 93.656 181.344 98.998 181.344 130.89" fill="#dce0e3"/><polygon id="bce85bcb-0ac3-4233-b063-13028d21fcb2" data-name="Shade" points="181.344 98.998 181.344 130.89 165.332 139.849 165.332 98.998 181.344 98.998" fill="#c7ccd1"/><polygon id="e3632ab5-bda4-412b-a840-2107e79cc7df" data-name="Top" points="156.404 102.482 165.332 107.388 181.344 99.003 181.344 98.998 172.492 93.656 156.404 102.482" fill="#eef0f3"/></g><g id="e9b0e424-4301-4ab7-bf34-bbc48fd56ee5" data-name="Tower"><polygon id="fba6587e-acb7-4616-8af6-b2bafe079878" data-name="Building" points="179.598 97.833 163.31 106.304 158.576 103.699 158.576 89.228 173.828 85.373 179.598 83.625 179.598 97.833" fill="#dce0e3"/><polygon id="e76b547b-fab7-43b6-a106-cf0cbcd01005" data-name="Shade" points="179.598 83.625 179.598 97.833 163.31 106.304 163.31 89.878 179.598 83.625" fill="#c7ccd1"/><polygon id="f431198c-2375-4305-b147-8f1ee8e3508c" data-name="Top" points="158.576 89.228 163.31 91.528 179.598 83.631 179.598 83.625 174.939 80.888 158.576 89.228" fill="#eef0f3"/></g><g id="f10708f1-9ca5-48e6-8b71-69f6cd194bdd" data-name="Tower"><polygon id="a765541f-db0b-4e33-b55d-c7cfe7c72311" data-name="Building" points="179.598 83.639 176.004 85.477 171.179 82.781 171.179 75.623 174.811 73.852 179.598 76.614 179.598 83.639" fill="#dce0e3"/><polygon id="acb2a2b0-6948-45fd-a023-1d919d8c66ba" data-name="Shade" points="179.598 76.614 179.598 83.639 176.004 85.477 176.004 76.366 179.598 76.614" fill="#c7ccd1"/><polygon id="e5a7e57e-56dd-4e6b-9bea-63d8e51ae3a8" data-name="Top" points="171.179 75.623 176.004 78.167 179.598 76.617 179.598 76.614 174.811 73.852 171.179 75.623" fill="#eef0f3"/></g><g id="b2b01357-1539-42bd-a3fd-4a52df0af86c" data-name="Tower"><polygon id="f73b81e9-19c8-4c8f-82a3-c29528d787a1" data-name="Building" points="178.058 75.69 174.465 77.528 173.338 76.99 173.338 69.832 176.969 68.06 178.058 68.665 178.058 75.69" fill="#dce0e3"/><polygon id="a3611441-a425-4bc4-8160-7649aeebf42e" data-name="Shade" points="178.058 68.665 178.058 75.69 174.465 77.528 174.465 69.727 178.058 68.665" fill="#c7ccd1"/><polygon id="a799a85e-2fb1-437c-bdfa-5717b038b560" data-name="Top" points="173.338 69.832 174.465 70.393 178.058 68.668 178.058 68.665 176.97 68.06 173.338 69.832" fill="#eef0f3"/></g></g><g id="aab46ec6-5c46-4e64-8751-a5b7bc763216" data-name="Generic Towers"><g id="a5288ec2-e3d1-4e54-a105-6b56ec5722d2" data-name="Tower"><polygon id="a090d02a-926f-4734-ad84-9361303c491e" data-name="Building" points="236.06 152.077 223.17 159.558 210.143 152.314 210.143 120.808 223.17 113.564 236.06 121.045 236.06 152.077" fill="#dce0e3"/><polygon id="b5e0b6d6-64a0-4ebb-82c0-613d01f19ac0" data-name="Shade" points="236.06 121.045 236.06 152.077 223.17 159.558 223.17 121.045 236.06 121.045" fill="#c7ccd1"/><polygon id="bb6b1df5-d741-46e8-9918-192b295757fb" data-name="Top" points="210.143 120.808 223.17 127.506 236.06 121.056 236.06 121.045 223.17 113.564 210.143 120.808" fill="#eef0f3"/></g><g id="bbcd9335-d4e1-4011-ad0b-d287bfafb058" data-name="Tower"><polygon id="e25694f1-381e-4303-9271-78ba25279aa2" data-name="Building" points="214.295 163.979 201.404 171.46 188.377 164.216 188.377 138.539 201.404 131.295 214.295 138.777 214.295 163.979" fill="#dce0e3"/><polygon id="a590be37-78cb-41f2-8212-7ed238555518" data-name="Shade" points="214.295 138.777 214.295 163.979 201.404 171.46 201.404 138.777 214.295 138.777" fill="#c7ccd1"/><polygon id="e5c64d01-33d7-4837-945f-bc8a47ccec41" data-name="Top" points="188.377 138.539 201.404 145.237 214.295 138.787 214.295 138.777 201.404 131.295 188.377 138.539" fill="#eef0f3"/></g><g id="f5ccdb81-1e81-4190-97c4-f55c7813404e" data-name="Tower"><polygon id="beaf3dc0-aca5-49ff-9a2b-dda6b3e68a78" data-name="Building" points="236.155 174.909 223.265 182.391 210.237 175.147 210.237 159.671 223.265 152.427 236.155 159.908 236.155 174.909" fill="#dce0e3"/><polygon id="add2952c-e1f6-4f15-8f6c-fd3e6472bc3b" data-name="Shade" points="236.155 159.908 236.155 174.909 223.265 182.391 223.265 159.908 236.155 159.908" fill="#c7ccd1"/><polygon id="e67ba56f-a5af-48af-b65c-132333c5f8e9" data-name="Top" points="210.237 159.671 223.265 166.369 236.155 159.919 236.155 159.908 223.265 152.427 210.237 159.671" fill="#eef0f3"/></g></g><g id="b9536a69-3a46-4f0b-8032-ed3aa61b33ec" data-name="Red Lights"><g id="bbaff054-c4c0-4d56-a8bc-62d2c08ee697" data-name="Red Light"><polygon id="a1f629ac-105c-4bff-8930-027ea527451c" data-name="Box" points="160.904 146.086 161.847 146.61 161.847 149.976 160.358 150.84 159.4 150.327 159.4 146.961 160.904 146.086" fill="#ffc335"/><polygon id="a5a4f1e3-522c-4a51-8776-1e0de9d9a197" data-name="Shade" points="161.847 146.61 160.358 147.469 160.358 150.84 161.847 149.976 161.847 146.61" fill="#e5af30"/><ellipse id="b9eec257-2734-46d3-b0f5-dba8edafce68" data-name="Green Light" cx="161.07684" cy="149.39825" rx="0.4534" ry="0.58636" fill="#b1c854"/><ellipse id="b5e03f75-b7db-47b5-b25d-eafbbc410f30" data-name="Red Light" cx="161.07684" cy="147.9409" rx="0.4534" ry="0.58636" fill="#f7706c"/></g><polyline points="162.906 144.918 149.447 152.383 149.447 163.904" fill="none" stroke="#7d858c" stroke-linecap="round" stroke-linejoin="round" stroke-width="2"/><g id="ec9ea031-a92d-4d75-9380-63f5e50609e2" data-name="Red Light"><polygon id="a096803b-54d8-4a52-86a6-2202ea2bbca5" data-name="Box" points="176.374 149.73 175.431 150.254 175.431 153.62 176.919 154.484 177.877 153.97 177.877 150.604 176.374 149.73" fill="#ffc335"/><polygon id="f3a4eed9-21c3-43dd-b62c-acb3abf44989" data-name="Shade" points="177.877 150.599 176.919 151.113 176.919 154.484 177.877 153.97 177.877 150.599" fill="#e5af30"/><ellipse id="a35af4af-101d-42d5-83dc-2b1786242e5c" data-name="Green Light" cx="176.20093" cy="153.04164" rx="0.4534" ry="0.58636" fill="#b1c854"/><ellipse id="f89bbe4a-67de-451c-b71b-3f42f45184dc" data-name="Red Light" cx="176.20093" cy="151.58428" rx="0.4534" ry="0.58636" fill="#f7706c"/></g><polyline id="b78db96b-5e53-468f-b3c6-a60ed0daa214" data-name="Light Pole" points="178.963 151.237 165.618 143.448 165.618 154.969" fill="none" stroke="#7d858c" stroke-linecap="round" stroke-linejoin="round" stroke-width="2"/></g><g id="b67cc839-4876-4c26-ab8f-101ef34d13f7" data-name="Left"><g id="b3dd7432-eaea-40f3-a83f-e26f8c3e27d7" data-name="Tank"><ellipse id="a8fbfd7b-82d7-4f33-a756-1befe4f7a8d0" data-name="Shadow" cx="87.26643" cy="143.46456" rx="4.76676" ry="2.28841" opacity="0.1"/><path id="a80a4a6d-59cf-429a-a6c1-9180ef821c40" data-name="Legs - Background" d="M90.665,137.64643l.66795,5.25254.87491-.72048" fill="none" stroke="#9ba5ae" stroke-linecap="round" stroke-linejoin="round" fill-rule="evenodd"/><path d="M89.49268,142.95513l1.50819-3.03572h-7.295l1.754,3.0403h.0037a3.5532,3.5532,0,0,0,4.02422,0h.00258l.00138-.0028.00089-.00062Z" fill="#7d858c"/><rect x="83.31943" y="121.91085" width="8.06766" height="20.32744" rx="4.03383" fill="url(#a2904b78-2446-486a-9368-151fd0fc5199)"/><path d="M87.35326,138.3751c-2.2278,0-4.03383-.8967-4.03383-2.00288v1.48849a7.16653,7.16653,0,0,0,8.06766,0v-1.48849C91.38709,137.4784,89.58109,138.3751,87.35326,138.3751Z" fill="#7d858c"/><path id="b62b272f-5d0a-4d15-8de2-26b07b040df8" data-name="Legs - Foreground" d="M86.74831,140.56114l-.668,5.25254-.51615.54651m-2.91471-1.45736.51615-.5465.668-5.25255" fill="none" stroke="#9ba5ae" stroke-linecap="round" stroke-miterlimit="10" fill-rule="evenodd"/></g><g id="b7f46681-5fd3-4241-9858-e746a36a2e3a" data-name="Tank"><ellipse id="b6a76936-1087-43cd-81ee-355f14146895" data-name="Shadow" cx="77.79363" cy="147.83662" rx="4.76676" ry="2.28841" opacity="0.1"/><path id="a75b8114-0164-4825-ad8f-9face591aa9a" data-name="Legs - Background" d="M81.19215,142.01849l.668,5.25254.87491-.72048" fill="none" stroke="#9ba5ae" stroke-linecap="round" stroke-linejoin="round" fill-rule="evenodd"/><path d="M80.01988,147.32719l1.50819-3.03572h-7.295l1.754,3.0403h.0037a3.5532,3.5532,0,0,0,4.02422,0h.00258l.00138-.0028.00089-.00062Z" fill="#7d858c"/><rect x="73.84663" y="126.28291" width="8.06766" height="20.32744" rx="4.03383" fill="url(#a0455215-6285-4d9b-9d5b-9fa0ed48c172)"/><path d="M77.88046,142.74717c-2.22779,0-4.03383-.89671-4.03383-2.00289v1.48849a7.16653,7.16653,0,0,0,8.06766,0v-1.48849C81.91429,141.85046,80.10829,142.74717,77.88046,142.74717Z" fill="#7d858c"/><path id="bbfe5b94-8751-46b7-ae38-8ce7bfe72844" data-name="Legs - Foreground" d="M77.27551,144.9332l-.66795,5.25254-.51615.54651m-2.9147-1.45735.51614-.54651.668-5.25255" fill="none" stroke="#9ba5ae" stroke-linecap="round" stroke-miterlimit="10" fill-rule="evenodd"/></g><g id="b505b5c4-a13e-4554-9074-5ce520c8a818" data-name="Warehouse"><g id="b899a989-bba7-4ee1-8b5d-e254a8f261cc" data-name="Dirt Road"><polygon id="a24816c9-1d21-4902-8cb6-e48e5fbf913c" data-name="Dirt Road" points="131.479 175.337 120.209 168.695 128.681 163.989 139.964 170.619 131.479 175.337" fill-rule="evenodd" fill="url(#e8a7bce2-9f4f-4c5b-aaf9-9bb1107863c8)"/><polygon id="b9dfa10f-83c3-4c2f-98c4-2d3bfd07d14f" data-name="Shade" points="121.564 168.335 132.472 174.663 137.267 172.093 126.453 165.606 121.564 168.335" fill-rule="evenodd" opacity="0.1"/></g><polygon id="b0300cfa-a3d3-47d2-9232-fa639b6303da" data-name="Building" points="81.557 145.548 81.557 154.548 113.188 173.132 135.618 160.615 135.618 151.716 81.557 145.548" fill="#dce0e3"/><polygon id="bd618390-e938-40f3-9b63-09bc57d12b67" data-name="Shade" points="135.618 151.716 135.618 160.615 113.188 173.132 113.188 151.716 135.618 151.716" fill="#c7ccd1"/><path id="ece3e176-a23d-455d-843c-3b51ba54b015" data-name="Opening" d="M126.82505,156.748l-5.064,2.82644v8.79889h0l5.064-2.855V156.748Z" fill="#2a2f34" fill-rule="evenodd"/><path id="f6d50a51-1692-4118-889d-f3dcf5389c9c" data-name="Windows" d="M86.2044,150.46662v3.85722l-2.12656-1.24937V149.213Zm2.48195,1.50675v3.86144l2.12656,1.24937V153.227ZM93.454,154.739v3.86144l2.12657,1.24937v-3.85722Zm4.53958,2.66926v3.86144l2.12656,1.24937v-3.85722Zm4.403,2.64724V163.917l2.12657,1.24937v-3.85721Zm5.48215,3.17042v3.86144l2.12657,1.24937v-3.85721Z" fill="#fff"/><g id="fd3d7815-1300-43ec-b42a-d83de96ae7e4" data-name="Roof"><polygon points="124.017 153.364 135.618 151.716 103.988 133.132 92.622 134.984 124.017 153.364" fill="#3e7794"/><polygon points="124.017 153.364 113.188 164.065 81.557 145.548 92.622 134.984 124.017 153.364" fill="#4585a5"/></g><g id="add213d4-f4f3-476a-baf4-a149f1c52272" data-name="Smoke Stack"><path d="M99.73845,135.71261v-9.53442h.25528c0,.19337.27433.35013.61273.35013s.61272-.15676.61272-.35013h.2553v9.20632A1.24694,1.24694,0,0,1,99.73845,135.71261Z" fill="url(#a8ce5cd0-60bb-4898-8002-5ba8778d895c)"/><ellipse id="b74bf36b-b7e6-4a3d-8de6-2a30dc5195b9" data-name="Hole" cx="100.60646" cy="126.17819" rx="0.61272" ry="0.35013" fill="#2a2f34"/><path id="a0b77e50-99eb-4ba5-97b1-56c14a4c4f4b" data-name="Top" d="M100.60646,125.86757c.30022,0,.5436.13907.5436.31062s-.24338.31063-.5436.31063-.54359-.13907-.54359-.31063.24338-.31062.54359-.31062m0-.18539c-.47862,0-.868.22251-.868.496s.38939.496.868.496.868-.22251.868-.496-.38939-.496-.868-.496Z" fill="#eef0f3"/><path d="M95.46116,113.74029a3.07944,3.07944,0,0,0,1.65794,3.88759,2.984,2.984,0,0,0,1.08624,3.4874c1.82946,7.14631,3.20155,6.28875,4.40213.17151a3.05368,3.05368,0,0,0,1.48643-3.03,3.13719,3.13719,0,0,0,.40019-6.11724,3.58733,3.58733,0,0,0-3.60174-1.77229C99.40592,104.30716,89.62977,110.4244,95.46116,113.74029Z" fill="url(#b6e71ec9-b3ff-4ed7-984f-d8825c850a30)"/></g></g><g id="e49786ff-4c88-4a3d-a824-d2b1fe27af5f" data-name="Truck"><g id="a7205b3d-9e0b-4cf8-81ff-bdd78bf74387" data-name="Wheel"><path id="efdf2f3d-ad1b-4315-93a2-27a3e462652d" data-name="3D" d="M124.694,168.06138a2.29318,2.29318,0,0,0-1.07723-1.8534.74731.74731,0,0,0-.72272-.05048l.002-.00689-.48758.26147.00565.00253a.80181.80181,0,0,0-.35464.75185,2.2931,2.2931,0,0,0,1.07727,1.8534.7492.7492,0,0,0,.71822.05248l-.00191.00672.48758-.26147-.00552-.00244A.79893.79893,0,0,0,124.694,168.06138Z" fill="#262a2f" fill-rule="evenodd"/><path id="ba007863-7797-4561-8365-0cf4b27173b6" data-name="Tire" d="M123.13673,166.46518c-.59495-.31814-1.07725-.00415-1.07725.7013a2.29316,2.29316,0,0,0,1.07725,1.85338c.59495.31814,1.07725.00416,1.07725-.7013A2.29317,2.29317,0,0,0,123.13673,166.46518Z" fill="#2a2f34" fill-rule="evenodd"/><path id="a2120b1d-3682-45f2-ad2b-a1c408ac5027" data-name="Wheel" d="M123.13673,166.9811c-.35465-.18964-.64215-.00247-.64215.418a1.36694,1.36694,0,0,0,.64215,1.10479c.35465.18964.64215.00248.64215-.418A1.367,1.367,0,0,0,123.13673,166.9811Z" fill="#9ba5ae" fill-rule="evenodd"/></g><g id="e6246503-f914-4643-b69c-528f16161aca" data-name="Wheel"><path id="b858149c-cd97-4269-a55d-bbe22ed0eee2" data-name="3D" d="M127.0405,169.39148a2.29319,2.29319,0,0,0-1.07723-1.85341.74731.74731,0,0,0-.72272-.05048l.002-.00689-.48758.26147.00565.00253a.80183.80183,0,0,0-.35464.75185,2.2931,2.2931,0,0,0,1.07727,1.8534.7492.7492,0,0,0,.71822.05248l-.00191.00672.48758-.26147-.00552-.00244A.79892.79892,0,0,0,127.0405,169.39148Z" fill="#262a2f" fill-rule="evenodd"/><path id="befd83da-f57f-44c2-b20c-508c65518f70" data-name="Tire" d="M125.48319,167.79527c-.59495-.31814-1.07725-.00415-1.07725.7013a2.29316,2.29316,0,0,0,1.07725,1.85338c.595.31814,1.07725.00416,1.07725-.7013A2.29317,2.29317,0,0,0,125.48319,167.79527Z" fill="#2a2f34" fill-rule="evenodd"/><path id="bbe44bd5-4d69-4e27-b9b1-f0b3fec7ad30" data-name="Wheel" d="M125.48319,168.31119c-.35465-.18964-.64215-.00247-.64215.418a1.36694,1.36694,0,0,0,.64215,1.10479c.35465.18964.64215.00248.64215-.418A1.367,1.367,0,0,0,125.48319,168.31119Z" fill="#9ba5ae" fill-rule="evenodd"/></g><g id="b6c5abba-2aee-4c93-9bbb-b375a6231e5d" data-name="Gas Tank"><path d="M130.99651,170.1208l.00093-.00142-1.7242-.9974-.001.00147a.13538.13538,0,0,0-.12907.00467l-.89772.43323a.33038.33038,0,0,0-.1795.26618v.89769a.10449.10449,0,0,0,.04754.09184l-.003.00431.00743.00431.00178.001,1.74484,1.01233.00845-.01285a.13774.13774,0,0,0,.103-.007l.89772-.43323a.33034.33034,0,0,0,.17955-.26618V170.222A.10338.10338,0,0,0,130.99651,170.1208Z" fill-rule="evenodd" fill="url(#f457afe6-2b40-455d-a48d-2d7b24bb6913)"/><path d="M130.87381,170.12916l-.89771.43324a.33038.33038,0,0,0-.17954.26618v.8977c0,.09916.08038.14076.17954.09291l.89771-.43324a.3304.3304,0,0,0,.17954-.26618v-.89771C131.05335,170.1229,130.973,170.0813,130.87381,170.12916Z" fill="#7d858c" fill-rule="evenodd"/></g><g id="a37af944-d433-4f5f-97c0-d636d58bddfe" data-name="Trailer"><path id="ae691cf9-208e-4059-bfa1-8d6d7daa4501" data-name="Trailer" d="M126.2231,157.99314l-3.86014,2.1545v5.85371l7.49052,4.29786,3.86015-2.17627v-5.83511Z" fill="#9ba5ae" fill-rule="evenodd"/><path id="a45db36b-4cca-43e3-94a9-823b61ceb67c" data-name="Shade" d="M133.71363,162.291l-3.86015,2.1545v5.85371h0l3.86015-2.17627V162.291Z" fill="#7d858c" fill-rule="evenodd"/><path id="a459926e-bbcd-4319-bf1c-69b0b9caf7ab" data-name="Shine" d="M126.2231,157.99314l-3.86014,2.1545v-.00874l7.49052,4.29786,3.86015-2.17627v.02734Z" fill="#bfc4c7" fill-rule="evenodd"/></g><g id="a393dfe8-2107-44c9-a6de-8c92a65fb1eb" data-name="Wheel"><path id="a2a278dc-eb3e-4be2-a2f7-0c885942951e" data-name="3D" d="M132.86991,172.813a2.29316,2.29316,0,0,0-1.07723-1.8534.74727.74727,0,0,0-.72271-.05048l.00195-.00689-.48757.26147.00564.00253a.80181.80181,0,0,0-.35464.75185,2.29312,2.29312,0,0,0,1.07727,1.8534.74922.74922,0,0,0,.71823.05248l-.00191.00672.48757-.26147-.00551-.00245A.79891.79891,0,0,0,132.86991,172.813Z" fill="#262a2f" fill-rule="evenodd"/><path id="a7e0037d-ad10-4347-a9fa-337ea656b030" data-name="Tire" d="M131.31261,171.21676c-.595-.31814-1.07725-.00416-1.07725.7013a2.29317,2.29317,0,0,0,1.07725,1.85338c.59494.31814,1.07725.00416,1.07725-.7013A2.2932,2.2932,0,0,0,131.31261,171.21676Z" fill="#2a2f34" fill-rule="evenodd"/><path id="a3223f16-5f9a-41fa-8bc5-d637401ec39a" data-name="Wheel" d="M131.31261,171.73268c-.35465-.18964-.64215-.00248-.64215.418a1.367,1.367,0,0,0,.64215,1.1048c.35464.18964.64214.00248.64214-.418A1.367,1.367,0,0,0,131.31261,171.73268Z" fill="#9ba5ae" fill-rule="evenodd"/></g><g id="a1e83824-71f7-4cdb-bf49-9577699cc123" data-name="Cab"><path id="fe3514f8-9285-4808-baf4-35beb08e480f" data-name="Cab" d="M134.45391,165.19985l2.334,1.43634.89771,2.51358v2.89628l-3.86015,2.13089-1.07725-.62094a2.66435,2.66435,0,0,0-1.19563-2.4132l-.95887-.5567v-3.30392Z" fill="#f7706c" fill-rule="evenodd"/><path id="fe61d187-4d39-41cb-9645-2ebd0a00de22" data-name="Shade" d="M133.82551,171.14638l3.86015-1.99661v2.89628l-3.86015,2.13089Z" fill="#de6561" fill-rule="evenodd"/><path id="b0696f41-05f7-4919-8648-9c2161c9c2e0" data-name="Bumper" d="M133.82551,174.06108l3.86015-1.9966" fill="none" stroke="#9ba5ae" stroke-linecap="round" stroke-miterlimit="10" fill-rule="evenodd"/><path id="b4f7f5d7-7ea5-4c7d-a6cb-a024923bcfc7" data-name="Top" d="M130.59376,167.28218l3.86015-2.08233,2.334,1.43634-3.98308,1.98661Z" fill="#f99b98" fill-rule="evenodd"/><path id="fee41ef8-8f3e-460e-8ec5-a752a03c40d6" data-name="Window" d="M136.59327,167.13437l.6741,1.85358L133.97,170.7006l-.81141-1.7809Z" fill-rule="evenodd" fill="url(#b6a113da-2d38-487b-a948-2422fc2f8e30)"/></g></g></g><g id="ffa7a2b7-3a27-4d16-9f34-f42b1921200c" data-name="Fountain"><ellipse id="f6d51647-c847-4374-b280-34da027a1119" data-name="Concrete" cx="165.49724" cy="190.17387" rx="19.7866" ry="10.10839" fill="#eef0f3"/><ellipse id="a1a9036e-fac1-4a1b-89af-095e9687773a" data-name="Water" cx="165.49724" cy="189.44519" rx="11.88828" ry="6.07337" fill="#6ab9ec"/><g id="bd11e419-0004-44cd-9efb-89e796d4e6d2" data-name="Bench"><polygon id="b2a39b8e-5bdb-4925-9aea-c94cf4abb332" data-name="Shade" points="174.626 182.176 178.685 184.449 180.407 183.496 176.58 181.364 174.626 182.176" fill-rule="evenodd" opacity="0.1"/><path id="b391932e-5691-41af-9398-faa896a9d60d" data-name="Legs" d="M178.41175,183.975v-.98584l1.3627-.75465v1.04042m-3.25628-1.74049V180.494l-1.36269.75465v.98583" fill="none" stroke="#7d858c" stroke-linecap="round" stroke-miterlimit="10" stroke-width="0.5"/><g id="ac1f215a-a4a8-4802-8c70-029f32dce94a" data-name="Seat"><polygon id="e9c23fee-19f3-4ae9-b24a-bfb682858822" data-name="Bench" points="180.407 182.418 178.685 183.372 174.626 181.098 174.626 180.495 176.484 179.779 180.407 181.863 180.407 182.418" fill="#a47854"/><polygon id="a6d84762-9e86-4cf0-9304-090fba7847de" data-name="Shade" points="180.407 181.863 180.407 182.418 178.685 183.372 178.685 182.222 180.407 181.863" fill="#936c4b"/><polygon id="aa71704c-51fe-431b-a4c6-dd450ebdf024" data-name="Top" points="174.626 180.495 178.685 182.83 180.407 181.873 180.407 181.863 176.484 179.779 174.626 180.495" fill="#bfa188"/></g><g id="b44f8205-24cf-4549-8f67-7d2b032058c5" data-name="Back"><polygon id="a611dc83-704f-4c05-a441-43a4c51c8600" data-name="Bench" points="180.565 181.686 180.147 181.933 176.258 179.847 176.258 177.965 176.627 177.857 180.565 179.864 180.565 181.686" fill="#a47854"/><polygon id="ecce75b6-773c-471e-a934-456c0ef97f05" data-name="Shade" points="180.565 179.864 180.565 181.686 180.147 181.933 180.147 179.964 180.565 179.864" fill="#936c4b"/><polygon id="be3178b6-4197-4244-9d9e-239b74b87473" data-name="Top" points="176.258 177.965 180.147 180.124 180.565 179.875 180.565 179.864 176.729 177.775 176.258 177.965" fill="#bfa188"/></g></g><g id="ff683a54-32a4-40cd-852f-161052650a4d" data-name="Bench"><polygon id="b7c7d15f-34ec-4c89-8650-88c8426e3041" data-name="Shade" points="154.923 182.368 150.864 184.641 149.143 183.688 152.969 181.556 154.923 182.368" fill-rule="evenodd" opacity="0.1"/><path id="f49f052b-428f-497e-a82b-87ac1128ff35" data-name="Legs" d="M151.13767,184.16721v-.98584l-1.36269-.75465v1.04041m3.25627-1.74048v-1.04042l1.3627.75465v.98584" fill="none" stroke="#7d858c" stroke-linecap="round" stroke-miterlimit="10" stroke-width="0.5"/><g id="b4fd5948-10f7-4019-8b01-4ea4c59e5214" data-name="Seat"><polygon id="b9d9535a-6a73-4779-a088-88d2f0ac1787" data-name="Bench" points="149.143 182.611 150.864 183.564 154.923 181.291 154.923 180.688 153.065 179.971 149.143 182.055 149.143 182.611" fill="#936c4b"/><polygon id="a808339e-c5c6-4189-8b0d-cab52a4d7000" data-name="Shade" points="149.143 182.055 149.143 182.611 150.864 183.564 150.864 182.415 149.143 182.055" fill="#a47854"/><polygon id="a6caddf5-7d40-4d6a-88e5-26e6e637a324" data-name="Top" points="154.923 180.688 150.864 183.022 149.143 182.065 149.143 182.055 153.065 179.971 154.923 180.688" fill="#bfa188"/></g><g id="bd10fa8d-b85c-4caa-b194-7a7447118583" data-name="Back"><polygon id="ecefa61e-204e-4fef-ae7b-2d4442510bc3" data-name="Bench" points="148.984 181.879 149.403 182.125 153.291 180.04 153.291 178.157 152.922 178.049 148.984 180.056 148.984 181.879" fill="#936c4b"/><polygon id="bafc2a3b-1295-4b0e-88f0-01a35568b46a" data-name="Shade" points="148.984 180.056 148.984 181.879 149.403 182.125 149.403 180.157 148.984 180.056" fill="#a47854"/><polygon id="a7932f67-0da1-4701-89fd-e0f462d70662" data-name="Top" points="153.291 178.157 149.403 180.316 148.984 180.067 148.984 180.056 152.821 177.967 153.291 178.157" fill="#bfa188"/></g></g><path id="eee91044-2f46-4162-bbdb-853527a91b6e" data-name="Fountain" d="M166.05738,185.17185c4.22156.15763,7.55144,1.972,7.55144,4.18834,0,2.31944-3.64653,4.19813-8.14483,4.19813-4.49886,0-8.14483-1.87869-8.14483-4.19813,0-2.22087,3.34618-4.04014,7.58254-4.18834m1.03633,1.98844c1.53022.11639,2.70445.79866,2.70445,1.62074,0,.90387-1.42324,1.63857-3.17849,1.63857-1.756,0-3.179-.73505-3.179-1.63857,0-.82627,1.187-1.511,2.72993-1.62284m-.11317,1.62005v-7.39765s-.06-4.75282-2.01475-4.75282c-1.95424,0-2.48842,3.09468-2.54706,5.41517m5.71805,6.7353v-7.39765s.05883-4.75282,2.01363-4.75282c1.955,0,2.48842,3.09468,2.54725,5.41517m-9.75112-7.70909s1.65145-2.33308,3.14307-.89479c1.35279,1.30128,1.46971,4.27328,1.46971,4.27328m.71293-2.60465s1.3541-4.03141,3.68925-1.1003m-4.40218-.7728v-3.74724" fill="none" stroke="#97cef2" stroke-linecap="round" stroke-miterlimit="10" stroke-width="1.054"/></g><path id="a85932fc-f8b9-44b9-9ae4-6b8774bd389c" data-name="Surface" d="M149.3911,7.14188,60.82738,56.59259c-3.15683,1.88467-3.6924,5.98374-3.77436,6.90975a1.21682,1.21682,0,0,0,.93379,1.26727L167.51062,128.3343c2.60636,1.4932,6.41813,1.225,10.66788-1.1519l90.79569-50.55956a2.85441,2.85441,0,0,0,1.38887-2.05616,7.90407,7.90407,0,0,0-4.38221-6.908L160.88839,6.56855a12.1236,12.1236,0,0,0-2.70527-1.065H153.41A15.85681,15.85681,0,0,0,149.3911,7.14188Z" fill-rule="evenodd" fill="url(#b4572a7c-90a8-49b4-bdd7-dc2825216205)"/><circle cx="273.98914" cy="202.5687" r="23.52816" fill="#fff"/><circle cx="273.98914" cy="202.5687" r="23.52816" fill="none" stroke="#4d575f" stroke-miterlimit="10" stroke-width="1.3945"/><circle cx="252.34469" cy="78.13016" r="23.52816" fill="#fff"/><circle cx="252.34469" cy="78.13016" r="23.52816" fill="none" stroke="#4d575f" stroke-miterlimit="10" stroke-width="1.3945"/><circle cx="68.22781" cy="54.25407" r="23.52816" fill="#fff"/><circle cx="68.22781" cy="54.25407" r="23.52816" fill="none" stroke="#4d575f" stroke-miterlimit="10" stroke-width="1.3945"/><ellipse cx="67.93184" cy="42.70026" rx="7.43941" ry="5.78462" fill="#2a2f34"/><ellipse cx="67.93184" cy="42.70026" rx="5.72693" ry="4.45305" fill="#070809"/><path d="M99.291,42.38813h0a2.72937,2.72937,0,0,1,2.72937,2.72937v2.06038a0,0,0,0,1,0,0H96.56168a0,0,0,0,1,0,0V45.11751A2.72937,2.72937,0,0,1,99.291,42.38813Z" transform="translate(2.13633 -4.46322) rotate(2.60306)" fill="#a6afb7"/><path d="M76.13756,48.71552,91.81321,46.229l10.62036.60554a1.8068,1.8068,0,0,1,1.70394,1.80387h0a1.80679,1.80679,0,0,1-1.8068,1.80679H94.78617L76.13756,56.66145Z" fill="#eef0f3"/><path d="M39.99293,47.04848l-5.45.25-.08-1.76-.01-.3a2.16135,2.16135,0,0,1,.02-.44,2.57234,2.57234,0,0,1,.21-.78,2.72115,2.72115,0,0,1,4.88-.22,2.418,2.418,0,0,1,.28.75,3.11462,3.11462,0,0,1,.06.44l.01.3Z" fill="#a6afb7"/><path d="M60.093,48.71847v7.94l-6.64-2.21-.06-.02-2.54-.85-1.59-.53-7.82-2.6h-7.54a1.8066,1.8066,0,0,1-.11-3.61005l10.62-.61,5.71.91,1.96.31,1.31.21,1.12.18Z" fill="#eef0f3"/><polygon points="54.513 47.838 54.513 54.449 53.453 54.449 53.393 54.428 50.586 53.489 51.679 47.384 53.393 47.658 54.513 47.838" fill="#c7ccd1"/><polygon points="81.716 47.838 81.716 54.449 82.776 54.449 82.836 54.428 85.643 53.489 84.55 47.384 82.836 47.658 81.716 47.838" fill="#c7ccd1"/><path d="M61.02928,41.25983H75.19985a4.35291,4.35291,0,0,1,4.35291,4.35291v8.83807a0,0,0,0,1,0,0H56.67637a0,0,0,0,1,0,0V45.61274A4.35291,4.35291,0,0,1,61.02928,41.25983Z" fill="#c7ccd1"/><path d="M52.08571,71.59249a1.50017,1.50017,0,0,1-1.45948-1.84717l3.46533-14.5664a1.5002,1.5002,0,1,1,2.91895.69433L54.1443,67.92013l2.98242-.88086,2.81445-10.3916a1.49991,1.49991,0,1,1,2.89551.78418l-3.0332,11.20068a1.49966,1.49966,0,0,1-1.023,1.04639l-6.27,1.852A1.49041,1.49041,0,0,1,52.08571,71.59249Z" fill="#c7ccd1"/><path d="M62.83929,57.41977l-3.04,11.2a1.498,1.498,0,0,1-1.02,1.05l-5.39,1.59.79-3.36,2.95-.87005,2.81-10.4a1.50283,1.50283,0,0,1,2.9.79Z" fill="#9ba5ae"/><path d="M84.14332,71.59249a1.49036,1.49036,0,0,1-.4248-.06152l-6.27-1.852a1.49966,1.49966,0,0,1-1.02295-1.04639l-3.0332-11.20068a1.4999,1.4999,0,1,1,2.8955-.78418l2.81446,10.3916,2.98242.88086L79.21852,55.87325a1.50019,1.50019,0,1,1,2.91894-.69433l3.46533,14.5664a1.50016,1.50016,0,0,1-1.45947,1.84717Z" fill="#c7ccd1"/><path d="M73.38973,57.41977l3.04,11.2a1.498,1.498,0,0,0,1.02,1.05l5.38995,1.59-.79-3.36-2.95-.87005-2.81-10.4a1.50283,1.50283,0,0,0-2.9.79Z" fill="#9ba5ae"/><path d="M77.87294,58.08846a9.76,9.76,0,1,1-19.52,0Z" fill="#c7ccd1"/><circle cx="68.11451" cy="63.39306" r="3.27629" fill="#9ba5ae"/><circle cx="68.11451" cy="63.39306" r="2.31669" fill="#2a2f34"/><circle cx="68.11451" cy="63.39306" r="1.87264" fill="#070809"/><path d="M83.913,54.08846a4.05588,4.05588,0,0,1-.18006,1.2,4.01038,4.01038,0,0,1-3.81994,2.8h-23.6a3.97947,3.97947,0,0,1-3.81-2.8,4.05385,4.05385,0,0,1-.12-.5,3.85365,3.85365,0,0,1-.06-.69l.86-7.43a2.00135,2.00135,0,0,1,1.99-1.77h25.89a1.99161,1.99161,0,0,1,1.98,1.77Z" fill="#eef0f3"/><path d="M73.203,47.17849a.57915.57915,0,0,1-.59.59h-8.45a.59.59,0,1,1,0-1.18006h8.45A.5911.5911,0,0,1,73.203,47.17849Z" fill="#a6afb7"/><path d="M73.203,49.45852a.57914.57914,0,0,1-.59.59h-8.45a.59.59,0,1,1,0-1.18h8.45A.5911.5911,0,0,1,73.203,49.45852Z" fill="#a6afb7"/><path d="M73.203,51.8185a.57914.57914,0,0,1-.59.59h-8.45a.57914.57914,0,0,1-.59-.59.58479.58479,0,0,1,.59-.59h8.45A.58479.58479,0,0,1,73.203,51.8185Z" fill="#a6afb7"/><path d="M73.05293,47.57851a.59656.59656,0,0,1-.44.19h-8.45a.59657.59657,0,0,1-.44-.19.5966.5966,0,0,1,.44-.19h8.45A.59659.59659,0,0,1,73.05293,47.57851Z" fill="#677480"/><path d="M73.05293,49.85848a.59655.59655,0,0,1-.44.19h-8.45a.59656.59656,0,0,1-.44-.19.5966.5966,0,0,1,.44-.19h8.45A.59659.59659,0,0,1,73.05293,49.85848Z" fill="#677480"/><path d="M73.05293,52.21847a.63659.63659,0,0,1-.44.19h-8.45a.6366.6366,0,0,1-.44-.19.57292.57292,0,0,1,.44-.2h8.45A.57292.57292,0,0,1,73.05293,52.21847Z" fill="#677480"/><path d="M39.913,45.28847c-.11.01-.23.02-.35.03-.78.07-1.6.12-2.44.16-.85.04-1.66.06-2.44.06h-.22l-.01-.3a2.16135,2.16135,0,0,1,.02-.44,2.57234,2.57234,0,0,1,.21-.78,2.72115,2.72115,0,0,1,4.88-.22,2.418,2.418,0,0,1,.28.75,3.11462,3.11462,0,0,1,.06.44Z" fill="#85929d"/><path d="M96.54039,45.28847c.11005.01.23.02.35.03.78.07,1.6.12,2.44.16.85.04,1.66.06,2.44.06h.22l.01-.3a2.16206,2.16206,0,0,0-.02-.44,2.57207,2.57207,0,0,0-.21-.78,2.72114,2.72114,0,0,0-4.88-.22,2.41773,2.41773,0,0,0-.28.75,3.11462,3.11462,0,0,0-.06.44Z" fill="#85929d"/><path d="M46.663,41.90847a.38611.38611,0,0,1-.06.2.89405.89405,0,0,1-.22.21c-.74.55-2.92,1.06-5.78,1.38-.34.03-.68006.07-1.04.1-.78.07-1.6.12-2.44.16-.85.04-1.66.06-2.44.06-3.43,0-6.12-.34-6.96-.88a.49214.49214,0,0,1-.28-.36c-.04-.89,4.23-1.81994,9.53-2.06C42.283,40.47848,46.62294,41.00851,46.663,41.90847Z" fill="#dce0e3"/><path d="M109.013,42.77846c-.03.67-2.48,1.14-5.95,1.22-1.15.03-2.41.02-3.73-.04-5.31-.24-9.58-1.16-9.54-2.05.04-.84,3.84-1.36,8.68-1.22.33,0,.66.01,1,.03.34.02.67.03,1,.05,4.35.28,7.82,1.00994,8.44,1.75994A.38259.38259,0,0,1,109.013,42.77846Z" fill="#dce0e3"/><path d="M46.603,42.10848a.89405.89405,0,0,1-.22.21c-.74.55-2.92,1.06-5.78,1.38L36.98277,41.702Z" fill="#fff"/><path d="M109.013,42.77846c-.03.67-2.48,1.14-5.95,1.22l-2.99-1.96-.36-.24.6.05,8.6.68A.38259.38259,0,0,1,109.013,42.77846Z" fill="#fff"/><path d="M37.65152,41.999a.68384.68384,0,0,0,.3567-.6241l-.05258-1.1565a1,1,0,1,0-1.99793.09084l.05306,1.16727a.61874.61874,0,0,0,.31012.53008A1.33638,1.33638,0,0,0,37.65152,41.999Z" fill="#677480"/><path d="M98.80185,41.999a.68382.68382,0,0,1-.3567-.6241l.05258-1.1565a1,1,0,1,1,1.99793.09084l-.05306,1.16727a.61874.61874,0,0,1-.31012.53008A1.33638,1.33638,0,0,1,98.80185,41.999Z" fill="#677480"/><path d="M77.87294,58.08846a9.80811,9.80811,0,0,1-.06,1.09h-19.4a9.80811,9.80811,0,0,1-.06-1.09Z" fill="#a6afb7"/><circle cx="68.11296" cy="63.39306" r="0.98929" fill="#a3779f" opacity="0.4"/><g opacity="0.5"><path d="M66.7424,63.92191c-.01465,0-.02979-.00049-.04444-.002a.49983.49983,0,0,1-.4541-.542,2.28871,2.28871,0,0,1,.81641-1.564.49983.49983,0,0,1,.6416.7666,1.29631,1.29631,0,0,0-.46192.88525A.49993.49993,0,0,1,66.7424,63.92191Z" fill="#dce0e3"/></g><g opacity="0.5"><path d="M63.49893,39.97917c-.0167-.01285-.03353-.02668-.049-.0412a.719.719,0,0,1-.04241-1.01627,3.29243,3.29243,0,0,1,2.3026-1.06723.719.719,0,1,1,.0592,1.43683,1.8648,1.8648,0,0,0-1.30312.60426A.71917.71917,0,0,1,63.49893,39.97917Z" fill="#dce0e3"/></g><circle cx="159.30296" cy="76.36596" r="16.70128" fill="url(#a01df302-0d58-4bab-ac0d-bb665e86028c)"/><circle cx="202.3248" cy="121.96536" r="16.70128" fill="url(#b1fa4ab5-294f-455e-99ca-576bb81aaea4)"/><circle cx="171.55827" cy="198.44852" r="16.70128" fill="url(#b8ccbade-bf9d-44ef-957b-839c1a860a64)"/><circle cx="171.17937" cy="205.2054" r="17.66106" fill="url(#afbb1acb-9a79-4f8d-b84b-0b67bb1d4534)"/><path d="M170.3475,73.28578a.1027.1027,0,0,0-.02683-.06711,4.99671,4.99671,0,0,0-2.2649-.47235l.00561-.1233a.26841.26841,0,0,0-.53627-.02438l-.00573.1262-.00092,0c-1.29912-.03759-2.31907.102-2.3298.32745-.00905.20087.801.407,1.9059.50592l-.00087.00138-.0075.01589c-.00837.016-.01594.03226-.02315.049a.64215.64215,0,0,0-.02762.07656c-.00518.017-.01053.03381-.0145.05141l-.00239.00847a.832.832,0,0,0-.01469.10778l-.00171.01158-.01833.40316-1.2529-.07145-2.32461.36874-.02941-.25078a.53457.53457,0,0,0-.53146-.47508h-.42469a1.166,1.166,0,0,0-1.149-.97666h-.01892a2.18208,2.18208,0,0,0-3.8665.00826,1.16265,1.16265,0,0,0-1.06716.9684h-.42286a.53719.53719,0,0,0-.53414.47508l-.02917.252-.26607-.04264-.003-.00048-.10547-.01691,0,.00022-.41755-.066-1.53262-.24426-1.19327.06854-.01458-.32085-.00268-.08052a.83552.83552,0,0,0-.01611-.1181.64888.64888,0,0,0-.07516-.20131c.09662-.008.18789-.01879.27916-.02683a4.17,4.17,0,0,0,1.5514-.37041.23967.23967,0,0,0,.05906-.05638.10364.10364,0,0,0,.01611-.05368c-.01006-.22614-1.03171-.3652-2.33148-.32919l-.00567-.12443a.26841.26841,0,0,0-.53626.02438l.00565.1243c-1.29631.0816-2.30115.31472-2.29111.53846a.1321.1321,0,0,0,.07517.09664,4.80052,4.80052,0,0,0,1.86812.2362.69024.69024,0,0,0-.05635.20935.58013.58013,0,0,0-.00538.1181l.00269.08052.01535.33773-.19518.0112a.48491.48491,0,0,0,.02952.969H152.211l2.099.69786.42617.14207.396.13252-.00084.00724a1.03444,1.03444,0,0,0,.01611.1852,1.088,1.088,0,0,0,.03221.13421,1.06228,1.06228,0,0,0,.30663.474l-.81036,3.40633a.40259.40259,0,0,0,.50576.47929l1.68294-.49711a.40254.40254,0,0,0,.27457-.28086l.29012-1.07134a2.61681,2.61681,0,0,0,3.88109-.00073l.29033,1.07207a.40254.40254,0,0,0,.27457.28086l1.68294.49711a.40262.40262,0,0,0,.50576-.47929l-.81055-3.40716a1.07145,1.07145,0,0,0,.30866-.47321,1.08919,1.08919,0,0,0,.04833-.3221l-.00057-.00485,2.91906-.973h2.025a.485.485,0,0,0,.02761-.96914l-.13481-.00768.01546-.34022h.00041l.00112-.03327.00211-.04654c.00082-.01814-.00244-.03531-.00293-.05316-.00087-.02165,0-.04327-.003-.06565l-.00089-.00477c-.00287-.02321-.00772-.04554-.01273-.06807-.00454-.02118-.00979-.04164-.01622-.06213-.00632-.01993-.01294-.03942-.02088-.05859l-.00564-.01579-.00141-.00272c.11823,0,.23714.00025.34833-.00265C169.68185,73.59177,170.33944,73.46562,170.3475,73.28578ZM163.111,80.0315l-.00068-.00289-.79179-.23353-.00515-.019-.43708-1.61767a2.60337,2.60337,0,0,0,.09683-.4707,2.6319,2.6319,0,0,0,.01611-.29258h.50263l.62786,2.63893Zm-6.68958-.23642-.7918.23353-.00067.00289-.00874.00257.62786-2.63893h.5018a2.63432,2.63432,0,0,0,.0161.29258,2.60254,2.60254,0,0,0,.09725.47229l-.43666,1.61608Z" fill="#4d575f"/><rect x="158.42029" y="66.74438" width="2" height="2" fill="#4d575f"/><rect x="158.42029" y="60.51196" width="2" height="3.11621" fill="#4d575f"/><polygon points="160.42 57.396 158.42 57.396 158.42 56.396 157.42 56.396 157.42 54.396 160.42 54.396 160.42 57.396" fill="#4d575f"/><path d="M153.48328,56.39575h-3.93653v-2h3.93653Zm-7.87305,0h-3.937v-2h3.937Zm-7.87354,0h-3.93652v-2h3.93652Zm-7.873,0h-3.93653v-2h3.93653Zm-7.87354,0h-3.93652v-2h3.93652Zm-7.873,0h-3.93653v-2h3.93653Zm-7.873,0h-3.937v-2h3.937Zm-7.87354,0H94.434v-2h3.93652Z" fill="#4d575f"/><rect x="201.50134" y="115.71557" width="2" height="2" fill="#4d575f"/><path d="M203.50134,112.06176h-2V108.408h2Zm0-7.30762h-2v-3.6538h2Zm0-7.30761h-2V93.79272h2Zm0-7.30762h-2V86.4851h2Z" fill="#4d575f"/><polygon points="203.501 82.831 201.501 82.831 201.501 79.831 204.501 79.831 204.501 81.831 203.501 81.831 203.501 82.831" fill="#4d575f"/><path d="M222.68005,81.83129h-4.54492v-2h4.54492Zm-9.08935,0h-4.54492v-2h4.54492Z" fill="#4d575f"/><polygon points="198.389 121.536 198.389 123.496 196.875 123.243 196.875 121.536 198.389 121.536" fill="#4d575f"/><rect x="196.87479" y="121.71018" width="1.32002" height="0.80584" fill="#4d575f"/><path d="M208.81076,125.14083a1.60248,1.60248,0,0,1-1.062-.98593,1.76736,1.76736,0,0,1,.44556-1.51818.63252.63252,0,0,0,.06658-.70251c-.2081-.26831-.82-.228-1.63722.1078l-.19436-.47316c1.37615-.56548,1.97548-.28393,2.23592.05184a1.12163,1.12163,0,0,1-.061,1.32219,1.31125,1.31125,0,0,0-.36324,1.07237,1.1363,1.1363,0,0,0,.75784.64966Z" fill="#4d575f"/><path d="M204.64147,123.86674l-.08953.51676-.10746.63443a1.05732,1.05732,0,0,1-2.07469.05117l-.14838-.6856-.11256-.51676Z" fill="#4d575f"/><path d="M205.21367,126.9909a.50952.50952,0,0,1-.32027-.11292l-1.8527-1.49033a.51165.51165,0,1,1,.6413-.79743l1.8527,1.49032a.51164.51164,0,0,1-.321.91036Z" fill="#4d575f"/><path d="M209.0431,126.9909H205.214a.51164.51164,0,0,1,0-1.02328h3.82905a.51164.51164,0,0,1,0,1.02328Z" fill="#4d575f"/><circle cx="205.21409" cy="126.4793" r="0.23397" fill="#4d575f"/><circle cx="203.36138" cy="124.98893" r="0.23397" fill="#4d575f"/><path d="M209.67856,124.11233V128.845a1.6466,1.6466,0,0,1-.3556-.03838,2.18708,2.18708,0,0,1-1.59375-1.82912,2.66021,2.66021,0,0,1-.046-.49883,2.28762,2.28762,0,0,1,1.63979-2.328A1.646,1.646,0,0,1,209.67856,124.11233Z" fill="#4d575f"/><path d="M210.20554,123.64418v5.669h-.33768a.54531.54531,0,0,1-.5449-.50652.21989.21989,0,0,1-.00256-.04093v-4.574a.22.22,0,0,1,.00256-.04094.5453.5453,0,0,1,.5449-.50652Z" fill="#4d575f"/><polygon points="204.641 123.867 204.552 124.384 202.221 124.384 202.109 123.867 204.641 123.867" fill="#4d575f"/><rect x="197.8873" y="120.02445" width="9.44591" height="4.15722" fill="#4d575f"/><path d="M207.33321,122.608h-7.85515l-2.30893-.61671a1.77388,1.77388,0,0,1-1.25394-1.24827l-.23-.84586h11.64806Z" fill="#4d575f"/><path d="M204.29619,122.29708a.1275.1275,0,0,1-.09043-.03747l-.91661-.9166a.1279.1279,0,0,1,.18088-.18088l.9166.91661a.12791.12791,0,0,1-.09044.21834Z" fill="#4d575f"/><path d="M205.20243,122.29708a.12752.12752,0,0,1-.09044-.03747l-.9166-.9166a.1279.1279,0,1,1,.18087-.18088l.91661.91661a.12791.12791,0,0,1-.09044.21834Z" fill="#4d575f"/><path d="M206.10854,122.29708a.12748.12748,0,0,1-.09043-.03747l-.91661-.9166a.1279.1279,0,0,1,.18087-.18088l.91661.91661a.12791.12791,0,0,1-.09044.21834Z" fill="#4d575f"/><path d="M210.20554,126.9775v2.33564h-.33768a.54531.54531,0,0,1-.5449-.50652,2.18708,2.18708,0,0,1-1.59375-1.82912Z" fill="#4d575f" opacity="0.5"/><polygon points="302.557 218.111 245.739 218.111 251.262 198.473 295.89 198.473 302.557 218.111" fill="#b2ec8b"/><path d="M302.55733,218.11075H290.829a1.42139,1.42139,0,0,1-.39725-.54948c-.25237-.67287.327-1.21906,1.297-1.22234l1.96209-.00824a.742.742,0,0,0,.51133-.16944.34765.34765,0,0,0,.09-.39812,1.11982,1.11982,0,0,0-1.0249-.55936l-6.05734.02468a2.34191,2.34191,0,0,1-1.95764-1.19767c-.25237-.67123.3292-1.21741,1.29709-1.22235l3.49391-.01316a.74218.74218,0,0,0,.51138-.16945.347.347,0,0,0,.09-.39812,1.11911,1.11911,0,0,0-1.02709-.561l-1.63948.00658a2.42053,2.42053,0,0,1-2.21-1.20754c-.25237-.67122.3292-1.21906,1.297-1.22234l12.4636-.051Z" fill="#6ab9ec"/><polygon points="297.122 204.286 275.381 204.286 275.381 201.292 270.56 201.292 270.56 199.356 269.35 199.356 269.35 201.292 264.012 201.292 264.222 199.318 263.017 199.318 262.23 206.43 249.353 206.43 249.353 207.337 256.878 207.337 255.285 217.423 256.486 217.53 258.097 207.337 263.343 207.337 263.912 202.652 274.171 202.652 274.171 217.476 275.381 217.476 275.381 213.851 280.083 213.851 280.271 217.494 281.48 217.459 281.247 212.944 275.381 212.944 275.381 205.193 289.143 205.193 289.672 207.253 290.901 207.237 290.376 205.193 297.122 205.193 297.122 204.286" fill="#d4f4bd"/><polygon points="259.244 208.277 264.8 208.277 265.277 203.283 272.708 203.283 272.516 213.194 258.566 213.194 259.244 208.277" fill="#d4f4bd"/><polygon points="258.425 213.926 264.894 213.926 264.054 216.03 258.072 216.03 258.425 213.926" fill="#d4f4bd"/><polygon points="272.466 213.926 272.466 216.03 265.317 216.03 266.157 213.926 272.466 213.926" fill="#d4f4bd"/><polygon points="258.147 203.291 261.496 203.291 261.21 205.688 257.786 205.688 258.147 203.291" fill="#d4f4bd"/><polygon points="261.842 200.396 261.605 202.384 258.282 202.384 258.582 200.396 261.842 200.396" fill="#d4f4bd"/><polygon points="253.575 200.396 257.559 200.396 256.722 205.687 252.387 205.687 253.575 200.396" fill="#d4f4bd"/><polygon points="281.062 200.396 282.103 203.42 276.59 203.42 276.59 200.396 281.062 200.396" fill="#d4f4bd"/><polygon points="287.715 200.396 288.622 203.42 283.352 203.42 282.311 200.396 287.715 200.396" fill="#d4f4bd"/><polygon points="294.426 203.42 289.864 203.42 288.956 200.396 293.569 200.396 294.426 203.42" fill="#d4f4bd"/><polygon points="251.71 208.039 255.634 208.039 254.527 213.926 252.502 213.926 252.265 215.161 249.96 215.161 251.71 208.039" fill="#d4f4bd"/><polygon points="279.692 209.63 279.886 212.18 276.433 212.18 276.433 209.403 279.692 209.63" fill="#d4f4bd"/><polygon points="279.622 208.714 276.433 208.492 276.433 205.953 282.057 205.953 282.236 207.594 279.538 207.594 279.622 208.714" fill="#d4f4bd"/><polygon points="286.384 207.594 283.448 207.594 283.272 205.953 286.188 205.953 286.384 207.594" fill="#d4f4bd"/><polygon points="291.836 205.953 295.343 205.953 296.096 208.292 292.484 208.292 291.836 205.953" fill="#d4f4bd"/><g opacity="0.3" style="mix-blend-mode:multiply"><polygon points="302.557 218.111 245.739 218.111 251.262 198.473 295.89 198.473 302.557 218.111" fill="#122306"/></g><polygon points="302.557 212.524 245.739 212.524 251.262 192.887 295.89 192.887 302.557 212.524" fill="#b2ec8b"/><path d="M302.55733,212.52439H290.829a1.42129,1.42129,0,0,1-.39725-.54947c-.25237-.67287.327-1.21906,1.297-1.22235l1.96209-.00823a.742.742,0,0,0,.51133-.16945.34764.34764,0,0,0,.09-.39812,1.11983,1.11983,0,0,0-1.0249-.55935l-6.05734.02468a2.34192,2.34192,0,0,1-1.95764-1.19768c-.25237-.67122.3292-1.2174,1.29709-1.22234l3.49391-.01317a.74218.74218,0,0,0,.51138-.16944.347.347,0,0,0,.09-.39813,1.11912,1.11912,0,0,0-1.02709-.561l-1.63948.00658a2.42052,2.42052,0,0,1-2.21-1.20753c-.25237-.67123.3292-1.21907,1.297-1.22235l12.4636-.051Z" fill="#6ab9ec"/><polygon points="297.122 198.7 275.381 198.7 275.381 195.706 270.56 195.706 270.56 193.769 269.35 193.769 269.35 195.706 264.012 195.706 264.222 193.732 263.017 193.732 262.23 200.844 249.353 200.844 249.353 201.75 256.878 201.75 255.285 211.837 256.486 211.943 258.097 201.75 263.343 201.75 263.912 197.065 274.171 197.065 274.171 211.89 275.381 211.89 275.381 208.265 280.083 208.265 280.271 211.908 281.48 211.873 281.247 207.358 275.381 207.358 275.381 199.607 289.143 199.607 289.672 201.666 290.901 201.651 290.376 199.607 297.122 199.607 297.122 198.7" fill="#d4f4bd"/><polygon points="259.244 202.69 264.8 202.69 265.277 197.697 272.708 197.697 272.516 207.607 258.566 207.607 259.244 202.69" fill="#d4f4bd"/><polygon points="258.425 208.339 264.894 208.339 264.054 210.444 258.072 210.444 258.425 208.339" fill="#d4f4bd"/><polygon points="272.466 208.339 272.466 210.444 265.317 210.444 266.157 208.339 272.466 208.339" fill="#d4f4bd"/><polygon points="258.147 197.705 261.496 197.705 261.21 200.101 257.786 200.101 258.147 197.705" fill="#d4f4bd"/><polygon points="261.842 194.81 261.605 196.798 258.282 196.798 258.582 194.81 261.842 194.81" fill="#d4f4bd"/><polygon points="253.575 194.809 257.559 194.809 256.722 200.101 252.387 200.101 253.575 194.809" fill="#d4f4bd"/><polygon points="281.062 194.81 282.103 197.834 276.59 197.834 276.59 194.81 281.062 194.81" fill="#d4f4bd"/><polygon points="287.715 194.81 288.622 197.834 283.352 197.834 282.311 194.81 287.715 194.81" fill="#d4f4bd"/><polygon points="294.426 197.834 289.864 197.834 288.956 194.81 293.569 194.81 294.426 197.834" fill="#d4f4bd"/><polygon points="251.71 202.452 255.634 202.452 254.527 208.339 252.502 208.339 252.265 209.575 249.96 209.575 251.71 202.452" fill="#d4f4bd"/><polygon points="279.692 204.043 279.886 206.594 276.433 206.594 276.433 203.817 279.692 204.043" fill="#d4f4bd"/><polygon points="279.622 203.127 276.433 202.906 276.433 200.366 282.057 200.366 282.236 202.008 279.538 202.008 279.622 203.127" fill="#d4f4bd"/><polygon points="286.384 202.008 283.448 202.008 283.272 200.366 286.188 200.366 286.384 202.008" fill="#d4f4bd"/><polygon points="291.836 200.367 295.343 200.367 296.096 202.706 292.484 202.706 291.836 200.367" fill="#d4f4bd"/><g opacity="0.15" style="mix-blend-mode:multiply"><polygon points="302.557 212.524 245.739 212.524 251.262 192.887 295.89 192.887 302.557 212.524" fill="#122306"/></g><polygon points="302.239 206.664 245.421 206.664 250.944 187.027 295.572 187.027 302.239 206.664" fill="#b2ec8b"/><path d="M302.23936,206.66431H290.511a1.42157,1.42157,0,0,1-.39725-.54947c-.25236-.67287.327-1.21907,1.297-1.22235l1.96209-.00823a.742.742,0,0,0,.51132-.16945.34763.34763,0,0,0,.09-.39812,1.11987,1.11987,0,0,0-1.0249-.55936l-6.05735.02468a2.34194,2.34194,0,0,1-1.95764-1.19767c-.25236-.67122.32921-1.2174,1.29709-1.22234l3.49392-.01317a.74225.74225,0,0,0,.51138-.16944.347.347,0,0,0,.09-.39813,1.11914,1.11914,0,0,0-1.02709-.561l-1.63948.00658a2.42054,2.42054,0,0,1-2.21-1.20754c-.25236-.67122.32921-1.21906,1.297-1.22234l12.46361-.051Z" fill="#6ab9ec"/><polygon points="296.804 192.84 275.063 192.84 275.063 189.846 270.242 189.846 270.242 187.909 269.032 187.909 269.032 189.846 263.694 189.846 263.904 187.872 262.699 187.872 261.912 194.984 249.035 194.984 249.035 195.89 256.56 195.89 254.967 205.977 256.168 206.083 257.779 195.89 263.025 195.89 263.594 191.205 273.853 191.205 273.853 206.03 275.063 206.03 275.063 202.405 279.765 202.405 279.953 206.048 281.162 206.012 280.929 201.498 275.063 201.498 275.063 193.747 288.825 193.747 289.354 195.806 290.583 195.791 290.058 193.747 296.804 193.747 296.804 192.84" fill="#d4f4bd"/><polygon points="258.926 196.83 264.482 196.83 264.959 191.837 272.39 191.837 272.198 201.747 258.248 201.747 258.926 196.83" fill="#d4f4bd"/><polygon points="258.107 202.479 264.576 202.479 263.736 204.584 257.754 204.584 258.107 202.479" fill="#d4f4bd"/><polygon points="272.148 202.479 272.148 204.584 264.999 204.584 265.839 202.479 272.148 202.479" fill="#d4f4bd"/><polygon points="257.829 191.845 261.178 191.845 260.892 194.241 257.468 194.241 257.829 191.845" fill="#d4f4bd"/><polygon points="261.524 188.95 261.287 190.938 257.964 190.938 258.264 188.95 261.524 188.95" fill="#d4f4bd"/><polygon points="253.257 188.949 257.241 188.949 256.404 194.241 252.069 194.241 253.257 188.949" fill="#d4f4bd"/><polygon points="280.744 188.95 281.785 191.974 276.272 191.974 276.272 188.95 280.744 188.95" fill="#d4f4bd"/><polygon points="287.397 188.95 288.305 191.974 283.034 191.974 281.993 188.95 287.397 188.95" fill="#d4f4bd"/><polygon points="294.108 191.974 289.546 191.974 288.638 188.95 293.251 188.95 294.108 191.974" fill="#d4f4bd"/><polygon points="251.392 196.592 255.316 196.592 254.209 202.479 252.184 202.479 251.947 203.715 249.642 203.715 251.392 196.592" fill="#d4f4bd"/><polygon points="279.374 198.183 279.568 200.734 276.115 200.734 276.115 197.957 279.374 198.183" fill="#d4f4bd"/><polygon points="279.304 197.267 276.115 197.046 276.115 194.506 281.739 194.506 281.918 196.148 279.22 196.148 279.304 197.267" fill="#d4f4bd"/><polygon points="286.066 196.148 283.13 196.148 282.954 194.506 285.87 194.506 286.066 196.148" fill="#d4f4bd"/><polygon points="291.518 194.507 295.025 194.507 295.778 196.845 292.166 196.845 291.518 194.507" fill="#d4f4bd"/><path d="M171.55826,191.269a8.65214,8.65214,0,0,1,6.986,13.75659l-3.493,4.78049-3.493,4.78055-6.986-9.561a8.65212,8.65212,0,0,1,6.986-13.75659m.00085-1H171.559a9.65213,9.65213,0,0,0-7.79416,15.34656l6.986,9.561.80744,1.10508.80743-1.10508,3.493-4.78054,3.493-4.78049a9.65215,9.65215,0,0,0-7.79257-15.34656Z" fill="#fff"/><path d="M242.00477,203.928h-4v-2h4Zm-8,0h-4v-2h4Zm-8,0h-4v-2h4Zm-8,0h-4v-2h4Zm-8,0h-4v-2h4Zm-8,0h-4v-2h4Zm-8,0h-4v-2h4Zm-8,0h-4v-2h4Z" fill="#4d575f"/><path d="M171.55828,214.58659l-6.986-9.561a8.65214,8.65214,0,1,1,13.97195,0l-3.493,4.78049Z" fill="#c95050" fill-rule="evenodd"/><circle cx="171.55827" cy="199.91964" r="3.0677" fill="#fff"/><path d="M272.3349,89.84216v.42c.08-.14.16-.28.23-.42Zm-38.63-27.18a24.348,24.348,0,0,0-4.09,7.08c-.21.56-.4,1.14-.57,1.73-.07.23-.13.47-.19.7a1.89222,1.89222,0,0,0-.05.23,22.53136,22.53136,0,0,0-.59,3.6c-.07.7-.1,1.41-.1,2.13,0,.26,0,.52.02.78h1.4c-.02-.26-.02-.51995-.02-.78,0-.64.03-1.28.09-1.9a.47431.47431,0,0,1,.01-.17,21.11355,21.11355,0,0,1,.79-4.22,22.8746,22.8746,0,0,1,5.16-9.18c.15-.17.31-.33.47-.49h-1.9C233.98492,62.33215,233.84491,62.50219,233.70489,62.66216Z" fill="#4d575f"/><polygon points="229.611 68.575 229.611 76.234 223.691 75.245 223.691 68.575 229.611 68.575" fill="#677480"/><rect x="223.69086" y="69.25452" width="5.15997" height="3.15002" fill="#4d575f"/><path d="M270.34864,82.66492c-2.28516-.90381-3.68213-2.20069-4.15137-3.854-.49121-1.73242.09473-3.729,1.7417-5.93457a2.47245,2.47245,0,0,0,.26025-2.74609c-.81347-1.04883-3.20556-.89112-6.3999.42138l-.75976-1.84961c5.37939-2.21044,7.72216-1.10986,8.74023.20264a4.38448,4.38448,0,0,1-.23828,5.16846c-1.25488,1.67969-1.73242,3.09033-1.41992,4.19189.29,1.02246,1.28662,1.87744,2.9624,2.53955Z" fill="#f7706c"/><path d="M254.05085,77.68451l-.35,2.02-.42,2.48a4.13308,4.13308,0,0,1-8.11.2l-.58-2.68-.44-2.02Z" fill="#eef0f3"/><path d="M256.2877,89.89713a1.9893,1.9893,0,0,1-1.25195-.44189l-7.24219-5.82617a1.99969,1.99969,0,1,1,2.50684-3.11621l7.24218,5.82617a2,2,0,0,1-1.25488,3.5581Z" fill="#c7ccd1"/><path d="M273.19489,87.41216a18.564,18.564,0,0,1-.86,1.73005c-.11.21-.23.41-.35.61v.01a2.45236,2.45236,0,0,1-.29.08,2.11642,2.11642,0,0,1-.44.05h-14.97a1.83977,1.83977,0,0,1-.33-.03,1.09755,1.09755,0,0,1-.26-.06.14231.14231,0,0,1-.06-.02,1.19456,1.19456,0,0,1-.26-.11c-.04-.02-.07-.04-.11-.06a1.88088,1.88088,0,0,1-.23-.16c-.02-.02-.05-.04-.07-.06a1.967,1.967,0,0,1-.68-1.5,2.00583,2.00583,0,0,1,2-2h14.97a1.914,1.914,0,0,1,1.08.32995A1.94448,1.94448,0,0,1,273.19489,87.41216Z" fill="#eef0f3"/><circle cx="256.28923" cy="87.89702" r="0.91459" fill="#a6afb7"/><circle cx="249.047" cy="82.07113" r="0.91459" fill="#a6afb7"/><path d="M273.73492,78.64221v7.46c-.16.44-.34.88-.54,1.31a18.564,18.564,0,0,1-.86,1.73005c-.11.21-.23.41-.35.61v.01c-.02.03-.03.05-.05.08a23.17449,23.17449,0,0,1-3.66,4.64,9.54952,9.54952,0,0,1-2.15-4.59c0-.02-.01-.03-.01-.05a10.4,10.4,0,0,1-.18-1.95,10.12313,10.12313,0,0,1,.19-2,9.70043,9.70043,0,0,1,2.01-4.43006,7.53356,7.53356,0,0,1,1.47-1.41,6.91894,6.91894,0,0,1,2.74-1.26A6.43479,6.43479,0,0,1,273.73492,78.64221Z" fill="#c7ccd1"/><path d="M275.17493,78.1322a22.67074,22.67074,0,0,1-1.44,7.97c-.16.44-.34.88-.54,1.31a18.564,18.564,0,0,1-.86,1.73005v-10.19a.85941.85941,0,0,1,.01-.16,2.13157,2.13157,0,0,1,2.13-1.98h.66C275.16492,77.24218,275.17493,77.69219,275.17493,78.1322Z" fill="#eef0f3"/><polygon points="254.051 77.685 253.701 79.705 244.591 79.705 244.151 77.685 254.051 77.685" fill="#a6afb7"/><rect x="227.6449" y="62.66216" width="36.92999" height="16.25" fill="#c7ccd1"/><path d="M264.57489,62.17217v10.59h-30.71l-3.46-.92-.79-.22-.57-.15-.19-.05-1.21-.32-2.8-.75a7.50769,7.50769,0,0,1-1.15-.42,6.91341,6.91341,0,0,1-3.76-4.46l-.89-3.3Z" fill="#eef0f3"/><path d="M252.70118,71.5487a.49838.49838,0,0,1-.35352-.14648l-3.583-3.583a.49995.49995,0,1,1,.707-.707l3.583,3.583a.5.5,0,0,1-.35351.85351Z" fill="#a6afb7"/><path d="M256.24366,71.5487a.49838.49838,0,0,1-.35352-.14648l-3.583-3.583a.49995.49995,0,1,1,.707-.707l3.583,3.583a.5.5,0,0,1-.35351.85351Z" fill="#a6afb7"/><path d="M259.78565,71.5487a.49838.49838,0,0,1-.35352-.14648l-3.583-3.583a.49995.49995,0,1,1,.707-.707l3.583,3.583a.5.5,0,0,1-.35352.85351Z" fill="#a6afb7"/><path d="M271.93488,89.84216a23.17449,23.17449,0,0,1-3.66,4.64,9.54952,9.54952,0,0,1-2.15-4.59c0-.02-.01-.03-.01-.05Z" fill="#9ba5ae" opacity="0.5"/></g></g></svg>