<svg id="f7b2b649-6a33-45f9-85b5-cddb7ef0fcea" data-name="Layer 1" xmlns="http://www.w3.org/2000/svg" xmlns:xlink="http://www.w3.org/1999/xlink" viewBox="0 0 330 240"><defs><linearGradient id="e15f9075-f842-4a5f-a96d-cb5dae0e863f" x1="133.56299" y1="120.29402" x2="196.21224" y2="120.29402" gradientUnits="userSpaceOnUse"><stop offset="0" stop-color="#068ee3"/><stop offset="1" stop-color="#4fb9fb"/></linearGradient><linearGradient id="e81588ac-934b-469c-a0f3-9f8c7ca24659" x1="146.09284" y1="120.29402" x2="183.68239" y2="120.29402" xlink:href="#e15f9075-f842-4a5f-a96d-cb5dae0e863f"/><linearGradient id="a0904cea-1cdd-4404-bb2f-915d8213ecae" x1="165.14351" y1="167.3025" x2="165.14351" y2="85.91851" gradientUnits="userSpaceOnUse"><stop offset="0" stop-color="#56aa1c"/><stop offset="1" stop-color="#67cc22"/></linearGradient></defs><path d="M272.75328,98.77536a21.66624,21.66624,0,0,0-20.4291,15.25373h-29.4179V83.24925a20.69231,20.69231,0,0,0-20.70149-20.70149H194.8503V43.48059h30.77986A21.45182,21.45182,0,1,0,246.05927,15.697a21.66623,21.66623,0,0,0-20.42911,15.25373H188.58538a6.164,6.164,0,0,0-6.26492,6.26492V62.54776H147.72717V37.21568a6.164,6.164,0,0,0-6.26492-6.26493H103.8727A21.45182,21.45182,0,1,0,83.44359,58.73433,21.66624,21.66624,0,0,0,103.8727,43.4806h31.32462V62.54776h-7.35448a20.69232,20.69232,0,0,0-20.7015,20.70149V114.0291H77.17866a21.45182,21.45182,0,1,0-20.4291,27.78359A21.66625,21.66625,0,0,0,77.17866,126.559H106.869v30.77984a20.69231,20.69231,0,0,0,20.70149,20.70149h7.35448v19.06716H103.8727a21.45182,21.45182,0,1,0-20.42911,27.7836,21.66626,21.66626,0,0,0,20.42911-15.25373h37.58955a6.164,6.164,0,0,0,6.26492-6.26493V178.0403h34.86567v25.3321a6.16406,6.16406,0,0,0,6.26493,6.26493h37.04478a21.45182,21.45182,0,1,0,20.4291-27.78359,21.66624,21.66624,0,0,0-20.4291,15.25372H194.8503V178.0403h7.08209a20.69231,20.69231,0,0,0,20.70149-20.70149V126.55894h29.6903a21.45182,21.45182,0,1,0,20.4291-27.78358Z" fill="#6ab9ec"/><path d="M196.21224,145.35372a6.164,6.164,0,0,1-6.26492,6.26493h-50.1194a6.16406,6.16406,0,0,1-6.26493-6.26493V95.23432a6.164,6.164,0,0,1,6.26493-6.26492h49.847a6.164,6.164,0,0,1,6.26492,6.26492v50.1194Z" stroke="#1176d1" stroke-miterlimit="10" stroke-width="2.35156" fill="url(#e15f9075-f842-4a5f-a96d-cb5dae0e863f)"/><rect x="146.09284" y="101.49924" width="37.58955" height="37.58955" stroke="#1176d1" stroke-miterlimit="10" stroke-width="2.35156" fill="url(#e81588ac-934b-469c-a0f3-9f8c7ca24659)"/><path id="b6bee43d-f394-4635-8716-6e687b789283" data-name="Center Honeycomb" d="M161.43763,171.00784a7.40686,7.40686,0,0,0,6.6313-.00185c.05977-.03581.11652-.07588.17691-.1108l36.78343-21.88158c.1782-.106.36168-.20037.54359-.29815a7.39118,7.39118,0,0,0,3.31868-6.0831V97.7737a6.9864,6.9864,0,0,0-3.23757-5.85636c-.2097-.1109-.41989-.22069-.6247-.34248l-36.78343-21.883c-.04457-.02761-.08627-.05854-.1305-.08655A7.40826,7.40826,0,0,0,161.426,69.586c-.05714.03418-.1113.07246-.169.1058l-36.78343,21.883c-.1818.1081-.36881.20441-.55448.304a7.39432,7.39432,0,0,0-3.3078,6.07727v44.67625a7.55127,7.55127,0,0,0,3.43638,6.14765c.14195.078.28625.15053.4259.2336L161.257,170.89519C161.31869,170.93089,161.37662,170.9713,161.43763,171.00784Z" fill="#fafdff" fill-rule="evenodd"/><g id="a750bb52-612a-4da7-91dd-01d9d3d2d943" data-name="iModel"><path id="e15e5c2c-b041-4b43-b45b-acf349ba395c" data-name="iModel" d="M165.14351,85.91851a7.81662,7.81662,0,1,1-7.81648,7.81657A7.81653,7.81653,0,0,1,165.14351,85.91851Zm22.07006,67.60537a1.83749,1.83749,0,0,1-.89825,1.57948l-20.047,11.94018a1.83722,1.83722,0,0,1-1.876.00295l-20.4148-12.055a1.83867,1.83867,0,0,1-.90414-1.58389V142.80786a1.83855,1.83855,0,0,1,2.77936-1.58022l11.934,6.61081V122.60189l-6.4577-4.11468a1.839,1.839,0,0,1-.899-1.581V106.26968a1.83948,1.83948,0,0,1,2.783-1.57874l18.39172,10.17521a1.83851,1.83851,0,0,1,.89531,1.5781v31.3942l11.934-6.61081a1.83882,1.83882,0,0,1,2.77936,1.58022Z" fill="url(#a0904cea-1cdd-4404-bb2f-915d8213ecae)"/><path id="f6de237e-f121-4b42-8d4c-66685fd80c54" data-name="Shine - Left" d="M134.40306,103.20994l-13.39968,13.66911v20.50367l42.56369-15.27725s.70766-1.74267-4.33519-4.82439Z" fill="#fff" fill-rule="evenodd" opacity="0.3"/><path id="befb14e6-efd7-4bd6-aa5d-156a75bed40d" data-name="Shine - Edges" d="M164.78888,122.513s-.96669,18.52881-.02426,45.01538C164.76462,167.52841,165.61791,150.38445,164.78888,122.513ZM126.915,96.37538A354.87513,354.87513,0,0,0,159.626,115.673S147.64289,107.48467,126.915,96.37538Z" fill="#fff" fill-rule="evenodd" opacity="0.45"/><path id="bc0467d6-1d4d-421d-b756-4debbb0de27e" data-name="Shine - Top" d="M208.49543,97.17943l.004-1.99414a7.05632,7.05632,0,0,0-2.45343-2.69887c-.20969-.11091-.41989-.22069-.62469-.34249l-36.78344-21.883c-.04456-.02762-.08626-.05854-.13049-.08655a7.441,7.441,0,0,0-2.42188-.74419l-1.883.00039a7.44669,7.44669,0,0,0-2.38451.72455c-.05713.03418-.1113.07246-.169.1058l-36.78343,21.883c-.18179.1081-.36881.20442-.55448.304a7.37179,7.37179,0,0,0-2.91367,3.81339v.91813c3.636-3.709,5.73176-2.23235,5.73176-2.23235l31.52864,19.133a12.5414,12.5414,0,0,0,12.92691,0l31.52865-19.133S206.63908,92.84092,208.49543,97.17943Z" fill="#fff" fill-rule="evenodd" opacity="0.1"/><path id="bfe5c1d4-bf44-4fb0-a228-eb0103fba9e7" data-name="Shade" d="M163.173,170.75143s3.94108-1.05152,3.94108-6.03049V123.31157a8.71173,8.71173,0,0,1,4.33519-7.23659c4.46538-2.7025,32.31687-19.29757,32.31687-19.29757a5.14421,5.14421,0,0,1,1.97054-.402,2.52,2.52,0,0,1,2.36465,2.81423V140.9005s.72378,5.95984-5.51751,9.64879-33.10509,19.80011-33.10509,19.80011S167.46791,171.86016,163.173,170.75143Z" fill-rule="evenodd" opacity="0.05"/></g><path d="M269.12594,89.5861h6.91572v6.80328a2.21462,2.21462,0,0,0,1.7127,2.15385,22.64355,22.64355,0,0,1,11.33157,6.53945,2.21464,2.21464,0,0,0,2.72909.41085l5.88637-3.39947,3.46435,5.99881-5.90368,3.39947a2.21465,2.21465,0,0,0-.99476,2.56474,22.26966,22.26966,0,0,1,0,13.07889,2.21464,2.21464,0,0,0,1.01208,2.56474l5.88636,3.38649-3.46435,5.99882-5.90367-3.39947a2.21464,2.21464,0,0,0-2.72909.38926,22.62089,22.62089,0,0,1-11.31428,6.53943,2.21465,2.21465,0,0,0-1.7127,2.15819v6.81625h-6.91571v-6.79895a2.21465,2.21465,0,0,0-1.717-2.15819,22.68165,22.68165,0,0,1-11.34455-6.53944,2.21464,2.21464,0,0,0-2.7118-.40659L247.4662,139.086l-3.46434-5.99881,5.882-3.4038a2.21465,2.21465,0,0,0,1.01637-2.56474,22.26984,22.26984,0,0,1,0-13.07888,2.21464,2.21464,0,0,0-1.01637-2.56474l-5.882-3.38217,3.46434-5.99881,5.89934,3.39947a2.21464,2.21464,0,0,0,2.71611-.39361,22.65907,22.65907,0,0,1,11.32725-6.53945,2.21462,2.21462,0,0,0,1.717-2.15819Z" fill="#d4f4bd"/><path d="M266.90666,85.15714a2.21463,2.21463,0,0,0-2.20576,2.20576v7.8629a26.82367,26.82367,0,0,0-10.13788,5.85176l-6.79893-3.9401a2.21464,2.21464,0,0,0-3.02319.81744l-5.67443,9.84376a2.21463,2.21463,0,0,0,.80447,3.0232l6.50484,3.75845a27.03722,27.03722,0,0,0-.88233,5.99881q0,.00877,0,.01757a26.96759,26.96759,0,0,0,.8996,5.99881l-6.52213,3.75845a2.21463,2.21463,0,0,0-.8049,3.02678l.00043.00074,5.67444,9.83944a2.21464,2.21464,0,0,0,3.02318.81744l6.79894-3.92281A26.83418,26.83418,0,0,0,264.70088,145.95v7.84558a2.21463,2.21463,0,0,0,2.20577,2.22306H278.2685a2.21463,2.21463,0,0,0,2.20577-2.22306V145.95a26.80654,26.80654,0,0,0,10.13353-5.85176l6.79894,3.94009a2.21464,2.21464,0,0,0,3.02473-.81257l.0028-.00487,5.67012-9.83943a2.21463,2.21463,0,0,0-.81258-3.02472l-.00486-.00279-6.50485-3.75845a26.93253,26.93253,0,0,0,.89961-5.99882q0-.00879,0-.01758a27.07043,27.07043,0,0,0-.89961-5.99881l6.50485-3.75845a2.21463,2.21463,0,0,0,.81744-3.02319l-5.67011-9.84374a2.21464,2.21464,0,0,0-3.02265-.82024l-.00487.0028-6.79894,3.9228a26.89241,26.89241,0,0,0-10.13354-5.83445V87.3629a2.21463,2.21463,0,0,0-2.20578-2.20576Zm2.22307,4.42882h6.91572v6.80327a2.21463,2.21463,0,0,0,1.71269,2.15386,22.64364,22.64364,0,0,1,11.33158,6.53944,2.21463,2.21463,0,0,0,2.72909.41086l5.88637-3.39947,3.46435,5.99881-5.90368,3.39947a2.21464,2.21464,0,0,0-.99476,2.56474,22.26966,22.26966,0,0,1,0,13.07889,2.21465,2.21465,0,0,0,1.01208,2.56474l5.88635,3.38649-3.46434,5.99882-5.90367-3.39948a2.21464,2.21464,0,0,0-2.72909.38927,22.621,22.621,0,0,1-11.31428,6.53943,2.21465,2.21465,0,0,0-1.7127,2.15819v6.81624h-6.91571v-6.79894a2.21465,2.21465,0,0,0-1.717-2.15819,22.68172,22.68172,0,0,1-11.34455-6.53944,2.21464,2.21464,0,0,0-2.7118-.40659L247.47,139.08585l-3.46434-5.99882,5.882-3.4038a2.21463,2.21463,0,0,0,1.01637-2.56473,22.26984,22.26984,0,0,1,0-13.07888,2.21464,2.21464,0,0,0-1.01637-2.56474l-5.882-3.38217L247.47,102.0939l5.89934,3.39947a2.21463,2.21463,0,0,0,2.7161-.39361,22.659,22.659,0,0,1,11.32726-6.53945,2.21464,2.21464,0,0,0,1.717-2.15819Zm11.098,23.20377a2.213,2.213,0,0,0-1.55268,3.80142l3.98768,4.005-3.98768,3.98768a2.21463,2.21463,0,1,0,3.07663,3.18634q.03231-.03118.06332-.06367l5.55767-5.55766a2.21465,2.21465,0,0,0,0-3.12267l-5.55767-5.55763a2.21463,2.21463,0,0,0-1.58727-.679Zm-15.34952.00837a2.21465,2.21465,0,0,0-1.51809.67039l-5.55765,5.55766a2.21463,2.21463,0,0,0,0,3.12267l5.55765,5.55766a2.21464,2.21464,0,1,0,3.12267-3.12264l-3.992-3.98768,3.992-4.005a2.21468,2.21468,0,0,0-1.60458-3.7931Zm9.2469.19459q-.10383-.0027-.20756.00433a2.21464,2.21464,0,0,0-2.02411,1.66513l-2.8805,10.72178a2.21463,2.21463,0,1,0,4.21469,1.36191q.03165-.09794.0541-.19849l2.87615-10.739a2.21478,2.21478,0,0,0-2.03277-2.81562Z" fill="#56a91c"/><path d="M242.083,6.10578h6.91572v6.80327a2.21464,2.21464,0,0,0,1.71269,2.15386A22.64356,22.64356,0,0,1,262.043,21.60235a2.21463,2.21463,0,0,0,2.72909.41086l5.88637-3.39948,3.46435,5.99882L268.21914,28.012a2.21464,2.21464,0,0,0-.99476,2.56474,22.26966,22.26966,0,0,1,0,13.07889,2.21463,2.21463,0,0,0,1.01208,2.56473l5.88635,3.3865-3.46434,5.99881-5.90367-3.39947a2.21463,2.21463,0,0,0-2.72909.38927,22.621,22.621,0,0,1-11.31428,6.53943,2.21463,2.21463,0,0,0-1.7127,2.15818v6.81625H242.083v-6.799a2.21464,2.21464,0,0,0-1.717-2.15818,22.68179,22.68179,0,0,1-11.34455-6.53944,2.21464,2.21464,0,0,0-2.7118-.40659l-5.88635,3.39947-3.46434-5.99881,5.882-3.4038a2.21464,2.21464,0,0,0,1.01637-2.56474,22.26981,22.26981,0,0,1,0-13.07887A2.21464,2.21464,0,0,0,222.841,27.9947l-5.882-3.38217,3.46434-5.99882,5.89933,3.39948a2.21463,2.21463,0,0,0,2.71611-.39362A22.659,22.659,0,0,1,240.366,15.08013a2.21465,2.21465,0,0,0,1.717-2.15819Z" fill="#d4f4bd"/><path d="M239.86373,1.67681A2.21464,2.21464,0,0,0,237.658,3.88258v7.86289a26.82367,26.82367,0,0,0-10.13788,5.85176l-6.79894-3.94009a2.21463,2.21463,0,0,0-3.02318.81744l-5.67444,9.84375a2.21465,2.21465,0,0,0,.80447,3.0232L219.33286,31.1a27.03681,27.03681,0,0,0-.88233,5.99881q0,.00879,0,.01758a26.96768,26.96768,0,0,0,.8996,5.99881L212.828,46.87362a2.21465,2.21465,0,0,0-.80491,3.02678l.00044.00074,5.67443,9.83944a2.21464,2.21464,0,0,0,3.02319.81744l6.79893-3.9228A26.83436,26.83436,0,0,0,237.658,62.46968v7.84558a2.21464,2.21464,0,0,0,2.20577,2.22306h11.36185a2.21464,2.21464,0,0,0,2.20577-2.22306V62.46965a26.80641,26.80641,0,0,0,10.13353-5.85176l6.79894,3.9401a2.21463,2.21463,0,0,0,3.02472-.81257l.00281-.00488,5.67012-9.83942a2.21465,2.21465,0,0,0-.81258-3.02473l-.00486-.00279-6.50485-3.75845a26.93253,26.93253,0,0,0,.89961-5.99882q0-.00877,0-.01757A27.07034,27.07034,0,0,0,271.73918,31.1L278.244,27.3415a2.21464,2.21464,0,0,0,.81744-3.02319l-5.67011-9.84374a2.21463,2.21463,0,0,0-3.02265-.82024l-.00488.0028-6.79894,3.92279a26.89251,26.89251,0,0,0-10.13353-5.83445V3.88258a2.21464,2.21464,0,0,0-2.20578-2.20577Zm2.22308,4.42882h6.91572v6.80328a2.21464,2.21464,0,0,0,1.71269,2.15386,22.64349,22.64349,0,0,1,11.33158,6.53944,2.21462,2.21462,0,0,0,2.72908.41085l5.88638-3.39947,3.46435,5.99881-5.90368,3.39948a2.21464,2.21464,0,0,0-.99476,2.56474,22.26962,22.26962,0,0,1,0,13.07888,2.21464,2.21464,0,0,0,1.01208,2.56474l5.88635,3.38649-3.46434,5.99882-5.90367-3.39947a2.21464,2.21464,0,0,0-2.72909.38926,22.621,22.621,0,0,1-11.31428,6.53944,2.21462,2.21462,0,0,0-1.7127,2.15818v6.81625h-6.91571v-6.799a2.21463,2.21463,0,0,0-1.71705-2.15818,22.68181,22.68181,0,0,1-11.34454-6.53944,2.21463,2.21463,0,0,0-2.7118-.40659l-5.88635,3.39947-3.46434-5.99881,5.882-3.4038a2.21464,2.21464,0,0,0,1.01637-2.56474,22.26984,22.26984,0,0,1,0-13.07888,2.21463,2.21463,0,0,0-1.01637-2.56473l-5.882-3.38218,3.46434-5.99881L226.3264,22.013a2.21463,2.21463,0,0,0,2.71611-.39361A22.659,22.659,0,0,1,240.36977,15.08a2.21465,2.21465,0,0,0,1.717-2.1582Zm11.098,23.20378a2.213,2.213,0,0,0-1.55268,3.80141l3.98767,4.005-3.98767,3.98768a2.21463,2.21463,0,1,0,3.07663,3.18634q.0323-.03119.06332-.06367l5.55766-5.55767a2.21462,2.21462,0,0,0,0-3.12266l-5.55766-5.55763a2.21464,2.21464,0,0,0-1.58727-.679Zm-15.34952.00836a2.21466,2.21466,0,0,0-1.51809.6704l-5.55765,5.55765a2.21463,2.21463,0,0,0,0,3.12267l5.55765,5.55766a2.21463,2.21463,0,1,0,3.12267-3.12263l-3.992-3.98768,3.992-4.005a2.21469,2.21469,0,0,0-1.60458-3.7931Zm9.2469.19459q-.10383-.0027-.20756.00433a2.21463,2.21463,0,0,0-2.02411,1.66513L241.97,41.9036a2.21463,2.21463,0,1,0,4.21469,1.36191q.03165-.09793.0541-.19848L249.115,32.328a2.21478,2.21478,0,0,0-2.03277-2.81563Z" fill="#56a91c"/><path d="M79.82549,6.10578H86.7412v6.80327a2.21464,2.21464,0,0,0,1.7127,2.15386,22.64349,22.64349,0,0,1,11.33157,6.53944,2.21463,2.21463,0,0,0,2.72909.41086l5.88638-3.39948,3.46434,5.99882L105.96161,28.012a2.21461,2.21461,0,0,0-.99476,2.56474,22.26966,22.26966,0,0,1,0,13.07889,2.21463,2.21463,0,0,0,1.01207,2.56473l5.88636,3.3865-3.46435,5.99881-5.90367-3.39947a2.21461,2.21461,0,0,0-2.72908.38927A22.621,22.621,0,0,1,88.4539,59.13492a2.21462,2.21462,0,0,0-1.7127,2.15818v6.81625H79.82548v-6.799a2.21463,2.21463,0,0,0-1.717-2.15818,22.68184,22.68184,0,0,1-11.34455-6.53944,2.21463,2.21463,0,0,0-2.71179-.40659l-5.88635,3.39947L54.7014,49.60685l5.882-3.4038a2.21463,2.21463,0,0,0,1.01637-2.56474,22.27,22.27,0,0,1,0-13.07887,2.21463,2.21463,0,0,0-1.01637-2.56474l-5.882-3.38217,3.46435-5.99882,5.89933,3.39948a2.21464,2.21464,0,0,0,2.71611-.39362,22.659,22.659,0,0,1,11.32725-6.53944,2.21464,2.21464,0,0,0,1.71705-2.15819Z" fill="#d4f4bd"/><path d="M77.6062,1.67681a2.21464,2.21464,0,0,0-2.20576,2.20577v7.86289a26.82355,26.82355,0,0,0-10.13787,5.85176l-6.79894-3.94009a2.21462,2.21462,0,0,0-3.02318.81744L49.766,24.31833a2.21464,2.21464,0,0,0,.80447,3.0232L57.07532,31.1a27.038,27.038,0,0,0-.88233,5.99881q0,.00879,0,.01758a26.96711,26.96711,0,0,0,.89961,5.99881l-6.52214,3.75844a2.21465,2.21465,0,0,0-.8049,3.02678l.00043.00074,5.67444,9.83944a2.21462,2.21462,0,0,0,3.02318.81744l6.79894-3.9228a26.83432,26.83432,0,0,0,10.13787,5.83446v7.84558a2.21465,2.21465,0,0,0,2.20578,2.22306H88.968a2.21464,2.21464,0,0,0,2.20578-2.22306V62.46965a26.80656,26.80656,0,0,0,10.13353-5.85176l6.79894,3.9401a2.21463,2.21463,0,0,0,3.02472-.81257l.0028-.00488,5.67012-9.83942a2.21464,2.21464,0,0,0-.81258-3.02473l-.00486-.00279-6.50484-3.75845a26.93253,26.93253,0,0,0,.89961-5.99882q0-.00877,0-.01757A27.07092,27.07092,0,0,0,109.48165,31.1l6.50484-3.75845a2.21463,2.21463,0,0,0,.81744-3.02319l-5.67011-9.84374a2.21462,2.21462,0,0,0-3.02265-.82024l-.00487.0028-6.79894,3.92279a26.89255,26.89255,0,0,0-10.13354-5.83445V3.88258a2.21464,2.21464,0,0,0-2.20577-2.20577Zm2.22307,4.42882H86.745v6.80328a2.21464,2.21464,0,0,0,1.7127,2.15386,22.64346,22.64346,0,0,1,11.33157,6.53944,2.21463,2.21463,0,0,0,2.72909.41085l5.88638-3.39947,3.46434,5.99881-5.90368,3.39948a2.21462,2.21462,0,0,0-.99475,2.56474,22.26984,22.26984,0,0,1,0,13.07888,2.21463,2.21463,0,0,0,1.01207,2.56474l5.88636,3.38649-3.46435,5.99882-5.90367-3.39947a2.21462,2.21462,0,0,0-2.72908.38926,22.621,22.621,0,0,1-11.31429,6.53944A2.21462,2.21462,0,0,0,86.745,61.293v6.81625H79.82927v-6.799a2.21463,2.21463,0,0,0-1.717-2.15818,22.68184,22.68184,0,0,1-11.34455-6.53944,2.21461,2.21461,0,0,0-2.71179-.40659l-5.88635,3.39947-3.46435-5.99881,5.882-3.4038a2.21463,2.21463,0,0,0,1.01637-2.56474,22.26984,22.26984,0,0,1,0-13.07888,2.21462,2.21462,0,0,0-1.01637-2.56473l-5.882-3.38218,3.46435-5.99881L64.06887,22.013a2.21463,2.21463,0,0,0,2.71611-.39361A22.659,22.659,0,0,1,78.11223,15.08a2.21464,2.21464,0,0,0,1.717-2.1582Zm11.098,23.20378a2.213,2.213,0,0,0-1.55268,3.80141l3.98768,4.005-3.98768,3.98768a2.21464,2.21464,0,0,0,3.07664,3.18634q.03229-.03119.06331-.06367l5.55767-5.55767a2.21462,2.21462,0,0,0,0-3.12266l-5.55767-5.55763a2.21464,2.21464,0,0,0-1.58727-.679Zm-15.34951.00836a2.21464,2.21464,0,0,0-1.51809.6704L68.502,35.54582a2.21463,2.21463,0,0,0,0,3.12267l5.55765,5.55766a2.21463,2.21463,0,1,0,3.12267-3.12263l-3.992-3.98768,3.992-4.005a2.21469,2.21469,0,0,0-1.60458-3.7931Zm9.24689.19459q-.10381-.0027-.20756.00433a2.21462,2.21462,0,0,0-2.0241,1.66513L79.71251,41.9036a2.21463,2.21463,0,0,0,4.21469,1.36191q.03163-.09793.05409-.19848l2.87615-10.739a2.21477,2.21477,0,0,0-2.03277-2.81563Z" fill="#56a91c"/><path d="M53.95834,89.5861h6.91572v6.80328a2.21462,2.21462,0,0,0,1.7127,2.15385,22.64355,22.64355,0,0,1,11.33157,6.53945,2.21464,2.21464,0,0,0,2.72909.41085l5.88638-3.39947,3.46434,5.99881-5.90368,3.39947a2.21463,2.21463,0,0,0-.99475,2.56474,22.26987,22.26987,0,0,1,0,13.07889,2.21464,2.21464,0,0,0,1.01207,2.56474l5.88636,3.38649L82.53379,139.086l-5.90367-3.39947a2.21464,2.21464,0,0,0-2.72909.38926,22.62089,22.62089,0,0,1-11.31428,6.53943,2.21463,2.21463,0,0,0-1.71269,2.15819v6.81625H53.95834v-6.79895a2.21465,2.21465,0,0,0-1.717-2.15819,22.68165,22.68165,0,0,1-11.34455-6.53944,2.21464,2.21464,0,0,0-2.7118-.40659L32.2986,139.086l-3.46434-5.99881,5.882-3.4038a2.21465,2.21465,0,0,0,1.01637-2.56474,22.26984,22.26984,0,0,1,0-13.07888A2.21464,2.21464,0,0,0,34.7163,111.475l-5.882-3.38217L32.2986,102.094l5.89934,3.39947a2.21464,2.21464,0,0,0,2.71611-.39361A22.65907,22.65907,0,0,1,52.2413,98.56045a2.21462,2.21462,0,0,0,1.717-2.15819Z" fill="#d4f4bd"/><path d="M51.73906,85.15714A2.21463,2.21463,0,0,0,49.5333,87.3629v7.8629a26.82367,26.82367,0,0,0-10.13788,5.85176l-6.79893-3.9401a2.21464,2.21464,0,0,0-3.02319.81744l-5.67443,9.84376a2.21463,2.21463,0,0,0,.80447,3.0232l6.50484,3.75845a27.03722,27.03722,0,0,0-.88233,5.99881q0,.00877,0,.01757a26.96759,26.96759,0,0,0,.8996,5.99881L24.70332,130.354a2.21464,2.21464,0,0,0-.8049,3.02678l.00043.00074,5.67444,9.83944a2.21464,2.21464,0,0,0,3.02318.81744l6.79894-3.92281A26.83418,26.83418,0,0,0,49.53328,145.95v7.84558a2.21464,2.21464,0,0,0,2.20578,2.22306H63.1009a2.21463,2.21463,0,0,0,2.20577-2.22306V145.95a26.80665,26.80665,0,0,0,10.13354-5.85176l6.79893,3.94009a2.21464,2.21464,0,0,0,3.02473-.81257l.0028-.00487,5.67012-9.83943a2.21463,2.21463,0,0,0-.81258-3.02472l-.00486-.00279-6.50484-3.75845a26.93252,26.93252,0,0,0,.8996-5.99882q0-.00879,0-.01758a27.07041,27.07041,0,0,0-.8996-5.99881l6.50484-3.75845a2.21463,2.21463,0,0,0,.81744-3.02319l-5.67011-9.84374a2.21464,2.21464,0,0,0-3.02265-.82024l-.00487.0028-6.79894,3.9228A26.89241,26.89241,0,0,0,65.30668,95.2258V87.3629a2.21463,2.21463,0,0,0-2.20578-2.20576ZM53.96213,89.586h6.91572v6.80327a2.21463,2.21463,0,0,0,1.7127,2.15386,22.64361,22.64361,0,0,1,11.33157,6.53944,2.21463,2.21463,0,0,0,2.72909.41086l5.88637-3.39947,3.46435,5.99881-5.90368,3.39947a2.21464,2.21464,0,0,0-.99476,2.56474,22.26966,22.26966,0,0,1,0,13.07889,2.21465,2.21465,0,0,0,1.01208,2.56474l5.88636,3.38649-3.46435,5.99882-5.90367-3.39948a2.21464,2.21464,0,0,0-2.72909.38927,22.621,22.621,0,0,1-11.31428,6.53943,2.21465,2.21465,0,0,0-1.7127,2.15819v6.81624H53.96213v-6.79894a2.21464,2.21464,0,0,0-1.717-2.15819A22.68172,22.68172,0,0,1,40.90054,136.093a2.21464,2.21464,0,0,0-2.7118-.40659l-5.88635,3.39948L28.83805,133.087l5.882-3.4038a2.21463,2.21463,0,0,0,1.01637-2.56473,22.26984,22.26984,0,0,1,0-13.07888,2.21464,2.21464,0,0,0-1.01637-2.56474l-5.882-3.38217,3.46434-5.99881,5.89934,3.39947a2.21465,2.21465,0,0,0,2.71611-.39361,22.65893,22.65893,0,0,1,11.32725-6.53945,2.21464,2.21464,0,0,0,1.717-2.15819Zm11.098,23.20377a2.213,2.213,0,0,0-1.55268,3.80142l3.98768,4.005-3.98768,3.98768a2.21463,2.21463,0,1,0,3.07663,3.18634q.03231-.03118.06332-.06367l5.55767-5.55766a2.21465,2.21465,0,0,0,0-3.12267l-5.55767-5.55763a2.21463,2.21463,0,0,0-1.58727-.679Zm-15.34952.00837a2.21465,2.21465,0,0,0-1.51809.67039l-5.55765,5.55766a2.21463,2.21463,0,0,0,0,3.12267l5.55765,5.55766a2.21464,2.21464,0,1,0,3.12267-3.12264l-3.992-3.98768,3.992-4.005a2.21468,2.21468,0,0,0-1.60458-3.7931Zm9.2469.19459q-.10383-.0027-.20756.00433a2.21464,2.21464,0,0,0-2.02411,1.66513l-2.8805,10.72178a2.21463,2.21463,0,1,0,4.21469,1.36191q.03165-.09794.0541-.19849l2.87615-10.739a2.21478,2.21478,0,0,0-2.03277-2.81562Z" fill="#56a91c"/><path d="M79.82549,171.89065H86.7412v6.80327a2.21463,2.21463,0,0,0,1.7127,2.15386,22.64356,22.64356,0,0,1,11.33157,6.53944,2.21463,2.21463,0,0,0,2.72909.41086l5.88638-3.39948,3.46434,5.99882-5.90367,3.39947a2.21462,2.21462,0,0,0-.99476,2.56474,22.26966,22.26966,0,0,1,0,13.07889,2.21464,2.21464,0,0,0,1.01207,2.56474l5.88636,3.38649-3.46435,5.99882-5.90367-3.39948a2.21463,2.21463,0,0,0-2.72908.38927,22.621,22.621,0,0,1-11.31428,6.53943,2.21463,2.21463,0,0,0-1.7127,2.15819v6.81624H79.82548v-6.79894a2.21464,2.21464,0,0,0-1.717-2.15819,22.68176,22.68176,0,0,1-11.34455-6.53944,2.21463,2.21463,0,0,0-2.71179-.40659l-5.88635,3.39947-3.46435-5.99881,5.882-3.4038a2.21462,2.21462,0,0,0,1.01637-2.56473,22.27006,22.27006,0,0,1,0-13.07888,2.21463,2.21463,0,0,0-1.01637-2.56474l-5.882-3.38217,3.46435-5.99881,5.89933,3.39947a2.21464,2.21464,0,0,0,2.71611-.39362A22.659,22.659,0,0,1,78.10844,180.865a2.21464,2.21464,0,0,0,1.71705-2.15819Z" fill="#d4f4bd"/><path d="M77.6062,167.46168a2.21464,2.21464,0,0,0-2.20576,2.20577v7.86289a26.82355,26.82355,0,0,0-10.13787,5.85176L58.46363,179.442a2.21462,2.21462,0,0,0-3.02318.81744L49.766,190.10321a2.21462,2.21462,0,0,0,.80447,3.02319l6.50484,3.75845a27.038,27.038,0,0,0-.88233,5.99881q0,.00879,0,.01758a26.96711,26.96711,0,0,0,.89961,5.99881l-6.52214,3.75845a2.21464,2.21464,0,0,0-.8049,3.02677l.00043.00074,5.67444,9.83944a2.21464,2.21464,0,0,0,3.02318.81745l6.79894-3.92281a26.83432,26.83432,0,0,0,10.13787,5.83446v7.84558a2.21465,2.21465,0,0,0,2.20578,2.22306H88.968a2.21464,2.21464,0,0,0,2.20578-2.22306v-7.8456a26.80658,26.80658,0,0,0,10.13353-5.85177l6.79894,3.9401a2.21463,2.21463,0,0,0,3.02472-.81257l.0028-.00487,5.67012-9.83943a2.21462,2.21462,0,0,0-.81258-3.02472l-.00486-.0028L109.48165,208.9a26.93253,26.93253,0,0,0,.89961-5.99881q0-.00879,0-.01758a27.07092,27.07092,0,0,0-.89961-5.99881l6.50484-3.75845a2.21463,2.21463,0,0,0,.81744-3.02319l-5.67011-9.84374a2.21462,2.21462,0,0,0-3.02265-.82024l-.00487.0028-6.79894,3.9228a26.89244,26.89244,0,0,0-10.13354-5.83446v-7.86289a2.21464,2.21464,0,0,0-2.20577-2.20577Zm2.22307,4.42883H86.745v6.80327a2.21464,2.21464,0,0,0,1.7127,2.15386,22.64346,22.64346,0,0,1,11.33157,6.53944,2.21465,2.21465,0,0,0,2.72909.41086l5.88638-3.39948,3.46434,5.99881-5.90368,3.39948a2.21462,2.21462,0,0,0-.99475,2.56474,22.26987,22.26987,0,0,1,0,13.07889,2.21463,2.21463,0,0,0,1.01207,2.56473l5.88636,3.38649-3.46435,5.99882-5.90367-3.39947a2.21462,2.21462,0,0,0-2.72908.38926,22.621,22.621,0,0,1-11.31429,6.53944,2.21462,2.21462,0,0,0-1.71269,2.15818v6.81625H79.82927v-6.79895a2.21463,2.21463,0,0,0-1.717-2.15818,22.68184,22.68184,0,0,1-11.34455-6.53944,2.21461,2.21461,0,0,0-2.71179-.40659l-5.88635,3.39947-3.46435-5.99881,5.882-3.4038A2.21463,2.21463,0,0,0,61.6036,209.423a22.26981,22.26981,0,0,1,0-13.07887,2.21463,2.21463,0,0,0-1.01637-2.56474l-5.882-3.38218,3.46435-5.99881,5.89933,3.39948a2.21464,2.21464,0,0,0,2.71611-.39362,22.659,22.659,0,0,1,11.32725-6.53944,2.21464,2.21464,0,0,0,1.717-2.1582Zm11.098,23.20377a2.213,2.213,0,0,0-1.55268,3.80141l3.98768,4.005-3.98768,3.98768a2.21464,2.21464,0,1,0,3.07664,3.18634q.03229-.03119.06331-.06367l5.55767-5.55767a2.21462,2.21462,0,0,0,0-3.12266l-5.55767-5.55763a2.21464,2.21464,0,0,0-1.58727-.679Zm-15.34951.00837a2.21459,2.21459,0,0,0-1.51809.67039L68.502,201.33069a2.21465,2.21465,0,0,0,0,3.12268l5.55765,5.55765a2.21463,2.21463,0,1,0,3.12267-3.12263l-3.992-3.98768,3.992-4.005a2.21468,2.21468,0,0,0-1.60458-3.79309Zm9.24689.19459q-.10381-.00271-.20756.00432a2.21463,2.21463,0,0,0-2.0241,1.66514l-2.8805,10.72177a2.21463,2.21463,0,1,0,4.21469,1.36191q.03163-.09793.05409-.19848l2.87615-10.739a2.21473,2.21473,0,0,0-2.03277-2.81562Z" fill="#56a91c"/><path d="M242.083,171.89065h6.91572v6.80327a2.21463,2.21463,0,0,0,1.71269,2.15386,22.64364,22.64364,0,0,1,11.33158,6.53944,2.21463,2.21463,0,0,0,2.72909.41086l5.88637-3.39948,3.46435,5.99882-5.90368,3.39947a2.21464,2.21464,0,0,0-.99476,2.56474,22.26966,22.26966,0,0,1,0,13.07889,2.21465,2.21465,0,0,0,1.01208,2.56474l5.88635,3.38649-3.46434,5.99882-5.90367-3.39948a2.21464,2.21464,0,0,0-2.72909.38927,22.621,22.621,0,0,1-11.31428,6.53943,2.21464,2.21464,0,0,0-1.7127,2.15819v6.81624H242.083v-6.79894a2.21465,2.21465,0,0,0-1.717-2.15819,22.68172,22.68172,0,0,1-11.34455-6.53944,2.21464,2.21464,0,0,0-2.7118-.40659l-5.88635,3.39947-3.46434-5.99881,5.882-3.4038a2.21463,2.21463,0,0,0,1.01637-2.56473,22.26984,22.26984,0,0,1,0-13.07888,2.21464,2.21464,0,0,0-1.01637-2.56474l-5.882-3.38217,3.46434-5.99881,5.89933,3.39947a2.21463,2.21463,0,0,0,2.71611-.39362A22.659,22.659,0,0,1,240.366,180.865a2.21465,2.21465,0,0,0,1.717-2.15819Z" fill="#d4f4bd"/><path d="M239.86373,167.46168a2.21464,2.21464,0,0,0-2.20575,2.20577v7.86289a26.82367,26.82367,0,0,0-10.13788,5.85176l-6.79894-3.94009a2.21463,2.21463,0,0,0-3.02318.81744l-5.67444,9.84376a2.21463,2.21463,0,0,0,.80447,3.02319l6.50485,3.75845a27.03681,27.03681,0,0,0-.88233,5.99881q0,.00879,0,.01758a26.96768,26.96768,0,0,0,.8996,5.99881L212.828,212.6585a2.21463,2.21463,0,0,0-.80491,3.02677l.00044.00074,5.67443,9.83944a2.21465,2.21465,0,0,0,3.02319.81745l6.79893-3.92281a26.83436,26.83436,0,0,0,10.13788,5.83446v7.84558a2.21464,2.21464,0,0,0,2.20577,2.22306h11.36185a2.21464,2.21464,0,0,0,2.20577-2.22306v-7.8456a26.80643,26.80643,0,0,0,10.13353-5.85177l6.79894,3.9401a2.21463,2.21463,0,0,0,3.02472-.81257l.00281-.00487,5.67012-9.83943a2.21464,2.21464,0,0,0-.81258-3.02472l-.00486-.0028L271.73918,208.9a26.93253,26.93253,0,0,0,.89961-5.99881q0-.00879,0-.01758a27.07034,27.07034,0,0,0-.89961-5.99881l6.50485-3.75845a2.21464,2.21464,0,0,0,.81744-3.02319l-5.67011-9.84374a2.21463,2.21463,0,0,0-3.02265-.82024l-.00488.0028-6.79894,3.9228a26.8924,26.8924,0,0,0-10.13353-5.83446v-7.86289a2.21465,2.21465,0,0,0-2.20578-2.20577Zm2.22308,4.42883h6.91572v6.80327a2.21464,2.21464,0,0,0,1.71269,2.15386,22.64349,22.64349,0,0,1,11.33158,6.53944,2.21463,2.21463,0,0,0,2.72908.41086l5.88638-3.39948,3.46435,5.99881-5.90368,3.39948a2.21464,2.21464,0,0,0-.99476,2.56474,22.26966,22.26966,0,0,1,0,13.07889,2.21463,2.21463,0,0,0,1.01208,2.56473l5.88635,3.38649-3.46434,5.99882-5.90367-3.39947a2.21464,2.21464,0,0,0-2.72909.38926,22.621,22.621,0,0,1-11.31428,6.53944,2.21462,2.21462,0,0,0-1.7127,2.15818v6.81625h-6.91571v-6.79895a2.21464,2.21464,0,0,0-1.71705-2.15818,22.68181,22.68181,0,0,1-11.34454-6.53944,2.21463,2.21463,0,0,0-2.7118-.40659l-5.88635,3.39947-3.46434-5.99881,5.882-3.4038a2.21464,2.21464,0,0,0,1.01637-2.56474,22.26981,22.26981,0,0,1,0-13.07887,2.21464,2.21464,0,0,0-1.01637-2.56474l-5.882-3.38218,3.46434-5.99881,5.89933,3.39948a2.21463,2.21463,0,0,0,2.71611-.39362,22.659,22.659,0,0,1,11.32726-6.53944,2.21465,2.21465,0,0,0,1.717-2.1582Zm11.098,23.20377a2.213,2.213,0,0,0-1.55268,3.80141l3.98767,4.005-3.98767,3.98768a2.21463,2.21463,0,1,0,3.07663,3.18634q.0323-.03119.06332-.06367l5.55766-5.55767a2.21462,2.21462,0,0,0,0-3.12266l-5.55766-5.55763a2.21464,2.21464,0,0,0-1.58727-.679Zm-15.34952.00837a2.21461,2.21461,0,0,0-1.51809.67039l-5.55765,5.55765a2.21465,2.21465,0,0,0,0,3.12268l5.55765,5.55765a2.21463,2.21463,0,1,0,3.12267-3.12263l-3.992-3.98768,3.992-4.005a2.21468,2.21468,0,0,0-1.60458-3.79309Zm9.2469.19459q-.10383-.00271-.20756.00432a2.21464,2.21464,0,0,0-2.02411,1.66514L241.97,207.68847a2.21463,2.21463,0,0,0,4.21469,1.36191q.03165-.09793.0541-.19848l2.87615-10.739a2.21474,2.21474,0,0,0-2.03277-2.81562Z" fill="#56a91c"/></svg>