<svg id="devices" viewBox="0 0 24 24" xmlns="http://www.w3.org/2000/svg"><path d="m14.48138 20.36377h.10334a1.981 1.981 0 0 1 -1.99024-1.86383h2.40552v-3h-14v-11a1.00108 1.00108 0 0 1 1-.99988h17a1.00108 1.00108 0 0 1 1 .99988v2.99994h1v-2.99994a1.99992 1.99992 0 0 0 -2-1.99988h-17a1.99992 1.99992 0 0 0 -2 1.99988v12a2 2 0 0 0 2 2h6.4436c-.002.3092-.18152 1.60358-1.99011 1.86383h.0683a.56336.56336 0 0 0 0 1.1225h7.95959a.56334.56334 0 0 0 0-1.1225zm-3.98138-2.86383a.5.5 0 1 1 .5-.5.50007.50007 0 0 1 -.5.5zm12-9.00006h-5a1.50009 1.50009 0 0 0 -1.5 1.50006v10a1.5 1.5 0 0 0 1.5 1.5h5a1.5 1.5 0 0 0 1.5-1.5v-10a1.50009 1.50009 0 0 0 -1.5-1.50006zm.5 11.50006a.50057.50057 0 0 1 -.5.5h-5a.50057.50057 0 0 1 -.5-.5v-10a.50058.50058 0 0 1 .5-.50006h1.01562v.50006a.5.5 0 0 0 .5.5h2a.5.5 0 0 0 .5-.5v-.50006h.98438a.50058.50058 0 0 1 .5.50006z"/></svg>