<svg id="process" viewBox="0 0 16 16" xmlns="http://www.w3.org/2000/svg"><path d="m6.79913 3.16131-.2-.40156c.49993-1.0039.39995-1.0039.39995-1.10429l-.59993-.60234h-.1a5.52577 5.52577 0 0 0 -.99988.40156l-.39989-.20078c-.39995-1.0039-.49994-1.0039-.59993-1.0039h-.7999c-.1 0-.1 0-.49993 1.0039l-.4.10039c-.59988-.20078-.99982-.40156-1.09981-.40156h-.1l-.59991.70273c0 .10039-.1.10039.3 1.10429v.40156c-1.0999.40156-1.0999.40156-1.0999.50195v.80312c0 .20078 0 .30117.99987.70273l.1.30117c-.4 1.0039-.4 1.0039-.3 1.10429l.59992.60234h.1c.1 0 .1 0 .99987-.40156l.49994.20078c.4 1.0039.4 1.0039.49993 1.0039h.7999c.1 0 .1 0 .49994-1.0039l.3-.10039c.59992.20078.89989.40156.99987.40156h.1l.7999-.70273c.1-.10039.1-.10039-.3-1.10429l.1-.30117c.99987-.40156.99987-.50195.99987-.60234v-.90351c.1-.10039.1-.10039-.99987-.502m-2.89964 2.40941a1.4754 1.4754 0 0 1 -1.49981-1.50585 1.39352 1.39352 0 0 1 1.49981-1.40546 1.4754 1.4754 0 0 1 1.49981 1.50585 1.3437 1.3437 0 0 1 -1.49981 1.40546m6.79914.60234-.49994.10039h-.1c-1.09985-1.0039-1.19984-1.0039-1.29982-1.0039l-.99988.50195a.098.098 0 0 0 -.1.10039 4.07626 4.07626 0 0 0 .1 1.50585v.10039l-.39994.30117h-.1c-1.49981.10039-1.49981.10039-1.49981.30117l-.4 1.10429c0 .10039-.1.20078 1.09986 1.20468h.1v.60234a11.29994 11.29994 0 0 0 -.99987 1.20468v.20078l.59992 1.10429c.1.10039.1.20078 1.59979 0h.1l.39995.30117v.10035c0 1.50585.1 1.50585.2 1.60624l.89989.20078c.2.10039.3.10039 1.19985-1.10429v-.10039h.59992c1.09986 1.0039 1.19985 1.0039 1.29984 1.0039l.99987-.502a.09805.09805 0 0 0 .1-.10039 4.07653 4.07653 0 0 0 -.1-1.50585v-.1003l.3-.40156h.1c1.49981 0 1.49981-.10039 1.59979-.20078l.49994-1.0039c0-.10039.1-.20078-1.09986-1.20468h-.1v-.60234a11.29994 11.29994 0 0 0 .99986-1.20468v-.20076l-.49993-1.0039c-.1-.20078-.1-.20078-1.5998 0h-.1l-.39994-.30117v-.10041c-.1-1.50585-.2-1.60624-.3-1.60624l-1.09986-.40156c0-.10039-.1-.10039-1.09985 1.10429m1.89975 4.91911a1.9593 1.9593 0 0 1 -2.59965 1.20468 1.97142 1.97142 0 0 1 -1.19984-2.61014 1.9593 1.9593 0 0 1 2.59967-1.20466 1.93749 1.93749 0 0 1 1.19984 2.61014"/></svg>