<svg id="spa" viewBox="0 0 16 16" xmlns="http://www.w3.org/2000/svg"><path d="m6.66669 12.4h1.06665v1.01337a1.98438 1.98438 0 0 1 -1.06665-1.01337zm-1.17334 0a4.51775 4.51775 0 0 0 1.0133.74671 5.32889 5.32889 0 0 1 -.42665-.74671zm.96-.53332h1.28v-1.6h-1.6a4.28015 4.28015 0 0 0 .31996 1.59996zm-.32-2.1333h1.6v-1.6h-1.28a4.28045 4.28045 0 0 0 -.31999 1.59996zm3.36 3.41333a4.51775 4.51775 0 0 0 1.0133-.74671h-.58665a3.40136 3.40136 0 0 1 -.42665.74667zm.50665-13.14671v4h4zm-4.4 10.26666h-1.06667a3.36033 3.36033 0 0 0 .53332 1.6h.8a5.58676 5.58676 0 0 1 -.26665-1.6zm.90667-3.41333a4.51563 4.51563 0 0 0 -1.01332.74667h.58665a5.32835 5.32835 0 0 1 .42665-.74667zm-.64 1.28h-.8a3.36077 3.36077 0 0 0 -.53332 1.6h1.06665a5.58716 5.58716 0 0 1 .26664-1.60003zm.8-.53332h1.06667v-1.01334a1.8134 1.8134 0 0 0 -1.06665 1.01333zm3.2 2.66668h-1.6v1.6h1.28a4.28015 4.28015 0 0 0 .31997-1.60003zm-.53336 2.13331h-1.06665v1.01337a1.8135 1.8135 0 0 0 1.06665-1.01337zm-.33331-7.4h5v11h-12v-16h7zm-1 1a4 4 0 1 0 4 4 4.02911 4.02911 0 0 0 -4-4zm1.54669 2.1333h-1.28v1.6h1.6a4.28045 4.28045 0 0 0 -.32-1.6zm.85333 1.6h1.06665a3.36077 3.36077 0 0 0 -.53332-1.6h-.8a5.58716 5.58716 0 0 1 .26665 1.60004zm-2.13336-3.14663v1.01333h1.06665a1.98449 1.98449 0 0 0 -1.06665-1.01333zm1.8667 5.28h.8a3.36033 3.36033 0 0 0 .53332-1.6h-1.06668a5.58676 5.58676 0 0 1 -.26664 1.59997zm.37329-4.26667a4.51563 4.51563 0 0 0 -1.0133-.74665 5.32835 5.32835 0 0 1 .42665.74665z"/></svg>