<svg id="b3888133-4f66-4592-a780-cf65d84774e4" data-name="Layer 1" xmlns="http://www.w3.org/2000/svg" xmlns:xlink="http://www.w3.org/1999/xlink" viewBox="0 0 330 240"><defs><linearGradient id="e9f6d41e-d6df-4b55-a5d6-930337143c96" x1="165.23695" y1="85.28457" x2="165.23695" y2="215.14013" gradientUnits="userSpaceOnUse"><stop offset="0" stop-color="#cdecff"/><stop offset="1" stop-color="#fff" stop-opacity="0"/></linearGradient><linearGradient id="bd7bfc1a-1db8-4cee-b937-c2a98cdefa3a" x1="167.04456" y1="125.93751" x2="167.04456" y2="178.66122" gradientUnits="userSpaceOnUse"><stop offset="0" stop-color="#cdecff"/><stop offset="1" stop-color="#fff"/></linearGradient><linearGradient id="e336ff98-d3bb-495a-bd6b-5efacb486487" x1="239.32272" y1="167.25091" x2="239.32272" y2="218.88361" xlink:href="#bd7bfc1a-1db8-4cee-b937-c2a98cdefa3a"/><linearGradient id="f7c88b7b-b29e-440d-a816-7dec74457032" x1="272.96286" y1="199.20486" x2="272.96286" y2="228.95983" xlink:href="#bd7bfc1a-1db8-4cee-b937-c2a98cdefa3a"/><linearGradient id="bd8cb4ea-4798-490a-8582-4fd9692b5324" x1="85.33987" y1="172.53203" x2="85.33987" y2="218.64933" xlink:href="#bd7bfc1a-1db8-4cee-b937-c2a98cdefa3a"/></defs><path d="M330.757,88.01583v154.4958H-.28306V86.23581c0-26.62,20.7-41.27,50.49-41.27,17.474.52193,53.402,7.30128,71.67,4.63995-7.99442,9.73179-3.19369,26.08129,8.86,29.95h6.29c-.1027,23.7092-1.516,16.63027,18.01007,29.10021a7.84608,7.84608,0,0,0,7.96-.0002l14.19-8.42a8.1694,8.1694,0,0,0,3.81-7.82,7.94424,7.94424,0,0,0,8.48.3l13.94-8.27a7.87307,7.87307,0,0,0,4.04-6.54h9.89v-.05c15.53612-9.59,10.646-34.46779-8.65-33.76.1919-6.5692-.15893-13.65061-3.46-19.6C269.79114,8.55791,330.26832,34.46849,330.757,88.01583Z" fill="url(#e9f6d41e-d6df-4b55-a5d6-930337143c96)"/><path d="M205.43447,60.2244a5.83319,5.83319,0,0,0-2.83179-4.65852l-14.1808-8.41329a5.8026,5.8026,0,0,0-5.92408,0l-.72737.43158-4.22506,2.50674-9.22837,5.475a5.83089,5.83089,0,0,0-2.84247,4.99234v4.62309l-3.53009-2.0943a5.80149,5.80149,0,0,0-5.92408,0l-8.95713,5.31425-4.13552,2.4537-1.0881.64547a5.8303,5.8303,0,0,0-2.84285,4.99217v17.04c0,.11172.00465.22289.01113.33378a5.83313,5.83313,0,0,0,2.8318,4.65868l14.18076,8.41342a5.8026,5.8026,0,0,0,5.92408,0l.7274-.43155L166.897,104l9.22837-5.475a5.83086,5.83086,0,0,0,2.84251-4.992V88.9096l3.5301,2.09434a5.80159,5.80159,0,0,0,5.92408,0l8.95721-5.31428,4.13557-2.45366,1.0881-.64551a5.83029,5.83029,0,0,0,2.84267-4.99218v-17.04C205.44556,60.44647,205.44095,60.33529,205.43447,60.2244ZM159.014,71.3098a3.09039,3.09039,0,1,1-.00012,0Zm8.45977,26.475-1.24476.76711-4.45049,2.74251-1.52375.939-.78725.48516a.72356.72356,0,0,1-.17834.08776,1.05,1.05,0,0,1-.718-.054l-.07355-.03385-.42743-.26339-7.57907-4.67027v-4.706s.02542-1.01375,1.31565-.27647l4.67583,2.87533V85.591l-2.9134-1.7957v-4.706s.02541-1.01372,1.31564-.27647l6.571,4.04091V95.69389l4.70209-2.89148c1.29022-.73729,1.3156.27647,1.3156.27647Zm35.50243-32.76055v12.574a3.35,3.35,0,0,1-1.63344,2.86838l-1.0881.64551-4.13556,2.45354-8.9573,5.31433a3.33224,3.33224,0,0,1-3.40393,0l-4.79-2.84185V76.4926a5.82957,5.82957,0,0,0-2.84251-4.992l-4.66658-2.76888-3.51481-2.08533V60.55805a3.35057,3.35057,0,0,1,1.63311-2.86843l9.22828-5.475,4.22515-2.50674.72745-.43163a3.33321,3.33321,0,0,1,3.404,0l14.18046,8.41325a3.38058,3.38058,0,0,1,1.627,2.67872c.00366.06308.0069.12625.0069.18983ZM186.5381,53.75556l8.95526,5.51853v5.56065s-.03,1.19782-1.55457.32668l-5.52489-3.39753V73.68248l3.44251,2.12179v5.56065s-.03,1.19786-1.55457.32671l-7.7645-4.77459V61.74478l-5.556,3.41663c-1.52458.87115-1.55457-.32668-1.55457-.32668V59.27409l1.47072-.90636,5.25872-3.24063,1.80047-1.10957.93028-.57312a.8532.8532,0,0,1,.21073-.10382,1.24023,1.24023,0,0,1,.84847.06362l.08688.04Z" fill="#002a44"/><path d="M232.41335,61.412a25.09456,25.09456,0,0,1-11.34,21,12.47167,12.47167,0,0,1-6.86,2.04h-10.83l.24-.14a7.86336,7.86336,0,0,0,3.8-6.4l7.04-.04a8.78373,8.78373,0,0,0,5.25-1.77c.21-.16.42-.34.62-.52.31-.28.6-.58.89-.88.24-.24.46-.5.68-.76.23-.26.45-.53.65-.8a1.76012,1.76012,0,0,0,.21-.29,7.74573,7.74573,0,0,0,.49-.68q.405-.58494.75-1.2c.16-.27.3-.54.44-.81a18.18831,18.18831,0,0,0,1.32-3.3c.07-.21.13-.43.18-.64.06-.24.12-.49.17-.73a8.74133,8.74133,0,0,0,.17005-.89.76217.76217,0,0,0,.03-.21,5.83518,5.83518,0,0,0,.1-.73c.02-.12006.04-.24.05-.37006q.045-.42.06-.84c.02-.34.03-.69.03-1.04,0-9.44-6.24-16.48-15.17-17.11l-2.72-.2v-4.88a33.065,33.065,0,0,0-1.92-11.25c-.22-.59-.45-1.18005-.71-1.76-.12-.29-.26-.58-.4-.86-.13-.29-.28-.57-.43-.85-3.72-7.03-10.72-12.41-22.24-12.41-13.27,0-18.51,6.17-23.08,16.83l-1.47,3.43-2.98-2.24c-2.84-2.12-5.02-2.99-7.55-2.99-6.49,0-11.38,4.59-11.38,10.67v4.71l-2.55.34a18.04121,18.04121,0,0,0-14.5,10.79,19.4782,19.4782,0,0,0-1.57,7.78c0,.26.01.52.02.78,0,.23.02.47.04.71.02.28.05.56.08.85.02.16.04.32.07.49l.06.39a20.45853,20.45853,0,0,0,.62,2.57c.05.16.1.31.16.47a17.84713,17.84713,0,0,0,1.24,2.83l.3.54c.2.36005.42.7.65,1.04.22.33.45.66.69.97.29.38.59.76.92,1.12a8.2931,8.2931,0,0,0,.64.69c.21.22.43.44.66.64q.195.195.38995.36c.18006.17.37.32.56.47.18.15.36005.3.54.43.2.16.41.31.62.45.13.09.26.18.39.26.24.17.48.31995.73.47.23.14.46.27.7.39a12.13615,12.13615,0,0,0,5.4,1.23h3.63v6.13h-4.42a11.668,11.668,0,0,1-3.98-.66,25.16307,25.16307,0,0,1-16.57-23.62,26.17936,26.17936,0,0,1,1.06-7.44,24.22175,24.22175,0,0,1,1.52-3.88,23.73511,23.73511,0,0,1,16.03-12.6c.16-9.12,7.67-16.23,17.25-16.23a16.209,16.209,0,0,1,8.05,2.18c4.54-9.3,11.44-17.22,27.03-17.22,14.47,0,23.63,7.3,28.15,17a33.405,33.405,0,0,1,1.42005,3.56,38.95363,38.95363,0,0,1,1.98,12.01C225.0433,40.81191,232.41335,49.93191,232.41335,61.412Z" fill="#002a44"/><path d="M256.92124,119.46012a32.62089,32.62089,0,0,0-6.54758-43.5012,3.264,3.264,0,1,0-4.10543,5.07546,26.07871,26.07871,0,0,1,5.55557,34.30314l-8.34054-6.74538-3.32552,27.44032,25.33382-9.64114Z" fill="#008be1"/><path d="M80.447,135.42459a3.26869,3.26869,0,0,0-.24078-4.60971,26.085,26.085,0,0,1-3.72726-34.5496l7.97071,7.1783,5.22322-25.92095L63.41671,84.50176l8.18735,7.37334a32.55436,32.55436,0,0,0,4.23318,43.79027A3.26379,3.26379,0,0,0,80.447,135.42459Z" fill="#56aa1c"/><rect x="118.58531" y="125.464" width="96.9185" height="60.7769" fill="url(#bd7bfc1a-1db8-4cee-b937-c2a98cdefa3a)"/><rect x="155.26049" y="188.05586" width="23.55378" height="26.3673" fill="#3c434a"/><rect x="155.2991" y="189.40972" width="23.47657" height="11.77685" fill="#2a2f34"/><path d="M151.95029,211.19823h30.19522a7.30339,7.30339,0,0,1,7.30339,7.30339v0a0,0,0,0,1,0,0h-44.802a0,0,0,0,1,0,0v0A7.30339,7.30339,0,0,1,151.95029,211.19823Z" fill="#677480"/><path d="M221.93288,121.901a3.7161,3.7161,0,0,0-3.72229-3.63513H115.87853a3.74573,3.74573,0,0,0-3.73475,3.73475v68.15912a3.73866,3.73866,0,0,0,3.73475,3.73474H218.21059a3.82128,3.82128,0,0,0,1.36938-.249,3.7731,3.7731,0,0,0,2.22837-2.48983,3.70026,3.70026,0,0,0,.137-.99591V122.00065A.27424.27424,0,0,0,221.93288,121.901ZM118.58531,186.11554V126.04487h96.9185v60.07067Z" fill="#677480"/><g opacity="0.5"><rect x="185.14289" y="140.62908" width="23.01407" height="26.24411" fill="#a6ddff"/></g><rect x="182.92905" y="138.36432" width="23.63698" height="26.86659" fill="#fff"/><path d="M206.25461,138.6757v26.24409H183.24056V138.6757h23.01405m.62246-.62246h-24.259v27.489h24.259v-27.489Z" fill="#dce0e3"/><g opacity="0.5"><rect x="128.45697" y="140.62908" width="23.01407" height="26.24411" fill="#a6ddff"/></g><rect x="126.24345" y="138.36432" width="23.63637" height="26.86659" fill="#fff"/><path d="M149.56869,138.6757v26.24409H126.55463V138.6757h23.01406m.62246-.62246h-24.259v27.489h24.259v-27.489Z" fill="#dce0e3"/><g opacity="0.5"><rect x="157.49733" y="149.74307" width="23.01407" height="26.24411" fill="#a6ddff"/></g><rect x="155.28378" y="147.47871" width="23.63637" height="26.86659" fill="#fff"/><path d="M178.60906,147.78967V174.0338H155.595V147.78967h23.01407m.62246-.62246h-24.259v27.489h24.259v-27.489Z" fill="#008be1"/><path d="M139.80386,142.04981l-1.74219-.87109-1.7422.87109L131.964,142.049v7.2361a4.04257,4.04257,0,0,0,2.03775,3.51043l4.06349,2.32069,4.05808-2.32025a4.04255,4.04255,0,0,0,2.036-3.50947V142.049Zm1.13652,3.47053c.54077,0,.97345.27344.97345,1.14846a.98675.98675,0,1,1-1.94682,0C139.967,145.79378,140.3996,145.52034,140.94038,145.52034Zm-2.88385-.96c.661,0,1.18974.33424,1.18974,1.40368a1.20608,1.20608,0,1,1-2.37957,0C136.8667,144.89455,137.39545,144.56031,138.05653,144.56031Zm-2.87357.96c.54077,0,.97345.27344.97345,1.14846a.98678.98678,0,1,1-1.9469,0C134.20951,145.79378,134.64209,145.52034,135.183,145.52034Zm-.181,3.75774-.00731.02134a.83834.83834,0,0,0-.00706.541h-1.73035a.24819.24819,0,0,1-.21629-.10515.28057.28057,0,0,1,0-.21028l.48668-1.07772a.20863.20863,0,0,1,.10819-.10514l.76291-.39434h.05409a1.23051,1.23051,0,0,0,.72589.27021,1.03683,1.03683,0,0,0,.32849-.05845l-.49592,1.09793Zm5.67267.43415a.30354.30354,0,0,1-.26438.12849H135.71a.30373.30373,0,0,1-.26438-.12849.34288.34288,0,0,1,0-.25715l.59487-1.31727a.25435.25435,0,0,1,.13224-.12857l.92536-.482h.06612a1.53324,1.53324,0,0,0,.89749.33032,1.50346,1.50346,0,0,0,.88712-.33032h.06612l.93251.482a.25441.25441,0,0,1,.13223.12857l.59487,1.31727A.34331.34331,0,0,1,140.67461,149.71223Zm2.40779.02317a.24839.24839,0,0,1-.21629.10514h-1.73035a.83851.83851,0,0,0-.007-.54112l-.00732-.02134-.00923-.02056-.49592-1.09793a1.03727,1.03727,0,0,0,.32849.05845,1.23073,1.23073,0,0,0,.72589-.27021h.05409l.763.39434a.20834.20834,0,0,1,.10819.10514l.48668,1.07772A.28157.28157,0,0,1,143.0824,149.7354Z" fill="#0093d1"/><path d="M194.74759,141.17872c-2.61329,0-5.75795.48781-6.09767,1.15855v3.19692c.04355.17422.331.33973.77527.50524a1.41983,1.41983,0,0,0-.77527.453v3.14466c.04355.17421.34844.35714.81012.52265a1.48957,1.48957,0,0,0-.81012.48782v3.15336c.17422.65333,4.04188,1.31536,6.09767,1.31536s5.92345-.662,6.09767-1.32407v-3.14465c-.05227-.14809-.40071-.3136-.8711-.4704.50524-.17421.8711-.34843.8711-.54007V146.4924c-.05227-.14809-.392-.29617-.8711-.453.49653-.16551.8711-.34844.8711-.54008v-3.16208C200.671,141.84075,197.36087,141.17872,194.74759,141.17872Zm-5.22658,1.25437h.08711a10.85358,10.85358,0,0,0,1.51571.48782,17.22248,17.22248,0,0,0,7.38689,0,10.55758,10.55758,0,0,0,1.54184-.41813l.24391.10453v.50524a11.19454,11.19454,0,0,1-1.64637.43555,17.69664,17.69664,0,0,1-7.64822,0,11.46374,11.46374,0,0,1-1.6638-.43555l-.12195-.05227v-.48781A1.39277,1.39277,0,0,1,189.521,142.43309Zm0,4.13771.10453.05226a11.07992,11.07992,0,0,0,1.55927.40071,16.522,16.522,0,0,0,7.38689,0,10.76689,10.76689,0,0,0,1.54184-.40071l.2439.10454v.50523a11.202,11.202,0,0,1-1.64637.43555,17.69664,17.69664,0,0,1-7.64822,0,11.48072,11.48072,0,0,1-1.66379-.43555l-.12195-.05226v-.4704s.02613-.05226.18293-.13937Zm0,4.19h.08711a10.84467,10.84467,0,0,0,1.55926.41812,17.22206,17.22206,0,0,0,7.38689,0,10.54839,10.54839,0,0,0,1.49829-.41812l.24391.10453v.50524a11.04762,11.04762,0,0,1-1.64637.453,17.69664,17.69664,0,0,1-7.64822,0,11.32562,11.32562,0,0,1-1.6638-.453l-.12195-.05227v-.453A1.2015,1.2015,0,0,1,189.521,150.76077Z" fill="#009ea8"/><path d="M167.102,155.22416a5.86855,5.86855,0,0,0-5.22657,3.04883,6.00433,6.00433,0,0,0,10.45314,0A5.86855,5.86855,0,0,0,167.102,155.22416Zm2.548,1.58539a4.36639,4.36639,0,0,1,1.568,1.46344,5.31528,5.31528,0,0,1-1.50264,1.40247,4.73407,4.73407,0,0,1-2.548.73172,4.57639,4.57639,0,0,1-2.548-.73172,4.45128,4.45128,0,0,1-1.63331-1.40247,4.36639,4.36639,0,0,1,1.568-1.46344c.06534,0,.06534-.061.13067-.061a1.839,1.839,0,0,0-.196.85368,2.61951,2.61951,0,0,0,5.22658,0,3.86163,3.86163,0,0,0-.13067-.85368Zm-2.548.48781a.98232.98232,0,1,1-.98-.91465.9325.9325,0,0,1,.97891.88364Zm-6.96877-7.29978v13.93753H174.0708V149.99758Zm10.45315.8711h.8711v.87109h-.8711ZM161.00436,163.064V153.482H173.1997V163.064Zm11.32424-11.32425v-.87109h.8711v.87109Z" fill="#56aa1c"/><path d="M144.28624,162.275H131.83709a1.86737,1.86737,0,0,1,0-3.73474h12.44915a1.86737,1.86737,0,1,1,0,3.73474Z" fill="#c7ccd1"/><path d="M200.97216,162.275H188.523a1.86737,1.86737,0,0,1,0-3.73474h12.44915a1.86737,1.86737,0,1,1,0,3.73474Z" fill="#c7ccd1"/><path d="M173.32661,170.93708H160.87745a1.86737,1.86737,0,1,1,0-3.73474h12.44916a1.86737,1.86737,0,1,1,0,3.73474Z" fill="#c7ccd1"/><path d="M179.16235,178.95005a.34554.34554,0,0,1-.32031-.21533l-.8169-1.9502-1.22461.48584-.124.02735a.3273.3273,0,0,1-.17432-.04981.37422.37422,0,0,1-.16113-.30127V171.5897a.36619.36619,0,0,1,.09473-.23584.3619.3619,0,0,1,.51172-.02246l3.84619,3.82959.0581.10058a.35027.35027,0,0,1-.0039.271.35522.35522,0,0,1-.19629.19092l-1.19336.47314.81592,1.9624a.36247.36247,0,0,1-.19629.46631l-.792.32422Z"/><path d="M176.703,171.3859a.21115.21115,0,0,1,.14313.0557l3.81927,3.8034a.2066.2066,0,0,1-.06885.339l-1.3349.5297.874,2.103a.21187.21187,0,0,1-.11652.27017l-.76282.31254h-.08477l-.00928.00021a.19592.19592,0,0,1-.1814-.122l-.874-2.0871-1.3349.52973a.18018.18018,0,0,1-.19074,0,.21737.21737,0,0,1-.09-.17484v-5.35547a.21191.21191,0,0,1,.21179-.204m0-.3a.51192.51192,0,0,0-.5116.49311l-.00018,5.36639a.52.52,0,0,0,.21429.418.49424.49424,0,0,0,.27106.08417.47976.47976,0,0,0,.22516-.056l1.04211-.41355.76032,1.81552a.493.493,0,0,0,.45813.30619l.094-.00025h.05909l.05462-.0224.76282-.31253a.51056.51056,0,0,0,.28357-.65353l-.76074-1.83081,1.05151-.41727a.50657.50657,0,0,0,.16882-.83148l-3.81823-3.8024a.51755.51755,0,0,0-.3548-.1431Z" fill="#fff"/><rect x="215.47307" y="166.7872" width="47.69929" height="59.51923" fill="url(#e336ff98-d3bb-495a-bd6b-5efacb486487)"/><g opacity="0.5"><rect x="233.00905" y="213.23576" width="14.18341" height="16.17407" fill="#a6ddff"/></g><rect x="231.64467" y="211.84" width="14.56731" height="16.5577" fill="#fff"/><path d="M246.02006,212.0319V228.206h-14.1834V212.0319h14.1834m.38361-.38361H231.453v16.94129h14.95063V211.64829Z" fill="#dce0e3"/><path d="M238.92836,213.5745c-1.61055,0-3.54858.30063-3.75795.714v1.97024c.02684.10737.204.20937.47779.31137a.875.875,0,0,0-.47779.27916v1.938c.02684.10737.21474.22011.49927.32211a.91806.91806,0,0,0-.49927.30064v1.9434c.10737.40264,2.491.81064,3.75795.81064s3.65058-.408,3.75795-.816v-1.938c-.03221-.09127-.24695-.19327-.53685-.2899.31137-.10737.53685-.21474.53685-.33285v-1.938c-.03221-.09126-.24158-.18253-.53685-.27916.306-.102.53685-.21474.53685-.33285v-1.94876C242.57894,213.9825,240.53891,213.5745,238.92836,213.5745Zm-3.2211.77306h.05368a6.68927,6.68927,0,0,0,.93412.30064,10.614,10.614,0,0,0,4.55249,0,6.50736,6.50736,0,0,0,.95023-.25769l.15031.06442v.31137a6.89837,6.89837,0,0,1-1.01464.26843,10.90611,10.90611,0,0,1-4.71355,0,7.06384,7.06384,0,0,1-1.02538-.26843l-.07516-.03221v-.30063A.858.858,0,0,1,235.70726,214.34756Zm0,2.55.06442.03221a6.829,6.829,0,0,0,.961.24695,10.18219,10.18219,0,0,0,4.55249,0,6.63537,6.63537,0,0,0,.95023-.24695l.15031.06442v.31138a6.904,6.904,0,0,1-1.01464.26842,10.90611,10.90611,0,0,1-4.71355,0,7.076,7.076,0,0,1-1.02538-.26842l-.07516-.03222v-.28989s.0161-.03222.11274-.0859Zm0,2.58225h.05368a6.68452,6.68452,0,0,0,.961.25769,10.614,10.614,0,0,0,4.55249,0,6.50263,6.50263,0,0,0,.92339-.25769l.15031.06442v.31137a6.80756,6.80756,0,0,1-1.01464.27917,10.90653,10.90653,0,0,1-4.71355,0,6.97915,6.97915,0,0,1-1.02538-.27917l-.07516-.03221v-.27916A.74021.74021,0,0,1,235.70726,219.47985Z" fill="#009ea8"/><g opacity="0.5"><rect x="233.00905" y="173.50296" width="14.18341" height="16.17407" fill="#a6ddff"/></g><rect x="231.64488" y="172.1072" width="14.56694" height="16.5577" fill="#fff"/><path d="M246.02007,172.29911v16.174H231.83665v-16.174h14.18342m.38361-.38362H231.453v16.94129h14.95064V171.91549Z" fill="#dce0e3"/><path d="M240.00206,174.37855l-1.0737-.53685-1.0737.53685-2.68425-.00049v4.45957a2.49141,2.49141,0,0,0,1.25585,2.16345l2.5043,1.43022,2.501-1.42995a2.49139,2.49139,0,0,0,1.25479-2.16286v-4.46043Zm.70043,2.13886c.33328,0,.59993.16852.59993.70779a.60812.60812,0,1,1-1.1998,0C240.10262,176.68593,240.36922,176.51741,240.70249,176.51741Zm-1.77729-.59166c.40736,0,.73323.206.73323.86508a.7433.7433,0,1,1-1.46652,0C238.19191,176.13174,238.51778,175.92575,238.9252,175.92575Zm-1.771.59166c.33328,0,.59993.16852.59993.70779a.60815.60815,0,1,1-1.19986,0C236.5543,176.68593,236.8209,176.51741,237.15423,176.51741Zm-.11155,2.31587-.00451.01315a.51666.51666,0,0,0-.00435.33344h-1.0664a.153.153,0,0,1-.1333-.0648.17281.17281,0,0,1,0-.12959l.29994-.6642a.12855.12855,0,0,1,.06667-.06479l.47018-.243h.03334a.7583.7583,0,0,0,.44735.16654.63909.63909,0,0,0,.20245-.036l-.30563.67665Zm3.496.26757a.18706.18706,0,0,1-.16293.07918H237.479a.18722.18722,0,0,1-.16294-.07918.21131.21131,0,0,1,0-.15848l.36662-.81183a.15678.15678,0,0,1,.08149-.07924l.5703-.297h.04075a.94493.94493,0,0,0,.55311.20358.92659.92659,0,0,0,.54673-.20358h.04075l.5747.297a.15678.15678,0,0,1,.08149.07924l.36662.81183A.21155.21155,0,0,1,240.5387,179.10085Zm1.48391.01428a.15311.15311,0,0,1-.1333.06479h-1.0664a.51681.51681,0,0,0-.00435-.33349l-.00451-.01315-.00569-.01267-.30563-.67665a.63934.63934,0,0,0,.20245.036.75845.75845,0,0,0,.44735-.16654h.03334l.47023.243a.12839.12839,0,0,1,.06668.06479l.29994.6642A.17358.17358,0,0,1,242.02261,179.11513Z" fill="#0093d1"/><path d="M242.76453,186.84316H235.0922a1.15085,1.15085,0,1,1,0-2.30169h7.67233a1.15085,1.15085,0,1,1,0,2.30169Z" fill="#c7ccd1"/><path d="M243.16838,227.33269h-7.67233a1.15085,1.15085,0,1,1,0-2.3017h7.67233a1.15085,1.15085,0,0,1,0,2.3017Z" fill="#c7ccd1"/><g opacity="0.5"><rect x="233.00905" y="193.33343" width="14.18341" height="16.17407" fill="#a6ddff"/></g><rect x="231.64486" y="191.93792" width="14.56694" height="16.5577" fill="#fff"/><path d="M246.02007,192.12956v16.17408H231.83665V192.12956h14.18342m.38361-.38362H231.453v16.94132h14.95064V191.74594Z" fill="#dce0e3"/><path d="M238.92836,196.71139a3.61677,3.61677,0,0,0-3.2211,1.879,3.70043,3.70043,0,0,0,6.4422,0A3.61675,3.61675,0,0,0,238.92836,196.71139Zm1.57029.97706a2.691,2.691,0,0,1,.96633.90191,3.27569,3.27569,0,0,1-.92607.86433,2.91753,2.91753,0,0,1-1.57028.451,2.82043,2.82043,0,0,1-1.57029-.451,2.74331,2.74331,0,0,1-1.0066-.86433,2.69111,2.69111,0,0,1,.96633-.90191c.04027,0,.04027-.03758.08053-.03758a1.13335,1.13335,0,0,0-.12079.52612,1.61438,1.61438,0,0,0,3.2211,0,2.37957,2.37957,0,0,0-.08052-.52612Zm-1.57029.30064a.60539.60539,0,1,1-.60395-.56369.57468.57468,0,0,1,.60329.54457Zm-4.2948-4.49881v8.58961h8.58961v-8.58961Zm6.4422.53685h.53685v.53685h-.53685Zm-5.90535,7.51591v-5.90536h7.51591V201.543Zm6.97905-6.97906v-.53685h.53686v.53685Z" fill="#56aa1c"/><path d="M242.76453,206.39515H235.0922a1.15085,1.15085,0,1,1,0-2.30169h7.67233a1.15085,1.15085,0,1,1,0,2.30169Z" fill="#c7ccd1"/><path d="M262.6573,157.80035H215.9882a3.40976,3.40976,0,0,0-3.41937,3.41938v70.65411a3.40971,3.40971,0,0,0,3.41937,3.41937h46.6691a3.41673,3.41673,0,0,0,3.41937-3.41937V161.21973A3.41678,3.41678,0,0,0,262.6573,157.80035Zm.51506,68.50608H215.47307V166.7872h47.69929Z" fill="#a6afb7"/><rect x="233.10247" y="229.07503" width="12.44055" height="3.53624" rx="1.76812" fill="#677480"/><rect x="261.57656" y="198.93764" width="22.77259" height="34.29983" fill="url(#f7c88b7b-b29e-440d-a816-7dec74457032)"/><g opacity="0.5"><rect x="268.95929" y="228.38412" width="8.9938" height="10.25609" fill="#a6ddff"/></g><rect x="268.09413" y="227.49906" width="9.23724" height="10.49935" fill="#fff"/><path d="M277.20967,227.62075v10.25608h-8.9938V227.62075h8.9938m.24325-.24326h-9.4803v10.7426h9.4803v-10.7426Z" fill="#dce0e3"/><path d="M272.71277,228.59892c-1.02126,0-2.25018.19063-2.38295.45276V230.301c.017.06808.12936.13276.303.19744a.555.555,0,0,0-.303.177v1.22892c.017.06809.13617.13957.3166.20425a.58218.58218,0,0,0-.3166.19064v1.23232c.06809.25532,1.57956.514,2.38295.514s2.31486-.25872,2.38295-.51744v-1.22892c-.02043-.05787-.1566-.12255-.34043-.18383.19745-.06808.34043-.13617.34043-.21106v-1.22892c-.02043-.05787-.15319-.11574-.34043-.177.194-.06468.34043-.13616.34043-.21106v-1.23572A4.98953,4.98953,0,0,0,272.71277,228.59892Zm-2.04252.4902h.034a4.242,4.242,0,0,0,.59233.19064,6.73057,6.73057,0,0,0,2.88677,0,4.12656,4.12656,0,0,0,.60254-.1634l.09532.04085v.19744a4.37508,4.37508,0,0,1-.6434.17021,6.91574,6.91574,0,0,1-2.98889,0,4.48,4.48,0,0,1-.6502-.17021l-.04766-.02043v-.19063A.54393.54393,0,0,1,270.67025,229.08912Zm0,1.617.04085.02043a4.33005,4.33005,0,0,0,.60935.15659,6.45673,6.45673,0,0,0,2.88677,0,4.20843,4.20843,0,0,0,.60254-.15659l.09532.04085v.19744a4.37791,4.37791,0,0,1-.6434.17021,6.91574,6.91574,0,0,1-2.98889,0,4.487,4.487,0,0,1-.6502-.17021l-.04766-.02043v-.18382s.01021-.02043.07149-.05447Zm0,1.63742h.034a4.2391,4.2391,0,0,0,.60935.16341,6.73057,6.73057,0,0,0,2.88677,0,4.12212,4.12212,0,0,0,.58552-.16341l.09532.04085v.19745a4.317,4.317,0,0,1-.6434.177,6.91574,6.91574,0,0,1-2.98889,0,4.42664,4.42664,0,0,1-.6502-.177l-.04766-.02043v-.177A.46965.46965,0,0,1,270.67025,232.34354Z" fill="#009ea8"/><g opacity="0.5"><rect x="268.95929" y="203.18926" width="8.9938" height="10.25609" fill="#a6ddff"/></g><rect x="268.09426" y="202.30421" width="9.237" height="10.49935" fill="#fff"/><path d="M277.20967,202.42589V212.682h-8.9938V202.42589h8.9938m.24326-.24325h-9.48032v10.74259h9.48032V202.18264Z" fill="#dce0e3"/><path d="M273.39361,203.74448l-.68084-.34042-.68084.34042-1.7021-.00031V206.572a1.57983,1.57983,0,0,0,.79634,1.37186l1.588.90691,1.58588-.90674a1.57982,1.57982,0,0,0,.79567-1.37149v-2.82839Zm.44415,1.35627c.21133,0,.38042.10686.38042.44881a.38561.38561,0,1,1-.7608,0C273.45738,205.20761,273.62643,205.10075,273.83776,205.10075Zm-1.127-.37518c.25832,0,.46495.13062.46495.54856a.47133.47133,0,1,1-.92993,0C272.24578,204.85619,272.45242,204.72557,272.71076,204.72557Zm-1.123.37518c.21134,0,.38042.10686.38042.44881a.38563.38563,0,1,1-.76084,0C271.20736,205.20761,271.37642,205.10075,271.58778,205.10075Zm-.07073,1.46851-.00286.00834a.32753.32753,0,0,0-.00276.21143h-.67621a.097.097,0,0,1-.08453-.04109.10956.10956,0,0,1,0-.08217l.19019-.42117a.08153.08153,0,0,1,.04228-.04109l.29814-.15411h.02114a.48083.48083,0,0,0,.28368.1056.40539.40539,0,0,0,.12837-.02284l-.1938.42906Zm2.21685.16966a.11864.11864,0,0,1-.10332.05022h-1.83684a.11871.11871,0,0,1-.10332-.05022.134.134,0,0,1,0-.10049l.23247-.51478a.09942.09942,0,0,1,.05168-.05025l.36163-.18835h.02584a.59918.59918,0,0,0,.35073.12908.58752.58752,0,0,0,.34669-.12908h.02584l.36442.18835a.0994.0994,0,0,1,.05167.05025l.23248.51478A.1342.1342,0,0,1,273.7339,206.73892Zm.941.00906a.0971.0971,0,0,1-.08453.04109h-.67621a.32772.32772,0,0,0-.00276-.21147l-.00286-.00834-.00361-.008-.1938-.42906a.40554.40554,0,0,0,.12837.02284.4809.4809,0,0,0,.28368-.1056h.02114l.29817.15411a.08135.08135,0,0,1,.04228.04109l.19019.42117A.11.11,0,0,1,274.67486,206.748Z" fill="#0093d1"/><path d="M275.14531,211.64838h-4.86508a.72976.72976,0,1,1,0-1.45952h4.86508a.72976.72976,0,0,1,0,1.45952Z" fill="#c7ccd1"/><path d="M275.66637,239.424h-5.407a.81106.81106,0,0,1,0-1.62211h5.407a.81106.81106,0,1,1,0,1.62211Z" fill="#c7ccd1"/><g opacity="0.5"><rect x="268.95929" y="215.76391" width="8.9938" height="10.25609" fill="#a6ddff"/></g><rect x="268.09425" y="214.879" width="9.237" height="10.49935" fill="#fff"/><path d="M277.20967,215.00053v10.2561h-8.9938v-10.2561h8.9938m.24326-.24326h-9.48032v10.74261h9.48032V214.75727Z" fill="#dce0e3"/><path d="M272.71277,217.9059a2.29339,2.29339,0,0,0-2.04252,1.19147,2.34648,2.34648,0,0,0,4.085,0A2.29342,2.29342,0,0,0,272.71277,217.9059Zm.99573.61956a1.70638,1.70638,0,0,1,.61276.57191,2.0774,2.0774,0,0,1-.58722.54808,1.85,1.85,0,0,1-.99574.28595,1.78847,1.78847,0,0,1-.99573-.28595,1.73971,1.73971,0,0,1-.63829-.54808,1.70646,1.70646,0,0,1,.61276-.57191c.02553,0,.02553-.02383.05107-.02383a.71863.71863,0,0,0-.0766.33361,1.0237,1.0237,0,0,0,2.04253,0,1.50964,1.50964,0,0,0-.05107-.33361Zm-.99573.19064a.38388.38388,0,1,1-.383-.35745.36441.36441,0,0,1,.38255.34532Zm-2.72336-2.85273v5.44673h5.44673v-5.44673Zm4.085.34042h.34042v.34042h-.34042Zm-3.74463,4.76589v-3.74463h4.76589v3.74463Zm4.42547-4.42547v-.34042h.34042v.34042Z" fill="#56aa1c"/><path d="M275.14531,224.04644h-4.86508a.72976.72976,0,1,1,0-1.45952h4.86508a.72976.72976,0,0,1,0,1.45952Z" fill="#c7ccd1"/><path d="M283.98614,192.67266H261.93958a2.403,2.403,0,0,0-2.40979,2.40979v42.07862a2.403,2.403,0,0,0,2.40979,2.40978h22.04656a2.40792,2.40792,0,0,0,2.40978-2.40978V195.08245A2.408,2.408,0,0,0,283.98614,192.67266Zm.363,40.56481H261.57654V199.00609h22.77259Z" fill="#3c434a"/><rect x="268.57915" y="235.18863" width="8.76741" height="2.49215" rx="1.24607" fill="#677480"/><rect x="39.36889" y="172.11785" width="91.94195" height="53.16141" fill="url(#bd8cb4ea-4798-490a-8582-4fd9692b5324)"/><g opacity="0.5"><rect x="101.55628" y="184.58071" width="20.15627" height="22.98522" fill="#a6ddff"/></g><rect x="99.61734" y="182.59718" width="20.70184" height="23.5304" fill="#fff"/><path d="M120.04643,182.8699v22.9852H99.89018V182.8699h20.15625m.54516-.54517H99.345v24.07554h21.24658V182.32473Z" fill="#dce0e3"/><g opacity="0.5"><rect x="51.90938" y="184.58071" width="20.15627" height="22.98522" fill="#a6ddff"/></g><rect x="49.97074" y="182.59718" width="20.7013" height="23.5304" fill="#fff"/><path d="M70.39954,182.8699v22.9852H50.24327V182.8699H70.39954m.54517-.54517H49.69811v24.07554h21.2466V182.32473Z" fill="#dce0e3"/><g opacity="0.5"><rect x="77.34363" y="192.56296" width="20.15627" height="22.98522" fill="#a6ddff"/></g><rect x="75.40495" y="190.57978" width="20.7013" height="23.5304" fill="#fff"/><path d="M95.83379,190.85213v22.98524H75.67752V190.85213H95.83379m.54517-.54517H75.13236v24.07557H96.379V190.307Z" fill="#008be1"/><path d="M61.84727,185.825l-1.52586-.76292-1.52585.76292-3.81463-.00068v6.33755a3.54059,3.54059,0,0,0,1.78471,3.07452l3.5589,2.03251,3.55417-2.03213a3.54057,3.54057,0,0,0,1.78319-3.07368v-6.33877Zm.99539,3.03958c.47362,0,.85257.23948.85257,1.00584a.86422.86422,0,1,1-1.70507,0C61.99016,189.10408,62.369,188.8646,62.84266,188.8646Zm-2.52575-.84082c.57891,0,1.042.29273,1.042,1.22938a1.05632,1.05632,0,1,1-2.08409,0C59.27483,188.31651,59.73793,188.02378,60.31691,188.02378Zm-2.51674.84082c.47362,0,.85257.23948.85257,1.00584a.86425.86425,0,1,1-1.70514,0C56.9476,189.10408,57.32647,188.8646,57.80017,188.8646Zm-.15854,3.29111-.00641.01869a.73431.73431,0,0,0-.00618.47386H56.11357a.2174.2174,0,0,1-.18944-.09209.24568.24568,0,0,1,0-.18417l.42625-.94389a.18273.18273,0,0,1,.09475-.09209l.66818-.34537h.04737a1.07775,1.07775,0,0,0,.63575.23666.908.908,0,0,0,.2877-.0512l-.43433.9616Zm4.96826.38024a.26585.26585,0,0,1-.23155.11254h-4.1166a.266.266,0,0,1-.23155-.11254.30025.30025,0,0,1,0-.22521l.521-1.1537a.22288.22288,0,0,1,.11582-.11261l.81045-.42212h.05791a1.343,1.343,0,0,0,.786.2893,1.31685,1.31685,0,0,0,.777-.2893h.0579l.81672.42212a.22286.22286,0,0,1,.11581.11261l.521,1.1537A.30064.30064,0,0,1,62.60989,192.536Zm2.1088.0203a.21754.21754,0,0,1-.18943.09208H63.01378a.73445.73445,0,0,0-.00618-.47393l-.00641-.01869-.00809-.018-.43433-.9616a.9083.9083,0,0,0,.2877.0512,1.078,1.078,0,0,0,.63575-.23666h.04738l.66824.34537a.18246.18246,0,0,1,.09476.09209l.42625.94389A.24666.24666,0,0,1,64.71869,192.55625Z" fill="#0093d1"/><path d="M109.9683,185.0621c-2.28878,0-5.04294.42724-5.34048,1.01469v2.79994c.03814.15258.28991.29754.679.4425a1.24353,1.24353,0,0,0-.679.39672v2.75416c.03814.15259.30517.3128.70952.45776a1.30457,1.30457,0,0,0-.70952.42724v2.76179c.15258.5722,3.54,1.152,5.34048,1.152s5.1879-.57982,5.34049-1.15965v-2.75416c-.04578-.1297-.35095-.27465-.76293-.412.4425-.15259.76293-.30517.76293-.473V189.716c-.04578-.1297-.34332-.2594-.76293-.39672.43487-.145.76293-.30517.76293-.473v-2.76942C115.1562,185.64192,112.25708,185.0621,109.9683,185.0621Zm-4.57756,1.09861h.0763a9.50637,9.50637,0,0,0,1.32749.42724,15.08358,15.08358,0,0,0,6.46962,0,9.24673,9.24673,0,0,0,1.35038-.36621l.21362.09156v.44249a9.80378,9.80378,0,0,1-1.44194.38147,15.49911,15.49911,0,0,1-6.69849,0,10.03936,10.03936,0,0,1-1.45719-.38147l-.10681-.04577v-.42724A1.21951,1.21951,0,0,1,105.39074,186.16071Zm0,3.6239.09155.04578a9.70448,9.70448,0,0,0,1.36564.35094,14.47,14.47,0,0,0,6.46962,0,9.42851,9.42851,0,0,0,1.35038-.35094l.21362.09155v.4425a9.81177,9.81177,0,0,1-1.44193.38146,15.49915,15.49915,0,0,1-6.6985,0,10.0561,10.0561,0,0,1-1.45719-.38146l-.10681-.04578v-.412s.02289-.04578.16022-.12207Zm0,3.66968h.0763a9.49911,9.49911,0,0,0,1.36563.3662,15.08358,15.08358,0,0,0,6.46962,0,9.23766,9.23766,0,0,0,1.31224-.3662l.21362.09155v.4425a9.67476,9.67476,0,0,1-1.44194.39672,15.49911,15.49911,0,0,1-6.69849,0,9.91789,9.91789,0,0,1-1.45719-.39672l-.10681-.04578v-.39672A1.05227,1.05227,0,0,1,105.39074,193.45429Z" fill="#009ea8"/><path d="M85.75566,197.36343a5.13984,5.13984,0,0,0-4.57756,2.67024,5.25874,5.25874,0,0,0,9.15512,0A5.13984,5.13984,0,0,0,85.75566,197.36343Zm2.23156,1.38853a3.82416,3.82416,0,0,1,1.37327,1.28171,4.65535,4.65535,0,0,1-1.31605,1.22832,4.14606,4.14606,0,0,1-2.23156.64085,4.008,4.008,0,0,1-2.23156-.64085,3.89855,3.89855,0,0,1-1.43049-1.22832A3.82416,3.82416,0,0,1,83.5241,198.752c.05722,0,.05722-.05341.11444-.05341a1.61069,1.61069,0,0,0-.17166.74767,2.29423,2.29423,0,0,0,4.57756,0,3.3822,3.3822,0,0,0-.11444-.74767Zm-2.23156.42724a.86034.86034,0,1,1-.85829-.80108.8167.8167,0,0,1,.85735.77391Zm-6.10341-6.39333V204.9927H91.85907V192.78587Zm9.15512.76293h.76292v.76292h-.76292Zm-8.3922,10.681v-8.39219h10.681v8.39219Zm9.918-9.918v-.76292h.76293v.76292Z" fill="#56aa1c"/><path d="M65.77305,203.53869H54.86978a1.63549,1.63549,0,1,1,0-3.271H65.77305a1.63549,1.63549,0,0,1,0,3.271Z" fill="#c7ccd1"/><path d="M115.41994,203.53869H104.51667a1.63549,1.63549,0,0,1,0-3.271h10.90327a1.63549,1.63549,0,0,1,0,3.271Z" fill="#c7ccd1"/><path d="M91.20729,211.12519H80.304a1.63549,1.63549,0,1,1,0-3.271H91.20729a1.63549,1.63549,0,1,1,0,3.271Z" fill="#c7ccd1"/><path d="M130.8365,172.225a.19039.19039,0,0,1,.19019.19019v52.86612H39.73439V172.41515a.19039.19039,0,0,1,.19019-.19019H130.8365m0-2.43728H39.92458a2.62748,2.62748,0,0,0-2.62747,2.62747v55.30339H133.464V172.41515a2.62747,2.62747,0,0,0-2.62747-2.62747Z" fill="#a6afb7"/><path d="M29.61743,227.71854H141.14366a.87582.87582,0,0,1,.87582.87582v.9732a5.72565,5.72565,0,0,1-5.72565,5.72565H34.46726a5.72565,5.72565,0,0,1-5.72565-5.72565v-.9732a.87582.87582,0,0,1,.87582-.87582Z" fill="#a6afb7"/><path d="M78.5989,233.89079a.42722.42722,0,0,1-.23478-.06829.27316.27316,0,0,1-.056-.43367l2.17759-2.22116a.431.431,0,0,1,.52644-.04647.27317.27317,0,0,1,.056.43367L78.89055,233.776A.40956.40956,0,0,1,78.5989,233.89079Z" fill="#3c434a"/><path d="M80.8757,233.89079a.42722.42722,0,0,1-.23478-.06829.27316.27316,0,0,1-.056-.43367l2.178-2.22116a.43109.43109,0,0,1,.52643-.04647.27316.27316,0,0,1,.056.43367l-2.178,2.22117A.40956.40956,0,0,1,80.8757,233.89079Z" fill="#3c434a"/><path d="M83.1525,233.89079a.42722.42722,0,0,1-.23478-.06829.27316.27316,0,0,1-.056-.43367l2.178-2.22116a.43091.43091,0,0,1,.52643-.04647.27316.27316,0,0,1,.056.43367l-2.178,2.22117A.40956.40956,0,0,1,83.1525,233.89079Z" fill="#3c434a"/><path d="M85.42972,233.89079a.42725.42725,0,0,1-.23478-.06829.27317.27317,0,0,1-.056-.43367l2.17759-2.22116a.43109.43109,0,0,1,.52643-.04647.27316.27316,0,0,1,.056.43367L85.72138,233.776A.40957.40957,0,0,1,85.42972,233.89079Z" fill="#3c434a"/><path d="M87.70652,233.89079a.42719.42719,0,0,1-.23477-.06829.27316.27316,0,0,1-.056-.43367l2.17759-2.22116a.431.431,0,0,1,.52643-.04647.27316.27316,0,0,1,.056.43367L87.99818,233.776A.40957.40957,0,0,1,87.70652,233.89079Z" fill="#3c434a"/><path d="M89.98332,233.89079a.42719.42719,0,0,1-.23477-.06829.27316.27316,0,0,1-.056-.43367l2.178-2.22116a.431.431,0,0,1,.52643-.04647.27316.27316,0,0,1,.056.43367L90.275,233.776A.40957.40957,0,0,1,89.98332,233.89079Z" fill="#3c434a"/><rect x="27.43425" y="227.71854" width="115.89259" height="2.06347" rx="1.03174" fill="#677480"/><path d="M96.73169,216.84653a.22355.22355,0,0,1-.208-.13964l-.519-1.23975-.77833.30859-.08007.01709a.21625.21625,0,0,1-.11328-.03222.24089.24089,0,0,1-.1045-.19678v-3.45313l.061-.11523a.236.236,0,0,1,.17383-.07715h.03857l.12012.062,2.439,2.42871c.07471.13623.07373.19922.04932.25635a.22847.22847,0,0,1-.12744.12305l-.75635.30078.51807,1.24707a.23484.23484,0,0,1-.12793.30322l-.48682.19971Z"/><path d="M95.16345,212.01862a.13465.13465,0,0,1,.09125.03549l2.4356,2.42548a.13174.13174,0,0,1-.04388.21622l-.85132.3378.55737,1.34112a.13511.13511,0,0,1-.07428.17227l-.48645.19931h-.05407l-.00586.00016a.125.125,0,0,1-.11572-.07785l-.55738-1.331-.85132.3378a.11472.11472,0,0,1-.12158,0,.13848.13848,0,0,1-.05743-.11148v-3.41525a.1351.1351,0,0,1,.13507-.1301m0-.2a.33512.33512,0,0,0-.335.32288l-.00012,3.42248a.34.34,0,0,0,.14038.27362.32371.32371,0,0,0,.17785.05527.31432.31432,0,0,0,.16675-.04779l.63641-.24979.48182,1.15058a.323.323,0,0,0,.30023.20059l.05993-.00012h.03937l.03644-.015.48645-.19928a.33428.33428,0,0,0,.18561-.42788l-.48181-1.15967.66241-.26282a.33181.33181,0,0,0,.11054-.54452l-2.43494-2.42481a.33877.33877,0,0,0-.23236-.09378Z" fill="#fff"/></svg>