<svg version="1.1" viewBox="0.0 0.0 600.4829396325459 569.3359580052494" fill="none" stroke="none" stroke-linecap="square" stroke-miterlimit="10" xmlns:xlink="http://www.w3.org/1999/xlink" xmlns="http://www.w3.org/2000/svg"><clipPath id="p.0"><path d="m0 0l600.4829 0l0 569.33594l-600.4829 0l0 -569.33594z" clip-rule="nonzero"/></clipPath><g clip-path="url(#p.0)"><path fill="#000000" fill-opacity="0.0" d="m0 0l600.4829 0l0 569.33594l-600.4829 0z" fill-rule="evenodd"/><path fill="#f4cccc" d="m337.11023 314.06824l161.5433 0l0 64.409454l-161.5433 0z" fill-rule="evenodd"/><path stroke="#ffffff" stroke-width="1.0" stroke-linejoin="round" stroke-linecap="butt" d="m337.11023 314.06824l161.5433 0l0 64.409454l-161.5433 0z" fill-rule="evenodd"/><path fill="#000000" d="m359.18936 344.69296l0 -1.515625l6.421875 0l0 1.515625l-6.421875 0zm6.77713 -2.5l3.203125 -15.109375l2.03125 0l3.234375 15.109375l-2.0 0l-0.6875 -3.8125l-3.078125 0l-0.734375 3.8125l-1.96875 0zm2.984375 -5.3125l2.515625 0l-1.265625 -6.8125l-1.25 6.8125zm6.757019 5.3125l0 -2.21875l1.984375 0l0 2.21875l-1.984375 0zm6.0854797 0.15625q-1.3125 0 -2.125 -0.828125q-0.796875 -0.84375 -0.90625 -2.203125l1.65625 -0.5q0.15625 1.03125 0.5 1.546875q0.359375 0.5 1.046875 0.5q0.546875 0 0.828125 -0.296875q0.28125 -0.3125 0.28125 -0.84375q0 -0.453125 -0.21875 -0.828125q-0.203125 -0.375 -0.65625 -0.765625l-1.859375 -1.59375q-0.546875 -0.484375 -0.9375 -1.078125q-0.375 -0.59375 -0.375 -1.546875q0 -0.859375 0.34375 -1.4375q0.34375 -0.59375 0.96875 -0.90625q0.625 -0.3125 1.453125 -0.3125q1.296875 0 1.96875 0.84375q0.6875 0.828125 0.78125 2.0l-1.34375 0.5q-0.078125 -0.5625 -0.234375 -0.984375q-0.140625 -0.421875 -0.40625 -0.640625q-0.25 -0.234375 -0.6875 -0.234375q-0.484375 0 -0.78125 0.328125q-0.28125 0.3125 -0.28125 0.765625q0 0.28125 0.125 0.5625q0.125 0.265625 0.421875 0.515625l1.90625 1.765625q0.390625 0.34375 0.734375 0.765625q0.34375 0.40625 0.5625 0.9375q0.234375 0.515625 0.234375 1.203125q0 0.90625 -0.375 1.53125q-0.375 0.609375 -1.046875 0.921875q-0.671875 0.3125 -1.578125 0.3125zm7.3524475 0q-0.828125 0 -1.34375 -0.3125q-0.515625 -0.328125 -0.75 -0.90625q-0.234375 -0.578125 -0.234375 -1.359375l0 -7.03125l-1.140625 0l0 -1.328125l1.140625 0l0 -3.15625l2.0 0l0 3.15625l1.734375 0l0 1.328125l-1.734375 0l0 6.890625q0 0.640625 0.203125 0.921875q0.203125 0.265625 0.78125 0.265625q0.15625 0 0.34375 -0.015625q0.203125 -0.03125 0.390625 -0.046875l0 1.46875q-0.375 0.0625 -0.703125 0.09375q-0.3125 0.03125 -0.6875 0.03125zm4.8242493 0q-0.640625 0 -1.125 -0.359375q-0.484375 -0.375 -0.765625 -0.9375q-0.28125 -0.578125 -0.28125 -1.203125q0 -1.015625 0.328125 -1.703125q0.34375 -0.6875 0.921875 -1.15625q0.59375 -0.484375 1.359375 -0.84375q0.78125 -0.359375 1.640625 -0.6875l0 -0.765625q0 -0.65625 -0.078125 -1.078125q-0.0625 -0.4375 -0.296875 -0.640625q-0.234375 -0.21875 -0.703125 -0.21875q-0.40625 0 -0.65625 0.1875q-0.25 0.1875 -0.375 0.53125q-0.109375 0.34375 -0.109375 0.8125l0 0.53125l-1.96875 -0.0625q0.03125 -1.796875 0.8125 -2.640625q0.78125 -0.859375 2.421875 -0.859375q1.609375 0 2.28125 0.890625q0.671875 0.875 0.671875 2.53125l0 4.921875q0 0.5 0.03125 0.96875q0.03125 0.46875 0.078125 0.875q0.046875 0.390625 0.078125 0.75l-1.828125 0q-0.0625 -0.296875 -0.140625 -0.75q-0.078125 -0.46875 -0.125 -0.828125q-0.1875 0.625 -0.71875 1.1875q-0.53125 0.546875 -1.453125 0.546875zm0.78125 -1.71875q0.296875 0 0.546875 -0.171875q0.265625 -0.171875 0.46875 -0.375q0.21875 -0.21875 0.28125 -0.359375l0 -3.046875q-0.453125 0.25 -0.875 0.515625q-0.40625 0.265625 -0.71875 0.5625q-0.296875 0.28125 -0.484375 0.640625q-0.171875 0.359375 -0.171875 0.828125q0 0.65625 0.234375 1.03125q0.25 0.375 0.71875 0.375zm7.938843 1.71875q-0.828125 0 -1.34375 -0.3125q-0.515625 -0.328125 -0.75 -0.90625q-0.234375 -0.578125 -0.234375 -1.359375l0 -7.03125l-1.140625 0l0 -1.328125l1.140625 0l0 -3.15625l2.0 0l0 3.15625l1.734375 0l0 1.328125l-1.734375 0l0 6.890625q0 0.640625 0.203125 0.921875q0.203125 0.265625 0.78125 0.265625q0.15625 0 0.34375 -0.015625q0.203125 -0.03125 0.390625 -0.046875l0 1.46875q-0.375 0.0625 -0.703125 0.09375q-0.3125 0.03125 -0.6875 0.03125zm5.8711243 0q-1.28125 0 -1.96875 -0.5q-0.6875 -0.5 -0.96875 -1.453125q-0.265625 -0.96875 -0.265625 -2.359375l0 -2.46875q0 -1.4375 0.28125 -2.390625q0.28125 -0.953125 0.984375 -1.4375q0.703125 -0.484375 1.9375 -0.484375q1.359375 0 2.0 0.5625q0.640625 0.5625 0.84375 1.625q0.203125 1.046875 0.203125 2.515625l0 0.875l-4.25 0l0 2.171875q0 0.65625 0.125 1.0625q0.125 0.40625 0.390625 0.609375q0.265625 0.1875 0.703125 0.1875q0.4375 0 0.671875 -0.203125q0.234375 -0.21875 0.3125 -0.625q0.09375 -0.40625 0.09375 -0.9375l0 -0.65625l1.9375 0l0 0.40625q0 1.625 -0.6875 2.5625q-0.6875 0.9375 -2.34375 0.9375zm-1.203125 -6.59375l2.296875 0l0 -0.96875q0 -0.671875 -0.078125 -1.125q-0.078125 -0.46875 -0.3125 -0.6875q-0.21875 -0.234375 -0.734375 -0.234375q-0.484375 0 -0.734375 0.21875q-0.25 0.21875 -0.34375 0.75q-0.09375 0.53125 -0.09375 1.46875l0 0.578125zm5.9792786 6.4375l0 -2.21875l1.984375 0l0 2.21875l-1.984375 0zm5.5386353 0.15625q-0.640625 0 -1.125 -0.359375q-0.484375 -0.375 -0.765625 -0.9375q-0.28125 -0.578125 -0.28125 -1.203125q0 -1.015625 0.328125 -1.703125q0.34375 -0.6875 0.921875 -1.15625q0.59375 -0.484375 1.359375 -0.84375q0.78125 -0.359375 1.640625 -0.6875l0 -0.765625q0 -0.65625 -0.078125 -1.078125q-0.0625 -0.4375 -0.296875 -0.640625q-0.234375 -0.21875 -0.703125 -0.21875q-0.40625 0 -0.65625 0.1875q-0.25 0.1875 -0.375 0.53125q-0.109375 0.34375 -0.109375 0.8125l0 0.53125l-1.96875 -0.0625q0.03125 -1.796875 0.8125 -2.640625q0.78125 -0.859375 2.421875 -0.859375q1.609375 0 2.28125 0.890625q0.671875 0.875 0.671875 2.53125l0 4.921875q0 0.5 0.03125 0.96875q0.03125 0.46875 0.078125 0.875q0.046875 0.390625 0.078125 0.75l-1.828125 0q-0.0625 -0.296875 -0.140625 -0.75q-0.078125 -0.46875 -0.125 -0.828125q-0.1875 0.625 -0.71875 1.1875q-0.53125 0.546875 -1.453125 0.546875zm0.78125 -1.71875q0.296875 0 0.546875 -0.171875q0.265625 -0.171875 0.46875 -0.375q0.21875 -0.21875 0.28125 -0.359375l0 -3.046875q-0.453125 0.25 -0.875 0.515625q-0.40625 0.265625 -0.71875 0.5625q-0.296875 0.28125 -0.484375 0.640625q-0.171875 0.359375 -0.171875 0.828125q0 0.65625 0.234375 1.03125q0.25 0.375 0.71875 0.375zm9.485474 -6.9375l0 -1.53125l5.734375 0l0 1.53125l-5.734375 0zm0 3.296875l0 -1.515625l5.734375 0l0 1.515625l-5.734375 0zm12.655243 5.203125l0 -9.3125l-1.28125 0l0 -1.46875l1.28125 0l0 -0.5625q0 -1.0 0.15625 -1.71875q0.15625 -0.71875 0.65625 -1.109375q0.515625 -0.40625 1.515625 -0.40625q0.375 0 0.65625 0.03125q0.296875 0.03125 0.65625 0.109375l0 1.453125q-0.171875 -0.03125 -0.375 -0.0625q-0.203125 -0.03125 -0.375 -0.03125q-0.578125 0 -0.734375 0.390625q-0.15625 0.375 -0.15625 1.015625l0 0.890625l1.640625 0l0 1.46875l-1.640625 0l0 9.3125l-2.0 0zm6.6668396 0.15625q-0.640625 0 -1.125 -0.359375q-0.484375 -0.375 -0.765625 -0.9375q-0.28125 -0.578125 -0.28125 -1.203125q0 -1.015625 0.328125 -1.703125q0.34375 -0.6875 0.921875 -1.15625q0.59375 -0.484375 1.359375 -0.84375q0.78125 -0.359375 1.640625 -0.6875l0 -0.765625q0 -0.65625 -0.078125 -1.078125q-0.0625 -0.4375 -0.296875 -0.640625q-0.234375 -0.21875 -0.703125 -0.21875q-0.40625 0 -0.65625 0.1875q-0.25 0.1875 -0.375 0.53125q-0.109375 0.34375 -0.109375 0.8125l0 0.53125l-1.96875 -0.0625q0.03125 -1.796875 0.8125 -2.640625q0.78125 -0.859375 2.421875 -0.859375q1.609375 0 2.28125 0.890625q0.671875 0.875 0.671875 2.53125l0 4.921875q0 0.5 0.03125 0.96875q0.03125 0.46875 0.078125 0.875q0.046875 0.390625 0.078125 0.75l-1.828125 0q-0.0625 -0.296875 -0.140625 -0.75q-0.078125 -0.46875 -0.125 -0.828125q-0.1875 0.625 -0.71875 1.1875q-0.53125 0.546875 -1.453125 0.546875zm0.78125 -1.71875q0.296875 0 0.546875 -0.171875q0.265625 -0.171875 0.46875 -0.375q0.21875 -0.21875 0.28125 -0.359375l0 -3.046875q-0.453125 0.25 -0.875 0.515625q-0.40625 0.265625 -0.71875 0.5625q-0.296875 0.28125 -0.484375 0.640625q-0.171875 0.359375 -0.171875 0.828125q0 0.65625 0.234375 1.03125q0.25 0.375 0.71875 0.375zm5.400696 1.5625l0 -15.109375l2.0 0l0 15.109375l-2.0 0zm6.584778 0.15625q-1.3125 0 -2.125 -0.828125q-0.796875 -0.84375 -0.90625 -2.203125l1.65625 -0.5q0.15625 1.03125 0.5 1.546875q0.359375 0.5 1.046875 0.5q0.546875 0 0.828125 -0.296875q0.28125 -0.3125 0.28125 -0.84375q0 -0.453125 -0.21875 -0.828125q-0.203125 -0.375 -0.65625 -0.765625l-1.859375 -1.59375q-0.546875 -0.484375 -0.9375 -1.078125q-0.375 -0.59375 -0.375 -1.546875q0 -0.859375 0.34375 -1.4375q0.34375 -0.59375 0.96875 -0.90625q0.625 -0.3125 1.453125 -0.3125q1.296875 0 1.96875 0.84375q0.6875 0.828125 0.78125 2.0l-1.34375 0.5q-0.078125 -0.5625 -0.234375 -0.984375q-0.140625 -0.421875 -0.40625 -0.640625q-0.25 -0.234375 -0.6875 -0.234375q-0.484375 0 -0.78125 0.328125q-0.28125 0.3125 -0.28125 0.765625q0 0.28125 0.125 0.5625q0.125 0.265625 0.421875 0.515625l1.90625 1.765625q0.390625 0.34375 0.734375 0.765625q0.34375 0.40625 0.5625 0.9375q0.234375 0.515625 0.234375 1.203125q0 0.90625 -0.375 1.53125q-0.375 0.609375 -1.046875 0.921875q-0.671875 0.3125 -1.578125 0.3125zm7.477417 0q-1.28125 0 -1.96875 -0.5q-0.6875 -0.5 -0.96875 -1.453125q-0.265625 -0.96875 -0.265625 -2.359375l0 -2.46875q0 -1.4375 0.28125 -2.390625q0.28125 -0.953125 0.984375 -1.4375q0.703125 -0.484375 1.9375 -0.484375q1.359375 0 2.0 0.5625q0.640625 0.5625 0.84375 1.625q0.203125 1.046875 0.203125 2.515625l0 0.875l-4.25 0l0 2.171875q0 0.65625 0.125 1.0625q0.125 0.40625 0.390625 0.609375q0.265625 0.1875 0.703125 0.1875q0.4375 0 0.671875 -0.203125q0.234375 -0.21875 0.3125 -0.625q0.09375 -0.40625 0.09375 -0.9375l0 -0.65625l1.9375 0l0 0.40625q0 1.625 -0.6875 2.5625q-0.6875 0.9375 -2.34375 0.9375zm-1.203125 -6.59375l2.296875 0l0 -0.96875q0 -0.671875 -0.078125 -1.125q-0.078125 -0.46875 -0.3125 -0.6875q-0.21875 -0.234375 -0.734375 -0.234375q-0.484375 0 -0.734375 0.21875q-0.25 0.21875 -0.34375 0.75q-0.09375 0.53125 -0.09375 1.46875l0 0.578125zm6.4792786 7.296875l-0.34375 -0.875q0.578125 -0.046875 0.828125 -0.359375q0.265625 -0.328125 0.265625 -0.890625l-1.078125 0l0 -2.125l2.078125 0l0 2.078125q0 1.0 -0.390625 1.5625q-0.390625 0.578125 -1.359375 0.609375zm-0.328125 -9.1875l0 -2.21875l2.015625 0l0 2.21875l-2.015625 0z" fill-rule="nonzero"/><path fill="#000000" d="m381.06375 366.69296l0 -1.515625l6.421875 0l0 1.515625l-6.421875 0zm6.77713 -2.5l3.203125 -15.109375l2.03125 0l3.234375 15.109375l-2.0 0l-0.6875 -3.8125l-3.078125 0l-0.734375 3.8125l-1.96875 0zm2.984375 -5.3125l2.515625 0l-1.265625 -6.8125l-1.25 6.8125zm6.757019 5.3125l0 -2.21875l1.984375 0l0 2.21875l-1.984375 0zm3.6479797 0l0 -10.78125l2.0 0l0 1.53125q0.59375 -1.0 1.1875 -1.328125q0.59375 -0.328125 1.203125 -0.328125q0.0625 0 0.125 0q0.078125 0 0.1875 0.015625l0 2.203125q-0.21875 -0.09375 -0.515625 -0.15625q-0.28125 -0.078125 -0.578125 -0.078125q-0.46875 0 -0.859375 0.21875q-0.375 0.21875 -0.75 0.828125l0 7.875l-2.0 0zm8.926178 0.15625q-1.28125 0 -1.96875 -0.5q-0.6875 -0.5 -0.96875 -1.453125q-0.265625 -0.96875 -0.265625 -2.359375l0 -2.46875q0 -1.4375 0.28125 -2.390625q0.28125 -0.953125 0.984375 -1.4375q0.703125 -0.484375 1.9375 -0.484375q1.359375 0 2.0 0.5625q0.640625 0.5625 0.84375 1.625q0.203125 1.046875 0.203125 2.515625l0 0.875l-4.25 0l0 2.171875q0 0.65625 0.125 1.0625q0.125 0.40625 0.390625 0.609375q0.265625 0.1875 0.703125 0.1875q0.4375 0 0.671875 -0.203125q0.234375 -0.21875 0.3125 -0.625q0.09375 -0.40625 0.09375 -0.9375l0 -0.65625l1.9375 0l0 0.40625q0 1.625 -0.6875 2.5625q-0.6875 0.9375 -2.34375 0.9375zm-1.203125 -6.59375l2.296875 0l0 -0.96875q0 -0.671875 -0.078125 -1.125q-0.078125 -0.46875 -0.3125 -0.6875q-0.21875 -0.234375 -0.734375 -0.234375q-0.484375 0 -0.734375 0.21875q-0.25 0.21875 -0.34375 0.75q-0.09375 0.53125 -0.09375 1.46875l0 0.578125zm6.0574036 6.4375l0 -10.78125l2.0 0l0 1.0625q0.546875 -0.5 1.1875 -0.859375q0.65625 -0.359375 1.453125 -0.359375q0.640625 0 0.984375 0.34375q0.359375 0.328125 0.484375 0.84375q0.140625 0.5 0.140625 1.015625l0 8.734375l-1.984375 0l0 -8.15625q0 -0.578125 -0.171875 -0.890625q-0.171875 -0.3125 -0.6875 -0.3125q-0.34375 0 -0.703125 0.203125q-0.359375 0.1875 -0.703125 0.46875l0 8.6875l-2.0 0zm10.690094 0.15625q-1.359375 0 -2.03125 -1.0q-0.671875 -1.0 -0.671875 -3.390625l0 -2.09375q0 -1.234375 0.203125 -2.28125q0.21875 -1.046875 0.78125 -1.6875q0.5625 -0.640625 1.671875 -0.640625q0.546875 0 0.984375 0.25q0.453125 0.234375 0.8125 0.59375l0 -5.015625l1.984375 0l0 15.109375l-1.984375 0l0 -0.6875q-0.359375 0.375 -0.78125 0.609375q-0.421875 0.234375 -0.96875 0.234375zm0.515625 -1.578125q0.28125 0 0.59375 -0.09375q0.3125 -0.109375 0.640625 -0.3125l0 -7.078125q-0.265625 -0.171875 -0.59375 -0.3125q-0.3125 -0.140625 -0.6875 -0.140625q-0.6875 0 -0.9375 0.65625q-0.234375 0.65625 -0.234375 1.59375l0 3.046875q0 0.734375 0.078125 1.34375q0.09375 0.609375 0.34375 0.953125q0.265625 0.34375 0.796875 0.34375zm8.230438 1.578125q-1.28125 0 -1.96875 -0.5q-0.6875 -0.5 -0.96875 -1.453125q-0.265625 -0.96875 -0.265625 -2.359375l0 -2.46875q0 -1.4375 0.28125 -2.390625q0.28125 -0.953125 0.984375 -1.4375q0.703125 -0.484375 1.9375 -0.484375q1.359375 0 2.0 0.5625q0.640625 0.5625 0.84375 1.625q0.203125 1.046875 0.203125 2.515625l0 0.875l-4.25 0l0 2.171875q0 0.65625 0.125 1.0625q0.125 0.40625 0.390625 0.609375q0.265625 0.1875 0.703125 0.1875q0.4375 0 0.671875 -0.203125q0.234375 -0.21875 0.3125 -0.625q0.09375 -0.40625 0.09375 -0.9375l0 -0.65625l1.9375 0l0 0.40625q0 1.625 -0.6875 2.5625q-0.6875 0.9375 -2.34375 0.9375zm-1.203125 -6.59375l2.296875 0l0 -0.96875q0 -0.671875 -0.078125 -1.125q-0.078125 -0.46875 -0.3125 -0.6875q-0.21875 -0.234375 -0.734375 -0.234375q-0.484375 0 -0.734375 0.21875q-0.25 0.21875 -0.34375 0.75q-0.09375 0.53125 -0.09375 1.46875l0 0.578125zm6.1199036 6.4375l0 -10.78125l2.0 0l0 1.53125q0.59375 -1.0 1.1875 -1.328125q0.59375 -0.328125 1.203125 -0.328125q0.0625 0 0.125 0q0.078125 0 0.1875 0.015625l0 2.203125q-0.21875 -0.09375 -0.515625 -0.15625q-0.28125 -0.078125 -0.578125 -0.078125q-0.46875 0 -0.859375 0.21875q-0.375 0.21875 -0.75 0.828125l0 7.875l-2.0 0zm9.926147 3.625q-1.0625 -0.03125 -1.75 -0.5625q-0.671875 -0.53125 -1.0625 -1.46875q-0.390625 -0.921875 -0.578125 -2.109375q-0.171875 -1.203125 -0.21875 -2.5625q-0.03125 -1.359375 -0.03125 -2.71875q0 -1.390625 0.03125 -2.734375q0.046875 -1.359375 0.21875 -2.5625q0.1875 -1.203125 0.578125 -2.125q0.390625 -0.9375 1.0625 -1.46875q0.6875 -0.546875 1.75 -0.546875l0 1.328125q-0.65625 0.03125 -1.015625 0.75q-0.34375 0.71875 -0.5 1.890625q-0.140625 1.171875 -0.171875 2.609375q-0.03125 1.421875 -0.03125 2.859375q0 1.453125 0.03125 2.875q0.03125 1.421875 0.171875 2.609375q0.15625 1.171875 0.5 1.875q0.359375 0.71875 1.015625 0.734375l0 1.328125zm1.1064453 0l0 -1.34375q0.671875 -0.03125 1.015625 -0.75q0.359375 -0.703125 0.5 -1.875q0.15625 -1.1875 0.1875 -2.625q0.03125 -1.4375 0.03125 -2.875q0 -1.453125 -0.03125 -2.875q-0.03125 -1.4375 -0.1875 -2.59375q-0.140625 -1.171875 -0.5 -1.875q-0.34375 -0.71875 -1.015625 -0.734375l0 -1.3125q1.078125 0 1.75 0.53125q0.6875 0.53125 1.078125 1.46875q0.390625 0.921875 0.5625 2.125q0.1875 1.203125 0.21875 2.546875q0.046875 1.34375 0.046875 2.71875q0 1.390625 -0.046875 2.75q-0.03125 1.34375 -0.21875 2.5625q-0.171875 1.203125 -0.5625 2.125q-0.390625 0.9375 -1.078125 1.46875q-0.671875 0.53125 -1.75 0.5625z" fill-rule="nonzero"/><path fill="#f9cb9c" d="m104.308395 142.75604l0 0c0 -3.5950012 2.914322 -6.509323 6.509323 -6.509323l89.784515 0c1.7263794 0 3.3820496 0.6858063 4.602783 1.9065399c1.2207336 1.2207336 1.9065247 2.8764038 1.9065247 4.602783l0 26.036484c0 3.594986 -2.9143066 6.509308 -6.509308 6.509308l-89.784515 0l0 0c-3.5950012 0 -6.509323 -2.914322 -6.509323 -6.509308z" fill-rule="evenodd"/><path stroke="#ffffff" stroke-width="1.0" stroke-linejoin="round" stroke-linecap="butt" d="m104.308395 142.75604l0 0c0 -3.5950012 2.914322 -6.509323 6.509323 -6.509323l89.784515 0c1.7263794 0 3.3820496 0.6858063 4.602783 1.9065399c1.2207336 1.2207336 1.9065247 2.8764038 1.9065247 4.602783l0 26.036484c0 3.594986 -2.9143066 6.509308 -6.509308 6.509308l-89.784515 0l0 0c-3.5950012 0 -6.509323 -2.914322 -6.509323 -6.509308z" fill-rule="evenodd"/><path fill="#000000" d="m121.08982 162.69427l0 -15.109375l3.46875 0q1.03125 0 1.78125 0.234375q0.765625 0.21875 1.265625 0.6875q0.49999237 0.453125 0.7343674 1.171875q0.25 0.71875 0.25 1.6875q0 0.9375 -0.234375 1.625q-0.234375 0.671875 -0.7187424 1.0625q-0.46875 0.390625 -1.203125 0.5q0.90625 0.21875 1.46875 0.71875q0.5624924 0.484375 0.8281174 1.265625q0.265625 0.765625 0.265625 1.84375q0 0.96875 -0.21875 1.78125q-0.21875 0.796875 -0.703125 1.359375q-0.46874237 0.5625 -1.2031174 0.875q-0.734375 0.296875 -1.75 0.296875l-4.03125 0zm2.109375 -1.515625l1.421875 0q1.421875 0 1.890625 -0.65625q0.484375 -0.65625 0.484375 -2.140625q0 -0.953125 -0.265625 -1.59375q-0.25 -0.640625 -0.796875 -0.96875q-0.546875 -0.328125 -1.484375 -0.328125l-1.25 0l0 5.6875zm0 -7.296875l1.25 0q0.890625 0 1.390625 -0.25q0.515625 -0.25 0.71875 -0.796875q0.203125 -0.5625 0.203125 -1.46875q0 -1.046875 -0.3125 -1.5q-0.3125 -0.46875 -0.984375 -0.59375q-0.671875 -0.125 -1.765625 -0.125l-0.5 0l0 4.734375zm11.494621 12.4375q-1.0625 -0.03125 -1.75 -0.5625q-0.671875 -0.53125 -1.0625 -1.46875q-0.390625 -0.921875 -0.578125 -2.109375q-0.171875 -1.203125 -0.21875 -2.5625q-0.03125 -1.359375 -0.03125 -2.71875q0 -1.390625 0.03125 -2.734375q0.046875 -1.359375 0.21875 -2.5625q0.1875 -1.203125 0.578125 -2.125q0.390625 -0.9375 1.0625 -1.46875q0.6875 -0.546875 1.75 -0.546875l0 1.328125q-0.65625 0.03125 -1.015625 0.75q-0.34375 0.71875 -0.5 1.890625q-0.140625 1.171875 -0.171875 2.609375q-0.03125 1.421875 -0.03125 2.859375q0 1.453125 0.03125 2.875q0.03125 1.421875 0.171875 2.609375q0.15625 1.171875 0.5 1.875q0.359375 0.71875 1.015625 0.734375l0 1.328125zm5.7314453 -0.0625q-1.171875 0 -1.84375 -0.125q-0.671875 -0.109375 -1.0 -0.5q-0.328125 -0.375 -0.421875 -1.125q-0.078125 -0.75 -0.078125 -2.0l0 -2.625q0 -1.03125 -0.09375 -1.515625q-0.078125 -0.5 -0.3125 -0.65625q-0.234375 -0.171875 -0.671875 -0.171875l0 -1.375q0.4375 0 0.671875 -0.15625q0.234375 -0.171875 0.3125 -0.671875q0.09375 -0.515625 0.09375 -1.515625l0 -2.625q0 -1.25 0.078125 -1.984375q0.09375 -0.75 0.421875 -1.125q0.328125 -0.390625 1.0 -0.5q0.671875 -0.125 1.84375 -0.125l0 1.46875q-0.46875 0 -0.734375 0.078125q-0.265625 0.0625 -0.375 0.296875q-0.109375 0.21875 -0.125 0.6875q-0.015625 0.453125 -0.015625 1.203125l0 2.921875q0 1.390625 -0.34375 2.0q-0.328125 0.59375 -0.890625 0.734375q0.5625 0.140625 0.890625 0.734375q0.34375 0.59375 0.34375 2.0l0 2.921875q0 0.78125 0.015625 1.234375q0.015625 0.46875 0.125 0.6875q0.109375 0.21875 0.375 0.28125q0.265625 0.078125 0.734375 0.078125l0 1.46875zm5.300003 -3.40625q-0.578125 0 -1.046875 -0.28125q-0.453125 -0.296875 -0.78125 -0.65625l0 0.78125l-2.0 0l0 -15.109375l2.0 0l0 5.1875q0.34375 -0.40625 0.84375 -0.703125q0.5 -0.3125 1.1875 -0.3125q0.828125 0 1.328125 0.4375q0.5 0.4375 0.734375 1.109375q0.25 0.65625 0.3125 1.34375q0.078125 0.671875 0.078125 1.15625l0 2.625q0 1.125 -0.21875 2.15625q-0.21875 1.015625 -0.796875 1.640625q-0.578125 0.625 -1.640625 0.625zm-0.421875 -1.578125q0.53125 0 0.75 -0.375q0.21875 -0.390625 0.28125 -1.03125q0.0625 -0.65625 0.0625 -1.4375l0 -2.625q0 -0.671875 -0.078125 -1.234375q-0.078125 -0.5625 -0.328125 -0.890625q-0.234375 -0.34375 -0.75 -0.34375q-0.390625 0 -0.75 0.171875q-0.34375 0.15625 -0.59375 0.359375l0 6.921875q0.25 0.203125 0.609375 0.34375q0.375 0.140625 0.796875 0.140625zm5.011215 -6.328125l0 -2.125l2.015625 0l0 2.125l-2.015625 0zm0 5.953125l0 -2.125l2.015625 0l0 2.125l-2.015625 0zm6.4252777 1.953125q-0.828125 0 -1.34375 -0.3125q-0.515625 -0.328125 -0.75 -0.90625q-0.234375 -0.578125 -0.234375 -1.359375l0 -7.03125l-1.140625 0l0 -1.328125l1.140625 0l0 -3.15625l2.0 0l0 3.15625l1.734375 0l0 1.328125l-1.734375 0l0 6.890625q0 0.640625 0.203125 0.921875q0.203125 0.265625 0.78125 0.265625q0.15625 0 0.34375 -0.015625q0.203125 -0.03125 0.390625 -0.046875l0 1.46875q-0.375 0.0625 -0.703125 0.09375q-0.3125 0.03125 -0.6875 0.03125zm2.9336243 -0.15625l0 -10.78125l2.0 0l0 1.53125q0.59375 -1.0 1.1875 -1.328125q0.59375 -0.328125 1.203125 -0.328125q0.0625 0 0.125 0q0.078125 0 0.1875 0.015625l0 2.203125q-0.21875 -0.09375 -0.515625 -0.15625q-0.28125 -0.078125 -0.578125 -0.078125q-0.46875 0 -0.859375 0.21875q-0.375 0.21875 -0.75 0.828125l0 7.875l-2.0 0zm7.4886627 0.15625q-0.640625 0 -1.0 -0.328125q-0.34375 -0.34375 -0.484375 -0.84375q-0.140625 -0.515625 -0.140625 -1.03125l0 -8.734375l1.984375 0l0 8.125q0 0.578125 0.171875 0.90625q0.171875 0.328125 0.6875 0.328125q0.34375 0 0.703125 -0.1875q0.359375 -0.203125 0.703125 -0.484375l0 -8.6875l2.0000153 0l0 10.78125l-2.0000153 0l0 -1.0625q-0.515625 0.5 -1.1875 0.859375q-0.65625 0.359375 -1.4375 0.359375zm9.646271 0q-1.28125 0 -1.96875 -0.5q-0.6875 -0.5 -0.96875 -1.453125q-0.265625 -0.96875 -0.265625 -2.359375l0 -2.46875q0 -1.4375 0.28125 -2.390625q0.28125 -0.953125 0.984375 -1.4375q0.703125 -0.484375 1.9375 -0.484375q1.359375 0 2.0 0.5625q0.640625 0.5625 0.84375 1.625q0.203125 1.046875 0.203125 2.515625l0 0.875l-4.25 0l0 2.171875q0 0.65625 0.125 1.0625q0.125 0.40625 0.390625 0.609375q0.265625 0.1875 0.703125 0.1875q0.4375 0 0.671875 -0.203125q0.234375 -0.21875 0.3125 -0.625q0.09375 -0.40625 0.09375 -0.9375l0 -0.65625l1.9375 0l0 0.40625q0 1.625 -0.6875 2.5625q-0.6875 0.9375 -2.34375 0.9375zm-1.203125 -6.59375l2.296875 0l0 -0.96875q0 -0.671875 -0.078125 -1.125q-0.078125 -0.46875 -0.3125 -0.6875q-0.21875 -0.234375 -0.734375 -0.234375q-0.484375 0 -0.734375 0.21875q-0.25 0.21875 -0.34375 0.75q-0.09375 0.53125 -0.09375 1.46875l0 0.578125zm5.8855286 10.0l0 -1.46875q0.453125 0 0.71875 -0.078125q0.265625 -0.0625 0.375 -0.28125q0.109375 -0.21875 0.125 -0.6875q0.03125 -0.453125 0.03125 -1.234375l0 -2.921875q0 -1.40625 0.328125 -2.0q0.34375 -0.59375 0.921875 -0.734375q-0.578125 -0.140625 -0.921875 -0.734375q-0.328125 -0.609375 -0.328125 -2.0l0 -2.921875q0 -0.75 -0.03125 -1.203125q-0.015625 -0.46875 -0.125 -0.6875q-0.109375 -0.234375 -0.375 -0.296875q-0.265625 -0.078125 -0.71875 -0.078125l0 -1.46875q1.171875 0 1.84375 0.125q0.671875 0.109375 1.0 0.5q0.328125 0.375 0.40625 1.125q0.078125 0.734375 0.078125 1.984375l0 2.625q0 1.0 0.078125 1.515625q0.09375 0.5 0.328125 0.671875q0.234375 0.15625 0.6875 0.15625l0 1.375q-0.453125 0 -0.6875 0.171875q-0.234375 0.15625 -0.328125 0.65625q-0.078125 0.484375 -0.078125 1.515625l0 2.625q0 1.25 -0.078125 2.0q-0.078125 0.75 -0.40625 1.125q-0.328125 0.390625 -1.0 0.5q-0.671875 0.125 -1.84375 0.125zm5.7074127 0.0625l0 -1.34375q0.671875 -0.03125 1.015625 -0.75q0.359375 -0.703125 0.5 -1.875q0.15625 -1.1875 0.1875 -2.625q0.03125 -1.4375 0.03125 -2.875q0 -1.453125 -0.03125 -2.875q-0.03125 -1.4375 -0.1875 -2.59375q-0.140625 -1.171875 -0.5 -1.875q-0.34375 -0.71875 -1.015625 -0.734375l0 -1.3125q1.078125 0 1.75 0.53125q0.6875 0.53125 1.078125 1.46875q0.390625 0.921875 0.5625 2.125q0.1875 1.203125 0.21875 2.546875q0.046875 1.34375 0.046875 2.71875q0 1.390625 -0.046875 2.75q-0.03125 1.34375 -0.21875 2.5625q-0.171875 1.203125 -0.5625 2.125q-0.390625 0.9375 -1.078125 1.46875q-0.671875 0.53125 -1.75 0.5625z" fill-rule="nonzero"/><path fill="#f9cb9c" d="m111.914696 52.215355l0 0c0 -3.5949974 2.914322 -6.5093193 6.5093155 -6.5093193l74.571915 0c1.7263794 0 3.3820496 0.68580246 4.602783 1.9065361c1.2207336 1.2207336 1.9065399 2.8764038 1.9065399 4.602783l0 26.036484c0 3.5949936 -2.914322 6.5093155 -6.509323 6.5093155l-74.571915 0l0 0c-3.5949936 0 -6.5093155 -2.914322 -6.5093155 -6.5093155z" fill-rule="evenodd"/><path stroke="#ffffff" stroke-width="1.0" stroke-linejoin="round" stroke-linecap="butt" d="m111.914696 52.215355l0 0c0 -3.5949974 2.914322 -6.5093193 6.5093155 -6.5093193l74.571915 0c1.7263794 0 3.3820496 0.68580246 4.602783 1.9065361c1.2207336 1.2207336 1.9065399 2.8764038 1.9065399 4.602783l0 26.036484c0 3.5949936 -2.914322 6.5093155 -6.509323 6.5093155l-74.571915 0l0 0c-3.5949936 0 -6.5093155 -2.914322 -6.5093155 -6.5093155z" fill-rule="evenodd"/><path fill="#000000" d="m140.48204 72.153595l3.203125 -15.109379l2.03125 0l3.234375 15.109379l-2.0 0l-0.6875 -3.8125l-3.078125 0l-0.734375 3.8125l-1.96875 0zm2.984375 -5.3125l2.515625 0l-1.265625 -6.812504l-1.25 6.812504zm10.835129 8.9375q-1.0625 -0.03125 -1.75 -0.5625q-0.671875 -0.53125 -1.0625 -1.46875q-0.390625 -0.921875 -0.578125 -2.109375q-0.171875 -1.203125 -0.21875 -2.5625q-0.03125 -1.359375 -0.03125 -2.71875q0 -1.390625 0.03125 -2.7343788q0.046875 -1.359375 0.21875 -2.5625q0.1875 -1.203125 0.578125 -2.125q0.390625 -0.9375 1.0625 -1.46875q0.6875 -0.546875 1.75 -0.546875l0 1.328125q-0.65625 0.03125 -1.015625 0.75q-0.34375 0.71875 -0.5 1.890625q-0.140625 1.171875 -0.171875 2.609375q-0.03125 1.4218788 -0.03125 2.8593788q0 1.453125 0.03125 2.875q0.03125 1.421875 0.171875 2.609375q0.15625 1.171875 0.5 1.875q0.359375 0.71875 1.015625 0.734375l0 1.328125zm5.7314453 -0.0625q-1.171875 0 -1.84375 -0.125q-0.671875 -0.109375 -1.0 -0.5q-0.328125 -0.375 -0.421875 -1.125q-0.078125 -0.75 -0.078125 -2.0l0 -2.625q0 -1.03125 -0.09375 -1.515625q-0.078125 -0.5 -0.3125 -0.65625q-0.234375 -0.171875 -0.671875 -0.171875l0 -1.375q0.4375 0 0.671875 -0.15625q0.234375 -0.171875 0.3125 -0.671875q0.09375 -0.515625 0.09375 -1.5156288l0 -2.625q0 -1.25 0.078125 -1.984375q0.09375 -0.75 0.421875 -1.125q0.328125 -0.390625 1.0 -0.5q0.671875 -0.125 1.84375 -0.125l0 1.46875q-0.46875 0 -0.734375 0.078125q-0.265625 0.0625 -0.375 0.296875q-0.109375 0.21875 -0.125 0.6875q-0.015625 0.453125 -0.015625 1.203125l0 2.921875q0 1.3906288 -0.34375 2.0000038q-0.328125 0.59375 -0.890625 0.734375q0.5625 0.140625 0.890625 0.734375q0.34375 0.59375 0.34375 2.0l0 2.921875q0 0.78125 0.015625 1.234375q0.015625 0.46875 0.125 0.6875q0.109375 0.21875 0.375 0.28125q0.265625 0.078125 0.734375 0.078125l0 1.46875zm1.253128 0l0 -1.46875q0.453125 0 0.71875 -0.078125q0.265625 -0.0625 0.375 -0.28125q0.109375 -0.21875 0.125 -0.6875q0.03125 -0.453125 0.03125 -1.234375l0 -2.921875q0 -1.40625 0.328125 -2.0q0.34375 -0.59375 0.921875 -0.734375q-0.578125 -0.140625 -0.921875 -0.734375q-0.328125 -0.609375 -0.328125 -2.0000038l0 -2.921875q0 -0.75 -0.03125 -1.203125q-0.015625 -0.46875 -0.125 -0.6875q-0.109375 -0.234375 -0.375 -0.296875q-0.265625 -0.078125 -0.71875 -0.078125l0 -1.46875q1.171875 0 1.84375 0.125q0.671875 0.109375 1.0 0.5q0.328125 0.375 0.40625 1.125q0.078125 0.734375 0.078125 1.984375l0 2.625q0 1.0000038 0.078125 1.5156288q0.09375 0.5 0.328125 0.671875q0.234375 0.15625 0.6875 0.15625l0 1.375q-0.453125 0 -0.6875 0.171875q-0.234375 0.15625 -0.328125 0.65625q-0.078125 0.484375 -0.078125 1.515625l0 2.625q0 1.25 -0.078125 2.0q-0.078125 0.75 -0.40625 1.125q-0.328125 0.390625 -1.0 0.5q-0.671875 0.125 -1.84375 0.125zm5.7074127 0.0625l0 -1.34375q0.671875 -0.03125 1.015625 -0.75q0.359375 -0.703125 0.5 -1.875q0.15625 -1.1875 0.1875 -2.625q0.03125 -1.4375 0.03125 -2.875q0 -1.453125 -0.03125 -2.8750038q-0.03125 -1.4375 -0.1875 -2.59375q-0.140625 -1.171875 -0.5 -1.875q-0.34375 -0.71875 -1.015625 -0.734375l0 -1.3125q1.078125 0 1.75 0.53125q0.6875 0.53125 1.078125 1.46875q0.390625 0.921875 0.5625 2.125q0.1875 1.203125 0.21875 2.546875q0.046875 1.3437538 0.046875 2.7187538q0 1.390625 -0.046875 2.75q-0.03125 1.34375 -0.21875 2.5625q-0.171875 1.203125 -0.5625 2.125q-0.390625 0.9375 -1.078125 1.46875q-0.671875 0.53125 -1.75 0.5625z" fill-rule="nonzero"/><path fill="#000000" fill-opacity="0.0" d="m155.70998 84.761154l0 51.496063" fill-rule="evenodd"/><path stroke="#ffffff" stroke-width="2.0" stroke-linejoin="round" stroke-linecap="butt" d="m155.70998 84.761154l0 39.496063" fill-rule="evenodd"/><path fill="#ffffff" stroke="#ffffff" stroke-width="2.0" stroke-linecap="butt" d="m152.40651 124.25722l3.3034668 9.076202l3.3034668 -9.076202z" fill-rule="evenodd"/><path fill="#f9cb9c" d="m24.324146 233.29672l0 0c0 -3.5950012 2.914322 -6.509323 6.5093174 -6.509323l74.571915 0c1.7263794 0 3.3820496 0.6858063 4.602783 1.9065399c1.2207336 1.2207336 1.9065323 2.8764038 1.9065323 4.602783l0 26.036469c0 3.5950012 -2.9143143 6.5093384 -6.5093155 6.5093384l-74.571915 0l0 0c-3.5949955 0 -6.5093174 -2.9143372 -6.5093174 -6.5093384z" fill-rule="evenodd"/><path stroke="#ffffff" stroke-width="1.0" stroke-linejoin="round" stroke-linecap="butt" d="m24.324146 233.29672l0 0c0 -3.5950012 2.914322 -6.509323 6.5093174 -6.509323l74.571915 0c1.7263794 0 3.3820496 0.6858063 4.602783 1.9065399c1.2207336 1.2207336 1.9065323 2.8764038 1.9065323 4.602783l0 26.036469c0 3.5950012 -2.9143143 6.5093384 -6.5093155 6.5093384l-74.571915 0l0 0c-3.5949955 0 -6.5093174 -2.9143372 -6.5093174 -6.5093384z" fill-rule="evenodd"/><path fill="#000000" d="m57.286316 253.40683q-1.609375 0 -2.5 -0.671875q-0.890625 -0.671875 -1.234375 -1.8125q-0.34375 -1.140625 -0.34375 -2.53125l0 -5.34375q0 -1.53125 0.34375 -2.671875q0.34375 -1.140625 1.234375 -1.75q0.890625 -0.625 2.5 -0.625q1.40625 0 2.234375 0.515625q0.84375 0.515625 1.203125 1.5q0.359375 0.96875 0.359375 2.328125l0 1.1875l-2.0 0l0 -1.0625q0 -0.84375 -0.078125 -1.484375q-0.078125 -0.640625 -0.453125 -0.984375q-0.375 -0.359375 -1.25 -0.359375q-0.90625 0 -1.3125 0.390625q-0.40625 0.375 -0.53125 1.078125q-0.125 0.6875 -0.125 1.625l0 5.984375q0 1.140625 0.1875 1.8125q0.1875 0.65625 0.609375 0.9375q0.4375 0.265625 1.171875 0.265625q0.859375 0 1.21875 -0.375q0.375 -0.375 0.46875 -1.046875q0.09375 -0.671875 0.09375 -1.578125l0 -1.109375l2.0 0l0 1.109375q0 1.390625 -0.34375 2.453125q-0.328125 1.046875 -1.15625 1.640625q-0.8125 0.578125 -2.296875 0.578125zm9.639221 3.453125q-1.0625 -0.03125 -1.75 -0.5625q-0.671875 -0.53125 -1.0625 -1.46875q-0.390625 -0.921875 -0.578125 -2.109375q-0.171875 -1.203125 -0.21875 -2.5625q-0.03125 -1.359375 -0.03125 -2.71875q0 -1.390625 0.03125 -2.734375q0.046875 -1.359375 0.21875 -2.5625q0.1875 -1.203125 0.578125 -2.125q0.390625 -0.9375 1.0625 -1.46875q0.6875 -0.546875 1.75 -0.546875l0 1.328125q-0.65625 0.03125 -1.015625 0.75q-0.34375 0.71875 -0.5 1.890625q-0.140625 1.171875 -0.171875 2.609375q-0.03125 1.421875 -0.03125 2.859375q0 1.453125 0.03125 2.875q0.03125 1.421875 0.171875 2.609375q0.15625 1.171875 0.5 1.875q0.359375 0.71875 1.015625 0.734375l0 1.328125zm5.7314453 -0.0625q-1.171875 0 -1.84375 -0.125q-0.671875 -0.109375 -1.0 -0.5q-0.328125 -0.375 -0.421875 -1.125q-0.078125 -0.75 -0.078125 -2.0l0 -2.625q0 -1.03125 -0.09375 -1.515625q-0.078125 -0.5 -0.3125 -0.65625q-0.234375 -0.171875 -0.671875 -0.171875l0 -1.375q0.4375 0 0.671875 -0.15625q0.234375 -0.171875 0.3125 -0.671875q0.09375 -0.515625 0.09375 -1.515625l0 -2.625q0 -1.25 0.078125 -1.984375q0.09375 -0.75 0.421875 -1.125q0.328125 -0.390625 1.0 -0.5q0.671875 -0.125 1.84375 -0.125l0 1.46875q-0.46875 0 -0.734375 0.078125q-0.265625 0.0625 -0.375 0.296875q-0.109375 0.21875 -0.125 0.6875q-0.015625 0.453125 -0.015625 1.203125l0 2.921875q0 1.390625 -0.34375 2.0q-0.328125 0.59375 -0.890625 0.734375q0.5625 0.140625 0.890625 0.734375q0.34375 0.59375 0.34375 2.0l0 2.921875q0 0.78125 0.015625 1.234375q0.015625 0.46875 0.125 0.6875q0.109375 0.21875 0.375 0.28125q0.265625 0.078125 0.734375 0.078125l0 1.46875zm1.253128 0l0 -1.46875q0.453125 0 0.71875 -0.078125q0.265625 -0.0625 0.375 -0.28125q0.109375 -0.21875 0.125 -0.6875q0.03125 -0.453125 0.03125 -1.234375l0 -2.921875q0 -1.40625 0.328125 -2.0q0.34375 -0.59375 0.921875 -0.734375q-0.578125 -0.140625 -0.921875 -0.734375q-0.328125 -0.609375 -0.328125 -2.0l0 -2.921875q0 -0.75 -0.03125 -1.203125q-0.015625 -0.46875 -0.125 -0.6875q-0.109375 -0.234375 -0.375 -0.296875q-0.265625 -0.078125 -0.71875 -0.078125l0 -1.46875q1.171875 0 1.84375 0.125q0.671875 0.109375 1.0 0.5q0.328125 0.375 0.40625 1.125q0.078125 0.734375 0.078125 1.984375l0 2.625q0 1.0 0.078125 1.515625q0.09375 0.5 0.328125 0.671875q0.234375 0.15625 0.6875 0.15625l0 1.375q-0.453125 0 -0.6875 0.171875q-0.234375 0.15625 -0.328125 0.65625q-0.078125 0.484375 -0.078125 1.515625l0 2.625q0 1.25 -0.078125 2.0q-0.078125 0.75 -0.40625 1.125q-0.328125 0.390625 -1.0 0.5q-0.671875 0.125 -1.84375 0.125zm5.7074127 0.0625l0 -1.34375q0.671875 -0.03125 1.015625 -0.75q0.359375 -0.703125 0.5 -1.875q0.15625 -1.1875 0.1875 -2.625q0.03125 -1.4375 0.03125 -2.875q0 -1.453125 -0.03125 -2.875q-0.03125 -1.4375 -0.1875 -2.59375q-0.140625 -1.171875 -0.5 -1.875q-0.34375 -0.71875 -1.015625 -0.734375l0 -1.3125q1.078125 0 1.75 0.53125q0.6875 0.53125 1.078125 1.46875q0.390625 0.921875 0.5625 2.125q0.1875 1.203125 0.21875 2.546875q0.046875 1.34375 0.046875 2.71875q0 1.390625 -0.046875 2.75q-0.03125 1.34375 -0.21875 2.5625q-0.171875 1.203125 -0.5625 2.125q-0.390625 0.9375 -1.078125 1.46875q-0.671875 0.53125 -1.75 0.5625z" fill-rule="nonzero"/><path fill="#f9cb9c" d="m199.50525 233.29672l0 0c0 -3.5950012 2.914322 -6.509323 6.509323 -6.509323l74.571915 0c1.7263794 0 3.3820496 0.6858063 4.602783 1.9065399c1.2207336 1.2207336 1.9065247 2.8764038 1.9065247 4.602783l0 26.036469c0 3.5950012 -2.9143066 6.5093384 -6.509308 6.5093384l-74.571915 0l0 0c-3.5950012 0 -6.509323 -2.9143372 -6.509323 -6.5093384z" fill-rule="evenodd"/><path stroke="#ffffff" stroke-width="1.0" stroke-linejoin="round" stroke-linecap="butt" d="m199.50525 233.29672l0 0c0 -3.5950012 2.914322 -6.509323 6.509323 -6.509323l74.571915 0c1.7263794 0 3.3820496 0.6858063 4.602783 1.9065399c1.2207336 1.2207336 1.9065247 2.8764038 1.9065247 4.602783l0 26.036469c0 3.5950012 -2.9143066 6.5093384 -6.509308 6.5093384l-74.571915 0l0 0c-3.5950012 0 -6.509323 -2.9143372 -6.509323 -6.5093384z" fill-rule="evenodd"/><path fill="#000000" d="m232.46742 253.40683q-1.609375 0 -2.5 -0.671875q-0.890625 -0.671875 -1.234375 -1.8125q-0.34375 -1.140625 -0.34375 -2.53125l0 -5.34375q0 -1.53125 0.34375 -2.671875q0.34375 -1.140625 1.234375 -1.75q0.890625 -0.625 2.5 -0.625q1.40625 0 2.234375 0.515625q0.84375 0.515625 1.203125 1.5q0.359375 0.96875 0.359375 2.328125l0 1.1875l-2.0 0l0 -1.0625q0 -0.84375 -0.078125 -1.484375q-0.078125 -0.640625 -0.453125 -0.984375q-0.375 -0.359375 -1.25 -0.359375q-0.90625 0 -1.3125 0.390625q-0.40625 0.375 -0.53125 1.078125q-0.125 0.6875 -0.125 1.625l0 5.984375q0 1.140625 0.1875 1.8125q0.1875 0.65625 0.609375 0.9375q0.4375 0.265625 1.171875 0.265625q0.859375 0 1.21875 -0.375q0.375 -0.375 0.46875 -1.046875q0.09375 -0.671875 0.09375 -1.578125l0 -1.109375l2.0 0l0 1.109375q0 1.390625 -0.34375 2.453125q-0.328125 1.046875 -1.15625 1.640625q-0.8125 0.578125 -2.296875 0.578125zm9.639221 3.453125q-1.0625 -0.03125 -1.75 -0.5625q-0.671875 -0.53125 -1.0625 -1.46875q-0.390625 -0.921875 -0.578125 -2.109375q-0.171875 -1.203125 -0.21875 -2.5625q-0.03125 -1.359375 -0.03125 -2.71875q0 -1.390625 0.03125 -2.734375q0.046875 -1.359375 0.21875 -2.5625q0.1875 -1.203125 0.578125 -2.125q0.390625 -0.9375 1.0625 -1.46875q0.6875 -0.546875 1.75 -0.546875l0 1.328125q-0.65625 0.03125 -1.015625 0.75q-0.34375 0.71875 -0.5 1.890625q-0.140625 1.171875 -0.171875 2.609375q-0.03125 1.421875 -0.03125 2.859375q0 1.453125 0.03125 2.875q0.03125 1.421875 0.171875 2.609375q0.15625 1.171875 0.5 1.875q0.359375 0.71875 1.015625 0.734375l0 1.328125zm5.7314453 -0.0625q-1.171875 0 -1.84375 -0.125q-0.671875 -0.109375 -1.0 -0.5q-0.328125 -0.375 -0.421875 -1.125q-0.078125 -0.75 -0.078125 -2.0l0 -2.625q0 -1.03125 -0.09375 -1.515625q-0.078125 -0.5 -0.3125 -0.65625q-0.234375 -0.171875 -0.671875 -0.171875l0 -1.375q0.4375 0 0.671875 -0.15625q0.234375 -0.171875 0.3125 -0.671875q0.09375 -0.515625 0.09375 -1.515625l0 -2.625q0 -1.25 0.078125 -1.984375q0.09375 -0.75 0.421875 -1.125q0.328125 -0.390625 1.0 -0.5q0.671875 -0.125 1.84375 -0.125l0 1.46875q-0.46875 0 -0.734375 0.078125q-0.265625 0.0625 -0.375 0.296875q-0.109375 0.21875 -0.125 0.6875q-0.015625 0.453125 -0.015625 1.203125l0 2.921875q0 1.390625 -0.34375 2.0q-0.328125 0.59375 -0.890625 0.734375q0.5625 0.140625 0.890625 0.734375q0.34375 0.59375 0.34375 2.0l0 2.921875q0 0.78125 0.015625 1.234375q0.015625 0.46875 0.125 0.6875q0.109375 0.21875 0.375 0.28125q0.265625 0.078125 0.734375 0.078125l0 1.46875zm1.253128 0l0 -1.46875q0.453125 0 0.71875 -0.078125q0.265625 -0.0625 0.375 -0.28125q0.109375 -0.21875 0.125 -0.6875q0.03125 -0.453125 0.03125 -1.234375l0 -2.921875q0 -1.40625 0.328125 -2.0q0.34375 -0.59375 0.921875 -0.734375q-0.578125 -0.140625 -0.921875 -0.734375q-0.328125 -0.609375 -0.328125 -2.0l0 -2.921875q0 -0.75 -0.03125 -1.203125q-0.015625 -0.46875 -0.125 -0.6875q-0.109375 -0.234375 -0.375 -0.296875q-0.265625 -0.078125 -0.71875 -0.078125l0 -1.46875q1.171875 0 1.84375 0.125q0.671875 0.109375 1.0 0.5q0.328125 0.375 0.40625 1.125q0.078125 0.734375 0.078125 1.984375l0 2.625q0 1.0 0.078125 1.515625q0.09375 0.5 0.328125 0.671875q0.234375 0.15625 0.6875 0.15625l0 1.375q-0.453125 0 -0.6875 0.171875q-0.234375 0.15625 -0.328125 0.65625q-0.078125 0.484375 -0.078125 1.515625l0 2.625q0 1.25 -0.078125 2.0q-0.078125 0.75 -0.40625 1.125q-0.328125 0.390625 -1.0 0.5q-0.671875 0.125 -1.84375 0.125zm5.7074127 0.0625l0 -1.34375q0.671875 -0.03125 1.015625 -0.75q0.35935974 -0.703125 0.49998474 -1.875q0.15625 -1.1875 0.1875 -2.625q0.03125 -1.4375 0.03125 -2.875q0 -1.453125 -0.03125 -2.875q-0.03125 -1.4375 -0.1875 -2.59375q-0.140625 -1.171875 -0.49998474 -1.875q-0.34375 -0.71875 -1.015625 -0.734375l0 -1.3125q1.078125 0 1.7499847 0.53125q0.6875 0.53125 1.078125 1.46875q0.390625 0.921875 0.5625 2.125q0.1875 1.203125 0.21875 2.546875q0.046875 1.34375 0.046875 2.71875q0 1.390625 -0.046875 2.75q-0.03125 1.34375 -0.21875 2.5625q-0.171875 1.203125 -0.5625 2.125q-0.390625 0.9375 -1.078125 1.46875q-0.67185974 0.53125 -1.7499847 0.5625z" fill-rule="nonzero"/><path fill="#000000" fill-opacity="0.0" d="m155.70998 175.30183l-87.59055 51.496063" fill-rule="evenodd"/><path stroke="#ffffff" stroke-width="2.0" stroke-linejoin="round" stroke-linecap="butt" d="m155.70998 175.30183l-77.24591 45.414276" fill-rule="evenodd"/><path fill="#ffffff" stroke="#ffffff" stroke-width="2.0" stroke-linecap="butt" d="m76.78982 217.86833l-6.1499176 7.4477386l9.498421 -1.7522125z" fill-rule="evenodd"/><path fill="#000000" fill-opacity="0.0" d="m155.70998 175.30183l87.590546 51.496063" fill-rule="evenodd"/><path stroke="#ffffff" stroke-width="2.0" stroke-linejoin="round" stroke-linecap="butt" d="m155.70998 175.30183l77.245895 45.414276" fill-rule="evenodd"/><path fill="#ffffff" stroke="#ffffff" stroke-width="2.0" stroke-linecap="butt" d="m231.28163 223.56386l9.498413 1.7522125l-6.1499176 -7.4477386z" fill-rule="evenodd"/><path fill="#f9cb9c" d="m104.30971 423.7954l0 0c0 -3.5950012 2.914322 -6.509308 6.509323 -6.509308l89.784515 0c1.7263794 0 3.3820496 0.685791 4.602783 1.9065247c1.2207336 1.2207336 1.9065247 2.8764038 1.9065247 4.602783l0 26.036469c0 3.5950012 -2.9143066 6.5093384 -6.509308 6.5093384l-89.784515 0l0 0c-3.5950012 0 -6.509323 -2.9143372 -6.509323 -6.5093384z" fill-rule="evenodd"/><path stroke="#ffffff" stroke-width="1.0" stroke-linejoin="round" stroke-linecap="butt" d="m104.30971 423.7954l0 0c0 -3.5950012 2.914322 -6.509308 6.509323 -6.509308l89.784515 0c1.7263794 0 3.3820496 0.685791 4.602783 1.9065247c1.2207336 1.2207336 1.9065247 2.8764038 1.9065247 4.602783l0 26.036469c0 3.5950012 -2.9143066 6.5093384 -6.509308 6.5093384l-89.784515 0l0 0c-3.5950012 0 -6.509323 -2.9143372 -6.509323 -6.5093384z" fill-rule="evenodd"/><path fill="#000000" d="m118.787094 443.73364l0 -15.109375l3.46875 0q1.03125 0 1.78125 0.234375q0.765625 0.21875 1.265625 0.6875q0.5 0.453125 0.734375 1.171875q0.25 0.71875 0.25 1.6875q0 0.9375 -0.234375 1.625q-0.234375 0.671875 -0.71875 1.0625q-0.46875 0.390625 -1.203125 0.5q0.90625 0.21875 1.46875 0.71875q0.5625 0.484375 0.828125 1.265625q0.265625 0.765625 0.265625 1.84375q0 0.96875 -0.21875 1.78125q-0.21875 0.796875 -0.703125 1.359375q-0.46875 0.5625 -1.203125 0.875q-0.734375 0.296875 -1.75 0.296875l-4.03125 0zm2.109375 -1.515625l1.421875 0q1.421875 0 1.890625 -0.65625q0.484375 -0.65625 0.484375 -2.140625q0 -0.953125 -0.265625 -1.59375q-0.25 -0.640625 -0.796875 -0.96875q-0.546875 -0.328125 -1.484375 -0.328125l-1.25 0l0 5.6875zm0 -7.296875l1.25 0q0.890625 0 1.390625 -0.25q0.515625 -0.25 0.71875 -0.796875q0.203125 -0.5625 0.203125 -1.46875q0 -1.046875 -0.3125 -1.5q-0.3125 -0.46875 -0.984375 -0.59375q-0.671875 -0.125 -1.765625 -0.125l-0.5 0l0 4.734375zm11.494629 12.4375q-1.0625 -0.03125 -1.75 -0.5625q-0.671875 -0.53125 -1.0625 -1.46875q-0.390625 -0.921875 -0.578125 -2.109375q-0.171875 -1.203125 -0.21875 -2.5625q-0.03125 -1.359375 -0.03125 -2.71875q0 -1.390625 0.03125 -2.734375q0.046875 -1.359375 0.21875 -2.5625q0.1875 -1.203125 0.578125 -2.125q0.390625 -0.9375 1.0625 -1.46875q0.6875 -0.546875 1.75 -0.546875l0 1.328125q-0.65625 0.03125 -1.015625 0.75q-0.34375 0.71875 -0.5 1.890625q-0.140625 1.171875 -0.171875 2.609375q-0.03125 1.421875 -0.03125 2.859375q0 1.453125 0.03125 2.875q0.03125 1.421875 0.171875 2.609375q0.15625 1.171875 0.5 1.875q0.359375 0.71875 1.015625 0.734375l0 1.328125zm5.7314453 -0.0625q-1.171875 0 -1.84375 -0.125q-0.671875 -0.109375 -1.0 -0.5q-0.328125 -0.375 -0.421875 -1.125q-0.078125 -0.75 -0.078125 -2.0l0 -2.625q0 -1.03125 -0.09375 -1.515625q-0.078125 -0.5 -0.3125 -0.65625q-0.234375 -0.171875 -0.671875 -0.171875l0 -1.375q0.4375 0 0.671875 -0.15625q0.234375 -0.171875 0.3125 -0.671875q0.09375 -0.515625 0.09375 -1.515625l0 -2.625q0 -1.25 0.078125 -1.984375q0.09375 -0.75 0.421875 -1.125q0.328125 -0.390625 1.0 -0.5q0.671875 -0.125 1.84375 -0.125l0 1.46875q-0.46875 0 -0.734375 0.078125q-0.265625 0.0625 -0.375 0.296875q-0.109375 0.21875 -0.125 0.6875q-0.015625 0.453125 -0.015625 1.203125l0 2.921875q0 1.390625 -0.34375 2.0q-0.328125 0.59375 -0.890625 0.734375q0.5625 0.140625 0.890625 0.734375q0.34375 0.59375 0.34375 2.0l0 2.921875q0 0.78125 0.015625 1.234375q0.015625 0.46875 0.125 0.6875q0.109375 0.21875 0.375 0.28125q0.265625 0.078125 0.734375 0.078125l0 1.46875zm5.300003 -3.40625q-0.578125 0 -1.046875 -0.28125q-0.453125 -0.296875 -0.78125 -0.65625l0 0.78125l-2.0 0l0 -15.109375l2.0 0l0 5.1875q0.34375 -0.40625 0.84375 -0.703125q0.5 -0.3125 1.1875 -0.3125q0.828125 0 1.328125 0.4375q0.5 0.4375 0.734375 1.109375q0.25 0.65625 0.3125 1.34375q0.078125 0.671875 0.078125 1.15625l0 2.625q0 1.125 -0.21875 2.15625q-0.21875 1.015625 -0.796875 1.640625q-0.578125 0.625 -1.640625 0.625zm-0.421875 -1.578125q0.53125 0 0.75 -0.375q0.21875 -0.390625 0.28125 -1.03125q0.0625 -0.65625 0.0625 -1.4375l0 -2.625q0 -0.671875 -0.078125 -1.234375q-0.078125 -0.5625 -0.328125 -0.890625q-0.234375 -0.34375 -0.75 -0.34375q-0.390625 0 -0.75 0.171875q-0.34375 0.15625 -0.59375 0.359375l0 6.921875q0.25 0.203125 0.609375 0.34375q0.375 0.140625 0.796875 0.140625zm5.011215 -6.328125l0 -2.125l2.015625 0l0 2.125l-2.015625 0zm0 5.953125l0 -2.125l2.015625 0l0 2.125l-2.015625 0zm4.1909027 1.796875l0 -9.3125l-1.28125 0l0 -1.46875l1.28125 0l0 -0.5625q0 -1.0 0.15625 -1.71875q0.15625 -0.71875 0.65625 -1.109375q0.515625 -0.40625 1.515625 -0.40625q0.375 0 0.65625 0.03125q0.296875 0.03125 0.65625 0.109375l0 1.453125q-0.171875 -0.03125 -0.375 -0.0625q-0.203125 -0.03125 -0.375 -0.03125q-0.578125 0 -0.734375 0.390625q-0.15625 0.375 -0.15625 1.015625l0 0.890625l1.640625 0l0 1.46875l-1.640625 0l0 9.3125l-2.0 0zm6.6668396 0.15625q-0.640625 0 -1.125 -0.359375q-0.484375 -0.375 -0.765625 -0.9375q-0.28125 -0.578125 -0.28125 -1.203125q0 -1.015625 0.328125 -1.703125q0.34375 -0.6875 0.921875 -1.15625q0.59375 -0.484375 1.359375 -0.84375q0.78125 -0.359375 1.640625 -0.6875l0 -0.765625q0 -0.65625 -0.078125 -1.078125q-0.0625 -0.4375 -0.296875 -0.640625q-0.234375 -0.21875 -0.703125 -0.21875q-0.40625 0 -0.65625 0.1875q-0.25 0.1875 -0.375 0.53125q-0.109375 0.34375 -0.109375 0.8125l0 0.53125l-1.96875 -0.0625q0.03125 -1.796875 0.8125 -2.640625q0.78125 -0.859375 2.421875 -0.859375q1.609375 0 2.28125 0.890625q0.671875 0.875 0.671875 2.53125l0 4.921875q0 0.5 0.03125 0.96875q0.03125 0.46875 0.078125 0.875q0.046875 0.390625 0.078125 0.75l-1.828125 0q-0.0625 -0.296875 -0.140625 -0.75q-0.078125 -0.46875 -0.125 -0.828125q-0.1875 0.625 -0.71875 1.1875q-0.53125 0.546875 -1.453125 0.546875zm0.78125 -1.71875q0.296875 0 0.546875 -0.171875q0.265625 -0.171875 0.46875 -0.375q0.21875 -0.21875 0.28125 -0.359375l0 -3.046875q-0.453125 0.25 -0.875 0.515625q-0.40625 0.265625 -0.71875 0.5625q-0.296875 0.28125 -0.484375 0.640625q-0.171875 0.359375 -0.171875 0.828125q0 0.65625 0.234375 1.03125q0.25 0.375 0.71875 0.375zm5.400696 1.5625l0 -15.109375l2.0 0l0 15.109375l-2.0 0zm6.584778 0.15625q-1.3125 0 -2.125 -0.828125q-0.796875 -0.84375 -0.90625 -2.203125l1.65625 -0.5q0.15625 1.03125 0.5 1.546875q0.359375 0.5 1.046875 0.5q0.546875 0 0.828125 -0.296875q0.28125 -0.3125 0.28125 -0.84375q0 -0.453125 -0.21875 -0.828125q-0.203125 -0.375 -0.65625 -0.765625l-1.859375 -1.59375q-0.546875 -0.484375 -0.9375 -1.078125q-0.375 -0.59375 -0.375 -1.546875q0 -0.859375 0.34375 -1.4375q0.34375 -0.59375 0.96875 -0.90625q0.625 -0.3125 1.453125 -0.3125q1.296875 0 1.96875 0.84375q0.6875 0.828125 0.78125 2.0l-1.34375 0.5q-0.078125 -0.5625 -0.234375 -0.984375q-0.140625 -0.421875 -0.40625 -0.640625q-0.25 -0.234375 -0.6875 -0.234375q-0.484375 0 -0.78125 0.328125q-0.28125 0.3125 -0.28125 0.765625q0 0.28125 0.125 0.5625q0.125 0.265625 0.421875 0.515625l1.90625 1.765625q0.390625 0.34375 0.734375 0.765625q0.34375 0.40625 0.5625 0.9375q0.234375 0.515625 0.234375 1.203125q0 0.90625 -0.375 1.53125q-0.375 0.609375 -1.046875 0.921875q-0.671875 0.3125 -1.578125 0.3125zm7.4774323 0q-1.28125 0 -1.96875 -0.5q-0.6875 -0.5 -0.96875 -1.453125q-0.265625 -0.96875 -0.265625 -2.359375l0 -2.46875q0 -1.4375 0.28125 -2.390625q0.28125 -0.953125 0.984375 -1.4375q0.703125 -0.484375 1.9375 -0.484375q1.359375 0 2.0 0.5625q0.640625 0.5625 0.84375 1.625q0.203125 1.046875 0.203125 2.515625l0 0.875l-4.25 0l0 2.171875q0 0.65625 0.125 1.0625q0.125 0.40625 0.390625 0.609375q0.265625 0.1875 0.703125 0.1875q0.4375 0 0.671875 -0.203125q0.234375 -0.21875 0.3125 -0.625q0.09375 -0.40625 0.09375 -0.9375l0 -0.65625l1.9375 0l0 0.40625q0 1.625 -0.6875 2.5625q-0.6875 0.9375 -2.34375 0.9375zm-1.203125 -6.59375l2.296875 0l0 -0.96875q0 -0.671875 -0.078125 -1.125q-0.078125 -0.46875 -0.3125 -0.6875q-0.21875 -0.234375 -0.734375 -0.234375q-0.484375 0 -0.734375 0.21875q-0.25 0.21875 -0.34375 0.75q-0.09375 0.53125 -0.09375 1.46875l0 0.578125zm5.8855286 10.0l0 -1.46875q0.453125 0 0.71875 -0.078125q0.265625 -0.0625 0.375 -0.28125q0.109375 -0.21875 0.125 -0.6875q0.03125 -0.453125 0.03125 -1.234375l0 -2.921875q0 -1.40625 0.328125 -2.0q0.34375 -0.59375 0.921875 -0.734375q-0.578125 -0.140625 -0.921875 -0.734375q-0.328125 -0.609375 -0.328125 -2.0l0 -2.921875q0 -0.75 -0.03125 -1.203125q-0.015625 -0.46875 -0.125 -0.6875q-0.109375 -0.234375 -0.375 -0.296875q-0.265625 -0.078125 -0.71875 -0.078125l0 -1.46875q1.171875 0 1.84375 0.125q0.671875 0.109375 1.0 0.5q0.328125 0.375 0.40625 1.125q0.078125 0.734375 0.078125 1.984375l0 2.625q0 1.0 0.078125 1.515625q0.09375 0.5 0.328125 0.671875q0.234375 0.15625 0.6875 0.15625l0 1.375q-0.453125 0 -0.6875 0.171875q-0.234375 0.15625 -0.328125 0.65625q-0.078125 0.484375 -0.078125 1.515625l0 2.625q0 1.25 -0.078125 2.0q-0.078125 0.75 -0.40625 1.125q-0.328125 0.390625 -1.0 0.5q-0.671875 0.125 -1.84375 0.125zm5.7074127 0.0625l0 -1.34375q0.671875 -0.03125 1.015625 -0.75q0.359375 -0.703125 0.5 -1.875q0.15625 -1.1875 0.1875 -2.625q0.03125 -1.4375 0.03125 -2.875q0 -1.453125 -0.03125 -2.875q-0.03125 -1.4375 -0.1875 -2.59375q-0.140625 -1.171875 -0.5 -1.875q-0.34375 -0.71875 -1.015625 -0.734375l0 -1.3125q1.078125 0 1.75 0.53125q0.6875 0.53125 1.078125 1.46875q0.390625 0.921875 0.5625 2.125q0.1875 1.203125 0.21875 2.546875q0.046875 1.34375 0.046875 2.71875q0 1.390625 -0.046875 2.75q-0.03125 1.34375 -0.21875 2.5625q-0.171875 1.203125 -0.5625 2.125q-0.390625 0.9375 -1.078125 1.46875q-0.671875 0.53125 -1.75 0.5625z" fill-rule="nonzero"/><path fill="#f9cb9c" d="m111.91601 333.25473l0 0c0 -3.5950012 2.914322 -6.5093384 6.5093155 -6.5093384l74.571915 0c1.7263794 0 3.3820496 0.68582153 4.602783 1.9065552c1.2207336 1.2207336 1.9065399 2.8764038 1.9065399 4.602783l0 26.036469c0 3.5950012 -2.914322 6.5093384 -6.509323 6.5093384l-74.571915 0l0 0c-3.5949936 0 -6.5093155 -2.9143372 -6.5093155 -6.5093384z" fill-rule="evenodd"/><path stroke="#ffffff" stroke-width="1.0" stroke-linejoin="round" stroke-linecap="butt" d="m111.91601 333.25473l0 0c0 -3.5950012 2.914322 -6.5093384 6.5093155 -6.5093384l74.571915 0c1.7263794 0 3.3820496 0.68582153 4.602783 1.9065552c1.2207336 1.2207336 1.9065399 2.8764038 1.9065399 4.602783l0 26.036469c0 3.5950012 -2.914322 6.5093384 -6.509323 6.5093384l-74.571915 0l0 0c-3.5949936 0 -6.5093155 -2.9143372 -6.5093155 -6.5093384z" fill-rule="evenodd"/><path fill="#000000" d="m140.48335 353.19296l3.203125 -15.109375l2.03125 0l3.234375 15.109375l-2.0 0l-0.6875 -3.8125l-3.078125 0l-0.734375 3.8125l-1.96875 0zm2.984375 -5.3125l2.515625 0l-1.265625 -6.8125l-1.25 6.8125zm10.835129 8.9375q-1.0625 -0.03125 -1.75 -0.5625q-0.671875 -0.53125 -1.0625 -1.46875q-0.390625 -0.921875 -0.578125 -2.109375q-0.171875 -1.203125 -0.21875 -2.5625q-0.03125 -1.359375 -0.03125 -2.71875q0 -1.390625 0.03125 -2.734375q0.046875 -1.359375 0.21875 -2.5625q0.1875 -1.203125 0.578125 -2.125q0.390625 -0.9375 1.0625 -1.46875q0.6875 -0.546875 1.75 -0.546875l0 1.328125q-0.65625 0.03125 -1.015625 0.75q-0.34375 0.71875 -0.5 1.890625q-0.140625 1.171875 -0.171875 2.609375q-0.03125 1.421875 -0.03125 2.859375q0 1.453125 0.03125 2.875q0.03125 1.421875 0.171875 2.609375q0.15625 1.171875 0.5 1.875q0.359375 0.71875 1.015625 0.734375l0 1.328125zm5.7314453 -0.0625q-1.171875 0 -1.84375 -0.125q-0.671875 -0.109375 -1.0 -0.5q-0.328125 -0.375 -0.421875 -1.125q-0.078125 -0.75 -0.078125 -2.0l0 -2.625q0 -1.03125 -0.09375 -1.515625q-0.078125 -0.5 -0.3125 -0.65625q-0.234375 -0.171875 -0.671875 -0.171875l0 -1.375q0.4375 0 0.671875 -0.15625q0.234375 -0.171875 0.3125 -0.671875q0.09375 -0.515625 0.09375 -1.515625l0 -2.625q0 -1.25 0.078125 -1.984375q0.09375 -0.75 0.421875 -1.125q0.328125 -0.390625 1.0 -0.5q0.671875 -0.125 1.84375 -0.125l0 1.46875q-0.46875 0 -0.734375 0.078125q-0.265625 0.0625 -0.375 0.296875q-0.109375 0.21875 -0.125 0.6875q-0.015625 0.453125 -0.015625 1.203125l0 2.921875q0 1.390625 -0.34375 2.0q-0.328125 0.59375 -0.890625 0.734375q0.5625 0.140625 0.890625 0.734375q0.34375 0.59375 0.34375 2.0l0 2.921875q0 0.78125 0.015625 1.234375q0.015625 0.46875 0.125 0.6875q0.109375 0.21875 0.375 0.28125q0.265625 0.078125 0.734375 0.078125l0 1.46875zm1.253128 0l0 -1.46875q0.453125 0 0.71875 -0.078125q0.265625 -0.0625 0.375 -0.28125q0.109375 -0.21875 0.125 -0.6875q0.03125 -0.453125 0.03125 -1.234375l0 -2.921875q0 -1.40625 0.328125 -2.0q0.34375 -0.59375 0.921875 -0.734375q-0.578125 -0.140625 -0.921875 -0.734375q-0.328125 -0.609375 -0.328125 -2.0l0 -2.921875q0 -0.75 -0.03125 -1.203125q-0.015625 -0.46875 -0.125 -0.6875q-0.109375 -0.234375 -0.375 -0.296875q-0.265625 -0.078125 -0.71875 -0.078125l0 -1.46875q1.171875 0 1.84375 0.125q0.671875 0.109375 1.0 0.5q0.328125 0.375 0.40625 1.125q0.078125 0.734375 0.078125 1.984375l0 2.625q0 1.0 0.078125 1.515625q0.09375 0.5 0.328125 0.671875q0.234375 0.15625 0.6875 0.15625l0 1.375q-0.453125 0 -0.6875 0.171875q-0.234375 0.15625 -0.328125 0.65625q-0.078125 0.484375 -0.078125 1.515625l0 2.625q0 1.25 -0.078125 2.0q-0.078125 0.75 -0.40625 1.125q-0.328125 0.390625 -1.0 0.5q-0.671875 0.125 -1.84375 0.125zm5.7074127 0.0625l0 -1.34375q0.671875 -0.03125 1.015625 -0.75q0.359375 -0.703125 0.5 -1.875q0.15625 -1.1875 0.1875 -2.625q0.03125 -1.4375 0.03125 -2.875q0 -1.453125 -0.03125 -2.875q-0.03125 -1.4375 -0.1875 -2.59375q-0.140625 -1.171875 -0.5 -1.875q-0.34375 -0.71875 -1.015625 -0.734375l0 -1.3125q1.078125 0 1.75 0.53125q0.6875 0.53125 1.078125 1.46875q0.390625 0.921875 0.5625 2.125q0.1875 1.203125 0.21875 2.546875q0.046875 1.34375 0.046875 2.71875q0 1.390625 -0.046875 2.75q-0.03125 1.34375 -0.21875 2.5625q-0.171875 1.203125 -0.5625 2.125q-0.390625 0.9375 -1.078125 1.46875q-0.671875 0.53125 -1.75 0.5625z" fill-rule="nonzero"/><path fill="#000000" fill-opacity="0.0" d="m155.71129 365.80054l0 51.496063" fill-rule="evenodd"/><path stroke="#ffffff" stroke-width="2.0" stroke-linejoin="round" stroke-linecap="butt" d="m155.71129 365.80054l0 39.496063" fill-rule="evenodd"/><path fill="#ffffff" stroke="#ffffff" stroke-width="2.0" stroke-linecap="butt" d="m152.40782 405.2966l3.3034668 9.076172l3.3034668 -9.076172z" fill-rule="evenodd"/><path fill="#f9cb9c" d="m111.91601 514.33606l0 0c0 -3.5949707 2.914322 -6.5092773 6.5093155 -6.5092773l74.571915 0c1.7263794 0 3.3820496 0.685791 4.602783 1.9065247c1.2207336 1.2207336 1.9065399 2.8763733 1.9065399 4.6027527l0 26.036499c0 3.5950317 -2.914322 6.5093384 -6.509323 6.5093384l-74.571915 0l0 0c-3.5949936 0 -6.5093155 -2.9143066 -6.5093155 -6.5093384z" fill-rule="evenodd"/><path stroke="#ffffff" stroke-width="1.0" stroke-linejoin="round" stroke-linecap="butt" d="m111.91601 514.33606l0 0c0 -3.5949707 2.914322 -6.5092773 6.5093155 -6.5092773l74.571915 0c1.7263794 0 3.3820496 0.685791 4.602783 1.9065247c1.2207336 1.2207336 1.9065399 2.8763733 1.9065399 4.6027527l0 26.036499c0 3.5950317 -2.914322 6.5093384 -6.509323 6.5093384l-74.571915 0l0 0c-3.5949936 0 -6.5093155 -2.9143066 -6.5093155 -6.5093384z" fill-rule="evenodd"/><path fill="#000000" d="m144.87817 534.4462q-1.609375 0 -2.5 -0.671875q-0.890625 -0.671875 -1.234375 -1.8125q-0.34375 -1.140625 -0.34375 -2.53125l0 -5.34375q0 -1.53125 0.34375 -2.671875q0.34375 -1.140625 1.234375 -1.75q0.890625 -0.625 2.5 -0.625q1.40625 0 2.234375 0.515625q0.84375 0.515625 1.203125 1.5q0.359375 0.96875 0.359375 2.328125l0 1.1875l-2.0 0l0 -1.0625q0 -0.84375 -0.078125 -1.484375q-0.078125 -0.640625 -0.453125 -0.984375q-0.375 -0.359375 -1.25 -0.359375q-0.90625 0 -1.3125 0.390625q-0.40625 0.375 -0.53125 1.078125q-0.125 0.6875 -0.125 1.625l0 5.984375q0 1.140625 0.1875 1.8125q0.1875 0.65625 0.609375 0.9375q0.4375 0.265625 1.171875 0.265625q0.859375 0 1.21875 -0.375q0.375 -0.375 0.46875 -1.046875q0.09375 -0.671875 0.09375 -1.578125l0 -1.109375l2.0 0l0 1.109375q0 1.390625 -0.34375 2.453125q-0.328125 1.046875 -1.15625 1.640625q-0.8125 0.578125 -2.296875 0.578125zm9.639221 3.453125q-1.0625 -0.03125 -1.75 -0.5625q-0.671875 -0.53125 -1.0625 -1.46875q-0.390625 -0.921875 -0.578125 -2.109375q-0.171875 -1.203125 -0.21875 -2.5625q-0.03125 -1.359375 -0.03125 -2.71875q0 -1.390625 0.03125 -2.734375q0.046875 -1.359375 0.21875 -2.5625q0.1875 -1.203125 0.578125 -2.125q0.390625 -0.9375 1.0625 -1.46875q0.6875 -0.546875 1.75 -0.546875l0 1.328125q-0.65625 0.03125 -1.015625 0.75q-0.34375 0.71875 -0.5 1.890625q-0.140625 1.171875 -0.171875 2.609375q-0.03125 1.421875 -0.03125 2.859375q0 1.453125 0.03125 2.875q0.03125 1.421875 0.171875 2.609375q0.15625 1.171875 0.5 1.875q0.359375 0.71875 1.015625 0.734375l0 1.328125zm5.7314453 -0.0625q-1.171875 0 -1.84375 -0.125q-0.671875 -0.109375 -1.0 -0.5q-0.328125 -0.375 -0.421875 -1.125q-0.078125 -0.75 -0.078125 -2.0l0 -2.625q0 -1.03125 -0.09375 -1.515625q-0.078125 -0.5 -0.3125 -0.65625q-0.234375 -0.171875 -0.671875 -0.171875l0 -1.375q0.4375 0 0.671875 -0.15625q0.234375 -0.171875 0.3125 -0.671875q0.09375 -0.515625 0.09375 -1.515625l0 -2.625q0 -1.25 0.078125 -1.984375q0.09375 -0.75 0.421875 -1.125q0.328125 -0.390625 1.0 -0.5q0.671875 -0.125 1.84375 -0.125l0 1.46875q-0.46875 0 -0.734375 0.078125q-0.265625 0.0625 -0.375 0.296875q-0.109375 0.21875 -0.125 0.6875q-0.015625 0.453125 -0.015625 1.203125l0 2.921875q0 1.390625 -0.34375 2.0q-0.328125 0.59375 -0.890625 0.734375q0.5625 0.140625 0.890625 0.734375q0.34375 0.59375 0.34375 2.0l0 2.921875q0 0.78125 0.015625 1.234375q0.015625 0.46875 0.125 0.6875q0.109375 0.21875 0.375 0.28125q0.265625 0.078125 0.734375 0.078125l0 1.46875zm1.253128 0l0 -1.46875q0.453125 0 0.71875 -0.078125q0.265625 -0.0625 0.375 -0.28125q0.109375 -0.21875 0.125 -0.6875q0.03125 -0.453125 0.03125 -1.234375l0 -2.921875q0 -1.40625 0.328125 -2.0q0.34375 -0.59375 0.921875 -0.734375q-0.578125 -0.140625 -0.921875 -0.734375q-0.328125 -0.609375 -0.328125 -2.0l0 -2.921875q0 -0.75 -0.03125 -1.203125q-0.015625 -0.46875 -0.125 -0.6875q-0.109375 -0.234375 -0.375 -0.296875q-0.265625 -0.078125 -0.71875 -0.078125l0 -1.46875q1.171875 0 1.84375 0.125q0.671875 0.109375 1.0 0.5q0.328125 0.375 0.40625 1.125q0.078125 0.734375 0.078125 1.984375l0 2.625q0 1.0 0.078125 1.515625q0.09375 0.5 0.328125 0.671875q0.234375 0.15625 0.6875 0.15625l0 1.375q-0.453125 0 -0.6875 0.171875q-0.234375 0.15625 -0.328125 0.65625q-0.078125 0.484375 -0.078125 1.515625l0 2.625q0 1.25 -0.078125 2.0q-0.078125 0.75 -0.40625 1.125q-0.328125 0.390625 -1.0 0.5q-0.671875 0.125 -1.84375 0.125zm5.7074127 0.0625l0 -1.34375q0.671875 -0.03125 1.015625 -0.75q0.359375 -0.703125 0.5 -1.875q0.15625 -1.1875 0.1875 -2.625q0.03125 -1.4375 0.03125 -2.875q0 -1.453125 -0.03125 -2.875q-0.03125 -1.4375 -0.1875 -2.59375q-0.140625 -1.171875 -0.5 -1.875q-0.34375 -0.71875 -1.015625 -0.734375l0 -1.3125q1.078125 0 1.75 0.53125q0.6875 0.53125 1.078125 1.46875q0.390625 0.921875 0.5625 2.125q0.1875 1.203125 0.21875 2.546875q0.046875 1.34375 0.046875 2.71875q0 1.390625 -0.046875 2.75q-0.03125 1.34375 -0.21875 2.5625q-0.171875 1.203125 -0.5625 2.125q-0.390625 0.9375 -1.078125 1.46875q-0.671875 0.53125 -1.75 0.5625z" fill-rule="nonzero"/><path fill="#000000" fill-opacity="0.0" d="m155.71129 456.34122l0 51.496063" fill-rule="evenodd"/><path stroke="#ffffff" stroke-width="2.0" stroke-linejoin="round" stroke-linecap="butt" d="m155.71129 456.34122l0 39.496063" fill-rule="evenodd"/><path fill="#ffffff" stroke="#ffffff" stroke-width="2.0" stroke-linecap="butt" d="m152.40782 495.83728l3.3034668 9.076172l3.3034668 -9.076172z" fill-rule="evenodd"/><path fill="#000000" fill-opacity="0.0" d="m199.50525 65.2336l137.6063 0" fill-rule="evenodd"/><path stroke="#ffffff" stroke-width="2.0" stroke-linejoin="round" stroke-linecap="butt" stroke-dasharray="8.0,6.0" d="m199.50525 65.2336l125.60629 0" fill-rule="evenodd"/><path fill="#ffffff" stroke="#ffffff" stroke-width="2.0" stroke-linecap="butt" d="m325.11154 68.53706l9.076202 -3.3034668l-9.076202 -3.3034668z" fill-rule="evenodd"/><path fill="#f4cccc" d="m337.11023 14.3044615l161.5433 0l0 101.85827l-161.5433 0z" fill-rule="evenodd"/><path stroke="#ffffff" stroke-width="1.0" stroke-linejoin="round" stroke-linecap="butt" d="m337.11023 14.3044615l161.5433 0l0 101.85827l-161.5433 0z" fill-rule="evenodd"/><path fill="#000000" d="m346.6571 39.153595l4.0625 -15.109375l1.734375 0l-4.09375 15.109375l-1.703125 0zm6.8841553 0l4.0625 -15.109375l1.734375 0l-4.09375 15.109375l-1.703125 0zm7.3372803 0l0 -10.78125l1.859375 0l0 1.03125q0.53125 -0.625 1.1875 -0.921875q0.65625 -0.296875 1.34375 -0.296875q0.59375 0 1.0625 0.296875q0.484375 0.296875 0.6875 1.0625q0.578125 -0.703125 1.25 -1.03125q0.6875 -0.328125 1.4375 -0.328125q0.53125 0 0.953125 0.25q0.4375 0.25 0.6875 0.8125q0.265625 0.546875 0.265625 1.4375l0 8.46875l-1.828125 0l0 -8.34375q0 -0.78125 -0.25 -1.046875q-0.25 -0.265625 -0.6875 -0.265625q-0.40625 0 -0.859375 0.234375q-0.4375 0.21875 -0.8125 0.640625q0 0.0625 0 0.140625q0 0.078125 0 0.171875l0 8.46875l-1.828125 0l0 -8.34375q0 -0.78125 -0.25 -1.046875q-0.25 -0.265625 -0.6875 -0.265625q-0.40625 0 -0.84375 0.234375q-0.4375 0.21875 -0.828125 0.640625l0 8.78125l-1.859375 0zm15.654999 0.15625q-1.1875 0 -1.875 -0.484375q-0.6875 -0.5 -0.984375 -1.390625q-0.28125 -0.890625 -0.28125 -2.109375l0 -3.125q0 -1.21875 0.28125 -2.109375q0.296875 -0.90625 0.984375 -1.390625q0.6875 -0.484375 1.875 -0.484375q1.203125 0 1.875 0.484375q0.6875 0.484375 0.96875 1.390625q0.296875 0.890625 0.296875 2.109375l0 3.125q0 1.21875 -0.296875 2.109375q-0.28125 0.890625 -0.96875 1.390625q-0.671875 0.484375 -1.875 0.484375zm0 -1.484375q0.578125 0 0.8125 -0.328125q0.234375 -0.34375 0.28125 -0.890625q0.046875 -0.546875 0.046875 -1.140625l0 -3.390625q0 -0.609375 -0.046875 -1.140625q-0.046875 -0.546875 -0.28125 -0.890625q-0.234375 -0.34375 -0.8125 -0.34375q-0.578125 0 -0.828125 0.34375q-0.234375 0.34375 -0.28125 0.890625q-0.046875 0.53125 -0.046875 1.140625l0 3.390625q0 0.59375 0.046875 1.140625q0.046875 0.546875 0.28125 0.890625q0.25 0.328125 0.828125 0.328125zm6.5226746 1.484375q-0.640625 0 -1.0 -0.328125q-0.34375 -0.34375 -0.484375 -0.84375q-0.140625 -0.515625 -0.140625 -1.03125l0 -8.734375l1.984375 0l0 8.125q0 0.578125 0.171875 0.90625q0.171875 0.328125 0.6875 0.328125q0.34375 0 0.703125 -0.1875q0.359375 -0.203125 0.703125 -0.484375l0 -8.6875l2.0 0l0 10.78125l-2.0 0l0 -1.0625q-0.515625 0.5 -1.1875 0.859375q-0.65625 0.359375 -1.4375 0.359375zm6.64624 -0.15625l0 -10.78125l2.0 0l0 1.0625q0.546875 -0.5 1.1875 -0.859375q0.65625 -0.359375 1.453125 -0.359375q0.640625 0 0.984375 0.34375q0.359375 0.328125 0.484375 0.84375q0.140625 0.5 0.140625 1.015625l0 8.734375l-1.984375 0l0 -8.15625q0 -0.578125 -0.171875 -0.890625q-0.171875 -0.3125 -0.6875 -0.3125q-0.34375 0 -0.703125 0.203125q-0.359375 0.1875 -0.703125 0.46875l0 8.6875l-2.0 0zm11.065094 0.15625q-0.828125 0 -1.34375 -0.3125q-0.515625 -0.328125 -0.75 -0.90625q-0.234375 -0.578125 -0.234375 -1.359375l0 -7.03125l-1.140625 0l0 -1.328125l1.140625 0l0 -3.15625l2.0 0l0 3.15625l1.734375 0l0 1.328125l-1.734375 0l0 6.890625q0 0.640625 0.203125 0.921875q0.203125 0.265625 0.78125 0.265625q0.15625 0 0.34375 -0.015625q0.203125 -0.03125 0.390625 -0.046875l0 1.46875q-0.375 0.0625 -0.703125 0.09375q-0.3125 0.03125 -0.6875 0.03125z" fill-rule="nonzero"/><path fill="#000000" d="m346.11023 63.653595l0 -1.515625l6.421875 0l0 1.515625l-6.421875 0zm6.77713 -2.5l3.203125 -15.109375l2.03125 0l3.234375 15.109375l-2.0 0l-0.6875 -3.8125l-3.078125 0l-0.734375 3.8125l-1.96875 0zm2.984375 -5.3125l2.515625 0l-1.265625 -6.8125l-1.25 6.8125zm11.107422 -3.1875l0 -1.53125l5.734375 0l0 1.53125l-5.734375 0zm0 3.296875l0 -1.515625l5.734375 0l0 1.515625l-5.734375 0zm12.014618 5.203125l0 -10.78125l2.0 0l0 1.0625q0.546875 -0.5 1.1875 -0.859375q0.65625 -0.359375 1.453125 -0.359375q0.640625 0 0.984375 0.34375q0.359375 0.328125 0.484375 0.84375q0.140625 0.5 0.140625 1.015625l0 8.734375l-1.984375 0l0 -8.15625q0 -0.578125 -0.171875 -0.890625q-0.171875 -0.3125 -0.6875 -0.3125q-0.34375 0 -0.703125 0.203125q-0.359375 0.1875 -0.703125 0.46875l0 8.6875l-2.0 0zm11.190094 0.15625q-1.28125 0 -1.96875 -0.5q-0.6875 -0.5 -0.96875 -1.453125q-0.265625 -0.96875 -0.265625 -2.359375l0 -2.46875q0 -1.4375 0.28125 -2.390625q0.28125 -0.953125 0.984375 -1.4375q0.703125 -0.484375 1.9375 -0.484375q1.359375 0 2.0 0.5625q0.640625 0.5625 0.84375 1.625q0.203125 1.046875 0.203125 2.515625l0 0.875l-4.25 0l0 2.171875q0 0.65625 0.125 1.0625q0.125 0.40625 0.390625 0.609375q0.265625 0.1875 0.703125 0.1875q0.4375 0 0.671875 -0.203125q0.234375 -0.21875 0.3125 -0.625q0.09375 -0.40625 0.09375 -0.9375l0 -0.65625l1.9375 0l0 0.40625q0 1.625 -0.6875 2.5625q-0.6875 0.9375 -2.34375 0.9375zm-1.203125 -6.59375l2.296875 0l0 -0.96875q0 -0.671875 -0.078125 -1.125q-0.078125 -0.46875 -0.3125 -0.6875q-0.21875 -0.234375 -0.734375 -0.234375q-0.484375 0 -0.734375 0.21875q-0.25 0.21875 -0.34375 0.75q-0.09375 0.53125 -0.09375 1.46875l0 0.578125zm7.3074036 6.4375l-1.734375 -10.78125l1.65625 0l1.109375 7.953125l1.4375 -7.953125l1.53125 0l1.4375 7.90625l1.125 -7.90625l1.640625 0l-1.796875 10.78125l-1.671875 0l-1.484375 -7.609375l-1.453125 7.609375l-1.796875 0zm13.351532 0l3.203125 -15.109375l2.03125 0l3.234375 15.109375l-2.0 0l-0.6875 -3.8125l-3.078125 0l-0.734375 3.8125l-1.96875 0zm2.984375 -5.3125l2.515625 0l-1.265625 -6.8125l-1.25 6.8125zm10.835114 8.9375q-1.0625 -0.03125 -1.75 -0.5625q-0.671875 -0.53125 -1.0625 -1.46875q-0.390625 -0.921875 -0.578125 -2.109375q-0.171875 -1.203125 -0.21875 -2.5625q-0.03125 -1.359375 -0.03125 -2.71875q0 -1.390625 0.03125 -2.734375q0.046875 -1.359375 0.21875 -2.5625q0.1875 -1.203125 0.578125 -2.125q0.390625 -0.9375 1.0625 -1.46875q0.6875 -0.546875 1.75 -0.546875l0 1.328125q-0.65625 0.03125 -1.015625 0.75q-0.34375 0.71875 -0.5 1.890625q-0.140625 1.171875 -0.171875 2.609375q-0.03125 1.421875 -0.03125 2.859375q0 1.453125 0.03125 2.875q0.03125 1.421875 0.171875 2.609375q0.15625 1.171875 0.5 1.875q0.359375 0.71875 1.015625 0.734375l0 1.328125zm1.1064453 0l0 -1.34375q0.671875 -0.03125 1.015625 -0.75q0.359375 -0.703125 0.5 -1.875q0.15625 -1.1875 0.1875 -2.625q0.03125 -1.4375 0.03125 -2.875q0 -1.453125 -0.03125 -2.875q-0.03125 -1.4375 -0.1875 -2.59375q-0.140625 -1.171875 -0.5 -1.875q-0.34375 -0.71875 -1.015625 -0.734375l0 -1.3125q1.078125 0 1.75 0.53125q0.6875 0.53125 1.078125 1.46875q0.390625 0.921875 0.5625 2.125q0.1875 1.203125 0.21875 2.546875q0.046875 1.34375 0.046875 2.71875q0 1.390625 -0.046875 2.75q-0.03125 1.34375 -0.21875 2.5625q-0.171875 1.203125 -0.5625 2.125q-0.390625 0.9375 -1.078125 1.46875q-0.671875 0.53125 -1.75 0.5625zm5.725647 -2.765625l-0.34375 -0.875q0.578125 -0.046875 0.828125 -0.359375q0.265625 -0.328125 0.265625 -0.890625l-1.078125 0l0 -2.125l2.078125 0l0 2.078125q0 1.0 -0.390625 1.5625q-0.390625 0.578125 -1.359375 0.609375zm-0.328125 -9.1875l0 -2.21875l2.015625 0l0 2.21875l-2.015625 0z" fill-rule="nonzero"/><path fill="#000000" d="m346.11023 85.653595l0 -1.515625l6.421875 0l0 1.515625l-6.421875 0zm6.77713 -2.5l3.203125 -15.109375l2.03125 0l3.234375 15.109375l-2.0 0l-0.6875 -3.8125l-3.078125 0l-0.734375 3.8125l-1.96875 0zm2.984375 -5.3125l2.515625 0l-1.265625 -6.8125l-1.25 6.8125zm6.757019 5.3125l0 -2.21875l1.984375 0l0 2.21875l-1.984375 0zm6.0854797 0.15625q-1.3125 0 -2.125 -0.828125q-0.796875 -0.84375 -0.90625 -2.203125l1.65625 -0.5q0.15625 1.03125 0.5 1.546875q0.359375 0.5 1.046875 0.5q0.546875 0 0.828125 -0.296875q0.28125 -0.3125 0.28125 -0.84375q0 -0.453125 -0.21875 -0.828125q-0.203125 -0.375 -0.65625 -0.765625l-1.859375 -1.59375q-0.546875 -0.484375 -0.9375 -1.078125q-0.375 -0.59375 -0.375 -1.546875q0 -0.859375 0.34375 -1.4375q0.34375 -0.59375 0.96875 -0.90625q0.625 -0.3125 1.453125 -0.3125q1.296875 0 1.96875 0.84375q0.6875 0.828125 0.78125 2.0l-1.34375 0.5q-0.078125 -0.5625 -0.234375 -0.984375q-0.140625 -0.421875 -0.40625 -0.640625q-0.25 -0.234375 -0.6875 -0.234375q-0.484375 0 -0.78125 0.328125q-0.28125 0.3125 -0.28125 0.765625q0 0.28125 0.125 0.5625q0.125 0.265625 0.421875 0.515625l1.90625 1.765625q0.390625 0.34375 0.734375 0.765625q0.34375 0.40625 0.5625 0.9375q0.234375 0.515625 0.234375 1.203125q0 0.90625 -0.375 1.53125q-0.375 0.609375 -1.046875 0.921875q-0.671875 0.3125 -1.578125 0.3125zm7.3524475 0q-0.828125 0 -1.34375 -0.3125q-0.515625 -0.328125 -0.75 -0.90625q-0.234375 -0.578125 -0.234375 -1.359375l0 -7.03125l-1.140625 0l0 -1.328125l1.140625 0l0 -3.15625l2.0 0l0 3.15625l1.734375 0l0 1.328125l-1.734375 0l0 6.890625q0 0.640625 0.203125 0.921875q0.203125 0.265625 0.78125 0.265625q0.15625 0 0.34375 -0.015625q0.203125 -0.03125 0.390625 -0.046875l0 1.46875q-0.375 0.0625 -0.703125 0.09375q-0.3125 0.03125 -0.6875 0.03125zm4.8242493 0q-0.640625 0 -1.125 -0.359375q-0.484375 -0.375 -0.765625 -0.9375q-0.28125 -0.578125 -0.28125 -1.203125q0 -1.015625 0.328125 -1.703125q0.34375 -0.6875 0.921875 -1.15625q0.59375 -0.484375 1.359375 -0.84375q0.78125 -0.359375 1.640625 -0.6875l0 -0.765625q0 -0.65625 -0.078125 -1.078125q-0.0625 -0.4375 -0.296875 -0.640625q-0.234375 -0.21875 -0.703125 -0.21875q-0.40625 0 -0.65625 0.1875q-0.25 0.1875 -0.375 0.53125q-0.109375 0.34375 -0.109375 0.8125l0 0.53125l-1.96875 -0.0625q0.03125 -1.796875 0.8125 -2.640625q0.78125 -0.859375 2.421875 -0.859375q1.609375 0 2.28125 0.890625q0.671875 0.875 0.671875 2.53125l0 4.921875q0 0.5 0.03125 0.96875q0.03125 0.46875 0.078125 0.875q0.046875 0.390625 0.078125 0.75l-1.828125 0q-0.0625 -0.296875 -0.140625 -0.75q-0.078125 -0.46875 -0.125 -0.828125q-0.1875 0.625 -0.71875 1.1875q-0.53125 0.546875 -1.453125 0.546875zm0.78125 -1.71875q0.296875 0 0.546875 -0.171875q0.265625 -0.171875 0.46875 -0.375q0.21875 -0.21875 0.28125 -0.359375l0 -3.046875q-0.453125 0.25 -0.875 0.515625q-0.40625 0.265625 -0.71875 0.5625q-0.296875 0.28125 -0.484375 0.640625q-0.171875 0.359375 -0.171875 0.828125q0 0.65625 0.234375 1.03125q0.25 0.375 0.71875 0.375zm7.938843 1.71875q-0.828125 0 -1.34375 -0.3125q-0.515625 -0.328125 -0.75 -0.90625q-0.234375 -0.578125 -0.234375 -1.359375l0 -7.03125l-1.140625 0l0 -1.328125l1.140625 0l0 -3.15625l2.0 0l0 3.15625l1.734375 0l0 1.328125l-1.734375 0l0 6.890625q0 0.640625 0.203125 0.921875q0.203125 0.265625 0.78125 0.265625q0.15625 0 0.34375 -0.015625q0.203125 -0.03125 0.390625 -0.046875l0 1.46875q-0.375 0.0625 -0.703125 0.09375q-0.3125 0.03125 -0.6875 0.03125zm5.8711243 0q-1.28125 0 -1.96875 -0.5q-0.6875 -0.5 -0.96875 -1.453125q-0.265625 -0.96875 -0.265625 -2.359375l0 -2.46875q0 -1.4375 0.28125 -2.390625q0.28125 -0.953125 0.984375 -1.4375q0.703125 -0.484375 1.9375 -0.484375q1.359375 0 2.0 0.5625q0.640625 0.5625 0.84375 1.625q0.203125 1.046875 0.203125 2.515625l0 0.875l-4.25 0l0 2.171875q0 0.65625 0.125 1.0625q0.125 0.40625 0.390625 0.609375q0.265625 0.1875 0.703125 0.1875q0.4375 0 0.671875 -0.203125q0.234375 -0.21875 0.3125 -0.625q0.09375 -0.40625 0.09375 -0.9375l0 -0.65625l1.9375 0l0 0.40625q0 1.625 -0.6875 2.5625q-0.6875 0.9375 -2.34375 0.9375zm-1.203125 -6.59375l2.296875 0l0 -0.96875q0 -0.671875 -0.078125 -1.125q-0.078125 -0.46875 -0.3125 -0.6875q-0.21875 -0.234375 -0.734375 -0.234375q-0.484375 0 -0.734375 0.21875q-0.25 0.21875 -0.34375 0.75q-0.09375 0.53125 -0.09375 1.46875l0 0.578125zm10.329681 -2.0625l0 -1.53125l5.734375 0l0 1.53125l-5.734375 0zm0 3.296875l0 -1.515625l5.734375 0l0 1.515625l-5.734375 0zm16.186493 8.765625q-1.171875 0 -1.84375 -0.125q-0.671875 -0.109375 -1.0 -0.5q-0.328125 -0.375 -0.421875 -1.125q-0.078125 -0.75 -0.078125 -2.0l0 -2.625q0 -1.03125 -0.09375 -1.515625q-0.078125 -0.5 -0.3125 -0.65625q-0.234375 -0.171875 -0.671875 -0.171875l0 -1.375q0.4375 0 0.671875 -0.15625q0.234375 -0.171875 0.3125 -0.671875q0.09375 -0.515625 0.09375 -1.515625l0 -2.625q0 -1.25 0.078125 -1.984375q0.09375 -0.75 0.421875 -1.125q0.328125 -0.390625 1.0 -0.5q0.671875 -0.125 1.84375 -0.125l0 1.46875q-0.46875 0 -0.734375 0.078125q-0.265625 0.0625 -0.375 0.296875q-0.109375 0.21875 -0.125 0.6875q-0.015625 0.453125 -0.015625 1.203125l0 2.921875q0 1.390625 -0.34375 2.0q-0.328125 0.59375 -0.890625 0.734375q0.5625 0.140625 0.890625 0.734375q0.34375 0.59375 0.34375 2.0l0 2.921875q0 0.78125 0.015625 1.234375q0.015625 0.46875 0.125 0.6875q0.109375 0.21875 0.375 0.28125q0.265625 0.078125 0.734375 0.078125l0 1.46875zm3.3781433 -3.40625q-0.640625 0 -1.125 -0.359375q-0.484375 -0.375 -0.765625 -0.9375q-0.28125 -0.578125 -0.28125 -1.203125q0 -1.015625 0.328125 -1.703125q0.34375 -0.6875 0.921875 -1.15625q0.59375 -0.484375 1.359375 -0.84375q0.78125 -0.359375 1.640625 -0.6875l0 -0.765625q0 -0.65625 -0.078125 -1.078125q-0.0625 -0.4375 -0.296875 -0.640625q-0.234375 -0.21875 -0.703125 -0.21875q-0.40625 0 -0.65625 0.1875q-0.25 0.1875 -0.375 0.53125q-0.109375 0.34375 -0.109375 0.8125l0 0.53125l-1.96875 -0.0625q0.03125 -1.796875 0.8125 -2.640625q0.78125 -0.859375 2.421875 -0.859375q1.609375 0 2.28125 0.890625q0.671875 0.875 0.671875 2.53125l0 4.921875q0 0.5 0.03125 0.96875q0.03125 0.46875 0.078125 0.875q0.046875 0.390625 0.078125 0.75l-1.828125 0q-0.0625 -0.296875 -0.140625 -0.75q-0.078125 -0.46875 -0.125 -0.828125q-0.1875 0.625 -0.71875 1.1875q-0.53125 0.546875 -1.453125 0.546875zm0.78125 -1.71875q0.296875 0 0.546875 -0.171875q0.265625 -0.171875 0.46875 -0.375q0.21875 -0.21875 0.28125 -0.359375l0 -3.046875q-0.453125 0.25 -0.875 0.515625q-0.40625 0.265625 -0.71875 0.5625q-0.296875 0.28125 -0.484375 0.640625q-0.171875 0.359375 -0.171875 0.828125q0 0.65625 0.234375 1.03125q0.25 0.375 0.71875 0.375zm5.338196 -6.1875l0 -2.125l2.015625 0l0 2.125l-2.015625 0zm0 5.953125l0 -2.125l2.015625 0l0 2.125l-2.015625 0zm10.69754 1.953125q-0.828125 0 -1.34375 -0.3125q-0.515625 -0.328125 -0.75 -0.90625q-0.234375 -0.578125 -0.234375 -1.359375l0 -7.03125l-1.140625 0l0 -1.328125l1.140625 0l0 -3.15625l2.0 0l0 3.15625l1.734375 0l0 1.328125l-1.734375 0l0 6.890625q0 0.640625 0.203125 0.921875q0.203125 0.265625 0.78125 0.265625q0.15625 0 0.34375 -0.015625q0.203125 -0.03125 0.390625 -0.046875l0 1.46875q-0.375 0.0625 -0.703125 0.09375q-0.3125 0.03125 -0.6875 0.03125zm2.9336243 -0.15625l0 -10.78125l2.0 0l0 1.53125q0.59375 -1.0 1.1875 -1.328125q0.59375 -0.328125 1.203125 -0.328125q0.0625 0 0.125 0q0.078125 0 0.1875 0.015625l0 2.203125q-0.21875 -0.09375 -0.515625 -0.15625q-0.28125 -0.078125 -0.578125 -0.078125q-0.46875 0 -0.859375 0.21875q-0.375 0.21875 -0.75 0.828125l0 7.875l-2.0 0zm7.488678 0.15625q-0.640625 0 -1.0 -0.328125q-0.34375 -0.34375 -0.484375 -0.84375q-0.140625 -0.515625 -0.140625 -1.03125l0 -8.734375l1.984375 0l0 8.125q0 0.578125 0.171875 0.90625q0.171875 0.328125 0.6875 0.328125q0.34375 0 0.703125 -0.1875q0.359375 -0.203125 0.703125 -0.484375l0 -8.6875l2.0 0l0 10.78125l-2.0 0l0 -1.0625q-0.515625 0.5 -1.1875 0.859375q-0.65625 0.359375 -1.4375 0.359375zm9.64624 0q-1.28125 0 -1.96875 -0.5q-0.6875 -0.5 -0.96875 -1.453125q-0.265625 -0.96875 -0.265625 -2.359375l0 -2.46875q0 -1.4375 0.28125 -2.390625q0.28125 -0.953125 0.984375 -1.4375q0.703125 -0.484375 1.9375 -0.484375q1.359375 0 2.0 0.5625q0.640625 0.5625 0.84375 1.625q0.203125 1.046875 0.203125 2.515625l0 0.875l-4.25 0l0 2.171875q0 0.65625 0.125 1.0625q0.125 0.40625 0.390625 0.609375q0.265625 0.1875 0.703125 0.1875q0.4375 0 0.671875 -0.203125q0.234375 -0.21875 0.3125 -0.625q0.09375 -0.40625 0.09375 -0.9375l0 -0.65625l1.9375 0l0 0.40625q0 1.625 -0.6875 2.5625q-0.6875 0.9375 -2.34375 0.9375zm-1.203125 -6.59375l2.296875 0l0 -0.96875q0 -0.671875 -0.078125 -1.125q-0.078125 -0.46875 -0.3125 -0.6875q-0.21875 -0.234375 -0.734375 -0.234375q-0.484375 0 -0.734375 0.21875q-0.25 0.21875 -0.34375 0.75q-0.09375 0.53125 -0.09375 1.46875l0 0.578125zm5.8855286 10.0l0 -1.46875q0.453125 0 0.71875 -0.078125q0.265625 -0.0625 0.375 -0.28125q0.109375 -0.21875 0.125 -0.6875q0.03125 -0.453125 0.03125 -1.234375l0 -2.921875q0 -1.40625 0.328125 -2.0q0.34375 -0.59375 0.921875 -0.734375q-0.578125 -0.140625 -0.921875 -0.734375q-0.328125 -0.609375 -0.328125 -2.0l0 -2.921875q0 -0.75 -0.03125 -1.203125q-0.015625 -0.46875 -0.125 -0.6875q-0.109375 -0.234375 -0.375 -0.296875q-0.265625 -0.078125 -0.71875 -0.078125l0 -1.46875q1.171875 0 1.84375 0.125q0.671875 0.109375 1.0 0.5q0.328125 0.375 0.40625 1.125q0.078125 0.734375 0.078125 1.984375l0 2.625q0 1.0 0.078125 1.515625q0.09375 0.5 0.328125 0.671875q0.234375 0.15625 0.6875 0.15625l0 1.375q-0.453125 0 -0.6875 0.171875q-0.234375 0.15625 -0.328125 0.65625q-0.078125 0.484375 -0.078125 1.515625l0 2.625q0 1.25 -0.078125 2.0q-0.078125 0.75 -0.40625 1.125q-0.328125 0.390625 -1.0 0.5q-0.671875 0.125 -1.84375 0.125z" fill-rule="nonzero"/><path fill="#000000" d="m346.11023 107.653595l0 -1.515625l6.421875 0l0 1.515625l-6.421875 0zm6.77713 -2.5l3.203125 -15.109375l2.03125 0l3.234375 15.109375l-2.0 0l-0.6875 -3.8125l-3.078125 0l-0.734375 3.8125l-1.96875 0zm2.984375 -5.3125l2.515625 0l-1.265625 -6.8125l-1.25 6.8125zm6.757019 5.3125l0 -2.21875l1.984375 0l0 2.21875l-1.984375 0zm3.6479797 0l0 -10.78125l2.0 0l0 1.53125q0.59375 -1.0 1.1875 -1.328125q0.59375 -0.328125 1.203125 -0.328125q0.0625 0 0.125 0q0.078125 0 0.1875 0.015625l0 2.203125q-0.21875 -0.09375 -0.515625 -0.15625q-0.28125 -0.078125 -0.578125 -0.078125q-0.46875 0 -0.859375 0.21875q-0.375 0.21875 -0.75 0.828125l0 7.875l-2.0 0zm8.926178 0.15625q-1.28125 0 -1.96875 -0.5q-0.6875 -0.5 -0.96875 -1.453125q-0.265625 -0.96875 -0.265625 -2.359375l0 -2.46875q0 -1.4375 0.28125 -2.390625q0.28125 -0.953125 0.984375 -1.4375q0.703125 -0.484375 1.9375 -0.484375q1.359375 0 2.0 0.5625q0.640625 0.5625 0.84375 1.625q0.203125 1.046875 0.203125 2.515625l0 0.875l-4.25 0l0 2.171875q0 0.65625 0.125 1.0625q0.125 0.40625 0.390625 0.609375q0.265625 0.1875 0.703125 0.1875q0.4375 0 0.671875 -0.203125q0.234375 -0.21875 0.3125 -0.625q0.09375 -0.40625 0.09375 -0.9375l0 -0.65625l1.9375 0l0 0.40625q0 1.625 -0.6875 2.5625q-0.6875 0.9375 -2.34375 0.9375zm-1.203125 -6.59375l2.296875 0l0 -0.96875q0 -0.671875 -0.078125 -1.125q-0.078125 -0.46875 -0.3125 -0.6875q-0.21875 -0.234375 -0.734375 -0.234375q-0.484375 0 -0.734375 0.21875q-0.25 0.21875 -0.34375 0.75q-0.09375 0.53125 -0.09375 1.46875l0 0.578125zm6.0574036 6.4375l0 -10.78125l2.0 0l0 1.0625q0.546875 -0.5 1.1875 -0.859375q0.65625 -0.359375 1.453125 -0.359375q0.640625 0 0.984375 0.34375q0.359375 0.328125 0.484375 0.84375q0.140625 0.5 0.140625 1.015625l0 8.734375l-1.984375 0l0 -8.15625q0 -0.578125 -0.171875 -0.890625q-0.171875 -0.3125 -0.6875 -0.3125q-0.34375 0 -0.703125 0.203125q-0.359375 0.1875 -0.703125 0.46875l0 8.6875l-2.0 0zm10.690094 0.15625q-1.359375 0 -2.03125 -1.0q-0.671875 -1.0 -0.671875 -3.390625l0 -2.09375q0 -1.234375 0.203125 -2.28125q0.21875 -1.046875 0.78125 -1.6875q0.5625 -0.640625 1.671875 -0.640625q0.546875 0 0.984375 0.25q0.453125 0.234375 0.8125 0.59375l0 -5.015625l1.984375 0l0 15.109375l-1.984375 0l0 -0.6875q-0.359375 0.375 -0.78125 0.609375q-0.421875 0.234375 -0.96875 0.234375zm0.515625 -1.578125q0.28125 0 0.59375 -0.09375q0.3125 -0.109375 0.640625 -0.3125l0 -7.078125q-0.265625 -0.171875 -0.59375 -0.3125q-0.3125 -0.140625 -0.6875 -0.140625q-0.6875 0 -0.9375 0.65625q-0.234375 0.65625 -0.234375 1.59375l0 3.046875q0 0.734375 0.078125 1.34375q0.09375 0.609375 0.34375 0.953125q0.265625 0.34375 0.796875 0.34375zm8.230438 1.578125q-1.28125 0 -1.96875 -0.5q-0.6875 -0.5 -0.96875 -1.453125q-0.265625 -0.96875 -0.265625 -2.359375l0 -2.46875q0 -1.4375 0.28125 -2.390625q0.28125 -0.953125 0.984375 -1.4375q0.703125 -0.484375 1.9375 -0.484375q1.359375 0 2.0 0.5625q0.640625 0.5625 0.84375 1.625q0.203125 1.046875 0.203125 2.515625l0 0.875l-4.25 0l0 2.171875q0 0.65625 0.125 1.0625q0.125 0.40625 0.390625 0.609375q0.265625 0.1875 0.703125 0.1875q0.4375 0 0.671875 -0.203125q0.234375 -0.21875 0.3125 -0.625q0.09375 -0.40625 0.09375 -0.9375l0 -0.65625l1.9375 0l0 0.40625q0 1.625 -0.6875 2.5625q-0.6875 0.9375 -2.34375 0.9375zm-1.203125 -6.59375l2.296875 0l0 -0.96875q0 -0.671875 -0.078125 -1.125q-0.078125 -0.46875 -0.3125 -0.6875q-0.21875 -0.234375 -0.734375 -0.234375q-0.484375 0 -0.734375 0.21875q-0.25 0.21875 -0.34375 0.75q-0.09375 0.53125 -0.09375 1.46875l0 0.578125zm6.1199036 6.4375l0 -10.78125l2.0 0l0 1.53125q0.59375 -1.0 1.1875 -1.328125q0.59375 -0.328125 1.203125 -0.328125q0.0625 0 0.125 0q0.078125 0 0.1875 0.015625l0 2.203125q-0.21875 -0.09375 -0.515625 -0.15625q-0.28125 -0.078125 -0.578125 -0.078125q-0.46875 0 -0.859375 0.21875q-0.375 0.21875 -0.75 0.828125l0 7.875l-2.0 0zm9.926147 3.625q-1.0625 -0.03125 -1.75 -0.5625q-0.671875 -0.53125 -1.0625 -1.46875q-0.390625 -0.921875 -0.578125 -2.109375q-0.171875 -1.203125 -0.21875 -2.5625q-0.03125 -1.359375 -0.03125 -2.71875q0 -1.390625 0.03125 -2.734375q0.046875 -1.359375 0.21875 -2.5625q0.1875 -1.203125 0.578125 -2.125q0.390625 -0.9375 1.0625 -1.46875q0.6875 -0.546875 1.75 -0.546875l0 1.328125q-0.65625 0.03125 -1.015625 0.75q-0.34375 0.71875 -0.5 1.890625q-0.140625 1.171875 -0.171875 2.609375q-0.03125 1.421875 -0.03125 2.859375q0 1.453125 0.03125 2.875q0.03125 1.421875 0.171875 2.609375q0.15625 1.171875 0.5 1.875q0.359375 0.71875 1.015625 0.734375l0 1.328125zm1.1064453 0l0 -1.34375q0.671875 -0.03125 1.015625 -0.75q0.359375 -0.703125 0.5 -1.875q0.15625 -1.1875 0.1875 -2.625q0.03125 -1.4375 0.03125 -2.875q0 -1.453125 -0.03125 -2.875q-0.03125 -1.4375 -0.1875 -2.59375q-0.140625 -1.171875 -0.5 -1.875q-0.34375 -0.71875 -1.015625 -0.734375l0 -1.3125q1.078125 0 1.75 0.53125q0.6875 0.53125 1.078125 1.46875q0.390625 0.921875 0.5625 2.125q0.1875 1.203125 0.21875 2.546875q0.046875 1.34375 0.046875 2.71875q0 1.390625 -0.046875 2.75q-0.03125 1.34375 -0.21875 2.5625q-0.171875 1.203125 -0.5625 2.125q-0.390625 0.9375 -1.078125 1.46875q-0.671875 0.53125 -1.75 0.5625z" fill-rule="nonzero"/><path fill="#000000" fill-opacity="0.0" d="m417.8819 116.16273l0 197.92126" fill-rule="evenodd"/><path stroke="#6d9eeb" stroke-width="2.0" stroke-linejoin="round" stroke-linecap="butt" stroke-dasharray="16.0,6.0,2.0,6.0" d="m417.8819 116.16273l0 185.92126" fill-rule="evenodd"/><path fill="#6d9eeb" stroke="#6d9eeb" stroke-width="2.0" stroke-linecap="butt" d="m414.57843 302.08398l3.3034668 9.076202l3.3034668 -9.076202z" fill-rule="evenodd"/><path fill="#000000" fill-opacity="0.0" d="m425.91602 169.49606l231.05511 0l0 39.055115l-231.05511 0z" fill-rule="evenodd"/><path fill="#6d9eeb" d="m434.91602 198.91606l0 -1.515625l6.421875 0l0 1.515625l-6.421875 0zm6.77713 -2.5l3.203125 -15.109375l2.03125 0l3.234375 15.109375l-2.0 0l-0.6875 -3.8125l-3.078125 0l-0.734375 3.8125l-1.96875 0zm2.984375 -5.3125l2.515625 0l-1.265625 -6.8125l-1.25 6.8125zm6.7569885 5.3125l0 -2.21875l1.984375 0l0 2.21875l-1.984375 0zm6.0855103 0.15625q-1.3125 0 -2.125 -0.828125q-0.796875 -0.84375 -0.90625 -2.203125l1.65625 -0.5q0.15625 1.03125 0.5 1.546875q0.359375 0.5 1.046875 0.5q0.546875 0 0.828125 -0.296875q0.28125 -0.3125 0.28125 -0.84375q0 -0.453125 -0.21875 -0.828125q-0.203125 -0.375 -0.65625 -0.765625l-1.859375 -1.59375q-0.546875 -0.484375 -0.9375 -1.078125q-0.375 -0.59375 -0.375 -1.546875q0 -0.859375 0.34375 -1.4375q0.34375 -0.59375 0.96875 -0.90625q0.625 -0.3125 1.453125 -0.3125q1.296875 0 1.96875 0.84375q0.6875 0.828125 0.78125 2.0l-1.34375 0.5q-0.078125 -0.5625 -0.234375 -0.984375q-0.140625 -0.421875 -0.40625 -0.640625q-0.25 -0.234375 -0.6875 -0.234375q-0.484375 0 -0.78125 0.328125q-0.28125 0.3125 -0.28125 0.765625q0 0.28125 0.125 0.5625q0.125 0.265625 0.421875 0.515625l1.90625 1.765625q0.390625 0.34375 0.734375 0.765625q0.34375 0.40625 0.5625 0.9375q0.234375 0.515625 0.234375 1.203125q0 0.90625 -0.375 1.53125q-0.375 0.609375 -1.046875 0.921875q-0.671875 0.3125 -1.578125 0.3125zm7.477417 0q-1.28125 0 -1.96875 -0.5q-0.6875 -0.5 -0.96875 -1.453125q-0.265625 -0.96875 -0.265625 -2.359375l0 -2.46875q0 -1.4375 0.28125 -2.390625q0.28125 -0.953125 0.984375 -1.4375q0.703125 -0.484375 1.9375 -0.484375q1.359375 0 2.0 0.5625q0.640625 0.5625 0.84375 1.625q0.203125 1.046875 0.203125 2.515625l0 0.875l-4.25 0l0 2.171875q0 0.65625 0.125 1.0625q0.125 0.40625 0.390625 0.609375q0.265625 0.1875 0.703125 0.1875q0.4375 0 0.671875 -0.203125q0.234375 -0.21875 0.3125 -0.625q0.09375 -0.40625 0.09375 -0.9375l0 -0.65625l1.9375 0l0 0.40625q0 1.625 -0.6875 2.5625q-0.6875 0.9375 -2.34375 0.9375zm-1.203125 -6.59375l2.296875 0l0 -0.96875q0 -0.671875 -0.078125 -1.125q-0.078125 -0.46875 -0.3125 -0.6875q-0.21875 -0.234375 -0.734375 -0.234375q-0.484375 0 -0.734375 0.21875q-0.25 0.21875 -0.34375 0.75q-0.09375 0.53125 -0.09375 1.46875l0 0.578125zm8.932404 6.59375q-0.828125 0 -1.34375 -0.3125q-0.515625 -0.328125 -0.75 -0.90625q-0.234375 -0.578125 -0.234375 -1.359375l0 -7.03125l-1.140625 0l0 -1.328125l1.140625 0l0 -3.15625l2.0 0l0 3.15625l1.734375 0l0 1.328125l-1.734375 0l0 6.890625q0 0.640625 0.203125 0.921875q0.203125 0.265625 0.78125 0.265625q0.15625 0 0.34375 -0.015625q0.203125 -0.03125 0.390625 -0.046875l0 1.46875q-0.375 0.0625 -0.703125 0.09375q-0.3125 0.03125 -0.6875 0.03125zm6.6054993 0.015625q-1.296875 0 -2.171875 -0.5625q-0.859375 -0.5625 -1.3125 -1.546875q-0.453125 -0.984375 -0.515625 -2.296875l1.859375 -0.5q0.0625 0.796875 0.25 1.546875q0.203125 0.75 0.640625 1.21875q0.453125 0.46875 1.25 0.46875q0.828125 0 1.25 -0.453125q0.421875 -0.453125 0.421875 -1.3125q0 -1.03125 -0.46875 -1.65625q-0.46875 -0.625 -1.1875 -1.25l-2.53125 -2.234375q-0.75 -0.65625 -1.109375 -1.421875q-0.34375 -0.78125 -0.34375 -1.921875q0 -1.65625 0.953125 -2.5625q0.953125 -0.921875 2.59375 -0.921875q0.890625 0 1.5625 0.234375q0.6875 0.21875 1.140625 0.703125q0.46875 0.484375 0.734375 1.234375q0.265625 0.734375 0.359375 1.71875l-1.78125 0.484375q-0.0625 -0.75 -0.234375 -1.375q-0.15625 -0.625 -0.578125 -1.0q-0.421875 -0.390625 -1.203125 -0.390625q-0.78125 0 -1.21875 0.421875q-0.4375 0.421875 -0.4375 1.25q0 0.6875 0.21875 1.140625q0.234375 0.4375 0.765625 0.90625l2.546875 2.234375q0.859375 0.75 1.515625 1.796875q0.65625 1.03125 0.65625 2.4375q0 1.125 -0.46875 1.9375q-0.46875 0.8125 -1.28125 1.25q-0.8125 0.421875 -1.875 0.421875zm7.965027 -0.015625q-0.828125 0 -1.34375 -0.3125q-0.515625 -0.328125 -0.75 -0.90625q-0.234375 -0.578125 -0.234375 -1.359375l0 -7.03125l-1.140625 0l0 -1.328125l1.140625 0l0 -3.15625l2.0 0l0 3.15625l1.734375 0l0 1.328125l-1.734375 0l0 6.890625q0 0.640625 0.203125 0.921875q0.203125 0.265625 0.78125 0.265625q0.15625 0 0.34375 -0.015625q0.203125 -0.03125 0.390625 -0.046875l0 1.46875q-0.375 0.0625 -0.703125 0.09375q-0.3125 0.03125 -0.6875 0.03125zm4.8242493 0q-0.640625 0 -1.125 -0.359375q-0.484375 -0.375 -0.765625 -0.9375q-0.28125 -0.578125 -0.28125 -1.203125q0 -1.015625 0.328125 -1.703125q0.34375 -0.6875 0.921875 -1.15625q0.59375 -0.484375 1.359375 -0.84375q0.78125 -0.359375 1.640625 -0.6875l0 -0.765625q0 -0.65625 -0.078125 -1.078125q-0.0625 -0.4375 -0.296875 -0.640625q-0.234375 -0.21875 -0.703125 -0.21875q-0.40625 0 -0.65625 0.1875q-0.25 0.1875 -0.375 0.53125q-0.109375 0.34375 -0.109375 0.8125l0 0.53125l-1.96875 -0.0625q0.03125 -1.796875 0.8125 -2.640625q0.78125 -0.859375 2.421875 -0.859375q1.609375 0 2.28125 0.890625q0.671875 0.875 0.671875 2.53125l0 4.921875q0 0.5 0.03125 0.96875q0.03125 0.46875 0.078125 0.875q0.046875 0.390625 0.078125 0.75l-1.828125 0q-0.0625 -0.296875 -0.140625 -0.75q-0.078125 -0.46875 -0.125 -0.828125q-0.1875 0.625 -0.71875 1.1875q-0.53125 0.546875 -1.453125 0.546875zm0.78125 -1.71875q0.296875 0 0.546875 -0.171875q0.265625 -0.171875 0.46875 -0.375q0.21875 -0.21875 0.28125 -0.359375l0 -3.046875q-0.453125 0.25 -0.875 0.515625q-0.40625 0.265625 -0.71875 0.5625q-0.296875 0.28125 -0.484375 0.640625q-0.171875 0.359375 -0.171875 0.828125q0 0.65625 0.234375 1.03125q0.25 0.375 0.71875 0.375zm7.9388733 1.71875q-0.828125 0 -1.34375 -0.3125q-0.515625 -0.328125 -0.75 -0.90625q-0.234375 -0.578125 -0.234375 -1.359375l0 -7.03125l-1.140625 0l0 -1.328125l1.140625 0l0 -3.15625l2.0 0l0 3.15625l1.734375 0l0 1.328125l-1.734375 0l0 6.890625q0 0.640625 0.203125 0.921875q0.203125 0.265625 0.78125 0.265625q0.15625 0 0.34375 -0.015625q0.203125 -0.03125 0.390625 -0.046875l0 1.46875q-0.375 0.0625 -0.703125 0.09375q-0.3125 0.03125 -0.6875 0.03125zm5.8711243 0q-1.28125 0 -1.96875 -0.5q-0.6875 -0.5 -0.96875 -1.453125q-0.265625 -0.96875 -0.265625 -2.359375l0 -2.46875q0 -1.4375 0.28125 -2.390625q0.28125 -0.953125 0.984375 -1.4375q0.703125 -0.484375 1.9375 -0.484375q1.359375 0 2.0 0.5625q0.640625 0.5625 0.84375 1.625q0.203125 1.046875 0.203125 2.515625l0 0.875l-4.25 0l0 2.171875q0 0.65625 0.125 1.0625q0.125 0.40625 0.390625 0.609375q0.265625 0.1875 0.703125 0.1875q0.4375 0 0.671875 -0.203125q0.234375 -0.21875 0.3125 -0.625q0.09375 -0.40625 0.09375 -0.9375l0 -0.65625l1.9375 0l0 0.40625q0 1.625 -0.6875 2.5625q-0.6875 0.9375 -2.34375 0.9375zm-1.203125 -6.59375l2.296875 0l0 -0.96875q0 -0.671875 -0.078125 -1.125q-0.078125 -0.46875 -0.3125 -0.6875q-0.21875 -0.234375 -0.734375 -0.234375q-0.484375 0 -0.734375 0.21875q-0.25 0.21875 -0.34375 0.75q-0.09375 0.53125 -0.09375 1.46875l0 0.578125zm10.057404 10.0625q-1.0625 -0.03125 -1.75 -0.5625q-0.671875 -0.53125 -1.0625 -1.46875q-0.390625 -0.921875 -0.578125 -2.109375q-0.171875 -1.203125 -0.21875 -2.5625q-0.03125 -1.359375 -0.03125 -2.71875q0 -1.390625 0.03125 -2.734375q0.046875 -1.359375 0.21875 -2.5625q0.1875 -1.203125 0.578125 -2.125q0.390625 -0.9375 1.0625 -1.46875q0.6875 -0.546875 1.75 -0.546875l0 1.328125q-0.65625 0.03125 -1.015625 0.75q-0.34375 0.71875 -0.5 1.890625q-0.140625 1.171875 -0.171875 2.609375q-0.03125 1.421875 -0.03125 2.859375q0 1.453125 0.03125 2.875q0.03125 1.421875 0.171875 2.609375q0.15625 1.171875 0.5 1.875q0.359375 0.71875 1.015625 0.734375l0 1.328125zm5.7314453 -0.0625q-1.171875 0 -1.84375 -0.125q-0.671875 -0.109375 -1.0 -0.5q-0.328125 -0.375 -0.421875 -1.125q-0.078125 -0.75 -0.078125 -2.0l0 -2.625q0 -1.03125 -0.09375 -1.515625q-0.078125 -0.5 -0.3125 -0.65625q-0.234375 -0.171875 -0.671875 -0.171875l0 -1.375q0.4375 0 0.671875 -0.15625q0.234375 -0.171875 0.3125 -0.671875q0.09375 -0.515625 0.09375 -1.515625l0 -2.625q0 -1.25 0.078125 -1.984375q0.09375 -0.75 0.421875 -1.125q0.328125 -0.390625 1.0 -0.5q0.671875 -0.125 1.84375 -0.125l0 1.46875q-0.46875 0 -0.734375 0.078125q-0.265625 0.0625 -0.375 0.296875q-0.109375 0.21875 -0.125 0.6875q-0.015625 0.453125 -0.015625 1.203125l0 2.921875q0 1.390625 -0.34375 2.0q-0.328125 0.59375 -0.890625 0.734375q0.5625 0.140625 0.890625 0.734375q0.34375 0.59375 0.34375 2.0l0 2.921875q0 0.78125 0.015625 1.234375q0.015625 0.46875 0.125 0.6875q0.109375 0.21875 0.375 0.28125q0.265625 0.078125 0.734375 0.078125l0 1.46875zm3.3781128 -3.40625q-0.640625 0 -1.125 -0.359375q-0.484375 -0.375 -0.765625 -0.9375q-0.28125 -0.578125 -0.28125 -1.203125q0 -1.015625 0.328125 -1.703125q0.34375 -0.6875 0.921875 -1.15625q0.59375 -0.484375 1.359375 -0.84375q0.78125 -0.359375 1.640625 -0.6875l0 -0.765625q0 -0.65625 -0.078125 -1.078125q-0.0625 -0.4375 -0.296875 -0.640625q-0.234375 -0.21875 -0.703125 -0.21875q-0.40625 0 -0.65625 0.1875q-0.25 0.1875 -0.375 0.53125q-0.109375 0.34375 -0.109375 0.8125l0 0.53125l-1.96875 -0.0625q0.03125 -1.796875 0.8125 -2.640625q0.78125 -0.859375 2.421875 -0.859375q1.609375 0 2.28125 0.890625q0.671875 0.875 0.671875 2.53125l0 4.921875q0 0.5 0.03125 0.96875q0.03125 0.46875 0.078125 0.875q0.046875 0.390625 0.078125 0.75l-1.828125 0q-0.0625 -0.296875 -0.140625 -0.75q-0.078125 -0.46875 -0.125 -0.828125q-0.1875 0.625 -0.71875 1.1875q-0.53125 0.546875 -1.453125 0.546875zm0.78125 -1.71875q0.296875 0 0.546875 -0.171875q0.265625 -0.171875 0.46875 -0.375q0.21875 -0.21875 0.28125 -0.359375l0 -3.046875q-0.453125 0.25 -0.875 0.515625q-0.40625 0.265625 -0.71875 0.5625q-0.296875 0.28125 -0.484375 0.640625q-0.171875 0.359375 -0.171875 0.828125q0 0.65625 0.234375 1.03125q0.25 0.375 0.71875 0.375zm5.338196 -6.1875l0 -2.125l2.015625 0l0 2.125l-2.015625 0zm0 5.953125l0 -2.125l2.015625 0l0 2.125l-2.015625 0zm8.463196 1.796875l0 -9.3125l-1.28125 0l0 -1.46875l1.28125 0l0 -0.5625q0 -1.0 0.15625 -1.71875q0.15625 -0.71875 0.65625 -1.109375q0.515625 -0.40625 1.515625 -0.40625q0.375 0 0.65625 0.03125q0.296875 0.03125 0.65625 0.109375l0 1.453125q-0.171875 -0.03125 -0.375 -0.0625q-0.203125 -0.03125 -0.375 -0.03125q-0.578125 0 -0.734375 0.390625q-0.15625 0.375 -0.15625 1.015625l0 0.890625l1.640625 0l0 1.46875l-1.640625 0l0 9.3125l-2.0 0zm6.666809 0.15625q-0.640625 0 -1.125 -0.359375q-0.484375 -0.375 -0.765625 -0.9375q-0.28125 -0.578125 -0.28125 -1.203125q0 -1.015625 0.328125 -1.703125q0.34375 -0.6875 0.921875 -1.15625q0.59375 -0.484375 1.359375 -0.84375q0.78125 -0.359375 1.640625 -0.6875l0 -0.765625q0 -0.65625 -0.078125 -1.078125q-0.0625 -0.4375 -0.296875 -0.640625q-0.234375 -0.21875 -0.703125 -0.21875q-0.40625 0 -0.65625 0.1875q-0.25 0.1875 -0.375 0.53125q-0.109375 0.34375 -0.109375 0.8125l0 0.53125l-1.96875 -0.0625q0.03125 -1.796875 0.8125 -2.640625q0.78125 -0.859375 2.421875 -0.859375q1.609375 0 2.28125 0.890625q0.671875 0.875 0.671875 2.53125l0 4.921875q0 0.5 0.03125 0.96875q0.03125 0.46875 0.078125 0.875q0.046875 0.390625 0.078125 0.75l-1.828125 0q-0.0625 -0.296875 -0.140625 -0.75q-0.078125 -0.46875 -0.125 -0.828125q-0.1875 0.625 -0.71875 1.1875q-0.53125 0.546875 -1.453125 0.546875zm0.78125 -1.71875q0.296875 0 0.546875 -0.171875q0.265625 -0.171875 0.46875 -0.375q0.21875 -0.21875 0.28125 -0.359375l0 -3.046875q-0.453125 0.25 -0.875 0.515625q-0.40625 0.265625 -0.71875 0.5625q-0.296875 0.28125 -0.484375 0.640625q-0.171875 0.359375 -0.171875 0.828125q0 0.65625 0.234375 1.03125q0.25 0.375 0.71875 0.375zm5.400696 1.5625l0 -15.109375l2.0 0l0 15.109375l-2.0 0zm6.584778 0.15625q-1.3125 0 -2.125 -0.828125q-0.796875 -0.84375 -0.90625 -2.203125l1.65625 -0.5q0.15625 1.03125 0.5 1.546875q0.359375 0.5 1.046875 0.5q0.546875 0 0.828125 -0.296875q0.28125 -0.3125 0.28125 -0.84375q0 -0.453125 -0.21875 -0.828125q-0.203125 -0.375 -0.65625 -0.765625l-1.859375 -1.59375q-0.546875 -0.484375 -0.9375 -1.078125q-0.375 -0.59375 -0.375 -1.546875q0 -0.859375 0.34375 -1.4375q0.34375 -0.59375 0.96875 -0.90625q0.625 -0.3125 1.453125 -0.3125q1.296875 0 1.96875 0.84375q0.6875 0.828125 0.78125 2.0l-1.34375 0.5q-0.078125 -0.5625 -0.234375 -0.984375q-0.140625 -0.421875 -0.40625 -0.640625q-0.25 -0.234375 -0.6875 -0.234375q-0.484375 0 -0.78125 0.328125q-0.28125 0.3125 -0.28125 0.765625q0 0.28125 0.125 0.5625q0.125 0.265625 0.421875 0.515625l1.90625 1.765625q0.390625 0.34375 0.734375 0.765625q0.34375 0.40625 0.5625 0.9375q0.234375 0.515625 0.234375 1.203125q0 0.90625 -0.375 1.53125q-0.375 0.609375 -1.046875 0.921875q-0.671875 0.3125 -1.578125 0.3125zm7.477478 0q-1.28125 0 -1.96875 -0.5q-0.6875 -0.5 -0.96875 -1.453125q-0.265625 -0.96875 -0.265625 -2.359375l0 -2.46875q0 -1.4375 0.28125 -2.390625q0.28125 -0.953125 0.984375 -1.4375q0.703125 -0.484375 1.9375 -0.484375q1.359375 0 2.0 0.5625q0.640625 0.5625 0.84375 1.625q0.203125 1.046875 0.203125 2.515625l0 0.875l-4.25 0l0 2.171875q0 0.65625 0.125 1.0625q0.125 0.40625 0.390625 0.609375q0.265625 0.1875 0.703125 0.1875q0.4375 0 0.671875 -0.203125q0.234375 -0.21875 0.3125 -0.625q0.09375 -0.40625 0.09375 -0.9375l0 -0.65625l1.9375 0l0 0.40625q0 1.625 -0.6875 2.5625q-0.6875 0.9375 -2.34375 0.9375zm-1.203125 -6.59375l2.296875 0l0 -0.96875q0 -0.671875 -0.078125 -1.125q-0.078125 -0.46875 -0.3125 -0.6875q-0.21875 -0.234375 -0.734375 -0.234375q-0.484375 0 -0.734375 0.21875q-0.25 0.21875 -0.34375 0.75q-0.09375 0.53125 -0.09375 1.46875l0 0.578125zm5.885498 10.0l0 -1.46875q0.453125 0 0.71875 -0.078125q0.265625 -0.0625 0.375 -0.28125q0.109375 -0.21875 0.125 -0.6875q0.03125 -0.453125 0.03125 -1.234375l0 -2.921875q0 -1.40625 0.328125 -2.0q0.34375 -0.59375 0.921875 -0.734375q-0.578125 -0.140625 -0.921875 -0.734375q-0.328125 -0.609375 -0.328125 -2.0l0 -2.921875q0 -0.75 -0.03125 -1.203125q-0.015625 -0.46875 -0.125 -0.6875q-0.109375 -0.234375 -0.375 -0.296875q-0.265625 -0.078125 -0.71875 -0.078125l0 -1.46875q1.171875 0 1.84375 0.125q0.671875 0.109375 1.0 0.5q0.328125 0.375 0.40625 1.125q0.078125 0.734375 0.078125 1.984375l0 2.625q0 1.0 0.078125 1.515625q0.09375 0.5 0.328125 0.671875q0.234375 0.15625 0.6875 0.15625l0 1.375q-0.453125 0 -0.6875 0.171875q-0.234375 0.15625 -0.328125 0.65625q-0.078125 0.484375 -0.078125 1.515625l0 2.625q0 1.25 -0.078125 2.0q-0.078125 0.75 -0.40625 1.125q-0.328125 0.390625 -1.0 0.5q-0.671875 0.125 -1.84375 0.125zm5.7073975 0.0625l0 -1.34375q0.671875 -0.03125 1.015625 -0.75q0.359375 -0.703125 0.5 -1.875q0.15625 -1.1875 0.1875 -2.625q0.03125 -1.4375 0.03125 -2.875q0 -1.453125 -0.03125 -2.875q-0.03125 -1.4375 -0.1875 -2.59375q-0.140625 -1.171875 -0.5 -1.875q-0.34375 -0.71875 -1.015625 -0.734375l0 -1.3125q1.078125 0 1.75 0.53125q0.6875 0.53125 1.078125 1.46875q0.390625 0.921875 0.5625 2.125q0.1875 1.203125 0.21875 2.546875q0.046875 1.34375 0.046875 2.71875q0 1.390625 -0.046875 2.75q-0.03125 1.34375 -0.21875 2.5625q-0.171875 1.203125 -0.5625 2.125q-0.390625 0.9375 -1.078125 1.46875q-0.671875 0.53125 -1.75 0.5625zm5.725647 -2.765625l-0.34375 -0.875q0.578125 -0.046875 0.828125 -0.359375q0.265625 -0.328125 0.265625 -0.890625l-1.078125 0l0 -2.125l2.078125 0l0 2.078125q0 1.0 -0.390625 1.5625q-0.390625 0.578125 -1.359375 0.609375zm-0.328125 -9.1875l0 -2.21875l2.015625 0l0 2.21875l-2.015625 0z" fill-rule="nonzero"/><path fill="#000000" fill-opacity="0.0" d="m199.50656 346.27298l137.6063 0" fill-rule="evenodd"/><path stroke="#ffffff" stroke-width="2.0" stroke-linejoin="round" stroke-linecap="butt" stroke-dasharray="8.0,6.0" d="m199.50656 346.27298l125.60629 0" fill-rule="evenodd"/><path fill="#ffffff" stroke="#ffffff" stroke-width="2.0" stroke-linecap="butt" d="m325.11285 349.57642l9.076202 -3.3034363l-9.076202 -3.3034668z" fill-rule="evenodd"/></g></svg>