<svg id="administration" viewBox="0 0 16 16" xmlns="http://www.w3.org/2000/svg"><path d="m15.25 3.42193a1.301 1.301 0 0 0 -1.18017-1.29773 10.36107 10.36107 0 0 1 -5.22666-1.82092 1.3 1.3 0 0 0 -1.66917 0 10.57112 10.57112 0 0 1 -5.24367 1.82092 1.301 1.301 0 0 0 -1.18033 1.29773c0 9.44193 6.4575 12.3589 6.72733 12.47691a1.40084 1.40084 0 0 0 1.04534 0c.26983-.11818 6.72733-3.03498 6.72733-12.47691zm-4.721 9.45877a8.468 8.468 0 0 1 -2.54567 1.87158 8.99658 8.99658 0 0 1 -2.52933-1.87158l.16867-1.4667a1.602 1.602 0 0 1 1.58483-1.41677h1.568a1.58968 1.58968 0 0 1 1.58483 1.41677zm-1.06233-5.86744a1.46667 1.46667 0 1 1 -1.46667-1.46673 1.46787 1.46787 0 0 1 1.46667 1.46673zm4.51883-3.5745a13.6327 13.6327 0 0 1 -2.32667 8.093l-.03333-.26976a2.87979 2.87979 0 0 0 -1.72033-2.293 2.73142 2.73142 0 1 0 -3.8105 0 2.8551 2.8551 0 0 0 -1.71967 2.29312l-.03333.26985a13.76732 13.76732 0 0 1 -2.2765-8.12688 12.34448 12.34448 0 0 0 5.96816-2.10759 11.63226 11.63226 0 0 0 5.918 2.10759z"/></svg>