<svg id="construction" viewBox="0 0 16 16" xmlns="http://www.w3.org/2000/svg"><path id="e58223fd-5b7f-4514-b317-95824a322ab2" data-name="Construction" d="M16,9.06668c0-.14667-.12-.26667-.26667-.4H12.26666V7.952a.79533.79533,0,0,0,0-1.50133V5.33335H15.2c.14666,0,.26666-.12.13333-.26666V2.93336c.13333-.00534.128-.03734.12533-.05A.15258.15258,0,0,0,15.448,2.846a.37393.37393,0,0,0-.01667-.03466A.15124.15124,0,0,0,15.41,2.77669a.26561.26561,0,0,0-.02667-.02933.13979.13979,0,0,0-.02933-.02667.15111.15111,0,0,0-.03467-.02133.12956.12956,0,0,0-.03467-.01667.27312.27312,0,0,0-.03733-.01067c-.01067,0-.04267-.00533-.048-.00533H13.104L3.53867.01069A.20875.20875,0,0,0,3.46934,0H3.46667L3.45334.00269a.20325.20325,0,0,0-.056.008l-.024.008A.21274.21274,0,0,0,3.33067.04L3.30934.05336,3.296.06136.096,2.728c-.00266.00267-.032.03734-.04266.05334a.34635.34635,0,0,0-.02667.04.62357.62357,0,0,0-.024.10133L0,2.93336V5.06669L.00268,5.08A.206.206,0,0,0,.008,5.12a.153.153,0,0,0,.01067.03733.029.029,0,0,0,.00267.01334A.09344.09344,0,0,0,.03468,5.192.15167.15167,0,0,0,.056,5.22669.26652.26652,0,0,0,.08268,5.256.13975.13975,0,0,0,.112,5.28268.15114.15114,0,0,0,.14668,5.304c.008.00267.01333.01066.02133.01333L.17868,5.32a.30449.30449,0,0,0,.088.01333h1.9v10.4c-.03334.00534-.03067.008-.03067.01334a.206.206,0,0,0,.00533.04A.1531.1531,0,0,0,2.152,15.824a.02.02,0,0,1,.00267.01333c0,.00534.008.01334.01333.02134a.15139.15139,0,0,0,.02133.03466.26571.26571,0,0,0,.02667.02934.14.14,0,0,0,.02933.02666.15114.15114,0,0,0,.03467.02134c.008.00266.01333.01066.02133.01333l.01067.00267A.30449.30449,0,0,0,2.4,16H4.53334a.325.325,0,0,0,.3-.26667V9.6h1.3A.49383.49383,0,0,0,6.5,9.33334v-4h5.23333V6.448a.79533.79533,0,0,0,0,1.50133v.71733H8.26667C8.12,8.8,8,8.92,8,9.06668v1.06666c0,.14667.12.26667.26667.2h7.46665C15.88,10.4,16,10.28,16,10.13334ZM6.4,4.8H5.176L6.4,3.576Zm-2.13333,0h-1.224l1.224-1.224Zm6.84266-2.13333H4.71467l-.8-1.99733ZM2.66668,4.424V3.2h1.224Zm1.472-1.75733h-1.344l.672-1.68333ZM4.8,4.424V3.2H6.024ZM2.82668,1.14669l-.608,1.52H1.002ZM.53335,4.424V3.2h1.224Zm6.4,0V3.2h1.224Zm2.13333,0V3.2h1.224Zm2.13333,0V3.2h1.224Zm3.73332-.848V4.8h-1.224Zm-.376-.376-1.224,1.224V3.2ZM.90935,4.8l1.224-1.224V4.8Zm3.35732,7.30932v1.224h-1.224Zm-.376-.376-1.224,1.224v-1.224Zm-1.224,3.35733v-1.224h1.224Zm1.6-5.11466V11.2h-1.224Zm-.376-.376-1.224,1.224V9.6Zm.376,4.64266v1.224h-1.224Zm1.6-5.176L4.53334,9H2.66668V5.33335h.66666V8.26668C3.2,8.30135,3.208,8.336,3.22134,8.368a.27165.27165,0,0,0,.144.144A.08332.08332,0,0,0,3.46667,8.5h2.4ZM6,5.33335V8H5.176l.344-.344a.26667.26667,0,0,0-.376-.376L4.424,8H4.112l.87733-.87733a.26667.26667,0,0,0-.376-.376l-.78.87733V5.33335ZM7.30933,4.8l1.224-1.224V4.8Zm2.13333,0,1.224-1.224V4.8Zm2.13333,0L12.8,3.576V4.8Zm.15734,2.4A.26667.26667,0,1,1,12,7.46668h0A.26666.26666,0,0,1,11.73333,7.2Zm3.73332,2.13332v.5H8.53333v-.5Z"/></svg>