<svg id="documentManagement" viewBox="0 0 16 16" xmlns="http://www.w3.org/2000/svg"><path d="m3 12.5a.5.5 0 1 1 -.5-.5.50057.50057 0 0 1 .5.5zm2-11.49988v13.9997a1.03916 1.03916 0 0 1 -1.07135 1h-2.8573a1.03916 1.03916 0 0 1 -1.07135-1v-13.9997a1.03906 1.03906 0 0 1 1.07135-.99994h2.8573a1.03906 1.03906 0 0 1 1.07135.99994zm-1 11.49988a1.5 1.5 0 1 0 -1.5 1.5 1.5 1.5 0 0 0 1.5-1.5zm0-7.5h-3v1h3zm0-2h-3v1h3zm0-2h-3v1h3zm4 11a.5.5 0 1 0 .5.5.50057.50057 0 0 0 -.5-.5zm2.5-10.99988v13.9997a1.03916 1.03916 0 0 1 -1.07135 1h-2.8573a1.03916 1.03916 0 0 1 -1.07135-1v-13.9997a1.03906 1.03906 0 0 1 1.07135-.99994h2.8573a1.03906 1.03906 0 0 1 1.07135.99994zm-1 11.49988a1.5 1.5 0 1 0 -1.5 1.5 1.5 1.5 0 0 0 1.5-1.5zm0-7.5h-3v1h3zm0-2h-3v1h3zm0-2h-3v1h3zm4 11a.5.5 0 1 0 .5.5.50057.50057 0 0 0 -.5-.5zm2.5-10.99988v13.9997a1.03915 1.03915 0 0 1 -1.07135 1h-2.8573a1.03915 1.03915 0 0 1 -1.07135-1v-13.9997a1.03907 1.03907 0 0 1 1.07135-.99994h2.8573a1.03907 1.03907 0 0 1 1.07135.99994zm-1 11.49988a1.5 1.5 0 1 0 -1.5 1.5 1.5 1.5 0 0 0 1.5-1.5zm0-7.5h-3v1h3zm0-2h-3v1h3zm0-2h-3v1h3z"/></svg>