<svg id="events" viewBox="0 0 16 16" xmlns="http://www.w3.org/2000/svg"><path d="m12.48721 12.08047h-7.88207v.83469a1.85619 1.85619 0 0 1 -3.67861-.31834 1.81386 1.81386 0 0 1 .79886-1.5l-.53219-.74736a2.72144 2.72144 0 0 0 -1.1932 2.24736 2.75791 2.75791 0 0 0 2.77908 2.73575 2.76841 2.76841 0 0 0 2.74209-2.27807h6.92854a.92207.92207 0 1 0 .80158-1.36987h-.00006a.92986.92986 0 0 0 -.76385.39584zm-10.55815.11853a.92524.92524 0 0 1 .84319-.58019l3.43494-6.0352a2.80358 2.80358 0 0 1 -.62435-3.52844 2.71675 2.71675 0 0 1 3.69867-1.03985l.04044.02315a2.77524 2.77524 0 0 1 1.35737 2.16353l-.90886.0805a1.85008 1.85008 0 0 0 -.90569-1.44271 1.81122 1.81122 0 0 0 -2.47714.65179l-.0151.0264a1.8667 1.8667 0 0 0 .614 2.4974l.502.29385-3.89075 6.83441a.9365.9365 0 0 1 .01666.76269.91147.91147 0 0 1 -1.76972-.32018.93453.93453 0 0 1 .08434-.38715zm6.10518-7.8651 3.85229 6.76688.45834-.26885.00784.01384.01166-.00733a1.80239 1.80239 0 0 1 2.46845.63559l.016.02759a1.85639 1.85639 0 0 1 -.677 2.51408 1.80472 1.80472 0 0 1 -1.68821.078l-.38868.834a2.70962 2.70962 0 0 0 2.52891-.11884 2.78509 2.78509 0 0 0 1.01669-3.77012 2.70257 2.70257 0 0 0 -3.33726-1.18336l-3.41883-6.00449a.92556.92556 0 0 0 -.00717-.89889.90186.90186 0 0 0 -1.22969-.33848l-.01318.00764a.929.929 0 0 0 -.33851 1.2567.901.901 0 0 0 .73835.45568z" fill-rule="evenodd"/></svg>