<svg id="internal" viewBox="0 0 16 16" xmlns="http://www.w3.org/2000/svg"><path d="m7.984 1.6787a1.4412 1.4412 0 1 1 -1.4412 1.4412 1.4412 1.4412 0 0 1 1.4412-1.4412zm-3.4461 1.4406a1.4412 1.4412 0 1 1 -1.4412 1.4412 1.4412 1.4412 0 0 1 1.4412-1.4412zm-1.418 3.4555a1.4412 1.4412 0 1 1 -1.4412 1.4412 1.4412 1.4412 0 0 1 1.4412-1.4412zm1.4406 3.4461a1.4412 1.4412 0 1 1 -1.4412 1.4412 1.4412 1.4412 0 0 1 1.4412-1.4412zm3.4555 1.418a1.4412 1.4412 0 1 1 -1.4412 1.4412 1.4412 1.4412 0 0 1 1.4412-1.4412zm3.4461-1.4406a1.4412 1.4412 0 1 1 -1.4412 1.4412 1.4412 1.4412 0 0 1 1.4412-1.4412zm1.418-3.4555a1.4412 1.4412 0 1 1 -1.4412 1.4412 1.4412 1.4412 0 0 1 1.4412-1.4412zm-1.4406-3.4461a1.4412 1.4412 0 1 1 -1.4412 1.4412 1.4412 1.4412 0 0 1 1.4412-1.4412zm-3.4395-3.0967a8 8 0 1 0 8 8 8 8 0 0 0 -8-8zm0 14.763a6.763 6.763 0 1 1 6.763-6.763 6.77038 6.77038 0 0 1 -6.763 6.763zm0-9.7876a3.0246 3.0246 0 1 0 3.0246 3.0246 3.02459 3.02459 0 0 0 -3.0246-3.0246zm0 5.0956a2.071 2.071 0 1 1 2.071-2.071 2.071 2.071 0 0 1 -2.071 2.071z"/></svg>