<svg id="performanceAndOperations" viewBox="0 0 16 16" xmlns="http://www.w3.org/2000/svg"><path d="m10.74929 5.95161-3.6 2.23333a1.71914 1.71914 0 0 0 -.8 1.45 1.6785 1.6785 0 0 0 1.69015 1.66676l.00984-.0001a1.66664 1.66664 0 0 0 1.43333-.83333l2.16666-3.65a.64217.64217 0 0 0 -.9-.86667zm-2.74929-4.34331a8.00874 8.00874 0 0 0 -6.63564 12.48.6763.6763 0 0 0 .55583.30333.655.655 0 0 0 .3875-.11783.69783.69783 0 0 0 .1855-.94333 6.50425 6.50425 0 0 1 -1.0775-3.03149h1.07764a.67383.67383 0 0 0 -.00033-1.34771h-1.09434a6.64521 6.64521 0 0 1 1.44866-3.50315l.775.775a.67419.67419 0 0 0 .488.20184.70087.70087 0 0 0 .48816-.202.67034.67034 0 0 0 .01192-.94796l-.01192-.01191-.792-.80917a6.80465 6.80465 0 0 1 3.50316-1.46492v1.09462a.67367.67367 0 1 0 1.34733.001v-1.09462a6.669 6.669 0 0 1 5.94431 5.9446h-1.09466a.67367.67367 0 0 0 .00033 1.34733h1.0775a6.70636 6.70636 0 0 1 -1.07783 3.03149.66433.66433 0 0 0 .15949.92587l.026.01746a.66434.66434 0 0 0 .92587-.15949l.01746-.026a7.99552 7.99552 0 0 0 -6.63544-12.46296z"/></svg>