<svg id="realityModeling" viewBox="0 0 16 16" xmlns="http://www.w3.org/2000/svg"><path d="m13.96667 5.08472h-.43334v-1.22766h-.06666a.63983.63983 0 0 1 -.66616-.61238l-.00051-.01829v-1.39383h-.53333v1.42733a.66152.66152 0 0 1 -.66667.63067v1.22766h-7.16667v-1.22766c-.03333 0-.73333.03333-.73333-.63067v-1.42733h-.53333v1.42733a.66152.66152 0 0 1 -.66667.63067v1.22766h-.46667a.92983.92983 0 0 0 -.93333.92633v.00317a.92984.92984 0 0 0 .93016.92951h2.13651l-1.8 6.6705a.39.39 0 0 0 .73333.26583l1.86667-6.96967.8 1.85833h1.26666v.76367h-1.36666a.66667.66667 0 0 0 -.66667.66383v2.2895a.66667.66667 0 0 0 .66667.66334h4.66666a.66667.66667 0 0 0 .66667-.66384v-2.28966a.66667.66667 0 0 0 -.66667-.66317h-1.36666v-.76367h1.26666l.8-1.85833 1.86667 6.969a.39.39 0 0 0 .73333-.26583l-1.8-6.73767h2.13334a.92983.92983 0 0 0 .93333-.92633v-.00317a.94717.94717 0 0 0 -.93333-.89517zm-4.8 6.306a1.16668 1.16668 0 1 1 -1.16667-1.16166 1.17834 1.17834 0 0 1 1.16667 1.16166zm-1.16667-.7685a.75451.75451 0 0 0 -.76667.74214q-.00019.01225 0 .02453a.75451.75451 0 0 0 .74214.76667q.01226.00019.02453 0a.76667.76667 0 0 0 0-1.53334zm6.43333-7.623a3.50313 3.50313 0 0 0 1.56667-.4 3.50326 3.50326 0 0 0 -1.56667-.4c-.86666 0-1.33333.16667-1.33333.399s.46667.401 1.33333.401zm-2.46666-.4c0-.23333-.43334-.4-1.3-.4a3.50326 3.50326 0 0 0 -1.56667.4 3.50313 3.50313 0 0 0 1.56667.4c.86666 0 1.3-.16666 1.3-.4zm-6.63334.4a3.50313 3.50313 0 0 0 1.56667-.4 3.48922 3.48922 0 0 0 -1.56667-.4c-.86666 0-1.3.16667-1.3.4s.43334.4 1.3.4zm-2.43333-.4c0-.23333-.43333-.4-1.3-.4a3.73566 3.73566 0 0 0 -1.6.4 3.50313 3.50313 0 0 0 1.56667.4c.86666 0 1.33333-.16666 1.33333-.4z"/></svg>