<svg id="reportingAndInsights" viewBox="0 0 16 16" xmlns="http://www.w3.org/2000/svg"><path d="m6.86583.00383a7.17981 7.17981 0 0 0 -6.86583 6.86584h6.86667zm-6.23183 8.6005a7.59858 7.59858 0 0 0 1.20667 3.86467l5.55666-3.86467zm2.418 5.31484a7.6065 7.6065 0 0 0 4.97433 2.077v-7.12884l-5.85483 4.07284a7.79632 7.79632 0 0 0 .8805.97883zm2.67683-2.15467h1.43634a.28717.28717 0 0 1 .28733.287v.00033a.28718.28718 0 0 1 -.287.28734h-1.43667a.28717.28717 0 0 1 -.28733-.287v-.00034a.28717.28717 0 0 1 .287-.28733zm-.5745 1.14917h2.01034a.28716.28716 0 0 1 .28733.287v.00033a.28716.28716 0 0 1 -.287.28733h-2.0115a.28716.28716 0 0 1 -.28733-.287v-.00033a.28715.28715 0 0 1 .28683-.2875h.0005zm0 1.14916h2.01034a.28717.28717 0 0 1 .28733.287v.00034a.28717.28717 0 0 1 -.287.28733h-2.0115a.28716.28716 0 0 1 -.28733-.287v-.00033a.28715.28715 0 0 1 .28683-.2875h.0005zm8.76134-11.00766a7.607 7.607 0 0 0 -5.31467-2.41784v15.35884c.0675-.00217.13567-.00567.20333-.01a7.6846 7.6846 0 0 0 5.1115-12.931zm-4.45217-.48334h2.58467a.28717.28717 0 0 1 .28733.287v.00034a.28717.28717 0 0 1 -.287.28733h-2.585a.28716.28716 0 0 1 -.28733-.287v-.00033a.28717.28717 0 0 1 .287-.28734zm3.44667 2.87234h-3.44667a.28717.28717 0 0 1 -.28733-.287v-.00034a.28716.28716 0 0 1 .28716-.28716h3.44684a.28725.28725 0 0 1 0 .5745zm0-1.14917h-3.44667a.28716.28716 0 0 1 -.28733-.287v-.00033a.28717.28717 0 0 1 .28716-.28717h3.44684a.28734.28734 0 0 1 0 .57467z"/></svg>