<svg id="b0d148e9-b99d-48d0-a6c2-c76b07de762b" data-name="Layer 1" xmlns="http://www.w3.org/2000/svg" viewBox="0 0 32 32"><path d="M18,13.5a.49932.49932,0,0,1-.35352-.14648l-1.5-1.5a.5.5,0,0,1,.707-.707l1.083,1.08252,2.15625-3.01953a.50024.50024,0,0,1,.81446.58106l-2.5,3.5a.50263.50263,0,0,1-.36621.208Q18.0205,13.5,18,13.5Zm.041,5.998a.50153.50153,0,0,0,.36621-.207l2.5-3.50049a.50024.50024,0,0,0-.81446-.58106l-2.15625,3.02-1.083-1.083a.5.5,0,0,0-.707.707l1.5,1.5A.50134.50134,0,0,0,18,19.5C18.01367,19.5,18.02734,19.499,18.041,19.49805ZM24,15.25745V7.462a.53961.53961,0,0,0-.539-.539H20V7a1.003,1.003,0,0,1-1,1H11a1.003,1.003,0,0,1-1-1V6.923H6.539A.53961.53961,0,0,0,6,7.462V29.461A.5396.5396,0,0,0,6.539,30H23.461A.5396.5396,0,0,0,24,29.461V23.74261L26,21.743v7.718A2.539,2.539,0,0,1,23.461,32H6.539A2.539,2.539,0,0,1,4,29.461V7.462A2.539,2.539,0,0,1,6.539,4.923h3.4906A2.22912,2.22912,0,0,1,12,3.01V3a3,3,0,0,1,6,0v.01a2.22912,2.22912,0,0,1,1.9704,1.913H23.461A2.539,2.539,0,0,1,26,7.462v5.79528ZM14,3a1,1,0,1,0,1-1A1.003,1.003,0,0,0,14,3ZM30.01044,13.48956h-.00006a2,2,0,0,0-2.82837,0l-8.35273,8.35273-.611,2.66894-1.36474-1.36475a.5.5,0,0,0-.707.707l1.5,1.5a.4971.4971,0,0,0,.34583.145l-.00275.01191,3.66815-.83966L30.01044,16.318A2.00009,2.00009,0,0,0,30.01044,13.48956ZM15,12.5a.49971.49971,0,0,0-.5-.5h-6a.5.5,0,0,0,0,1h6A.49971.49971,0,0,0,15,12.5Zm0,6a.49971.49971,0,0,0-.5-.5h-6a.5.5,0,0,0,0,1h6A.49971.49971,0,0,0,15,18.5Zm0,6a.49971.49971,0,0,0-.5-.5h-6a.5.5,0,0,0,0,1h6A.49971.49971,0,0,0,15,24.5Z"/></svg>