<svg id="e4265073-be8f-4246-a8d0-7d63dafa63c7" data-name="Layer 1" xmlns="http://www.w3.org/2000/svg" viewBox="0 0 32 32"><path d="M14,2.5v2a10.01146,10.01146,0,0,0-10,10H6l-3,4-3-4H2A12.01343,12.01343,0,0,1,14,2.5Zm15,11-3,4h2a10.01177,10.01177,0,0,1-10,10v2a12.01312,12.01312,0,0,0,12-12h2Zm-4,2a9,9,0,1,1-9-9A9,9,0,0,1,25,15.5Zm-2.02283.45117h-1.991a12.16716,12.16716,0,0,1-.46729,3.00867l1.56165-.00549A6.94357,6.94357,0,0,0,22.97717,15.95117ZM19.03314,11A4.16735,4.16735,0,0,0,16.5,8.5639V11ZM16.5,12v2.95117h3.48352A10.80858,10.80858,0,0,0,19.44037,12Zm-3.53314-1H15.5V8.5639A4.16735,4.16735,0,0,0,12.96686,11Zm-.40723,1a10.80858,10.80858,0,0,0-.54315,2.95117H15.5V12ZM11.4931,12h-1.546a6.941,6.941,0,0,0-.91937,2.95117h1.989A12.09614,12.09614,0,0,1,11.4931,12ZM9.02283,15.95117a6.94173,6.94173,0,0,0,.9223,3.04553l1.54535-.00537a12.14453,12.14453,0,0,1-.47669-3.04016Zm3.53253,3.03644L15.5,18.97729V15.95117H12.01355A10.85039,10.85039,0,0,0,12.55536,18.98761Zm.40436.9986A4.17678,4.17678,0,0,0,15.5,22.4361V19.97736Zm6.09161-.02124L16.5,19.97388V22.4361A4.191,4.191,0,0,0,19.05133,19.965Zm.40179-1.00141a10.86217,10.86217,0,0,0,.53333-3.01239H16.5v3.02265Zm3.51911-4.01239A6.941,6.941,0,0,0,22.05286,12h-1.546a12.09614,12.09614,0,0,1,.47632,2.95117ZM19.16345,9.26392A7.666,7.666,0,0,1,20.1582,11h1.19593A7.03886,7.03886,0,0,0,19.16345,9.26392ZM10.64587,11H11.8418a7.666,7.666,0,0,1,.99475-1.73608A7.03886,7.03886,0,0,0,10.64587,11ZM12.8363,21.736a7.67946,7.67946,0,0,1-.99829-1.74585l-1.19739.00415A7.03847,7.03847,0,0,0,12.8363,21.736Zm8.55713-1.77917-1.22052.00427A7.70351,7.70351,0,0,1,19.1637,21.736,7.04049,7.04049,0,0,0,21.39343,19.95679Z"/></svg>