<svg id="visualization" viewBox="0 0 16 16" xmlns="http://www.w3.org/2000/svg"><path d="m14.64683 12.4297v-1.34732a.47316.47316 0 0 0 -.40566-.47166l-5.76767-.74066v-1.12832a6.93754 6.93754 0 0 0 3.95733-2.29081.46048.46048 0 0 0 0-.60649c-.08466-.101-1.996-2.32431-4.43083-2.32431s-4.34667 2.22331-4.43133 2.324a.46048.46048 0 0 0 0 .60649 7.01 7.01 0 0 0 3.95733 2.29079v1.12832l-5.76767.74083a.47266.47266 0 0 0 -.40566.47166v1.34732a1.81521 1.81521 0 0 0 .47383 3.57046 1.83716 1.83716 0 0 0 1.82667-1.81915 1.8095 1.8095 0 0 0 -1.35317-1.75115v-.943l5.22583-.67366v1.61666a1.81507 1.81507 0 0 0 .47417 3.5703 1.83716 1.83716 0 0 0 1.8265-1.81915 1.80949 1.80949 0 0 0 -1.353-1.75115v-1.61665l5.2265.67366v.94349a1.81478 1.81478 0 0 0 .473 3.5698 1.83716 1.83716 0 0 0 1.827-1.81915 1.81015 1.81015 0 0 0 -1.35333-1.75115zm-11.941 1.75115a.89651.89651 0 1 1 -.8965-.89282.9.9 0 0 1 .8965.89282zm4.80367-9.5999a.5435.5435 0 0 1 .5405.53916.55533.55533 0 0 1 -.541.53883.539.539 0 1 1 .0005-1.078zm-1.15.28617a1.75245 1.75245 0 0 0 -.0845.50532 1.725 1.725 0 0 0 3.45 0 1.75245 1.75245 0 0 0 -.0845-.50532 7.47056 7.47056 0 0 1 1.79283 1.28032 5.42374 5.42374 0 0 1 -3.43333 1.68415 5.42242 5.42242 0 0 1 -3.43333-1.68415 6.64432 6.64432 0 0 1 1.79266-1.28032zm2.53683 9.31373a.89642.89642 0 1 1 -.89633-.89266.9.9 0 0 1 .89633.89266zm5.27667.87566a.89283.89283 0 1 1 .8965-.89282.8895.8895 0 0 1 -.88613.89284zm-6.17333-12.7157a.47183.47183 0 0 0 .47366-.47v-1.39898a.47184.47184 0 0 0 -.472-.47167h-.00166a.46133.46133 0 0 0 -.47346.44888q-.0003.01138 0 .02278v1.41449a.4685.4685 0 0 0 .47366.45467zm2.99366.80866a.38717.38717 0 0 0 .2365.06666.45565.45565 0 0 0 .40567-.23549l.71017-1.22964a.46944.46944 0 0 0 -.812-.47133l-.71034 1.22982a.4555.4555 0 0 0 .14764.627zm-6.62983-.18467a.47581.47581 0 0 0 .40533.2355.42713.42713 0 0 0 .2365-.06667.46865.46865 0 0 0 .16917-.64016l-.71017-1.22965a.46951.46951 0 0 0 -.81222.47124l.00006.00009z"/></svg>